<svg width="23" height="23" fill="none" xmlns="http://www.w3.org/2000/svg"><path fill-rule="evenodd" clip-rule="evenodd" d="M4.996 3.898v7.746a6.363 6.363 0 106.363-6.363V4.226a7.418 7.418 0 11-7.419 7.418V3.898h1.056z" fill="#00F"/><path fill-rule="evenodd" clip-rule="evenodd" d="M7.292 2.138v9.325c0 2.362 1.839 4.243 4.066 4.243 2.226 0 4.066-1.88 4.066-4.243 0-2.362-1.84-4.242-4.066-4.242V6.165c2.847 0 5.121 2.391 5.121 5.298 0 2.908-2.274 5.299-5.121 5.299-2.848 0-5.122-2.392-5.122-5.299V2.138h1.056z" fill="#00F"/><path fill-rule="evenodd" clip-rule="evenodd" d="M11.356 21.495c5.443 0 9.854-4.412 9.854-9.855 0-5.442-4.411-9.854-9.854-9.854-5.442 0-9.854 4.412-9.854 9.854 0 5.443 4.412 9.855 9.854 9.855zm0 1.055c6.026 0 10.91-4.884 10.91-10.91 0-6.025-4.884-10.91-10.91-10.91C5.331.73.446 5.615.446 11.64c0 6.026 4.885 10.91 10.91 10.91z" fill="#DF0112"/></svg>