<svg width="34" height="30" fill="none" xmlns="http://www.w3.org/2000/svg"><path d="M12.057 8.162l-.216-.375H8.516L12.596.75h8.842l4.216 7.335-1.648 2.876h-3.063L17.647 5.29l-.65-1.119-.648 1.12-2.976 5.148-1.316-2.277zm-.089 17.226l-.216.373.214.375 1.435 2.504H5.269L.866 21.004l4.25-7.335h3.326l1.535 2.685-3.26 5.634-.651 1.125h7.216l-1.314 2.275z" stroke="#DF0112" stroke-width="1.5"/><path d="M27.284 21.989l-2.942-5.109h3.062l.218-.372 1.464-2.51 4.048 7.006-4.403 7.636h-8.504l-1.68-2.879 1.53-2.648h7.854l-.647-1.124z" stroke="#00F" stroke-width="1.5"/></svg>