<svg width="31" height="31" fill="none" xmlns="http://www.w3.org/2000/svg"><circle cx="15.5" cy="15.5" r="5.75" stroke="#00F" stroke-width="1.5"/><path d="M26.89 12.285l.15.553h2.894v5.3H27.04l-.15.553a12.104 12.104 0 01-1.145 2.781l-.279.494.4.403 1.651 1.667-3.706 3.742-1.642-1.656-.407-.41-.5.288a11.9 11.9 0 01-2.754 1.155l-.55.152v2.92h-5.234v-2.922l-.55-.153A11.763 11.763 0 019.425 26l-.5-.29-.408.412-1.642 1.656-3.708-3.742 1.652-1.667.399-.402-.279-.494a12.12 12.12 0 01-1.144-2.782l-.15-.554H.75v-5.299h2.894l.15-.554a12.12 12.12 0 011.145-2.78l.278-.494-.398-.402-1.653-1.669 3.708-3.741 1.642 1.657.408.41.5-.289a11.78 11.78 0 012.75-1.154l.55-.152V.75h5.235v2.92l.55.152c.97.269 1.892.66 2.753 1.155l.5.288.407-.41 1.642-1.657 3.706 3.741-1.652 1.669-.399.403.28.494c.49.866.877 1.799 1.144 2.78z" stroke="#DF0112" stroke-width="1.5"/><path stroke="#00F" stroke-width="1.5" d="M15.75 6v9"/></svg>