<svg width="42" height="31" fill="none" xmlns="http://www.w3.org/2000/svg"><path d="M39.162 11.868h-7.946v2.838l5.108 3.406h5.108" stroke="#00F"/><path d="M27.743 8.396h9.95l3.807 9.247v9.05H27.743V8.396z" stroke="#DF0112"/><path fill="#fff" stroke="#DF0112" d="M5.039 22.018h26.243v4.676H5.039z"/><circle cx="31.784" cy="26.059" r="4.041" fill="#fff" stroke="#DF0112"/><circle cx="13.622" cy="26.059" r="4.041" fill="#fff" stroke="#DF0112"/><circle cx="4.541" cy="26.059" r="4.041" fill="#fff" stroke="#DF0112"/><path stroke="#DF0112" d="M5.039 15.842v6.81"/><path d="M4.678 15.509L2.66 12.012l3.095-8.556L9.544 2.06l14.6 5.282 2.02 3.497-3.096 8.556-3.79 1.396-14.6-5.282zm.58-.277l4.556-12.59m9.322 17.611l4.555-12.59" stroke="#00F"/></svg>