<svg width="24" height="24" fill="none" xmlns="http://www.w3.org/2000/svg"><circle cx="12.182" cy="11.781" r="4.44" stroke="#00F"/><path d="M20.906 9.32l.1.368h2.217v4.168h-2.217l-.1.369a9.263 9.263 0 01-.876 2.13l-.187.33.267.268 1.304 1.316-2.916 2.944-1.298-1.31-.27-.273-.334.192a9.092 9.092 0 01-2.11.885l-.366.102v2.235h-4.119v-2.236l-.366-.102a9.01 9.01 0 01-2.106-.883l-.334-.193-.272.274-1.297 1.309-2.917-2.944 1.304-1.316.266-.268-.185-.33a9.279 9.279 0 01-.877-2.13l-.1-.37H.9V9.689h2.217l.1-.37c.203-.75.501-1.464.876-2.129l.186-.329-.266-.268L2.71 5.274l2.916-2.943 1.298 1.31.272.274.334-.193a9.024 9.024 0 012.105-.884l.367-.102V.5h4.12v2.236l.366.102c.744.205 1.45.505 2.109.884l.334.192.27-.273 1.298-1.31 2.916 2.943-1.304 1.318-.267.269.187.329c.375.664.672 1.378.876 2.13z" stroke="#DF0112"/><path stroke="#00F" d="M12.301 4.561v6.84"/></svg>