<svg width="33" height="34" fill="none" xmlns="http://www.w3.org/2000/svg"><mask id="a" fill="#fff"><path d="M5.5 9h22L33 33.2H0L5.5 9z"/></mask><path d="M5.5 9V7.5H4.303l-.266 1.168L5.5 9zm22 0l1.463-.332-.266-1.168H27.5V9zM33 33.2v1.5h1.88l-.417-1.832L33 33.2zm-33 0l-1.463-.332A1.5 1.5 0 000 34.7v-1.5zm5.5-22.7h22v-3h-22v3zm20.537-1.168l5.5 24.2 2.926-.664-5.5-24.2-2.926.664zM33 31.7H0v3h33v-3zM1.463 33.532l5.5-24.2-2.926-.664-5.5 24.2 2.926.664z" fill="#DF0112" mask="url(#a)"/><path d="M11 22.308L15.174 26 23 18" stroke="#00F" stroke-width="1.5"/><circle cx="16.5" cy="4.5" r="3.75" stroke="#DF0112" stroke-width="1.5"/></svg>