<svg width="30" height="38" fill="none" xmlns="http://www.w3.org/2000/svg"><path d="M1 36.428V23.857l9.714-4.572v4.572l9.143-4.572v4.572L29 19.285v17.143H1z" stroke="#DF0112" stroke-width="1.5"/><path d="M7.286 18.143l-4.572 2.286 1.143-12h2.857l.572 9.714zM17 17.544l-3.428 1.742.857-9.143h2.143l.429 7.401zM4.558 6.714s.97-.571.97-1.904c0-.886-.655-1.077-.97-1.905-.29-.764 0-1.905 0-1.905m10.285 6.858s.97-.572.97-1.905c0-.886-.655-1.077-.97-1.905-.29-.763 0-1.905 0-1.905" stroke="#00F" stroke-width="1.5"/><path stroke="#DF0112" stroke-width="1.5" d="M4.429 29.964H9m3.429 0H17m3.429 0H25"/></svg>