<svg width="33" height="33" fill="none" xmlns="http://www.w3.org/2000/svg"><path d="M19.085 23.249a7.226 7.226 0 004.649-6.75 7.228 7.228 0 00-4.649-6.75V1.234C26.413 2.466 32.001 8.822 32.001 16.5c0 7.679-5.588 14.036-12.916 15.268V23.25z" stroke="#DF0112" stroke-width="1.5" stroke-miterlimit="10" stroke-linecap="round" stroke-linejoin="round"/><path d="M16.5 9.266A7.233 7.233 0 009.267 16.5a7.2 7.2 0 00.632 2.948L3.875 25.47A15.409 15.409 0 011 16.499C1 7.939 7.939 1 16.5 1v8.266z" stroke="#00F" stroke-width="1.5" stroke-miterlimit="10" stroke-linecap="round" stroke-linejoin="round"/><path d="M16.502 23.732a7.21 7.21 0 01-5.114-2.118L5.542 27.46A15.451 15.451 0 0016.502 32v-8.267z" stroke="#DF0112" stroke-width="1.5" stroke-miterlimit="10" stroke-linecap="round" stroke-linejoin="round"/><path stroke="#00F" stroke-width="1.5" d="M13.299 10.263l-3-8"/><path transform="rotate(-141.779 7.848 3.5) skewX(.001)" stroke="#00F" stroke-width="1.5" d="M0-.75h8.544"/><path stroke="#00F" stroke-width="1.5" d="M9.791 14.72l-7.943-2.304"/><path transform="rotate(176.973 4.541 8.626) skewX(.003)" stroke="#00F" stroke-width="1.5" d="M0-.75h8.544"/></svg>