<svg width="33" height="39" fill="none" xmlns="http://www.w3.org/2000/svg"><path d="M31.777 27.907l-3.643-3.643a.409.409 0 00-.579 0l-.3.3-2.394-2.394c.012-.087.017-.165.017-.247v-8.402a2.028 2.028 0 10-4.058 0v4.608L9.103 6.416a1.946 1.946 0 00-2.755 2.747l4.981 5.101a1.997 1.997 0 00-1.692 2.238 1.997 1.997 0 00-2.242 2.243 1.997 1.997 0 00-1.676.566 2 2 0 000 2.822l11.98 11.98-.3.3a.407.407 0 00-.12.29c0 .112.046.214.12.292l3.643 3.643c.082.082.189.167.295.167.107 0 .206-.089.288-.167L31.773 28.49c.078-.078.195-.18.195-.291 0-.111-.117-.214-.191-.292zm-25.47-6.353a1.177 1.177 0 010-1.66 1.17 1.17 0 011.659 0 .409.409 0 00.698-.291.42.42 0 00-.12-.292 1.174 1.174 0 011.66-1.66.409.409 0 00.698-.29.42.42 0 00-.119-.292 1.17 1.17 0 010-1.66 1.177 1.177 0 011.66 0 .409.409 0 10.578-.578c-.152-.152-6.033-6.177-6.094-6.242a1.123 1.123 0 111.589-1.59l12.415 12.415a.411.411 0 00.702-.287V13.52a1.21 1.21 0 011.207-1.208 1.21 1.21 0 011.208 1.208v8.398c0 .086-.012.177-.041.284a.425.425 0 00.107.39l2.55 2.55-8.382 8.39-11.975-11.98zm15.03 16.213l-3.063-3.063 9.569-9.57 3.063 3.064-9.569 9.57z" fill="#DF0112" stroke="#DF0112" stroke-width=".3"/><path fill-rule="evenodd" clip-rule="evenodd" d="M8.355 13.783v.825c-.179.014-.357.02-.534.018a6.824 6.824 0 01-4.825-1.995A6.773 6.773 0 011 7.813c0-1.82.71-3.532 1.996-4.817A6.772 6.772 0 017.813 1c1.82 0 3.532.71 4.817 1.996a6.84 6.84 0 011.916 5.853l-.81-.135a6.013 6.013 0 00-1.689-5.139A5.965 5.965 0 007.81 1.821c-1.602 0-3.105.62-4.238 1.754a5.965 5.965 0 00-1.754 4.238c0 1.602.62 3.105 1.754 4.238a5.998 5.998 0 004.784 1.732z" fill="#00F"/><path d="M8.355 14.608l.012.15.138-.01v-.14h-.15zm0-.825h.15v-.165l-.163.015.013.15zm-.534.843l.002-.15h-.002v.15zm-4.825-1.995l.106-.107-.106.107zm0-9.635l.106.106-.106-.106zm9.634 0l.107-.106-.107.106zm1.916 5.853l-.024.148.15.025.022-.15-.148-.023zm-.81-.135l-.149-.022-.022.146.146.024.025-.148zm-1.689-5.139l.106-.106-.106.106zm-8.476 0l-.106-.106.106.106zm0 8.476l.106-.106-.106.106zm4.934 2.557v-.825h-.3v.825h.3zm-.161-.15c-.175.014-.349.02-.521.018l-.003.3a6.21 6.21 0 00.547-.018l-.023-.3zm-.523.018a6.674 6.674 0 01-4.719-1.952l-.212.213a6.974 6.974 0 004.931 2.04v-.3zm-4.719-1.952a6.622 6.622 0 01-1.952-4.71h-.3c0 1.858.726 3.609 2.04 4.922l.212-.212zM1.15 7.814c0-1.78.695-3.455 1.952-4.712L2.89 2.89A6.922 6.922 0 00.85 7.813h.3zm1.952-4.712A6.622 6.622 0 017.813 1.15v-.3A6.92 6.92 0 002.89 2.89l.212.212zM7.813 1.15c1.78 0 3.454.695 4.711 1.952l.213-.212A6.922 6.922 0 007.812.85v.3zm4.711 1.952a6.691 6.691 0 011.874 5.725l.296.045a6.991 6.991 0 00-1.957-5.982l-.213.212zm2.047 5.6l-.81-.136-.05.296.81.135.05-.296zm-.687.034a6.162 6.162 0 00-1.73-5.267l-.213.212a5.863 5.863 0 011.646 5.01l.297.045zm-1.73-5.267A6.115 6.115 0 007.808 1.67v.3c1.562 0 3.027.609 4.132 1.71l.212-.212zM7.808 1.67a6.098 6.098 0 00-4.343 1.8l.212.212a5.798 5.798 0 014.132-1.71v-.3zm-4.343 1.8a6.115 6.115 0 00-1.798 4.344h.3c0-1.562.609-3.027 1.71-4.132l-.212-.212zM1.667 7.813a6.1 6.1 0 001.798 4.345l.212-.213a5.798 5.798 0 01-1.71-4.132h-.3zm1.798 4.344a6.148 6.148 0 004.904 1.775l-.027-.299a5.848 5.848 0 01-4.665-1.688l-.212.212z" fill="#00F"/></svg>