<svg width="34" height="34" fill="none" xmlns="http://www.w3.org/2000/svg"><path d="M27.856 7.282l3.086 5.33h1.826l.963-3.365a7.019 7.019 0 00-2.126-7.204L29.271 0h-3.175L24.54 1.555l1.164 2.01-14.169 8.306a2.128 2.128 0 00-.994 1.322 2.138 2.138 0 001.524 2.6v6.69h-1.84L1.097 29.9v3.003H0V34h34v-1.097h-7.129v-1.645l-2.258-18.097h-1.032V9.788l4.275-2.506zM26.55 1.097h2.308l2.025 1.771a5.917 5.917 0 011.793 6.078l-.735 2.57h-.367l-5.663-9.78.639-.64zM11.72 14.264a1.042 1.042 0 01-.117-.8c.07-.274.243-.503.487-.646l14.163-8.303 1.053 1.818-14.154 8.297a1.054 1.054 0 01-1.431-.366zm1.441 1.536a2.11 2.11 0 00.546-.224l.551-.323v7.23h-1.097V15.8zM2.194 30.422l8.42-6.841h5.29v2.193h-5.485v7.13H8.226V30.16h-3.29v2.742H2.193v-2.48zM17 26.871v6.032h-5.484v-6.032H17zm-9.871 6.032H6.032v-1.645H7.13v1.645zm16.452-3.29h-1.097v-2.194h1.097v2.194zm0-3.29h-1.097v-2.194h1.097v2.194zm0-3.29h-1.097v-2.194h1.097v2.193zm-1.097-3.291v-2.194h1.097v2.194h-1.097zm0 10.968h1.097v2.193h-1.097V30.71zm1.097-14.258h-1.097v-2.194h1.097v2.194zm-2.194 16.451H20.29v-1.61l1.097-8.775v10.385zm4.387 0h-1.097V22.518l1.097 8.774v1.611zm-3.29-19.742H21.45l-2.253 18.03-.003 1.712h-1.098v-7.129H17v-3.29h-1.645V14.61l7.129-4.18v2.731z" fill="#DF0112"/><path d="M7.13 20.839a1.647 1.647 0 00-.001-3.291c-.907 0-1.645.739-1.645 1.646 0 .907.738 1.645 1.645 1.645zm0-2.194a.549.549 0 11-.001 1.097.549.549 0 010-1.097zm-5.485 6.581c.907 0 1.645-.738 1.645-1.645s-.738-1.645-1.645-1.645S0 22.674 0 23.58s.738 1.645 1.645 1.645zm0-2.194a.549.549 0 110 1.097.549.549 0 010-1.097z" fill="#00F"/></svg>