<svg width="46" height="38" fill="none" xmlns="http://www.w3.org/2000/svg"><mask id="a" fill="#fff"><path fill-rule="evenodd" clip-rule="evenodd" d="M21.18 16.352a3.558 3.558 0 005.032 0l5.66 5.66-11.95 11.95h-6.289L3.57 23.899v-6.29L15.52 5.66l5.66 5.66a3.558 3.558 0 000 5.032z"/></mask><path d="M26.212 16.352l.707-.707-.707-.707-.707.707.707.707zm5.66 5.66l.707.707.707-.707-.707-.707-.707.707zm-11.95 11.95v1h.415l.293-.293-.707-.707zm-6.289 0l-.707.707.293.293h.414v-1zM3.57 23.899h-1v.414l.293.293.707-.707zm0-6.29l-.707-.707-.293.293v.415h1zM15.52 5.66l.707-.707-.707-.707-.707.707.707.707zm5.66 5.66l.707.707.708-.707-.708-.707-.707.707zm4.324 4.325a2.558 2.558 0 01-3.617 0l-1.414 1.414a4.558 4.558 0 006.446 0l-1.415-1.414zm0 0l1.415 1.414-1.414-1.414zm0 1.414l5.661 5.66 1.414-1.414-5.66-5.66-1.414 1.414zm5.661 4.246l-11.95 11.95 1.415 1.414 11.95-11.95-1.415-1.414zM19.923 32.962h-6.29v2h6.29v-2zm-5.583.292L4.278 23.193l-1.415 1.414L12.926 34.67l1.414-1.414zM4.57 23.9v-6.29h-2v6.29h2zm-.292-5.582l11.95-11.95-1.415-1.414-11.95 11.95 1.415 1.414zm10.535-11.95l5.66 5.66 1.414-1.414-5.66-5.66-1.414 1.414zm7.074 5.66l-1.414-1.414 1.414 1.415zm0 3.618a2.558 2.558 0 010-3.617l-1.414-1.415a4.558 4.558 0 000 6.446l1.414-1.414z" fill="#DF0112" mask="url(#a)"/><circle cx="23.696" cy="13.836" r="2.168" transform="rotate(45 23.696 13.836)" stroke="#00F"/><mask id="b" fill="#fff"><path fill-rule="evenodd" clip-rule="evenodd" d="M17.407 1.414L36.12 20.126l-1.73 1.73-7.224-7.224c-.08.352-.215.693-.403 1.012l6.92 6.92.706.706.707-.707 1.73-1.73.708-.707-.707-.707L18.114.707 17.407 0 16.7.707l-1.73 1.73-.707.708.707.707 6.919 6.919a3.53 3.53 0 011.011-.403l-7.223-7.223 1.73-1.73z"/></mask><path fill-rule="evenodd" clip-rule="evenodd" d="M17.407 1.414L36.12 20.126l-1.73 1.73-7.224-7.224c-.08.352-.215.693-.403 1.012l6.92 6.92.706.706.707-.707 1.73-1.73.708-.707-.707-.707L18.114.707 17.407 0 16.7.707l-1.73 1.73-.707.708.707.707 6.919 6.919a3.53 3.53 0 011.011-.403l-7.223-7.223 1.73-1.73z" fill="#C4C4C4"/><path d="M36.119 20.126l.707.707.707-.707-.707-.707-.707.707zM17.407 1.414l.707-.707L17.407 0 16.7.707l.707.707zm16.981 20.442l-.707.707.707.707.707-.707-.707-.707zm-7.223-7.224l.707-.707-1.279-1.278-.403 1.762.975.223zm-.403 1.012l-.861-.509-.395.668.549.548.707-.707zm6.92 6.92l.706-.708-.707.707zm.706.706l-.707.707.707.707.707-.707-.707-.707zm3.145-3.144l.707.707.707-.707-.707-.707-.707.707zm-.707-.707l-.707.707.707-.707zM18.114.707L18.821 0l-.707.707zM17.407 0l.707-.707-.707-.707-.707.707.707.707zm-3.144 3.145l-.707-.707-.708.707.707.707.708-.707zm.707.707l-.707.707.707-.707zm6.919 6.919l-.707.707.548.548.668-.394-.51-.861zm1.011-.403l.223.975 1.763-.403-1.279-1.28-.707.708zm-7.223-7.223l-.707-.707-.707.707.707.707.707-.707zm21.149 16.274L18.114.707 16.7 2.121l18.711 18.712 1.415-1.414zm-1.73 3.144l1.73-1.73-1.415-1.414-1.73 1.73 1.414 1.414zm-8.638-7.223l7.223 7.223 1.414-1.414-7.223-7.224-1.414 1.415zm-.268-.93a2.534 2.534 0 01-.29.725l1.723 1.018c.241-.41.414-.847.517-1.298l-1.95-.446zm-.135 1.941l6.919 6.92 1.414-1.415-6.919-6.92-1.414 1.415zm6.919 6.92l.707.706 1.414-1.414-.707-.707-1.414 1.414zm2.121.706l.707-.707-1.414-1.414-.707.707 1.414 1.414zm.707-.707l1.73-1.73-1.413-1.414-1.73 1.73 1.413 1.414zm1.73-1.73l.708-.707-1.414-1.414-.707.707 1.414 1.414zm.708-2.121l-.707-.708-1.414 1.415.707.707 1.414-1.414zm-.707-.708L18.82 0l-1.414 1.414L36.12 20.126l1.414-1.415zM18.82 0l-.707-.707L16.7.707l.707.707L18.821 0zM16.7-.707L15.992 0l1.414 1.414.707-.707L16.7-.707zM15.992 0l-1.73 1.73 1.414 1.415 1.73-1.73L15.993 0zm-1.73 1.73l-.707.708 1.414 1.414.707-.707-1.414-1.415zm-.707 2.122l.707.707 1.414-1.414-.707-.707-1.415 1.414zm.707.707l6.919 6.919 1.414-1.414-6.92-6.92-1.413 1.415zm8.135 7.073c.228-.135.473-.231.725-.29l-.446-1.949a4.53 4.53 0 00-1.297.517l1.018 1.722zm-7.428-7.78l7.223 7.223 1.414-1.414-7.223-7.223-1.414 1.414zM16.7.707l-1.73 1.73 1.414 1.415 1.73-1.73L16.7.706z" fill="#DF0112" mask="url(#b)"/><path d="M39.115 18.678l-5.78-5.781s4.891-.89 8.894 4.892c4.002 5.781 3.113 15.565 3.113 15.565h-6.227V18.678z" stroke="#00F"/></svg>