<svg width="20" height="24" fill="none" xmlns="http://www.w3.org/2000/svg"><path d="M7.73 9.12h-.9V3.04h.901v6.08zm1.343 0V3.04h1.963c.562 0 1.014.141 1.356.424.345.282.517.682.517 1.2v.435c0 .538-.172.957-.517 1.255-.342.298-.794.447-1.356.447H9.975v2.32h-.902zm1.87-5.335h-.968v2.272h.968c.707 0 1.06-.346 1.06-1.037v-.277c0-.64-.353-.958-1.06-.958zM9.402 16.22c0 .642-.156 1.14-.467 1.492-.309.353-.709.53-1.2.53s-.892-.184-1.204-.552c-.308-.37-.463-.89-.463-1.562v-2.613c0-.671.155-1.19.463-1.558a1.5 1.5 0 011.204-.556c.473 0 .86.167 1.158.5.298.33.447.796.447 1.401v.152h-.79v-.082c0-.77-.272-1.155-.815-1.155-.584 0-.876.456-.876 1.367v1.12c.234-.46.594-.69 1.08-.69.428 0 .777.177 1.05.53.275.35.413.849.413 1.497v.178zm-2.543-.17v.156c0 .813.292 1.22.876 1.22.278 0 .494-.1.648-.3.155-.2.232-.506.232-.92v-.156c0-.813-.293-1.22-.88-1.22-.584 0-.876.407-.876 1.22zm5.228-1.645c-.224 0-.399.063-.524.19a.844.844 0 00-.232.491h-.76v-3.598h2.955v.816h-2.195v1.888c.216-.379.536-.569.96-.569.45 0 .793.165 1.027.495.234.327.351.808.351 1.441v.712c0 .628-.15 1.114-.447 1.459a1.434 1.434 0 01-1.135.512 1.49 1.49 0 01-1.146-.49c-.298-.328-.447-.786-.447-1.377v-.247h.787v.108c0 .793.269 1.19.806 1.19a.682.682 0 00.579-.287c.141-.194.212-.483.212-.868v-.66c0-.804-.264-1.206-.79-1.206z" fill="#00F"/><path d="M14.106 19.346c-1.81 2.192-3.654 3.382-4.4 3.81-.814-.381-2.91-1.535-4.863-4.03C2.7 16.387.702 12.002.789 5.168L4.58.5h10.34l3.79 4.667c.045 7.059-2.481 11.605-4.605 14.179l.386.318-.386-.318z" stroke="#DF0112"/></svg>