<svg width="26" height="32" fill="none" xmlns="http://www.w3.org/2000/svg"><path d="M10.186 12H9V4h1.186v8zm1.768 0V4h2.58c.741 0 1.336.186 1.786.557.453.372.68.898.68 1.578v.573c0 .709-.227 1.259-.68 1.651-.45.393-1.045.589-1.785.589h-1.396V12h-1.185zm2.459-7.02h-1.274v2.989h1.274c.93 0 1.395-.455 1.395-1.365V6.24c0-.84-.465-1.26-1.395-1.26zm-2.027 16.359c0 .845-.205 1.5-.614 1.964-.406.465-.933.697-1.58.697-.645 0-1.173-.242-1.583-.725C8.203 22.787 8 22.102 8 21.219V17.78c0-.883.203-1.566.61-2.05.409-.487.937-.731 1.583-.731.623 0 1.13.219 1.523.657.392.434.589 1.049.589 1.844v.2h-1.041v-.108c0-1.013-.357-1.52-1.071-1.52-.768 0-1.152.6-1.152 1.8v1.473c.308-.605.781-.908 1.42-.908.563 0 1.023.232 1.382.697.362.46.543 1.117.543 1.97v.234zm-3.345-.223v.206c0 1.07.384 1.604 1.152 1.604.365 0 .65-.13.853-.394.203-.262.304-.666.304-1.21v-.206c0-1.07-.386-1.605-1.157-1.605-.768 0-1.152.535-1.152 1.605zm6.878-2.164c-.295 0-.525.083-.69.251a1.11 1.11 0 00-.305.645h-1v-4.734h3.888v1.074h-2.888v2.484c.284-.499.705-.748 1.264-.748.592 0 1.042.217 1.35.65.308.431.462 1.063.462 1.897v.936c0 .826-.196 1.466-.589 1.92a1.89 1.89 0 01-1.492.673c-.61 0-1.112-.215-1.508-.645-.392-.43-.589-1.034-.589-1.81v-.326h1.036v.143c0 1.043.353 1.564 1.06 1.564a.897.897 0 00.762-.377c.186-.255.28-.635.28-1.142v-.868c0-1.058-.348-1.587-1.041-1.587z" fill="#00F"/><path d="M18.504 25.394c-2.34 2.834-4.722 4.389-5.722 4.967-1.091-.517-3.797-2.03-6.322-5.255-2.803-3.58-5.422-9.32-5.314-18.272L6.087.75h13.515l4.94 6.081c.05 9.244-3.259 15.195-6.038 18.563l.578.477-.578-.477z" stroke="#DF0112" stroke-width="1.5"/></svg>