<svg width="53" height="53" fill="none" xmlns="http://www.w3.org/2000/svg"><circle cx="26.5" cy="26.5" r="26.5" fill="#fff"/><path d="M28.798 30.965l-.618-.706c2.824-2.472 1.765-6.178 1.147-7.767l-1.677 3-2.206-5.647c-2.383 2.824-3.53 5.383-3.177 7.413.353 1.941 1.853 2.736 1.942 2.824l-.442.794c-.088 0-1.941-1.059-2.383-3.442-.44-2.47.883-5.383 3.795-8.736l.442-.53 2.03 5.295 1.588-2.824.353.706c.265.088 3.353 6.001-.794 9.62z" fill="#DF0112" stroke="#DF0112" stroke-width=".4"/><path d="M16.53 31.582H10v-6.53h6.53v6.53zm-5.648-.882h4.766v-4.766h-4.765V30.7zm32.123.882h-6.53v-6.53h6.53v6.53zm-5.648-.882h4.766v-4.766h-4.766V30.7zM16.53 39.525H10v-6.53h6.53v6.53zm-5.648-.883h4.766v-4.765h-4.765v4.765zm14.474.883h-6.53v-6.53h6.53v6.53zm-5.648-.883h4.765v-4.765h-4.765v4.765zm14.473.883h-6.53v-6.53h6.53v6.53zm-5.648-.883h4.765v-4.765h-4.765v4.765zm14.472.883h-6.53v-6.53h6.53v6.53zm-5.648-.883h4.766v-4.765h-4.766v4.765zM16.795 23.463h-6.62l.089-.53c.088-.617.265-1.147.353-1.676.088-.441.265-.794.353-1.147.441-1.324 1.147-2.648 1.942-3.795l.264-.353 5.207 3.795-.265.353a8.418 8.418 0 00-1.323 3v.353zm-5.649-.882h4.943c.264-.971.617-1.854 1.147-2.648l-3.883-2.824c-.618.97-1.147 2.118-1.589 3.265-.088.353-.264.706-.353 1.148a9.162 9.162 0 00-.264 1.059zm8.032-3.883l-.53-.53-4.324-3.971.353-.353c1.589-1.589 3.971-3 6.001-3.795l.53-.177 1.853 6.178-.353.177a12.482 12.482 0 00-3.177 2.117l-.353.354zm-3.53-4.501l3.53 3.265c.794-.794 1.765-1.412 2.736-1.853l-1.324-4.59c-1.677.707-3.53 1.854-4.942 3.178zm18.357 4.501l-.353-.354c-.883-.882-1.942-1.676-3.177-2.117l-.265-.177 1.853-6.178.441.177c2.119.794 4.413 2.206 6.002 3.795l.353.353-4.854 4.5zm-2.736-3.178c.97.442 1.942 1.06 2.736 1.854l3.53-3.266c-1.412-1.235-3.177-2.382-4.942-3.088l-1.324 4.5zm-7.149.177l-1.235-6.266.441-.088c2.118-.441 4.324-.441 6.442-.088l.442.088-1.236 6.266-.441-.088c-1.324-.265-2.736-.265-4.06.088l-.353.088zm-.176-5.56l.882 4.59c1.148-.177 2.383-.266 3.53-.089l.883-4.59c-1.765-.264-3.618-.264-5.295.09zm19.063 13.326h-6.62l-.176-.353a10.543 10.543 0 00-1.324-3.089l-.176-.353 5.207-3.794.264.353a15.325 15.325 0 012.648 6.707l.177.53zm-6.002-.882h4.942c-.353-1.942-1.147-3.795-2.206-5.472l-3.794 2.824c.44.794.794 1.677 1.058 2.648z" fill="#00F" stroke="#00F" stroke-width=".4"/></svg>