<svg width="23" height="28" fill="none" xmlns="http://www.w3.org/2000/svg"><path d="M22.102 19.15l-2.564-2.564a.288.288 0 00-.408 0l-.21.211-1.686-1.685c.009-.06.012-.116.012-.173V9.024a1.43 1.43 0 00-2.856 0v3.244L6.143 4.024a1.37 1.37 0 00-1.94 1.933l3.506 3.59a1.406 1.406 0 00-1.191 1.575 1.406 1.406 0 00-1.578 1.58 1.406 1.406 0 00-1.18.398 1.408 1.408 0 000 1.986l8.433 8.432-.211.211a.286.286 0 00-.084.205c0 .078.032.15.084.206l2.564 2.564c.058.058.133.117.208.117.075 0 .144-.062.202-.117L22.1 19.56c.055-.055.137-.127.137-.205 0-.078-.082-.15-.134-.206zM4.174 14.68a.829.829 0 01.584-1.411.82.82 0 01.584.243.288.288 0 00.491-.205.296.296 0 00-.084-.206.826.826 0 011.168-1.168.288.288 0 00.492-.205.296.296 0 00-.084-.205.823.823 0 010-1.168.829.829 0 011.168 0 .288.288 0 10.407-.407C8.793 9.841 4.654 5.6 4.61 5.554a.79.79 0 111.12-1.119l8.738 8.738a.29.29 0 00.494-.202V9.024c0-.468.382-.85.85-.85.468 0 .85.382.85.85v5.912c0 .06-.009.124-.03.2a.3.3 0 00.076.274l1.795 1.795-5.9 5.906-8.429-8.433zm10.58 11.412l-2.156-2.157 6.735-6.735 2.156 2.157-6.735 6.735z" fill="#DF0112"/><path fill-rule="evenodd" clip-rule="evenodd" d="M6.291 3.874l7.887 7.883V9.024a1.639 1.639 0 113.278 0v5.914c0 .031 0 .063-.002.095l1.465 1.465.061-.062a.499.499 0 01.707 0l2.568 2.569a.396.396 0 01.192.35.394.394 0 01-.094.242.975.975 0 01-.094.101l-.011.012-7.147 7.146a.922.922 0 01-.123.102.407.407 0 01-.225.074.422.422 0 01-.222-.07.778.778 0 01-.135-.11l-2.568-2.568a.51.51 0 01-.142-.35c0-.132.05-.259.146-.355l.062-.061-8.283-8.283a1.614 1.614 0 011.106-2.757A1.613 1.613 0 016.295 10.9a1.613 1.613 0 011.012-1.462L4.052 6.105a1.58 1.58 0 012.24-2.231zm-.298.298a1.158 1.158 0 00-1.641 1.636l.002.001 3.794 3.886-.408.06a1.195 1.195 0 00-1.013 1.34l.036.272-.273-.035a1.195 1.195 0 00-1.341 1.341l.036.273-.273-.036a1.195 1.195 0 00-1.002.339 1.197 1.197 0 000 1.687l8.58 8.582-.36.36a.075.075 0 00-.021.056c0 .019.007.04.024.058l2.562 2.562a.38.38 0 00.056.048.591.591 0 00.057-.05l7.141-7.141.023-.023.02-.02a.706.706 0 00.013-.013l-.013-.015-.02-.02v-.001l-.014-.014-.008-.008-2.562-2.562a.077.077 0 00-.109 0l-.36.36-1.91-1.909.015-.104a.977.977 0 00.01-.144V9.024a1.218 1.218 0 00-2.434 0v3.753L5.993 4.172zm-.414.41a.58.58 0 10-.82.82l.005.006.013.013.658.675a7150.6 7150.6 0 003.614 3.7.5.5 0 11-.706.707.618.618 0 00-.87 0 .612.612 0 000 .87l.005.003a.507.507 0 01-.004.705.499.499 0 01-.707 0 .615.615 0 00-.869.87l.004.003a.507.507 0 01-.004.705.499.499 0 01-.706 0 .612.612 0 00-.87 0 .618.618 0 00.001.87l8.28 8.282 5.601-5.607-1.649-1.648a.51.51 0 01-.128-.47l.001-.006a.547.547 0 00.022-.145V9.024a.64.64 0 00-.639-.639.64.64 0 00-.638.639v3.946a.5.5 0 01-.311.461h-.002a.5.5 0 01-.542-.11L5.579 4.583zm-1.118-.298a1.002 1.002 0 011.417 0l8.739 8.739c.022.022.053.03.087.017a.079.079 0 00.046-.07V9.024a1.062 1.062 0 012.122-.001v5.912a.96.96 0 01-.035.25.088.088 0 00.022.077l1.942 1.942-6.198 6.205-8.579-8.582a1.04 1.04 0 01.733-1.77c.266 0 .531.101.734.304a.077.077 0 00.13-.056.085.085 0 00-.024-.059 1.037 1.037 0 011.47-1.463l-.15.149.15-.15a.077.077 0 00.13-.055.085.085 0 00-.024-.059 1.035 1.035 0 01.003-1.464 1.04 1.04 0 011.466 0 .077.077 0 10.109-.109C8.643 9.99 4.6 5.847 4.458 5.7a1.001 1.001 0 01.002-1.416zM19.332 16.9l2.455 2.455-7.034 7.034-2.455-2.455 7.034-7.034zm-6.436 7.034l1.857 1.858 6.437-6.437-1.858-1.858-6.436 6.437z" fill="#DF0112"/><path fill-rule="evenodd" clip-rule="evenodd" d="M5.616 9.209v.581a4.803 4.803 0 01-3.772-1.392 4.767 4.767 0 01-1.405-3.39c0-1.281.5-2.487 1.404-3.391A4.767 4.767 0 015.234.212c1.28 0 2.486.5 3.391 1.405a4.815 4.815 0 011.348 4.12l-.57-.096a4.232 4.232 0 00-1.189-3.617A4.199 4.199 0 005.231.79a4.187 4.187 0 00-2.983 1.234 4.199 4.199 0 00-1.234 2.983c0 1.128.436 2.186 1.234 2.983a4.222 4.222 0 003.368 1.22z" fill="#00F"/><path fill-rule="evenodd" clip-rule="evenodd" d="M5.234.422a4.556 4.556 0 00-3.241 1.343A4.556 4.556 0 00.65 5.007c0 1.224.478 2.376 1.343 3.241A4.592 4.592 0 005.24 9.591h.002l.163-.001v-.156a4.431 4.431 0 01-3.306-7.56A4.399 4.399 0 015.23.579a4.41 4.41 0 013.133 1.296 4.444 4.444 0 011.274 3.592l.154.026a4.604 4.604 0 00-1.316-3.727A4.556 4.556 0 005.234.422zm-3.54 1.045A4.978 4.978 0 015.234 0c1.337 0 2.596.522 3.54 1.467a5.027 5.027 0 011.408 4.3l-.032.212-.987-.164.031-.206a4.02 4.02 0 00-1.129-3.436A3.988 3.988 0 005.231 1a3.976 3.976 0 00-2.833 1.173 3.988 3.988 0 00-1.173 2.834c0 1.071.414 2.076 1.173 2.834a4.011 4.011 0 003.199 1.157l.23-.02v1.007L5.632 10a5.014 5.014 0 01-3.938-1.453 4.978 4.978 0 01-1.466-3.54c0-1.337.522-2.596 1.466-3.54z" fill="#00F"/></svg>