<svg width="15" height="19" fill="none" xmlns="http://www.w3.org/2000/svg"><path fill-rule="evenodd" clip-rule="evenodd" d="M7.388 18.328l.54-.472c4.54-3.964 6.847-7.426 6.847-10.468C14.775 3.078 11.412 0 7.388 0 3.363 0 0 3.079 0 7.388c0 3.042 2.308 6.504 6.848 10.468l.54.472zm-.001-2.187C3.534 12.669 1.64 9.726 1.64 7.388c0-3.369 2.597-5.746 5.746-5.746 3.148 0 5.746 2.377 5.746 5.746 0 2.338-1.894 5.28-5.746 8.753zm0-12.858a4.104 4.104 0 110 8.209 4.104 4.104 0 010-8.209zM4.925 7.388a2.463 2.463 0 114.925 0 2.463 2.463 0 01-4.925 0z" fill="#DF0112"/></svg>