<svg width="53" height="59" fill="none" xmlns="http://www.w3.org/2000/svg"><path d="M0 0h53v47.52L26.5 59 0 47.52V0z" fill="#fff"/><path fill-rule="evenodd" clip-rule="evenodd" d="M13.053 13H31.58c6.5 0 11.89 4.969 12.7 11.355h-6.876c-.69-2.363-2.867-4.1-5.419-4.1H11.538L10.005 13h3.047z" fill="#0000BD"/><path d="M30.976 25.378h1.696l-.81-1.6h-.046l-.84 1.6zm-.961 1.905h-1.186l2.252-4.313h1.5l2.238 4.313h-1.186l-.54-1.082h-2.508l-.57 1.082zM24.43 22.97h3.633v.854h-2.627v3.46h-1.02V22.97h.014zm-4.924.854v1.326h1.697c.255 0 .42-.046.51-.153.09-.106.15-.274.15-.518 0-.229-.045-.396-.135-.488-.105-.106-.27-.167-.526-.167h-1.696zm0 2.18v1.264h-1.02V22.97h2.897c.54 0 .915.122 1.156.35.225.23.345.626.345 1.159 0 .549-.12.945-.345 1.174-.226.244-.6.35-1.141.35h-1.892zm-6.2-1.281h2.522v-.183c0-.335-.045-.533-.15-.625-.105-.091-.33-.122-.676-.122h-1.306c-.3 0-.495.046-.63.137-.12.092-.18.26-.18.473h-1.021c0-.564.15-.96.45-1.189.255-.183.66-.29 1.201-.29h1.682c.63 0 1.05.107 1.29.32.226.214.346.625.346 1.25v1.265c0 .58-.105.976-.33 1.204-.226.214-.63.336-1.216.336H13.41c-.615 0-1.02-.107-1.23-.305-.211-.213-.301-.61-.301-1.189h1.02c0 .26.06.427.18.518.12.092.331.122.646.122h1.306c.3 0 .51-.046.631-.137.135-.107.195-.32.195-.64v-.198h-2.552v-.747z" fill="#2B2A29"/><path fill-rule="evenodd" clip-rule="evenodd" d="M13.054 37.203h18.525c6.5 0 11.89-4.983 12.7-11.354h-6.875c-.69 2.362-2.868 4.1-5.42 4.1H11.537l-1.53 7.254h3.047z" fill="#E31E24"/></svg>