<svg width="53" height="59" fill="none" xmlns="http://www.w3.org/2000/svg"><path d="M0 0h53v47.52L26.5 59 0 47.52V0z" fill="#fff"/><path fill-rule="evenodd" clip-rule="evenodd" d="M12.961 13.752H30.96c6.316 0 11.552 4.713 12.34 10.772h-6.68c-.671-2.241-2.786-3.89-5.266-3.89H11.488L10 13.752h2.961zM42.337 13a1.69 1.69 0 00-1.167.477c-.32.333-.51.723-.51 1.2 0 .434.175.824.51 1.143.321.332.73.477 1.167.477.467 0 .86-.145 1.182-.478.32-.318.481-.694.481-1.142 0-.477-.16-.853-.481-1.2A1.699 1.699 0 0042.337 13zm-.977.694c.263-.246.598-.405.963-.405.364 0 .7.16.962.405.263.275.409.578.409.983 0 .362-.146.694-.409.94-.262.26-.598.405-.962.405-.365 0-.7-.145-.963-.405a1.15 1.15 0 01-.38-.94c-.014-.405.132-.694.38-.983z" fill="#0000BD"/><path fill-rule="evenodd" clip-rule="evenodd" d="M41.695 15.415v-1.547h.671c.16 0 .292.014.365.043a.34.34 0 01.175.145.48.48 0 01.073.245c0 .116-.03.217-.102.29a.508.508 0 01-.306.144.911.911 0 01.175.13c.043.044.102.13.175.246l.19.304h-.38l-.233-.333c-.088-.116-.132-.202-.16-.231-.03-.03-.06-.058-.103-.058-.03-.014-.087-.014-.16-.014h-.059v.65h-.32v-.014zm.321-.882h.234c.146 0 .248 0 .277-.015.044-.014.073-.029.087-.072a.272.272 0 00.03-.116c0-.058-.015-.101-.044-.13-.03-.029-.073-.058-.117-.058h-.481v.39h.014z" fill="#0000BD"/><path fill-rule="evenodd" clip-rule="evenodd" d="M11.925 27.3v-4.092h4.216v.766h-3.224v.897h3.121v.708h-3.12v.94h3.223v.767h-4.216v.014zm6.316-3.282v1.258h2.057c.204 0 .35-.044.437-.145.088-.101.131-.26.131-.491 0-.232-.043-.376-.116-.478-.088-.1-.233-.159-.452-.159H18.24v.015zm3.69 3.282h-.992v-.636c0-.203-.058-.347-.19-.434-.116-.087-.32-.145-.597-.145H18.24V27.3h-.992v-4.092h3.136c.467 0 .817.101 1.05.29.277.23.409.607.409 1.156 0 .29-.059.52-.19.709-.087.13-.233.26-.423.361.219.072.394.159.481.26a.65.65 0 01.19.477v.839h.03zm3.37-2.4h2.61v1.084c0 .477-.116.824-.335 1.012-.233.188-.613.29-1.152.29h-1.998c-.511 0-.89-.116-1.153-.333-.248-.217-.379-.578-.379-1.07v-1.258c0-.535.117-.925.35-1.142.233-.217.627-.333 1.167-.333h1.984c.525 0 .904.087 1.123.246.262.188.379.52.379 1.012h-.992c0-.159-.058-.274-.175-.332-.117-.073-.32-.102-.613-.102H24.66c-.306 0-.51.058-.627.174-.117.116-.175.318-.175.622v1.04c0 .276.043.463.146.55.102.087.306.13.641.13h1.62c.233 0 .408-.029.495-.1.088-.073.131-.174.131-.334v-.433h-1.633V24.9h.044zm4.507 2.4h-1.152l2.187-4.092h1.459l2.173 4.092h-1.152l-.525-1.027h-2.436l-.554 1.027zm.933-1.807h1.648l-.787-1.519h-.044l-.817 1.519z" fill="#2B2A29"/><path fill-rule="evenodd" clip-rule="evenodd" d="M12.961 36.713H30.96c6.316 0 11.552-4.714 12.34-10.772h-6.68c-.671 2.241-2.786 3.89-5.266 3.89H11.488L10 36.712h2.961z" fill="#E31E24"/></svg>