<svg width="58" height="59" fill="none" xmlns="http://www.w3.org/2000/svg"><path d="M41.503 22.625l-3.31-3.31-5.673 5.674 2.365 2.365-8.509 8.505-2.364-2.365-5.67 5.674 3.309 3.31c1.038 1.038 2.457 1.605 3.78 1.605 1.322 0 2.741-.567 3.78-1.606l12.288-12.289c2.084-2.08 2.084-5.483.004-7.563zm-.66 6.899l-12.29 12.288c-.851.852-1.89 1.323-3.119 1.323-1.229 0-2.267-.474-3.118-1.323l-2.649-2.648 4.348-4.348 2.364 2.365 9.828-9.831-2.364-2.364 4.347-4.348 2.648 2.648c1.703 1.703 1.703 4.538.004 6.238z" fill="#DF0112"/><path fill-rule="evenodd" clip-rule="evenodd" d="M38.195 18.902l3.517 3.517c2.195 2.196 2.195 5.785-.004 7.98L29.42 42.69c-1.093 1.092-2.587 1.692-3.989 1.692-1.401 0-2.895-.6-3.988-1.693l-3.517-3.517 6.086-6.09 2.365 2.364 8.091-8.089-2.364-2.364 6.09-6.09zm-5.257 6.09l2.364 2.364-8.925 8.922-2.365-2.364-5.253 5.256 3.101 3.102c.984.984 2.329 1.52 3.572 1.52 1.242 0 2.587-.536 3.571-1.52l12.289-12.29a5.065 5.065 0 00.003-7.146l-3.1-3.1-5.257 5.256zm5.253-4.768l2.856 2.857c1.819 1.818 1.819 4.84.004 6.654L28.762 42.023c-.902.903-2.014 1.41-3.327 1.41-1.314 0-2.425-.51-3.327-1.41l-2.857-2.856 4.765-4.765 2.364 2.365 9.41-9.414-2.364-2.365 4.765-4.764zm-3.931 4.764l2.364 2.365L26.38 37.6l-2.364-2.364-3.931 3.93 2.44 2.44c.8.799 1.766 1.237 2.91 1.237 1.145 0 2.11-.435 2.91-1.236l12.29-12.289c1.584-1.584 1.584-4.233-.004-5.82l-2.44-2.44-3.931 3.93zM21.284 22.05a6.391 6.391 0 000 9.039l-1.25 1.25a8.16 8.16 0 0111.54-11.54l-1.251 1.251a6.391 6.391 0 00-9.039 0z" fill="#DF0112"/><path fill-rule="evenodd" clip-rule="evenodd" d="M19.092 19.865a9.487 9.487 0 000 13.417l-1.25 1.25c-4.396-4.395-4.396-11.522 0-15.917 4.395-4.396 11.522-4.396 15.918 0l-1.25 1.25a9.487 9.487 0 00-13.418 0z" fill="#DF0112"/></svg>