<svg width="1599" height="11" fill="none" xmlns="http://www.w3.org/2000/svg"><path stroke="#C4C4C4" stroke-dasharray="4 4" d="M0 5.5h1600"/><path d="M97 5.5L85.75.737v9.526L97 5.5zm118 0L203.75.737v9.526L215 5.5zm118 0L321.75.737v9.526L333 5.5zm118 0L439.75.737v9.526L451 5.5zm118 0L557.75.737v9.526L569 5.5zm118 0L675.75.737v9.526L687 5.5zm118 0L793.75.737v9.526L805 5.5zm118 0L911.75.737v9.526L923 5.5zm118 0L1029.75.737v9.526L1041 5.5zm118 0L1147.75.737v9.526L1159 5.5zm118 0L1265.75.737v9.526L1277 5.5zm118 0L1383.75.737v9.526L1395 5.5zm118 0L1501.75.737v9.526L1513 5.5z" fill="#C4C4C4"/></svg>