<svg width="2900" height="11" xmlns="http://www.w3.org/2000/svg"><path stroke-dasharray="4 4" stroke="#C4C4C4" d="M0 5.5h1600"/><path fill="#C4C4C4" d="M97 5.5L85.75.737v9.526L97 5.5zm118 0L203.75.737v9.526L215 5.5zm118 0L321.75.737v9.526L333 5.5zm118 0L439.75.737v9.526L451 5.5zm118 0L557.75.737v9.526L569 5.5zm118 0L675.75.737v9.526L687 5.5zm118 0L793.75.737v9.526L805 5.5zm118 0L911.75.737v9.526L923 5.5zm118 0L1029.75.737v9.526L1041 5.5zm118 0L1147.75.737v9.526L1159 5.5zm118 0L1265.75.737v9.526L1277 5.5zm118 0L1383.75.737v9.526L1395 5.5zm118 0L1501.75.737v9.526L1513 5.5z"/><path stroke-dasharray="4 4" stroke="#C4C4C4" d="M0-72.237h1600"/><path fill="#C4C4C4" d="M97-72.237L85.75-77v9.526L97-72.237zm118 0L203.75-77v9.526L215-72.237zm118 0L321.75-77v9.526L333-72.237zm118 0L439.75-77v9.526L451-72.237zm118 0L557.75-77v9.526L569-72.237zm118 0L675.75-77v9.526L687-72.237zm118 0L793.75-77v9.526L805-72.237zm118 0L911.75-77v9.526L923-72.237zm118 0L1029.75-77v9.526l11.25-4.763zm118 0L1147.75-77v9.526l11.25-4.763zm118 0L1265.75-77v9.526l11.25-4.763zm118 0L1383.75-77v9.526l11.25-4.763zm118 0L1501.75-77v9.526l11.25-4.763z"/><path stroke-dasharray="4 4" stroke="#C4C4C4" d="M1519 5.5h1600"/><path fill="#C4C4C4" d="M1616 5.5L1604.75.737v9.526L1616 5.5zm118 0L1722.75.737v9.526L1734 5.5zm118 0L1840.75.737v9.526L1852 5.5zm118 0L1958.75.737v9.526L1970 5.5zm118 0L2076.75.737v9.526L2088 5.5zm118 0L2194.75.737v9.526L2206 5.5zm118 0L2312.75.737v9.526L2324 5.5zm118 0L2430.75.737v9.526L2442 5.5zm118 0L2548.75.737v9.526L2560 5.5zm118 0L2666.75.737v9.526L2678 5.5zm118 0L2784.75.737v9.526L2796 5.5zm118 0L2902.75.737v9.526L2914 5.5zm118 0L3020.75.737v9.526L3032 5.5z"/><path stroke-dasharray="4 4" stroke="#C4C4C4" d="M3031 5.5h1600"/><path fill="#C4C4C4" d="M3128 5.5L3116.75.737v9.526L3128 5.5zm118 0L3234.75.737v9.526L3246 5.5zm118 0L3352.75.737v9.526L3364 5.5zm118 0L3470.75.737v9.526L3482 5.5zm118 0L3588.75.737v9.526L3600 5.5zm118 0L3706.75.737v9.526L3718 5.5zm118 0L3824.75.737v9.526L3836 5.5zm118 0L3942.75.737v9.526L3954 5.5zm118 0L4060.75.737v9.526L4072 5.5zm118 0L4178.75.737v9.526L4190 5.5zm118 0L4296.75.737v9.526L4308 5.5zm118 0L4414.75.737v9.526L4426 5.5zm118 0L4532.75.737v9.526L4544 5.5z"/></svg>