<svg width="1600" height="9" fill="none" xmlns="http://www.w3.org/2000/svg"><path d="M-219.57 7.13c-.807 0-1.517-.137-2.13-.41-.607-.28-1.077-.673-1.41-1.18-.327-.507-.49-1.1-.49-1.78v-.07c0-.68.163-1.273.49-1.78.333-.513.803-.907 1.41-1.18.613-.28 1.323-.42 2.13-.42.753 0 1.43.123 2.03.37.6.247 1.067.587 1.4 1.02.34.433.51.923.51 1.47v.08h-1.81v-.08c0-.367-.197-.66-.59-.88-.387-.22-.9-.33-1.54-.33-1.487 0-2.23.57-2.23 1.71v.12c0 .567.183.99.55 1.27.367.28.927.42 1.68.42.66 0 1.18-.107 1.56-.32.38-.213.57-.507.57-.88v-.07h1.81v.07a2.32 2.32 0 01-.51 1.47c-.333.433-.8.773-1.4 1.02-.6.24-1.277.36-2.03.36zm12.38-1.71v2.91h-1.77V7h-4.8v1.33h-1.77V5.42h.83c.333-.527.51-1.197.53-2.01l.06-2.97h5.91v4.98h1.01zm-5.35-2c-.02.827-.177 1.493-.47 2h3.04v-3.4l-2.54.01-.03 1.39zm12.231-2.98v1.53h-4.19v.99h3.99v1.51h-3.99v1h4.19V7h-5.96V.44h5.96zm7.787 6.56h-1.77V2.02l-2.5.01-.05 2.19c-.04 1.853-.817 2.78-2.33 2.78h-.58V5.42h.24c.373 0 .637-.1.79-.3.16-.2.247-.547.26-1.04l.07-3.64h5.87V7zm8.35-.27V7h-1.75l-.51-1.21h-3.06l-.51 1.21h-1.75v-.27l2.81-6.29h1.96l2.81 6.29zm-2.88-2.43l-.91-2.17-.911 2.17h1.821zm5.415-3.86v2.49h3.23V.44h1.77V7h-1.77V4.51h-3.23V7h-1.77V.44h1.77zm10.093 6.69c-.793 0-1.493-.137-2.1-.41-.6-.28-1.063-.673-1.39-1.18-.326-.513-.49-1.107-.49-1.78v-.07c0-.68.164-1.273.49-1.78.327-.513.79-.907 1.39-1.18.607-.28 1.307-.42 2.1-.42.807 0 1.51.14 2.11.42.6.273 1.064.667 1.39 1.18.327.507.49 1.1.49 1.78v.07c0 .68-.163 1.273-.49 1.78-.326.507-.79.9-1.39 1.18-.6.273-1.303.41-2.11.41zm0-1.65c1.46 0 2.19-.563 2.19-1.69v-.12c0-.56-.186-.983-.56-1.27-.366-.293-.91-.44-1.63-.44-.706 0-1.246.147-1.62.44-.373.293-.56.717-.56 1.27v.12c0 .553.184.973.55 1.26.367.287.91.43 1.63.43zm14.884-1.83c.293.153.516.35.67.59.153.24.23.52.23.84v.1c0 .567-.224 1.013-.67 1.34-.44.32-1.05.48-1.83.48h-4.18V.44h3.98c.793 0 1.406.153 1.84.46.433.307.65.743.65 1.31v.1c0 .573-.23 1.02-.69 1.34zm-4.01-1.69V3h2.21c.246 0 .426-.037.54-.11.12-.08.18-.2.18-.36v-.1c0-.313-.24-.47-.72-.47h-2.21zm3.1 2.92c0-.327-.244-.49-.73-.49h-2.37v1.09h2.37c.486 0 .73-.167.73-.5v-.1zm96.33 2.25c-.807 0-1.517-.137-2.13-.41-.607-.28-1.077-.673-1.41-1.18-.327-.507-.49-1.1-.49-1.78v-.07c0-.68.163-1.273.49-1.78.333-.513.803-.907 1.41-1.18.613-.28 1.323-.42 2.13-.42.753 0 1.43.123 2.03.37.6.247 1.067.587 1.4 1.02.34.433.51.923.51 1.47v.08h-1.81v-.08c0-.367-.197-.66-.59-.88-.387-.22-.9-.33-1.54-.33-1.487 0-2.23.57-2.23 1.71v.12c0 .567.183.99.55 1.27.367.28.927.42 1.68.42.66 0 1.18-.107 1.56-.32.38-.213.57-.507.57-.88v-.07h1.81v.07a2.32 2.32 0 01-.51 1.47c-.333.433-.8.773-1.4 1.02-.6.24-1.277.36-2.03.36zm12.38-1.71v2.91h-1.77V7h-4.8v1.33h-1.77V5.42h.83c.333-.527.51-1.197.53-2.01l.06-2.97h5.91v4.98h1.01zm-5.35-2c-.02.827-.177 1.493-.47 2h3.04v-3.4l-2.54.01-.03 1.39zM-41.978.44v1.53h-4.19v.99h3.99v1.51h-3.99v1h4.19V7h-5.96V.44h5.96zM-34.192 7h-1.77V2.02l-2.5.01-.05 2.19c-.04 1.853-.816 2.78-2.33 2.78h-.58V5.42h.24c.373 0 .637-.1.79-.3.16-.2.247-.547.26-1.04l.07-3.64h5.87V7zm8.35-.27V7h-1.75l-.51-1.21h-3.06l-.51 1.21h-1.75v-.27l2.81-6.29h1.96l2.81 6.29zm-2.88-2.43l-.91-2.17-.91 2.17h1.82zm5.415-3.86v2.49h3.23V.44h1.77V7h-1.77V4.51h-3.23V7h-1.77V.44h1.77zm10.093 6.69c-.793 0-1.493-.137-2.1-.41-.6-.28-1.063-.673-1.39-1.18-.326-.513-.49-1.107-.49-1.78v-.07c0-.68.164-1.273.49-1.78.327-.513.79-.907 1.39-1.18.607-.28 1.307-.42 2.1-.42.807 0 1.51.14 2.11.42.6.273 1.064.667 1.39 1.18.327.507.49 1.1.49 1.78v.07c0 .68-.163 1.273-.49 1.78-.326.507-.79.9-1.39 1.18-.6.273-1.303.41-2.11.41zm0-1.65c1.46 0 2.19-.563 2.19-1.69v-.12c0-.56-.186-.983-.56-1.27-.366-.293-.91-.44-1.63-.44-.706 0-1.246.147-1.62.44-.373.293-.56.717-.56 1.27v.12c0 .553.184.973.55 1.26.367.287.91.43 1.63.43zM1.67 3.65c.293.153.516.35.67.59.153.24.23.52.23.84v.1c0 .567-.224 1.013-.67 1.34C1.46 6.84.85 7 .07 7h-4.18V.44h3.98c.793 0 1.406.153 1.84.46.433.307.65.743.65 1.31v.1c0 .573-.23 1.02-.69 1.34zm-4.01-1.69V3h2.21c.246 0 .426-.037.54-.11.12-.08.18-.2.18-.36v-.1c0-.313-.24-.47-.72-.47h-2.21zm3.1 2.92c0-.327-.244-.49-.73-.49h-2.37v1.09H.03c.486 0 .73-.167.73-.5v-.1zm96.33 2.25c-.806 0-1.517-.137-2.13-.41-.606-.28-1.076-.673-1.41-1.18-.326-.507-.49-1.1-.49-1.78v-.07c0-.68.163-1.273.49-1.78.334-.513.803-.907 1.41-1.18.614-.28 1.324-.42 2.13-.42.754 0 1.43.123 2.03.37.6.247 1.067.587 1.4 1.02.34.433.51.923.51 1.47v.08h-1.81v-.08c0-.367-.197-.66-.59-.88-.386-.22-.9-.33-1.54-.33-1.487 0-2.23.57-2.23 1.71v.12c0 .567.183.99.55 1.27.367.28.927.42 1.68.42.66 0 1.18-.107 1.56-.32.38-.213.57-.507.57-.88v-.07h1.81v.07a2.32 2.32 0 01-.51 1.47c-.333.433-.8.773-1.4 1.02-.6.24-1.276.36-2.03.36zm12.38-1.71v2.91h-1.77V7h-4.8v1.33h-1.77V5.42h.83c.333-.527.51-1.197.53-2.01l.06-2.97h5.91v4.98h1.01zm-5.35-2c-.02.827-.177 1.493-.47 2h3.04v-3.4l-2.54.01-.03 1.39zM116.352.44v1.53h-4.19v.99h3.99v1.51h-3.99v1h4.19V7h-5.96V.44h5.96zM124.138 7h-1.77V2.02l-2.5.01-.05 2.19c-.04 1.853-.816 2.78-2.33 2.78h-.58V5.42h.24c.374 0 .637-.1.79-.3.16-.2.247-.547.26-1.04l.07-3.64h5.87V7zm8.35-.27V7h-1.75l-.51-1.21h-3.06l-.51 1.21h-1.75v-.27l2.81-6.29h1.96l2.81 6.29zm-2.88-2.43l-.91-2.17-.91 2.17h1.82zm5.415-3.86v2.49h3.23V.44h1.77V7h-1.77V4.51h-3.23V7h-1.77V.44h1.77zm10.093 6.69c-.793 0-1.493-.137-2.1-.41-.6-.28-1.063-.673-1.39-1.18-.326-.513-.49-1.107-.49-1.78v-.07c0-.68.164-1.273.49-1.78.327-.513.79-.907 1.39-1.18.607-.28 1.307-.42 2.1-.42.807 0 1.51.14 2.11.42.6.273 1.064.667 1.39 1.18.327.507.49 1.1.49 1.78v.07c0 .68-.163 1.273-.49 1.78-.326.507-.79.9-1.39 1.18-.6.273-1.303.41-2.11.41zm0-1.65c1.46 0 2.19-.563 2.19-1.69v-.12c0-.56-.186-.983-.56-1.27-.366-.293-.91-.44-1.63-.44-.706 0-1.246.147-1.62.44-.373.293-.56.717-.56 1.27v.12c0 .553.184.973.55 1.26.367.287.91.43 1.63.43zM160 3.65c.293.153.516.35.67.59.153.24.23.52.23.84v.1c0 .567-.224 1.013-.67 1.34-.44.32-1.05.48-1.83.48h-4.18V.44h3.98c.793 0 1.406.153 1.84.46.433.307.65.743.65 1.31v.1c0 .573-.23 1.02-.69 1.34zm-4.01-1.69V3h2.21c.246 0 .426-.037.54-.11.12-.08.18-.2.18-.36v-.1c0-.313-.24-.47-.72-.47h-2.21zm3.1 2.92c0-.327-.244-.49-.73-.49h-2.37v1.09h2.37c.486 0 .73-.167.73-.5v-.1zm96.33 2.25c-.806 0-1.516-.137-2.13-.41-.606-.28-1.076-.673-1.41-1.18-.326-.507-.49-1.1-.49-1.78v-.07c0-.68.164-1.273.49-1.78.334-.513.804-.907 1.41-1.18.614-.28 1.324-.42 2.13-.42.754 0 1.43.123 2.03.37.6.247 1.067.587 1.4 1.02.34.433.51.923.51 1.47v.08h-1.81v-.08c0-.367-.196-.66-.59-.88-.386-.22-.9-.33-1.54-.33-1.486 0-2.23.57-2.23 1.71v.12c0 .567.184.99.55 1.27.367.28.927.42 1.68.42.66 0 1.18-.107 1.56-.32.38-.213.57-.507.57-.88v-.07h1.81v.07a2.32 2.32 0 01-.51 1.47c-.333.433-.8.773-1.4 1.02-.6.24-1.276.36-2.03.36zm12.38-1.71v2.91h-1.77V7h-4.8v1.33h-1.77V5.42h.83c.333-.527.51-1.197.53-2.01l.06-2.97h5.91v4.98h1.01zm-5.35-2c-.02.827-.177 1.493-.47 2h3.04v-3.4l-2.54.01-.03 1.39zM274.682.44v1.53h-4.19v.99h3.99v1.51h-3.99v1h4.19V7h-5.96V.44h5.96zM282.468 7h-1.77V2.02l-2.5.01-.05 2.19c-.04 1.853-.816 2.78-2.33 2.78h-.58V5.42h.24c.374 0 .637-.1.79-.3.16-.2.247-.547.26-1.04l.07-3.64h5.87V7zm8.35-.27V7h-1.75l-.51-1.21h-3.06l-.51 1.21h-1.75v-.27l2.81-6.29h1.96l2.81 6.29zm-2.88-2.43l-.91-2.17-.91 2.17h1.82zm5.415-3.86v2.49h3.23V.44h1.77V7h-1.77V4.51h-3.23V7h-1.77V.44h1.77zm10.093 6.69c-.793 0-1.493-.137-2.1-.41-.6-.28-1.063-.673-1.39-1.18-.326-.513-.49-1.107-.49-1.78v-.07c0-.68.164-1.273.49-1.78.327-.513.79-.907 1.39-1.18.607-.28 1.307-.42 2.1-.42.807 0 1.51.14 2.11.42.6.273 1.064.667 1.39 1.18.327.507.49 1.1.49 1.78v.07c0 .68-.163 1.273-.49 1.78-.326.507-.79.9-1.39 1.18-.6.273-1.303.41-2.11.41zm0-1.65c1.46 0 2.19-.563 2.19-1.69v-.12c0-.56-.186-.983-.56-1.27-.366-.293-.91-.44-1.63-.44-.706 0-1.246.147-1.62.44-.373.293-.56.717-.56 1.27v.12c0 .553.184.973.55 1.26.367.287.91.43 1.63.43zm14.884-1.83c.293.153.517.35.67.59.153.24.23.52.23.84v.1c0 .567-.223 1.013-.67 1.34-.44.32-1.05.48-1.83.48h-4.18V.44h3.98c.793 0 1.407.153 1.84.46.433.307.65.743.65 1.31v.1c0 .573-.23 1.02-.69 1.34zm-4.01-1.69V3h2.21c.247 0 .427-.037.54-.11.12-.08.18-.2.18-.36v-.1c0-.313-.24-.47-.72-.47h-2.21zm3.1 2.92c0-.327-.243-.49-.73-.49h-2.37v1.09h2.37c.487 0 .73-.167.73-.5v-.1zm96.33 2.25c-.806 0-1.516-.137-2.13-.41-.606-.28-1.076-.673-1.41-1.18-.326-.507-.49-1.1-.49-1.78v-.07c0-.68.164-1.273.49-1.78.334-.513.804-.907 1.41-1.18.614-.28 1.324-.42 2.13-.42.754 0 1.43.123 2.03.37.6.247 1.067.587 1.4 1.02.34.433.51.923.51 1.47v.08h-1.81v-.08c0-.367-.196-.66-.59-.88-.386-.22-.9-.33-1.54-.33-1.486 0-2.23.57-2.23 1.71v.12c0 .567.184.99.55 1.27.367.28.927.42 1.68.42.66 0 1.18-.107 1.56-.32.38-.213.57-.507.57-.88v-.07h1.81v.07a2.32 2.32 0 01-.51 1.47c-.333.433-.8.773-1.4 1.02-.6.24-1.276.36-2.03.36zm12.38-1.71v2.91h-1.77V7h-4.8v1.33h-1.77V5.42h.83c.333-.527.51-1.197.53-2.01l.06-2.97h5.91v4.98h1.01zm-5.35-2c-.02.827-.177 1.493-.47 2h3.04v-3.4l-2.54.01-.03 1.39zM433.012.44v1.53h-4.19v.99h3.99v1.51h-3.99v1h4.19V7h-5.96V.44h5.96zM440.798 7h-1.77V2.02l-2.5.01-.05 2.19c-.04 1.853-.816 2.78-2.33 2.78h-.58V5.42h.24c.374 0 .637-.1.79-.3.16-.2.247-.547.26-1.04l.07-3.64h5.87V7zm8.35-.27V7h-1.75l-.51-1.21h-3.06l-.51 1.21h-1.75v-.27l2.81-6.29h1.96l2.81 6.29zm-2.88-2.43l-.91-2.17-.91 2.17h1.82zm5.415-3.86v2.49h3.23V.44h1.77V7h-1.77V4.51h-3.23V7h-1.77V.44h1.77zm10.093 6.69c-.793 0-1.493-.137-2.1-.41-.6-.28-1.063-.673-1.39-1.18-.326-.513-.49-1.107-.49-1.78v-.07c0-.68.164-1.273.49-1.78.327-.513.79-.907 1.39-1.18.607-.28 1.307-.42 2.1-.42.807 0 1.51.14 2.11.42.6.273 1.064.667 1.39 1.18.327.507.49 1.1.49 1.78v.07c0 .68-.163 1.273-.49 1.78-.326.507-.79.9-1.39 1.18-.6.273-1.303.41-2.11.41zm0-1.65c1.46 0 2.19-.563 2.19-1.69v-.12c0-.56-.186-.983-.56-1.27-.366-.293-.91-.44-1.63-.44-.706 0-1.246.147-1.62.44-.373.293-.56.717-.56 1.27v.12c0 .553.184.973.55 1.26.367.287.91.43 1.63.43zm14.884-1.83c.293.153.517.35.67.59.153.24.23.52.23.84v.1c0 .567-.223 1.013-.67 1.34-.44.32-1.05.48-1.83.48h-4.18V.44h3.98c.793 0 1.407.153 1.84.46.433.307.65.743.65 1.31v.1c0 .573-.23 1.02-.69 1.34zm-4.01-1.69V3h2.21c.247 0 .427-.037.54-.11.12-.08.18-.2.18-.36v-.1c0-.313-.24-.47-.72-.47h-2.21zm3.1 2.92c0-.327-.243-.49-.73-.49h-2.37v1.09h2.37c.487 0 .73-.167.73-.5v-.1zm96.33 2.25c-.806 0-1.516-.137-2.13-.41-.606-.28-1.076-.673-1.41-1.18-.326-.507-.49-1.1-.49-1.78v-.07c0-.68.164-1.273.49-1.78.334-.513.804-.907 1.41-1.18.614-.28 1.324-.42 2.13-.42.754 0 1.43.123 2.03.37.6.247 1.067.587 1.4 1.02.34.433.51.923.51 1.47v.08h-1.81v-.08c0-.367-.196-.66-.59-.88-.386-.22-.9-.33-1.54-.33-1.486 0-2.23.57-2.23 1.71v.12c0 .567.184.99.55 1.27.367.28.927.42 1.68.42.66 0 1.18-.107 1.56-.32.38-.213.57-.507.57-.88v-.07h1.81v.07a2.32 2.32 0 01-.51 1.47c-.333.433-.8.773-1.4 1.02-.6.24-1.276.36-2.03.36zm12.38-1.71v2.91h-1.77V7h-4.8v1.33h-1.77V5.42h.83c.333-.527.51-1.197.53-2.01l.06-2.97h5.91v4.98h1.01zm-5.35-2c-.02.827-.177 1.493-.47 2h3.04v-3.4l-2.54.01-.03 1.39zM591.342.44v1.53h-4.19v.99h3.99v1.51h-3.99v1h4.19V7h-5.96V.44h5.96zM599.128 7h-1.77V2.02l-2.5.01-.05 2.19c-.04 1.853-.816 2.78-2.33 2.78h-.58V5.42h.24c.374 0 .637-.1.79-.3.16-.2.247-.547.26-1.04l.07-3.64h5.87V7zm8.35-.27V7h-1.75l-.51-1.21h-3.06l-.51 1.21h-1.75v-.27l2.81-6.29h1.96l2.81 6.29zm-2.88-2.43l-.91-2.17-.91 2.17h1.82zm5.415-3.86v2.49h3.23V.44h1.77V7h-1.77V4.51h-3.23V7h-1.77V.44h1.77zm10.094 6.69c-.794 0-1.494-.137-2.1-.41-.6-.28-1.064-.673-1.39-1.18-.327-.513-.49-1.107-.49-1.78v-.07c0-.68.163-1.273.49-1.78.326-.513.79-.907 1.39-1.18.606-.28 1.306-.42 2.1-.42.806 0 1.51.14 2.11.42.6.273 1.063.667 1.39 1.18.326.507.49 1.1.49 1.78v.07c0 .68-.164 1.273-.49 1.78-.327.507-.79.9-1.39 1.18-.6.273-1.304.41-2.11.41zm0-1.65c1.46 0 2.19-.563 2.19-1.69v-.12c0-.56-.187-.983-.56-1.27-.367-.293-.91-.44-1.63-.44-.707 0-1.247.147-1.62.44-.374.293-.56.717-.56 1.27v.12c0 .553.183.973.55 1.26.366.287.91.43 1.63.43zm14.883-1.83c.293.153.517.35.67.59.153.24.23.52.23.84v.1c0 .567-.223 1.013-.67 1.34-.44.32-1.05.48-1.83.48h-4.18V.44h3.98c.793 0 1.407.153 1.84.46.433.307.65.743.65 1.31v.1c0 .573-.23 1.02-.69 1.34zm-4.01-1.69V3h2.21c.247 0 .427-.037.54-.11.12-.08.18-.2.18-.36v-.1c0-.313-.24-.47-.72-.47h-2.21zm3.1 2.92c0-.327-.243-.49-.73-.49h-2.37v1.09h2.37c.487 0 .73-.167.73-.5v-.1zm96.33 2.25c-.806 0-1.516-.137-2.13-.41-.606-.28-1.076-.673-1.41-1.18-.326-.507-.49-1.1-.49-1.78v-.07c0-.68.164-1.273.49-1.78.334-.513.804-.907 1.41-1.18.614-.28 1.324-.42 2.13-.42.754 0 1.43.123 2.03.37.6.247 1.067.587 1.4 1.02.34.433.51.923.51 1.47v.08h-1.81v-.08c0-.367-.196-.66-.59-.88-.386-.22-.9-.33-1.54-.33-1.486 0-2.23.57-2.23 1.71v.12c0 .567.184.99.55 1.27.367.28.927.42 1.68.42.66 0 1.18-.107 1.56-.32.38-.213.57-.507.57-.88v-.07h1.81v.07a2.32 2.32 0 01-.51 1.47c-.333.433-.8.773-1.4 1.02-.6.24-1.276.36-2.03.36zm12.38-1.71v2.91h-1.77V7h-4.8v1.33h-1.77V5.42h.83c.333-.527.51-1.197.53-2.01l.06-2.97h5.91v4.98h1.01zm-5.35-2c-.02.827-.177 1.493-.47 2h3.04v-3.4l-2.54.01-.03 1.39zM749.672.44v1.53h-4.19v.99h3.99v1.51h-3.99v1h4.19V7h-5.96V.44h5.96zM757.459 7h-1.77V2.02l-2.5.01-.05 2.19c-.04 1.853-.817 2.78-2.33 2.78h-.58V5.42h.24c.373 0 .636-.1.79-.3.16-.2.246-.547.26-1.04l.07-3.64h5.87V7zm8.349-.27V7h-1.75l-.51-1.21h-3.06l-.51 1.21h-1.75v-.27l2.81-6.29h1.96l2.81 6.29zm-2.88-2.43l-.91-2.17-.91 2.17h1.82zm5.415-3.86v2.49h3.23V.44h1.77V7h-1.77V4.51h-3.23V7h-1.77V.44h1.77zm10.094 6.69c-.794 0-1.494-.137-2.1-.41-.6-.28-1.064-.673-1.39-1.18-.327-.513-.49-1.107-.49-1.78v-.07c0-.68.163-1.273.49-1.78.326-.513.79-.907 1.39-1.18.606-.28 1.306-.42 2.1-.42.806 0 1.51.14 2.11.42.6.273 1.063.667 1.39 1.18.326.507.49 1.1.49 1.78v.07c0 .68-.164 1.273-.49 1.78-.327.507-.79.9-1.39 1.18-.6.273-1.304.41-2.11.41zm0-1.65c1.46 0 2.19-.563 2.19-1.69v-.12c0-.56-.187-.983-.56-1.27-.367-.293-.91-.44-1.63-.44-.707 0-1.247.147-1.62.44-.374.293-.56.717-.56 1.27v.12c0 .553.183.973.55 1.26.366.287.91.43 1.63.43zm14.883-1.83c.293.153.517.35.67.59.153.24.23.52.23.84v.1c0 .567-.223 1.013-.67 1.34-.44.32-1.05.48-1.83.48h-4.18V.44h3.98c.793 0 1.407.153 1.84.46.433.307.65.743.65 1.31v.1c0 .573-.23 1.02-.69 1.34zm-4.01-1.69V3h2.21c.247 0 .427-.037.54-.11.12-.08.18-.2.18-.36v-.1c0-.313-.24-.47-.72-.47h-2.21zm3.1 2.92c0-.327-.243-.49-.73-.49h-2.37v1.09h2.37c.487 0 .73-.167.73-.5v-.1zm96.331 2.25c-.807 0-1.517-.137-2.13-.41-.607-.28-1.077-.673-1.41-1.18-.327-.507-.49-1.1-.49-1.78v-.07c0-.68.163-1.273.49-1.78.333-.513.803-.907 1.41-1.18.613-.28 1.323-.42 2.13-.42.753 0 1.43.123 2.03.37.6.247 1.066.587 1.4 1.02.34.433.51.923.51 1.47v.08h-1.81v-.08c0-.367-.197-.66-.59-.88-.387-.22-.9-.33-1.54-.33-1.487 0-2.23.57-2.23 1.71v.12c0 .567.183.99.55 1.27.366.28.926.42 1.68.42.66 0 1.18-.107 1.56-.32.38-.213.57-.507.57-.88v-.07h1.81v.07a2.32 2.32 0 01-.51 1.47c-.334.433-.8.773-1.4 1.02-.6.24-1.277.36-2.03.36zm12.379-1.71v2.91h-1.77V7h-4.8v1.33h-1.77V5.42h.83c.333-.527.51-1.197.53-2.01l.06-2.97h5.91v4.98h1.01zm-5.35-2c-.02.827-.177 1.493-.47 2h3.04v-3.4l-2.54.01-.03 1.39zM908.002.44v1.53h-4.19v.99h3.99v1.51h-3.99v1h4.19V7h-5.96V.44h5.96zM915.789 7h-1.77V2.02l-2.5.01-.05 2.19c-.04 1.853-.817 2.78-2.33 2.78h-.58V5.42h.24c.373 0 .636-.1.79-.3.16-.2.246-.547.26-1.04l.07-3.64h5.87V7zm8.349-.27V7h-1.75l-.51-1.21h-3.06l-.51 1.21h-1.75v-.27l2.81-6.29h1.96l2.81 6.29zm-2.88-2.43l-.91-2.17-.91 2.17h1.82zm5.415-3.86v2.49h3.23V.44h1.77V7h-1.77V4.51h-3.23V7h-1.77V.44h1.77zm10.094 6.69c-.794 0-1.494-.137-2.1-.41-.6-.28-1.064-.673-1.39-1.18-.327-.513-.49-1.107-.49-1.78v-.07c0-.68.163-1.273.49-1.78.326-.513.79-.907 1.39-1.18.606-.28 1.306-.42 2.1-.42.806 0 1.51.14 2.11.42.6.273 1.063.667 1.39 1.18.326.507.49 1.1.49 1.78v.07c0 .68-.164 1.273-.49 1.78-.327.507-.79.9-1.39 1.18-.6.273-1.304.41-2.11.41zm0-1.65c1.46 0 2.19-.563 2.19-1.69v-.12c0-.56-.187-.983-.56-1.27-.367-.293-.91-.44-1.63-.44-.707 0-1.247.147-1.62.44-.374.293-.56.717-.56 1.27v.12c0 .553.183.973.55 1.26.366.287.91.43 1.63.43zm14.883-1.83c.293.153.517.35.67.59.153.24.23.52.23.84v.1c0 .567-.223 1.013-.67 1.34-.44.32-1.05.48-1.83.48h-4.18V.44h3.98c.793 0 1.407.153 1.84.46.433.307.65.743.65 1.31v.1c0 .573-.23 1.02-.69 1.34zm-4.01-1.69V3h2.21c.247 0 .427-.037.54-.11.12-.08.18-.2.18-.36v-.1c0-.313-.24-.47-.72-.47h-2.21zm3.1 2.92c0-.327-.243-.49-.73-.49h-2.37v1.09h2.37c.487 0 .73-.167.73-.5v-.1zm96.33 2.25c-.81 0-1.52-.137-2.13-.41-.61-.28-1.08-.673-1.41-1.18-.33-.507-.49-1.1-.49-1.78v-.07c0-.68.16-1.273.49-1.78.33-.513.8-.907 1.41-1.18.61-.28 1.32-.42 2.13-.42.75 0 1.43.123 2.03.37.6.247 1.07.587 1.4 1.02.34.433.51.923.51 1.47v.08h-1.81v-.08c0-.367-.2-.66-.59-.88-.39-.22-.9-.33-1.54-.33-1.49 0-2.23.57-2.23 1.71v.12c0 .567.18.99.55 1.27.37.28.93.42 1.68.42.66 0 1.18-.107 1.56-.32.38-.213.57-.507.57-.88v-.07h1.81v.07a2.32 2.32 0 01-.51 1.47c-.33.433-.8.773-1.4 1.02-.6.24-1.28.36-2.03.36zm12.38-1.71v2.91h-1.77V7h-4.8v1.33h-1.77V5.42h.83c.33-.527.51-1.197.53-2.01l.06-2.97h5.91v4.98h1.01zm-5.35-2c-.02.827-.18 1.493-.47 2h3.04v-3.4l-2.54.01-.03 1.39zm12.23-2.98v1.53h-4.19v.99h3.99v1.51h-3.99v1h4.19V7h-5.96V.44h5.96zm7.79 6.56h-1.77V2.02l-2.5.01-.05 2.19c-.04 1.853-.82 2.78-2.33 2.78h-.58V5.42h.24c.37 0 .64-.1.79-.3.16-.2.25-.547.26-1.04l.07-3.64h5.87V7zm8.35-.27V7h-1.75l-.51-1.21h-3.06l-.51 1.21h-1.75v-.27l2.81-6.29h1.96l2.81 6.29zm-2.88-2.43l-.91-2.17-.91 2.17h1.82zM1085 .44v2.49h3.23V.44h1.77V7h-1.77V4.51H1085V7h-1.77V.44h1.77zm10.1 6.69c-.8 0-1.5-.137-2.1-.41-.6-.28-1.07-.673-1.39-1.18-.33-.513-.49-1.107-.49-1.78v-.07c0-.68.16-1.273.49-1.78.32-.513.79-.907 1.39-1.18.6-.28 1.3-.42 2.1-.42s1.51.14 2.11.42c.6.273 1.06.667 1.39 1.18.32.507.49 1.1.49 1.78v.07c0 .68-.17 1.273-.49 1.78-.33.507-.79.9-1.39 1.18-.6.273-1.31.41-2.11.41zm0-1.65c1.46 0 2.19-.563 2.19-1.69v-.12c0-.56-.19-.983-.56-1.27-.37-.293-.91-.44-1.63-.44-.71 0-1.25.147-1.62.44-.38.293-.56.717-.56 1.27v.12c0 .553.18.973.55 1.26.36.287.91.43 1.63.43zm14.88-1.83c.29.153.52.35.67.59.15.24.23.52.23.84v.1c0 .567-.22 1.013-.67 1.34-.44.32-1.05.48-1.83.48h-4.18V.44h3.98c.79 0 1.41.153 1.84.46.43.307.65.743.65 1.31v.1c0 .573-.23 1.02-.69 1.34zm-4.01-1.69V3h2.21c.25 0 .43-.037.54-.11.12-.08.18-.2.18-.36v-.1c0-.313-.24-.47-.72-.47h-2.21zm3.1 2.92c0-.327-.24-.49-.73-.49h-2.37v1.09h2.37c.49 0 .73-.167.73-.5v-.1zm96.33 2.25c-.81 0-1.52-.137-2.13-.41-.61-.28-1.08-.673-1.41-1.18-.33-.507-.49-1.1-.49-1.78v-.07c0-.68.16-1.273.49-1.78.33-.513.8-.907 1.41-1.18.61-.28 1.32-.42 2.13-.42.75 0 1.43.123 2.03.37.6.247 1.07.587 1.4 1.02.34.433.51.923.51 1.47v.08h-1.81v-.08c0-.367-.2-.66-.59-.88-.39-.22-.9-.33-1.54-.33-1.49 0-2.23.57-2.23 1.71v.12c0 .567.18.99.55 1.27.37.28.93.42 1.68.42.66 0 1.18-.107 1.56-.32.38-.213.57-.507.57-.88v-.07h1.81v.07a2.32 2.32 0 01-.51 1.47c-.33.433-.8.773-1.4 1.02-.6.24-1.28.36-2.03.36zm12.38-1.71v2.91h-1.77V7h-4.8v1.33h-1.77V5.42h.83c.33-.527.51-1.197.53-2.01l.06-2.97h5.91v4.98h1.01zm-5.35-2c-.02.827-.18 1.493-.47 2h3.04v-3.4l-2.54.01-.03 1.39zm12.23-2.98v1.53h-4.19v.99h3.99v1.51h-3.99v1h4.19V7h-5.96V.44h5.96zm7.79 6.56h-1.77V2.02l-2.5.01-.05 2.19c-.04 1.853-.82 2.78-2.33 2.78h-.58V5.42h.24c.37 0 .64-.1.79-.3.16-.2.25-.547.26-1.04l.07-3.64h5.87V7zm8.35-.27V7h-1.75l-.51-1.21h-3.06l-.51 1.21h-1.75v-.27l2.81-6.29h1.96l2.81 6.29zm-2.88-2.43l-.91-2.17-.91 2.17h1.82zm5.41-3.86v2.49h3.23V.44h1.77V7h-1.77V4.51h-3.23V7h-1.77V.44h1.77zm10.1 6.69c-.8 0-1.5-.137-2.1-.41-.6-.28-1.07-.673-1.39-1.18-.33-.513-.49-1.107-.49-1.78v-.07c0-.68.16-1.273.49-1.78.32-.513.79-.907 1.39-1.18.6-.28 1.3-.42 2.1-.42s1.51.14 2.11.42c.6.273 1.06.667 1.39 1.18.32.507.49 1.1.49 1.78v.07c0 .68-.17 1.273-.49 1.78-.33.507-.79.9-1.39 1.18-.6.273-1.31.41-2.11.41zm0-1.65c1.46 0 2.19-.563 2.19-1.69v-.12c0-.56-.19-.983-.56-1.27-.37-.293-.91-.44-1.63-.44-.71 0-1.25.147-1.62.44-.38.293-.56.717-.56 1.27v.12c0 .553.18.973.55 1.26.36.287.91.43 1.63.43zm14.88-1.83c.29.153.52.35.67.59.15.24.23.52.23.84v.1c0 .567-.22 1.013-.67 1.34-.44.32-1.05.48-1.83.48h-4.18V.44h3.98c.79 0 1.41.153 1.84.46.43.307.65.743.65 1.31v.1c0 .573-.23 1.02-.69 1.34zm-4.01-1.69V3h2.21c.25 0 .43-.037.54-.11.12-.08.18-.2.18-.36v-.1c0-.313-.24-.47-.72-.47h-2.21zm3.1 2.92c0-.327-.24-.49-.73-.49h-2.37v1.09h2.37c.49 0 .73-.167.73-.5v-.1zm96.33 2.25c-.81 0-1.52-.137-2.13-.41-.61-.28-1.08-.673-1.41-1.18-.33-.507-.49-1.1-.49-1.78v-.07c0-.68.16-1.273.49-1.78.33-.513.8-.907 1.41-1.18.61-.28 1.32-.42 2.13-.42.75 0 1.43.123 2.03.37.6.247 1.07.587 1.4 1.02.34.433.51.923.51 1.47v.08h-1.81v-.08c0-.367-.2-.66-.59-.88-.39-.22-.9-.33-1.54-.33-1.49 0-2.23.57-2.23 1.71v.12c0 .567.18.99.55 1.27.37.28.93.42 1.68.42.66 0 1.18-.107 1.56-.32.38-.213.57-.507.57-.88v-.07h1.81v.07a2.32 2.32 0 01-.51 1.47c-.33.433-.8.773-1.4 1.02-.6.24-1.28.36-2.03.36zm12.38-1.71v2.91h-1.77V7h-4.8v1.33h-1.77V5.42h.83c.33-.527.51-1.197.53-2.01l.06-2.97h5.91v4.98h1.01zm-5.35-2c-.02.827-.18 1.493-.47 2h3.04v-3.4l-2.54.01-.03 1.39zm12.23-2.98v1.53h-4.19v.99h3.99v1.51h-3.99v1h4.19V7h-5.96V.44h5.96zm7.79 6.56h-1.77V2.02l-2.5.01-.05 2.19c-.04 1.853-.82 2.78-2.33 2.78h-.58V5.42h.24c.37 0 .64-.1.79-.3.16-.2.25-.547.26-1.04l.07-3.64h5.87V7zm8.35-.27V7h-1.75l-.51-1.21h-3.06L1393.3 7h-1.75v-.27l2.81-6.29h1.96l2.81 6.29zm-2.88-2.43l-.91-2.17-.91 2.17h1.82zm5.41-3.86v2.49h3.23V.44h1.77V7h-1.77V4.51h-3.23V7h-1.77V.44h1.77zm10.1 6.69c-.8 0-1.5-.137-2.1-.41-.6-.28-1.07-.673-1.39-1.18-.33-.513-.49-1.107-.49-1.78v-.07c0-.68.16-1.273.49-1.78.32-.513.79-.907 1.39-1.18.6-.28 1.3-.42 2.1-.42s1.51.14 2.11.42c.6.273 1.06.667 1.39 1.18.32.507.49 1.1.49 1.78v.07c0 .68-.17 1.273-.49 1.78-.33.507-.79.9-1.39 1.18-.6.273-1.31.41-2.11.41zm0-1.65c1.46 0 2.19-.563 2.19-1.69v-.12c0-.56-.19-.983-.56-1.27-.37-.293-.91-.44-1.63-.44-.71 0-1.25.147-1.62.44-.38.293-.56.717-.56 1.27v.12c0 .553.18.973.55 1.26.36.287.91.43 1.63.43zm14.88-1.83c.29.153.52.35.67.59.15.24.23.52.23.84v.1c0 .567-.22 1.013-.67 1.34-.44.32-1.05.48-1.83.48h-4.18V.44h3.98c.79 0 1.41.153 1.84.46.43.307.65.743.65 1.31v.1c0 .573-.23 1.02-.69 1.34zm-4.01-1.69V3h2.21c.25 0 .43-.037.54-.11.12-.08.18-.2.18-.36v-.1c0-.313-.24-.47-.72-.47h-2.21zm3.1 2.92c0-.327-.24-.49-.73-.49h-2.37v1.09h2.37c.49 0 .73-.167.73-.5v-.1zm96.33 2.25c-.81 0-1.52-.137-2.13-.41-.61-.28-1.08-.673-1.41-1.18-.33-.507-.49-1.1-.49-1.78v-.07c0-.68.16-1.273.49-1.78.33-.513.8-.907 1.41-1.18.61-.28 1.32-.42 2.13-.42.75 0 1.43.123 2.03.37.6.247 1.07.587 1.4 1.02.34.433.51.923.51 1.47v.08h-1.81v-.08c0-.367-.2-.66-.59-.88-.39-.22-.9-.33-1.54-.33-1.49 0-2.23.57-2.23 1.71v.12c0 .567.18.99.55 1.27.37.28.93.42 1.68.42.66 0 1.18-.107 1.56-.32.38-.213.57-.507.57-.88v-.07h1.81v.07a2.32 2.32 0 01-.51 1.47c-.33.433-.8.773-1.4 1.02-.6.24-1.28.36-2.03.36zm12.38-1.71v2.91h-1.77V7h-4.8v1.33h-1.77V5.42h.83c.33-.527.51-1.197.53-2.01l.06-2.97h5.91v4.98h1.01zm-5.35-2c-.02.827-.18 1.493-.47 2h3.04v-3.4l-2.54.01-.03 1.39zm12.23-2.98v1.53h-4.19v.99h3.99v1.51h-3.99v1h4.19V7h-5.96V.44h5.96zm7.79 6.56h-1.77V2.02l-2.5.01-.05 2.19c-.04 1.853-.82 2.78-2.33 2.78h-.58V5.42h.24c.37 0 .64-.1.79-.3.16-.2.25-.547.26-1.04l.07-3.64h5.87V7zm8.35-.27V7h-1.75l-.51-1.21h-3.06l-.51 1.21h-1.75v-.27l2.81-6.29h1.96l2.81 6.29zm-2.88-2.43l-.91-2.17-.91 2.17h1.82zm5.41-3.86v2.49h3.23V.44h1.77V7h-1.77V4.51h-3.23V7h-1.77V.44h1.77zm10.1 6.69c-.8 0-1.5-.137-2.1-.41-.6-.28-1.07-.673-1.39-1.18-.33-.513-.49-1.107-.49-1.78v-.07c0-.68.16-1.273.49-1.78.32-.513.79-.907 1.39-1.18.6-.28 1.3-.42 2.1-.42s1.51.14 2.11.42c.6.273 1.06.667 1.39 1.18.32.507.49 1.1.49 1.78v.07c0 .68-.17 1.273-.49 1.78-.33.507-.79.9-1.39 1.18-.6.273-1.31.41-2.11.41zm0-1.65c1.46 0 2.19-.563 2.19-1.69v-.12c0-.56-.19-.983-.56-1.27-.37-.293-.91-.44-1.63-.44-.71 0-1.25.147-1.62.44-.38.293-.56.717-.56 1.27v.12c0 .553.18.973.55 1.26.36.287.91.43 1.63.43zm14.88-1.83c.29.153.52.35.67.59.15.24.23.52.23.84v.1c0 .567-.22 1.013-.67 1.34-.44.32-1.05.48-1.83.48h-4.18V.44h3.98c.79 0 1.41.153 1.84.46.43.307.65.743.65 1.31v.1c0 .573-.23 1.02-.69 1.34zm-4.01-1.69V3h2.21c.25 0 .43-.037.54-.11.12-.08.18-.2.18-.36v-.1c0-.313-.24-.47-.72-.47h-2.21zm3.1 2.92c0-.327-.24-.49-.73-.49h-2.37v1.09h2.37c.49 0 .73-.167.73-.5v-.1zm96.33 2.25c-.81 0-1.52-.137-2.13-.41-.61-.28-1.08-.673-1.41-1.18-.33-.507-.49-1.1-.49-1.78v-.07c0-.68.16-1.273.49-1.78.33-.513.8-.907 1.41-1.18.61-.28 1.32-.42 2.13-.42.75 0 1.43.123 2.03.37.6.247 1.07.587 1.4 1.02.34.433.51.923.51 1.47v.08h-1.81v-.08c0-.367-.2-.66-.59-.88-.39-.22-.9-.33-1.54-.33-1.49 0-2.23.57-2.23 1.71v.12c0 .567.18.99.55 1.27.37.28.93.42 1.68.42.66 0 1.18-.107 1.56-.32.38-.213.57-.507.57-.88v-.07h1.81v.07a2.32 2.32 0 01-.51 1.47c-.33.433-.8.773-1.4 1.02-.6.24-1.28.36-2.03.36zm12.38-1.71v2.91H1691V7h-4.8v1.33h-1.77V5.42h.83c.33-.527.51-1.197.53-2.01l.06-2.97h5.91v4.98h1.01zm-5.35-2c-.02.827-.18 1.493-.47 2h3.04v-3.4l-2.54.01-.03 1.39zm12.23-2.98v1.53h-4.19v.99h3.99v1.51h-3.99v1h4.19V7h-5.96V.44h5.96zm7.79 6.56h-1.77V2.02l-2.5.01-.05 2.19c-.04 1.853-.82 2.78-2.33 2.78h-.58V5.42h.24c.37 0 .64-.1.79-.3.16-.2.25-.547.26-1.04l.07-3.64h5.87V7zm8.35-.27V7h-1.75l-.51-1.21h-3.06l-.51 1.21h-1.75v-.27l2.81-6.29h1.96l2.81 6.29zm-2.88-2.43l-.91-2.17-.91 2.17h1.82zm5.41-3.86v2.49h3.23V.44h1.77V7h-1.77V4.51h-3.23V7h-1.77V.44h1.77zm10.1 6.69c-.8 0-1.5-.137-2.1-.41-.6-.28-1.07-.673-1.39-1.18-.33-.513-.49-1.107-.49-1.78v-.07c0-.68.16-1.273.49-1.78.32-.513.79-.907 1.39-1.18.6-.28 1.3-.42 2.1-.42s1.51.14 2.11.42c.6.273 1.06.667 1.39 1.18.32.507.49 1.1.49 1.78v.07c0 .68-.17 1.273-.49 1.78-.33.507-.79.9-1.39 1.18-.6.273-1.31.41-2.11.41zm0-1.65c1.46 0 2.19-.563 2.19-1.69v-.12c0-.56-.19-.983-.56-1.27-.37-.293-.91-.44-1.63-.44-.71 0-1.25.147-1.62.44-.38.293-.56.717-.56 1.27v.12c0 .553.18.973.55 1.26.36.287.91.43 1.63.43zm14.88-1.83c.29.153.52.35.67.59.15.24.23.52.23.84v.1c0 .567-.22 1.013-.67 1.34-.44.32-1.05.48-1.83.48h-4.18V.44h3.98c.79 0 1.41.153 1.84.46.43.307.65.743.65 1.31v.1c0 .573-.23 1.02-.69 1.34zm-4.01-1.69V3h2.21c.25 0 .43-.037.54-.11.12-.08.18-.2.18-.36v-.1c0-.313-.24-.47-.72-.47h-2.21zm3.1 2.92c0-.327-.24-.49-.73-.49h-2.37v1.09h2.37c.49 0 .73-.167.73-.5v-.1zm96.33 2.25c-.81 0-1.52-.137-2.13-.41-.61-.28-1.08-.673-1.41-1.18-.33-.507-.49-1.1-.49-1.78v-.07c0-.68.16-1.273.49-1.78.33-.513.8-.907 1.41-1.18.61-.28 1.32-.42 2.13-.42.75 0 1.43.123 2.03.37.6.247 1.07.587 1.4 1.02.34.433.51.923.51 1.47v.08h-1.81v-.08c0-.367-.2-.66-.59-.88-.39-.22-.9-.33-1.54-.33-1.49 0-2.23.57-2.23 1.71v.12c0 .567.18.99.55 1.27.37.28.93.42 1.68.42.66 0 1.18-.107 1.56-.32.38-.213.57-.507.57-.88v-.07h1.81v.07a2.32 2.32 0 01-.51 1.47c-.33.433-.8.773-1.4 1.02-.6.24-1.28.36-2.03.36zm12.38-1.71v2.91h-1.77V7h-4.8v1.33h-1.77V5.42h.83c.33-.527.51-1.197.53-2.01l.06-2.97h5.91v4.98h1.01zm-5.35-2c-.02.827-.18 1.493-.47 2h3.04v-3.4l-2.54.01-.03 1.39zm12.23-2.98v1.53h-4.19v.99h3.99v1.51h-3.99v1h4.19V7h-5.96V.44h5.96zm7.79 6.56H1864V2.02l-2.5.01-.05 2.19c-.04 1.853-.82 2.78-2.33 2.78h-.58V5.42h.24c.37 0 .64-.1.79-.3.16-.2.25-.547.26-1.04l.07-3.64h5.87V7zm8.35-.27V7h-1.75l-.51-1.21h-3.06l-.51 1.21h-1.75v-.27l2.81-6.29h1.96l2.81 6.29zm-2.88-2.43l-.91-2.17-.91 2.17h1.82zm5.41-3.86v2.49h3.23V.44h1.77V7h-1.77V4.51h-3.23V7h-1.77V.44h1.77zm10.1 6.69c-.8 0-1.5-.137-2.1-.41-.6-.28-1.07-.673-1.39-1.18-.33-.513-.49-1.107-.49-1.78v-.07c0-.68.16-1.273.49-1.78.32-.513.79-.907 1.39-1.18.6-.28 1.3-.42 2.1-.42s1.51.14 2.11.42c.6.273 1.06.667 1.39 1.18.32.507.49 1.1.49 1.78v.07c0 .68-.17 1.273-.49 1.78-.33.507-.79.9-1.39 1.18-.6.273-1.31.41-2.11.41zm0-1.65c1.46 0 2.19-.563 2.19-1.69v-.12c0-.56-.19-.983-.56-1.27-.37-.293-.91-.44-1.63-.44-.71 0-1.25.147-1.62.44-.38.293-.56.717-.56 1.27v.12c0 .553.18.973.55 1.26.36.287.91.43 1.63.43zm14.88-1.83c.29.153.52.35.67.59.15.24.23.52.23.84v.1c0 .567-.22 1.013-.67 1.34-.44.32-1.05.48-1.83.48h-4.18V.44h3.98c.79 0 1.41.153 1.84.46.43.307.65.743.65 1.31v.1c0 .573-.23 1.02-.69 1.34zm-4.01-1.69V3h2.21c.25 0 .43-.037.54-.11.12-.08.18-.2.18-.36v-.1c0-.313-.24-.47-.72-.47h-2.21zm3.1 2.92c0-.327-.24-.49-.73-.49h-2.37v1.09h2.37c.49 0 .73-.167.73-.5v-.1z" fill="#9090FF"/><path d="M-146.865 7.13c-.807 0-1.517-.137-2.13-.41-.607-.28-1.077-.673-1.41-1.18-.327-.507-.49-1.1-.49-1.78v-.07c0-.68.163-1.273.49-1.78.333-.513.803-.907 1.41-1.18.613-.28 1.323-.42 2.13-.42.753 0 1.43.123 2.03.37.6.247 1.067.587 1.4 1.02.34.433.51.923.51 1.47v.08h-1.81v-.08c0-.367-.197-.66-.59-.88-.387-.22-.9-.33-1.54-.33-1.487 0-2.23.57-2.23 1.71v.12c0 .567.183.99.55 1.27.367.28.927.42 1.68.42.66 0 1.18-.107 1.56-.32.38-.213.57-.507.57-.88v-.07h1.81v.07a2.32 2.32 0 01-.51 1.47c-.333.433-.8.773-1.4 1.02-.6.24-1.277.36-2.03.36zm6.79-6.69v4.98h4.25V7h-6.02V.44h1.77zm8.473 6.69c-.794 0-1.494-.137-2.1-.41-.6-.28-1.064-.673-1.39-1.18-.327-.513-.49-1.107-.49-1.78v-.07c0-.68.163-1.273.49-1.78.326-.513.79-.907 1.39-1.18.606-.28 1.306-.42 2.1-.42.806 0 1.51.14 2.11.42.6.273 1.063.667 1.39 1.18.326.507.49 1.1.49 1.78v.07c0 .68-.164 1.273-.49 1.78-.327.507-.79.9-1.39 1.18-.6.273-1.304.41-2.11.41zm0-1.65c1.46 0 2.19-.563 2.19-1.69v-.12c0-.56-.187-.983-.56-1.27-.367-.293-.91-.44-1.63-.44-.707 0-1.247.147-1.62.44-.374.293-.56.717-.56 1.27v.12c0 .553.183.973.55 1.26.366.287.91.43 1.63.43zm8.349 1.65c-.673 0-1.263-.13-1.77-.39a2.81 2.81 0 01-1.17-1.13c-.273-.487-.41-1.05-.41-1.69V.44h1.77v3.51c0 .5.133.88.4 1.14.267.26.66.39 1.18.39.527 0 .923-.13 1.19-.39.267-.26.4-.64.4-1.14V.44h1.77v3.48c0 .647-.14 1.213-.42 1.7-.273.48-.663.853-1.17 1.12-.507.26-1.097.39-1.77.39zm8.04-6.69c1.253 0 2.196.273 2.83.82.64.54.96 1.347.96 2.42v.09c0 2.153-1.264 3.23-3.79 3.23h-3.36V.44h3.36zm0 4.98c.693 0 1.196-.13 1.51-.39.32-.26.48-.67.48-1.23v-.14c0-.553-.164-.963-.49-1.23-.327-.273-.83-.41-1.51-.41h-1.58v3.4h1.59zM-101.441 7h-1.74V2.9l-1.82 4.1h-1.75l-1.81-4.08V7h-1.75V.44h2.39l2.05 4.58 2.03-4.58h2.4V7zm3.093-6.56V7h-1.771V.44h1.77zm3.088 0v4.98h4.25V7h-6.02V.44h1.77zm6.865 0v4.98h4.25V7h-6.02V.44h1.77zm18.02 3.02v1.52h-9.82V3.46h9.82zm81.84 3.67c-.806 0-1.517-.137-2.13-.41-.607-.28-1.077-.673-1.41-1.18-.327-.507-.49-1.1-.49-1.78v-.07c0-.68.163-1.273.49-1.78.333-.513.803-.907 1.41-1.18.613-.28 1.323-.42 2.13-.42.754 0 1.43.123 2.03.37.6.247 1.067.587 1.4 1.02.34.433.51.923.51 1.47v.08h-1.81v-.08c0-.367-.197-.66-.59-.88-.387-.22-.9-.33-1.54-.33-1.487 0-2.23.57-2.23 1.71v.12c0 .567.183.99.55 1.27.367.28.927.42 1.68.42.66 0 1.18-.107 1.56-.32.38-.213.57-.507.57-.88v-.07h1.81v.07a2.32 2.32 0 01-.51 1.47c-.333.433-.8.773-1.4 1.02-.6.24-1.276.36-2.03.36zm6.79-6.69v4.98h4.25V7h-6.02V.44h1.77zm8.473 6.69c-.794 0-1.494-.137-2.1-.41-.6-.28-1.064-.673-1.39-1.18-.327-.513-.49-1.107-.49-1.78v-.07c0-.68.163-1.273.49-1.78.326-.513.79-.907 1.39-1.18.606-.28 1.306-.42 2.1-.42.806 0 1.51.14 2.11.42.6.273 1.063.667 1.39 1.18.326.507.49 1.1.49 1.78v.07c0 .68-.164 1.273-.49 1.78-.327.507-.79.9-1.39 1.18-.6.273-1.304.41-2.11.41zm0-1.65c1.46 0 2.19-.563 2.19-1.69v-.12c0-.56-.187-.983-.56-1.27-.367-.293-.91-.44-1.63-.44-.707 0-1.247.147-1.62.44-.374.293-.56.717-.56 1.27v.12c0 .553.183.973.55 1.26.366.287.91.43 1.63.43zm8.35 1.65c-.674 0-1.264-.13-1.77-.39a2.813 2.813 0 01-1.17-1.13c-.274-.487-.41-1.05-.41-1.69V.44h1.77v3.51c0 .5.133.88.4 1.14.266.26.66.39 1.18.39.526 0 .922-.13 1.19-.39.266-.26.4-.64.4-1.14V.44h1.77v3.48c0 .647-.14 1.213-.42 1.7a2.83 2.83 0 01-1.17 1.12c-.508.26-1.097.39-1.77.39zM43.116.44c1.253 0 2.197.273 2.83.82.64.54.96 1.347.96 2.42v.09c0 2.153-1.263 3.23-3.79 3.23h-3.36V.44h3.36zm0 4.98c.693 0 1.197-.13 1.51-.39.32-.26.48-.67.48-1.23v-.14c0-.553-.163-.963-.49-1.23-.327-.273-.83-.41-1.51-.41h-1.58v3.4h1.59zM56.889 7h-1.74V2.9L53.329 7h-1.75l-1.81-4.08V7h-1.75V.44h2.39l2.05 4.58 2.03-4.58h2.4V7zM59.982.44V7h-1.77V.44h1.77zm3.088 0v4.98h4.25V7H61.3V.44h1.77zm6.865 0v4.98h4.25V7h-6.02V.44h1.77zm18.02 3.02v1.52h-9.82V3.46h9.82zm81.84 3.67c-.806 0-1.516-.137-2.13-.41-.606-.28-1.076-.673-1.41-1.18-.326-.507-.49-1.1-.49-1.78v-.07c0-.68.164-1.273.49-1.78.334-.513.804-.907 1.41-1.18.614-.28 1.324-.42 2.13-.42.754 0 1.43.123 2.03.37.6.247 1.067.587 1.4 1.02.34.433.51.923.51 1.47v.08h-1.81v-.08c0-.367-.196-.66-.59-.88-.386-.22-.9-.33-1.54-.33-1.486 0-2.23.57-2.23 1.71v.12c0 .567.184.99.55 1.27.367.28.927.42 1.68.42.66 0 1.18-.107 1.56-.32.38-.213.57-.507.57-.88v-.07h1.81v.07a2.32 2.32 0 01-.51 1.47c-.333.433-.8.773-1.4 1.02-.6.24-1.276.36-2.03.36zm6.79-6.69v4.98h4.25V7h-6.02V.44h1.77zm8.473 6.69c-.794 0-1.494-.137-2.1-.41-.6-.28-1.064-.673-1.39-1.18-.327-.513-.49-1.107-.49-1.78v-.07c0-.68.163-1.273.49-1.78.326-.513.79-.907 1.39-1.18.606-.28 1.306-.42 2.1-.42.806 0 1.51.14 2.11.42.6.273 1.063.667 1.39 1.18.326.507.49 1.1.49 1.78v.07c0 .68-.164 1.273-.49 1.78-.327.507-.79.9-1.39 1.18-.6.273-1.304.41-2.11.41zm0-1.65c1.46 0 2.19-.563 2.19-1.69v-.12c0-.56-.187-.983-.56-1.27-.367-.293-.91-.44-1.63-.44-.707 0-1.247.147-1.62.44-.374.293-.56.717-.56 1.27v.12c0 .553.183.973.55 1.26.366.287.91.43 1.63.43zm8.349 1.65c-.673 0-1.263-.13-1.77-.39a2.82 2.82 0 01-1.17-1.13c-.273-.487-.41-1.05-.41-1.69V.44h1.77v3.51c0 .5.134.88.4 1.14.267.26.66.39 1.18.39.527 0 .924-.13 1.19-.39.267-.26.4-.64.4-1.14V.44h1.77v3.48c0 .647-.14 1.213-.42 1.7-.273.48-.663.853-1.17 1.12-.506.26-1.096.39-1.77.39zm8.04-6.69c1.253 0 2.197.273 2.83.82.64.54.96 1.347.96 2.42v.09c0 2.153-1.263 3.23-3.79 3.23h-3.36V.44h3.36zm0 4.98c.693 0 1.197-.13 1.51-.39.32-.26.48-.67.48-1.23v-.14c0-.553-.163-.963-.49-1.23-.327-.273-.83-.41-1.51-.41h-1.58v3.4h1.59zM215.219 7h-1.74V2.9l-1.82 4.1h-1.75l-1.81-4.08V7h-1.75V.44h2.39l2.05 4.58 2.03-4.58h2.4V7zm3.093-6.56V7h-1.77V.44h1.77zm3.088 0v4.98h4.25V7h-6.02V.44h1.77zm6.865 0v4.98h4.25V7h-6.02V.44h1.77zm18.021 3.02v1.52h-9.82V3.46h9.82zm81.839 3.67c-.806 0-1.516-.137-2.13-.41-.606-.28-1.076-.673-1.41-1.18-.326-.507-.49-1.1-.49-1.78v-.07c0-.68.164-1.273.49-1.78.334-.513.804-.907 1.41-1.18.614-.28 1.324-.42 2.13-.42.754 0 1.43.123 2.03.37.6.247 1.067.587 1.4 1.02.34.433.51.923.51 1.47v.08h-1.81v-.08c0-.367-.196-.66-.59-.88-.386-.22-.9-.33-1.54-.33-1.486 0-2.23.57-2.23 1.71v.12c0 .567.184.99.55 1.27.367.28.927.42 1.68.42.66 0 1.18-.107 1.56-.32.38-.213.57-.507.57-.88v-.07h1.81v.07a2.32 2.32 0 01-.51 1.47c-.333.433-.8.773-1.4 1.02-.6.24-1.276.36-2.03.36zm6.791-6.69v4.98h4.25V7h-6.02V.44h1.77zm8.472 6.69c-.794 0-1.494-.137-2.1-.41-.6-.28-1.064-.673-1.39-1.18-.327-.513-.49-1.107-.49-1.78v-.07c0-.68.163-1.273.49-1.78.326-.513.79-.907 1.39-1.18.606-.28 1.306-.42 2.1-.42.806 0 1.51.14 2.11.42.6.273 1.063.667 1.39 1.18.326.507.49 1.1.49 1.78v.07c0 .68-.164 1.273-.49 1.78-.327.507-.79.9-1.39 1.18-.6.273-1.304.41-2.11.41zm0-1.65c1.46 0 2.19-.563 2.19-1.69v-.12c0-.56-.187-.983-.56-1.27-.367-.293-.91-.44-1.63-.44-.707 0-1.247.147-1.62.44-.374.293-.56.717-.56 1.27v.12c0 .553.183.973.55 1.26.366.287.91.43 1.63.43zm8.349 1.65c-.673 0-1.263-.13-1.77-.39a2.82 2.82 0 01-1.17-1.13c-.273-.487-.41-1.05-.41-1.69V.44h1.77v3.51c0 .5.134.88.4 1.14.267.26.66.39 1.18.39.527 0 .924-.13 1.19-.39.267-.26.4-.64.4-1.14V.44h1.77v3.48c0 .647-.14 1.213-.42 1.7-.273.48-.663.853-1.17 1.12-.506.26-1.096.39-1.77.39zm8.04-6.69c1.253 0 2.197.273 2.83.82.64.54.96 1.347.96 2.42v.09c0 2.153-1.263 3.23-3.79 3.23h-3.36V.44h3.36zm0 4.98c.693 0 1.197-.13 1.51-.39.32-.26.48-.67.48-1.23v-.14c0-.553-.163-.963-.49-1.23-.327-.273-.83-.41-1.51-.41h-1.58v3.4h1.59zM373.549 7h-1.74V2.9l-1.82 4.1h-1.75l-1.81-4.08V7h-1.75V.44h2.39l2.05 4.58 2.03-4.58h2.4V7zm3.093-6.56V7h-1.77V.44h1.77zm3.088 0v4.98h4.25V7h-6.02V.44h1.77zm6.865 0v4.98h4.25V7h-6.02V.44h1.77zm18.021 3.02v1.52h-9.82V3.46h9.82zm81.839 3.67c-.806 0-1.516-.137-2.13-.41-.606-.28-1.076-.673-1.41-1.18-.326-.507-.49-1.1-.49-1.78v-.07c0-.68.164-1.273.49-1.78.334-.513.804-.907 1.41-1.18.614-.28 1.324-.42 2.13-.42.754 0 1.43.123 2.03.37.6.247 1.067.587 1.4 1.02.34.433.51.923.51 1.47v.08h-1.81v-.08c0-.367-.196-.66-.59-.88-.386-.22-.9-.33-1.54-.33-1.486 0-2.23.57-2.23 1.71v.12c0 .567.184.99.55 1.27.367.28.927.42 1.68.42.66 0 1.18-.107 1.56-.32.38-.213.57-.507.57-.88v-.07h1.81v.07a2.32 2.32 0 01-.51 1.47c-.333.433-.8.773-1.4 1.02-.6.24-1.276.36-2.03.36zm6.791-6.69v4.98h4.25V7h-6.02V.44h1.77zm8.472 6.69c-.793 0-1.493-.137-2.1-.41-.6-.28-1.063-.673-1.39-1.18-.327-.513-.49-1.107-.49-1.78v-.07c0-.68.163-1.273.49-1.78.327-.513.79-.907 1.39-1.18.607-.28 1.307-.42 2.1-.42.807 0 1.51.14 2.11.42.6.273 1.063.667 1.39 1.18.327.507.49 1.1.49 1.78v.07c0 .68-.163 1.273-.49 1.78-.327.507-.79.9-1.39 1.18-.6.273-1.303.41-2.11.41zm0-1.65c1.46 0 2.19-.563 2.19-1.69v-.12c0-.56-.187-.983-.56-1.27-.367-.293-.91-.44-1.63-.44-.707 0-1.247.147-1.62.44-.373.293-.56.717-.56 1.27v.12c0 .553.183.973.55 1.26.367.287.91.43 1.63.43zm8.349 1.65c-.673 0-1.263-.13-1.77-.39a2.82 2.82 0 01-1.17-1.13c-.273-.487-.41-1.05-.41-1.69V.44h1.77v3.51c0 .5.134.88.4 1.14.267.26.66.39 1.18.39.527 0 .924-.13 1.19-.39.267-.26.4-.64.4-1.14V.44h1.77v3.48c0 .647-.14 1.213-.42 1.7-.273.48-.663.853-1.17 1.12-.506.26-1.096.39-1.77.39zm8.04-6.69c1.253 0 2.197.273 2.83.82.64.54.96 1.347.96 2.42v.09c0 2.153-1.263 3.23-3.79 3.23h-3.36V.44h3.36zm0 4.98c.693 0 1.197-.13 1.51-.39.32-.26.48-.67.48-1.23v-.14c0-.553-.163-.963-.49-1.23-.327-.273-.83-.41-1.51-.41h-1.58v3.4h1.59zM531.879 7h-1.74V2.9l-1.82 4.1h-1.75l-1.81-4.08V7h-1.75V.44h2.39l2.05 4.58 2.03-4.58h2.4V7zm3.093-6.56V7h-1.77V.44h1.77zm3.088 0v4.98h4.25V7h-6.02V.44h1.77zm6.865 0v4.98h4.25V7h-6.02V.44h1.77zm18.021 3.02v1.52h-9.82V3.46h9.82zm81.839 3.67c-.806 0-1.516-.137-2.13-.41-.606-.28-1.076-.673-1.41-1.18-.326-.507-.49-1.1-.49-1.78v-.07c0-.68.164-1.273.49-1.78.334-.513.804-.907 1.41-1.18.614-.28 1.324-.42 2.13-.42.754 0 1.43.123 2.03.37.6.247 1.067.587 1.4 1.02.34.433.51.923.51 1.47v.08h-1.81v-.08c0-.367-.196-.66-.59-.88-.386-.22-.9-.33-1.54-.33-1.486 0-2.23.57-2.23 1.71v.12c0 .567.184.99.55 1.27.367.28.927.42 1.68.42.66 0 1.18-.107 1.56-.32.38-.213.57-.507.57-.88v-.07h1.81v.07a2.32 2.32 0 01-.51 1.47c-.333.433-.8.773-1.4 1.02-.6.24-1.276.36-2.03.36zm6.791-6.69v4.98h4.25V7h-6.02V.44h1.77zm8.472 6.69c-.793 0-1.493-.137-2.1-.41-.6-.28-1.063-.673-1.39-1.18-.327-.513-.49-1.107-.49-1.78v-.07c0-.68.163-1.273.49-1.78.327-.513.79-.907 1.39-1.18.607-.28 1.307-.42 2.1-.42.807 0 1.51.14 2.11.42.6.273 1.063.667 1.39 1.18.327.507.49 1.1.49 1.78v.07c0 .68-.163 1.273-.49 1.78-.327.507-.79.9-1.39 1.18-.6.273-1.303.41-2.11.41zm0-1.65c1.46 0 2.19-.563 2.19-1.69v-.12c0-.56-.187-.983-.56-1.27-.367-.293-.91-.44-1.63-.44-.707 0-1.247.147-1.62.44-.373.293-.56.717-.56 1.27v.12c0 .553.183.973.55 1.26.367.287.91.43 1.63.43zm8.35 1.65c-.674 0-1.264-.13-1.77-.39a2.81 2.81 0 01-1.17-1.13c-.274-.487-.41-1.05-.41-1.69V.44h1.77v3.51c0 .5.133.88.4 1.14.266.26.66.39 1.18.39.526 0 .923-.13 1.19-.39.266-.26.4-.64.4-1.14V.44h1.77v3.48c0 .647-.14 1.213-.42 1.7a2.84 2.84 0 01-1.17 1.12c-.507.26-1.097.39-1.77.39zm8.039-6.69c1.254 0 2.197.273 2.83.82.64.54.96 1.347.96 2.42v.09c0 2.153-1.263 3.23-3.79 3.23h-3.36V.44h3.36zm0 4.98c.694 0 1.197-.13 1.51-.39.32-.26.48-.67.48-1.23v-.14c0-.553-.163-.963-.49-1.23-.326-.273-.83-.41-1.51-.41h-1.58v3.4h1.59zM690.209 7h-1.74V2.9l-1.82 4.1h-1.75l-1.81-4.08V7h-1.75V.44h2.39l2.05 4.58 2.03-4.58h2.4V7zm3.093-6.56V7h-1.77V.44h1.77zm3.088 0v4.98h4.25V7h-6.02V.44h1.77zm6.865 0v4.98h4.25V7h-6.02V.44h1.77zm18.021 3.02v1.52h-9.82V3.46h9.82zm81.84 3.67c-.807 0-1.517-.137-2.13-.41-.607-.28-1.077-.673-1.41-1.18-.327-.507-.49-1.1-.49-1.78v-.07c0-.68.163-1.273.49-1.78.333-.513.803-.907 1.41-1.18.613-.28 1.323-.42 2.13-.42.753 0 1.43.123 2.03.37.6.247 1.066.587 1.4 1.02.34.433.51.923.51 1.47v.08h-1.81v-.08c0-.367-.197-.66-.59-.88-.387-.22-.9-.33-1.54-.33-1.487 0-2.23.57-2.23 1.71v.12c0 .567.183.99.55 1.27.366.28.926.42 1.68.42.66 0 1.18-.107 1.56-.32.38-.213.57-.507.57-.88v-.07h1.81v.07a2.32 2.32 0 01-.51 1.47c-.334.433-.8.773-1.4 1.02-.6.24-1.277.36-2.03.36zm6.79-6.69v4.98h4.25V7h-6.02V.44h1.77zm8.472 6.69c-.793 0-1.493-.137-2.1-.41-.6-.28-1.063-.673-1.39-1.18-.327-.513-.49-1.107-.49-1.78v-.07c0-.68.163-1.273.49-1.78.327-.513.79-.907 1.39-1.18.607-.28 1.307-.42 2.1-.42.807 0 1.51.14 2.11.42.6.273 1.063.667 1.39 1.18.327.507.49 1.1.49 1.78v.07c0 .68-.163 1.273-.49 1.78-.327.507-.79.9-1.39 1.18-.6.273-1.303.41-2.11.41zm0-1.65c1.46 0 2.19-.563 2.19-1.69v-.12c0-.56-.187-.983-.56-1.27-.367-.293-.91-.44-1.63-.44-.707 0-1.247.147-1.62.44-.373.293-.56.717-.56 1.27v.12c0 .553.183.973.55 1.26.367.287.91.43 1.63.43zm8.35 1.65c-.674 0-1.264-.13-1.77-.39a2.81 2.81 0 01-1.17-1.13c-.274-.487-.41-1.05-.41-1.69V.44h1.77v3.51c0 .5.133.88.4 1.14.266.26.66.39 1.18.39.526 0 .923-.13 1.19-.39.266-.26.4-.64.4-1.14V.44h1.77v3.48c0 .647-.14 1.213-.42 1.7a2.84 2.84 0 01-1.17 1.12c-.507.26-1.097.39-1.77.39zm8.039-6.69c1.254 0 2.197.273 2.83.82.64.54.96 1.347.96 2.42v.09c0 2.153-1.263 3.23-3.79 3.23h-3.36V.44h3.36zm0 4.98c.694 0 1.197-.13 1.51-.39.32-.26.48-.67.48-1.23v-.14c0-.553-.163-.963-.49-1.23-.326-.273-.83-.41-1.51-.41h-1.58v3.4h1.59zM848.539 7h-1.74V2.9l-1.82 4.1h-1.75l-1.81-4.08V7h-1.75V.44h2.39l2.05 4.58 2.03-4.58h2.4V7zm3.093-6.56V7h-1.77V.44h1.77zm3.088 0v4.98h4.25V7h-6.02V.44h1.77zm6.865 0v4.98h4.25V7h-6.02V.44h1.77zm18.021 3.02v1.52h-9.82V3.46h9.82zm81.84 3.67c-.807 0-1.517-.137-2.13-.41-.607-.28-1.077-.673-1.41-1.18-.327-.507-.49-1.1-.49-1.78v-.07c0-.68.163-1.273.49-1.78.333-.513.803-.907 1.41-1.18.613-.28 1.323-.42 2.13-.42.753 0 1.43.123 2.03.37.6.247 1.066.587 1.4 1.02.34.433.51.923.51 1.47v.08h-1.81v-.08c0-.367-.197-.66-.59-.88-.387-.22-.9-.33-1.54-.33-1.487 0-2.23.57-2.23 1.71v.12c0 .567.183.99.55 1.27.366.28.926.42 1.68.42.66 0 1.18-.107 1.56-.32.38-.213.57-.507.57-.88v-.07h1.81v.07a2.32 2.32 0 01-.51 1.47c-.334.433-.8.773-1.4 1.02-.6.24-1.277.36-2.03.36zm6.79-6.69v4.98h4.25V7h-6.02V.44h1.77zm8.472 6.69c-.793 0-1.493-.137-2.1-.41-.6-.28-1.063-.673-1.39-1.18-.327-.513-.49-1.107-.49-1.78v-.07c0-.68.163-1.273.49-1.78.327-.513.79-.907 1.39-1.18.607-.28 1.307-.42 2.1-.42.807 0 1.51.14 2.11.42.6.273 1.063.667 1.39 1.18.327.507.49 1.1.49 1.78v.07c0 .68-.163 1.273-.49 1.78-.327.507-.79.9-1.39 1.18-.6.273-1.303.41-2.11.41zm0-1.65c1.46 0 2.19-.563 2.19-1.69v-.12c0-.56-.187-.983-.56-1.27-.367-.293-.91-.44-1.63-.44-.707 0-1.247.147-1.62.44-.373.293-.56.717-.56 1.27v.12c0 .553.183.973.55 1.26.367.287.91.43 1.63.43zm8.35 1.65c-.674 0-1.264-.13-1.77-.39a2.81 2.81 0 01-1.17-1.13c-.274-.487-.41-1.05-.41-1.69V.44h1.77v3.51c0 .5.133.88.4 1.14.266.26.66.39 1.18.39.526 0 .923-.13 1.19-.39.266-.26.4-.64.4-1.14V.44h1.77v3.48c0 .647-.14 1.213-.42 1.7a2.84 2.84 0 01-1.17 1.12c-.507.26-1.097.39-1.77.39zm8.039-6.69c1.254 0 2.197.273 2.83.82.64.54.96 1.347.96 2.42v.09c0 2.153-1.263 3.23-3.79 3.23h-3.36V.44h3.36zm0 4.98c.694 0 1.197-.13 1.51-.39.32-.26.48-.67.48-1.23v-.14c0-.553-.163-.963-.49-1.23-.326-.273-.83-.41-1.51-.41h-1.58v3.4h1.59zM1006.87 7h-1.74V2.9l-1.82 4.1h-1.75l-1.811-4.08V7h-1.75V.44h2.391l2.05 4.58 2.03-4.58h2.4V7zm3.09-6.56V7h-1.77V.44h1.77zm3.09 0v4.98h4.25V7h-6.02V.44h1.77zm6.87 0v4.98h4.25V7h-6.02V.44h1.77zm18.02 3.02v1.52h-9.82V3.46h9.82zm81.84 3.67c-.81 0-1.52-.137-2.13-.41-.61-.28-1.08-.673-1.41-1.18-.33-.507-.49-1.1-.49-1.78v-.07c0-.68.16-1.273.49-1.78.33-.513.8-.907 1.41-1.18.61-.28 1.32-.42 2.13-.42.75 0 1.43.123 2.03.37.6.247 1.06.587 1.4 1.02.34.433.51.923.51 1.47v.08h-1.81v-.08c0-.367-.2-.66-.59-.88-.39-.22-.9-.33-1.54-.33-1.49 0-2.23.57-2.23 1.71v.12c0 .567.18.99.55 1.27.36.28.92.42 1.68.42.66 0 1.18-.107 1.56-.32.38-.213.57-.507.57-.88v-.07h1.81v.07a2.32 2.32 0 01-.51 1.47c-.34.433-.8.773-1.4 1.02-.6.24-1.28.36-2.03.36zm6.79-6.69v4.98h4.25V7h-6.02V.44h1.77zm8.47 6.69c-.8 0-1.5-.137-2.1-.41-.6-.28-1.07-.673-1.39-1.18-.33-.513-.49-1.107-.49-1.78v-.07c0-.68.16-1.273.49-1.78.32-.513.79-.907 1.39-1.18.6-.28 1.3-.42 2.1-.42s1.51.14 2.11.42c.6.273 1.06.667 1.39 1.18.32.507.49 1.1.49 1.78v.07c0 .68-.17 1.273-.49 1.78-.33.507-.79.9-1.39 1.18-.6.273-1.31.41-2.11.41zm0-1.65c1.46 0 2.19-.563 2.19-1.69v-.12c0-.56-.19-.983-.56-1.27-.37-.293-.91-.44-1.63-.44-.71 0-1.25.147-1.62.44-.38.293-.56.717-.56 1.27v.12c0 .553.18.973.55 1.26.36.287.91.43 1.63.43zm8.35 1.65c-.68 0-1.27-.13-1.77-.39-.51-.267-.9-.643-1.17-1.13-.28-.487-.41-1.05-.41-1.69V.44h1.77v3.51c0 .5.13.88.4 1.14.26.26.66.39 1.18.39.52 0 .92-.13 1.19-.39.26-.26.4-.64.4-1.14V.44h1.77v3.48c0 .647-.14 1.213-.42 1.7-.28.48-.67.853-1.17 1.12-.51.26-1.1.39-1.77.39zm8.04-6.69c1.25 0 2.19.273 2.83.82.64.54.96 1.347.96 2.42v.09c0 2.153-1.27 3.23-3.79 3.23h-3.36V.44h3.36zm0 4.98c.69 0 1.19-.13 1.51-.39.32-.26.48-.67.48-1.23v-.14c0-.553-.17-.963-.49-1.23-.33-.273-.83-.41-1.51-.41h-1.58v3.4h1.59zM1165.2 7h-1.74V2.9l-1.82 4.1h-1.75l-1.81-4.08V7h-1.75V.44h2.39l2.05 4.58 2.03-4.58h2.4V7zm3.09-6.56V7h-1.77V.44h1.77zm3.09 0v4.98h4.25V7h-6.02V.44h1.77zm6.87 0v4.98h4.25V7h-6.02V.44h1.77zm18.02 3.02v1.52h-9.82V3.46h9.82zm81.84 3.67c-.81 0-1.52-.137-2.13-.41-.61-.28-1.08-.673-1.41-1.18-.33-.507-.49-1.1-.49-1.78v-.07c0-.68.16-1.273.49-1.78.33-.513.8-.907 1.41-1.18.61-.28 1.32-.42 2.13-.42.75 0 1.43.123 2.03.37.6.247 1.06.587 1.4 1.02.34.433.51.923.51 1.47v.08h-1.81v-.08c0-.367-.2-.66-.59-.88-.39-.22-.9-.33-1.54-.33-1.49 0-2.23.57-2.23 1.71v.12c0 .567.18.99.55 1.27.36.28.92.42 1.68.42.66 0 1.18-.107 1.56-.32.38-.213.57-.507.57-.88v-.07h1.81v.07a2.32 2.32 0 01-.51 1.47c-.34.433-.8.773-1.4 1.02-.6.24-1.28.36-2.03.36zm6.79-6.69v4.98h4.25V7h-6.02V.44h1.77zm8.47 6.69c-.8 0-1.5-.137-2.1-.41-.6-.28-1.07-.673-1.39-1.18-.33-.513-.49-1.107-.49-1.78v-.07c0-.68.16-1.273.49-1.78.32-.513.79-.907 1.39-1.18.6-.28 1.3-.42 2.1-.42s1.51.14 2.11.42c.6.273 1.06.667 1.39 1.18.32.507.49 1.1.49 1.78v.07c0 .68-.17 1.273-.49 1.78-.33.507-.79.9-1.39 1.18-.6.273-1.31.41-2.11.41zm0-1.65c1.46 0 2.19-.563 2.19-1.69v-.12c0-.56-.19-.983-.56-1.27-.37-.293-.91-.44-1.63-.44-.71 0-1.25.147-1.62.44-.38.293-.56.717-.56 1.27v.12c0 .553.18.973.55 1.26.36.287.91.43 1.63.43zm8.35 1.65c-.68 0-1.27-.13-1.77-.39-.51-.267-.9-.643-1.17-1.13-.28-.487-.41-1.05-.41-1.69V.44h1.77v3.51c0 .5.13.88.4 1.14.26.26.66.39 1.18.39.52 0 .92-.13 1.19-.39.26-.26.4-.64.4-1.14V.44h1.77v3.48c0 .647-.14 1.213-.42 1.7-.28.48-.67.853-1.17 1.12-.51.26-1.1.39-1.77.39zm8.04-6.69c1.25 0 2.19.273 2.83.82.64.54.96 1.347.96 2.42v.09c0 2.153-1.27 3.23-3.79 3.23h-3.36V.44h3.36zm0 4.98c.69 0 1.19-.13 1.51-.39.32-.26.48-.67.48-1.23v-.14c0-.553-.17-.963-.49-1.23-.33-.273-.83-.41-1.51-.41h-1.58v3.4h1.59zM1323.53 7h-1.74V2.9l-1.82 4.1h-1.75l-1.81-4.08V7h-1.75V.44h2.39l2.05 4.58 2.03-4.58h2.4V7zm3.09-6.56V7h-1.77V.44h1.77zm3.09 0v4.98h4.25V7h-6.02V.44h1.77zm6.87 0v4.98h4.25V7h-6.02V.44h1.77zm18.02 3.02v1.52h-9.82V3.46h9.82zm81.84 3.67c-.81 0-1.52-.137-2.13-.41-.61-.28-1.08-.673-1.41-1.18-.33-.507-.49-1.1-.49-1.78v-.07c0-.68.16-1.273.49-1.78.33-.513.8-.907 1.41-1.18.61-.28 1.32-.42 2.13-.42.75 0 1.43.123 2.03.37.6.247 1.06.587 1.4 1.02.34.433.51.923.51 1.47v.08h-1.81v-.08c0-.367-.2-.66-.59-.88-.39-.22-.9-.33-1.54-.33-1.49 0-2.23.57-2.23 1.71v.12c0 .567.18.99.55 1.27.36.28.92.42 1.68.42.66 0 1.18-.107 1.56-.32.38-.213.57-.507.57-.88v-.07h1.81v.07a2.32 2.32 0 01-.51 1.47c-.34.433-.8.773-1.4 1.02-.6.24-1.28.36-2.03.36zm6.79-6.69v4.98h4.25V7h-6.02V.44h1.77zm8.47 6.69c-.79 0-1.49-.137-2.1-.41-.6-.28-1.06-.673-1.39-1.18-.33-.513-.49-1.107-.49-1.78v-.07c0-.68.16-1.273.49-1.78.33-.513.79-.907 1.39-1.18.61-.28 1.31-.42 2.1-.42.81 0 1.51.14 2.11.42.6.273 1.06.667 1.39 1.18.33.507.49 1.1.49 1.78v.07c0 .68-.16 1.273-.49 1.78-.33.507-.79.9-1.39 1.18-.6.273-1.3.41-2.11.41zm0-1.65c1.46 0 2.19-.563 2.19-1.69v-.12c0-.56-.19-.983-.56-1.27-.37-.293-.91-.44-1.63-.44-.71 0-1.25.147-1.62.44-.37.293-.56.717-.56 1.27v.12c0 .553.18.973.55 1.26.37.287.91.43 1.63.43zm8.35 1.65c-.68 0-1.27-.13-1.77-.39-.51-.267-.9-.643-1.17-1.13-.28-.487-.41-1.05-.41-1.69V.44h1.77v3.51c0 .5.13.88.4 1.14.26.26.66.39 1.18.39.52 0 .92-.13 1.19-.39.26-.26.4-.64.4-1.14V.44h1.77v3.48c0 .647-.14 1.213-.42 1.7-.28.48-.67.853-1.17 1.12-.51.26-1.1.39-1.77.39zm8.04-6.69c1.25 0 2.19.273 2.83.82.64.54.96 1.347.96 2.42v.09c0 2.153-1.27 3.23-3.79 3.23h-3.36V.44h3.36zm0 4.98c.69 0 1.19-.13 1.51-.39.32-.26.48-.67.48-1.23v-.14c0-.553-.17-.963-.49-1.23-.33-.273-.83-.41-1.51-.41h-1.58v3.4h1.59zM1481.86 7h-1.74V2.9L1478.3 7h-1.75l-1.81-4.08V7h-1.75V.44h2.39l2.05 4.58 2.03-4.58h2.4V7zm3.09-6.56V7h-1.77V.44h1.77zm3.09 0v4.98h4.25V7h-6.02V.44h1.77zm6.87 0v4.98h4.25V7h-6.02V.44h1.77zm18.02 3.02v1.52h-9.82V3.46h9.82zm81.84 3.67c-.81 0-1.52-.137-2.13-.41-.61-.28-1.08-.673-1.41-1.18-.33-.507-.49-1.1-.49-1.78v-.07c0-.68.16-1.273.49-1.78.33-.513.8-.907 1.41-1.18.61-.28 1.32-.42 2.13-.42.75 0 1.43.123 2.03.37.6.247 1.06.587 1.4 1.02.34.433.51.923.51 1.47v.08h-1.81v-.08c0-.367-.2-.66-.59-.88-.39-.22-.9-.33-1.54-.33-1.49 0-2.23.57-2.23 1.71v.12c0 .567.18.99.55 1.27.36.28.92.42 1.68.42.66 0 1.18-.107 1.56-.32.38-.213.57-.507.57-.88v-.07h1.81v.07a2.32 2.32 0 01-.51 1.47c-.34.433-.8.773-1.4 1.02-.6.24-1.28.36-2.03.36zm6.79-6.69v4.98h4.25V7h-6.02V.44h1.77zm8.47 6.69c-.79 0-1.49-.137-2.1-.41-.6-.28-1.06-.673-1.39-1.18-.33-.513-.49-1.107-.49-1.78v-.07c0-.68.16-1.273.49-1.78.33-.513.79-.907 1.39-1.18.61-.28 1.31-.42 2.1-.42.81 0 1.51.14 2.11.42.6.273 1.06.667 1.39 1.18.33.507.49 1.1.49 1.78v.07c0 .68-.16 1.273-.49 1.78-.33.507-.79.9-1.39 1.18-.6.273-1.3.41-2.11.41zm0-1.65c1.46 0 2.19-.563 2.19-1.69v-.12c0-.56-.19-.983-.56-1.27-.37-.293-.91-.44-1.63-.44-.71 0-1.25.147-1.62.44-.37.293-.56.717-.56 1.27v.12c0 .553.18.973.55 1.26.37.287.91.43 1.63.43zm8.35 1.65c-.68 0-1.27-.13-1.77-.39-.51-.267-.9-.643-1.17-1.13-.28-.487-.41-1.05-.41-1.69V.44h1.77v3.51c0 .5.13.88.4 1.14.26.26.66.39 1.18.39.52 0 .92-.13 1.19-.39.26-.26.4-.64.4-1.14V.44h1.77v3.48c0 .647-.14 1.213-.42 1.7-.28.48-.67.853-1.17 1.12-.51.26-1.1.39-1.77.39zm8.04-6.69c1.25 0 2.19.273 2.83.82.64.54.96 1.347.96 2.42v.09c0 2.153-1.27 3.23-3.79 3.23h-3.36V.44h3.36zm0 4.98c.69 0 1.19-.13 1.51-.39.32-.26.48-.67.48-1.23v-.14c0-.553-.17-.963-.49-1.23-.33-.273-.83-.41-1.51-.41h-1.58v3.4h1.59zM1640.19 7h-1.74V2.9l-1.82 4.1h-1.75l-1.81-4.08V7h-1.75V.44h2.39l2.05 4.58 2.03-4.58h2.4V7zm3.09-6.56V7h-1.77V.44h1.77zm3.09 0v4.98h4.25V7h-6.02V.44h1.77zm6.87 0v4.98h4.25V7h-6.02V.44h1.77zm18.02 3.02v1.52h-9.82V3.46h9.82zm81.84 3.67c-.81 0-1.52-.137-2.13-.41-.61-.28-1.08-.673-1.41-1.18-.33-.507-.49-1.1-.49-1.78v-.07c0-.68.16-1.273.49-1.78.33-.513.8-.907 1.41-1.18.61-.28 1.32-.42 2.13-.42.75 0 1.43.123 2.03.37.6.247 1.06.587 1.4 1.02.34.433.51.923.51 1.47v.08h-1.81v-.08c0-.367-.2-.66-.59-.88-.39-.22-.9-.33-1.54-.33-1.49 0-2.23.57-2.23 1.71v.12c0 .567.18.99.55 1.27.36.28.92.42 1.68.42.66 0 1.18-.107 1.56-.32.38-.213.57-.507.57-.88v-.07h1.81v.07a2.32 2.32 0 01-.51 1.47c-.34.433-.8.773-1.4 1.02-.6.24-1.28.36-2.03.36zm6.79-6.69v4.98h4.25V7h-6.02V.44h1.77zm8.47 6.69c-.79 0-1.49-.137-2.1-.41-.6-.28-1.06-.673-1.39-1.18-.33-.513-.49-1.107-.49-1.78v-.07c0-.68.16-1.273.49-1.78.33-.513.79-.907 1.39-1.18.61-.28 1.31-.42 2.1-.42.81 0 1.51.14 2.11.42.6.273 1.06.667 1.39 1.18.33.507.49 1.1.49 1.78v.07c0 .68-.16 1.273-.49 1.78-.33.507-.79.9-1.39 1.18-.6.273-1.3.41-2.11.41zm0-1.65c1.46 0 2.19-.563 2.19-1.69v-.12c0-.56-.19-.983-.56-1.27-.37-.293-.91-.44-1.63-.44-.71 0-1.25.147-1.62.44-.37.293-.56.717-.56 1.27v.12c0 .553.18.973.55 1.26.37.287.91.43 1.63.43zm8.35 1.65c-.68 0-1.27-.13-1.77-.39-.51-.267-.9-.643-1.17-1.13-.28-.487-.41-1.05-.41-1.69V.44h1.77v3.51c0 .5.13.88.4 1.14.26.26.66.39 1.18.39.52 0 .92-.13 1.19-.39.26-.26.4-.64.4-1.14V.44h1.77v3.48c0 .647-.14 1.213-.42 1.7-.28.48-.67.853-1.17 1.12-.51.26-1.1.39-1.77.39zm8.04-6.69c1.25 0 2.19.273 2.83.82.64.54.96 1.347.96 2.42v.09c0 2.153-1.27 3.23-3.79 3.23h-3.36V.44h3.36zm0 4.98c.69 0 1.19-.13 1.51-.39.32-.26.48-.67.48-1.23v-.14c0-.553-.17-.963-.49-1.23-.33-.273-.83-.41-1.51-.41h-1.58v3.4h1.59zM1798.52 7h-1.74V2.9l-1.82 4.1h-1.75l-1.81-4.08V7h-1.75V.44h2.39l2.05 4.58 2.03-4.58h2.4V7zm3.09-6.56V7h-1.77V.44h1.77zm3.09 0v4.98h4.25V7h-6.02V.44h1.77zm6.87 0v4.98h4.25V7h-6.02V.44h1.77zm18.02 3.02v1.52h-9.82V3.46h9.82zm81.84 3.67c-.81 0-1.52-.137-2.13-.41-.61-.28-1.08-.673-1.41-1.18-.33-.507-.49-1.1-.49-1.78v-.07c0-.68.16-1.273.49-1.78.33-.513.8-.907 1.41-1.18.61-.28 1.32-.42 2.13-.42.75 0 1.43.123 2.03.37.6.247 1.06.587 1.4 1.02.34.433.51.923.51 1.47v.08h-1.81v-.08c0-.367-.2-.66-.59-.88-.39-.22-.9-.33-1.54-.33-1.49 0-2.23.57-2.23 1.71v.12c0 .567.18.99.55 1.27.36.28.92.42 1.68.42.66 0 1.18-.107 1.56-.32.38-.213.57-.507.57-.88v-.07h1.81v.07a2.32 2.32 0 01-.51 1.47c-.34.433-.8.773-1.4 1.02-.6.24-1.28.36-2.03.36zm6.79-6.69v4.98h4.25V7h-6.02V.44h1.77zm8.47 6.69c-.79 0-1.49-.137-2.1-.41-.6-.28-1.06-.673-1.39-1.18-.33-.513-.49-1.107-.49-1.78v-.07c0-.68.16-1.273.49-1.78.33-.513.79-.907 1.39-1.18.61-.28 1.31-.42 2.1-.42.81 0 1.51.14 2.11.42.6.273 1.06.667 1.39 1.18.33.507.49 1.1.49 1.78v.07c0 .68-.16 1.273-.49 1.78-.33.507-.79.9-1.39 1.18-.6.273-1.3.41-2.11.41zm0-1.65c1.46 0 2.19-.563 2.19-1.69v-.12c0-.56-.19-.983-.56-1.27-.37-.293-.91-.44-1.63-.44-.71 0-1.25.147-1.62.44-.37.293-.56.717-.56 1.27v.12c0 .553.18.973.55 1.26.37.287.91.43 1.63.43zm8.35 1.65c-.68 0-1.27-.13-1.77-.39-.51-.267-.9-.643-1.17-1.13-.28-.487-.41-1.05-.41-1.69V.44h1.77v3.51c0 .5.13.88.4 1.14.26.26.66.39 1.18.39.52 0 .92-.13 1.19-.39.26-.26.4-.64.4-1.14V.44h1.77v3.48c0 .647-.14 1.213-.42 1.7-.28.48-.67.853-1.17 1.12-.51.26-1.1.39-1.77.39zm8.04-6.69c1.25 0 2.19.273 2.83.82.64.54.96 1.347.96 2.42v.09c0 2.153-1.27 3.23-3.79 3.23h-3.36V.44h3.36zm0 4.98c.69 0 1.19-.13 1.51-.39.32-.26.48-.67.48-1.23v-.14c0-.553-.17-.963-.49-1.23-.33-.273-.83-.41-1.51-.41h-1.58v3.4h1.59zM1956.85 7h-1.74V2.9l-1.82 4.1h-1.75l-1.81-4.08V7h-1.75V.44h2.39l2.05 4.58 2.03-4.58h2.4V7zm3.09-6.56V7h-1.77V.44h1.77zm3.09 0v4.98h4.25V7h-6.02V.44h1.77zm6.87 0v4.98h4.25V7h-6.02V.44h1.77zm18.02 3.02v1.52h-9.82V3.46h9.82z" fill="#fff"/></svg>