<svg width="228" height="162" fill="none" xmlns="http://www.w3.org/2000/svg"><mask id="a" fill="#fff"><path d="M29.706 79.3l.055-.047-.055.047zm58.466-9.537l2.108 5.824 5.892-6.994 13.756-1.9 1.232-1.291-8.904-2.348-14.084 6.709zM9.808 97.226l-4.736-5.054-1.405 5.445 6.141-.39zm186.217 26.304l10.427 17.539 2.286-8.153-12.713-9.386zm26.926-10.686l-5.63-19.116-4.338-2.297-1.455-6.287 4.704-6.265-.019-14.096-6.482-1.797-1.29-4.473 7.234-3.185-3.764-6.315-3.903 1.955-.406 1.254-1.151.27-13.227 7.547-2.676 7.248-5.384 4.462-2.422-1.837-4.886 4.656-10.779 1.26-7.103 9.985-4.493-6.836-15.001 1.39 1.147-6.083-5.258-2.986-22.859 8.589-5.894-1.442-3.086-1.89-7.513 6.713-4.593-5.558-2.194 1.114-11.56-5.13-13.968-3.878 2.717-3.85 2.655 3.45 2.628-.77 2.154-11.044-4.225-3.728-15.919 11.09-14.238-.453s-10.016 13.716-10.709 14.69l.004-.05c-.255-.02-2.52 1.344-2.52 1.344l.564 3.285.385 13.353-14.77 1.716c-.055.047-.059.099-.114.146l5.326 26.242 3.878.305 3.965-9.255 7.653-.683-.539-5.546 6.543-2.879 16.997 16.925 2.68-1.434.19-2.403 3.263-2.315 15.873 3.823-.266 3.374 8.228 4.404 2.135 11.999 11.828 8.237 8.47-2.573 10.106 5.323 2.093-1.79 1.517-4.921 5.83 2.259.586 2.979 11.56 3.174 12.28-3.353 7.31-.247 1.808-10.556 7.488-2.496 6.892 8.979 9.096 1.848 4.999-4.132-1.169 14.825 7.246.571 4.059-22.827-8.214-13.045-8.357 1.142 4.089-14.749 13.343-9.03-1.532-11.18 6.289-3.568 2.379 17.368 11.957 10.51 1.758-1.456zM25.596 57.834l1.29 4.474 3.304-2.825-4.594-1.649z"/></mask><path d="M29.706 79.3l.055-.047-.055.047zm58.466-9.537l2.108 5.824 5.892-6.994 13.756-1.9 1.232-1.291-8.904-2.348-14.084 6.709zM9.808 97.226l-4.736-5.054-1.405 5.445 6.141-.39zm186.217 26.304l10.427 17.539 2.286-8.153-12.713-9.386zm26.926-10.686l-5.63-19.116-4.338-2.297-1.455-6.287 4.704-6.265-.019-14.096-6.482-1.797-1.29-4.473 7.234-3.185-3.764-6.315-3.903 1.955-.406 1.254-1.151.27-13.227 7.547-2.676 7.248-5.384 4.462-2.422-1.837-4.886 4.656-10.779 1.26-7.103 9.985-4.493-6.836-15.001 1.39 1.147-6.083-5.258-2.986-22.859 8.589-5.894-1.442-3.086-1.89-7.513 6.713-4.593-5.558-2.194 1.114-11.56-5.13-13.968-3.878 2.717-3.85 2.655 3.45 2.628-.77 2.154-11.044-4.225-3.728-15.919 11.09-14.238-.453s-10.016 13.716-10.709 14.69l.004-.05c-.255-.02-2.52 1.344-2.52 1.344l.564 3.285.385 13.353-14.77 1.716c-.055.047-.059.099-.114.146l5.326 26.242 3.878.305 3.965-9.255 7.653-.683-.539-5.546 6.543-2.879 16.997 16.925 2.68-1.434.19-2.403 3.263-2.315 15.873 3.823-.266 3.374 8.228 4.404 2.135 11.999 11.828 8.237 8.47-2.573 10.106 5.323 2.093-1.79 1.517-4.921 5.83 2.259.586 2.979 11.56 3.174 12.28-3.353 7.31-.247 1.808-10.556 7.488-2.496 6.892 8.979 9.096 1.848 4.999-4.132-1.169 14.825 7.246.571 4.059-22.827-8.214-13.045-8.357 1.142 4.089-14.749 13.343-9.03-1.532-11.18 6.289-3.568 2.379 17.368 11.957 10.51 1.758-1.456zM25.596 57.834l1.29 4.474 3.304-2.825-4.594-1.649z" stroke="#0000BD" stroke-width="3" mask="url(#a)"/><g clip-path="url(#clip0)"><path d="M148.268 61.583l-33.641 19.232c-4.695 2.686-8.955 2.926-12.004 1.151l17.909 10.312c3.05 1.775 7.309 1.535 12.004-1.15l33.641-19.234-17.909-10.311z" fill="#fff"/><path d="M125.034 94.149c-1.743 0-3.389-.432-4.792-1.247l-17.91-10.312a.7.7 0 01-.242-1.007.714.714 0 011.016-.24c3.001 1.727 6.971 1.295 11.279-1.151l33.641-19.233a.664.664 0 01.726 0l17.909 10.312a.698.698 0 01.339.623c0 .24-.145.48-.387.624l-33.641 19.233c-2.808 1.582-5.518 2.398-7.938 2.398zm-17.716-10.312l13.601 7.818c2.953 1.726 6.97 1.295 11.278-1.151l32.528-18.61-16.457-9.496-33.254 19.04c-2.662 1.536-5.325 2.351-7.696 2.399z" fill="#DF0112"/><path d="M166.226 71.894l-2.614 1.487-31.027 17.746c-9.294 5.324-16.942 1.055-16.942-9.592-.048-10.6 7.503-23.55 16.845-28.873l33.641-19.233-.097-22.398-34.948 20c-9.778 5.612-18.926 15.156-25.799 27.002-6.874 11.8-10.65 24.46-10.65 35.588.05 22.974 16.507 32.23 36.691 20.719l34.948-20-.048-22.446z" fill="#fff"/><path d="M114.965 120c-3.63 0-6.97-.815-9.922-2.542-7.116-4.077-11.085-12.566-11.085-23.885-.048-11.223 3.776-24.029 10.746-35.923 6.922-11.943 16.215-21.583 26.09-27.242l34.947-20a.666.666 0 01.727 0c.242.144.387.383.387.623l.048 22.398c0 .24-.145.48-.387.624l-33.641 19.232c-9.1 5.228-16.506 17.89-16.457 28.25 0 4.844 1.645 8.44 4.598 10.12 2.953 1.678 6.97 1.295 11.278-1.151l33.641-19.233a.664.664 0 01.726 0c.242.144.387.384.387.623l.049 22.398c0 .24-.145.48-.387.624l-34.948 20c-5.954 3.357-11.666 5.084-16.797 5.084zm50.341-107.722l-33.835 19.377c-9.681 5.515-18.732 15.012-25.557 26.714-6.825 11.703-10.552 24.22-10.552 35.204.048 10.791 3.727 18.849 10.358 22.638 6.728 3.837 15.683 2.926 25.219-2.542l34.56-19.76-.048-20.768-32.528 18.61c-4.743 2.733-9.245 3.117-12.73 1.15-3.437-1.966-5.324-5.995-5.324-11.366-.049-10.84 7.696-24.077 17.183-29.497l33.254-19.04v-20.72z" fill="#DF0112"/><path d="M148.122.72l-34.948 20c-9.777 5.563-18.926 15.155-25.799 26.954-6.873 11.798-10.649 24.46-10.649 35.587.049 11.415 4.114 19.425 10.697 23.214l17.91 10.312c-6.583-3.789-10.649-11.799-10.697-23.214-.049-11.127 3.727-23.74 10.649-35.587 6.873-11.799 16.07-21.391 25.799-27.003l34.948-19.952L148.122.72z" fill="#fff"/><path d="M105.333 117.506c-.145 0-.242-.048-.387-.096l-17.91-10.312C79.97 103.021 76.048 94.532 76 83.261c-.048-11.223 3.775-24.029 10.746-35.923 6.97-11.943 16.215-21.583 26.09-27.242l34.947-20a.666.666 0 01.727 0l17.909 10.311a.698.698 0 01.339.624c0 .24-.145.48-.387.623l-34.9 20c-9.681 5.516-18.732 15.012-25.557 26.715-6.825 11.703-10.552 24.22-10.552 35.204.048 10.743 3.678 18.801 10.31 22.59a.7.7 0 01.242 1.007c-.097.24-.339.336-.581.336zM148.122 1.534l-34.56 19.809c-9.681 5.515-18.733 15.012-25.558 26.714-6.825 11.703-10.6 24.22-10.552 35.204.049 10.743 3.679 18.801 10.31 22.59l11.666 6.715c-3.582-4.605-5.47-11.127-5.519-18.993-.048-11.223 3.776-24.029 10.746-35.923 6.922-11.943 16.216-21.583 26.09-27.243l33.835-19.376-16.458-9.497z" fill="#DF0112"/><path d="M142.217 46.667V24.844l-18.007-10.12L148.122.72l17.91 10.312.048 22.398-23.863 13.238z" fill="#fff"/><path d="M142.217 47.386c-.145 0-.242-.048-.387-.096a.697.697 0 01-.339-.623v-21.44l-17.668-9.88c-.242-.143-.387-.383-.387-.623s.145-.48.339-.623L147.687.095a.664.664 0 01.726 0l17.909 10.312a.697.697 0 01.339.623l.048 22.398c0 .24-.145.48-.387.623L142.459 47.29c0 .096-.097.096-.242.096zm-16.603-32.662l16.942 9.448c.242.144.387.384.387.624v20.623l22.411-12.422-.048-21.582-17.184-9.88-22.508 13.189z" fill="#DF0112"/><path d="M142.217 108.058v-21.87l24.008-14.294.049 22.399-24.057 13.765z" fill="#fff"/><path d="M142.217 108.777c-.145 0-.242-.048-.387-.096-.242-.144-.388-.384-.388-.623v-21.87c0-.24.146-.48.339-.624L165.79 71.27a.664.664 0 01.726 0c.242.144.387.384.387.623l.048 22.399c0 .24-.145.48-.387.623l-24.057 13.765c-.048.096-.145.096-.29.096zm.726-22.158v20.192l22.605-12.95-.049-20.72-22.556 13.478z" fill="#DF0112"/><path d="M142.217 24.844l23.815-13.813-23.815 13.813z" fill="#5F98ED"/><path d="M142.217 25.564c-.242 0-.484-.144-.629-.336a.762.762 0 01.242-1.007l23.815-13.765a.778.778 0 011.016.24c.194.335.097.767-.242 1.007l-23.815 13.765c-.145.047-.242.096-.387.096z" fill="#DF0112"/><path d="M142.217 86.187l-18.781-10.36 24.831-14.244 17.958 10.311-24.008 14.293z" fill="#fff"/><path d="M142.217 86.906a.706.706 0 01-.339-.095l-18.781-10.408c-.242-.144-.387-.384-.387-.624s.145-.48.387-.623l24.832-14.197a.664.664 0 01.726 0l17.909 10.312a.698.698 0 01.339.623c0 .24-.145.48-.339.624l-23.96 14.293c-.145.095-.242.095-.387.095zM124.888 75.78l17.28 9.593 22.557-13.478-16.506-9.496-23.331 13.381z" fill="#DF0112"/></g><defs><clipPath id="clip0"><path fill="#fff" d="M76 0h91v120H76z"/></clipPath></defs></svg>