<svg width="1600" height="9" fill="none" xmlns="http://www.w3.org/2000/svg"><path d="M-140.5 7.13c-.833 0-1.56-.137-2.18-.41-.62-.273-1.1-.66-1.44-1.16-.333-.507-.5-1.097-.5-1.77v-.13c0-.673.167-1.263.5-1.77.34-.507.82-.897 1.44-1.17.627-.273 1.353-.41 2.18-.41.827 0 1.547.137 2.16.41.62.273 1.097.663 1.43 1.17.333.5.5 1.09.5 1.77v.13c0 .68-.167 1.273-.5 1.78-.333.5-.81.887-1.43 1.16-.613.267-1.333.4-2.16.4zm.01-.99c.587 0 1.097-.093 1.53-.28.44-.193.777-.467 1.01-.82a2.2 2.2 0 00.36-1.25v-.13c0-.473-.12-.887-.36-1.24-.233-.36-.57-.637-1.01-.83-.44-.193-.95-.29-1.53-.29-.593 0-1.113.097-1.56.29-.44.193-.783.467-1.03.82-.24.353-.36.763-.36 1.23v.14c0 .473.12.89.36 1.25.247.353.59.627 1.03.82.447.193.967.29 1.56.29zm0-.53c-.46 0-.863-.073-1.21-.22a1.907 1.907 0 01-.81-.64 1.705 1.705 0 01-.28-.97v-.13c0-.36.093-.677.28-.95.193-.28.46-.497.8-.65a2.92 2.92 0 011.19-.23c.44 0 .833.07 1.18.21.347.14.617.333.81.58.193.247.29.527.29.84v.04h-1.3v-.04c0-.147-.09-.263-.27-.35-.173-.093-.403-.14-.69-.14-.653 0-.98.23-.98.69v.13a.6.6 0 00.26.51c.18.12.427.18.74.18.3 0 .53-.043.69-.13.167-.087.25-.207.25-.36v-.04h1.3v.04c0 .32-.097.603-.29.85-.187.247-.45.44-.79.58-.34.133-.73.2-1.17.2zm15.519-.04V7h-6.4V5.64l3.3-1.84c.333-.187.583-.34.75-.46.173-.127.29-.24.35-.34a.671.671 0 00.1-.36v-.09c0-.24-.117-.423-.35-.55-.227-.133-.557-.2-.99-.2-.467 0-.827.083-1.08.25-.247.16-.37.397-.37.71v.2h-1.71v-.21c0-.807.263-1.413.79-1.82.526-.413 1.306-.62 2.34-.62.993 0 1.766.19 2.32.57.553.373.83.897.83 1.57v.1c0 .453-.157.863-.47 1.23-.307.36-.837.75-1.59 1.17l-1.12.62h3.3zm4.598 1.56c-.726 0-1.37-.13-1.93-.39a3.133 3.133 0 01-1.3-1.09c-.306-.473-.46-1.017-.46-1.63v-.59c0-.613.154-1.157.46-1.63.314-.473.747-.84 1.3-1.1.56-.26 1.204-.39 1.93-.39.727 0 1.367.13 1.92.39.554.26.98.627 1.28 1.1.307.467.46 1.01.46 1.63v.59c0 .62-.153 1.167-.46 1.64-.3.467-.726.83-1.28 1.09-.553.253-1.193.38-1.92.38zm0-1.65c1.267 0 1.9-.477 1.9-1.43v-.64c0-.473-.163-.833-.49-1.08-.326-.247-.8-.37-1.42-.37-.62 0-1.096.127-1.43.38-.326.247-.49.603-.49 1.07v.64c0 .473.164.83.49 1.07.327.24.807.36 1.44.36zm8.224 1.52h-1.77V2.56c-.266.1-.566.15-.9.15h-.99V1.06h.96c.327 0 .564-.047.71-.14.147-.1.22-.26.22-.48h1.77V7zm4.856-6.69c.753 0 1.403.107 1.95.32.546.213.963.52 1.25.92.286.393.43.867.43 1.42V4.3c0 .893-.32 1.587-.96 2.08-.64.493-1.54.74-2.7.74-1.067 0-1.894-.193-2.48-.58-.58-.393-.87-.943-.87-1.65v-.05h1.72v.05c0 .227.146.403.44.53.293.127.696.19 1.21.19.606 0 1.07-.11 1.39-.33.326-.22.49-.537.49-.95v-.18c-.494.32-1.194.48-2.1.48-1.047 0-1.854-.173-2.42-.52-.56-.353-.84-.86-.84-1.52v-.07c0-.707.303-1.25.91-1.63.606-.387 1.466-.58 2.58-.58zm-1.72 2.25c0 .227.13.393.39.5.26.107.676.16 1.25.16.453 0 .843-.037 1.17-.11.333-.08.59-.19.77-.33-.094-.647-.737-.97-1.93-.97-1.1 0-1.65.233-1.65.7v.05zM-94.938.31c.807 0 1.513.14 2.12.42.613.273 1.083.667 1.41 1.18.333.507.5 1.097.5 1.77v.08c0 .68-.167 1.273-.5 1.78-.327.507-.793.9-1.4 1.18-.607.273-1.317.41-2.13.41-.753 0-1.43-.123-2.03-.37-.6-.253-1.07-.597-1.41-1.03a2.39 2.39 0 01-.5-1.48v-.04h1.81v.04c0 .393.19.71.57.95.387.233.907.35 1.56.35.567 0 1.033-.093 1.4-.28.367-.193.613-.47.74-.83h-3.24V3h3.24c-.24-.74-.943-1.11-2.11-1.11-.427 0-.803.057-1.13.17-.327.107-.58.26-.76.46-.18.2-.27.43-.27.69v.04h-1.81v-.04c0-.553.167-1.05.5-1.49.34-.44.81-.783 1.41-1.03.6-.253 1.277-.38 2.03-.38zm9.35.13c.807 0 1.437.193 1.89.58.46.38.69.907.69 1.58v.1c0 .673-.23 1.203-.69 1.59-.453.387-1.083.58-1.89.58h-2.44V7h-1.77V.44h4.21zm-.04 2.89c.267 0 .47-.053.61-.16.14-.107.21-.263.21-.47v-.1c0-.2-.07-.353-.21-.46-.14-.107-.343-.16-.61-.16h-2.4v1.35h2.4zm9.121-2.89v1.58h-3.65V7h-1.77V.44h5.42zm6.598 6.29V7h-1.75l-.51-1.21h-3.06l-.51 1.21h-1.75v-.27l2.81-6.29h1.96l2.81 6.29zm-2.88-2.43l-.91-2.17-.91 2.17h1.82zm4.606 2.83c-.294 0-.534-.09-.72-.27a.962.962 0 01-.28-.71c0-.287.093-.517.28-.69.186-.18.426-.27.72-.27.3 0 .54.09.72.27.186.173.28.403.28.69 0 .293-.094.53-.28.71-.18.18-.42.27-.72.27zm12.163-3.48c.294.153.517.35.67.59.154.24.23.52.23.84v.1c0 .567-.223 1.013-.67 1.34-.44.32-1.05.48-1.83.48h-4.18V.44h3.98c.794 0 1.407.153 1.84.46.434.307.65.743.65 1.31v.1c0 .573-.23 1.02-.69 1.34zm-4.01-1.69V3h2.21c.247 0 .427-.037.54-.11.12-.08.18-.2.18-.36v-.1c0-.313-.24-.47-.72-.47h-2.21zm3.1 2.92c0-.327-.243-.49-.73-.49h-2.37v1.09h2.37c.487 0 .73-.167.73-.5v-.1zm6.702 2.25c-.807 0-1.517-.137-2.13-.41-.607-.28-1.077-.673-1.41-1.18-.327-.507-.49-1.1-.49-1.78v-.07c0-.68.163-1.273.49-1.78.333-.513.803-.907 1.41-1.18.613-.28 1.323-.42 2.13-.42.753 0 1.43.123 2.03.37.6.247 1.066.587 1.4 1.02.34.433.51.923.51 1.47v.08h-1.81v-.08c0-.367-.197-.66-.59-.88-.387-.22-.9-.33-1.54-.33-1.487 0-2.23.57-2.23 1.71v.12c0 .567.183.99.55 1.27.367.28.927.42 1.68.42.66 0 1.18-.107 1.56-.32.38-.213.57-.507.57-.88v-.07h1.81v.07a2.32 2.32 0 01-.51 1.47c-.334.433-.8.773-1.4 1.02-.6.24-1.277.36-2.03.36zm10.98-6.69v1.53h-4.19v.99h3.99v1.51h-3.99v1h4.19V7h-5.96V.44h5.96zm11.84 0V7h-1.77V2.02h-3.03V7h-1.77V.44h6.57zm5.629 0c.806 0 1.436.193 1.89.58.46.38.69.907.69 1.58v.1c0 .673-.23 1.203-.69 1.59-.454.387-1.084.58-1.89.58h-2.44V7h-1.77V.44h4.21zm-.04 2.89c.266 0 .47-.053.61-.16.14-.107.21-.263.21-.47v-.1c0-.2-.07-.353-.21-.46-.14-.107-.344-.16-.61-.16h-2.4v1.35h2.4zm9.742 3.4V7h-1.75l-.51-1.21h-3.06l-.51 1.21h-1.75v-.27l2.81-6.29h1.96l2.81 6.29zm-2.88-2.43l-.91-2.17-.91 2.17h1.82zm9.426-.65c.293.153.516.35.67.59.153.24.23.52.23.84v.1c0 .567-.224 1.013-.67 1.34-.44.32-1.05.48-1.83.48h-4.18V.44h3.98c.793 0 1.406.153 1.84.46.433.307.65.743.65 1.31v.1c0 .573-.23 1.02-.69 1.34zm-4.01-1.69V3h2.21c.246 0 .426-.037.54-.11.12-.08.18-.2.18-.36v-.1c0-.313-.24-.47-.72-.47h-2.21zm3.1 2.92c0-.327-.244-.49-.73-.49h-2.37v1.09h2.37c.486 0 .73-.167.73-.5v-.1zm9.57 1.85V7h-1.75l-.51-1.21h-3.06L-2.702 7h-1.75v-.27l2.81-6.29h1.96l2.81 6.29zM.248 4.3l-.91-2.17-.91 2.17h1.82zm13.263-.64c.306.147.54.33.7.55.16.22.24.473.24.76v.11c0 .647-.314 1.15-.94 1.51-.627.36-1.497.54-2.61.54-1.254 0-2.204-.24-2.85-.72-.64-.487-.96-1.2-.96-2.14V4.2h1.78v.07c0 .447.163.773.49.98.333.2.866.3 1.6.3.546 0 .963-.05 1.25-.15.293-.107.44-.26.44-.46v-.1c0-.12-.044-.21-.13-.27-.08-.067-.227-.11-.44-.13a8.312 8.312 0 00-.95-.04h-1.35V3.02h1.3c.366 0 .65-.013.85-.04.206-.033.35-.083.43-.15a.333.333 0 00.13-.28v-.1c0-.373-.554-.56-1.66-.56-.687 0-1.18.1-1.48.3-.294.193-.44.517-.44.97v.07h-1.78v-.07c0-.927.316-1.633.95-2.12.64-.487 1.57-.73 2.79-.73.706 0 1.316.08 1.83.24.513.16.906.39 1.18.69a1.5 1.5 0 01.41 1.06v.11c0 .54-.26.957-.78 1.25zm8.718 3.07V7h-1.75l-.51-1.21h-3.06L16.4 7h-1.75v-.27L17.46.44h1.96l2.81 6.29zM19.35 4.3l-.91-2.17-.91 2.17h1.82zm14.805 1.12v2.91h-1.77V7h-9.39V.44h1.77v4.98h2.42V.44h1.77v4.98h2.42V.44h1.77v4.98h1.01zm2.67-4.98v4.12l3.25-4.12h1.77V7h-1.75V2.88L36.845 7h-1.77V.44h1.75zM54.43 5.42v2.91h-1.77V7h-9.39V.44h1.77v4.98h2.42V.44h1.77v4.98h2.42V.44h1.77v4.98h1.01zM61.31.44v1.53h-4.19v.99h3.99v1.51h-3.99v1h4.19V7h-5.96V.44h5.96zm3.036 0v2.49h3.23V.44h1.77V7h-1.77V4.51h-3.23V7h-1.77V.44h1.77zm8.204 0v2.14h2.07c.833 0 1.47.183 1.91.55.446.367.67.893.67 1.58v.12c0 .7-.224 1.237-.67 1.61-.44.367-1.077.55-1.91.55h-3.84V.44h1.77zm6.92 0V7H77.7V.44h1.77zm-4.89 5.02c.546 0 .82-.207.82-.62v-.12c0-.2-.07-.35-.21-.45-.14-.107-.344-.16-.61-.16h-2.03v1.35h2.03zm20.13-2v1.52h-9.82V3.46h9.82zm9.205 3.67c-.833 0-1.56-.137-2.18-.41-.62-.273-1.1-.66-1.44-1.16-.333-.507-.5-1.097-.5-1.77v-.13c0-.673.167-1.263.5-1.77.34-.507.82-.897 1.44-1.17.627-.273 1.353-.41 2.18-.41.827 0 1.547.137 2.16.41.62.273 1.097.663 1.43 1.17.333.5.5 1.09.5 1.77v.13c0 .68-.167 1.273-.5 1.78-.333.5-.81.887-1.43 1.16-.613.267-1.333.4-2.16.4zm.01-.99c.587 0 1.097-.093 1.53-.28.44-.193.777-.467 1.01-.82a2.2 2.2 0 00.36-1.25v-.13c0-.473-.12-.887-.36-1.24-.233-.36-.57-.637-1.01-.83-.44-.193-.95-.29-1.53-.29-.593 0-1.113.097-1.56.29-.44.193-.783.467-1.03.82-.24.353-.36.763-.36 1.23v.14c0 .473.12.89.36 1.25.247.353.59.627 1.03.82.447.193.967.29 1.56.29zm0-.53c-.46 0-.863-.073-1.21-.22a1.907 1.907 0 01-.81-.64 1.705 1.705 0 01-.28-.97v-.13c0-.36.093-.677.28-.95.193-.28.46-.497.8-.65a2.92 2.92 0 011.19-.23c.44 0 .833.07 1.18.21.347.14.617.333.81.58.193.247.29.527.29.84v.04h-1.3v-.04c0-.147-.09-.263-.27-.35-.173-.093-.403-.14-.69-.14-.653 0-.98.23-.98.69v.13a.6.6 0 00.26.51c.18.12.427.18.74.18.3 0 .53-.043.69-.13.167-.087.25-.207.25-.36v-.04h1.3v.04c0 .32-.097.603-.29.85-.187.247-.45.44-.79.58-.34.133-.73.2-1.17.2zm15.519-.04V7h-6.4V5.64l3.3-1.84c.333-.187.583-.34.75-.46.173-.127.29-.24.35-.34a.671.671 0 00.1-.36v-.09c0-.24-.117-.423-.35-.55-.227-.133-.557-.2-.99-.2-.467 0-.827.083-1.08.25-.247.16-.37.397-.37.71v.2h-1.71v-.21c0-.807.263-1.413.79-1.82.526-.413 1.306-.62 2.34-.62.993 0 1.766.19 2.32.57.553.373.83.897.83 1.57v.1c0 .453-.157.863-.47 1.23-.307.36-.837.75-1.59 1.17l-1.12.62h3.3zm4.598 1.56c-.726 0-1.37-.13-1.93-.39a3.133 3.133 0 01-1.3-1.09c-.306-.473-.46-1.017-.46-1.63v-.59c0-.613.154-1.157.46-1.63.314-.473.747-.84 1.3-1.1.56-.26 1.204-.39 1.93-.39.727 0 1.367.13 1.92.39.554.26.98.627 1.28 1.1.307.467.46 1.01.46 1.63v.59c0 .62-.153 1.167-.46 1.64-.3.467-.726.83-1.28 1.09-.553.253-1.193.38-1.92.38zm0-1.65c1.267 0 1.9-.477 1.9-1.43v-.64c0-.473-.163-.833-.49-1.08-.326-.247-.8-.37-1.42-.37-.62 0-1.096.127-1.43.38-.326.247-.49.603-.49 1.07v.64c0 .473.164.83.49 1.07.327.24.807.36 1.44.36zM132.265 7h-1.77V2.56c-.266.1-.566.15-.9.15h-.99V1.06h.96c.327 0 .564-.047.71-.14.147-.1.22-.26.22-.48h1.77V7zm4.856-6.69c.753 0 1.403.107 1.95.32.546.213.963.52 1.25.92.286.393.43.867.43 1.42V4.3c0 .893-.32 1.587-.96 2.08-.64.493-1.54.74-2.7.74-1.067 0-1.894-.193-2.48-.58-.58-.393-.87-.943-.87-1.65v-.05h1.72v.05c0 .227.146.403.44.53.293.127.696.19 1.21.19.606 0 1.07-.11 1.39-.33.326-.22.49-.537.49-.95v-.18c-.494.32-1.194.48-2.1.48-1.047 0-1.854-.173-2.42-.52-.56-.353-.84-.86-.84-1.52v-.07c0-.707.303-1.25.91-1.63.606-.387 1.466-.58 2.58-.58zm-1.72 2.25c0 .227.13.393.39.5.26.107.676.16 1.25.16.453 0 .843-.037 1.17-.11.333-.08.59-.19.77-.33-.094-.647-.737-.97-1.93-.97-1.1 0-1.65.233-1.65.7v.05zM149.476.31c.807 0 1.513.14 2.12.42.613.273 1.083.667 1.41 1.18.333.507.5 1.097.5 1.77v.08c0 .68-.167 1.273-.5 1.78-.327.507-.793.9-1.4 1.18-.607.273-1.317.41-2.13.41-.753 0-1.43-.123-2.03-.37-.6-.253-1.07-.597-1.41-1.03-.333-.44-.5-.933-.5-1.48v-.04h1.81v.04c0 .393.19.71.57.95.387.233.907.35 1.56.35.567 0 1.033-.093 1.4-.28.367-.193.613-.47.74-.83h-3.24V3h3.24c-.24-.74-.943-1.11-2.11-1.11-.427 0-.803.057-1.13.17-.327.107-.58.26-.76.46-.18.2-.27.43-.27.69v.04h-1.81v-.04c0-.553.167-1.05.5-1.49.34-.44.81-.783 1.41-1.03.6-.253 1.277-.38 2.03-.38zm9.35.13c.807 0 1.437.193 1.89.58.46.38.69.907.69 1.58v.1c0 .673-.23 1.203-.69 1.59-.453.387-1.083.58-1.89.58h-2.44V7h-1.77V.44h4.21zm-.04 2.89c.267 0 .47-.053.61-.16.14-.107.21-.263.21-.47v-.1c0-.2-.07-.353-.21-.46-.14-.107-.343-.16-.61-.16h-2.4v1.35h2.4zm9.121-2.89v1.58h-3.65V7h-1.77V.44h5.42zm6.598 6.29V7h-1.75l-.51-1.21h-3.06l-.51 1.21h-1.75v-.27l2.81-6.29h1.96l2.81 6.29zm-2.88-2.43l-.91-2.17-.91 2.17h1.82zm4.606 2.83c-.294 0-.534-.09-.72-.27a.96.96 0 01-.28-.71c0-.287.093-.517.28-.69.186-.18.426-.27.72-.27.3 0 .54.09.72.27.186.173.28.403.28.69 0 .293-.094.53-.28.71-.18.18-.42.27-.72.27zm12.163-3.48c.294.153.517.35.67.59.154.24.23.52.23.84v.1c0 .567-.223 1.013-.67 1.34-.44.32-1.05.48-1.83.48h-4.18V.44h3.98c.794 0 1.407.153 1.84.46.434.307.65.743.65 1.31v.1c0 .573-.23 1.02-.69 1.34zm-4.01-1.69V3h2.21c.247 0 .427-.037.54-.11.12-.08.18-.2.18-.36v-.1c0-.313-.24-.47-.72-.47h-2.21zm3.1 2.92c0-.327-.243-.49-.73-.49h-2.37v1.09h2.37c.487 0 .73-.167.73-.5v-.1zm6.702 2.25c-.807 0-1.517-.137-2.13-.41-.607-.28-1.077-.673-1.41-1.18-.327-.507-.49-1.1-.49-1.78v-.07c0-.68.163-1.273.49-1.78.333-.513.803-.907 1.41-1.18.613-.28 1.323-.42 2.13-.42.753 0 1.43.123 2.03.37.6.247 1.067.587 1.4 1.02.34.433.51.923.51 1.47v.08h-1.81v-.08c0-.367-.197-.66-.59-.88-.387-.22-.9-.33-1.54-.33-1.487 0-2.23.57-2.23 1.71v.12c0 .567.183.99.55 1.27.367.28.927.42 1.68.42.66 0 1.18-.107 1.56-.32.38-.213.57-.507.57-.88v-.07h1.81v.07a2.32 2.32 0 01-.51 1.47c-.333.433-.8.773-1.4 1.02-.6.24-1.277.36-2.03.36zm10.98-6.69v1.53h-4.19v.99h3.99v1.51h-3.99v1h4.19V7h-5.96V.44h5.96zm11.841 0V7h-1.77V2.02h-3.03V7h-1.77V.44h6.57zm5.628 0c.807 0 1.437.193 1.89.58.46.38.69.907.69 1.58v.1c0 .673-.23 1.203-.69 1.59-.453.387-1.083.58-1.89.58h-2.44V7h-1.77V.44h4.21zm-.04 2.89c.267 0 .47-.053.61-.16.14-.107.21-.263.21-.47v-.1c0-.2-.07-.353-.21-.46-.14-.107-.343-.16-.61-.16h-2.4v1.35h2.4zm9.742 3.4V7h-1.75l-.51-1.21h-3.06l-.51 1.21h-1.75v-.27l2.81-6.29h1.96l2.81 6.29zm-2.88-2.43l-.91-2.17-.91 2.17h1.82zm9.426-.65c.293.153.516.35.67.59.153.24.23.52.23.84v.1c0 .567-.224 1.013-.67 1.34-.44.32-1.05.48-1.83.48h-4.18V.44h3.98c.793 0 1.406.153 1.84.46.433.307.65.743.65 1.31v.1c0 .573-.23 1.02-.69 1.34zm-4.01-1.69V3h2.21c.246 0 .426-.037.54-.11.12-.08.18-.2.18-.36v-.1c0-.313-.24-.47-.72-.47h-2.21zm3.1 2.92c0-.327-.244-.49-.73-.49h-2.37v1.09h2.37c.486 0 .73-.167.73-.5v-.1zm9.569 1.85V7h-1.75l-.51-1.21h-3.06l-.51 1.21h-1.75v-.27l2.81-6.29h1.96l2.81 6.29zm-2.88-2.43l-.91-2.17-.91 2.17h1.82zm13.264-.64c.306.147.54.33.7.55.16.22.24.473.24.76v.11c0 .647-.314 1.15-.94 1.51-.627.36-1.497.54-2.61.54-1.254 0-2.204-.24-2.85-.72-.64-.487-.96-1.2-.96-2.14V4.2h1.78v.07c0 .447.163.773.49.98.333.2.866.3 1.6.3.546 0 .963-.05 1.25-.15.293-.107.44-.26.44-.46v-.1c0-.12-.044-.21-.13-.27-.08-.067-.227-.11-.44-.13a8.319 8.319 0 00-.95-.04h-1.35V3.02h1.3c.366 0 .65-.013.85-.04.206-.033.35-.083.43-.15a.335.335 0 00.13-.28v-.1c0-.373-.554-.56-1.66-.56-.687 0-1.18.1-1.48.3-.294.193-.44.517-.44.97v.07h-1.78v-.07c0-.927.316-1.633.95-2.12.64-.487 1.57-.73 2.79-.73.706 0 1.316.08 1.83.24.513.16.906.39 1.18.69.273.293.41.647.41 1.06v.11c0 .54-.26.957-.78 1.25zm8.718 3.07V7h-1.75l-.51-1.21h-3.06l-.51 1.21h-1.75v-.27l2.81-6.29h1.96l2.81 6.29zm-2.88-2.43l-.91-2.17-.91 2.17h1.82zm14.805 1.12v2.91h-1.77V7h-9.39V.44h1.77v4.98h2.42V.44h1.77v4.98h2.42V.44h1.77v4.98h1.01zm2.67-4.98v4.12l3.25-4.12h1.77V7h-1.75V2.88L281.259 7h-1.77V.44h1.75zm17.604 4.98v2.91h-1.77V7h-9.39V.44h1.77v4.98h2.42V.44h1.77v4.98h2.42V.44h1.77v4.98h1.01zm6.88-4.98v1.53h-4.19v.99h3.99v1.51h-3.99v1h4.19V7h-5.96V.44h5.96zm3.036 0v2.49h3.23V.44h1.77V7h-1.77V4.51h-3.23V7h-1.77V.44h1.77zm8.204 0v2.14h2.07c.833 0 1.47.183 1.91.55.446.367.67.893.67 1.58v.12c0 .7-.224 1.237-.67 1.61-.44.367-1.077.55-1.91.55h-3.84V.44h1.77zm6.92 0V7h-1.77V.44h1.77zm-4.89 5.02c.546 0 .82-.207.82-.62v-.12c0-.2-.07-.35-.21-.45-.14-.107-.344-.16-.61-.16h-2.03v1.35h2.03zm20.131-2v1.52h-9.82V3.46h9.82zm9.204 3.67c-.833 0-1.56-.137-2.18-.41-.62-.273-1.1-.66-1.44-1.16-.333-.507-.5-1.097-.5-1.77v-.13c0-.673.167-1.263.5-1.77.34-.507.82-.897 1.44-1.17.627-.273 1.353-.41 2.18-.41.827 0 1.547.137 2.16.41.62.273 1.097.663 1.43 1.17.333.5.5 1.09.5 1.77v.13c0 .68-.167 1.273-.5 1.78-.333.5-.81.887-1.43 1.16-.613.267-1.333.4-2.16.4zm.01-.99c.587 0 1.097-.093 1.53-.28.44-.193.777-.467 1.01-.82a2.2 2.2 0 00.36-1.25v-.13c0-.473-.12-.887-.36-1.24-.233-.36-.57-.637-1.01-.83-.44-.193-.95-.29-1.53-.29-.593 0-1.113.097-1.56.29-.44.193-.783.467-1.03.82-.24.353-.36.763-.36 1.23v.14c0 .473.12.89.36 1.25.247.353.59.627 1.03.82.447.193.967.29 1.56.29zm0-.53c-.46 0-.863-.073-1.21-.22a1.907 1.907 0 01-.81-.64 1.705 1.705 0 01-.28-.97v-.13c0-.36.093-.677.28-.95.193-.28.46-.497.8-.65a2.92 2.92 0 011.19-.23c.44 0 .833.07 1.18.21.347.14.617.333.81.58.193.247.29.527.29.84v.04h-1.3v-.04c0-.147-.09-.263-.27-.35-.173-.093-.403-.14-.69-.14-.653 0-.98.23-.98.69v.13a.6.6 0 00.26.51c.18.12.427.18.74.18.3 0 .53-.043.69-.13.167-.087.25-.207.25-.36v-.04h1.3v.04c0 .32-.097.603-.29.85-.187.247-.45.44-.79.58-.34.133-.73.2-1.17.2zm15.519-.04V7h-6.4V5.64l3.3-1.84c.333-.187.583-.34.75-.46.173-.127.29-.24.35-.34a.671.671 0 00.1-.36v-.09c0-.24-.117-.423-.35-.55-.227-.133-.557-.2-.99-.2-.467 0-.827.083-1.08.25-.247.16-.37.397-.37.71v.2h-1.71v-.21c0-.807.263-1.413.79-1.82.526-.413 1.306-.62 2.34-.62.993 0 1.766.19 2.32.57.553.373.83.897.83 1.57v.1c0 .453-.157.863-.47 1.23-.307.36-.837.75-1.59 1.17l-1.12.62h3.3zm4.598 1.56c-.726 0-1.37-.13-1.93-.39a3.133 3.133 0 01-1.3-1.09c-.306-.473-.46-1.017-.46-1.63v-.59c0-.613.154-1.157.46-1.63.314-.473.747-.84 1.3-1.1.56-.26 1.204-.39 1.93-.39.727 0 1.367.13 1.92.39.554.26.98.627 1.28 1.1.307.467.46 1.01.46 1.63v.59c0 .62-.153 1.167-.46 1.64-.3.467-.726.83-1.28 1.09-.553.253-1.193.38-1.92.38zm0-1.65c1.267 0 1.9-.477 1.9-1.43v-.64c0-.473-.163-.833-.49-1.08-.326-.247-.8-.37-1.42-.37-.62 0-1.096.127-1.43.38-.326.247-.49.603-.49 1.07v.64c0 .473.164.83.49 1.07.327.24.807.36 1.44.36zM376.679 7h-1.77V2.56c-.266.1-.566.15-.9.15h-.99V1.06h.96c.327 0 .564-.047.71-.14.147-.1.22-.26.22-.48h1.77V7zm4.856-6.69c.753 0 1.403.107 1.95.32.547.213.963.52 1.25.92.287.393.43.867.43 1.42V4.3c0 .893-.32 1.587-.96 2.08-.64.493-1.54.74-2.7.74-1.067 0-1.893-.193-2.48-.58-.58-.393-.87-.943-.87-1.65v-.05h1.72v.05c0 .227.147.403.44.53.293.127.697.19 1.21.19.607 0 1.07-.11 1.39-.33.327-.22.49-.537.49-.95v-.18c-.493.32-1.193.48-2.1.48-1.047 0-1.853-.173-2.42-.52-.56-.353-.84-.86-.84-1.52v-.07c0-.707.303-1.25.91-1.63.607-.387 1.467-.58 2.58-.58zm-1.72 2.25c0 .227.13.393.39.5.26.107.677.16 1.25.16.453 0 .843-.037 1.17-.11.333-.08.59-.19.77-.33-.093-.647-.737-.97-1.93-.97-1.1 0-1.65.233-1.65.7v.05zM393.89.31c.807 0 1.513.14 2.12.42.613.273 1.083.667 1.41 1.18.333.507.5 1.097.5 1.77v.08c0 .68-.167 1.273-.5 1.78-.327.507-.793.9-1.4 1.18-.607.273-1.317.41-2.13.41-.753 0-1.43-.123-2.03-.37-.6-.253-1.07-.597-1.41-1.03-.333-.44-.5-.933-.5-1.48v-.04h1.81v.04c0 .393.19.71.57.95.387.233.907.35 1.56.35.567 0 1.033-.093 1.4-.28.367-.193.613-.47.74-.83h-3.24V3h3.24c-.24-.74-.943-1.11-2.11-1.11-.427 0-.803.057-1.13.17-.327.107-.58.26-.76.46-.18.2-.27.43-.27.69v.04h-1.81v-.04c0-.553.167-1.05.5-1.49.34-.44.81-.783 1.41-1.03.6-.253 1.277-.38 2.03-.38zm9.35.13c.807 0 1.437.193 1.89.58.46.38.69.907.69 1.58v.1c0 .673-.23 1.203-.69 1.59-.453.387-1.083.58-1.89.58h-2.44V7h-1.77V.44h4.21zm-.04 2.89c.267 0 .47-.053.61-.16.14-.107.21-.263.21-.47v-.1c0-.2-.07-.353-.21-.46-.14-.107-.343-.16-.61-.16h-2.4v1.35h2.4zm9.121-2.89v1.58h-3.65V7h-1.77V.44h5.42zm6.598 6.29V7h-1.75l-.51-1.21h-3.06l-.51 1.21h-1.75v-.27l2.81-6.29h1.96l2.81 6.29zm-2.88-2.43l-.91-2.17-.91 2.17h1.82zm4.606 2.83c-.294 0-.534-.09-.72-.27a.96.96 0 01-.28-.71c0-.287.093-.517.28-.69.186-.18.426-.27.72-.27.3 0 .54.09.72.27.186.173.28.403.28.69 0 .293-.094.53-.28.71-.18.18-.42.27-.72.27zm12.163-3.48c.294.153.517.35.67.59.154.24.23.52.23.84v.1c0 .567-.223 1.013-.67 1.34-.44.32-1.05.48-1.83.48h-4.18V.44h3.98c.794 0 1.407.153 1.84.46.434.307.65.743.65 1.31v.1c0 .573-.23 1.02-.69 1.34zm-4.01-1.69V3h2.21c.247 0 .427-.037.54-.11.12-.08.18-.2.18-.36v-.1c0-.313-.24-.47-.72-.47h-2.21zm3.1 2.92c0-.327-.243-.49-.73-.49h-2.37v1.09h2.37c.487 0 .73-.167.73-.5v-.1zm6.702 2.25c-.807 0-1.517-.137-2.13-.41-.607-.28-1.077-.673-1.41-1.18-.327-.507-.49-1.1-.49-1.78v-.07c0-.68.163-1.273.49-1.78.333-.513.803-.907 1.41-1.18.613-.28 1.323-.42 2.13-.42.753 0 1.43.123 2.03.37.6.247 1.067.587 1.4 1.02.34.433.51.923.51 1.47v.08h-1.81v-.08c0-.367-.197-.66-.59-.88-.387-.22-.9-.33-1.54-.33-1.487 0-2.23.57-2.23 1.71v.12c0 .567.183.99.55 1.27.367.28.927.42 1.68.42.66 0 1.18-.107 1.56-.32.38-.213.57-.507.57-.88v-.07h1.81v.07a2.32 2.32 0 01-.51 1.47c-.333.433-.8.773-1.4 1.02-.6.24-1.277.36-2.03.36zM449.58.44v1.53h-4.19v.99h3.99v1.51h-3.99v1h4.19V7h-5.96V.44h5.96zm11.841 0V7h-1.77V2.02h-3.03V7h-1.77V.44h6.57zm5.628 0c.807 0 1.437.193 1.89.58.46.38.69.907.69 1.58v.1c0 .673-.23 1.203-.69 1.59-.453.387-1.083.58-1.89.58h-2.44V7h-1.77V.44h4.21zm-.04 2.89c.267 0 .47-.053.61-.16.14-.107.21-.263.21-.47v-.1c0-.2-.07-.353-.21-.46-.14-.107-.343-.16-.61-.16h-2.4v1.35h2.4zm9.742 3.4V7h-1.75l-.51-1.21h-3.06l-.51 1.21h-1.75v-.27l2.81-6.29h1.96l2.81 6.29zm-2.88-2.43l-.91-2.17-.91 2.17h1.82zm9.426-.65c.293.153.516.35.67.59.153.24.23.52.23.84v.1c0 .567-.224 1.013-.67 1.34-.44.32-1.05.48-1.83.48h-4.18V.44h3.98c.793 0 1.406.153 1.84.46.433.307.65.743.65 1.31v.1c0 .573-.23 1.02-.69 1.34zm-4.01-1.69V3h2.21c.246 0 .426-.037.54-.11.12-.08.18-.2.18-.36v-.1c0-.313-.24-.47-.72-.47h-2.21zm3.1 2.92c0-.327-.244-.49-.73-.49h-2.37v1.09h2.37c.486 0 .73-.167.73-.5v-.1zm9.569 1.85V7h-1.75l-.51-1.21h-3.06l-.51 1.21h-1.75v-.27l2.81-6.29h1.96l2.81 6.29zm-2.88-2.43l-.91-2.17-.91 2.17h1.82zm13.264-.64c.306.147.54.33.7.55.16.22.24.473.24.76v.11c0 .647-.314 1.15-.94 1.51-.627.36-1.497.54-2.61.54-1.254 0-2.204-.24-2.85-.72-.64-.487-.96-1.2-.96-2.14V4.2h1.78v.07c0 .447.163.773.49.98.333.2.866.3 1.6.3.546 0 .963-.05 1.25-.15.293-.107.44-.26.44-.46v-.1c0-.12-.044-.21-.13-.27-.08-.067-.227-.11-.44-.13a8.319 8.319 0 00-.95-.04h-1.35V3.02h1.3c.366 0 .65-.013.85-.04.206-.033.35-.083.43-.15a.335.335 0 00.13-.28v-.1c0-.373-.554-.56-1.66-.56-.687 0-1.18.1-1.48.3-.294.193-.44.517-.44.97v.07h-1.78v-.07c0-.927.316-1.633.95-2.12.64-.487 1.57-.73 2.79-.73.706 0 1.316.08 1.83.24.513.16.906.39 1.18.69.273.293.41.647.41 1.06v.11c0 .54-.26.957-.78 1.25zm8.718 3.07V7h-1.75l-.51-1.21h-3.06l-.51 1.21h-1.75v-.27l2.81-6.29h1.96l2.81 6.29zm-2.88-2.43l-.91-2.17-.91 2.17h1.82zm14.805 1.12v2.91h-1.77V7h-9.39V.44h1.77v4.98h2.42V.44h1.77v4.98h2.42V.44h1.77v4.98h1.01zm2.67-4.98v4.12l3.25-4.12h1.77V7h-1.75V2.88L525.673 7h-1.77V.44h1.75zm17.604 4.98v2.91h-1.77V7h-9.39V.44h1.77v4.98h2.42V.44h1.77v4.98h2.42V.44h1.77v4.98h1.01zm6.88-4.98v1.53h-4.19v.99h3.99v1.51h-3.99v1h4.19V7h-5.96V.44h5.96zm3.036 0v2.49h3.23V.44h1.77V7h-1.77V4.51h-3.23V7h-1.77V.44h1.77zm8.204 0v2.14h2.07c.833 0 1.47.183 1.91.55.446.367.67.893.67 1.58v.12c0 .7-.224 1.237-.67 1.61-.44.367-1.077.55-1.91.55h-3.84V.44h1.77zm6.92 0V7h-1.77V.44h1.77zm-4.89 5.02c.546 0 .82-.207.82-.62v-.12c0-.2-.07-.35-.21-.45-.14-.107-.344-.16-.61-.16h-2.03v1.35h2.03zm20.131-2v1.52h-9.82V3.46h9.82zm9.204 3.67c-.833 0-1.56-.137-2.18-.41-.62-.273-1.1-.66-1.44-1.16-.333-.507-.5-1.097-.5-1.77v-.13c0-.673.167-1.263.5-1.77.34-.507.82-.897 1.44-1.17.627-.273 1.354-.41 2.18-.41.827 0 1.547.137 2.16.41.62.273 1.097.663 1.43 1.17.334.5.5 1.09.5 1.77v.13c0 .68-.166 1.273-.5 1.78-.333.5-.81.887-1.43 1.16-.613.267-1.333.4-2.16.4zm.01-.99c.587 0 1.097-.093 1.53-.28.44-.193.777-.467 1.01-.82a2.2 2.2 0 00.36-1.25v-.13c0-.473-.12-.887-.36-1.24-.233-.36-.57-.637-1.01-.83-.44-.193-.95-.29-1.53-.29-.593 0-1.113.097-1.56.29-.44.193-.783.467-1.03.82-.24.353-.36.763-.36 1.23v.14c0 .473.12.89.36 1.25.247.353.59.627 1.03.82.447.193.967.29 1.56.29zm0-.53c-.46 0-.863-.073-1.21-.22a1.919 1.919 0 01-.81-.64 1.713 1.713 0 01-.28-.97v-.13c0-.36.094-.677.28-.95.194-.28.46-.497.8-.65.347-.153.744-.23 1.19-.23.44 0 .834.07 1.18.21.347.14.617.333.81.58.194.247.29.527.29.84v.04h-1.3v-.04c0-.147-.09-.263-.27-.35-.173-.093-.403-.14-.69-.14-.653 0-.98.23-.98.69v.13a.6.6 0 00.26.51c.18.12.427.18.74.18.3 0 .53-.043.69-.13.167-.087.25-.207.25-.36v-.04h1.3v.04c0 .32-.096.603-.29.85-.186.247-.45.44-.79.58-.34.133-.73.2-1.17.2zm15.519-.04V7h-6.4V5.64l3.3-1.84c.333-.187.583-.34.75-.46.173-.127.29-.24.35-.34a.671.671 0 00.1-.36v-.09c0-.24-.117-.423-.35-.55-.227-.133-.557-.2-.99-.2-.467 0-.827.083-1.08.25-.247.16-.37.397-.37.71v.2h-1.71v-.21c0-.807.263-1.413.79-1.82.526-.413 1.306-.62 2.34-.62.993 0 1.766.19 2.32.57.553.373.83.897.83 1.57v.1c0 .453-.157.863-.47 1.23-.307.36-.837.75-1.59 1.17l-1.12.62h3.3zm4.599 1.56c-.727 0-1.37-.13-1.93-.39a3.12 3.12 0 01-1.3-1.09c-.307-.473-.46-1.017-.46-1.63v-.59c0-.613.153-1.157.46-1.63.313-.473.746-.84 1.3-1.1.56-.26 1.203-.39 1.93-.39.726 0 1.366.13 1.92.39.553.26.98.627 1.28 1.1.306.467.46 1.01.46 1.63v.59c0 .62-.154 1.167-.46 1.64-.3.467-.727.83-1.28 1.09-.554.253-1.194.38-1.92.38zm0-1.65c1.266 0 1.9-.477 1.9-1.43v-.64c0-.473-.164-.833-.49-1.08-.327-.247-.8-.37-1.42-.37-.62 0-1.097.127-1.43.38-.327.247-.49.603-.49 1.07v.64c0 .473.163.83.49 1.07.326.24.806.36 1.44.36zM621.093 7h-1.77V2.56c-.266.1-.566.15-.9.15h-.99V1.06h.96c.327 0 .564-.047.71-.14.147-.1.22-.26.22-.48h1.77V7zm4.856-6.69c.753 0 1.403.107 1.95.32.547.213.963.52 1.25.92.287.393.43.867.43 1.42V4.3c0 .893-.32 1.587-.96 2.08-.64.493-1.54.74-2.7.74-1.067 0-1.893-.193-2.48-.58-.58-.393-.87-.943-.87-1.65v-.05h1.72v.05c0 .227.147.403.44.53.293.127.697.19 1.21.19.607 0 1.07-.11 1.39-.33.327-.22.49-.537.49-.95v-.18c-.493.32-1.193.48-2.1.48-1.047 0-1.853-.173-2.42-.52-.56-.353-.84-.86-.84-1.52v-.07c0-.707.303-1.25.91-1.63.607-.387 1.467-.58 2.58-.58zm-1.72 2.25c0 .227.13.393.39.5.26.107.677.16 1.25.16.453 0 .843-.037 1.17-.11.333-.08.59-.19.77-.33-.093-.647-.737-.97-1.93-.97-1.1 0-1.65.233-1.65.7v.05zM638.304.31c.807 0 1.513.14 2.12.42.613.273 1.083.667 1.41 1.18.333.507.5 1.097.5 1.77v.08c0 .68-.167 1.273-.5 1.78-.327.507-.793.9-1.4 1.18-.607.273-1.317.41-2.13.41-.753 0-1.43-.123-2.03-.37-.6-.253-1.07-.597-1.41-1.03-.333-.44-.5-.933-.5-1.48v-.04h1.81v.04c0 .393.19.71.57.95.387.233.907.35 1.56.35.567 0 1.033-.093 1.4-.28.367-.193.613-.47.74-.83h-3.24V3h3.24c-.24-.74-.943-1.11-2.11-1.11-.427 0-.803.057-1.13.17-.327.107-.58.26-.76.46-.18.2-.27.43-.27.69v.04h-1.81v-.04c0-.553.167-1.05.5-1.49.34-.44.81-.783 1.41-1.03.6-.253 1.277-.38 2.03-.38zm9.35.13c.807 0 1.437.193 1.89.58.46.38.69.907.69 1.58v.1c0 .673-.23 1.203-.69 1.59-.453.387-1.083.58-1.89.58h-2.44V7h-1.77V.44h4.21zm-.04 2.89c.267 0 .47-.053.61-.16.14-.107.21-.263.21-.47v-.1c0-.2-.07-.353-.21-.46-.14-.107-.343-.16-.61-.16h-2.4v1.35h2.4zm9.121-2.89v1.58h-3.65V7h-1.77V.44h5.42zm6.598 6.29V7h-1.75l-.51-1.21h-3.06l-.51 1.21h-1.75v-.27l2.81-6.29h1.96l2.81 6.29zm-2.88-2.43l-.91-2.17-.91 2.17h1.82zm4.606 2.83c-.294 0-.534-.09-.72-.27a.96.96 0 01-.28-.71c0-.287.093-.517.28-.69.186-.18.426-.27.72-.27.3 0 .54.09.72.27.186.173.28.403.28.69 0 .293-.094.53-.28.71-.18.18-.42.27-.72.27zm12.163-3.48c.294.153.517.35.67.59.154.24.23.52.23.84v.1c0 .567-.223 1.013-.67 1.34-.44.32-1.05.48-1.83.48h-4.18V.44h3.98c.794 0 1.407.153 1.84.46.434.307.65.743.65 1.31v.1c0 .573-.23 1.02-.69 1.34zm-4.01-1.69V3h2.21c.247 0 .427-.037.54-.11.12-.08.18-.2.18-.36v-.1c0-.313-.24-.47-.72-.47h-2.21zm3.1 2.92c0-.327-.243-.49-.73-.49h-2.37v1.09h2.37c.487 0 .73-.167.73-.5v-.1zm6.702 2.25c-.807 0-1.517-.137-2.13-.41-.607-.28-1.077-.673-1.41-1.18-.327-.507-.49-1.1-.49-1.78v-.07c0-.68.163-1.273.49-1.78.333-.513.803-.907 1.41-1.18.613-.28 1.323-.42 2.13-.42.753 0 1.43.123 2.03.37.6.247 1.067.587 1.4 1.02.34.433.51.923.51 1.47v.08h-1.81v-.08c0-.367-.197-.66-.59-.88-.387-.22-.9-.33-1.54-.33-1.487 0-2.23.57-2.23 1.71v.12c0 .567.183.99.55 1.27.367.28.927.42 1.68.42.66 0 1.18-.107 1.56-.32.38-.213.57-.507.57-.88v-.07h1.81v.07a2.32 2.32 0 01-.51 1.47c-.333.433-.8.773-1.4 1.02-.6.24-1.277.36-2.03.36zm10.98-6.69v1.53h-4.19v.99h3.99v1.51h-3.99v1h4.19V7h-5.96V.44h5.96zm11.841 0V7h-1.77V2.02h-3.03V7h-1.77V.44h6.57zm5.628 0c.807 0 1.437.193 1.89.58.46.38.69.907.69 1.58v.1c0 .673-.23 1.203-.69 1.59-.453.387-1.083.58-1.89.58h-2.44V7h-1.77V.44h4.21zm-.04 2.89c.267 0 .47-.053.61-.16.14-.107.21-.263.21-.47v-.1c0-.2-.07-.353-.21-.46-.14-.107-.343-.16-.61-.16h-2.4v1.35h2.4zm9.742 3.4V7h-1.75l-.51-1.21h-3.06l-.51 1.21h-1.75v-.27l2.81-6.29h1.96l2.81 6.29zm-2.88-2.43l-.91-2.17-.91 2.17h1.82zm9.426-.65c.293.153.516.35.67.59.153.24.23.52.23.84v.1c0 .567-.224 1.013-.67 1.34-.44.32-1.05.48-1.83.48h-4.18V.44h3.98c.793 0 1.406.153 1.84.46.433.307.65.743.65 1.31v.1c0 .573-.23 1.02-.69 1.34zm-4.01-1.69V3h2.21c.246 0 .426-.037.54-.11.12-.08.18-.2.18-.36v-.1c0-.313-.24-.47-.72-.47h-2.21zm3.1 2.92c0-.327-.244-.49-.73-.49h-2.37v1.09h2.37c.486 0 .73-.167.73-.5v-.1zm9.569 1.85V7h-1.75l-.51-1.21h-3.06L730.54 7h-1.75v-.27L731.6.44h1.96l2.81 6.29zm-2.88-2.43l-.91-2.17-.91 2.17h1.82zm13.264-.64c.306.147.54.33.7.55.16.22.24.473.24.76v.11c0 .647-.314 1.15-.94 1.51-.627.36-1.497.54-2.61.54-1.254 0-2.204-.24-2.85-.72-.64-.487-.96-1.2-.96-2.14V4.2h1.78v.07c0 .447.163.773.49.98.333.2.866.3 1.6.3.546 0 .963-.05 1.25-.15.293-.107.44-.26.44-.46v-.1c0-.12-.044-.21-.13-.27-.08-.067-.227-.11-.44-.13a8.319 8.319 0 00-.95-.04h-1.35V3.02h1.3c.366 0 .65-.013.85-.04.206-.033.35-.083.43-.15a.335.335 0 00.13-.28v-.1c0-.373-.554-.56-1.66-.56-.687 0-1.18.1-1.48.3-.294.193-.44.517-.44.97v.07h-1.78v-.07c0-.927.316-1.633.95-2.12.64-.487 1.57-.73 2.79-.73.706 0 1.316.08 1.83.24.513.16.906.39 1.18.69.273.293.41.647.41 1.06v.11c0 .54-.26.957-.78 1.25zm8.718 3.07V7h-1.75l-.51-1.21h-3.06l-.51 1.21h-1.75v-.27l2.81-6.29h1.96l2.81 6.29zm-2.88-2.43l-.91-2.17-.91 2.17h1.82zm14.805 1.12v2.91h-1.77V7h-9.39V.44h1.77v4.98h2.42V.44h1.77v4.98h2.42V.44h1.77v4.98h1.01zm2.67-4.98v4.12l3.25-4.12h1.77V7h-1.75V2.88L770.087 7h-1.77V.44h1.75zm17.604 4.98v2.91h-1.77V7h-9.39V.44h1.77v4.98h2.42V.44h1.77v4.98h2.42V.44h1.77v4.98h1.01zm6.88-4.98v1.53h-4.19v.99h3.99v1.51h-3.99v1h4.19V7h-5.96V.44h5.96zm3.036 0v2.49h3.23V.44h1.77V7h-1.77V4.51h-3.23V7h-1.77V.44h1.77zm8.204 0v2.14h2.07c.833 0 1.47.183 1.91.55.446.367.67.893.67 1.58v.12c0 .7-.224 1.237-.67 1.61-.44.367-1.077.55-1.91.55h-3.84V.44h1.77zm6.92 0V7h-1.77V.44h1.77zm-4.89 5.02c.546 0 .82-.207.82-.62v-.12c0-.2-.07-.35-.21-.45-.14-.107-.344-.16-.61-.16h-2.03v1.35h2.03zm20.131-2v1.52h-9.82V3.46h9.82zm9.204 3.67c-.833 0-1.56-.137-2.18-.41-.62-.273-1.1-.66-1.44-1.16-.333-.507-.5-1.097-.5-1.77v-.13c0-.673.167-1.263.5-1.77.34-.507.82-.897 1.44-1.17.627-.273 1.354-.41 2.18-.41.827 0 1.547.137 2.16.41.62.273 1.097.663 1.43 1.17.334.5.5 1.09.5 1.77v.13c0 .68-.166 1.273-.5 1.78-.333.5-.81.887-1.43 1.16-.613.267-1.333.4-2.16.4zm.01-.99c.587 0 1.097-.093 1.53-.28.44-.193.777-.467 1.01-.82a2.2 2.2 0 00.36-1.25v-.13c0-.473-.12-.887-.36-1.24-.233-.36-.57-.637-1.01-.83-.44-.193-.95-.29-1.53-.29-.593 0-1.113.097-1.56.29-.44.193-.783.467-1.03.82-.24.353-.36.763-.36 1.23v.14c0 .473.12.89.36 1.25.247.353.59.627 1.03.82.447.193.967.29 1.56.29zm0-.53c-.46 0-.863-.073-1.21-.22a1.919 1.919 0 01-.81-.64 1.713 1.713 0 01-.28-.97v-.13c0-.36.094-.677.28-.95.194-.28.46-.497.8-.65.347-.153.744-.23 1.19-.23.44 0 .834.07 1.18.21.347.14.617.333.81.58.194.247.29.527.29.84v.04h-1.3v-.04c0-.147-.09-.263-.27-.35-.173-.093-.403-.14-.69-.14-.653 0-.98.23-.98.69v.13a.6.6 0 00.26.51c.18.12.427.18.74.18.3 0 .53-.043.69-.13.167-.087.25-.207.25-.36v-.04h1.3v.04c0 .32-.096.603-.29.85-.186.247-.45.44-.79.58-.34.133-.73.2-1.17.2zm15.519-.04V7h-6.4V5.64l3.3-1.84c.333-.187.583-.34.75-.46.173-.127.29-.24.35-.34a.671.671 0 00.1-.36v-.09c0-.24-.117-.423-.35-.55-.227-.133-.557-.2-.99-.2-.467 0-.827.083-1.08.25-.247.16-.37.397-.37.71v.2h-1.71v-.21c0-.807.263-1.413.79-1.82.526-.413 1.306-.62 2.34-.62.993 0 1.766.19 2.32.57.553.373.83.897.83 1.57v.1c0 .453-.157.863-.47 1.23-.307.36-.837.75-1.59 1.17l-1.12.62h3.3zm4.599 1.56c-.727 0-1.37-.13-1.93-.39a3.12 3.12 0 01-1.3-1.09c-.307-.473-.46-1.017-.46-1.63v-.59c0-.613.153-1.157.46-1.63.313-.473.746-.84 1.3-1.1.56-.26 1.203-.39 1.93-.39.726 0 1.366.13 1.92.39.553.26.98.627 1.28 1.1.306.467.46 1.01.46 1.63v.59c0 .62-.154 1.167-.46 1.64-.3.467-.727.83-1.28 1.09-.554.253-1.194.38-1.92.38zm0-1.65c1.266 0 1.9-.477 1.9-1.43v-.64c0-.473-.164-.833-.49-1.08-.327-.247-.8-.37-1.42-.37-.62 0-1.097.127-1.43.38-.327.247-.49.603-.49 1.07v.64c0 .473.163.83.49 1.07.326.24.806.36 1.44.36zM865.507 7h-1.77V2.56c-.266.1-.566.15-.9.15h-.99V1.06h.96c.327 0 .564-.047.71-.14.147-.1.22-.26.22-.48h1.77V7zm4.856-6.69c.753 0 1.403.107 1.95.32.547.213.963.52 1.25.92.287.393.43.867.43 1.42V4.3c0 .893-.32 1.587-.96 2.08-.64.493-1.54.74-2.7.74-1.067 0-1.893-.193-2.48-.58-.58-.393-.87-.943-.87-1.65v-.05h1.72v.05c0 .227.147.403.44.53.293.127.697.19 1.21.19.607 0 1.07-.11 1.39-.33.327-.22.49-.537.49-.95v-.18c-.493.32-1.193.48-2.1.48-1.047 0-1.853-.173-2.42-.52-.56-.353-.84-.86-.84-1.52v-.07c0-.707.303-1.25.91-1.63.607-.387 1.467-.58 2.58-.58zm-1.72 2.25c0 .227.13.393.39.5.26.107.677.16 1.25.16.453 0 .843-.037 1.17-.11.333-.08.59-.19.77-.33-.093-.647-.737-.97-1.93-.97-1.1 0-1.65.233-1.65.7v.05zM882.718.31c.807 0 1.514.14 2.12.42.614.273 1.084.667 1.41 1.18.334.507.5 1.097.5 1.77v.08c0 .68-.166 1.273-.5 1.78-.326.507-.793.9-1.4 1.18-.606.273-1.316.41-2.13.41-.753 0-1.43-.123-2.03-.37-.6-.253-1.07-.597-1.41-1.03-.333-.44-.5-.933-.5-1.48v-.04h1.81v.04c0 .393.19.71.57.95.387.233.907.35 1.56.35.567 0 1.034-.093 1.4-.28.367-.193.614-.47.74-.83h-3.24V3h3.24c-.24-.74-.943-1.11-2.11-1.11-.426 0-.803.057-1.13.17-.326.107-.58.26-.76.46-.18.2-.27.43-.27.69v.04h-1.81v-.04c0-.553.167-1.05.5-1.49.34-.44.81-.783 1.41-1.03.6-.253 1.277-.38 2.03-.38zm9.35.13c.807 0 1.437.193 1.89.58.46.38.69.907.69 1.58v.1c0 .673-.23 1.203-.69 1.59-.453.387-1.083.58-1.89.58h-2.44V7h-1.77V.44h4.21zm-.04 2.89c.267 0 .47-.053.61-.16.14-.107.21-.263.21-.47v-.1c0-.2-.07-.353-.21-.46-.14-.107-.343-.16-.61-.16h-2.4v1.35h2.4zM901.15.44v1.58h-3.65V7h-1.77V.44h5.42zm6.597 6.29V7h-1.75l-.51-1.21h-3.06l-.51 1.21h-1.75v-.27l2.81-6.29h1.96l2.81 6.29zm-2.88-2.43l-.91-2.17-.91 2.17h1.82zm4.606 2.83c-.294 0-.534-.09-.72-.27a.96.96 0 01-.28-.71c0-.287.093-.517.28-.69.186-.18.426-.27.72-.27.3 0 .54.09.72.27.186.173.28.403.28.69 0 .293-.094.53-.28.71-.18.18-.42.27-.72.27zm12.163-3.48c.294.153.517.35.67.59.154.24.23.52.23.84v.1c0 .567-.223 1.013-.67 1.34-.44.32-1.05.48-1.83.48h-4.18V.44h3.98c.794 0 1.407.153 1.84.46.434.307.65.743.65 1.31v.1c0 .573-.23 1.02-.69 1.34zm-4.01-1.69V3h2.21c.247 0 .427-.037.54-.11.12-.08.18-.2.18-.36v-.1c0-.313-.24-.47-.72-.47h-2.21zm3.1 2.92c0-.327-.243-.49-.73-.49h-2.37v1.09h2.37c.487 0 .73-.167.73-.5v-.1zm6.702 2.25c-.807 0-1.517-.137-2.13-.41-.607-.28-1.077-.673-1.41-1.18-.327-.507-.49-1.1-.49-1.78v-.07c0-.68.163-1.273.49-1.78.333-.513.803-.907 1.41-1.18.613-.28 1.323-.42 2.13-.42.753 0 1.43.123 2.03.37.6.247 1.067.587 1.4 1.02.34.433.51.923.51 1.47v.08h-1.81v-.08c0-.367-.197-.66-.59-.88-.387-.22-.9-.33-1.54-.33-1.487 0-2.23.57-2.23 1.71v.12c0 .567.183.99.55 1.27.367.28.927.42 1.68.42.66 0 1.18-.107 1.56-.32.38-.213.57-.507.57-.88v-.07h1.81v.07a2.32 2.32 0 01-.51 1.47c-.333.433-.8.773-1.4 1.02-.6.24-1.277.36-2.03.36zm10.98-6.69v1.53h-4.19v.99h3.99v1.51h-3.99v1h4.19V7h-5.96V.44h5.96zm11.841 0V7h-1.77V2.02h-3.03V7h-1.77V.44h6.57zm5.628 0c.807 0 1.437.193 1.89.58.46.38.69.907.69 1.58v.1c0 .673-.23 1.203-.69 1.59-.453.387-1.083.58-1.89.58h-2.44V7h-1.77V.44h4.21zm-.04 2.89c.267 0 .47-.053.61-.16.14-.107.21-.263.21-.47v-.1c0-.2-.07-.353-.21-.46-.14-.107-.343-.16-.61-.16h-2.4v1.35h2.4zm9.742 3.4V7h-1.75l-.51-1.21h-3.06l-.51 1.21h-1.75v-.27l2.81-6.29h1.96l2.81 6.29zm-2.88-2.43l-.91-2.17-.91 2.17h1.82zm9.426-.65c.293.153.516.35.67.59.153.24.23.52.23.84v.1c0 .567-.224 1.013-.67 1.34-.44.32-1.05.48-1.83.48h-4.18V.44h3.98c.793 0 1.406.153 1.84.46.433.307.65.743.65 1.31v.1c0 .573-.23 1.02-.69 1.34zm-4.01-1.69V3h2.21c.246 0 .426-.037.54-.11.12-.08.18-.2.18-.36v-.1c0-.313-.24-.47-.72-.47h-2.21zm3.1 2.92c0-.327-.244-.49-.73-.49h-2.37v1.09h2.37c.486 0 .73-.167.73-.5v-.1zm9.57 1.85V7h-1.75l-.51-1.21h-3.06l-.51 1.21h-1.75v-.27l2.81-6.29h1.96l2.81 6.29zm-2.88-2.43l-.91-2.17-.91 2.17h1.82zm13.263-.64c.306.147.54.33.7.55.16.22.24.473.24.76v.11c0 .647-.314 1.15-.94 1.51-.627.36-1.497.54-2.61.54-1.254 0-2.204-.24-2.85-.72-.64-.487-.96-1.2-.96-2.14V4.2h1.78v.07c0 .447.163.773.49.98.333.2.866.3 1.6.3.546 0 .963-.05 1.25-.15.293-.107.44-.26.44-.46v-.1c0-.12-.044-.21-.13-.27-.08-.067-.227-.11-.44-.13a8.319 8.319 0 00-.95-.04h-1.35V3.02h1.3c.366 0 .65-.013.85-.04.206-.033.35-.083.43-.15a.335.335 0 00.13-.28v-.1c0-.373-.554-.56-1.66-.56-.687 0-1.18.1-1.48.3-.294.193-.44.517-.44.97v.07h-1.78v-.07c0-.927.316-1.633.95-2.12.64-.487 1.57-.73 2.79-.73.706 0 1.316.08 1.83.24.513.16.906.39 1.18.69.273.293.41.647.41 1.06v.11c0 .54-.26.957-.78 1.25zm8.718 3.07V7h-1.75l-.51-1.21h-3.06l-.51 1.21h-1.75v-.27l2.81-6.29h1.96l2.81 6.29zm-2.88-2.43l-.91-2.17-.91 2.17h1.82zm14.804 1.12v2.91h-1.77V7h-9.39V.44h1.77v4.98h2.42V.44h1.77v4.98h2.42V.44h1.77v4.98h1.01zm2.67-4.98v4.12l3.25-4.12h1.77V7h-1.75V2.88L1014.5 7h-1.77V.44h1.75zm17.6 4.98v2.91h-1.77V7h-9.39V.44h1.77v4.98h2.42V.44h1.77v4.98h2.42V.44h1.77v4.98h1.01zm6.88-4.98v1.53h-4.19v.99h3.99v1.51h-3.99v1h4.19V7H1033V.44h5.96zm3.04 0v2.49h3.23V.44h1.77V7h-1.77V4.51H1042V7h-1.77V.44h1.77zm8.2 0v2.14h2.07c.84 0 1.47.183 1.91.55.45.367.67.893.67 1.58v.12c0 .7-.22 1.237-.67 1.61-.44.367-1.07.55-1.91.55h-3.84V.44h1.77zm6.92 0V7h-1.77V.44h1.77zm-4.89 5.02c.55 0 .82-.207.82-.62v-.12c0-.2-.07-.35-.21-.45-.14-.107-.34-.16-.61-.16h-2.03v1.35h2.03zm20.14-2v1.52h-9.82V3.46h9.82zm9.2 3.67c-.83 0-1.56-.137-2.18-.41-.62-.273-1.1-.66-1.44-1.16-.33-.507-.5-1.097-.5-1.77v-.13c0-.673.17-1.263.5-1.77.34-.507.82-.897 1.44-1.17.63-.273 1.35-.41 2.18-.41.83 0 1.55.137 2.16.41.62.273 1.1.663 1.43 1.17.33.5.5 1.09.5 1.77v.13c0 .68-.17 1.273-.5 1.78-.33.5-.81.887-1.43 1.16-.61.267-1.33.4-2.16.4zm.01-.99c.59 0 1.1-.093 1.53-.28.44-.193.78-.467 1.01-.82a2.2 2.2 0 00.36-1.25v-.13c0-.473-.12-.887-.36-1.24-.23-.36-.57-.637-1.01-.83-.44-.193-.95-.29-1.53-.29-.59 0-1.11.097-1.56.29-.44.193-.78.467-1.03.82-.24.353-.36.763-.36 1.23v.14c0 .473.12.89.36 1.25.25.353.59.627 1.03.82.45.193.97.29 1.56.29zm0-.53c-.46 0-.86-.073-1.21-.22a1.871 1.871 0 01-.81-.64c-.19-.28-.28-.603-.28-.97v-.13c0-.36.09-.677.28-.95.19-.28.46-.497.8-.65.35-.153.74-.23 1.19-.23.44 0 .83.07 1.18.21.35.14.62.333.81.58.19.247.29.527.29.84v.04h-1.3v-.04c0-.147-.09-.263-.27-.35-.17-.093-.4-.14-.69-.14-.65 0-.98.23-.98.69v.13c0 .213.09.383.26.51.18.12.43.18.74.18.3 0 .53-.043.69-.13.17-.087.25-.207.25-.36v-.04h1.3v.04c0 .32-.1.603-.29.85-.19.247-.45.44-.79.58-.34.133-.73.2-1.17.2zm15.52-.04V7h-6.4V5.64l3.3-1.84c.33-.187.58-.34.75-.46.17-.127.29-.24.35-.34a.64.64 0 00.1-.36v-.09c0-.24-.12-.423-.35-.55-.23-.133-.56-.2-.99-.2-.47 0-.83.083-1.08.25-.25.16-.37.397-.37.71v.2h-1.71v-.21c0-.807.26-1.413.79-1.82.53-.413 1.31-.62 2.34-.62.99 0 1.77.19 2.32.57.55.373.83.897.83 1.57v.1c0 .453-.16.863-.47 1.23-.31.36-.84.75-1.59 1.17l-1.12.62h3.3zm4.6 1.56c-.73 0-1.37-.13-1.93-.39-.56-.26-.99-.623-1.3-1.09-.31-.473-.46-1.017-.46-1.63v-.59c0-.613.15-1.157.46-1.63.31-.473.74-.84 1.3-1.1.56-.26 1.2-.39 1.93-.39.72 0 1.36.13 1.92.39.55.26.98.627 1.28 1.1.3.467.46 1.01.46 1.63v.59c0 .62-.16 1.167-.46 1.64-.3.467-.73.83-1.28 1.09-.56.253-1.2.38-1.92.38zm0-1.65c1.26 0 1.9-.477 1.9-1.43v-.64c0-.473-.17-.833-.49-1.08-.33-.247-.8-.37-1.42-.37-.62 0-1.1.127-1.43.38-.33.247-.49.603-.49 1.07v.64c0 .473.16.83.49 1.07.32.24.8.36 1.44.36zm8.22 1.52h-1.77V2.56c-.27.1-.57.15-.9.15h-.99V1.06h.96c.33 0 .56-.047.71-.14.15-.1.22-.26.22-.48h1.77V7zm4.86-6.69c.75 0 1.4.107 1.95.32.54.213.96.52 1.25.92.28.393.43.867.43 1.42V4.3c0 .893-.32 1.587-.96 2.08-.64.493-1.54.74-2.7.74-1.07 0-1.9-.193-2.48-.58-.58-.393-.87-.943-.87-1.65v-.05h1.72v.05c0 .227.14.403.44.53.29.127.69.19 1.21.19.6 0 1.07-.11 1.39-.33.32-.22.49-.537.49-.95v-.18c-.5.32-1.2.48-2.1.48-1.05 0-1.86-.173-2.42-.52-.56-.353-.84-.86-.84-1.52v-.07c0-.707.3-1.25.91-1.63.6-.387 1.46-.58 2.58-.58zm-1.72 2.25c0 .227.13.393.39.5.26.107.67.16 1.25.16.45 0 .84-.037 1.17-.11.33-.08.59-.19.77-.33-.1-.647-.74-.97-1.93-.97-1.1 0-1.65.233-1.65.7v.05zm14.07-2.25c.81 0 1.52.14 2.12.42.62.273 1.09.667 1.41 1.18.34.507.5 1.097.5 1.77v.08c0 .68-.16 1.273-.5 1.78-.32.507-.79.9-1.4 1.18-.6.273-1.31.41-2.13.41-.75 0-1.43-.123-2.03-.37-.6-.253-1.07-.597-1.41-1.03a2.41 2.41 0 01-.5-1.48v-.04h1.81v.04c0 .393.19.71.57.95.39.233.91.35 1.56.35.57 0 1.04-.093 1.4-.28.37-.193.62-.47.74-.83h-3.24V3h3.24c-.24-.74-.94-1.11-2.11-1.11-.42 0-.8.057-1.13.17-.32.107-.58.26-.76.46-.18.2-.27.43-.27.69v.04h-1.81v-.04c0-.553.17-1.05.5-1.49.34-.44.81-.783 1.41-1.03.6-.253 1.28-.38 2.03-.38zm9.35.13c.81 0 1.44.193 1.89.58.46.38.69.907.69 1.58v.1c0 .673-.23 1.203-.69 1.59-.45.387-1.08.58-1.89.58h-2.44V7h-1.77V.44h4.21zm-.04 2.89c.27 0 .47-.053.61-.16.14-.107.21-.263.21-.47v-.1c0-.2-.07-.353-.21-.46-.14-.107-.34-.16-.61-.16h-2.4v1.35h2.4zm9.12-2.89v1.58h-3.65V7h-1.77V.44h5.42zm6.6 6.29V7h-1.75l-.51-1.21h-3.06l-.51 1.21h-1.75v-.27l2.81-6.29h1.96l2.81 6.29zm-2.88-2.43l-.91-2.17-.91 2.17h1.82zm4.61 2.83c-.3 0-.54-.09-.72-.27a.95.95 0 01-.28-.71c0-.287.09-.517.28-.69.18-.18.42-.27.72-.27s.54.09.72.27a.92.92 0 01.28.69c0 .293-.1.53-.28.71-.18.18-.42.27-.72.27zm12.16-3.48c.29.153.52.35.67.59.15.24.23.52.23.84v.1c0 .567-.22 1.013-.67 1.34-.44.32-1.05.48-1.83.48h-4.18V.44h3.98c.79 0 1.41.153 1.84.46.43.307.65.743.65 1.31v.1c0 .573-.23 1.02-.69 1.34zm-4.01-1.69V3h2.21c.25 0 .43-.037.54-.11.12-.08.18-.2.18-.36v-.1c0-.313-.24-.47-.72-.47h-2.21zm3.1 2.92c0-.327-.24-.49-.73-.49h-2.37v1.09h2.37c.49 0 .73-.167.73-.5v-.1zm6.7 2.25c-.8 0-1.51-.137-2.13-.41-.6-.28-1.07-.673-1.41-1.18-.32-.507-.49-1.1-.49-1.78v-.07c0-.68.17-1.273.49-1.78.34-.513.81-.907 1.41-1.18.62-.28 1.33-.42 2.13-.42.76 0 1.43.123 2.03.37.6.247 1.07.587 1.4 1.02.34.433.51.923.51 1.47v.08h-1.81v-.08c0-.367-.19-.66-.59-.88-.38-.22-.9-.33-1.54-.33-1.48 0-2.23.57-2.23 1.71v.12c0 .567.19.99.55 1.27.37.28.93.42 1.68.42.66 0 1.18-.107 1.56-.32.38-.213.57-.507.57-.88v-.07h1.81v.07a2.32 2.32 0 01-.51 1.47c-.33.433-.8.773-1.4 1.02-.6.24-1.27.36-2.03.36zm10.98-6.69v1.53h-4.19v.99h3.99v1.51h-3.99v1h4.19V7h-5.96V.44h5.96zm11.84 0V7h-1.77V2.02h-3.03V7h-1.77V.44h6.57zm5.63 0c.81 0 1.44.193 1.89.58.46.38.69.907.69 1.58v.1c0 .673-.23 1.203-.69 1.59-.45.387-1.08.58-1.89.58h-2.44V7h-1.77V.44h4.21zm-.04 2.89c.27 0 .47-.053.61-.16.14-.107.21-.263.21-.47v-.1c0-.2-.07-.353-.21-.46-.14-.107-.34-.16-.61-.16h-2.4v1.35h2.4zm9.74 3.4V7h-1.75l-.51-1.21h-3.06l-.51 1.21h-1.75v-.27l2.81-6.29h1.96l2.81 6.29zm-2.88-2.43l-.91-2.17-.91 2.17h1.82zm9.43-.65c.29.153.52.35.67.59.15.24.23.52.23.84v.1c0 .567-.22 1.013-.67 1.34-.44.32-1.05.48-1.83.48h-4.18V.44h3.98c.79 0 1.41.153 1.84.46.43.307.65.743.65 1.31v.1c0 .573-.23 1.02-.69 1.34zm-4.01-1.69V3h2.21c.25 0 .43-.037.54-.11.12-.08.18-.2.18-.36v-.1c0-.313-.24-.47-.72-.47h-2.21zm3.1 2.92c0-.327-.24-.49-.73-.49h-2.37v1.09h2.37c.49 0 .73-.167.73-.5v-.1zm9.57 1.85V7h-1.75l-.51-1.21h-3.06l-.51 1.21h-1.75v-.27l2.81-6.29h1.96l2.81 6.29zm-2.88-2.43l-.91-2.17-.91 2.17h1.82zm13.26-.64c.31.147.54.33.7.55.16.22.24.473.24.76v.11c0 .647-.31 1.15-.94 1.51-.62.36-1.49.54-2.61.54-1.25 0-2.2-.24-2.85-.72-.64-.487-.96-1.2-.96-2.14V4.2h1.78v.07c0 .447.17.773.49.98.34.2.87.3 1.6.3.55 0 .97-.05 1.25-.15.3-.107.44-.26.44-.46v-.1c0-.12-.04-.21-.13-.27-.08-.067-.22-.11-.44-.13a8.27 8.27 0 00-.95-.04h-1.35V3.02h1.3c.37 0 .65-.013.85-.04.21-.033.35-.083.43-.15.09-.067.13-.16.13-.28v-.1c0-.373-.55-.56-1.66-.56-.68 0-1.18.1-1.48.3-.29.193-.44.517-.44.97v.07h-1.78v-.07c0-.927.32-1.633.95-2.12.64-.487 1.57-.73 2.79-.73.71 0 1.32.08 1.83.24.52.16.91.39 1.18.69.28.293.41.647.41 1.06v.11c0 .54-.26.957-.78 1.25zm8.72 3.07V7h-1.75l-.51-1.21h-3.06l-.51 1.21h-1.75v-.27l2.81-6.29h1.96l2.81 6.29zm-2.88-2.43l-.91-2.17-.91 2.17h1.82zm14.81 1.12v2.91h-1.77V7h-9.39V.44h1.77v4.98h2.42V.44h1.77v4.98h2.42V.44h1.77v4.98h1.01zm2.67-4.98v4.12l3.25-4.12h1.77V7h-1.75V2.88L1258.92 7h-1.77V.44h1.75zm17.6 4.98v2.91h-1.77V7h-9.39V.44h1.77v4.98h2.42V.44h1.77v4.98h2.42V.44h1.77v4.98h1.01zm6.88-4.98v1.53h-4.19v.99h3.99v1.51h-3.99v1h4.19V7h-5.96V.44h5.96zm3.04 0v2.49h3.23V.44h1.77V7h-1.77V4.51h-3.23V7h-1.77V.44h1.77zm8.2 0v2.14h2.07c.83 0 1.47.183 1.91.55.45.367.67.893.67 1.58v.12c0 .7-.22 1.237-.67 1.61-.44.367-1.08.55-1.91.55h-3.84V.44h1.77zm6.92 0V7h-1.77V.44h1.77zm-4.89 5.02c.55 0 .82-.207.82-.62v-.12c0-.2-.07-.35-.21-.45-.14-.107-.34-.16-.61-.16h-2.03v1.35h2.03zm20.13-2v1.52h-9.82V3.46h9.82zm9.2 3.67c-.83 0-1.56-.137-2.18-.41-.62-.273-1.1-.66-1.44-1.16-.33-.507-.5-1.097-.5-1.77v-.13c0-.673.17-1.263.5-1.77.34-.507.82-.897 1.44-1.17.63-.273 1.36-.41 2.18-.41.83 0 1.55.137 2.16.41.62.273 1.1.663 1.43 1.17.34.5.5 1.09.5 1.77v.13c0 .68-.16 1.273-.5 1.78-.33.5-.81.887-1.43 1.16-.61.267-1.33.4-2.16.4zm.01-.99c.59 0 1.1-.093 1.53-.28.44-.193.78-.467 1.01-.82a2.2 2.2 0 00.36-1.25v-.13c0-.473-.12-.887-.36-1.24-.23-.36-.57-.637-1.01-.83-.44-.193-.95-.29-1.53-.29-.59 0-1.11.097-1.56.29-.44.193-.78.467-1.03.82-.24.353-.36.763-.36 1.23v.14c0 .473.12.89.36 1.25.25.353.59.627 1.03.82.45.193.97.29 1.56.29zm0-.53c-.46 0-.86-.073-1.21-.22a1.996 1.996 0 01-.81-.64 1.76 1.76 0 01-.28-.97v-.13c0-.36.1-.677.28-.95.2-.28.46-.497.8-.65.35-.153.75-.23 1.19-.23.44 0 .84.07 1.18.21.35.14.62.333.81.58.2.247.29.527.29.84v.04h-1.3v-.04c0-.147-.09-.263-.27-.35-.17-.093-.4-.14-.69-.14-.65 0-.98.23-.98.69v.13c0 .213.09.383.26.51.18.12.43.18.74.18.3 0 .53-.043.69-.13.17-.087.25-.207.25-.36v-.04h1.3v.04c0 .32-.09.603-.29.85-.18.247-.45.44-.79.58-.34.133-.73.2-1.17.2zm15.52-.04V7h-6.4V5.64l3.3-1.84c.34-.187.59-.34.75-.46.18-.127.29-.24.35-.34a.64.64 0 00.1-.36v-.09c0-.24-.11-.423-.35-.55-.22-.133-.55-.2-.99-.2-.46 0-.82.083-1.08.25a.806.806 0 00-.37.71v.2h-1.71v-.21c0-.807.27-1.413.79-1.82.53-.413 1.31-.62 2.34-.62 1 0 1.77.19 2.32.57.56.373.83.897.83 1.57v.1c0 .453-.15.863-.47 1.23-.3.36-.83.75-1.59 1.17l-1.12.62h3.3zm4.6 1.56c-.72 0-1.37-.13-1.93-.39a3.19 3.19 0 01-1.3-1.09 2.986 2.986 0 01-.46-1.63v-.59c0-.613.16-1.157.46-1.63.32-.473.75-.84 1.3-1.1.56-.26 1.21-.39 1.93-.39.73 0 1.37.13 1.92.39.56.26.98.627 1.28 1.1.31.467.46 1.01.46 1.63v.59c0 .62-.15 1.167-.46 1.64-.3.467-.72.83-1.28 1.09-.55.253-1.19.38-1.92.38zm0-1.65c1.27 0 1.9-.477 1.9-1.43v-.64c0-.473-.16-.833-.49-1.08-.32-.247-.8-.37-1.42-.37-.62 0-1.09.127-1.43.38-.32.247-.49.603-.49 1.07v.64c0 .473.17.83.49 1.07.33.24.81.36 1.44.36zm8.23 1.52h-1.77V2.56c-.27.1-.57.15-.9.15h-.99V1.06h.96c.32 0 .56-.047.71-.14.14-.1.22-.26.22-.48h1.77V7zm4.85-6.69c.75 0 1.4.107 1.95.32.55.213.96.52 1.25.92.29.393.43.867.43 1.42V4.3c0 .893-.32 1.587-.96 2.08-.64.493-1.54.74-2.7.74-1.07 0-1.89-.193-2.48-.58-.58-.393-.87-.943-.87-1.65v-.05h1.72v.05c0 .227.15.403.44.53.29.127.7.19 1.21.19.61 0 1.07-.11 1.39-.33.33-.22.49-.537.49-.95v-.18c-.49.32-1.19.48-2.1.48-1.05 0-1.85-.173-2.42-.52-.56-.353-.84-.86-.84-1.52v-.07c0-.707.3-1.25.91-1.63.61-.387 1.47-.58 2.58-.58zm-1.72 2.25c0 .227.13.393.39.5.26.107.68.16 1.25.16.45 0 .84-.037 1.17-.11.33-.08.59-.19.77-.33-.09-.647-.74-.97-1.93-.97-1.1 0-1.65.233-1.65.7v.05zm14.08-2.25c.8 0 1.51.14 2.12.42.61.273 1.08.667 1.41 1.18.33.507.5 1.097.5 1.77v.08c0 .68-.17 1.273-.5 1.78-.33.507-.8.9-1.4 1.18-.61.273-1.32.41-2.13.41-.76 0-1.43-.123-2.03-.37-.6-.253-1.07-.597-1.41-1.03a2.35 2.35 0 01-.5-1.48v-.04h1.81v.04c0 .393.19.71.57.95.38.233.9.35 1.56.35.56 0 1.03-.093 1.4-.28.36-.193.61-.47.74-.83h-3.24V3h3.24c-.24-.74-.95-1.11-2.11-1.11-.43 0-.81.057-1.13.17-.33.107-.58.26-.76.46-.18.2-.27.43-.27.69v.04h-1.81v-.04c0-.553.16-1.05.5-1.49.34-.44.81-.783 1.41-1.03.6-.253 1.27-.38 2.03-.38zm9.35.13c.8 0 1.43.193 1.89.58.46.38.69.907.69 1.58v.1c0 .673-.23 1.203-.69 1.59-.46.387-1.09.58-1.89.58h-2.44V7h-1.77V.44h4.21zm-.04 2.89c.26 0 .47-.053.61-.16.14-.107.21-.263.21-.47v-.1c0-.2-.07-.353-.21-.46-.14-.107-.35-.16-.61-.16h-2.4v1.35h2.4zm9.12-2.89v1.58h-3.65V7h-1.77V.44h5.42zm6.6 6.29V7h-1.75l-.51-1.21h-3.06l-.51 1.21H1389v-.27l2.81-6.29h1.96l2.81 6.29zm-2.88-2.43l-.91-2.17-.91 2.17h1.82zm4.6 2.83c-.29 0-.53-.09-.72-.27a.95.95 0 01-.28-.71c0-.287.09-.517.28-.69.19-.18.43-.27.72-.27.3 0 .54.09.72.27.19.173.28.403.28.69 0 .293-.09.53-.28.71-.18.18-.42.27-.72.27zm12.16-3.48c.3.153.52.35.67.59.16.24.23.52.23.84v.1c0 .567-.22 1.013-.67 1.34-.44.32-1.05.48-1.83.48h-4.18V.44h3.98c.8 0 1.41.153 1.84.46.44.307.65.743.65 1.31v.1c0 .573-.23 1.02-.69 1.34zm-4.01-1.69V3h2.21c.25 0 .43-.037.54-.11.12-.08.18-.2.18-.36v-.1c0-.313-.24-.47-.72-.47h-2.21zm3.1 2.92c0-.327-.24-.49-.73-.49h-2.37v1.09h2.37c.49 0 .73-.167.73-.5v-.1zm6.71 2.25c-.81 0-1.52-.137-2.13-.41-.61-.28-1.08-.673-1.41-1.18-.33-.507-.49-1.1-.49-1.78v-.07c0-.68.16-1.273.49-1.78.33-.513.8-.907 1.41-1.18.61-.28 1.32-.42 2.13-.42.75 0 1.43.123 2.03.37.6.247 1.06.587 1.4 1.02.34.433.51.923.51 1.47v.08h-1.81v-.08c0-.367-.2-.66-.59-.88-.39-.22-.9-.33-1.54-.33-1.49 0-2.23.57-2.23 1.71v.12c0 .567.18.99.55 1.27.36.28.92.42 1.68.42.66 0 1.18-.107 1.56-.32.38-.213.57-.507.57-.88v-.07h1.81v.07a2.32 2.32 0 01-.51 1.47c-.34.433-.8.773-1.4 1.02-.6.24-1.28.36-2.03.36zm10.98-6.69v1.53h-4.19v.99h3.99v1.51h-3.99v1h4.19V7h-5.96V.44h5.96zm11.84 0V7h-1.77V2.02h-3.03V7h-1.77V.44h6.57zm5.63 0c.8 0 1.43.193 1.89.58.46.38.69.907.69 1.58v.1c0 .673-.23 1.203-.69 1.59-.46.387-1.09.58-1.89.58h-2.44V7h-1.77V.44h4.21zm-.04 2.89c.26 0 .47-.053.61-.16.14-.107.21-.263.21-.47v-.1c0-.2-.07-.353-.21-.46-.14-.107-.35-.16-.61-.16h-2.4v1.35h2.4zm9.74 3.4V7h-1.75l-.51-1.21h-3.06l-.51 1.21h-1.75v-.27l2.81-6.29h1.96l2.81 6.29zm-2.88-2.43l-.91-2.17-.91 2.17h1.82zm9.42-.65c.3.153.52.35.67.59.16.24.23.52.23.84v.1c0 .567-.22 1.013-.67 1.34-.44.32-1.05.48-1.83.48h-4.18V.44h3.98c.8 0 1.41.153 1.84.46.44.307.65.743.65 1.31v.1c0 .573-.23 1.02-.69 1.34zm-4.01-1.69V3h2.21c.25 0 .43-.037.54-.11.12-.08.18-.2.18-.36v-.1c0-.313-.24-.47-.72-.47h-2.21zm3.1 2.92c0-.327-.24-.49-.73-.49h-2.37v1.09h2.37c.49 0 .73-.167.73-.5v-.1zm9.57 1.85V7h-1.75l-.51-1.21h-3.06l-.51 1.21h-1.75v-.27l2.81-6.29h1.96l2.81 6.29zm-2.88-2.43l-.91-2.17-.91 2.17h1.82zm13.27-.64c.3.147.54.33.7.55.16.22.24.473.24.76v.11c0 .647-.32 1.15-.94 1.51-.63.36-1.5.54-2.61.54-1.26 0-2.21-.24-2.85-.72-.64-.487-.96-1.2-.96-2.14V4.2h1.78v.07c0 .447.16.773.49.98.33.2.86.3 1.6.3.54 0 .96-.05 1.25-.15.29-.107.44-.26.44-.46v-.1c0-.12-.05-.21-.13-.27-.08-.067-.23-.11-.44-.13-.22-.027-.53-.04-.95-.04h-1.35V3.02h1.3c.36 0 .65-.013.85-.04.2-.033.35-.083.43-.15.08-.067.13-.16.13-.28v-.1c0-.373-.56-.56-1.66-.56-.69 0-1.18.1-1.48.3-.3.193-.44.517-.44.97v.07h-1.78v-.07c0-.927.31-1.633.95-2.12.64-.487 1.57-.73 2.79-.73.7 0 1.31.08 1.83.24.51.16.9.39 1.18.69.27.293.41.647.41 1.06v.11c0 .54-.26.957-.78 1.25zm8.71 3.07V7h-1.75l-.51-1.21h-3.06l-.51 1.21h-1.75v-.27l2.81-6.29h1.96l2.81 6.29zm-2.88-2.43l-.91-2.17-.91 2.17h1.82zm14.81 1.12v2.91h-1.77V7h-9.39V.44h1.77v4.98h2.42V.44h1.77v4.98h2.42V.44h1.77v4.98h1.01zm2.67-4.98v4.12l3.25-4.12h1.77V7h-1.75V2.88L1503.33 7h-1.77V.44h1.75zm17.6 4.98v2.91h-1.77V7h-9.39V.44h1.77v4.98h2.42V.44h1.77v4.98h2.42V.44h1.77v4.98h1.01zm6.88-4.98v1.53h-4.19v.99h3.99v1.51h-3.99v1h4.19V7h-5.96V.44h5.96zm3.04 0v2.49h3.23V.44h1.77V7h-1.77V4.51h-3.23V7h-1.77V.44h1.77zm8.2 0v2.14h2.07c.84 0 1.47.183 1.91.55.45.367.67.893.67 1.58v.12c0 .7-.22 1.237-.67 1.61-.44.367-1.07.55-1.91.55h-3.84V.44h1.77zm6.92 0V7h-1.77V.44h1.77zm-4.89 5.02c.55 0 .82-.207.82-.62v-.12c0-.2-.07-.35-.21-.45-.14-.107-.34-.16-.61-.16h-2.03v1.35h2.03zm20.13-2v1.52h-9.82V3.46h9.82zm9.21 3.67c-.83 0-1.56-.137-2.18-.41-.62-.273-1.1-.66-1.44-1.16-.33-.507-.5-1.097-.5-1.77v-.13c0-.673.17-1.263.5-1.77.34-.507.82-.897 1.44-1.17.63-.273 1.35-.41 2.18-.41.83 0 1.55.137 2.16.41.62.273 1.1.663 1.43 1.17.33.5.5 1.09.5 1.77v.13c0 .68-.17 1.273-.5 1.78-.33.5-.81.887-1.43 1.16-.61.267-1.33.4-2.16.4zm.01-.99c.59 0 1.1-.093 1.53-.28.44-.193.78-.467 1.01-.82a2.2 2.2 0 00.36-1.25v-.13c0-.473-.12-.887-.36-1.24-.23-.36-.57-.637-1.01-.83-.44-.193-.95-.29-1.53-.29-.59 0-1.11.097-1.56.29-.44.193-.78.467-1.03.82-.24.353-.36.763-.36 1.23v.14c0 .473.12.89.36 1.25.25.353.59.627 1.03.82.45.193.97.29 1.56.29zm0-.53c-.46 0-.86-.073-1.21-.22a1.871 1.871 0 01-.81-.64c-.19-.28-.28-.603-.28-.97v-.13c0-.36.09-.677.28-.95.19-.28.46-.497.8-.65.35-.153.74-.23 1.19-.23.44 0 .83.07 1.18.21.35.14.62.333.81.58.19.247.29.527.29.84v.04h-1.3v-.04c0-.147-.09-.263-.27-.35-.17-.093-.4-.14-.69-.14-.65 0-.98.23-.98.69v.13c0 .213.09.383.26.51.18.12.43.18.74.18.3 0 .53-.043.69-.13.17-.087.25-.207.25-.36v-.04h1.3v.04c0 .32-.1.603-.29.85-.19.247-.45.44-.79.58-.34.133-.73.2-1.17.2zm15.52-.04V7h-6.4V5.64l3.3-1.84c.33-.187.58-.34.75-.46.17-.127.29-.24.35-.34a.73.73 0 00.1-.36v-.09c0-.24-.12-.423-.35-.55-.23-.133-.56-.2-.99-.2-.47 0-.83.083-1.08.25-.25.16-.37.397-.37.71v.2h-1.71v-.21c0-.807.26-1.413.79-1.82.52-.413 1.3-.62 2.34-.62.99 0 1.76.19 2.32.57.55.373.83.897.83 1.57v.1c0 .453-.16.863-.47 1.23-.31.36-.84.75-1.59 1.17l-1.12.62h3.3zm4.6 1.56c-.73 0-1.37-.13-1.93-.39-.56-.26-.99-.623-1.3-1.09-.31-.473-.46-1.017-.46-1.63v-.59c0-.613.15-1.157.46-1.63.31-.473.74-.84 1.3-1.1.56-.26 1.2-.39 1.93-.39.72 0 1.36.13 1.92.39.55.26.98.627 1.28 1.1.3.467.46 1.01.46 1.63v.59c0 .62-.16 1.167-.46 1.64-.3.467-.73.83-1.28 1.09-.56.253-1.2.38-1.92.38zm0-1.65c1.26 0 1.9-.477 1.9-1.43v-.64c0-.473-.17-.833-.49-1.08-.33-.247-.8-.37-1.42-.37-.62 0-1.1.127-1.43.38-.33.247-.49.603-.49 1.07v.64c0 .473.16.83.49 1.07.32.24.8.36 1.44.36zm8.22 1.52h-1.77V2.56c-.27.1-.57.15-.9.15h-.99V1.06h.96c.33 0 .56-.047.71-.14.15-.1.22-.26.22-.48h1.77V7zm4.86-6.69c.75 0 1.4.107 1.95.32.54.213.96.52 1.25.92.28.393.43.867.43 1.42V4.3c0 .893-.32 1.587-.96 2.08-.64.493-1.54.74-2.7.74-1.07 0-1.9-.193-2.48-.58-.58-.393-.87-.943-.87-1.65v-.05h1.72v.05c0 .227.14.403.44.53.29.127.69.19 1.21.19.6 0 1.07-.11 1.39-.33.32-.22.49-.537.49-.95v-.18c-.5.32-1.2.48-2.1.48-1.05 0-1.86-.173-2.42-.52-.56-.353-.84-.86-.84-1.52v-.07c0-.707.3-1.25.91-1.63.6-.387 1.46-.58 2.58-.58zm-1.72 2.25c0 .227.13.393.39.5.26.107.67.16 1.25.16.45 0 .84-.037 1.17-.11.33-.08.59-.19.77-.33-.1-.647-.74-.97-1.93-.97-1.1 0-1.65.233-1.65.7v.05zm14.07-2.25c.81 0 1.51.14 2.12.42.61.273 1.08.667 1.41 1.18.33.507.5 1.097.5 1.77v.08c0 .68-.17 1.273-.5 1.78-.33.507-.79.9-1.4 1.18-.61.273-1.32.41-2.13.41-.75 0-1.43-.123-2.03-.37-.6-.253-1.07-.597-1.41-1.03a2.41 2.41 0 01-.5-1.48v-.04h1.81v.04c0 .393.19.71.57.95.39.233.91.35 1.56.35.57 0 1.03-.093 1.4-.28.37-.193.61-.47.74-.83h-3.24V3h3.24c-.24-.74-.94-1.11-2.11-1.11-.43 0-.8.057-1.13.17-.33.107-.58.26-.76.46-.18.2-.27.43-.27.69v.04h-1.81v-.04c0-.553.17-1.05.5-1.49.34-.44.81-.783 1.41-1.03.6-.253 1.28-.38 2.03-.38zm9.35.13c.81 0 1.44.193 1.89.58.46.38.69.907.69 1.58v.1c0 .673-.23 1.203-.69 1.59-.45.387-1.08.58-1.89.58h-2.44V7h-1.77V.44h4.21zm-.04 2.89c.27 0 .47-.053.61-.16.14-.107.21-.263.21-.47v-.1c0-.2-.07-.353-.21-.46-.14-.107-.34-.16-.61-.16h-2.4v1.35h2.4zm9.12-2.89v1.58h-3.65V7h-1.77V.44h5.42zm6.6 6.29V7h-1.75l-.51-1.21h-3.06l-.51 1.21h-1.75v-.27l2.81-6.29h1.96l2.81 6.29zm-2.88-2.43l-.91-2.17-.91 2.17h1.82zm4.6 2.83c-.29 0-.53-.09-.72-.27a.989.989 0 01-.28-.71c0-.287.1-.517.28-.69.19-.18.43-.27.72-.27.3 0 .54.09.72.27.19.173.28.403.28.69 0 .293-.09.53-.28.71-.18.18-.42.27-.72.27zm12.17-3.48c.29.153.52.35.67.59.15.24.23.52.23.84v.1c0 .567-.22 1.013-.67 1.34-.44.32-1.05.48-1.83.48h-4.18V.44h3.98c.79 0 1.41.153 1.84.46.43.307.65.743.65 1.31v.1c0 .573-.23 1.02-.69 1.34zm-4.01-1.69V3h2.21c.25 0 .43-.037.54-.11.12-.08.18-.2.18-.36v-.1c0-.313-.24-.47-.72-.47h-2.21zm3.1 2.92c0-.327-.24-.49-.73-.49h-2.37v1.09h2.37c.49 0 .73-.167.73-.5v-.1zm6.7 2.25c-.81 0-1.52-.137-2.13-.41-.61-.28-1.08-.673-1.41-1.18-.33-.507-.49-1.1-.49-1.78v-.07c0-.68.16-1.273.49-1.78.33-.513.8-.907 1.41-1.18.61-.28 1.32-.42 2.13-.42.75 0 1.43.123 2.03.37.6.247 1.07.587 1.4 1.02.34.433.51.923.51 1.47v.08h-1.81v-.08c0-.367-.2-.66-.59-.88-.39-.22-.9-.33-1.54-.33-1.49 0-2.23.57-2.23 1.71v.12c0 .567.18.99.55 1.27.37.28.93.42 1.68.42.66 0 1.18-.107 1.56-.32.38-.213.57-.507.57-.88v-.07h1.81v.07a2.32 2.32 0 01-.51 1.47c-.33.433-.8.773-1.4 1.02-.6.24-1.28.36-2.03.36zm10.98-6.69v1.53h-4.19v.99h3.99v1.51h-3.99v1h4.19V7h-5.96V.44h5.96zm11.84 0V7h-1.77V2.02h-3.03V7h-1.77V.44h6.57zm5.63 0c.81 0 1.44.193 1.89.58.46.38.69.907.69 1.58v.1c0 .673-.23 1.203-.69 1.59-.45.387-1.08.58-1.89.58h-2.44V7h-1.77V.44h4.21zm-.04 2.89c.27 0 .47-.053.61-.16.14-.107.21-.263.21-.47v-.1c0-.2-.07-.353-.21-.46-.14-.107-.34-.16-.61-.16h-2.4v1.35h2.4zm9.74 3.4V7h-1.75l-.51-1.21h-3.06l-.51 1.21h-1.75v-.27l2.81-6.29h1.96l2.81 6.29zm-2.88-2.43l-.91-2.17-.91 2.17h1.82zm9.43-.65c.29.153.51.35.67.59.15.24.23.52.23.84v.1c0 .567-.23 1.013-.67 1.34-.44.32-1.05.48-1.83.48h-4.18V.44h3.98c.79 0 1.4.153 1.84.46.43.307.65.743.65 1.31v.1c0 .573-.23 1.02-.69 1.34zm-4.01-1.69V3h2.21c.24 0 .42-.037.54-.11.12-.08.18-.2.18-.36v-.1c0-.313-.24-.47-.72-.47h-2.21zm3.1 2.92c0-.327-.25-.49-.73-.49h-2.37v1.09h2.37c.48 0 .73-.167.73-.5v-.1zm9.57 1.85V7h-1.75l-.51-1.21h-3.06L1708.2 7h-1.75v-.27l2.81-6.29h1.96l2.81 6.29zm-2.88-2.43l-.91-2.17-.91 2.17h1.82zm13.26-.64c.31.147.54.33.7.55.16.22.24.473.24.76v.11c0 .647-.31 1.15-.94 1.51-.63.36-1.5.54-2.61.54-1.25 0-2.2-.24-2.85-.72-.64-.487-.96-1.2-.96-2.14V4.2h1.78v.07c0 .447.16.773.49.98.33.2.87.3 1.6.3.55 0 .96-.05 1.25-.15.29-.107.44-.26.44-.46v-.1c0-.12-.04-.21-.13-.27-.08-.067-.23-.11-.44-.13a8.27 8.27 0 00-.95-.04h-1.35V3.02h1.3c.37 0 .65-.013.85-.04.21-.033.35-.083.43-.15.09-.067.13-.16.13-.28v-.1c0-.373-.55-.56-1.66-.56-.69 0-1.18.1-1.48.3-.29.193-.44.517-.44.97v.07h-1.78v-.07c0-.927.32-1.633.95-2.12.64-.487 1.57-.73 2.79-.73.71 0 1.32.08 1.83.24.51.16.91.39 1.18.69.27.293.41.647.41 1.06v.11c0 .54-.26.957-.78 1.25zm8.72 3.07V7h-1.75l-.51-1.21h-3.06L1727.3 7h-1.75v-.27l2.81-6.29h1.96l2.81 6.29zm-2.88-2.43l-.91-2.17-.91 2.17h1.82zm14.8 1.12v2.91h-1.77V7h-9.39V.44h1.77v4.98h2.42V.44h1.77v4.98h2.42V.44h1.77v4.98h1.01zm2.67-4.98v4.12l3.25-4.12h1.77V7h-1.75V2.88L1747.74 7h-1.77V.44h1.75zm17.61 4.98v2.91h-1.77V7h-9.39V.44h1.77v4.98h2.42V.44h1.77v4.98h2.42V.44h1.77v4.98h1.01zm6.88-4.98v1.53h-4.19v.99h3.99v1.51h-3.99v1h4.19V7h-5.96V.44h5.96zm3.03 0v2.49h3.23V.44h1.77V7h-1.77V4.51h-3.23V7h-1.77V.44h1.77zm8.21 0v2.14h2.07c.83 0 1.47.183 1.91.55.44.367.67.893.67 1.58v.12c0 .7-.23 1.237-.67 1.61-.44.367-1.08.55-1.91.55h-3.84V.44h1.77zm6.92 0V7h-1.77V.44h1.77zm-4.89 5.02c.54 0 .82-.207.82-.62v-.12c0-.2-.07-.35-.21-.45-.14-.107-.35-.16-.61-.16h-2.03v1.35h2.03zm20.13-2v1.52h-9.82V3.46h9.82zm9.2 3.67c-.83 0-1.56-.137-2.18-.41-.62-.273-1.1-.66-1.44-1.16-.33-.507-.5-1.097-.5-1.77v-.13c0-.673.17-1.263.5-1.77.34-.507.82-.897 1.44-1.17.63-.273 1.36-.41 2.18-.41.83 0 1.55.137 2.16.41.62.273 1.1.663 1.43 1.17.34.5.5 1.09.5 1.77v.13c0 .68-.16 1.273-.5 1.78-.33.5-.81.887-1.43 1.16-.61.267-1.33.4-2.16.4zm.01-.99c.59 0 1.1-.093 1.53-.28.44-.193.78-.467 1.01-.82a2.2 2.2 0 00.36-1.25v-.13c0-.473-.12-.887-.36-1.24-.23-.36-.57-.637-1.01-.83-.44-.193-.95-.29-1.53-.29-.59 0-1.11.097-1.56.29-.44.193-.78.467-1.03.82-.24.353-.36.763-.36 1.23v.14c0 .473.12.89.36 1.25.25.353.59.627 1.03.82.45.193.97.29 1.56.29zm0-.53c-.46 0-.86-.073-1.21-.22a1.996 1.996 0 01-.81-.64 1.76 1.76 0 01-.28-.97v-.13c0-.36.1-.677.28-.95.2-.28.46-.497.8-.65.35-.153.75-.23 1.19-.23.44 0 .84.07 1.18.21.35.14.62.333.81.58.2.247.29.527.29.84v.04h-1.3v-.04c0-.147-.09-.263-.27-.35-.17-.093-.4-.14-.69-.14-.65 0-.98.23-.98.69v.13c0 .213.09.383.26.51.18.12.43.18.74.18.3 0 .53-.043.69-.13.17-.087.25-.207.25-.36v-.04h1.3v.04c0 .32-.09.603-.29.85-.18.247-.45.44-.79.58-.34.133-.73.2-1.17.2zm15.52-.04V7h-6.4V5.64l3.3-1.84c.33-.187.58-.34.75-.46.17-.127.29-.24.35-.34a.64.64 0 00.1-.36v-.09c0-.24-.12-.423-.35-.55-.23-.133-.56-.2-.99-.2-.47 0-.83.083-1.08.25-.25.16-.37.397-.37.71v.2h-1.71v-.21c0-.807.26-1.413.79-1.82.53-.413 1.31-.62 2.34-.62.99 0 1.77.19 2.32.57.55.373.83.897.83 1.57v.1c0 .453-.16.863-.47 1.23-.31.36-.84.75-1.59 1.17l-1.12.62h3.3zm4.6 1.56c-.73 0-1.37-.13-1.93-.39-.55-.26-.99-.623-1.3-1.09-.31-.473-.46-1.017-.46-1.63v-.59c0-.613.15-1.157.46-1.63.31-.473.75-.84 1.3-1.1.56-.26 1.2-.39 1.93-.39s1.37.13 1.92.39c.55.26.98.627 1.28 1.1.31.467.46 1.01.46 1.63v.59c0 .62-.15 1.167-.46 1.64-.3.467-.73.83-1.28 1.09-.55.253-1.19.38-1.92.38zm0-1.65c1.27 0 1.9-.477 1.9-1.43v-.64c0-.473-.16-.833-.49-1.08-.33-.247-.8-.37-1.42-.37-.62 0-1.1.127-1.43.38-.33.247-.49.603-.49 1.07v.64c0 .473.16.83.49 1.07.33.24.81.36 1.44.36zm8.22 1.52h-1.77V2.56c-.26.1-.56.15-.9.15h-.99V1.06h.96c.33 0 .57-.047.71-.14.15-.1.22-.26.22-.48h1.77V7zm4.86-6.69c.75 0 1.4.107 1.95.32.55.213.96.52 1.25.92.29.393.43.867.43 1.42V4.3c0 .893-.32 1.587-.96 2.08-.64.493-1.54.74-2.7.74-1.07 0-1.89-.193-2.48-.58-.58-.393-.87-.943-.87-1.65v-.05h1.72v.05c0 .227.15.403.44.53.29.127.7.19 1.21.19.61 0 1.07-.11 1.39-.33.33-.22.49-.537.49-.95v-.18c-.49.32-1.19.48-2.1.48-1.05 0-1.85-.173-2.42-.52-.56-.353-.84-.86-.84-1.52v-.07c0-.707.3-1.25.91-1.63.61-.387 1.47-.58 2.58-.58zm-1.72 2.25c0 .227.13.393.39.5.26.107.68.16 1.25.16.45 0 .84-.037 1.17-.11.33-.08.59-.19.77-.33-.09-.647-.74-.97-1.93-.97-1.1 0-1.65.233-1.65.7v.05zm14.07-2.25c.81 0 1.52.14 2.12.42.62.273 1.09.667 1.41 1.18.34.507.5 1.097.5 1.77v.08c0 .68-.16 1.273-.5 1.78-.32.507-.79.9-1.4 1.18-.6.273-1.31.41-2.13.41-.75 0-1.43-.123-2.03-.37-.6-.253-1.07-.597-1.41-1.03a2.41 2.41 0 01-.5-1.48v-.04h1.81v.04c0 .393.19.71.57.95.39.233.91.35 1.56.35.57 0 1.04-.093 1.4-.28.37-.193.62-.47.74-.83h-3.24V3h3.24c-.24-.74-.94-1.11-2.11-1.11-.42 0-.8.057-1.13.17-.32.107-.58.26-.76.46-.18.2-.27.43-.27.69v.04h-1.81v-.04c0-.553.17-1.05.5-1.49.34-.44.81-.783 1.41-1.03.6-.253 1.28-.38 2.03-.38zm9.35.13c.81 0 1.44.193 1.89.58.46.38.69.907.69 1.58v.1c0 .673-.23 1.203-.69 1.59-.45.387-1.08.58-1.89.58h-2.44V7h-1.77V.44h4.21zm-.04 2.89c.27 0 .47-.053.61-.16.14-.107.21-.263.21-.47v-.1c0-.2-.07-.353-.21-.46-.14-.107-.34-.16-.61-.16h-2.4v1.35h2.4zm9.13-2.89v1.58h-3.65V7h-1.77V.44h5.42zm6.59 6.29V7h-1.75l-.51-1.21h-3.06l-.51 1.21h-1.75v-.27l2.81-6.29h1.96l2.81 6.29zm-2.88-2.43l-.91-2.17-.91 2.17h1.82zm4.61 2.83c-.29 0-.53-.09-.72-.27a.95.95 0 01-.28-.71c0-.287.09-.517.28-.69.19-.18.43-.27.72-.27.3 0 .54.09.72.27.19.173.28.403.28.69 0 .293-.09.53-.28.71-.18.18-.42.27-.72.27zm12.16-3.48c.3.153.52.35.67.59.16.24.23.52.23.84v.1c0 .567-.22 1.013-.67 1.34-.44.32-1.05.48-1.83.48h-4.18V.44h3.98c.8 0 1.41.153 1.84.46.44.307.65.743.65 1.31v.1c0 .573-.23 1.02-.69 1.34zm-4.01-1.69V3h2.21c.25 0 .43-.037.54-.11.12-.08.18-.2.18-.36v-.1c0-.313-.24-.47-.72-.47h-2.21zm3.1 2.92c0-.327-.24-.49-.73-.49h-2.37v1.09h2.37c.49 0 .73-.167.73-.5v-.1zm6.7 2.25c-.8 0-1.51-.137-2.13-.41-.6-.28-1.07-.673-1.41-1.18-.32-.507-.49-1.1-.49-1.78v-.07c0-.68.17-1.273.49-1.78.34-.513.81-.907 1.41-1.18.62-.28 1.33-.42 2.13-.42.76 0 1.43.123 2.03.37.6.247 1.07.587 1.4 1.02.34.433.51.923.51 1.47v.08h-1.81v-.08c0-.367-.19-.66-.59-.88-.38-.22-.9-.33-1.54-.33-1.48 0-2.23.57-2.23 1.71v.12c0 .567.19.99.55 1.27.37.28.93.42 1.68.42.66 0 1.18-.107 1.56-.32.38-.213.57-.507.57-.88v-.07h1.81v.07a2.32 2.32 0 01-.51 1.47c-.33.433-.8.773-1.4 1.02-.6.24-1.27.36-2.03.36zm10.98-6.69v1.53h-4.19v.99h3.99v1.51h-3.99v1h4.19V7h-5.96V.44h5.96zm11.85 0V7h-1.78V2.02h-3.02V7h-1.77V.44h6.57zm5.62 0c.81 0 1.44.193 1.89.58.46.38.69.907.69 1.58v.1c0 .673-.23 1.203-.69 1.59-.45.387-1.08.58-1.89.58h-2.44V7h-1.77V.44h4.21zm-.04 2.89c.27 0 .47-.053.61-.16.14-.107.21-.263.21-.47v-.1c0-.2-.07-.353-.21-.46-.14-.107-.34-.16-.61-.16h-2.4v1.35h2.4zm9.75 3.4V7h-1.75l-.51-1.21h-3.06l-.51 1.21h-1.75v-.27l2.81-6.29h1.96l2.81 6.29zm-2.88-2.43l-.91-2.17-.91 2.17h1.82zm9.42-.65c.29.153.52.35.67.59.15.24.23.52.23.84v.1c0 .567-.22 1.013-.67 1.34-.44.32-1.05.48-1.83.48H1944V.44h3.98c.79 0 1.41.153 1.84.46.43.307.65.743.65 1.31v.1c0 .573-.23 1.02-.69 1.34zm-4.01-1.69V3h2.21c.25 0 .43-.037.54-.11.12-.08.18-.2.18-.36v-.1c0-.313-.24-.47-.72-.47h-2.21zm3.1 2.92c0-.327-.24-.49-.73-.49h-2.37v1.09h2.37c.49 0 .73-.167.73-.5v-.1zm9.57 1.85V7h-1.75l-.51-1.21h-3.06l-.51 1.21h-1.75v-.27l2.81-6.29h1.96l2.81 6.29zm-2.88-2.43l-.91-2.17-.91 2.17h1.82zm13.26-.64c.31.147.54.33.7.55.16.22.24.473.24.76v.11c0 .647-.31 1.15-.94 1.51-.62.36-1.49.54-2.61.54-1.25 0-2.2-.24-2.85-.72-.64-.487-.96-1.2-.96-2.14V4.2h1.78v.07c0 .447.17.773.49.98.34.2.87.3 1.6.3.55 0 .97-.05 1.25-.15.3-.107.44-.26.44-.46v-.1c0-.12-.04-.21-.13-.27-.08-.067-.22-.11-.44-.13a8.27 8.27 0 00-.95-.04h-1.35V3.02h1.3c.37 0 .65-.013.85-.04.21-.033.35-.083.43-.15.09-.067.13-.16.13-.28v-.1c0-.373-.55-.56-1.66-.56-.68 0-1.18.1-1.48.3-.29.193-.44.517-.44.97v.07h-1.78v-.07c0-.927.32-1.633.95-2.12.64-.487 1.57-.73 2.79-.73.71 0 1.32.08 1.83.24.52.16.91.39 1.18.69.28.293.41.647.41 1.06v.11c0 .54-.26.957-.78 1.25zm8.72 3.07V7h-1.75l-.51-1.21h-3.06l-.51 1.21h-1.75v-.27l2.81-6.29h1.96l2.81 6.29zm-2.88-2.43l-.91-2.17-.91 2.17h1.82zm14.81 1.12v2.91h-1.77V7h-9.39V.44h1.77v4.98h2.42V.44h1.77v4.98h2.42V.44h1.77v4.98h1.01zm2.67-4.98v4.12l3.25-4.12h1.77V7h-1.75V2.88L1992.16 7h-1.77V.44h1.75zm17.6 4.98v2.91h-1.77V7h-9.39V.44h1.77v4.98h2.42V.44h1.77v4.98h2.42V.44h1.77v4.98h1.01zm6.88-4.98v1.53h-4.19v.99h3.99v1.51h-3.99v1h4.19V7h-5.96V.44h5.96zm3.04 0v2.49h3.23V.44h1.77V7h-1.77V4.51h-3.23V7h-1.77V.44h1.77zm8.2 0v2.14h2.07c.83 0 1.47.183 1.91.55.45.367.67.893.67 1.58v.12c0 .7-.22 1.237-.67 1.61-.44.367-1.08.55-1.91.55h-3.84V.44h1.77zm6.92 0V7h-1.77V.44h1.77zm-4.89 5.02c.55 0 .82-.207.82-.62v-.12c0-.2-.07-.35-.21-.45-.14-.107-.34-.16-.61-.16h-2.03v1.35h2.03zm20.13-2v1.52h-9.82V3.46h9.82zm9.21 3.67c-.84 0-1.56-.137-2.18-.41-.62-.273-1.1-.66-1.44-1.16-.34-.507-.5-1.097-.5-1.77v-.13c0-.673.16-1.263.5-1.77.34-.507.82-.897 1.44-1.17.62-.273 1.35-.41 2.18-.41.82 0 1.54.137 2.16.41.62.273 1.09.663 1.43 1.17.33.5.5 1.09.5 1.77v.13c0 .68-.17 1.273-.5 1.78-.34.5-.81.887-1.43 1.16-.62.267-1.34.4-2.16.4zm.01-.99c.58 0 1.09-.093 1.53-.28.44-.193.77-.467 1.01-.82a2.2 2.2 0 00.36-1.25v-.13c0-.473-.12-.887-.36-1.24-.24-.36-.57-.637-1.01-.83-.44-.193-.95-.29-1.53-.29-.6 0-1.12.097-1.56.29-.44.193-.79.467-1.03.82-.24.353-.36.763-.36 1.23v.14c0 .473.12.89.36 1.25.24.353.59.627 1.03.82.44.193.96.29 1.56.29zm0-.53c-.46 0-.87-.073-1.21-.22a1.871 1.871 0 01-.81-.64c-.19-.28-.28-.603-.28-.97v-.13c0-.36.09-.677.28-.95.19-.28.46-.497.8-.65.34-.153.74-.23 1.19-.23.44 0 .83.07 1.18.21.34.14.61.333.81.58.19.247.29.527.29.84v.04h-1.3v-.04c0-.147-.09-.263-.27-.35-.18-.093-.41-.14-.69-.14-.66 0-.98.23-.98.69v.13c0 .213.08.383.26.51.18.12.42.18.74.18.3 0 .53-.043.69-.13.16-.087.25-.207.25-.36v-.04h1.3v.04c0 .32-.1.603-.29.85-.19.247-.45.44-.79.58-.34.133-.73.2-1.17.2zm15.52-.04V7h-6.4V5.64l3.3-1.84c.33-.187.58-.34.75-.46.17-.127.29-.24.35-.34a.73.73 0 00.1-.36v-.09c0-.24-.12-.423-.35-.55-.23-.133-.56-.2-.99-.2-.47 0-.83.083-1.08.25-.25.16-.37.397-.37.71v.2h-1.71v-.21c0-.807.26-1.413.79-1.82.52-.413 1.3-.62 2.34-.62.99 0 1.76.19 2.32.57.55.373.83.897.83 1.57v.1c0 .453-.16.863-.47 1.23-.31.36-.84.75-1.59 1.17l-1.12.62h3.3zm4.59 1.56c-.72 0-1.37-.13-1.93-.39a3.19 3.19 0 01-1.3-1.09 2.986 2.986 0 01-.46-1.63v-.59c0-.613.16-1.157.46-1.63.32-.473.75-.84 1.3-1.1.56-.26 1.21-.39 1.93-.39.73 0 1.37.13 1.92.39.56.26.98.627 1.28 1.1.31.467.46 1.01.46 1.63v.59c0 .62-.15 1.167-.46 1.64-.3.467-.72.83-1.28 1.09-.55.253-1.19.38-1.92.38zm0-1.65c1.27 0 1.9-.477 1.9-1.43v-.64c0-.473-.16-.833-.49-1.08-.32-.247-.8-.37-1.42-.37-.62 0-1.09.127-1.43.38-.32.247-.49.603-.49 1.07v.64c0 .473.17.83.49 1.07.33.24.81.36 1.44.36zm8.23 1.52h-1.77V2.56c-.27.1-.57.15-.9.15h-.99V1.06h.96c.32 0 .56-.047.71-.14.14-.1.22-.26.22-.48h1.77V7zm4.85-6.69c.76 0 1.41.107 1.95.32.55.213.97.52 1.25.92.29.393.43.867.43 1.42V4.3c0 .893-.32 1.587-.96 2.08-.64.493-1.54.74-2.7.74-1.06 0-1.89-.193-2.48-.58-.58-.393-.87-.943-.87-1.65v-.05h1.72v.05c0 .227.15.403.44.53.3.127.7.19 1.21.19.61 0 1.07-.11 1.39-.33.33-.22.49-.537.49-.95v-.18c-.49.32-1.19.48-2.1.48-1.04 0-1.85-.173-2.42-.52-.56-.353-.84-.86-.84-1.52v-.07c0-.707.31-1.25.91-1.63.61-.387 1.47-.58 2.58-.58zm-1.72 2.25c0 .227.13.393.39.5.26.107.68.16 1.25.16.46 0 .85-.037 1.17-.11.34-.08.59-.19.77-.33-.09-.647-.73-.97-1.93-.97-1.1 0-1.65.233-1.65.7v.05zm14.08-2.25c.81 0 1.51.14 2.12.42.61.273 1.08.667 1.41 1.18.33.507.5 1.097.5 1.77v.08c0 .68-.17 1.273-.5 1.78-.33.507-.79.9-1.4 1.18-.61.273-1.32.41-2.13.41-.75 0-1.43-.123-2.03-.37-.6-.253-1.07-.597-1.41-1.03a2.41 2.41 0 01-.5-1.48v-.04h1.81v.04c0 .393.19.71.57.95.39.233.91.35 1.56.35.57 0 1.03-.093 1.4-.28.37-.193.61-.47.74-.83h-3.24V3h3.24c-.24-.74-.94-1.11-2.11-1.11-.43 0-.8.057-1.13.17-.33.107-.58.26-.76.46-.18.2-.27.43-.27.69v.04h-1.81v-.04c0-.553.17-1.05.5-1.49.34-.44.81-.783 1.41-1.03.6-.253 1.28-.38 2.03-.38zm9.35.13c.81 0 1.44.193 1.89.58.46.38.69.907.69 1.58v.1c0 .673-.23 1.203-.69 1.59-.45.387-1.08.58-1.89.58h-2.44V7h-1.77V.44h4.21zm-.04 2.89c.27 0 .47-.053.61-.16.14-.107.21-.263.21-.47v-.1c0-.2-.07-.353-.21-.46-.14-.107-.34-.16-.61-.16h-2.4v1.35h2.4zm9.12-2.89v1.58h-3.65V7h-1.77V.44h5.42zm6.6 6.29V7h-1.75l-.51-1.21h-3.06l-.51 1.21h-1.75v-.27l2.81-6.29h1.96l2.81 6.29zm-2.88-2.43l-.91-2.17-.91 2.17h1.82zm4.6 2.83c-.29 0-.53-.09-.72-.27a.989.989 0 01-.28-.71c0-.287.1-.517.28-.69.19-.18.43-.27.72-.27.3 0 .54.09.72.27.19.173.28.403.28.69 0 .293-.09.53-.28.71-.18.18-.42.27-.72.27zm12.17-3.48c.29.153.51.35.67.59.15.24.23.52.23.84v.1c0 .567-.23 1.013-.67 1.34-.44.32-1.05.48-1.83.48h-4.18V.44h3.98c.79 0 1.4.153 1.84.46.43.307.65.743.65 1.31v.1c0 .573-.23 1.02-.69 1.34zm-4.01-1.69V3h2.21c.24 0 .42-.037.54-.11.12-.08.18-.2.18-.36v-.1c0-.313-.24-.47-.72-.47h-2.21zm3.1 2.92c0-.327-.25-.49-.73-.49h-2.37v1.09h2.37c.48 0 .73-.167.73-.5v-.1zm6.7 2.25c-.81 0-1.52-.137-2.13-.41-.61-.28-1.08-.673-1.41-1.18-.33-.507-.49-1.1-.49-1.78v-.07c0-.68.16-1.273.49-1.78.33-.513.8-.907 1.41-1.18.61-.28 1.32-.42 2.13-.42.75 0 1.43.123 2.03.37.6.247 1.07.587 1.4 1.02.34.433.51.923.51 1.47v.08h-1.81v-.08c0-.367-.2-.66-.59-.88-.39-.22-.9-.33-1.54-.33-1.49 0-2.23.57-2.23 1.71v.12c0 .567.18.99.55 1.27.37.28.93.42 1.68.42.66 0 1.18-.107 1.56-.32.38-.213.57-.507.57-.88v-.07h1.81v.07a2.32 2.32 0 01-.51 1.47c-.33.433-.8.773-1.4 1.02-.6.24-1.28.36-2.03.36zm10.98-6.69v1.53h-4.19v.99h3.99v1.51h-3.99v1h4.19V7h-5.96V.44h5.96zm11.84 0V7h-1.77V2.02h-3.03V7h-1.77V.44h6.57zm5.63 0c.8 0 1.43.193 1.89.58.46.38.69.907.69 1.58v.1c0 .673-.23 1.203-.69 1.59-.46.387-1.09.58-1.89.58h-2.44V7h-1.77V.44h4.21zm-.04 2.89c.26 0 .47-.053.61-.16.14-.107.21-.263.21-.47v-.1c0-.2-.07-.353-.21-.46-.14-.107-.35-.16-.61-.16h-2.4v1.35h2.4zm9.74 3.4V7h-1.75l-.51-1.21h-3.06l-.51 1.21h-1.75v-.27l2.81-6.29h1.96l2.81 6.29zm-2.88-2.43l-.91-2.17-.91 2.17h1.82zm9.43-.65c.29.153.51.35.67.59.15.24.23.52.23.84v.1c0 .567-.23 1.013-.67 1.34-.44.32-1.05.48-1.83.48h-4.18V.44h3.98c.79 0 1.4.153 1.84.46.43.307.65.743.65 1.31v.1c0 .573-.23 1.02-.69 1.34zm-4.01-1.69V3h2.21c.24 0 .42-.037.54-.11.12-.08.18-.2.18-.36v-.1c0-.313-.24-.47-.72-.47h-2.21zm3.1 2.92c0-.327-.25-.49-.73-.49h-2.37v1.09h2.37c.48 0 .73-.167.73-.5v-.1zm9.56 1.85V7h-1.75l-.51-1.21h-3.06l-.51 1.21h-1.75v-.27l2.81-6.29h1.96l2.81 6.29zm-2.88-2.43l-.91-2.17-.91 2.17h1.82zm13.27-.64c.3.147.54.33.7.55.16.22.24.473.24.76v.11c0 .647-.32 1.15-.94 1.51-.63.36-1.5.54-2.61.54-1.26 0-2.21-.24-2.85-.72-.64-.487-.96-1.2-.96-2.14V4.2h1.78v.07c0 .447.16.773.49.98.33.2.86.3 1.6.3.54 0 .96-.05 1.25-.15.29-.107.44-.26.44-.46v-.1c0-.12-.05-.21-.13-.27-.08-.067-.23-.11-.44-.13-.22-.027-.53-.04-.95-.04h-1.35V3.02h1.3c.36 0 .65-.013.85-.04.2-.033.35-.083.43-.15.08-.067.13-.16.13-.28v-.1c0-.373-.56-.56-1.66-.56-.69 0-1.18.1-1.48.3-.3.193-.44.517-.44.97v.07h-1.78v-.07c0-.927.31-1.633.95-2.12.64-.487 1.57-.73 2.79-.73.7 0 1.31.08 1.83.24.51.16.9.39 1.18.69.27.293.41.647.41 1.06v.11c0 .54-.26.957-.78 1.25zm8.72 3.07V7h-1.75l-.51-1.21h-3.06l-.51 1.21h-1.75v-.27l2.81-6.29h1.96l2.81 6.29zm-2.88-2.43l-.91-2.17-.91 2.17h1.82zm14.8 1.12v2.91h-1.77V7h-9.39V.44h1.77v4.98h2.42V.44h1.77v4.98h2.42V.44h1.77v4.98h1.01zm2.67-4.98v4.12l3.25-4.12h1.77V7h-1.75V2.88L2236.57 7h-1.77V.44h1.75zm17.61 4.98v2.91h-1.77V7H2243V.44h1.77v4.98h2.42V.44h1.77v4.98h2.42V.44h1.77v4.98h1.01zm6.88-4.98v1.53h-4.19v.99h3.99v1.51h-3.99v1h4.19V7h-5.96V.44h5.96zm3.03 0v2.49h3.23V.44h1.77V7h-1.77V4.51h-3.23V7h-1.77V.44h1.77zm8.21 0v2.14h2.07c.83 0 1.47.183 1.91.55.44.367.67.893.67 1.58v.12c0 .7-.23 1.237-.67 1.61-.44.367-1.08.55-1.91.55h-3.84V.44h1.77zm6.92 0V7h-1.77V.44h1.77zm-4.89 5.02c.54 0 .82-.207.82-.62v-.12c0-.2-.07-.35-.21-.45-.14-.107-.35-.16-.61-.16h-2.03v1.35h2.03zm20.13-2v1.52h-9.82V3.46h9.82z" fill="#9090FF"/></svg>