<svg width="343" height="302" fill="none" xmlns="http://www.w3.org/2000/svg"><path d="M262.113 163C304.314 147.9 332 122.544 332 93.812 332 47.525 260.142 10 171.5 10S11 47.524 11 93.813C11 122.543 38.686 147.9 80.887 163" stroke="#DADADA"/><path d="M166 9.5l8.25-4.763v9.526L166 9.5zm0 43.5l8.25-4.33v8.66L166 53zM23.05 125.148l-8.76-3.742 7.62-5.716 1.14 9.458zm302.877-8.629l.456 9.515-8.468-4.363 8.012-5.152zm-70.909-77.401l9.423-1.403-3.496 8.861-5.927-7.458zM78.016 43.153l5.93-7.457 3.492 8.863-9.422-1.406z" fill="#DADADA"/><path d="M255.903 167C295.211 153.084 321 129.717 321 103.239 321 60.581 254.067 26 171.5 26S22 60.581 22 103.239c0 26.478 25.789 49.845 65.097 63.761" stroke="#DADADA"/><path d="M250.821 169C287.764 157.551 312 138.328 312 116.544 312 81.45 249.096 53 171.5 53S31 81.45 31 116.544c0 21.784 24.236 41.007 61.178 52.456" stroke="#DADADA"/><path d="M262.113 138C304.314 153.1 332 178.456 332 207.187 332 253.476 260.142 291 171.5 291S11 253.476 11 207.188C11 178.456 38.686 153.1 80.887 138" stroke="#DADADA"/><path d="M166 291.5l8.25 4.763v-9.526L166 291.5zm0-43.5l8.25 4.33v-8.66L166 248zM23.05 175.852l-8.76 3.742 7.62 5.716 1.14-9.458zm302.877 8.629l.456-9.515-8.468 4.363 8.012 5.152zm-70.909 77.401l9.423 1.403-3.496-8.861-5.927 7.458zm-177.002-4.034l5.93 7.456 3.492-8.863-9.422 1.407z" fill="#DADADA"/><path d="M255.903 134C295.211 147.916 321 171.283 321 197.761 321 240.419 254.067 275 171.5 275S22 240.419 22 197.761c0-26.478 25.789-49.845 65.097-63.761" stroke="#DADADA"/><path d="M250.821 132C287.764 143.449 312 162.672 312 184.456 312 219.55 249.096 248 171.5 248S31 219.55 31 184.456c0-21.784 24.236-41.007 61.178-52.456" stroke="#DADADA"/><circle class="circleOne" r="6" fill="#DF0112"><animateMotion dur="5s" repeatCount="indefinite"/><animate attributeName="fill" values="#0000BD;#DF0112;#0000BD" dur="5s" repeatCount="indefinite"/><animate attributeName="r" values="6;10;6" dur="5s" repeatCount="indefinite"/><animate attributeType="CSS" attributeName="opacity" from="0" to="1" dur="0.1s" repeatCount="once" fill="freeze"/></circle><circle class="circleTwo" r="6" fill="#DF0112"><animateMotion dur="5s" repeatCount="indefinite"/><animate attributeName="fill" values="#0000BD;#DF0112;#0000BD" dur="5s" repeatCount="indefinite"/><animate attributeName="r" values="6;10;6" dur="5s" repeatCount="indefinite"/><animate attributeType="CSS" attributeName="opacity" from="0" to="1" dur="0.1s" repeatCount="once" fill="freeze"/></circle><path fill="#0000BD" d="M51 109h125v80H51z"/><path fill="#DF0112" d="M176 109h115v80H176z"/><path d="M87.55 131.55c4.033 0 7.567.7 10.6 2.1 3.067 1.367 5.417 3.333 7.05 5.9 1.667 2.533 2.5 5.483 2.5 8.85v.4c0 3.4-.833 6.367-2.5 8.9-1.633 2.533-3.967 4.5-7 5.9-3.033 1.367-6.583 2.05-10.65 2.05-3.767 0-7.15-.617-10.15-1.85-3-1.267-5.35-2.983-7.05-5.15-1.667-2.2-2.5-4.667-2.5-7.4v-.2h9.05v.2c0 1.967.95 3.55 2.85 4.75 1.933 1.167 4.533 1.75 7.8 1.75 2.833 0 5.167-.467 7-1.4 1.833-.967 3.067-2.35 3.7-4.15h-16.2V145h16.2c-1.2-3.7-4.717-5.55-10.55-5.55-2.133 0-4.017.283-5.65.85-1.633.533-2.9 1.3-3.8 2.3-.9 1-1.35 2.15-1.35 3.45v.2h-9.05v-.2c0-2.767.833-5.25 2.5-7.45 1.7-2.2 4.05-3.917 7.05-5.15 3-1.267 6.383-1.9 10.15-1.9zm64.251.65c4.034 0 7.184.967 9.45 2.9 2.3 1.9 3.45 4.533 3.45 7.9v.5c0 3.367-1.15 6.017-3.45 7.95-2.266 1.933-5.416 2.9-9.45 2.9h-12.2V165h-8.85v-32.8h21.05zm-.2 14.45c1.334 0 2.35-.267 3.05-.8.7-.533 1.05-1.317 1.05-2.35v-.5c0-1-.35-1.767-1.05-2.3-.7-.533-1.716-.8-3.05-.8h-12v6.75h12zm63.106-14.45v7.9h-18.25V165h-8.85v-32.8h27.1zm59.989 31.45V165h-8.75l-2.55-6.05h-15.3l-2.55 6.05h-8.75v-1.35l14.05-31.45h9.8l14.05 31.45zm-14.4-12.15l-4.55-10.85-4.55 10.85h9.1z" fill="#fff"/></svg>