<svg width="95" height="67" fill="none" xmlns="http://www.w3.org/2000/svg"><path fill-rule="evenodd" clip-rule="evenodd" d="M8.273 2.125h50.292c17.647 0 32.278 13.318 34.479 30.436H74.378c-1.875-6.333-7.784-10.99-14.713-10.99H4.157L0 2.125h8.273z" fill="#0000BD"/><path d="M87.623 1.961c.734-.695 1.671-1.144 2.69-1.144s1.956.45 2.69 1.144c.734.776 1.141 1.634 1.141 2.778a3.618 3.618 0 01-1.141 2.656c-.734.735-1.671 1.143-2.69 1.143s-1.956-.408-2.69-1.143c-.733-.695-1.14-1.635-1.06-2.656-.04-1.144.367-1.961 1.06-2.778zM90.353 0c-1.222 0-2.363.49-3.26 1.348-.896.94-1.426 2.043-1.426 3.391 0 1.226.49 2.329 1.426 3.227.897.94 2.038 1.349 3.26 1.349 1.305 0 2.405-.409 3.302-1.349C94.552 7.068 95 6.006 95 4.74c0-1.348-.448-2.41-1.345-3.39C92.758.49 91.617 0 90.354 0z" fill="#0000BD"/><path d="M89.457 4.33h.652c.408 0 .693 0 .775-.04.122-.041.203-.082.244-.205a.77.77 0 00.082-.327c0-.163-.041-.285-.123-.367-.081-.082-.203-.164-.326-.164h-1.345V4.33h.041zm-.896 2.493V2.45h1.874c.449 0 .815.041 1.02.123a.952.952 0 01.488.408c.123.205.204.45.204.695 0 .327-.082.613-.285.817-.204.204-.49.368-.856.408.204.123.367.246.489.368.122.123.285.368.489.695l.53.858h-1.06l-.652-.94c-.245-.327-.367-.572-.448-.654-.082-.081-.163-.163-.285-.163-.082-.041-.245-.041-.449-.041h-.163v1.838h-.896v-.04z" fill="#0000BD"/><path d="M56.935 35.297h4.605l-2.2-4.29h-.123l-2.282 4.29zm-2.608 5.107h-3.22l6.113-11.562h4.076l6.072 11.562h-3.22l-1.467-2.9h-6.806l-1.548 2.9zM39.166 28.842h9.862v2.288h-7.132v9.274h-2.771V28.842h.04zM25.798 31.13v3.554h4.605c.693 0 1.142-.122 1.386-.408s.408-.736.408-1.39c0-.612-.123-1.061-.367-1.307-.285-.285-.734-.449-1.427-.449h-4.605zm0 5.842v3.391h-2.771v-11.52h7.865c1.468 0 2.487.326 3.139.939.61.613.937 1.675.937 3.105 0 1.47-.326 2.533-.938 3.145-.61.654-1.63.94-3.097.94h-5.135zM8.966 33.541h6.847v-.49c0-.9-.122-1.43-.408-1.676-.285-.245-.896-.327-1.833-.327h-3.546c-.815 0-1.345.123-1.712.368-.326.245-.489.695-.489 1.266H5.054c0-1.511.407-2.573 1.222-3.186.693-.49 1.794-.776 3.26-.776h4.565c1.712 0 2.853.286 3.505.858.612.572.938 1.675.938 3.35v3.39c0 1.553-.286 2.615-.897 3.228-.611.572-1.712.899-3.301.899H9.25c-1.67 0-2.77-.286-3.341-.817-.571-.572-.816-1.635-.816-3.187h2.772c0 .695.163 1.144.489 1.39.326.244.896.326 1.752.326h3.546c.815 0 1.386-.123 1.712-.368.367-.286.53-.858.53-1.716v-.53H8.966V33.54z" fill="#2B2A29"/><path fill-rule="evenodd" clip-rule="evenodd" d="M8.273 67h50.292c17.647 0 32.278-13.36 34.479-30.436H74.378c-1.875 6.332-7.784 10.99-14.713 10.99H4.157L0 67h8.273z" fill="#E31E24"/></svg>