<svg width="96" height="67" fill="none" xmlns="http://www.w3.org/2000/svg"><path fill-rule="evenodd" clip-rule="evenodd" d="M8.36 2.125h50.821c17.833 0 32.618 13.318 34.842 30.435H75.161c-1.895-6.332-7.866-10.99-14.868-10.99H4.201L0 2.126h8.36zM91.305 0c-1.236 0-2.389.49-3.295 1.348-.906.94-1.441 2.043-1.441 3.391 0 1.226.494 2.329 1.441 3.227.906.94 2.06 1.349 3.295 1.349 1.318 0 2.43-.409 3.336-1.349C95.547 7.068 96 6.006 96 4.74c0-1.348-.453-2.41-1.36-3.39C93.736.49 92.583 0 91.306 0zm-2.76 1.961c.742-.695 1.69-1.144 2.719-1.144 1.03 0 1.977.45 2.718 1.144.741.776 1.153 1.634 1.153 2.778a3.6 3.6 0 01-1.153 2.656c-.741.735-1.689 1.143-2.718 1.143-1.03 0-1.977-.408-2.718-1.143-.742-.695-1.154-1.635-1.071-2.656-.041-1.144.37-1.961 1.07-2.778z" fill="#0000BD"/><path fill-rule="evenodd" clip-rule="evenodd" d="M89.493 6.823V2.45h1.894c.453 0 .824.041 1.03.123a.96.96 0 01.494.408c.124.205.206.45.206.695 0 .327-.082.613-.288.817a1.434 1.434 0 01-.865.408c.206.123.37.246.494.368.124.123.288.368.494.695l.536.858h-1.071l-.659-.94c-.247-.327-.37-.572-.453-.654-.082-.081-.165-.163-.288-.163-.083-.041-.247-.041-.453-.041h-.165v1.838h-.906v-.04zm.906-2.493h.659c.412 0 .7 0 .782-.04.124-.041.206-.082.248-.205a.765.765 0 00.082-.327c0-.163-.041-.285-.124-.367-.082-.082-.206-.164-.33-.164h-1.358V4.33h.041z" fill="#0000BD"/><path fill-rule="evenodd" clip-rule="evenodd" d="M5.436 40.404V28.843h11.902v2.165H8.237v2.533h8.813v2.002H8.237v2.655h9.101v2.165H5.437v.041zM23.27 31.13v3.555h5.807c.576 0 .988-.123 1.235-.409.247-.286.371-.735.371-1.389s-.123-1.062-.33-1.348c-.247-.286-.658-.45-1.276-.45H23.27v.041zm10.42 9.274h-2.801v-1.797c0-.572-.165-.98-.535-1.226-.33-.245-.906-.409-1.689-.409H23.27v3.432h-2.8V28.843h8.854c1.318 0 2.306.286 2.965.817.783.653 1.153 1.715 1.153 3.268 0 .817-.164 1.47-.535 2.002-.247.367-.659.735-1.194 1.021.618.204 1.112.45 1.359.736.33.326.535.776.535 1.348v2.37h.082zm9.513-6.782h7.372v3.065c0 1.348-.33 2.328-.947 2.86-.66.53-1.73.816-3.254.816h-5.642c-1.441 0-2.512-.327-3.254-.94-.7-.612-1.07-1.633-1.07-3.023v-3.554c0-1.511.33-2.614.988-3.227.659-.613 1.771-.94 3.295-.94h5.6c1.483 0 2.554.245 3.172.695.741.53 1.07 1.47 1.07 2.86h-2.8c0-.45-.164-.777-.494-.94-.33-.204-.906-.286-1.73-.286H41.39c-.865 0-1.441.163-1.771.49-.33.327-.494.899-.494 1.757v2.941c0 .776.123 1.308.412 1.553.288.245.864.367 1.812.367h4.571c.66 0 1.153-.081 1.4-.286.248-.204.371-.49.371-.94v-1.225h-4.613v-2.042h.124zm12.726 6.782h-3.254l6.178-11.561h4.118l6.137 11.561h-3.254l-1.482-2.9h-6.878l-1.565 2.9zm2.636-5.107h4.654l-2.224-4.29h-.124l-2.306 4.29z" fill="#2B2A29"/><path fill-rule="evenodd" clip-rule="evenodd" d="M8.36 67h50.821C77.014 67 91.8 53.682 94.023 36.564H75.161c-1.895 6.332-7.866 10.99-14.868 10.99H4.201L0 67h8.36z" fill="#E31E24"/></svg>