<svg width="27" height="89" fill="none" xmlns="http://www.w3.org/2000/svg"><path fill-rule="evenodd" clip-rule="evenodd" d="M26 73.475v8.195H10.78c.138.681.205 1.4.205 2.15v4.465H3.21v-4.36c0-1.076-.16-1.663-.325-1.934-.12-.169-.33-.32-.845-.32h-1v-8.196H26zM3.72 81.44c.327.513.49 1.342.49 2.485v3.36h5.775V83.82c0-.767-.076-1.484-.227-2.15a7.703 7.703 0 00-.298-1H25v-6.195H2.04v6.195c.77 0 1.33.257 1.68.77zm14.72-12.169a8.41 8.41 0 01-.825.04h-.175v-6.02h.175c.793 0 1.412-.514 1.855-1.54.443-1.027.665-2.439.665-4.235 0-2.124-.385-3.745-1.155-4.865-.67-.994-1.594-1.556-2.775-1.686-.178-.02-.36-.03-.55-.03h-.63c.201.31.384.644.55 1 .753 1.63 1.13 3.747 1.13 6.35 0 3.664-.607 6.487-1.82 8.47-1.237 1.96-3.01 2.94-5.32 2.94H9.32c-2.473 0-4.375-1.061-5.705-3.184-1.353-2.124-2.03-5.134-2.03-9.03 0-2.637.373-4.912 1.12-6.825.747-1.914 1.82-3.372 3.22-4.375 1.377-1.004 3.033-1.505 4.97-1.505h4.655c3.127 0 5.553 1.12 7.28 3.36 1.727 2.24 2.59 5.39 2.59 9.45 0 3.733-.677 6.626-2.03 8.68-1.22 1.798-2.87 2.8-4.95 3.005zm-13.1-23.8c-1.585 1.136-2.764 2.764-3.567 4.821C.971 52.35.585 54.753.585 57.481c0 3.989.689 7.215 2.184 9.564 1.51 2.408 3.729 3.65 6.551 3.65h.245c2.655 0 4.747-1.156 6.166-3.406l.007-.011c.261-.427.495-.885.702-1.373v4.406h1.175c2.802 0 5.038-1.177 6.603-3.484l.007-.011c1.503-2.28 2.195-5.396 2.195-9.23 0-4.188-.889-7.584-2.798-10.06-1.938-2.515-4.673-3.75-8.072-3.75h-4.655c-2.117 0-3.986.551-5.556 1.694zm12.084 16.82h.191c.232 0 .576-.1.937-.937.366-.848.583-2.105.583-3.838 0-2.027-.372-3.415-.98-4.299l-.005-.008c-.372-.552-.834-.924-1.423-1.117.668 1.71.978 3.79.978 6.194 0 1.443-.091 2.78-.28 4.005zm1.016-20.535a8.41 8.41 0 01-.825.04h-.175v-6.02h.175c.793 0 1.412-.513 1.855-1.54.443-1.027.665-2.438.665-4.235 0-2.123-.385-3.745-1.155-4.865-.67-.994-1.594-1.556-2.775-1.686a4.91 4.91 0 00-.55-.029h-.63c.201.31.384.643.55 1 .753 1.63 1.13 3.747 1.13 6.35 0 3.663-.607 6.487-1.82 8.47-1.237 1.96-3.01 2.94-5.32 2.94H9.32c-2.473 0-4.375-1.062-5.705-3.185-1.353-2.123-2.03-5.133-2.03-9.03 0-2.637.373-4.912 1.12-6.825.747-1.913 1.82-3.372 3.22-4.375 1.377-1.003 3.033-1.505 4.97-1.505h4.655c3.127 0 5.553 1.12 7.28 3.36 1.727 2.24 2.59 5.39 2.59 9.45 0 3.733-.677 6.627-2.03 8.68-1.22 1.799-2.87 2.8-4.95 3.005zm-13.1-23.8c-1.585 1.136-2.764 2.764-3.567 4.822-.802 2.056-1.188 4.46-1.188 7.188 0 3.99.689 7.215 2.185 9.564 1.51 2.409 3.728 3.651 6.55 3.651h.245c2.655 0 4.747-1.157 6.166-3.406l.007-.012c.261-.427.495-.885.702-1.373v4.406h1.175c2.802 0 5.038-1.176 6.603-3.484l.007-.01c1.503-2.282 2.195-5.396 2.195-9.231 0-4.188-.889-7.584-2.798-10.06-1.938-2.514-4.673-3.75-8.072-3.75h-4.655c-2.117 0-3.986.552-5.556 1.695zm12.084 16.82h.191c.232 0 .576-.1.937-.936.366-.849.583-2.106.583-3.839 0-2.026-.372-3.415-.98-4.298l-.005-.008c-.372-.553-.834-.925-1.423-1.117.668 1.71.978 3.79.978 6.193 0 1.443-.091 2.78-.28 4.005zM26 .296v8.195H10.78c.138.682.205 1.4.205 2.15v4.465H3.21v-4.36c0-1.076-.16-1.663-.325-1.934-.12-.169-.33-.32-.845-.32h-1V.295H26zM3.72 8.261c.327.514.49 1.342.49 2.485v3.36h5.775v-3.465a9.72 9.72 0 00-.227-2.15 7.704 7.704 0 00-.298-1H25V1.296H2.04v6.195c.77 0 1.33.257 1.68.77zm6.157 54.11c.117-.091.266-.27.408-.615.295-.72.485-2.012.485-3.995 0-1.534-.124-2.82-.36-3.87-.178-.74-.392-1.323-.628-1.77-.49.21-.887.6-1.205 1.232-.464.924-.742 2.35-.742 4.373 0 1.884.204 3.166.533 3.94.16.377.327.58.463.687a.687.687 0 00.454.148h.175c.191 0 .315-.05.417-.13zm.353-11.4c.49.63.875 1.528 1.155 2.695.257 1.143.385 2.508.385 4.095 0 2.006-.187 3.465-.56 4.375-.373.91-.957 1.365-1.75 1.365h-.175c-1.633 0-2.45-1.925-2.45-5.775 0-4.177 1.132-6.429 3.395-6.755zm-.353-16.115c.117-.09.266-.27.408-.614.295-.72.485-2.012.485-3.996 0-1.534-.124-2.819-.36-3.869-.178-.741-.392-1.324-.628-1.77-.49.21-.887.6-1.205 1.232-.464.924-.742 2.35-.742 4.372 0 1.885.204 3.166.533 3.94.16.378.327.581.463.688a.687.687 0 00.454.147h.175c.191 0 .315-.05.417-.13zm.353-11.4c.49.63.875 1.528 1.155 2.695.257 1.143.385 2.508.385 4.095 0 2.007-.187 3.465-.56 4.375-.373.91-.957 1.365-1.75 1.365h-.175c-1.633 0-2.45-1.925-2.45-5.775 0-4.177 1.132-6.428 3.395-6.755z" fill="#313131"/></svg>