<svg width="27" height="99" fill="none" xmlns="http://www.w3.org/2000/svg"><path fill-rule="evenodd" clip-rule="evenodd" d="M18.995 74.325H26v24.4h-6.347l-6.725-12.061-.001-.002c-.646-1.153-1.16-1.988-1.546-2.525-.419-.572-.72-.849-.896-.954l-.007-.005-.008-.005a1.33 1.33 0 00-.73-.198h-.315c-.25 0-.43.059-.574.15-.15.095-.314.26-.472.552l-.008.015-.01.015c-.334.57-.561 1.517-.561 2.958 0 1.536.278 2.573.71 3.23l.004.006c.362.557.861.84 1.646.84h1.7v7.984h-1.735c-3.058 0-5.506-1.011-7.16-3.15-1.64-2.093-2.38-5.081-2.38-8.805 0-3.585.683-6.517 2.168-8.683 1.495-2.213 3.638-3.342 6.322-3.342h.35c1.84 0 3.502.644 4.953 1.884M3.58 78.65c-1.33 1.937-1.995 4.643-1.995 8.12 0 3.617.723 6.347 2.17 8.19 1.378 1.785 3.413 2.706 6.105 2.762.088.002.176.003.265.003h.735V91.74h-.7c-1.097 0-1.925-.432-2.485-1.295-.583-.887-.875-2.147-.875-3.78 0-1.517.233-2.672.7-3.465.443-.817 1.085-1.225 1.925-1.225h.315c.467 0 .887.117 1.26.35.35.21.747.618 1.19 1.225.42.583.957 1.458 1.61 2.625l6.44 11.55H25v-22.4h-5.005v11.55l-2.17-3.92c-1.47-2.637-2.835-4.492-4.095-5.565-1.283-1.097-2.718-1.645-4.305-1.645h-.35c-2.357 0-4.188.968-5.495 2.905zm10.8-2.02c1.396 1.19 2.83 3.17 4.318 5.838l.002.003.295.533v-8.679m6.002-7.92l-.002.004c-.98 2.086-2.366 3.749-4.163 4.955l-.006.005-.007.005c-1.833 1.187-3.927 1.77-6.249 1.77h-2.065c-2.322 0-4.416-.583-6.249-1.77l-.008-.006c-1.821-1.206-3.221-2.87-4.203-4.959l-.002-.004C1.062 64.292.585 61.892.585 59.23c0-2.663.477-5.053 1.46-7.145.982-2.09 2.384-3.734 4.213-4.895 1.812-1.19 3.907-1.77 6.247-1.77h2.065c2.342 0 4.448.582 6.282 1.77 1.807 1.162 3.197 2.807 4.178 4.895l.004.009c.957 2.09 1.421 4.477 1.421 7.136 0 2.663-.477 5.063-1.458 7.176zM20.31 48.03c-1.657-1.073-3.57-1.61-5.74-1.61h-2.065c-2.17 0-4.072.537-5.705 1.61-1.657 1.05-2.94 2.543-3.85 4.48-.91 1.937-1.365 4.177-1.365 6.72 0 2.544.455 4.795 1.365 6.755.91 1.937 2.193 3.454 3.85 4.55 1.657 1.073 3.558 1.61 5.705 1.61h2.065c2.147 0 4.048-.537 5.705-1.61 1.633-1.097 2.905-2.613 3.815-4.55.91-1.96 1.365-4.211 1.365-6.755 0-2.543-.443-4.783-1.33-6.72-.91-1.937-2.182-3.43-3.815-4.48zM9.486 63.664l.002.003c.646.855 1.577 1.317 2.947 1.317h2.24c1.4 0 2.32-.465 2.94-1.307.66-.9 1.065-2.332 1.065-4.448 0-2.12-.404-3.527-1.05-4.386-.606-.805-1.53-1.264-2.955-1.264h-2.24c-1.399 0-2.339.466-2.982 1.318-.68.9-1.093 2.309-1.093 4.367 0 2.052.422 3.473 1.126 4.4zm15.511-25.867l-.002.004c-.98 2.086-2.366 3.749-4.163 4.955l-.006.005-.007.004c-1.833 1.188-3.927 1.77-6.249 1.77h-2.065c-2.322 0-4.416-.582-6.249-1.77l-.008-.005c-1.821-1.206-3.221-2.87-4.203-4.959l-.002-.004C1.062 35.684.585 33.284.585 30.62c0-2.663.477-5.053 1.46-7.145.982-2.09 2.384-3.735 4.213-4.895 1.812-1.19 3.907-1.77 6.247-1.77h2.065c2.342 0 4.448.582 6.282 1.77 1.807 1.161 3.197 2.806 4.178 4.895l.004.009c.957 2.09 1.421 4.476 1.421 7.136 0 2.663-.477 5.063-1.458 7.176zM20.31 19.42c-1.657-1.073-3.57-1.61-5.74-1.61h-2.065c-2.17 0-4.072.537-5.705 1.61-1.657 1.05-2.94 2.543-3.85 4.48-.91 1.936-1.365 4.177-1.365 6.72s.455 4.795 1.365 6.755c.91 1.937 2.193 3.453 3.85 4.55 1.657 1.073 3.558 1.61 5.705 1.61h2.065c2.147 0 4.048-.537 5.705-1.61 1.633-1.097 2.905-2.614 3.815-4.55.91-1.96 1.365-4.212 1.365-6.755s-.443-4.784-1.33-6.72c-.91-1.937-2.182-3.43-3.815-4.48zM9.486 35.056l.002.002c.646.856 1.577 1.318 2.947 1.318h2.24c1.4 0 2.32-.466 2.94-1.307.66-.9 1.065-2.333 1.065-4.448 0-2.12-.404-3.528-1.05-4.386-.606-.806-1.53-1.264-2.955-1.264h-2.24c-1.399 0-2.339.466-2.982 1.317-.68.901-1.093 2.31-1.093 4.368 0 2.052.422 3.473 1.126 4.4zM26 .837v8.195H10.78c.138.682.205 1.4.205 2.15v4.465H3.21v-4.36c0-1.076-.16-1.663-.325-1.934-.12-.169-.33-.32-.845-.32h-1V.836H26zM3.72 8.802c.327.514.49 1.342.49 2.485v3.36h5.775v-3.465a9.72 9.72 0 00-.227-2.15 7.705 7.705 0 00-.298-1H25V1.837H2.04v6.195c.77 0 1.33.257 1.68.77zM14.675 52.58c3.337 0 5.005 2.217 5.005 6.65 0 2.217-.42 3.897-1.26 5.04-.84 1.143-2.088 1.715-3.745 1.715h-2.24c-1.633 0-2.882-.572-3.745-1.715-.887-1.167-1.33-2.835-1.33-5.005s.432-3.827 1.295-4.97c.863-1.143 2.123-1.715 3.78-1.715h2.24zm0-28.608c3.337 0 5.005 2.216 5.005 6.65 0 2.216-.42 3.896-1.26 5.04-.84 1.143-2.088 1.715-3.745 1.715h-2.24c-1.633 0-2.882-.572-3.745-1.715-.887-1.167-1.33-2.835-1.33-5.005s.432-3.827 1.295-4.97c.863-1.143 2.123-1.715 3.78-1.715h2.24z" fill="#313131"/></svg>