<svg width="70" height="93" fill="none" xmlns="http://www.w3.org/2000/svg"><path d="M63.2 75.408l-8.9 5.1c.5.8 1.1 1.7.9 2.3 0 .1-.1.2-.1.3l-1.2.7c-.2.1-.3.3-.4.5-.5 1.5.2 3.9-.2 5.5-.2.9-.6 1.5-1 1.7l8.9-5.1c.5-.3.8-.8 1-1.7.4-1.6-.3-4 .2-5.5 0-.1.1-.1.1-.2l1.2-.7c.2-.1.4-.3.5-.6.1-.7-.4-1.5-1-2.3z" fill="#fff"/><path d="M52.2 92.108c-.2 0-.4-.1-.5-.3-.1-.3-.1-.6.2-.7.3-.2.6-.7.8-1.4.2-.7.1-1.6.1-2.6-.1-1-.1-2.1.1-3 .1-.3.3-.6.7-.8l1.1-.6c.1-.6-.6-1.6-.8-1.9-.1-.1-.1-.3-.1-.4 0-.1.1-.3.3-.3l8.9-5.1c.2-.1.5-.1.7.2.6.9 1.2 1.9 1 2.8-.1.4-.3.7-.7.9l-1.1.6c-.2.7-.2 1.7-.1 2.6.1 1 .1 2-.1 2.9-.3 1.1-.7 1.7-1.3 2.1l-8.9 5.1c-.2-.1-.2-.1-.3-.1zm2.9-11.4c.5.8.8 1.6.6 2.3 0 .2-.1.3-.2.4 0 .1-.1.2-.2.2l-1.2.7-.2.2c-.2.7-.2 1.7-.1 2.6.1 1 .1 2-.1 2.9v.1l7.1-4.1c.3-.2.6-.7.8-1.4.2-.7.1-1.6.1-2.6-.1-1.1-.1-2.1.2-3 0-.1.1-.2.1-.3 0-.1.1-.2.2-.2l1.2-.7c.1-.1.2-.1.2-.3.1-.4-.2-1.1-.5-1.5l-8 4.7z" fill="#0000BD"/><path d="M35.402 80.908c-1.5.9-1.9 5.4-2.1 7-.1.8-.2 1.7-.2 2.5l8.9-5.1c0-.9.1-1.7.2-2.5.2-1.6.6-6.1 2.1-7l-8.9 5.1z" fill="#fff"/><path d="M33.202 90.908c-.1 0-.2 0-.3-.1-.2-.1-.3-.3-.3-.5 0-.9.1-1.7.2-2.6v-.4c.3-3.1.9-6.2 2.3-7l8.9-5.1c.3-.1.6-.1.7.2.1.3.1.6-.2.7-1.1.7-1.6 4.7-1.7 6.2v.4c-.1.8-.1 1.6-.2 2.5 0 .2-.1.3-.3.4l-8.9 5.1c0 .2-.1.2-.2.2zm9.6-13.6l-7 4.1c-1.2.6-1.7 4.6-1.8 6.1v.4c-.1.5-.1 1-.1 1.5l7.8-4.5c0-.8.1-1.5.2-2.3v-.4c.1-1.8.4-3.6.9-4.9z" fill="#0000BD"/><path d="M64.502 75.208l-8.9 5.1c.3-.6-2.1-7.6-.5-8.5l8.9-5.1c-1.7 1 .8 8 .5 8.5z" fill="#fff"/><path d="M55.599 80.908c-.1 0-.3 0-.4-.2-.1-.1-.2-.4-.1-.5 0-.3-.2-1.2-.4-1.9-.8-3.4-1.2-6.1.1-6.9l8.9-5.1c.3-.1.6-.1.7.2.1.3.1.6-.2.7-.8.4.1 4.3.4 5.8.4 1.7.5 2.2.3 2.6 0 .1-.1.1-.2.2l-8.9 5.1h-.2zm7.3-13l-7.6 4.4c-.8.4.1 4.3.4 5.8.1.6.2 1.1.3 1.4l8-4.6c-.1-.3-.2-1.1-.4-1.8-.4-2.1-.8-3.9-.7-5.2z" fill="#0000BD"/><path d="M63.8 53.808c-1.6-6.5 1.3-5.8.5-11.3-1-7.3-3.7-12.6-4.1-13.3-.4-.7-.8-1.3-1.2-1.9-.5-.9-1-1.8-1.5-2.6-6.9-11-16.5-18.1-24.9-21.7-6.4-2.7-11.4-3.1-15.2-1.7-.6.2-1.2.5-1.7.8l-8.9 5.1c.5-.3 1.1-.6 1.7-.8 3.8-1.4 8.8-1 15.2 1.7 8.4 3.6 18 10.7 24.9 21.6.5.8 1 1.7 1.5 2.6.4.6.8 1.3 1.2 1.9.4.7 3.1 6 4.1 13.3.8 5.5-2.2 4.8-.5 11.3.4 1.5 5.3 11.8 5.3 13.3 0 .7-.2 1-.4 1.1l8.9-5.1c.3-.1.4-.5.4-1.1 0-1.4-4.9-11.8-5.3-13.2z" fill="#fff"/><path d="M59.8 73.908c-.2 0-.4-.1-.5-.3-.099-.3-.099-.6.2-.7.1 0 .201-.2.201-.7 0-.8-2-5.4-3.3-8.5-1.1-2.6-1.8-4.2-2-4.8-.9-3.7-.4-5.2.1-6.7.4-1.2.8-2.3.4-4.6-1.1-7.7-4-13.1-4-13.1-.4-.7-.8-1.3-1.1-1.9-.5-.9-1-1.8-1.5-2.6-6-9.4-15-17.3-24.7-21.4-5.9-2.5-11-3.1-14.8-1.7-.7.2-1.2.5-1.7.8-.3.1-.6.1-.8-.2-.1-.2 0-.6.2-.7l8.9-5.1c.6-.4 1.2-.7 1.9-.9 4.1-1.5 9.4-.9 15.6 1.7 9.9 4.3 19 12.2 25.1 21.9.5.8 1.1 1.7 1.6 2.6.4.6.8 1.3 1.1 1.9.8 1.4 3.2 6.7 4.1 13.5.4 2.6-.1 3.9-.5 5.1-.5 1.4-.9 2.7 0 6.1.1.5 1 2.5 1.9 4.6 2 4.6 3.4 7.9 3.4 8.9 0 .8-.2 1.3-.7 1.6l-8.9 5.1c0 .1-.1.1-.2.1zm-46.6-68.8c3.2 0 6.8.9 10.7 2.5 9.9 4.2 19.1 12.2 25.1 21.8.5.9 1.1 1.7 1.6 2.6.4.6.801 1.3 1.101 1.9.8 1.4 3.2 6.7 4.1 13.5.4 2.6-.1 3.9-.5 5.1-.5 1.4-.9 2.7 0 6.1.1.5 1 2.5 1.9 4.6 2 4.6 3.4 7.9 3.4 8.9l7.7-4.4c.1 0 .2-.2.2-.7 0-.8-2-5.4-3.3-8.5-1.1-2.6-1.8-4.2-2-4.8-.9-3.7-.4-5.2.1-6.7.4-1.2.8-2.3.4-4.6-1.1-7.7-4-13.1-4-13.1-.4-.7-.8-1.3-1.1-1.9-.5-.9-1-1.8-1.5-2.6-6-9.4-15-17.3-24.7-21.4-5.9-2.5-11-3.1-14.8-1.7-.6.3-1.1.6-1.6.9l-4.7 2.7c.6-.1 1.3-.2 1.9-.2z" fill="#0000BD"/><path d="M54.4 59.248c-1.7-6.5 1.3-5.8.5-11.3-1-7.3-3.7-12.6-4.1-13.3-.4-.7-.8-1.3-1.2-1.9-.5-.9-1-1.8-1.5-2.6-6.9-10.9-16.5-18-24.9-21.6-6.3-2.8-11.4-3.1-15.2-1.8-.6.3-1.2.5-1.7.8-4.1 2.4-6.2 7.3-6.3 13.6-.1 18 9.7 24.4 10 42.5.1 3.8-2.9 9.4-3 12.2 9.9 5.7 16 9.2 25.7 14.8 0-.9.1-1.7.2-2.5.2-1.6.6-6.1 2.1-7 .1 0 .1-.1.2-.1.2-.1.5-.1.8 0 1.1.5 2.1 1.2 3.2 2 1.4 1.2 2.7 2.5 4.1 3.8 1.4 1.4 4.1 4.2 5.6 4.7 1.1.4 2 .6 2.6.4.1 0 .2-.1.2-.1.5-.3.8-.8 1-1.7.4-1.6-.3-4 .2-5.5.1-.2.2-.4.4-.5.1-.1.2-.1.3-.2.2-.1.4-.1.6-.2.2-.1.4-.3.5-.6.2-.7-.3-1.6-.9-2.3.4.2.8.2 1.1.1.1 0 .1-.1.2-.2.3-.6-2.1-7.6-.5-8.5.2-.1.5-.1.8 0 1 .3 2.4 1.5 3.4 1.7h.6c.3-.1.4-.5.4-1.1-.1-1.8-5-12.1-5.4-13.6z" fill="#fff"/><path d="M51.3 92.307c-.6 0-1.2-.2-2.2-.5-1.3-.5-3.3-2.4-4.9-3.9-.3-.3-.7-.6-.9-.9-1.4-1.3-2.7-2.5-4.1-3.7-1.1-.9-2.1-1.5-3-1.9-.2-.1-.3-.1-.4 0-1.2.6-1.7 4.6-1.8 6.1v.4c-.1.8-.1 1.6-.2 2.5 0 .2-.1.4-.3.4-.2 0-.4.1-.5 0l-25.7-14.8c-.2-.1-.3-.2-.3-.4 0-1.4.7-3.3 1.3-5.3.8-2.3 1.7-4.9 1.7-6.9-.1-8.9-2.6-15-5-21-2.5-6.1-5-12.4-5-21.6 0-6.6 2.3-11.6 6.5-14 .6-.3 1.2-.6 1.8-.8 4.1-1.5 9.4-.9 15.6 1.7 9.9 4.2 19.1 12.2 25.1 21.8.5.9 1.1 1.7 1.6 2.6.4.6.8 1.3 1.1 1.9 0 0 3 5.6 4.1 13.5.4 2.6-.1 3.9-.5 5.1-.5 1.4-.9 2.7 0 6.1.1.5 1 2.5 1.9 4.6 2 4.6 3.4 7.9 3.4 8.9 0 .8-.2 1.3-.7 1.6l-.1.1c-.2.1-.5.1-.8.1-.6-.1-1.3-.5-2-.9-.5-.3-1.1-.6-1.5-.8-.2-.1-.3-.1-.4 0-.8.4.1 4.3.4 5.8.4 1.7.5 2.2.3 2.6-.1.2-.2.3-.4.4-.1.1-.2.1-.3.1.3.6.5 1.2.4 1.8-.1.4-.3.7-.7.9-.2.1-.3.2-.5.2-.2.1-.3.1-.4.2l-.2.2c-.2.7-.2 1.7-.1 2.6.1 1 .1 2-.1 2.9-.3 1.1-.7 1.7-1.3 2.1-.1.1-.2.1-.3.1 0 .1-.3.1-.6.1zM36 80.207c.2 0 .5 0 .7.1 1 .4 2.1 1.1 3.3 2.1 1.4 1.2 2.7 2.5 4.1 3.8l.9.9c1.3 1.3 3.4 3.3 4.5 3.7 1.2.4 1.8.5 2.3.4.1 0 .1 0 .1-.1.3-.2.6-.7.8-1.4.2-.7.1-1.6.1-2.6-.1-1-.1-2.1.1-3 .1-.3.3-.6.7-.8.1-.1.3-.1.4-.2.2-.1.4-.1.5-.2.1-.1.2-.1.2-.3.1-.6-.6-1.6-.8-1.9-.1-.2-.1-.4 0-.6.1-.2.4-.2.6-.2.3.1.4.1.5.1.1-.1-.1-1.1-.3-1.9-.8-3.4-1.2-6.1.1-6.9.3-.2.8-.2 1.3-.1.5.2 1.1.5 1.7.9.6.4 1.2.7 1.6.8l.4.5-.3-.3c.1 0 .2-.2.2-.7 0-.8-2-5.4-3.3-8.5-1.1-2.6-1.8-4.2-2-4.8-.9-3.7-.4-5.2.1-6.7.4-1.2.8-2.3.4-4.6-1.1-7.7-4-13.1-4-13.1-.4-.7-.8-1.3-1.1-1.9-.5-.9-1-1.8-1.5-2.6-6-9.4-15-17.3-24.7-21.4-5.9-2.5-11-3.1-14.8-1.7-.7.1-1.2.4-1.7.7-3.8 2.2-6 6.9-6 13.1-.1 9 2.3 15 4.9 21.2 2.4 6 5 12.2 5.1 21.3 0 2.2-.9 4.9-1.7 7.3-.6 1.8-1.2 3.5-1.3 4.7l24.6 14.2c0-.6.1-1.1.1-1.7v-.4c.3-3.1.9-6.2 2.3-7 .1 0 .2-.1.3-.1.2 0 .4-.1.6-.1z" fill="#0000BD"/><path d="M34.9 48.108l-3.4 1.9v-2.2l3.4-2v2.3z" fill="#fff"/><path d="M31.5 50.607c-.1 0-.2 0-.3-.1-.1-.1-.2-.3-.2-.5v-2.2c0-.2.1-.4.3-.5l3.4-2c.2-.1.4-.1.5 0 .2.1.3.3.3.5v2.2c0 .2-.1.4-.3.5l-3.4 2c-.1 0-.2.1-.3.1zm.6-2.5v1l2.3-1.3v-1l-2.3 1.3z" fill="#DF0112"/><path d="M38.9 49.208l-3.4 1.9-.7-2.5 3.4-1.9.7 2.5z" fill="#fff"/><path d="M35.5 51.707h-.2c-.2-.1-.3-.2-.3-.3l-.7-2.5c-.1-.2 0-.5.2-.6l3.401-2c.1-.1.3-.1.5 0s.3.2.3.3l.7 2.5c.1.2 0 .5-.2.6l-3.4 2c-.2-.1-.2 0-.3 0zm-.099-2.8l.4 1.4 2.4-1.4-.4-1.4-2.4 1.4z" fill="#DF0112"/><path d="M42.202 48.508l-3.4 1.9-1.2-2.4 3.4-2 1.2 2.5z" fill="#fff"/><path d="M38.802 51.008h-.2c-.1 0-.3-.1-.3-.3l-1.2-2.4c-.1-.3 0-.6.2-.7l3.4-2c.1-.1.3-.1.4 0 .1 0 .3.1.3.3l1.3 2.4c.1.3 0 .6-.2.7l-3.4 2c-.1-.1-.2 0-.3 0zm-.5-2.8l.8 1.5 2.5-1.4-.8-1.5-2.5 1.4z" fill="#DF0112"/><path d="M43.7 47.308l-3.4 1.9.9-1.2 3.4-2-.9 1.3z" fill="#fff"/><path d="M40.3 49.807c-.1 0-.3-.1-.4-.2-.2-.2-.2-.5 0-.7l.9-1.3c0-.1.1-.1.2-.2l3.4-2c.2-.1.5-.1.7.1.2.2.2.5 0 .7l-.9 1.3c0 .1-.1.1-.2.2l-3.4 2c-.1 0-.2.1-.3.1z" fill="#DF0112"/><path d="M44.6 46.008l-3.4 2-1.7-2.1 3.4-2 1.7 2.1z" fill="#fff"/><path d="M41.2 48.508c-.2 0-.3-.1-.4-.2l-1.7-2.1c-.1-.1-.1-.3-.1-.4 0-.2.1-.3.3-.4l3.4-2c.2-.1.5-.1.7.1l1.7 2.1c.1.1.1.3.1.4 0 .2-.1.3-.3.4l-3.4 2c-.1.1-.2.1-.3.1zm-.9-2.5l1 1.3 2.5-1.4-1-1.3-2.5 1.4z" fill="#DF0112"/><path d="M42.9 43.908l-3.4 2c.2-.4.4-.9.6-1.5l3.4-2c-.2.6-.4 1.1-.6 1.5z" fill="#fff"/><path d="M39.5 46.408c-.1 0-.3 0-.4-.1-.2-.2-.2-.4-.1-.6.2-.4.4-.9.5-1.4 0-.1.1-.3.2-.3l3.4-2c.2-.1.4-.1.6 0 .2.1.2.3.2.6-.2.6-.4 1.1-.6 1.6 0 .1-.1.2-.2.2l-3.4 2h-.2z" fill="#DF0112"/><path d="M45.4 44.008l-3.4 1.9.3-1.8 3.4-1.9-.3 1.8z" fill="#fff"/><path d="M42 46.508c-.1 0-.2 0-.3-.1-.2-.1-.3-.3-.2-.5l.3-1.8c0-.2.1-.3.3-.4l3.4-2c.2-.1.4-.1.6 0 .2.1.3.3.2.5l-.3 1.8c0 .2-.1.3-.3.4l-3.4 2c-.1 0-.2.1-.3.1zm.8-2.1l-.1.5 2.2-1.3.1-.5-2.2 1.3z" fill="#DF0112"/><path d="M45.698 42.208l-3.4 1.9-1.9-1.5 3.4-1.9 1.9 1.5z" fill="#fff"/><path d="M42.3 44.608c-.1 0-.2 0-.3-.1l-2-1.5c-.1-.1-.2-.3-.2-.5s.1-.3.3-.4l3.4-2c.2-.1.4-.1.6 0l1.9 1.5c.1.1.2.3.2.5s-.1.3-.3.4l-3.4 2c0 .1-.1.1-.2.1zm-1-1.9l1 .8 2.4-1.4-1-.8-2.4 1.4z" fill="#DF0112"/><path d="M43.798 40.708l-3.4 2v-.9l3.4-2v.9z" fill="#fff"/><path d="M40.399 43.108c-.1 0-.2 0-.3-.1-.2-.1-.3-.3-.2-.5v-.9c0-.2.1-.4.3-.5l3.4-2c.2-.1.4-.1.5 0 .2.1.3.3.3.5v1c0 .2-.1.3-.3.4l-3.4 2c-.2.1-.2.1-.3.1z" fill="#DF0112"/><path d="M43.798 39.708l-3.4 2v-1l3.4-2v1z" fill="#fff"/><path d="M40.4 42.208c-.1 0-.2 0-.3-.1-.2-.1-.3-.3-.3-.5v-.9c0-.2.1-.4.3-.5l3.4-2c.2-.1.4-.1.5 0 .1.1.3.2.3.4v1c0 .2-.1.4-.3.5l-3.4 2c0 .1-.1.1-.2.1z" fill="#DF0112"/><path d="M30.9 45.308l-3.4 1.9.7-1.7 3.4-2-.7 1.8z" fill="#fff"/><path d="M27.5 47.808c-.1 0-.2 0-.3-.1-.2-.2-.3-.4-.2-.7l.7-1.7c0-.1.1-.2.2-.3l3.4-2c.2-.1.4-.1.6.1.2.1.2.4.1.6l-.7 1.7c0 .1-.1.2-.2.3l-3.4 2s-.1.1-.2.1zm1.1-1.9l-.1.1 1.9-1.1.1-.2-1.9 1.2z" fill="#DF0112"/><path d="M45.7 39.508l-3.4 1.9-.3-2.1 3.4-2 .3 2.2z" fill="#fff"/><path d="M42.3 42.007c-.1 0-.2 0-.2-.1-.2-.1-.3-.2-.3-.4l-.3-2.2c0-.2.1-.4.3-.5l3.4-2c.2-.1.3-.1.5 0s.3.2.3.4l.3 2.2c0 .2-.1.4-.3.5l-3.4 2c-.1 0-.2.1-.3.1zm.2-2.5l.1 1 2.4-1.4-.1-1-2.4 1.4z" fill="#DF0112"/><path d="M45.402 37.307l-3.4 2-1.9-.8 3.4-1.9 1.9.7z" fill="#fff"/><path d="M42.002 39.808h-.2l-1.9-.8c-.2-.1-.3-.2-.3-.5 0-.2.1-.4.3-.5l3.4-2c.1-.1.3-.1.4 0l1.9.7c.2.1.3.2.3.5 0 .2-.1.4-.3.5l-3.4 2c0 .1-.1.1-.2.1zm-.7-1.4l.6.2 2.2-1.3-.6-.2-2.2 1.3z" fill="#DF0112"/><path d="M27.2 41.107l-3.4 2 1.3-1 3.4-2-1.3 1z" fill="#fff"/><path d="M23.798 43.608c-.2 0-.3-.1-.4-.2-.2-.2-.1-.5.1-.7l1.2-1 3.5-2c.2-.1.5-.1.7.2.2.2.1.5-.1.7l-1.2 1-3.5 2h-.3z" fill="#DF0112"/><path d="M43.5 36.608l-3.4 2c-.1-.7-.3-1.4-.6-2.1l3.4-2 .6 2.1z" fill="#fff"/><path d="M40.102 39.108h-.2c-.2-.1-.3-.2-.3-.4-.1-.7-.3-1.4-.5-2-.1-.2 0-.5.2-.6l3.4-2c.1-.1.3-.1.5 0s.3.2.3.3c.2.7.4 1.5.6 2.2 0 .2-.1.5-.3.6l-3.4 2c-.2-.1-.3-.1-.3-.1zm0-2.4c.1.3.2.7.3 1l2.4-1.4c-.1-.4-.2-.7-.3-1.1l-2.4 1.5z" fill="#DF0112"/><path d="M25.202 33.708l-3.4 2-1.7.1 3.4-1.9 1.7-.2z" fill="#fff"/><path d="M20.102 36.408c-.2 0-.4-.1-.5-.4-.1-.2 0-.5.2-.6l3.4-2c.1 0 .1-.1.2-.1l1.7-.1c.2 0 .5.1.5.4.1.2 0 .5-.2.6l-3.4 2c-.1 0-.1.1-.2.1l-1.7.1z" fill="#DF0112"/><path d="M44.6 34.307l-3.4 2-.9-2.3 3.4-1.9.9 2.2z" fill="#fff"/><path d="M41.201 36.808h-.2c-.1 0-.3-.2-.3-.3l-.9-2.3c-.1-.2 0-.5.2-.6l3.4-2c.1-.1.3-.1.4 0 .1 0 .3.2.3.3l.9 2.3c.1.2 0 .5-.2.6l-3.4 2h-.2zm-.2-2.5l.5 1.3 2.5-1.4-.5-1.3-2.5 1.4z" fill="#DF0112"/><path d="M43.702 32.107l-3.4 1.9-1.7.2 3.4-2 1.7-.1z" fill="#fff"/><path d="M38.602 34.708c-.2 0-.4-.1-.5-.4-.1-.2 0-.5.2-.6l3.4-2c.1 0 .1-.1.2-.1l1.7-.1c.2 0 .5.1.5.4.1.2 0 .5-.2.6l-3.4 2c-.1 0-.1.1-.2.1l-1.7.1c.1 0 0 0 0 0z" fill="#DF0112"/><path d="M42 32.207l-3.4 2c-.3-.7-.7-1.4-1.1-2.1l3.4-2c.4.7.8 1.4 1.1 2.1z" fill="#fff"/><path d="M38.599 34.708h-.2c-.1 0-.3-.2-.3-.3-.3-.7-.7-1.4-1-2-.1-.3-.1-.6.2-.7l3.4-2c.1-.1.3-.1.4 0 .1 0 .3.1.3.2.4.7.7 1.4 1.1 2.1.1.2 0 .5-.2.7l-3.4 2h-.3zm-.3-2.4c.2.4.4.7.6 1.1l2.5-1.4c-.2-.4-.4-.8-.6-1.1l-2.5 1.4z" fill="#DF0112"/><path d="M41.002 30.208l-3.4 1.9 1.2-1 3.4-1.9-1.2 1z" fill="#fff"/><path d="M37.599 32.608c-.2 0-.3-.1-.4-.2-.2-.2-.1-.5.1-.7l1.2-1 3.5-2c.2-.1.5-.1.7.2.2.2.1.5-.1.7l-1.2 1-3.5 2h-.3z" fill="#DF0112"/><path d="M39.6 28.108l-3.4 2c-.5-.6-.9-1.2-1.4-1.8l3.4-2c.5.6 1 1.2 1.4 1.8z" fill="#fff"/><path d="M36.2 30.608c-.2 0-.3-.1-.4-.2-.4-.6-.9-1.2-1.4-1.7-.1-.1-.2-.3-.1-.4 0-.2.1-.3.3-.4l3.4-2c.2-.1.5-.1.7.1l1.5 1.8c.1.1.1.3.1.4 0 .1-.1.3-.3.3l-3.4 2c-.2 0-.3.1-.4.1zm-.6-2.2c.3.3.5.6.8.9l2.5-1.4c-.2-.3-.5-.6-.8-.9l-2.5 1.4z" fill="#DF0112"/><path d="M42.2 29.207l-3.4 1.9-1.3-2.1 3.4-1.9 1.3 2.1z" fill="#fff"/><path d="M38.798 31.608c-.2 0-.3-.1-.4-.2l-1.4-2.1c-.1-.1-.1-.3-.1-.4 0-.1.1-.3.3-.3l3.4-2c.2-.1.6-.1.7.2l1.3 2.1c.1.1.1.3.1.4 0 .1-.1.3-.3.3l-3.4 2h-.2zm-.6-2.4l.8 1.2 2.5-1.4-.8-1.2-2.5 1.4z" fill="#DF0112"/><path d="M38.2 26.307l-3.4 2 .7-1.8 3.4-1.9-.7 1.7z" fill="#fff"/><path d="M34.8 28.808c-.1 0-.2 0-.3-.1-.2-.1-.2-.4-.2-.6l.7-1.7c0-.1.1-.2.2-.3l3.4-2c.2-.1.4-.1.6.1.2.1.2.4.1.6l-.7 1.7c0 .1-.1.2-.2.3l-3.4 2h-.2zm1.1-1.9l-.1.2 1.9-1.1.1-.2-1.9 1.1z" fill="#DF0112"/><path d="M36.5 24.708l-3.4 2c-.5-.5-1.1-.9-1.6-1.3l3.4-2c.6.4 1.1.8 1.6 1.3z" fill="#fff"/><path d="M33.1 27.108c-.1 0-.3 0-.3-.1-.5-.5-1.1-.9-1.6-1.2-.2-.1-.2-.3-.2-.5s.1-.3.3-.4l3.4-2c.2-.1.4-.1.6 0 .5.4 1.1.8 1.7 1.3.1.1.2.3.2.4 0 .2-.1.3-.3.4l-3.4 2c-.2.1-.3.1-.4.1zm-.6-1.7c.2.2.5.4.7.6l2.4-1.4c-.2-.2-.5-.4-.7-.6l-2.4 1.4z" fill="#DF0112"/><path d="M38.9 24.608l-3.4 1.9-1.7-1.6 3.4-2 1.7 1.7z" fill="#fff"/><path d="M35.5 27.108c-.1 0-.3-.1-.4-.2l-1.7-1.6c-.1-.1-.2-.3-.1-.4 0-.2.1-.3.3-.4l3.4-2c.2-.1.5-.1.6.1l1.7 1.6c.1.1.2.3.2.4 0 .2-.1.3-.3.4l-3.4 2c-.2 0-.2.1-.3.1zm-.8-2.1l.9.9 2.4-1.4-.9-.9-2.4 1.4z" fill="#DF0112"/><path d="M24.3 29.408l-3.4 2-1.9-.7 3.4-2 1.9.7z" fill="#fff"/><path d="M20.9 31.908h-.2l-1.9-.7c-.2-.1-.3-.2-.3-.5 0-.2.1-.4.3-.5l3.4-2c.1-.1.3-.1.4 0l1.9.7c.2.1.3.2.3.5 0 .2-.1.4-.3.5l-3.4 2h-.2zm-.6-1.3l.6.2 2.2-1.3-.6-.2-2.2 1.3z" fill="#DF0112"/><path d="M33.2 22.408l-3.4 2c-.6-.3-1.1-.5-1.6-.6l3.4-2c.5.1 1 .3 1.6.6z" fill="#fff"/><path d="M29.8 24.908h-.2l-1.5-.6c-.2-.1-.4-.2-.4-.4s.1-.4.3-.5l3.4-2c.1-.1.3-.1.4 0 .6.2 1.1.4 1.7.6.2.1.3.3.3.5s-.1.4-.3.5l-3.4 2c-.1-.2-.2-.1-.3-.1zm-.4-1.3c.1 0 .2.1.3.1l2.2-1.3c-.1 0-.2-.1-.3-.1l-2.2 1.3z" fill="#000"/><path d="M24.6 25.708l-3.4 2-1.9-1.5 3.4-2 1.9 1.5z" fill="#fff"/><path d="M21.2 28.208c-.1 0-.2 0-.3-.1l-1.9-1.5c-.1-.1-.2-.3-.2-.5s.1-.3.3-.4l3.4-2c.2-.1.4-.1.6 0l1.9 1.5c.1.1.2.3.2.5s-.1.3-.3.4l-3.4 2c-.1.1-.2.1-.3.1zm-.9-1.9l1 .8 2.4-1.4-1-.8-2.4 1.4z" fill="#DF0112"/><path d="M29.902 21.508l-3.4 2c-.5 0-1 0-1.4.1l3.4-2c.4-.1.9-.1 1.4-.1z" fill="#fff"/><path d="M25.102 24.108c-.2 0-.4-.1-.5-.3-.1-.2 0-.5.2-.6l3.4-2s.1 0 .1-.1c.4-.1.8-.1 1.3-.1h.2c.2 0 .4.2.5.4.1.2 0 .5-.2.6l-3.4 2c-.1 0-.2.1-.3.1h-.2c-.4 0-.7 0-1.1.1.1-.1 0-.1 0-.1z" fill="#000"/><path d="M26.1 23.008l-3.4 2-1.7-2.1 3.4-2 1.7 2.1z" fill="#fff"/><path d="M22.7 25.508c-.2 0-.3-.1-.4-.2l-1.7-2.1c-.1-.1-.1-.3-.1-.4 0-.2.1-.3.3-.4l3.4-2c.2-.1.5-.1.7.1l1.7 2.1c.1.1.1.3.1.4 0 .1-.1.3-.3.4l-3.4 2c-.1.1-.2.1-.3.1zm-.9-2.5l1 1.3 2.5-1.4-1-1.3-2.5 1.4z" fill="#DF0112"/><path d="M28.5 21.608l-3.4 2-1.3-2.4 3.4-2 1.3 2.4z" fill="#fff"/><path d="M25.099 24.107h-.2c-.1 0-.3-.1-.3-.3l-1.2-2.4c-.1-.3 0-.6.2-.7l3.4-2c.1-.1.3-.1.4-.1.1 0 .3.1.3.3l1.3 2.4c.1.3 0 .6-.2.7l-3.4 2c-.1.1-.2.1-.3.1zm-.6-2.7l.8 1.5 2.5-1.4-.8-1.6-2.5 1.5z" fill="#DF0112"/><path d="M31.6 21.808l-3.4 1.9-.7-2.5 3.4-1.9.7 2.5z" fill="#fff"/><path d="M28.2 24.307H28c-.2-.1-.3-.2-.3-.3l-.7-2.6c-.1-.2 0-.5.2-.6l3.4-2c.1-.1.3-.1.5 0s.3.2.3.3l.7 2.5c.1.2 0 .5-.2.6l-3.4 2c-.2 0-.3.1-.3.1zm-.1-2.8l.4 1.4 2.4-1.4-.4-1.4-2.4 1.4z" fill="#DF0112"/><path d="M34.9 23.408l-3.4 2v-2.3l3.4-1.9v2.2z" fill="#fff"/><path d="M31.498 25.908c-.1 0-.2 0-.3-.1-.2-.1-.3-.3-.3-.5v-2.2c0-.2.1-.4.3-.5l3.4-2c.2-.1.4-.1.5 0 .2.1.3.3.3.5v2.2c0 .2-.1.4-.3.5l-3.4 2c0 .1-.1.1-.2.1zm.6-2.5v1l2.3-1.4v-1l-2.3 1.4z" fill="#DF0112"/><path d="M34.9 21.207l-3.4 1.9-1.7-1 3.4-2 1.7 1.1z" fill="#fff"/><path d="M31.502 23.608c-.1 0-.2 0-.3-.1l-1.8-1c-.2-.1-.3-.3-.3-.5s.1-.4.3-.5l3.4-2c.2-.1.4-.1.5 0l1.8 1c.2.1.3.3.3.5s-.1.4-.3.5l-3.4 2c0 .1-.1.1-.2.1zm-.7-1.5l.7.4 2.3-1.3-.7-.4-2.3 1.3z" fill="#DF0112"/><path d="M30.9 19.308l-3.4 1.9-1.7-.2 3.4-2 1.7.3z" fill="#fff"/><path d="M27.498 21.808s-.1 0 0 0l-1.7-.3c-.2 0-.4-.2-.4-.4s.1-.4.3-.6l3.4-2c.1-.1.2-.1.3-.1l1.7.3c.2 0 .4.2.4.4s-.1.4-.3.6l-3.4 2c-.1 0-.2.1-.3.1z" fill="#DF0112"/><path d="M27.2 19.208l-3.4 2-1.3.5 3.4-2 1.3-.5z" fill="#fff"/><path d="M22.5 22.208c-.2 0-.4-.1-.5-.3-.1-.3 0-.5.2-.7l3.4-2 1.4-.6c.3-.1.5 0 .7.3.1.3 0 .5-.2.7l-3.4 2-1.4.6h-.2z" fill="#DF0112"/><path d="M40.4 41.708v-1l1.9.7-.3-2.1-1.9-.7c-.1-.7-.3-1.4-.6-2.1l1.7-.2-.9-2.3-1.7.2c-.3-.7-.7-1.4-1.1-2.1l1.3-1-1.3-2.1-1.3 1c-.5-.6-.9-1.2-1.4-1.8l.7-1.7-1.7-1.6-.7 1.7c-.5-.5-1.1-.9-1.6-1.3v-2.2l-1.8-1v2.2c-.6-.3-1.1-.5-1.6-.6l-.7-2.5-1.6-.2.7 2.5c-.5 0-1 0-1.4.1l-1.3-2.4-1.3.5 1.2 2.4c-.4.2-.7.5-1.1.9l-1.6-2.1-.9 1.3 1.7 2.1c-.2.4-.4.9-.6 1.5l-1.9-1.5-.3 1.7 1.9 1.5v1.9l-1.9-.7.3 2.2 1.9.7c.1.7.3 1.4.6 2.1l-1.7.1.9 2.3 1.7-.2c.3.7.7 1.4 1.1 2.1l-1.2 1 1.3 2.1 1.3-1c.4.6.9 1.2 1.4 1.8l-.7 1.7 1.6 1.6.7-1.7c.5.5 1.1.9 1.6 1.3v2.2l1.8 1v-2.2c.6.3 1.1.5 1.6.6l.7 2.5 1.7.3-.7-2.5c.5 0 1 0 1.4-.1l1.3 2.4 1.3-.5-1.3-2.5c.4-.2.7-.5 1.1-.9l1.7 2.1.9-1.3-1.7-2.1c.2-.4.4-.9.6-1.5l1.9 1.5.3-1.8-1.9-1.5c-.1-.2-.1-.5-.1-.8zm-5.2-1.6c-.4-.1-.8-.3-1.2-.5-2.6-1.5-4.7-5.2-4.7-8.2 0-.5.1-.9.2-1.3.4.1.8.3 1.2.5 2.6 1.5 4.7 5.2 4.7 8.2 0 .5-.1.9-.2 1.3z" fill="#fff"/><path d="M35.498 51.707c-.1 0-.1 0 0 0l-1.7-.3c-.2 0-.4-.2-.4-.4l-.6-2.2c-.2-.1-.4-.1-.7-.2v1.4c0 .2-.1.4-.3.5-.2.1-.4.1-.5 0l-1.8-1c-.2-.1-.3-.3-.3-.5v-2c-.3-.2-.6-.4-.9-.7l-.4 1c-.1.2-.2.3-.4.3s-.4 0-.5-.1l-1.5-1.5c-.1-.1-.2-.4-.1-.6l.5-1.4c-.3-.4-.6-.7-.9-1.1l-.8.7c-.1.1-.3.1-.4.1-.1 0-.3-.1-.4-.2l-1.4-2.2c-.1-.2-.1-.5.1-.7l.9-.7c-.2-.4-.5-.9-.7-1.4l-1.3.1c-.2 0-.5-.1-.5-.3l-.9-2.3c-.1-.2 0-.3 0-.5.1-.1.2-.2.4-.2l1-.1-.3-1.2-1.7-.6c-.2-.1-.3-.2-.3-.4l-.3-2.2c0-.2 0-.4.2-.5.1-.1.3-.2.5-.1l1.2.4v-.9l-1.7-1.3c-.2-.1-.2-.3-.2-.5l.3-1.8c0-.2.2-.3.3-.4.2-.1.4 0 .5.1l1.3 1c.1-.2.1-.3.2-.5l-1.5-1.8c-.1-.2-.2-.4 0-.6l.9-1.3c.1-.1.3-.2.4-.2.2 0 .3.1.4.2l1.3 1.6.3-.3-1-2c-.1-.1-.1-.3 0-.4.1-.1.2-.3.3-.3l1.3-.5c.3-.1.5 0 .7.3l1.1 2.1h.5l-.5-1.8c0-.2 0-.4.1-.5.1-.1.3-.2.5-.2l1.6.3c.2 0 .4.2.4.4l.6 2.2c.2.1.4.1.7.2v-1.4c0-.2.1-.4.3-.5.2-.1.4-.1.5 0l1.8 1c.2.1.3.3.3.5v2c.3.2.6.4.9.7l.4-1c.1-.2.2-.3.4-.3s.4 0 .5.1l1.7 1.6c.1.1.2.4.1.6l-.6 1.4c.3.4.6.7.9 1.1l.8-.7c.1-.1.3-.1.4-.1.1 0 .3.1.4.2l1.3 2.1c.1.2.1.5-.1.7l-.9.7c.2.4.5.9.7 1.4l1.3-.1c.2 0 .5.1.5.3l.9 2.3c.1.2 0 .3 0 .5-.1.1-.2.2-.4.2l-1 .1.3 1.2 1.6.6c.2.1.3.2.3.4l.3 2c0 .1.1.2.1.2 0 .3-.3.5-.5.5h-.2l-1.2-.4v.9l1.7 1.3c.2.1.2.3.2.5l-.3 1.7c0 .2-.2.3-.3.4-.2.1-.4 0-.5-.1l-1.3-1c-.1.2-.1.3-.2.5l1.5 1.8c.1.2.2.4 0 .6l-.9 1.3c-.1.1-.3.2-.4.2-.2 0-.3-.1-.4-.2l-1.3-1.6-.3.3 1 2c.1.1.1.3 0 .4-.1.1-.2.3-.3.3l-1.3.5c-.3.1-.5 0-.7-.3l-1.1-2.1h-.5l.5 1.7v.4c0 .3-.2.6-.5.6zm-1.3-1.3l.5.1-.5-1.7c0-.2 0-.3.1-.5.1-.1.3-.2.4-.2h.2c.4 0 .8 0 1.1-.1.2-.1.5.1.6.3l1 2 .4-.1-1-1.9c-.1-.3 0-.6.2-.7.3-.2.6-.4.9-.8.1-.1.3-.2.4-.2.2 0 .3.1.4.2l1.3 1.5.2-.4-1.4-1.8c-.1-.2-.2-.4-.1-.6.2-.4.4-.9.5-1.4 0-.2.2-.3.3-.4.2-.1.4 0 .5.1l1.2 1 .1-.6-1.5-1.2c-.1-.1-.2-.3-.2-.5v-1.8c0-.2.1-.4.2-.5.1-.1.3-.1.5-.1l1.1.4-.1-1-1.6-.5c-.2-.1-.3-.2-.3-.4-.1-.7-.3-1.4-.5-2 0-.2 0-.3.1-.5.1-.1.2-.2.4-.2l1-.1-.6-1.2-1.3.1c-.2 0-.4-.1-.5-.3-.3-.7-.7-1.4-1-2-.1-.2-.1-.5.1-.7l.9-.7-.8-1.2-.8.6c-.1.1-.3.1-.4.1-.1 0-.3-.1-.4-.2-.4-.6-.9-1.2-1.4-1.7-.1-.1-.2-.4-.1-.5l.5-1.4-.8-.9-.4 1c-.1.2-.2.3-.4.3s-.3 0-.5-.1c-.5-.5-1.1-.9-1.6-1.2-.1-.1-.2-.3-.2-.4v-1.9l-.6-.5v1.3c0 .2-.1.3-.2.4-.2.1-.3.1-.5 0l-1.5-.6c-.2 0-.3-.2-.4-.4l-.6-2.2-.5-.1.5 1.7c0 .2 0 .3-.1.5-.1.1-.3.2-.4.2h-.2c-.4 0-.7 0-1.1.1-.2 0-.5-.1-.6-.3l-1-2-.5.4 1 1.9c.1.3 0 .6-.2.7-.3.2-.6.4-.9.8-.1.1-.3.2-.4.2-.2 0-.3-.1-.4-.2l-1.3-1.6-.2.4 1.4 1.8c.1.2.2.4.1.6-.2.4-.4.9-.5 1.4 0 .2-.2.3-.3.4-.2.1-.4 0-.5-.1l-1.2-1-.1.6 1.7 1.3c.1.1.2.3.2.5v1.8c0 .2-.1.4-.2.5-.1.1-.3.1-.5.1l-1.1-.4.1 1 1.6.6c.2.1.3.2.3.4.1.7.3 1.4.5 2 0 .2 0 .3-.1.5-.1.1-.2.2-.4.2l-1 .1.5 1.2 1.3-.1c.2 0 .4.1.5.3.3.7.7 1.4 1 2 .1.2.1.5-.1.7l-.9.7.8 1.2.8-.6c.1-.1.3-.1.4-.1.1 0 .3.1.4.2.4.6.9 1.2 1.4 1.7.1.2.2.4.1.5l-.5 1.4.8.8.4-1c.1-.2.2-.3.4-.3s.3 0 .5.1c.5.5 1.1.9 1.6 1.2.1.1.2.3.2.4v1.9l.7.4v-1.3c0-.2.1-.3.2-.4.2-.1.3-.1.5 0l1.5.6c.2 0 .3.2.4.4l.5 2zm1-9.8h-.1c-.5-.1-.9-.3-1.3-.5-2.8-1.6-5-5.5-5-8.7 0-.5.1-.9.2-1.4 0-.1.1-.3.3-.3.1-.1.3-.1.4-.1.5.1.9.3 1.3.5 2.8 1.6 5 5.5 5 8.7 0 .5-.1.9-.2 1.4 0 .1-.1.3-.3.3-.1.1-.2.1-.3.1zm-5.3-9.8v.6c0 2.8 2 6.3 4.5 7.7.2.1.3.2.5.3v-.6c0-2.9-2-6.3-4.5-7.8-.2-.1-.3-.1-.5-.2z" fill="#DF0112"/><path d="M29.298 31.408c0-.5.1-.9.2-1.3-.8-.2-1.6-.2-2.2.2-.9.5-1.4 1.6-1.4 3.1 0 3 2.1 6.7 4.7 8.2 1.3.8 2.5.8 3.4.3.6-.3 1-1 1.2-1.8-.4-.1-.8-.3-1.2-.5-2.6-1.5-4.7-5.2-4.7-8.2z" fill="#fff"/><path d="M32.798 42.708c-.8 0-1.6-.2-2.4-.7-2.8-1.6-5-5.5-5-8.7 0-1.7.6-2.9 1.7-3.5.7-.4 1.6-.5 2.6-.2.3.1.4.4.4.6-.1.4-.1.8-.1 1.1 0 2.8 2 6.3 4.5 7.7.3.2.7.3 1.1.4.3.1.4.4.4.6-.3 1-.8 1.7-1.5 2.1-.7.5-1.2.6-1.7.6zm-4.3-12.2c-.4 0-.7.1-.9.2-.7.4-1.1 1.3-1.1 2.6 0 2.9 2 6.3 4.5 7.8.7.4 1.3.6 1.9.6.4 0 .7-.1 1-.2.3-.2.6-.5.8-1-.3-.1-.5-.2-.8-.4-2.8-1.6-5-5.5-5-8.7 0-.3 0-.6.1-.9h-.5z" fill="#DF0112"/><path d="M21.8 57.108l.2-.2c.4-.6.2-1.7-.5-2.6l3.4-2c.7.9.9 2 .5 2.6l-.2.2c-.1.1-.1.2-.2.2l-3.4 2c.1-.1.1-.2.2-.2z" fill="#fff"/><path d="M21.598 57.808c-.2 0-.4-.1-.5-.3-.1-.3-.1-.6.2-.7l.2-.2c.2-.3.1-1.2-.5-2-.1-.1-.1-.3-.1-.4 0-.2.1-.3.3-.4l3.4-2c.2-.1.5-.1.7.1.9 1.1 1.1 2.5.6 3.2l-.1.2c-.1.2-.3.3-.4.4l-3.4 2c-.2.1-.3.1-.4.1zm.6-3.4c.3.5.5 1.1.5 1.6l2-1.2.2-.3c.2-.2.1-.9-.3-1.6l-2.4 1.5z" fill="#DF0112"/><path d="M21.501 53.108c0-.4 0-.8-.1-1.2l3.4-2c.1.4.1.8.1 1.2 0 .4 0 .8-.1 1.1l-3.4 2c-.4-.2.1-.7.1-1.1z" fill="#fff"/><path d="M21.398 54.808c-.1 0-.2 0-.3-.1-.6-.4-.3-1.1-.2-1.3 0-.1.1-.2.1-.2 0-.4 0-.7-.1-1.1 0-.2.1-.4.3-.5l3.4-2c.1-.1.3-.1.5 0s.3.2.3.4c.1.5.1.9.1 1.3s0 .8-.1 1.2c0 .1-.1.3-.3.4l-3.4 2c-.1-.2-.2-.1-.3-.1zm.6-2.6c0 .3.1.6.1.9v.2l2.3-1.3v-1.1l-2.4 1.3z" fill="#DF0112"/><path d="M22 49.908l-.2-.4c-.4-1-1.3-1.8-2-1.8l3.4-2c.7-.1 1.6.7 2 1.8l.2.4c.3.9.2 1.6-.2 1.9l-3.4 2c.4-.2.5-1 .2-1.9z" fill="#fff"/><path d="M21.701 52.408c-.2 0-.4-.1-.5-.3-.1-.3-.1-.6.2-.7.2-.1.3-.6 0-1.2l-.2-.4c-.3-.8-1-1.4-1.4-1.4-.2 0-.5-.2-.5-.4-.1-.2 0-.5.2-.6l3.4-2c.1 0 .1-.1.2-.1 1 0 2 .9 2.5 2.1l.2.4c.4 1.1.2 2.1-.5 2.5l-3.4 2s-.1.1-.2.1zm-.7-4.7c.5.4 1 1 1.3 1.7l.2.4c.1.3.2.6.2.9l2.2-1.3c.2-.1.3-.6 0-1.2l-.2-.4c-.3-.8-.9-1.4-1.3-1.4l-2.4 1.3z" fill="#DF0112"/><path d="M18.101 45.607l3.4-2c.6.6 1.3 1.4 1.7 2.2l-3.4 2c-1.3.2-2.2-1-1.7-2.2z" fill="#fff"/><path d="M19.5 48.308c-.7 0-1.4-.3-1.7-.9-.4-.6-.5-1.3-.2-2 0-.1.1-.2.2-.3l3.4-2c.2-.1.5-.1.6.1.7.6 1.3 1.4 1.8 2.3.1.1.1.3.1.4 0 .1-.1.3-.2.3l-3.4 2c-.1 0-.1.1-.2.1h-.4zm-1-2.3c-.1.3 0 .7.1.9.2.3.6.5 1 .4l2.8-1.6c-.3-.5-.7-.9-1.1-1.3l-2.8 1.6z" fill="#DF0112"/><path d="M13.2 44.008l3.4-2c.5-.2 1.1-.3 1.7-.1l-3.4 2c-.7-.2-1.2-.2-1.7.1z" fill="#fff"/><path d="M13.2 44.508c-.2 0-.4-.1-.5-.3-.1-.3 0-.6.2-.7l3.4-2c.7-.3 1.3-.4 2.1-.2.2 0 .4.2.4.4s-.1.4-.3.5l-3.4 2c-.1.1-.2.1-.4.1-.5-.1-1-.1-1.4.1 0 .1-.1.1-.1.1z" fill="#DF0112"/><path d="M16.6 43.108l-.3-.2c-.4-.2-.8-.3-1-.1l3.4-2c.3-.2.6-.1 1 .1l.3.2c.8.5 1.4 1.6 1.4 2.5l-3.4 2c.1-.9-.6-2-1.4-2.5z" fill="#fff"/><path d="M18.1 46.108c-.1 0-.2 0-.3-.1-.2-.1-.3-.3-.3-.5 0-.7-.6-1.7-1.2-2.1l-.3-.2c-.1-.1-.3-.1-.4-.1-.1 0-.1.1-.2.1-.2.1-.5 0-.6-.2 0-.1-.1-.2-.1-.2l3.4-2c.4-.3 1-.2 1.5.1l.3.2c1 .6 1.7 1.9 1.7 3 0 .2-.1.4-.3.5l-3.4 2c.4-.5.3-.5.2-.5zm-1.3-3.5c.8.5 1.4 1.3 1.7 2.2l2.4-1.4c-.1-.7-.6-1.4-1.2-1.8l-.3-.2c-.1-.1-.3-.1-.4-.1l-2.2 1.3z" fill="#DF0112"/><path d="M13.1 43.908c-.6-.7-1.3-1-1.8-.7l3.4-2c.5-.3 1.2 0 1.8.7l-3.4 2z" fill="#fff"/><path d="M13.2 44.507c-.2 0-.3-.1-.4-.2-.4-.5-.8-.6-1-.6-.3.1-.6.1-.8-.2-.1-.3-.1-.6.1-.7l3.4-2c.7-.4 1.7 0 2.4.9.1.1.2.3.1.5 0 .2-.1.3-.2.4l-3.4 2c-.1-.1-.1-.1-.2-.1zm-.3-1.6c.1.1.3.2.4.4l2.4-1.4c-.2-.2-.4-.2-.6-.2l-2.2 1.2z" fill="#DF0112"/><path d="M21.4 51.908c0 .4.1.8.1 1.2 0 .4 0 .8-.1 1.1.7.9.9 2 .5 2.6l-.2.2c-.1.1-.1.2-.2.2-.5.3-1.2 0-1.8-.7-.5.2-1.1.3-1.7.2v.1c0 .5-.2.8-.4.9-.3.2-.6.1-1-.1l-.3-.2c-.8-.5-1.5-1.6-1.5-2.5v-.1c-.6-.6-1.2-1.3-1.7-2.1-.7.1-1.6-.7-2-1.8l-.1-.4c-.3-.9-.2-1.6.2-1.9.1 0 .2-.1.3-.1-.1-.4-.1-.8-.1-1.2 0-.4 0-.8.1-1.1-.7-.9-.9-2-.5-2.6l.2-.2c.1-.1.1-.2.2-.2.5-.3 1.2 0 1.8.7.5-.2 1.1-.3 1.7-.2v-.1c0-.5.2-.8.4-.9.3-.2.6-.1 1 .1l.3.2c.8.5 1.5 1.6 1.5 2.5v.1c.6.6 1.2 1.3 1.7 2.1.7-.1 1.6.7 2 1.8l.2.4c.3.9.2 1.6-.2 1.9-.2.1-.3.1-.4.1z" fill="#fff"/><path d="M17.3 58.208c-.3 0-.6-.1-.9-.3l-.3-.2c-.9-.5-1.6-1.7-1.7-2.8-.5-.5-1-1.2-1.5-1.8-.9-.1-1.8-1-2.2-2.1l-.2-.4c-.4-1.1-.2-2.1.5-2.5v-.8c0-.3 0-.6.1-1-.8-1.1-.9-2.3-.4-3.1l.2-.2c.1-.2.2-.3.4-.4.6-.3 1.5-.1 2.2.6.3-.1.7-.1 1.1-.1.1-.4.3-.7.6-.9.4-.3 1-.2 1.6.1l.3.2c.9.5 1.6 1.7 1.7 2.8.5.5 1 1.2 1.5 1.8.9.1 1.8 1 2.2 2.1l.2.4c.4 1.1.2 2.1-.5 2.5v.8c0 .3 0 .6-.1 1 .8 1.1.9 2.3.4 3.1l-.2.2c-.1.2-.2.3-.4.4-.6.4-1.5.1-2.2-.6-.3.1-.7.1-1.1.1-.1.4-.3.7-.6.9-.3.2-.5.2-.7.2zm-5.6-14.6l-.2.1-.2.2c-.2.3-.1 1.2.5 2 .1.1.2.3.1.5.1.2.1.6.1.9 0 .4 0 .7.1 1.1 0 .1 0 .3-.1.4-.1.1-.2.2-.4.2-.3.1-.4.6-.1 1.3l.2.4c.3.8 1 1.4 1.4 1.4.2 0 .5.1.6.2.5.8 1 1.4 1.6 2 .1.1.2.2.2.4 0 .8.6 1.7 1.2 2.1l.3.2c.2.1.4.2.5.1.1-.1.2-.2.2-.5 0-.2.1-.3.2-.4.1-.1.3-.2.4-.1.5.1 1 .1 1.4-.1.2-.1.5 0 .6.2.4.5.8.7 1 .7l.2-.1.2-.2c.2-.3.1-1.2-.5-2-.1-.1-.2-.3-.1-.5.1-.3.1-.6.1-1s0-.7-.1-1.1c0-.1 0-.3.1-.4.1-.1.2-.2.4-.2.3-.1.4-.6.1-1.3l-.2-.4c-.3-.9-1-1.4-1.5-1.4-.2 0-.4-.1-.5-.2-.5-.8-1-1.4-1.6-2-.1-.1-.2-.2-.2-.4 0-.8-.6-1.7-1.2-2.1l-.3-.2c-.1-.1-.3-.1-.4-.1-.2.1-.3.3-.3.5s-.1.3-.2.4c-.1.1-.3.2-.4.1-.5-.1-1-.1-1.4.1-.2.1-.5 0-.6-.2-.6-.4-.9-.6-1.2-.6z" fill="#DF0112"/><path d="M13 48.207c0 2.2 1.5 4.8 3.4 5.9 1.9 1.1 3.4.2 3.4-2s-1.5-4.8-3.4-5.9c-1.8-1-3.4-.1-3.4 2z" fill="#fff"/><path d="M18 55.208c-.6 0-1.2-.2-1.8-.5-2.1-1.2-3.7-4-3.7-6.4 0-1.8 1-3 2.4-3 .6 0 1.2.2 1.8.5 2.1 1.2 3.7 4 3.7 6.4 0 .9-.2 1.6-.6 2.1-.5.6-1.1.9-1.8.9zm-3.1-8.9c-.9 0-1.4.7-1.4 1.9 0 2 1.4 4.5 3.2 5.5.5.3.9.4 1.3.4s.7-.1 1-.4c.3-.3.4-.8.4-1.5 0-2-1.4-4.5-3.2-5.5-.4-.2-.9-.4-1.3-.4z" fill="#DF0112"/><path d="M42.298 78.708l-1.4.8v-1.9l1.3-.8.1 1.9z" fill="#fff"/><path d="M40.9 80.108c-.1 0-.2 0-.3-.1-.2-.1-.3-.3-.3-.4l-.1-1.9c0-.2.1-.4.3-.5l1.3-.8c.2-.1.4-.1.5 0 .2.1.3.3.3.4l.1 1.9c0 .2-.1.4-.3.5l-1.2.8c-.1 0-.2.1-.3.1z" fill="#DF0112"/><path d="M45.502 77.408l-1.4.7.5-.5 1.4-.8-.5.6z" fill="#fff"/><path d="M44.1 78.707c-.2 0-.3-.1-.4-.2-.2-.2-.2-.5 0-.7l.5-.5.1-.1 1.3-.8c.2-.1.5-.1.7.1.2.2.2.5 0 .7l-.5.5-.1.1-1.3.8c-.1 0-.2.1-.3.1z" fill="#DF0112"/><path d="M42.2 76.808l-1.3.8-.2-.7 1.3-.7.2.6z" fill="#fff"/><path d="M40.9 78.108h-.2c-.2-.1-.3-.2-.3-.3l-.2-.7c-.1-.2 0-.5.2-.6l1.3-.8c.1-.1.3-.1.5 0s.3.2.3.4l.2.7c.1.2 0 .5-.2.6l-1.3.8c-.2-.1-.2-.1-.3-.1z" fill="#DF0112"/><path d="M46 76.808l-1.4.8-.8-2.1 1.3-.8.9 2.1z" fill="#fff"/><path d="M44.6 78.108h-.2c-.1 0-.3-.2-.3-.3l-.9-2.1c-.1-.2 0-.5.2-.7l1.3-.8c.1-.1.3-.1.4 0 .1 0 .3.2.3.3l.9 2.1c.1.2 0 .5-.2.7l-1.2.7c-.1.1-.2.1-.3.1zm-.2-2.4l.5 1.1.4-.2-.5-1.1-.4.2z" fill="#DF0112"/><path d="M37.298 77.308l-1.4.7.8-1.2 1.3-.8-.7 1.3z" fill="#fff"/><path d="M35.902 78.608c-.1 0-.3-.1-.4-.2-.2-.2-.2-.4-.1-.6l.8-1.2c0-.1.1-.1.2-.2l1.3-.8c.2-.1.5-.1.6.1.2.2.2.4.1.6l-.8 1.2c0 .1-.1.1-.2.2l-1.3.8s-.1.1-.2.1z" fill="#DF0112"/><path d="M35.8 74.607l-1.3.8.5 2.1 1.4-.8-.6-2.1zm2.2 1.401l-1.3.8.1-.5 1.3-.8-.1.5z" fill="#fff"/><path d="M36.7 77.408c-.1 0-.2 0-.3-.1-.2-.1-.3-.3-.2-.5l.1-.5c0-.2.1-.3.3-.4l1.3-.8c.2-.1.4-.1.6 0 .2.1.3.3.2.5l-.1.5c0 .2-.1.3-.3.4l-1.3.8c-.1 0-.2.1-.3.1z" fill="#DF0112"/><path d="M42 76.208l-1.3.7-.5-1.1 1.3-.8.5 1.2z" fill="#fff"/><path d="M40.7 77.508h-.2c-.1 0-.3-.2-.3-.3l-.5-1.2c-.1-.2 0-.5.2-.7l1.3-.8c.1-.1.3-.1.4 0 .1 0 .3.2.3.3l.5 1.2c.1.3 0 .5-.2.7l-1.3.8c0-.1-.1 0-.2 0z" fill="#000"/><path d="M42.698 74.508l-1.3.8.7 1 1.3-.7-.7-1.1z" fill="#fff"/><path d="M42.098 76.908c-.2 0-.3-.1-.4-.3l-.7-1.1c-.1-.1-.1-.3-.1-.4 0-.1.1-.3.3-.3l1.3-.8c.2-.1.6-.1.7.2l.7 1.1c.1.1.1.3.1.4 0 .1-.1.3-.3.3l-1.3.8c-.2 0-.2.1-.3.1z" fill="#000"/><path d="M45.098 74.707l-1.3.8-.4-.6 1.3-.8.4.6z" fill="#fff"/><path d="M43.798 76.008c-.2 0-.3-.1-.4-.2l-.4-.6c-.1-.1-.1-.3-.1-.4 0-.1.1-.3.3-.3l1.3-.8c.2-.1.6-.1.7.2l.4.6c.1.1.1.3.1.4 0 .1-.1.3-.3.3l-1.4.7c0 .1-.1.1-.2.1z" fill="#DF0112"/><path d="M41.5 75.008l-1.3.8 1.2-.5 1.3-.8-1.2.5z" fill="#fff"/><path d="M40.2 76.308c-.2 0-.4-.1-.5-.3-.1-.2 0-.5.2-.7l1.3-.8 1.3-.6c.3-.1.6 0 .7.3.1.3 0 .5-.2.7l-1.3.8-1.3.6h-.2z" fill="#000"/><path d="M44.7 74.108l-1.3.8-.9-1 1.4-.7.8.9z" fill="#fff"/><path d="M43.4 75.408c-.1 0-.3-.1-.4-.2l-.8-.9c-.2-.1-.2-.3-.2-.4 0-.2.1-.3.3-.4l1.3-.8c.2-.1.5-.1.7.1l.8.9c.1.1.2.3.1.4 0 .2-.1.3-.3.4l-1.3.8c0 .1-.1.1-.2.1z" fill="#DF0112"/><path d="M47.4 72.908l-1.4.8.1-1 1.3-.7v.9z" fill="#fff"/><path d="M46 74.208c-.1 0-.2 0-.3-.1-.2-.1-.3-.3-.2-.5l.1-1c0-.2.1-.3.3-.4l1.3-.8c.2-.1.4-.1.5 0 .2.1.3.3.3.5l-.1 1c0 .2-.1.3-.3.4l-1.3.8c-.1.1-.2.1-.3.1z" fill="#DF0112"/><path d="M45.3 72.408l-1.3.8.5.3 1.3-.8-.5-.3z" fill="#fff"/><path d="M44.5 74.008c-.1 0-.2 0-.2-.1l-.5-.3c-.2-.1-.3-.3-.3-.5s.1-.4.3-.5l1.2-.6c.2-.1.3-.1.5 0l.5.3c.2.1.3.3.3.5s-.1.4-.3.5l-1.3.8c0-.1-.1-.1-.2-.1z" fill="#000"/><path d="M38.1 75.508l-1.3.8-.1-1.1 1.3-.8.1 1.1z" fill="#fff"/><path d="M36.802 76.808c-.1 0-.2 0-.3-.1-.2-.1-.3-.3-.3-.4l-.1-1.1c0-.2.1-.4.3-.5l1.3-.8c.2-.1.4-.1.5 0 .2.1.3.3.3.4l.1 1.1c0 .2-.1.4-.3.5l-1.3.8c-.1.1-.1.1-.2.1z" fill="#000"/><path d="M38 74.408l-1.3.8 1.6.6 1.3-.8-1.6-.6z" fill="#fff"/><path d="M38.3 76.308h-.2l-1.6-.6c-.2-.1-.3-.2-.3-.4s.1-.4.3-.5l1.3-.8c.1-.1.3-.1.4 0l1.6.6c.2.1.3.2.3.4s-.1.4-.3.5l-1.3.8h-.2z" fill="#000"/><path d="M43.9 73.208l-1.4.7.6-1.4 1.3-.8-.5 1.5z" fill="#fff"/><path d="M42.5 74.508c-.1 0-.2 0-.3-.1-.2-.2-.2-.4-.1-.6l.5-1.5c0-.1.1-.2.2-.3l1.3-.8c.2-.1.4-.1.6.1.2.1.2.4.2.6l-.5 1.5c0 .1-.1.2-.2.3l-1.3.8h-.4z" fill="#000"/><path d="M44.402 71.708l-1.3.8.9.7 1.3-.8-.9-.7z" fill="#fff"/><path d="M44.002 73.708c-.1 0-.2 0-.3-.1l-.9-.7c-.1-.1-.2-.3-.2-.5s.1-.3.3-.4l1.3-.8c.2-.1.4-.1.6 0l.9.7c.1.1.2.3.2.5s-.1.3-.3.4l-1.3.8c-.2.1-.2.1-.3.1z" fill="#000"/><path d="M47.402 72.008l-1.3.7-1.5-1.7 1.4-.8 1.4 1.8z" fill="#fff"/><path d="M46.1 73.308c-.1 0-.3-.1-.4-.2l-1.4-1.7c-.1-.1-.1-.3-.1-.4 0-.2.1-.3.3-.4l1.3-.8c.2-.1.5-.1.7.1l1.4 1.7c.1.1.1.3.1.4 0 .2-.1.3-.3.4l-1.3.8c-.1 0-.2.1-.3.1zm-.7-2.1l.8.9.4-.2-.8-.9-.4.2z" fill="#DF0112"/><path d="M46.002 70.208l-1.4.8-.5-.4 1.4-.8.5.4z" fill="#fff"/><path d="M44.602 71.507c-.1 0-.2 0-.3-.1l-.5-.4c-.1-.1-.2-.3-.2-.5s.1-.3.3-.4l1.3-.8c.2-.1.4-.1.6 0l.5.4c.1.1.2.3.2.5s-.1.3-.3.4l-1.3.8c-.1.1-.2.1-.3.1z" fill="#DF0112"/><path d="M35.798 74.008l-1.4.8.1.6 1.3-.8v-.6zm9.702-4.2l-1.4.8-.9-.4 1.4-.8.9.4z" fill="#fff"/><path d="M44.1 71.107c-.1 0-.2 0-.2-.1l-.9-.4c-.2-.1-.3-.3-.3-.5s.1-.4.3-.5l1.3-.8c.2-.1.3-.1.5 0l.9.4c.2.1.3.3.3.5s-.1.4-.3.5l-1.3.8c-.1.1-.2.1-.3.1z" fill="#DF0112"/><path d="M35.998 73.107l-1.4.7-.2 1 1.4-.8.2-.9zm-3.698-.4l-1.3.8 1.3-.2 1.4-.7-1.4.1z" fill="#fff"/><path d="M33.7 72.608l-1.4.7.4-.2 1.3-.8-.3.3z" fill="#fff"/><path d="M34 72.307l-1.3.8.4-.8 1.3-.7-.4.7z" fill="#fff"/><path d="M34.402 71.607l-1.3.7 1.5 1.5 1.4-.7-1.6-1.5zm10.196-2.199l-1.4.8-.3-2.1 1.3-.7.4 2z" fill="#fff"/><path d="M43.198 70.708c-.1 0-.2 0-.2-.1-.2-.1-.3-.2-.3-.4l-.3-2c0-.2.1-.4.3-.5l1.3-.8c.1-.1.3-.1.5 0s.3.2.3.4l.3 2c0 .2-.1.4-.3.5l-1.3.8c-.1.1-.2.1-.3.1zm.3-2.3l.1.9.4-.2-.1-.9-.4.2z" fill="#DF0112"/><path d="M45.1 67.508l-1.3.8h.4l1.4-.8h-.5z" fill="#fff"/><path d="M43.8 68.808c-.2 0-.4-.1-.5-.4-.1-.2 0-.5.2-.6l1.3-.8c.1 0 .1-.1.2-.1l.401-.1c.2 0 .5.1.6.4.1.2 0 .5-.2.6l-1.3.8c-.1 0-.1.1-.2.1l-.5.1z" fill="#000"/><path d="M44.198 67.408l-1.3.7.9.2 1.3-.8-.9-.1z" fill="#fff"/><path d="M43.798 68.808h-.1l-.9-.2c-.2 0-.4-.2-.4-.4s.1-.4.3-.5l1.3-.8c.1-.1.2-.1.4-.1l.9.2c.2 0 .4.2.4.4s-.1.4-.3.5l-1.4.9h-.2z" fill="#000"/><path d="M45.6 67.507l-1.4.8 1-.9 1.4-.8-1 .9z" fill="#fff"/><path d="M44.2 68.808c-.2 0-.3-.1-.4-.2-.2-.2-.1-.5.1-.7l1-.8 1.4-.8c.2-.1.5-.1.7.2.2.2.1.5-.1.7l-1 .8-1.4.8h-.3z" fill="#DF0112"/><path d="M31.6 71.808l-1.4.7.8 1 1.3-.8-.7-.9zm8-2.1l-1.3.8c-.5.3-1.3.3-2.1-.2l1.3-.8c.8.4 1.6.5 2.1.2zm-7.8.399l-1.3.7-.3 1.7 1.4-.7.2-1.7z" fill="#fff"/><path d="M32.1 69.708l-1.4.7-.2.4 1.3-.7.3-.4z" fill="#fff"/><path d="M32.7 69.208l-1.3.8-.7.4 1.4-.7.6-.5z" fill="#fff"/><path d="M31.6 67.208l-1.3.8 1.1 2 1.3-.8-1.1-2z" fill="#fff"/><path d="M31.399 70.607h-.1c-.1 0-.3-.1-.3-.3l-1.1-2c-.1-.3 0-.6.2-.7l1.3-.8c.1-.1.3-.1.4 0 .1 0 .3.1.3.3l1.1 2c.1.3 0 .6-.2.7l-1.3.8c-.2-.1-.3 0-.3 0zm-.4-2.4l.6 1.1.4-.3-.6-1.1-.4.3z" fill="#000"/><path d="M30.9 67.408l-1.4.7.8-.1 1.3-.8-.7.2z" fill="#fff"/><path d="M29.5 68.708c-.2 0-.4-.1-.5-.3-.1-.2 0-.5.2-.6l1.3-.8s.1 0 .2-.1l.7-.2c.3-.1.5.1.6.3.1.2 0 .5-.2.6l-1.3.8s-.1 0-.2.1l-.7.2h-.1z" fill="#000"/><path d="M30.4 67.308l-1.4.8h.5l1.4-.7-.5-.1z" fill="#fff"/><path d="M29.5 68.708l-.6-.1c-.2 0-.4-.2-.4-.4s.1-.4.3-.6l1.3-.8c.1-.1.2-.1.3-.1l.5.1c.2 0 .4.2.4.4s-.1.4-.3.6l-1.3.8s-.1.1-.2.1z" fill="#000"/><path d="M28.698 66.408l-1.3.8 1.6.9 1.4-.8-1.7-.9zm8.802 3l-1.3.8c-1.7-1-3-3.3-3-5.2l1.3-.8c-.1 1.9 1.3 4.3 3 5.2zm3-1.7l-1.3.8c0 1-.3 1.6-.9 2l1.3-.8c.6-.4.9-1 .9-2zm6.1-1.1l-1.4.8-.4-1.1 1.4-.8.4 1.1z" fill="#fff"/><path d="M45.201 67.908h-.2c-.1-.1-.3-.2-.3-.3l-.4-1.1c-.1-.2 0-.5.2-.6l1.3-.8c.1-.1.3-.1.4 0 .1.1.3.2.3.3l.4 1.1c.1.2 0 .5-.2.6l-1.3.8h-.2z" fill="#DF0112"/><path d="M28.3 65.308l-1.3.7.4 1.2 1.3-.8-.4-1.1zm6.102-1.1l-1.3.8c0-1 .3-1.6.9-2l1.3-.8c-.5.4-.9 1-.9 2z" fill="#fff"/><path d="M33.1 65.508c-.1 0-.2 0-.3-.1-.2-.1-.3-.3-.3-.5 0-1.1.4-2 1.2-2.4l1.3-.8c.3-.1.6-.1.7.2.1.3.1.6-.2.7-.4.2-.6.8-.6 1.5 0 .2-.1.4-.3.5l-1.3.8c0 .1-.1.1-.2.1z" fill="#000"/><path d="M37.5 62.508l-1.3.8c1.7 1 3 3.3 3 5.2l1.3-.8c0-1.9-1.4-4.3-3-5.2zm8.7 2.999l-1.4.8-1.6-.9 1.4-.8 1.6.9z" fill="#fff"/><path d="M44.8 66.808c-.1 0-.2 0-.2-.1l-1.6-.9c-.2-.1-.3-.3-.3-.5s.1-.4.3-.5l1.3-.8c.2-.1.4-.1.5 0l1.6.9c.2.1.3.3.3.5s-.1.4-.3.5l-1.3.8c-.1.1-.2.1-.3.1z" fill="#DF0112"/><path d="M44.6 64.608l-1.4.8-.5-.1 1.4-.8.5.1z" fill="#fff"/><path d="M43.2 65.908l-.6-.1c-.2 0-.4-.2-.4-.4s.1-.4.3-.6l1.3-.8h.3l.5.1c.2 0 .4.2.4.4s-.1.4-.3.6l-1.3.8h-.2z" fill="#DF0112"/><path d="M44.1 64.508l-1.4.8-.7.2 1.3-.8.8-.2z" fill="#fff"/><path d="M42 66.008c-.2 0-.4-.1-.5-.3-.1-.2 0-.5.2-.6l1.3-.8s.1 0 .1-.1l.9-.2c.3-.1.5.1.6.3.1.2 0 .5-.2.6l-1.4.9s-.1 0-.1.1l-.8.1H42z" fill="#DF0112"/><path d="M43.298 64.708l-1.3.8-1.1-2.1 1.3-.7 1.1 2z" fill="#fff"/><path d="M42 66.008h-.1c-.1 0-.3-.1-.3-.3l-1.1-2c-.1-.3 0-.6.2-.7l1.3-.8c.1-.1.3-.1.4 0 .1 0 .3.1.3.3l1.1 2c.1.3 0 .6-.2.7l-1.3.8H42zm-.4-2.4l.6 1.1.4-.3-.6-1-.4.2z" fill="#DF0112"/><path d="M42.198 62.708l-1.3.7.6-.4 1.4-.8-.7.5z" fill="#fff"/><path d="M40.9 64.007c-.2 0-.3-.1-.4-.2-.2-.2-.1-.6.1-.7l.6-.4 1.4-.8c.2-.1.6-.1.7.2.2.2.1.6-.1.7l-.6.4-1.4.8c-.1-.1-.2 0-.3 0z" fill="#DF0112"/><path d="M42.9 62.208l-1.4.8.2-.4 1.4-.8-.2.4z" fill="#fff"/><path d="M41.5 63.508c-.1 0-.3-.1-.4-.2-.2-.2-.2-.4-.1-.6l.2-.4c0-.1.1-.1.2-.2l1.3-.8c.2-.1.5-.1.6.1.2.2.2.4.1.6l-.2.4c0 .1-.1.1-.2.2l-1.3.8c0 .1-.1.1-.2.1z" fill="#DF0112"/><path d="M43.1 61.807l-1.4.8.3-1.7 1.4-.8-.3 1.7z" fill="#fff"/><path d="M41.7 63.108c-.1 0-.2 0-.3-.1-.2-.1-.3-.3-.2-.5l.3-1.7c0-.2.1-.3.3-.4l1.3-.8c.2-.1.4-.1.6 0 .2.1.3.3.2.5l-.3 1.7c0 .2-.1.3-.3.4l-1.3.9h-.3z" fill="#DF0112"/><path d="M35.3 62.208l-1.3.8c.5-.3 1.3-.3 2.1.2l1.3-.8c-.8-.4-1.5-.5-2.1-.2zm8.1-2.1l-1.4.8-.7-1 1.3-.7.8.9z" fill="#fff"/><path d="M42 61.408c-.2 0-.3-.1-.4-.2l-.7-1c-.1-.1-.1-.3-.1-.4 0-.1.1-.3.3-.4l1.3-.8c.2-.1.5-.1.7.1l.7 1c.1.1.1.3.1.4 0 .1-.1.3-.3.4l-1.3.8c-.1.1-.2.1-.3.1z" fill="#DF0112"/><path d="M29.4 64.408l-1.4.8-1 .8 1.3-.7 1.1-.9zm1.3.1l-1.4.8-.8-.2 1.3-.7.9.1z" fill="#fff"/><path d="M29.8 64.408l-1.3.7-.5.1 1.4-.8h.4z" fill="#fff"/><path d="M30.4 62.508l-1.4.8.3 2 1.4-.8-.3-2zm10.102-2.2l-1.3.8-1.6-1.5 1.4-.8 1.5 1.5z" fill="#fff"/><path d="M39.2 61.608c-.1 0-.3 0-.4-.1l-1.6-1.5c-.1-.1-.2-.3-.2-.4 0-.2.1-.3.3-.4l1.3-.8c.2-.1.5-.1.6.1l1.6 1.5c.1.1.2.3.2.4 0 .2-.1.3-.3.4l-1.3.8h-.2zm-.7-1.9l.8.7.4-.2-.8-.7-.4.2z" fill="#DF0112"/><path d="M40.9 59.607l-1.3.8-.4.7 1.3-.8.4-.7z" fill="#fff"/><path d="M39.199 61.608c-.1 0-.3 0-.4-.2-.2-.2-.2-.4-.1-.6l.4-.7c0-.1.1-.2.2-.2l1.3-.8c.2-.1.5-.1.6.1.2.2.2.4.1.6l-.3.8c0 .1-.1.2-.2.2l-1.3.8h-.3z" fill="#000"/><path d="M41.202 59.408l-1.3.7-.3.3 1.3-.8.3-.2z" fill="#fff"/><path d="M39.6 60.907c-.2 0-.3-.1-.4-.2-.2-.2-.2-.5 0-.7l.3-.3 1.4-.8c.2-.1.5-.1.7.2.2.2.1.5-.1.7l-.3.2-1.4.8c-.1.1-.1.1-.2.1z" fill="#DF0112"/><path d="M42.598 59.208l-1.3.7-1.4.2 1.3-.7 1.4-.2z" fill="#fff"/><path d="M39.899 60.707c-.2 0-.4-.1-.5-.4-.1-.2 0-.5.2-.6l1.3-.8c.1 0 .1-.1.2-.1l1.4-.2c.3 0 .5.1.6.4.1.2 0 .5-.2.6l-1.3.8c-.1 0-.1.1-.2.1l-1.5.2z" fill="#DF0112"/><path d="M39.002 58.808l-1.4.8.2-.9 1.3-.8-.1.9z" fill="#fff"/><path d="M37.602 60.108c-.1 0-.2 0-.3-.1-.2-.1-.2-.3-.2-.5l.2-.9c0-.1.1-.3.3-.4l1.3-.8c.2-.1.4-.1.6 0 .2.1.3.3.2.5l-.2.9c0 .1-.1.3-.3.4l-1.3.8c-.1.1-.2.1-.3.1z" fill="#DF0112"/><path d="M29.502 62.107l-1.4.7.9.5 1.4-.8-.9-.4zm9.598-4.199l-1.3.8v-.6l1.3-.8v.6z" fill="#fff"/><path d="M37.8 59.207c-.1 0-.2 0-.3-.1-.2-.1-.3-.3-.3-.4v-.6c0-.2.1-.4.3-.5l1.3-.8c.2-.1.4-.1.5 0 .2.1.3.3.3.4v.6c0 .2-.1.4-.3.5l-1.3.8c0 .1-.1.1-.2.1z" fill="#DF0112"/><path d="M28.902 61.708l-1.3.7.5.4 1.4-.7-.6-.4zm-1.402-1.8l-1.3.8 1.4 1.7 1.3-.7-1.4-1.8zm3 .3l-1.3.8-.9-.7 1.3-.8.9.7z" fill="#fff"/><path d="M29.2 61.508c-.1 0-.2 0-.3-.1l-.9-.7c-.1-.1-.2-.3-.2-.5s.1-.3.3-.4l1.3-.8c.2-.1.4-.1.6.1l.9.7c.1.1.2.3.2.5s-.1.3-.3.4l-1.3.8h-.3z" fill="#000"/><path d="M31 58.708l-1.3.8-.5 1.5 1.3-.8.5-1.5z" fill="#fff"/><path d="M29.2 61.508c-.1 0-.2 0-.3-.1-.2-.1-.2-.4-.2-.6l.5-1.5c0-.1.1-.2.2-.3l1.3-.8c.2-.1.4-.1.6.1.2.1.2.4.2.6l-.5 1.5c0 .1-.1.2-.2.3l-1.3.8h-.3z" fill="#000"/><path d="M36.898 57.508l-1.4.8-1.6-.6 1.4-.8 1.6.6z" fill="#fff"/><path d="M35.5 58.808h-.2l-1.6-.6c-.2-.1-.3-.2-.4-.4 0-.2.1-.4.3-.5l1.3-.8c.1-.1.3-.1.4 0l1.6.6c.2.1.3.2.3.5 0 .2-.1.4-.3.5l-1.3.8c.1-.1 0-.1-.1-.1z" fill="#000"/><path d="M36.8 56.408l-1.3.8v1.1l1.4-.8-.1-1.1z" fill="#fff"/><path d="M35.5 58.808c-.1 0-.2 0-.2-.1-.2-.1-.3-.2-.3-.4v-1.1c0-.2.1-.4.3-.5l1.3-.8c.2-.1.3-.1.5 0s.3.2.3.4l.1 1.1c0 .2-.1.4-.3.5l-1.3.8c-.2.1-.3.1-.4.1z" fill="#000"/><path d="M29.6 59.508l-1.3.8-.6-.3 1.4-.8.5.3z" fill="#fff"/><path d="M28.3 60.808c-.1 0-.2 0-.2-.1l-.5-.3c-.2-.1-.3-.3-.3-.5s.1-.4.3-.5l1.3-.8c.2-.1.3-.1.5 0l.5.3c.2.1.3.3.3.5s-.1.4-.3.5l-1.3.8c-.1.1-.2.1-.3.1z" fill="#000"/><path d="M27.6 59.008l-1.4.7v1l1.3-.8.1-.9z" fill="#fff"/><path d="M29.1 59.208l-1.4.8-1.5-.3 1.4-.7 1.5.2z" fill="#fff"/><path d="M27.7 60.508l-1.6-.2c-.2 0-.4-.2-.4-.4s.1-.4.3-.6l1.3-.8c.1-.1.2-.1.3-.1l1.5.2c.2 0 .4.2.4.4s-.1.4-.3.6l-1.2.8c-.1.1-.2.1-.3.1z" fill="#DF0112"/><path d="M30.198 57.808l-1.3.8.8.9 1.3-.8-.8-.9z" fill="#fff"/><path d="M29.7 60.008c-.1 0-.3-.1-.4-.2l-.8-.9c-.1-.1-.2-.3-.1-.4 0-.2.1-.3.3-.4l1.3-.8c.2-.1.5-.1.7.1l.8.9c.1.1.2.3.1.4-.1.1-.1.3-.3.4l-1.4.9h-.2z" fill="#DF0112"/><path d="M33.4 56.908l-1.3.8-1.3.5 1.4-.8 1.2-.5z" fill="#fff"/><path d="M30.8 58.708c-.2 0-.4-.1-.5-.3-.1-.3 0-.6.2-.7l1.3-.8 1.3-.6c.3-.1.6 0 .7.3.1.3 0 .6-.2.7l-1.3.8-1.3.6h-.2z" fill="#000"/><path d="M29.8 57.208l-1.3.8.4.6 1.3-.8-.4-.6z" fill="#fff"/><path d="M28.898 59.108c-.2 0-.3-.1-.4-.2l-.5-.6c-.1-.1-.1-.3-.1-.4 0-.1.1-.3.3-.3l1.3-.8c.2-.1.5-.1.7.2l.4.6c.1.1.1.3.1.4 0 .1-.1.3-.3.3l-1.3.7c0 .1-.1.1-.2.1z" fill="#DF0112"/><path d="M32.2 57.408l-1.4.8-.6-1.1 1.3-.8.7 1.1z" fill="#fff"/><path d="M30.8 58.708c-.2 0-.3-.1-.5-.3l-.7-1.1c-.1-.1-.1-.3-.1-.4 0-.1.1-.3.2-.3l1.3-.8c.2-.1.6-.1.7.2l.7 1.1c.1.1.1.3.1.4 0 .1-.1.3-.2.3l-1.3.8c0 .1-.1.1-.2.1z" fill="#000"/><path d="M32.902 55.708l-1.3.8.5 1.2 1.3-.8-.5-1.2z" fill="#fff"/><path d="M32.102 58.208h-.2c-.1 0-.3-.1-.3-.3l-.5-1.2c-.1-.2 0-.5.2-.7l1.3-.8c.1-.1.3-.1.4 0 .1 0 .3.2.3.3l.5 1.2c.1.2 0 .5-.2.7l-1.3.8h-.2z" fill="#000"/><path d="M35.3 56.908l-1.4.8-.2-1.2 1.3-.7.3 1.1z" fill="#fff"/><path d="M33.9 58.208h-.2c-.2-.1-.3-.2-.3-.4l-.3-1.2c-.1-.2 0-.5.3-.6l1.3-.8c.1-.1.3-.1.5 0s.3.2.3.4l.3 1.2c.1.2 0 .5-.3.6l-1.3.8h-.3z" fill="#DF0112"/><path d="M36.9 55.908l-1.3.7-.1.6 1.3-.8.1-.5z" fill="#fff"/><path d="M35.5 57.708c-.1 0-.2 0-.3-.1-.2-.1-.3-.3-.2-.5l.1-.5c0-.2.1-.3.3-.4l1.3-.8c.2-.1.4-.1.6 0 .2.1.3.3.2.5l-.1.5c0 .2-.1.3-.3.4l-1.3.8c-.1.1-.2.1-.3.1z" fill="#000"/><path d="M39.1 57.308l-1.3.8-.6-2.1 1.4-.8.5 2.1z" fill="#fff"/><path d="M37.8 58.607h-.2c-.2-.1-.3-.2-.3-.3l-.6-2.1c-.1-.2 0-.5.2-.6l1.3-.8c.1-.1.3-.1.5 0s.3.2.3.3l.6 2.1c.1.2 0 .5-.2.6l-1.4.7c0 .1-.1.1-.2.1zm0-2.4l.3 1 .4-.2-.3-1-.4.2z" fill="#DF0112"/><path d="M37.702 54.607l-1.4.8-.7 1.2 1.3-.7.8-1.3z" fill="#fff"/><path d="M35.6 57.208c-.1 0-.3-.1-.4-.2-.2-.2-.2-.4-.1-.6l.8-1.2c0-.1.1-.1.2-.2l1.3-.8c.2-.1.5-.1.6.1.2.2.2.4.1.6l-.8 1.2c0 .1-.1.1-.2.2l-1.3.8c-.1 0-.2.1-.2.1z" fill="#DF0112"/><path d="M38.6 55.207l-1.4.8-.9-.6 1.4-.8.9.6z" fill="#fff"/><path d="M37.2 56.508c-.1 0-.2 0-.3-.1l-.9-.5c-.2-.1-.2-.3-.2-.5s.1-.4.3-.4l1.3-.8c.2-.1.4-.1.5 0l.9.6c.2.1.2.3.2.5s-.1.4-.3.4l-1.3.8h-.2z" fill="#DF0112"/><path d="M34.998 55.807l-1.3.7-.3-.6 1.3-.8.3.7z" fill="#fff"/><path d="M33.699 57.108h-.2c-.1-.1-.3-.2-.3-.3l-.3-.7c-.1-.2 0-.5.2-.7l1.3-.8c.1-.1.3-.1.4 0 .1 0 .3.2.3.3l.3.7c.1.2 0 .5-.2.7l-1.3.7c-.1 0-.2.1-.2.1z" fill="#DF0112"/><path d="M28.902 55.107l-1.3.8.9 2.1 1.3-.8-.9-2.1z" fill="#fff"/><path d="M28.502 58.508h-.2c-.1 0-.3-.2-.3-.3l-.9-2.1c-.1-.2 0-.5.2-.7l1.3-.8c.1-.1.3-.1.4 0 .1 0 .3.2.3.3l.9 2.1c.1.2 0 .5-.2.7l-1.3.8h-.2zm-.2-2.4l.5 1.1.4-.2-.5-1.1-.4.2z" fill="#000"/><path d="M31.5 56.308l-1.3.8-.5-.6 1.3-.7.5.5z" fill="#fff"/><path d="M30.2 57.608c-.2 0-.3-.1-.4-.2l-.5-.6c-.1-.1-.1-.3-.1-.4 0-.2.1-.3.3-.4l1.3-.8c.2-.1.5-.1.7.1l.5.6c.1.1.1.3.1.4 0 .2-.1.3-.3.4l-1.3.8c-.2.1-.2.1-.3.1z" fill="#000"/><path d="M32.698 55.107l-1.3.7.2.7 1.3-.8-.2-.6z" fill="#fff"/><path d="M31.599 57.008h-.2c-.2-.1-.3-.2-.3-.3l-.2-.7c-.1-.2 0-.5.2-.6l1.3-.8c.1-.1.3-.1.5 0 .1.1.3.2.3.3l.2.7c.1.2 0 .5-.2.6l-1.4.8h-.2z" fill="#000"/><path d="M29.402 54.508l-1.3.8-.5.6 1.3-.8.5-.6z" fill="#fff"/><path d="M27.6 56.408c-.2 0-.3-.1-.4-.2-.2-.2-.2-.5 0-.7l.5-.6.1-.1 1.3-.8c.2-.1.5-.1.7.1.2.2.2.5 0 .7l-.5.6-.1.1-1.3.8c-.1.1-.2.1-.3.1z" fill="#DF0112"/><path d="M31.002 55.808l-1.3.7-1.6-1.2 1.3-.8 1.6 1.3z" fill="#fff"/><path d="M29.702 57.108c-.1 0-.2 0-.3-.1l-1.6-1.2c-.1-.1-.2-.3-.2-.5s.1-.3.3-.4l1.3-.8c.2-.1.4-.1.6 0l1.6 1.2c.1.1.2.3.2.5s-.1.3-.3.4l-1.3.8c-.1.1-.2.1-.3.1zm-.7-1.7l.7.5.4-.2-.7-.5-.4.2z" fill="#DF0112"/><path d="M32.7 53.208l-1.4.7.1 1.9 1.3-.7v-1.9z" fill="#fff"/><path d="M31.4 56.408c-.1 0-.2 0-.3-.1-.2-.1-.3-.3-.3-.4v-1.9c0-.2.1-.4.3-.5l1.3-.8c.2-.1.4-.1.5 0 .2.1.3.3.3.4v1.9c0 .2-.1.4-.3.5l-1.3.8s-.1.1-.2.1z" fill="#DF0112"/><path d="M34.702 55.108l-1.3.8-1.3-2 1.4-.7 1.2 1.9z" fill="#fff"/><path d="M33.402 56.408c-.2 0-.3-.1-.4-.2l-1.3-1.9c-.1-.1-.1-.3-.1-.4 0-.1.1-.3.2-.3l1.3-.8c.2-.1.5-.1.7.2l1.3 1.9c.1.1.1.3.1.4 0 .1-.1.3-.3.3l-1.3.8h-.2zm-.5-2.3l.7 1 .4-.2-.7-1-.4.2z" fill="#DF0112"/><path d="M33.5 53.208l-1.4.7h-.8l1.4-.7h.8z" fill="#fff"/><path d="M32.1 54.507h-.8c-.2 0-.4-.2-.5-.4-.1-.2 0-.5.2-.6l1.3-.8c.1 0 .2-.1.3-.1h.801c.2 0 .4.2.5.4.1.2 0 .5-.3.6l-1.3.8s-.1.1-.2.1z" fill="#DF0112"/><path d="M43.4 75.608l-1.3.8.1.5.1 1.9-1.3.8-.1-1.9-.2-.7-.5-1.2 1.3-.8 1.2-.5.7 1.1zm1.3-1.5l-.8-.9h.1l.5.3 1.3-.8-.5-.3-.9-.7-1.3.8-.5 1.5.8.9.4.6.9 2.1-.5.6 1.3-.8.5-.6-.9-2.1-.4-.6zm-8 1.1l.1 1.1-.1.5-.8 1.2 1.3-.8.8-1.2.1-.4.2.1 1.3-.8-1.6-.5-1.3.8zm9.3-5l-.5-.4-.9-.4-.2-1.2 1.2-.7 1-.8-.4-1.1-1.6-.9-.5-.1-.7.2-1.1-2 .6-.4.2-.4.3-1.7-.7-1-1.4.2-1.2.5-1.1-1.2.2-.9v-.6l-.6-2.1-.9-.6-1.3.8-.8 1.2-.1.4-.2-.1-.3-1.1-.3-.7-1.3-1.9h-.8l-1.3.8.1 1.9.1.5-.5-.6-1.6-1.2-1.3.8-.5.6.9 2.1.4.6.8.9h-.1l-.5-.3-1.5-.3-1.3.8-.1 1 1.4 1.7.5.4.9.4.2 1.2-1.2.7-1 .8.4 1.1 1.6.9.5.1.8-.2 1.1 2-.6.4-.3.4-.3 1.7.7 1 1.4-.2 1.1-.6 1.2 1.1-.2.9v.6l.6 2.1 1.3-.8-.6-2.1v-.6l.2-.9-1.6-1.5-1.3.8-.2.3-.6.1-.7-1 .3-1.7.3-.4.6-.4-1.1-2-.7.2-.5-.1-1.6-.9-.4-1.1.2-.1.8.2 1.3-.8-.3-2-.9-.4-.5-.4-1.4-1.7h.2l.5.3.9.7 1.3-.8.5-1.5-.8-.9-.4-.6-.3-.8.2.2.5.6.7 1.1 1.2-.5 1.3-.8-.5-1.2-.2-.7v-.2l.7 1 .3.7.3 1.2 1.6.6 1.3-.8-.1-1.1.1-.5.3.2.6 2.1v.6l-.2.9 1.5 1.5 1.3-.8.2-.3.6-.1.7 1-.3 1.7-.1.2-.6.4 1.1 2 .7-.2.5.1 1.6.9.4 1.1-.2.1-.8-.2-1.3.8.3 2 .9.4.5.4 1.4 1.7-.1 1 1.3-.8.1-1-1.3-1.5zm-5.5-2.5c0 1-.3 1.6-.9 2l-1.3.8c-.5.3-1.3.3-2.1-.2-1.7-1-3-3.3-3-5.2 0-1 .3-1.6.9-2l1.3-.8c.5-.3 1.3-.3 2.1.2 1.6.9 3 3.3 3 5.2zm-1.7 2.1c.2-.4.3-.8.3-1.4 0-1.9-1.4-4.3-3-5.2-.5-.3-.9-.4-1.3-.4-.2.4-.3.8-.3 1.4 0 1.9 1.4 4.3 3 5.2.5.3.9.4 1.3.4zm0 .6c-.5 0-1.1-.2-1.6-.5-1.8-1.1-3.3-3.6-3.3-5.7 0-.6.1-1.2.4-1.6.1-.2.3-.3.5-.3.5 0 1.1.2 1.6.5 1.8 1.1 3.3 3.6 3.3 5.7 0 .6-.1 1.2-.4 1.6-.1.2-.3.3-.5.3zm-3.7-7c-.1.2-.1.5-.1.8 0 1.7 1.3 3.9 2.8 4.8.3.2.5.3.8.3.1-.2.1-.5.1-.8 0-1.7-1.3-3.9-2.8-4.8-.3-.2-.6-.3-.8-.3z" fill="#fff"/><path d="M40.702 76.908l-.5-1.2 1.2-.5.7 1.1.5.6 1.6 1.2.5-.6-.9-2.1-.4-.6-.8-.9.5-1.5.9.7.5.3 1.5.2.1-1-1.5-1.6-.5-.4-.9-.4-.3-2 .9.2.4-.1 1-.8-.4-1.1-1.6-.9-.5-.1-.7.1-1.1-2 .6-.4.2-.4.3-1.7-.7-1-1.4.2-.3.3-.4.7-1.5-1.5.2-.9v-.6l-.7-2.2-.9-.6-.8 1.2-.1.5.1 1.1-1.6-.6-.3-1.2-.3-.7-1.3-1.9h-.8l.1 1.9.2.7.5 1.2-1.2.5-.7-1.1-.5-.6-1.6-1.2-.5.6.9 2.1.4.6.8.9-.4 1.6-.9-.7-.6-.3-1.5-.2-.1 1 1.4 1.7.5.4.9.4.3 2-.9-.2-.3.1-1 .8.4 1.1 1.6.9.5.1.8-.2 1.1 2-.6.4-.3.4-.3 1.7.7 1 1.4-.2.3-.3.4-.7 1.6 1.5-.2.9v.6l.6 2.1.9.6.8-1.2.1-.5-.1-1.1 1.6.6.3 1.2.3.7 1.3 1.9h.8l-.1-1.9-.2-.7zm-4.6-6.7c-1.7-1-3-3.3-3-5.2 0-1 .3-1.6.9-2 .5-.3 1.3-.3 2.1.2 1.7 1 3 3.3 3 5.2 0 1-.3 1.6-.9 2-.5.3-1.2.3-2.1-.2z" fill="#fff"/><path d="M40.9 80.108h-.8c-.2 0-.3-.1-.4-.2l-1.3-1.9-.3-.8-.2-.9-.6-.3v.3l-.1.7c0 .1 0 .1-.1.2l-.8 1.2c-.1.1-.2.2-.3.2-.1 0-.3 0-.4-.1l-.9-.6c-.1-.1-.2-.2-.2-.3l-.6-2.1v-.7l.1-.7-.9-.8-.1.1c0 .1-.1.1-.1.1l-.3.3c-.1.1-.2.1-.3.1l-1.3.1c-.2 0-.4-.1-.5-.2l-.7-1c-.1-.1-.1-.3-.1-.4l.3-1.7c0-.1 0-.1.1-.2l.3-.4c0-.1.1-.1.1-.1l.2-.2-.7-1.2-.4.1h-.2l-.5-.1c-.1 0-.1 0-.2-.1l-1.6-.9c-.1-.1-.2-.2-.2-.3l-.4-1.1c-.1-.2 0-.4.2-.6l1-.9c.1-.1.2-.1.3-.1l.5-.1h.3l-.2-1-.7-.3-.6-.5-1.5-1.8c-.1-.1-.1-.2-.1-.4l.1-1c0-.1.1-.3.2-.4.1-.1.3-.1.4-.1l1.5.2c.1 0 .1 0 .2.1l.5.3.4.3.2-.5-.6-.7-.6-.4-.9-2.2c-.1-.2 0-.4.1-.5l.5-.6c.2-.2.5-.2.7-.1l1.6 1.2.5.6.5.8.3-.1-.3-.7-.1-.7-.1-2c0-.1 0-.3.2-.4.1-.1.2-.2.4-.2h.8c.2 0 .3.1.4.2l1.3 1.9.3.8.2 1 .6.2v-.3l.1-.7c0-.1 0-.1.1-.2l.8-1.2c.1-.1.2-.2.3-.2.1 0 .3 0 .4.1l.9.6c.1.1.2.2.2.3l.6 2.1v.7l-.1.7.9.8.1-.1c0-.1.1-.1.1-.2l.3-.3c.1-.1.2-.1.3-.1l1.4-.2c.2 0 .4.1.5.2l.7 1c.1.1.1.3.1.4l-.3 1.7c0 .1 0 .1-.1.2l-.2.4c0 .1-.1.1-.1.2l-.2.2.7 1.3.3-.1h.2l.5.1c.1 0 .1 0 .2.1l1.6.9.3.3.4 1.1c.1.2 0 .4-.2.6l-1 .8c-.1.1-.2.1-.3.1l-.4.1h-.3l.2 1 .7.3.6.5 1.5 1.8c.1.1.1.2.1.4l-.1 1c0 .1-.1.3-.2.4-.1.1-.3.1-.4.1l-1.8-.4c-.1 0-.1 0-.2-.1l-.5-.3-.4-.3-.2.5.6.7.5.7.9 2.2c.1.2 0 .4-.1.6l-.5.5c-.2.2-.5.2-.7.1l-1.6-1.2-.6-.6-.5-.8-.3.1.3.7.2.8.1 2c0 .1-.1.3-.2.4 0 0-.1.1-.3.1zm-4.2-5.4h.2l1.6.6c.2.1.3.2.3.4l.3 1.2.3.6 1 1.5v-1.3l-.2-.6-.5-1.1c-.1-.1-.1-.3 0-.4l.3-.3 1.2-.5c.2-.1.5 0 .7.2l.7 1.1.4.5 1 .8-.7-1.7-.4-.5-.8-.9c-.1-.1-.2-.3-.1-.5l.5-1.5c.1-.2.2-.3.4-.3s.3 0 .5.1l.9.7.4.2.9.1v-.2l-1.3-1.6-.5-.3-.8-.4c-.2-.1-.3-.2-.3-.4l-.3-2c0-.2 0-.3.2-.5.1-.1.3-.2.5-.1l.8.2h.2l.6-.5-.2-.6-1.5-.8h-.3l-.6.1c-.2 0-.5-.1-.6-.3l-1.1-2c-.1-.2-.1-.5.2-.7l.5-.4.1-.2.2-1.4-.4-.5-.9.1-.1.1-.3.6c-.1.1-.2.2-.4.3-.2 0-.3 0-.4-.1l-1.7-1.5c-.1-.1-.2-.3-.1-.5l.2-.9v-.5l-.5-1.8-.3-.2-.4.7-.1.4.1 1c0 .2-.1.3-.2.5-.1.1-.3.1-.5.1l-1.6-.6c-.2-.1-.3-.2-.3-.4l-.3-1.2-.3-.6-1-1.5v1.3l.2.5.5 1.1c.1.1.1.3 0 .4l-.3.3-1.3.6c-.2.1-.5 0-.7-.2l-.7-1.1-.4-.5-1-.8.7 1.7.4.5.8.9c.1.1.2.3.1.5l-.5 1.5c-.1.2-.2.3-.4.3s-.3 0-.5-.1l-.9-.7-.4-.2-.9-.1v.2l1.3 1.6.4.3.8.4c.2.1.3.2.3.4l.3 2c0 .2 0 .3-.2.5-.1.1-.3.2-.5.1l-.8-.2H28l-.6.5.2.6 1.4.7h.3l.7-.1c.2 0 .5.1.6.3l1.1 2c.1.2.1.5-.2.7l-.5.4v.2l-.2 1.4.4.6.9-.1.1-.1.3-.6c.1-.1.2-.2.4-.3.2 0 .3 0 .4.1l1.6 1.5c.1.1.2.3.2.5l-.1.9v.5l.5 1.8.3.2.4-.7.1-.4-.1-1c0-.2.1-.3.2-.5.1-.1.2-.1.3-.1zm.8-3.5c-.5 0-1.1-.2-1.6-.5-1.8-1.1-3.3-3.6-3.3-5.7 0-1.1.4-2 1.2-2.4.7-.4 1.7-.3 2.7.2 1.8 1.1 3.3 3.6 3.3 5.7 0 1.1-.4 2-1.2 2.4-.4.2-.7.3-1.1.3zm-2.7-7.9c-.2 0-.4 0-.5.1-.4.2-.6.8-.6 1.5 0 1.7 1.3 3.9 2.8 4.8.6.4 1.2.4 1.6.2.4-.2.6-.8.6-1.5 0-1.7-1.3-3.9-2.8-4.8-.4-.1-.8-.3-1.1-.3z" fill="#DF0112"/></svg>