<svg width="62" height="89" fill="none" xmlns="http://www.w3.org/2000/svg"><path d="M60.517 31.406l-6.404 3.679V88.5l6.404-3.679V31.406z" fill="#fff"/><path d="M54.117 88.98c-.08 0-.16 0-.24-.08a.44.44 0 01-.24-.4V35.084c0-.16.08-.32.24-.4l6.404-3.678a.51.51 0 01.48 0c.16.08.24.24.24.4v53.416c0 .16-.08.32-.24.4L54.357 88.9c-.08.08-.16.08-.24.08zm.48-53.576v52.217l5.364-3.119V32.286l-5.364 3.118z" fill="#0000BD"/><path d="M6.885.46L.48 4.138l53.636 30.946 6.404-3.678L6.885.46z" fill="#fff"/><path d="M54.115 35.564c-.08 0-.16 0-.24-.08L.24 4.618c-.16-.08-.24-.24-.24-.48 0-.16.08-.32.24-.4L6.644.06a.51.51 0 01.48 0L60.76 31.006c.16.08.24.24.24.4 0 .16-.08.32-.24.4l-6.404 3.678c-.08.08-.16.08-.24.08zM1.521 4.138l52.594 30.387 5.364-3.12L6.885 1.1 1.52 4.138z" fill="#0000BD"/><path d="M.48 4.139l53.636 30.946V88.5L.48 57.555V4.139z" fill="#fff"/><path d="M54.115 88.98c-.08 0-.16 0-.24-.08L.24 57.954a.44.44 0 01-.24-.4V4.139c0-.16.08-.32.24-.4a.51.51 0 01.48 0l53.636 30.947c.16.08.24.24.24.4V88.5c0 .16-.08.32-.24.4-.08.08-.16.08-.24.08zM1.041 57.235L53.635 87.62V35.404L1.041 5.018v52.217z" fill="#0000BD"/><path d="M17.291 67.23l-9.206-5.357V48.039l9.206 5.277V67.23z" fill="#fff"/><path d="M17.292 67.71c-.08 0-.16 0-.24-.08l-9.206-5.277a.44.44 0 01-.24-.4V48.039c0-.16.08-.32.24-.4a.51.51 0 01.48 0l9.286 5.278c.16.08.24.24.24.4V67.23c0 .16-.08.32-.24.4-.08.08-.16.08-.32.08zm-8.726-6.077l8.245 4.718V53.636L8.566 48.84v12.794z" fill="#000"/><path d="M31.942 75.706l-9.286-5.357V52.197l9.286 5.358v18.151z" fill="#fff"/><path d="M31.942 76.186c-.08 0-.16 0-.24-.08l-9.286-5.357a.44.44 0 01-.24-.4V52.197c0-.16.08-.32.24-.4a.51.51 0 01.48 0l9.286 5.358c.16.08.24.24.24.4v18.152c0 .16-.08.32-.24.4-.08.08-.16.08-.24.08zm-8.726-6.157l8.246 4.798V57.795l-8.245-4.798v17.032z" fill="#000"/><path d="M46.59 84.102l-9.286-5.357V47.718l9.286 5.278v31.106z" fill="#fff"/><path d="M46.59 84.582c-.08 0-.16 0-.24-.08l-9.286-5.358c-.16 0-.24-.24-.24-.4V47.72c0-.16.08-.32.24-.4a.51.51 0 01.48 0l9.287 5.357c.16.08.24.24.24.4v31.106c0 .16-.08.32-.24.4h-.24zm-8.805-6.077l8.245 4.718V53.316l-8.245-4.798v29.987z" fill="#000"/><path d="M13.047 55.795l4.243-2.479V67.23l-4.243 2.479V55.795z" fill="#fff"/><path d="M13.05 70.189c-.08 0-.16 0-.24-.08a.44.44 0 01-.24-.4V55.795c0-.16.08-.32.24-.4l4.243-2.479a.51.51 0 01.48 0c.16.08.24.24.24.4V67.23c0 .16-.08.32-.24.4l-4.242 2.479c0 .08-.16.08-.24.08zm.561-14.074v12.714l3.282-1.839V54.196l-3.282 1.919z" fill="#DF0112"/><path d="M27.7 59.954l4.242-2.4v18.153l-4.243 2.399V59.954z" fill="#fff"/><path d="M27.7 78.665c-.081 0-.161 0-.241-.08a.44.44 0 01-.24-.4V59.953c0-.16.08-.32.24-.4l4.243-2.478a.51.51 0 01.48 0c.16.08.24.24.24.4v18.151c0 .16-.08.32-.24.4l-4.243 2.479c-.08.08-.16.16-.24.16zm.48-18.392v16.953l3.201-1.84V58.434l-3.202 1.84z" fill="#DF0112"/><path d="M18.41 54.676l4.243-2.479 9.286 5.358-4.243 2.399-9.286-5.278z" fill="#fff"/><path d="M27.7 60.513c-.08 0-.16 0-.24-.08l-9.286-5.357a.44.44 0 01-.24-.4c0-.16.08-.32.24-.4l4.242-2.479a.51.51 0 01.48 0l9.287 5.358c.16.08.24.24.24.4 0 .16-.08.32-.24.4l-4.243 2.478c-.08 0-.16.08-.24.08zm-8.245-5.837l8.245 4.718 3.282-1.84-8.325-4.797-3.202 1.919z" fill="#DF0112"/><path d="M42.348 55.476l4.242-2.479v31.106l-4.242 2.479V55.476z" fill="#fff"/><path d="M42.347 87.062c-.08 0-.16 0-.24-.08a.44.44 0 01-.24-.4V55.476c0-.16.08-.32.24-.4l4.243-2.479a.51.51 0 01.48 0c.16.08.24.24.24.4v31.106c0 .16-.08.32-.24.4l-4.242 2.479c-.08.08-.16.08-.24.08zm.48-31.266v29.906l3.283-1.839V53.877l-3.282 1.919z" fill="#DF0112"/><path d="M33.063 50.118l4.242-2.4 9.286 5.278-4.242 2.48-9.286-5.358z" fill="#fff"/><path d="M42.348 55.955c-.08 0-.16 0-.24-.08l-9.286-5.278a.44.44 0 01-.24-.4c0-.16.08-.32.24-.4l4.243-2.478a.51.51 0 01.48 0l9.286 5.357c.16.08.24.24.24.4 0 .16-.08.32-.24.4l-4.242 2.479h-.24zm-8.325-5.837l8.245 4.717 3.282-1.839-8.245-4.718-3.282 1.84z" fill="#DF0112"/><path d="M3.844 50.438l4.243-2.399 9.206 5.278-4.243 2.479-9.206-5.358z" fill="#fff"/><path d="M13.05 56.275c-.08 0-.16 0-.24-.08l-9.207-5.277a.44.44 0 01-.24-.4c0-.16.08-.32.24-.4l4.243-2.479a.51.51 0 01.48 0l9.287 5.278c.16.08.24.24.24.4 0 .16-.08.32-.24.4l-4.243 2.478c-.08.08-.24.08-.32.08zm-8.246-5.837l8.246 4.718 3.282-1.84L8.086 48.6l-3.282 1.839z" fill="#DF0112"/><path d="M13.05 69.709L3.844 64.35V50.438l9.206 5.357V69.71z" fill="#fff"/><path d="M13.05 70.189c-.08 0-.16 0-.24-.08L3.602 64.83a.44.44 0 01-.24-.4V50.437c0-.16.08-.32.24-.4a.51.51 0 01.48 0l9.287 5.358c.16.08.24.24.24.4v13.914c0 .16-.08.32-.24.4-.08.08-.24.08-.32.08zM4.324 64.03l8.245 4.718V56.115l-8.245-4.798V64.03z" fill="#DF0112"/><path d="M27.696 78.105l-9.286-5.277V54.676l9.286 5.277v18.152z" fill="#fff"/><path d="M27.7 78.665c-.08 0-.16 0-.24-.08l-9.286-5.358a.44.44 0 01-.24-.4V54.676c0-.16.08-.32.24-.4a.51.51 0 01.48 0l9.286 5.357c.16.08.24.24.24.4v18.152c0 .16-.08.32-.24.4-.08 0-.16.08-.24.08zm-8.726-6.157l8.246 4.797V60.273l-8.246-4.798v17.033z" fill="#DF0112"/><path d="M42.349 86.582l-9.286-5.358V50.118l9.286 5.358v31.106z" fill="#fff"/><path d="M42.348 87.061c-.08 0-.16 0-.24-.08l-9.286-5.357a.44.44 0 01-.24-.4V50.118c0-.16.08-.32.24-.4a.51.51 0 01.48 0l9.287 5.358c.16.08.24.24.24.4v31.106c0 .16-.08.32-.24.4-.08.08-.16.08-.24.08zm-8.805-6.157l8.245 4.798V55.795l-8.245-4.797v29.906z" fill="#DF0112"/></svg>