<svg width="85" height="68" fill="none" xmlns="http://www.w3.org/2000/svg"><path d="M79.1 33.877c0 4.362-5.646 13.431-5.992 14.005C72.762 47.08 67 31.237 67 26.875c0-4.477 2.766-6.544 6.108-4.592 3.342 2.066 5.992 7.232 5.992 11.594z" stroke="#DF0112" stroke-miterlimit="10"/><path d="M69.766 21.709l4.61-2.526h.114c.922-.344 2.19-.23 3.458.574 3.342 1.952 6.108 7.117 6.108 11.594 0 4.477-5.993 13.776-5.993 13.776l-.346.344c-1.037.574-4.61 2.64-4.61 2.64" stroke="#DF0112" stroke-miterlimit="10"/><path d="M74.884 35.529c1.406-.596 1.656-3.16.56-5.727-1.097-2.567-3.126-4.165-4.531-3.57-1.406.596-1.656 3.16-.56 5.727 1.097 2.567 3.126 4.165 4.531 3.57zM61.606 12.81c0 3.464-4.483 10.664-4.757 11.12C56.575 23.29 52 10.715 52 7.252c0-3.555 2.196-5.195 4.849-3.646 2.562 1.64 4.757 5.742 4.757 9.205z" stroke="#DF0112" stroke-miterlimit="10"/><path d="M54.196 3.15l3.66-2.005h.09c.733-.273 1.74-.182 2.746.456 2.653 1.55 4.849 5.65 4.849 9.205 0 3.554-4.666 10.936-4.666 10.936l-.275.273c-.823.456-3.66 2.097-3.66 2.097" stroke="#DF0112" stroke-miterlimit="10"/><path d="M58.17 14.14c1.117-.473 1.316-2.508.445-4.546-.87-2.038-2.481-3.307-3.597-2.834-1.116.473-1.315 2.509-.444 4.547.87 2.038 2.481 3.306 3.597 2.833zM18.286 45.118c0 6.085-8.067 19.171-8.643 19.975C9.183 63.945 1 41.33 1 35.246c0-6.314 3.803-9.184 8.643-6.429 4.84 2.756 8.643 9.988 8.643 16.301z" stroke="#DF0112" stroke-miterlimit="10"/><path d="M5.034 27.899l6.453-3.559.115-.114c1.383-.46 3.112-.23 4.84.803 4.726 2.755 8.644 10.102 8.644 16.416s-8.413 19.63-8.413 19.63-.23.344-.46.574c-1.384.918-6.454 3.903-6.454 3.903" stroke="#DF0112" stroke-miterlimit="10"/><path d="M12.236 47.419c1.991-.844 2.333-4.508.762-8.183-1.57-3.676-4.457-5.971-6.448-5.127-1.991.844-2.333 4.508-.763 8.183 1.57 3.676 4.458 5.971 6.45 5.127z" stroke="#DF0112" stroke-miterlimit="10"/><path d="M12 67c51.5-9.5 59.5-15.5 57-19.5s-44.5-9-38.5-16 15-7 23-7.5" stroke="#0000BD" stroke-dasharray="2 2"/></svg>