<svg width="165" height="56" fill="none" xmlns="http://www.w3.org/2000/svg"><path fill-rule="evenodd" clip-rule="evenodd" d="M74.613 26.164c.56 0 1.119-.111 1.566-.223.224 0 .448-.111.671-.222.224-.112.448-.223.56-.334.224-.112.335-.223.447-.334.112-.112.224-.223.336-.446.112-.111.224-.334.224-.445 0-.223.111-.334.111-.557 0-.445-.223-.89-.559-1.113a5.46 5.46 0 00-.783-.334c-.336-.111-.671-.111-1.119-.111h-2.013l-.783 4.008h1.342v.111zm71.146 3.117h4.922l-1.23-6.234-3.692 6.234zm5.369 2.227h-6.6l-1.901 3.229-.112.111h-3.132l.335-.445 8.838-14.251.111-.111h2.573l.112.222 3.356 14.251.112.445h-2.797v-.222l-.895-3.229zm-22.372.78h-2.461l-.112-.223-2.573-7.348-2.461 9.909-.112.222h-2.685l.224-.334 3.58-14.25.111-.223h2.461l.112.222 3.244 9.464 6.824-9.575.112-.111h2.685v.334l-2.014 14.25v.223h-2.685v-.334l1.231-9.463-5.146 7.125-.112.111h-.223zm-21.478-5.79c-.224.78-.336 1.447-.56 2.115a12.783 12.783 0 01-.671 1.67 18.092 18.092 0 01-.671 1.448c-.224.445-.448.78-.783 1.113-.224.334-.559.668-.783.89-.224.224-.559.446-.783.669-.224.223-.56.334-.783.445-.336.111-.56.223-.895.334l-.224.111-.112-.222-.783-1.67-.112-.334.336-.111c.447-.223 1.007-.446 1.342-.78.448-.334.783-.89 1.119-1.447a8.328 8.328 0 00.895-2.004c.335-.78.559-1.559.783-2.45l1.566-6.123.112-.111h9.844l-.112.334-2.797 14.25v.223h-2.796l.112-.334 2.349-12.247h-4.698l-.895 4.231zm-15.773-6.792c.56 0 1.007 0 1.566.112.447.111 1.007.223 1.342.334.448.111.783.334 1.23.556.336.223.672.446 1.007.78.336.334.56.556.784 1.002.223.334.447.668.559 1.113.112.446.224.78.336 1.225.111.445.111.89.111 1.336 0 .668 0 1.225-.111 1.893-.112.556-.224 1.224-.448 1.67-.224.556-.447 1.113-.783 1.558-.336.446-.671.891-1.119 1.336-.447.446-.895.78-1.454 1.002-.56.335-1.119.557-1.678.78-.56.223-1.23.334-2.013.445-.672.111-1.455.111-2.238.111h-1.23c-.448 0-.783-.11-1.23-.11-.336-.112-.784-.112-1.12-.223-.335-.112-.67-.223-.894-.334l-.336-.112.112-.334.671-1.559.112-.222.224.111c.224.111.447.111.783.223.224.111.56.111.895.222.335 0 .559.112.895.112h1.006c.56 0 1.007 0 1.455-.112.447-.11.895-.11 1.23-.222.336-.112.783-.223 1.119-.446.335-.11.671-.334.895-.556.223-.223.559-.446.783-.668a2.44 2.44 0 00.56-.891c.223-.334.335-.668.447-1.002.111-.223.111-.445.223-.668H87.59l.111-.334.336-1.559v-.222h7.607c0-1.336-.448-2.338-1.119-3.006-.336-.335-.895-.669-1.454-.891-.56-.223-1.343-.334-2.126-.334h-1.118c-.336 0-.671.111-1.007.111-.336.111-.671.111-.895.223-.335.111-.56.111-.783.223l-.447.11v-2.226l.223-.111 1.007-.334c.336-.112.783-.112 1.119-.223.447-.111.895-.111 1.23-.111.336.334.783.222 1.23.222zM78.08 30.395c0-.223 0-.334-.112-.446 0-.111-.112-.222-.112-.445-.112-.111-.112-.223-.223-.334l-.336-.334-.448-.223s-.447-.111-.559-.111c-.224 0-.447-.111-.671-.111h-2.46l-.895 4.453h2.126c.447 0 .894 0 1.454-.111.224 0 .447-.112.67-.223.113 0 .56-.223.56-.223a1.54 1.54 0 00.448-.334s.335-.334.335-.445c.112-.111.224-.334.224-.445-.112-.223 0-.446 0-.668zm-9.061 4.12l2.797-14.252v-.223h4.922c.335 0 .67 0 1.006.112.336 0 .672.111.895.223.336.11.56.222.783.334.224.11.448.222.672.334.223.11.447.334.559.445.224.223.336.334.447.556.112.223.224.446.224.668.112.223.112.446.112.78s0 .557-.112.89c-.112.223-.112.557-.335.78-.112.223-.336.445-.448.668a1.344 1.344 0 01-.56.557c-.223.222-.447.334-.67.445l-.672.334c-.112.111-.335.111-.447.223.112 0 .112.111.224.111.223.111.447.223.559.334.224.111.335.223.56.445l.447.446c.112.222.224.334.335.556.112.223.224.446.224.668 0 .223.112.446.112.668 0 .446 0 .78-.112 1.114-.112.334-.224.668-.447 1.002a4.846 4.846 0 01-.672.78c-.223.222-.559.445-.895.667-.335.223-.67.334-1.006.446-.336.11-.783.222-1.119.334-.336.11-.783.11-1.23.222-.448 0-.784.111-1.12.111H69.02v-.779z" fill="#333232"/><path d="M40.383.668c.447.334 1.23.78 2.013 1.336.783.668 1.902 1.447 2.909 2.45l.783.779c.224.334.447.556.783.89.224.334.56.668.783.891.224.445.447.78.783 1.113.224.334.56.78.783 1.114.224.334.448.78.671 1.225.224.445.448.779.672 1.224l.67 1.336c.448.89.784 1.893 1.12 2.895.335 1.002.559 2.115.782 3.117.112 1.114.448 2.227.448 3.34 0 .557.112 1.114.112 1.67 0 .557 0 1.114-.112 1.67 0 .557-.112 1.114-.112 1.67-.112.557-.112 1.114-.224 1.67-.224 1.114-.447 2.339-.895 3.34-.223.557-.335 1.114-.559 1.67l-.671 1.56c-.112.222-.224.556-.336.779l-.447.78c-.336.556-.56 1.001-.895 1.447-1.23 1.892-2.797 3.562-4.587 4.787-1.79 1.336-3.58 2.45-5.481 3.117-.447.223-.895.334-1.454.446-.448.111-.895.334-1.343.445-.895.223-1.79.445-2.684.445-.448 0-.895.112-1.343.112h-1.23c-.783 0-1.566-.112-2.35-.112-1.454-.11-2.684-.445-3.69-.779-1.008-.223-1.79-.557-2.35-.78-.56-.222-.783-.333-.783-.333s.224.111.783.445c.56.223 1.23.668 2.237 1.002 1.007.445 2.238.78 3.692 1.113 1.454.223 3.132.446 5.034.334.895 0 1.901-.222 2.908-.334.448-.11 1.007-.222 1.454-.334a8.273 8.273 0 001.567-.445c2.013-.668 4.139-1.67 6.04-3.006 1.902-1.336 3.692-3.006 5.146-5.121 1.342-2.005 2.573-4.231 3.244-6.68.448-1.114.671-2.45.895-3.563.112-.557.224-1.225.224-1.782.111-.668.223-1.224.111-1.893v-1.78c0-.557-.111-1.226-.111-1.782 0-1.225-.336-2.338-.56-3.452-.111-.556-.335-1.113-.447-1.67-.224-.556-.336-1.113-.56-1.558-.447-1.002-.782-2.116-1.342-3.007l-.671-1.335c-.224-.446-.56-.891-.783-1.337-.224-.445-.56-.779-.783-1.224-.336-.334-.56-.78-.895-1.114-.56-.779-1.119-1.336-1.79-2.004l-.895-.89c-.335-.223-.56-.446-.895-.78-1.118-1.002-2.237-1.67-3.132-2.226-.895-.446-1.678-.668-2.237-.891-.448-.334-.671-.445-.671-.445s.111.11.67.445z" fill="#DD8C50"/><path d="M19.352.89c-.447.112-1.006.223-1.454.335-.447.111-.895.334-1.23.445-.448.111-.783.334-1.23.445-.336.112-.672.334-1.008.446-.67.334-1.23.556-1.678.89-.447.334-.895.557-1.23.78l-1.007.668s.336-.223 1.007-.557c.335-.223.783-.445 1.23-.668.448-.223 1.12-.445 1.79-.78.336-.11.671-.333 1.007-.445.336-.11.783-.222 1.23-.334.448-.111.784-.222 1.231-.334.447-.111.895-.222 1.454-.222 1.902-.446 4.14-.557 6.6-.446 2.461.112 5.034.557 7.607 1.448 2.573.89 5.146 2.338 7.607 4.008 2.349 1.781 4.586 4.008 6.264 6.68.448.557.783 1.336 1.23 2.004.336.668.672 1.336.896 2.115.559 1.448 1.007 3.007 1.118 4.565.448 3.118.224 6.346-.67 9.241-.896 2.895-2.462 5.678-4.475 7.794-2.014 2.226-4.363 4.008-6.824 5.01-2.461 1.113-5.146 1.447-7.495 1.336-2.35-.112-4.587-.668-6.376-1.448-1.79-.779-3.244-1.781-4.251-2.672-.56-.445-1.007-.89-1.343-1.336-.447-.334-.67-.78-.895-1.002-.447-.556-.783-.89-.783-.89l.672 1.002c.223.334.447.668.895 1.113.223.223.335.445.559.668.224.223.447.445.783.668 1.007 1.002 2.46 2.115 4.25 3.006 1.79.89 4.028 1.67 6.6 1.893 2.574.222 5.37-.111 8.055-1.225 2.685-1.113 5.258-2.895 7.495-5.233 2.125-2.338 3.915-5.232 4.922-8.35 1.007-3.229 1.342-6.68.895-10.02a18.744 18.744 0 00-1.342-4.899c-.336-.78-.672-1.559-1.12-2.338-.447-.668-.782-1.336-1.23-2.115-1.79-2.784-4.25-5.122-6.711-7.015-2.573-1.892-5.37-3.228-8.167-4.008C31.322.445 28.637 0 26.064 0c-2.46 0-4.81.334-6.712.89z" fill="#DD8C50"/><path d="M26.96 2.784h-1.008c-1.006.11-1.901.222-2.908.334-3.803.556-7.271 2.004-10.292 3.896-2.796 1.893-5.257 4.12-7.047 6.57-1.79 2.449-3.244 4.898-4.027 7.125-.224.556-.448 1.113-.56 1.67-.111.556-.335 1.113-.447 1.558-.224 1.002-.335 2.005-.447 2.895-.112.89-.112 1.67-.112 2.338v1.67c0-.445 0-1.002.112-1.67.112-.668.223-1.447.335-2.227.224-.89.448-1.78.671-2.783.112-.445.336-1.002.56-1.559.224-.556.335-1.113.671-1.558.224-.557.447-1.114.783-1.67l1.007-1.67c.335-.557.783-1.114 1.118-1.67a8.788 8.788 0 011.343-1.67 29.942 29.942 0 017.16-6.124 28.729 28.729 0 019.843-3.451c.895-.112 1.79-.223 2.685-.223h.895c.671 0 1.23 0 1.79.111h1.118c.448.112.895.223 1.343.223.895.111 1.79.445 2.684.78 3.468 1.335 6.824 3.562 9.173 6.457 2.461 2.895 4.028 6.569 4.587 10.243l.112 1.336c0 .222.112.556.112.668v.668c0 1.002-.112 1.893-.112 2.783-.224 1.782-.895 3.563-1.678 5.122-.783 1.558-1.902 3.006-3.133 4.23a17.243 17.243 0 01-4.027 3.007c-1.454.779-2.908 1.336-4.474 1.67-1.454.334-3.02.445-4.475.334-1.342-.112-2.796-.446-4.027-1.003a10.353 10.353 0 01-3.244-1.892c-1.902-1.448-3.132-3.118-3.915-4.676-.783-1.559-1.119-2.895-1.343-3.786-.112-.89-.223-1.447-.223-1.447s0 .445.111 1.447c.112.891.336 2.338 1.12 3.897.67 1.559 1.9 3.451 3.803 5.01 1.901 1.559 4.474 3.006 7.606 3.34 1.566.223 3.133.112 4.81-.222 1.678-.223 3.245-.891 4.923-1.56 3.132-1.558 6.152-4.23 7.942-7.681a18.217 18.217 0 001.902-5.567c.111-1.002.223-2.115.223-3.006v-.78c0-.334 0-.556-.111-.779l-.112-1.559c-.672-4.008-2.238-7.905-4.922-11.133-2.573-3.229-6.153-5.567-9.956-7.014-1.902-.668-3.916-1.114-5.93-1.225h-1.118c-.335.223-.56.223-.895.223z" fill="#DD8C50"/><path d="M24.722 5.567c-2.35.111-4.699.668-6.824 1.559-4.363 1.67-7.942 4.676-10.403 8.461-2.35 3.563-3.692 7.794-4.14 11.69-.447 3.897 0 7.683 1.007 11.023s2.573 6.123 4.14 8.35c.447.557.894 1.113 1.23 1.559.447.556.895.89 1.23 1.336.783.89 1.678 1.558 2.461 2.226.783.668 1.566 1.114 2.126 1.56.671.444 1.23.778 1.678 1.001.895.446 1.454.78 1.454.78s-.448-.334-1.342-.891c-.895-.557-2.126-1.448-3.692-2.672-.671-.668-1.566-1.336-2.35-2.227-.335-.445-.782-.89-1.23-1.447-.335-.557-.783-1.002-1.118-1.56-1.454-2.226-2.909-5.01-3.692-8.238a25.438 25.438 0 01-.67-10.577 27.677 27.677 0 014.138-11.022c2.237-3.34 5.705-6.124 9.732-7.682 2.014-.78 4.14-1.225 6.265-1.448 2.125-.111 4.362 0 6.488.557 2.125.557 4.139 1.225 6.04 2.45a15.451 15.451 0 014.587 4.341c2.461 3.452 3.58 7.683 3.132 11.69-.224 2.005-.895 3.898-1.678 5.679-.224.445-.447.89-.783 1.336-.336.334-.447.78-.783 1.113a8.58 8.58 0 01-2.014 2.004c-2.908 2.338-6.6 3.23-9.844 2.895-3.244-.334-6.152-1.781-7.942-3.785-1.79-2.004-2.685-4.342-2.797-6.235a10.268 10.268 0 01.448-4.454c.112-.556.335-.89.447-1.113.112-.445.112-.557.112-.557s0 .112-.112.334c-.111.223-.335.557-.447 1.114-.336 1.002-.783 2.56-.671 4.565.112 2.004.895 4.453 2.684 6.68 1.79 2.226 4.81 3.896 8.278 4.342 3.468.445 7.495-.446 10.74-2.895.782-.557 1.566-1.336 2.237-2.115.335-.334.67-.891 1.006-1.225.336-.445.56-.89.783-1.336 1.007-1.893 1.678-4.008 2.014-6.124.56-4.342-.447-9.13-3.244-12.915a17.577 17.577 0 00-5.146-4.787c-1.901-1.225-4.25-2.115-6.488-2.672a20.403 20.403 0 00-5.146-.668c-.67-.111-1.342-.111-1.901 0z" fill="#DD8C50"/><path d="M25.058 8.462c-1.902.111-3.916.445-5.817 1.113-.895.334-1.902.78-2.685 1.336l-.671.334c-.336.223-.448.334-.671.446l-1.231.89c-3.132 2.56-5.817 5.901-7.16 9.798a22.497 22.497 0 00-1.006 12.135c.447 2.004 1.007 3.897 1.902 5.678.447 1.002.894 1.67 1.454 2.561l1.678 2.338c2.46 3.006 5.37 5.233 8.501 6.903 3.133 1.559 6.377 2.56 9.285 2.895 3.02.334 5.817.334 8.278-.223.56-.111 1.23-.222 1.79-.334.56-.111 1.119-.223 1.566-.445a34.885 34.885 0 002.685-1.002c.783-.334 1.454-.78 2.125-1.002.56-.334 1.119-.668 1.454-.89a12.99 12.99 0 001.231-.78s-.447.222-1.23.668c-.448.222-.895.556-1.567.78-.559.222-1.342.556-2.125.89-.783.222-1.79.556-2.685.89-.56.112-1.006.223-1.566.334-.56.112-1.119.223-1.678.223-.56.111-1.23.111-1.79.223h-2.013c-.671 0-1.343-.111-2.014-.111-.671 0-1.454-.112-2.125-.223a25.537 25.537 0 01-8.837-3.117c-2.909-1.67-5.594-3.897-7.943-6.68-.56-.78-1.007-1.448-1.566-2.227-.447-.78-1.007-1.67-1.342-2.45l-.56-1.224c-.223-.446-.335-.891-.447-1.337-.336-.89-.448-1.78-.671-2.672a21.047 21.047 0 011.006-11.133c1.231-3.563 3.692-6.68 6.6-9.018l1.12-.78c.223-.111.447-.334.558-.334l.672-.334c.895-.556 1.678-.89 2.46-1.224 1.679-.668 3.468-1.002 5.258-1.114 1.79-.111 3.58.111 5.146.557 1.678.445 3.244 1.113 4.587 2.004 1.342.89 2.684 1.893 3.691 3.006.56.557 1.007 1.225 1.454 1.781.336.557.783 1.336 1.119 1.893.56 1.225 1.007 2.672 1.119 3.897.223 1.336.223 2.56 0 3.674-.336 2.338-1.12 4.23-2.126 5.678-.895 1.447-1.902 2.338-2.573 3.006-.783.557-1.118.89-1.118.89s.447-.222 1.23-.779c.671-.556 1.79-1.447 2.797-2.894 1.007-1.448 2.013-3.34 2.46-5.79.448-2.45.336-5.344-.894-8.127-.56-1.448-1.454-2.784-2.573-4.008-1.007-1.336-2.35-2.45-3.803-3.34C33 9.909 29.644 8.684 25.953 8.684c-.336-.334-.56-.334-.895-.222z" fill="#DD8C50"/><path d="M58.057 24.605c0 .334 0 .668-.111 1.003-.112.334-.112.668-.224 1.113-.112.78-.224 1.67-.56 2.672-.111.445-.223 1.002-.447 1.447-.224.446-.336 1.002-.56 1.559-.335 1.113-.894 2.115-1.342 3.229-.67 1.002-1.23 2.226-1.901 3.228-.672 1.114-1.566 2.005-2.35 3.006-.894.891-1.79 1.893-2.796 2.673-.895.89-2.014 1.558-3.02 2.226-1.119.557-2.014 1.336-3.133 1.782-.559.222-1.006.445-1.454.668-.56.222-1.007.334-1.454.556-.895.334-1.79.668-2.573.891a14.09 14.09 0 00-1.119.334c-.335.111-.67.111-1.006.223-1.119.222-1.79.334-1.79.334h2.908c.336 0 .783-.112 1.119-.112.783-.11 1.79-.222 2.797-.556.447-.112 1.006-.223 1.566-.446.559-.222 1.006-.445 1.566-.668 1.118-.334 2.237-1.002 3.356-1.558 1.118-.668 2.237-1.336 3.244-2.338 1.118-.78 2.013-1.893 3.02-2.784.895-1.113 1.79-2.115 2.461-3.34.783-1.113 1.343-2.338 1.902-3.451.447-1.225 1.007-2.338 1.23-3.563.112-.557.336-1.113.448-1.67.112-.557.112-1.113.223-1.559.224-1.002.224-2.004.224-2.783v-1.113c0-.335-.112-.669-.112-1.003.112-1.224 0-1.892 0-1.892s-.111.668-.111 1.892z" fill="#DD8C50"/><path d="M163.993 13.25c-.671-.669-1.454-1.003-2.349-1.003-.895 0-1.678.334-2.349 1.002-.671.668-1.007 1.447-1.007 2.338 0 .89.336 1.67 1.007 2.338.671.668 1.454 1.002 2.349 1.002.895 0 1.678-.334 2.349-1.002.671-.668 1.007-1.447 1.007-2.338 0-.89-.336-1.67-1.007-2.338zm-.335 4.341c-.56.557-1.231.89-2.014.89-.783 0-1.454-.333-2.014-.89-.559-.556-.894-1.225-.894-2.115 0-.78.335-1.448.894-2.116.56-.556 1.231-.89 2.014-.89.783 0 1.454.334 2.014.89.559.557.894 1.225.894 2.116 0 .89-.335 1.559-.894 2.115zm-1.343-1.893c.224-.11.448-.222.56-.445.111-.111.223-.334.223-.668 0-.223 0-.334-.112-.445l-.335-.334c-.112-.112-.336-.112-.448-.112h-1.79v3.563h.672v-1.336h.671l1.342 1.336h.895l-1.678-1.559zm0-.668c0 .112-.112.112-.224.223-.111.111-.223.111-.335.111h-.895V14.14h.895c.112 0 .224 0 .224.111.111 0 .111.111.223.223v.222c.224.223.224.223.112.335z" fill="#333030"/></svg>