<svg width="148" height="20" fill="none" xmlns="http://www.w3.org/2000/svg"><path d="M105.695 12.64c0 1.27.253 2.123.761 2.584.507.439 1.476.67 2.883.67h.946l-1.43 3.875h-.623c-2.607 0-4.452-.508-5.536-1.523-1.084-1.015-1.638-2.722-1.638-5.12V7.011c0-2.63.531-4.452 1.569-5.443 1.038-.992 2.929-1.477 5.605-1.477h3.022l-1.453 3.853h-.393c-1.453 0-2.445.23-2.952.715-.508.484-.761 1.407-.761 2.79v5.19zM4.66 12.965H0c0 2.63.461 4.429 1.384 5.351.923.923 2.814 1.384 5.652 1.384h8.65c2.699 0 4.544-.484 5.559-1.476 1.015-.992 1.522-2.791 1.522-5.398V7.29c0-2.814-.53-4.752-1.614-5.767C20.092.507 18.108 0 15.248 0H7.497C4.959 0 3.137.438 2.03 1.315.669 2.375 0 4.198 0 6.782h4.66c0-1.038.276-1.776.853-2.238.577-.461 1.523-.692 2.884-.692h5.974c1.545 0 2.56.23 3.045.67.484.437.715 1.406.715 2.929v.507h-6.736v3.968h6.736v.369c0 1.43-.3 2.399-.877 2.883-.507.439-1.476.646-2.883.646H8.397c-1.43 0-2.4-.184-2.884-.53-.577-.416-.853-1.2-.853-2.33zm19.491 6.805h5.375L37.6 4.152h.553l8.212 15.617h5.329L41.267.277h-6.735l-10.38 19.492zM57.9.277v7.29h2.745l8.512-7.29h6.99l-11.49 9.158 11.925 10.334h-6.85l-8.997-8.328H57.9v8.328h-4.66V.277h4.66zm25.328 13.748v5.744h-4.66V.277h13.264c2.468 0 4.221.53 5.282 1.568 1.038 1.038 1.569 2.792 1.569 5.26s-.53 4.244-1.569 5.305c-1.038 1.061-2.79 1.615-5.213 1.615h-8.673zm0-3.875H91c1.13 0 1.937-.231 2.376-.692.438-.462.669-1.246.669-2.353 0-1.038-.208-1.776-.6-2.192-.439-.507-1.269-.76-2.445-.76h-7.774v5.997zM131.299.277v7.497h12.041V.277H148v19.492h-4.66v-8.12h-12.041v8.143h-4.659V.277h4.659zm-18.661 15.616h2.883c1.5 0 2.468-.207 2.953-.646.461-.438.692-1.314.692-2.63v-5.19c0-1.383-.254-2.306-.784-2.767-.462-.416-1.315-.646-2.538-.692l-2.745 4.844h4.129l-4.59 7.081zM116.167.07h.6c2.514 0 4.313.462 5.328 1.407 1.131 1.038 1.707 2.86 1.707 5.536v6.113c0 2.469-.507 4.199-1.499 5.167-.992.992-2.837 1.477-5.536 1.477h-6.62l3.344-9.066h-4.521L112.892.07h3.275z" fill="#313131"/></svg>