<svg width="140" height="23" fill="none" xmlns="http://www.w3.org/2000/svg"><path fill-rule="evenodd" clip-rule="evenodd" d="M42.562 4.01c-.95-.212-2.084-.292-3.455-.292h-2.162v3.453c.685 0 1.266 0 1.714.026a6.123 6.123 0 011.661.32c.422.159.791.398 1.134.77.317.371.475.823.475 1.327 0 .531-.08.983-.238 1.328a2.17 2.17 0 01-.764.93 3.423 3.423 0 01-1.53.584c-.606.106-1.371.16-2.32.16h-.158v3.479h2.03c1.556 0 2.874-.186 3.93-.558a8.995 8.995 0 002.847-1.647c.633-.53 1.108-1.195 1.45-1.992a6.017 6.017 0 00.502-2.416c0-1.063-.238-1.966-.686-2.736-.448-.744-1.108-1.381-1.978-1.86a8.595 8.595 0 00-2.452-.876zm-7.411 18.937V3.718h-5.538v19.229h5.538zm24.446.026V10.81l-5.802-5.1v17.263h5.802zM71.543 3.745l-3.35 3.851 3.72 3.267.632-.664.132-.133v12.935h6.17V3.639h-7.199l-.105.106z" fill="#000"/><path fill-rule="evenodd" clip-rule="evenodd" d="M67.06 8.924L60.942 3.64h-7.147v.053L67.43 15.617l3.375-3.559-3.744-3.134zm53.162-5.259h-5.564v19.281h5.564V3.665zm1.399.053v4.17h9.836v-4.17h-9.836zm-27.057-.053l8.887 19.334h5.301l-8.571-19.334h-5.617zM84.227 23h6.065l1.635-3.958h7.805l-1.635-3.559h-4.746l2.267-5.312-2.874-6.506-8.517 19.334zM10.338 3.585l8.887 19.335h5.3l-8.57-19.335h-5.617zM0 22.92h6.065L7.7 18.99h7.806l-1.635-3.586H9.124l2.268-5.285-2.874-6.534L0 22.92z" fill="#000"/><path d="M137.838 0c-.58 0-1.108.239-1.503.637-.422.452-.66.957-.66 1.567 0 .585.238 1.09.66 1.488.421.451.949.637 1.503.637.606 0 1.134-.186 1.529-.637.422-.425.633-.93.633-1.488 0-.637-.211-1.142-.633-1.567A2.121 2.121 0 00137.838 0zm-.897 3.293V1.09h.923c.237 0 .396.026.501.053.106.027.185.106.264.213a.754.754 0 01.105.345c0 .16-.052.292-.132.425a.712.712 0 01-.422.212.576.576 0 01.238.186c.053.08.158.186.264.372l.263.425h-.527l-.317-.478c-.105-.16-.184-.292-.237-.319-.053-.053-.079-.08-.132-.08-.053-.026-.132-.026-.237-.026h-.106v.93h-.448v-.054zm.448-1.275h.317c.211 0 .343 0 .395-.026.053-.027.106-.053.132-.106a.371.371 0 00.053-.16.38.38 0 00-.053-.186c-.026-.053-.105-.08-.158-.08h-.686v.558zM136.572.93c.343-.32.791-.532 1.266-.532.474 0 .923.213 1.265.532.343.371.528.77.528 1.3 0 .479-.185.93-.528 1.25a1.77 1.77 0 01-2.531 0 1.573 1.573 0 01-.501-1.249c0-.558.184-.93.501-1.301z" fill="#000"/></svg>