<svg width="46" height="95" fill="none" xmlns="http://www.w3.org/2000/svg"><path fill-rule="evenodd" clip-rule="evenodd" d="M10.54.898l-.284 6.758C8.791 8.791 7.28 9.878 5.813 11.012v7.279c1.513-.473 3.025-.473 4.538-.473.189 5.624.378 11.249.52 16.92.094.757.141 1.466.236 2.175-.52.52-.567.945-1.654 1.607-1.135.614-1.418.567-1.702 2.032.142 1.749.142 1.89 1.37 2.836.852.236 1.23.425 2.08.047.52 13.14.993 26.231 1.513 39.37.236-.047.425-.141.662-.188v-1.182c0-.378 0-.756-.048-1.087l-.992-37.15c.803-.52 1.465-1.04 2.221-1.654.662 2.506.851 4.774.898 7.42-.189.852-.378 1.75-.567 2.6-.378 2.458-.709 4.821-.756 7.279a21.656 21.656 0 00-.095 1.749h.71a71.71 71.71 0 01.661 5.577c-.709 3.403-.284 6.192.142 9.5l.52 4.348c.094.71-1.466 1.513-1.418 2.033 0 .567.945.898 1.418 1.04.567.047.52.188 1.748-.095 1.418-.331 1.418-.567 1.277-1.607-.095-.615-.284-.71-.331-1.56-.047-1.181.094-2.978.142-4.065.189-2.126.661-4.112.945-6.238.047-1.04.142-1.75-.095-2.742.095-.472.237-.898.331-1.37.19-.898.331-1.796.425-2.694.048-.426.048-.804.095-1.23.284 0 .567.048.85.048.048 1.229.143 2.221.426 3.403.142.615.284 1.276.425 1.89-.047.473-.047.946-.094 1.419-.047.52-.095.992-.095 1.512.048.614.19 1.182.284 1.749l.425 2.268c.331 1.655.568 5.814.473 6.617-.094.378-.33.662-.425 1.087a1.784 1.784 0 000 .71c.094.377.52.567 1.087.614 1.134.142.803.142 1.985.094.33 0 .803-.094 1.087-.378.189-.189.473-.662.33-.898-.377-.614-1.039-.945-1.559-1.37 0 0 0-.615.047-.71.095-.425.71-3.78.756-4.348.331-1.181.379-2.41.52-3.592.095-1.701 0-2.741-.472-4.254.094-2.126.142-4.159.378-6.191l1.04 3.923.709 1.418.709 1.323.141-1.276.095-1.418-1.512-8.035c.472.237.898.426 1.37.662 2.08-2.6 3.687-5.152 3.97-8.744a69.85 69.85 0 00-.378-11.343c-.047-.615-.094-1.182-.142-1.796l-2.977.52c-.426-1.324-.898-2.269-2.647-3.214-1.134-.615-2.174-.946-3.497-1.324-.048.615.472-2.788.472-4.253-.283-1.182-.709-2.269-1.276-3.403-1.512-.142-2.978-.237-4.537 0-.426 1.181-.898 2.221-1.276 3.497.141 1.513.472 2.883.661 4.348-.85.331-1.843.473-2.647.899-1.276.567-2.126 1.37-3.213 2.315-.237-5.813-.52-11.58-.757-17.393 2.08.378 4.065.851 6.145 1.418 1.985.662 3.97 1.37 5.908 2.174 3.166.898 5.813 1.465 9.027 1.324 4.16-.615.945-.615 2.316-3.498 1.134-.803 2.458-1.181 3.781-2.268-2.032-.898-3.025-1.277-1.56-3.782.52-.945 1.04-1.89 1.56-2.788-1.087.567-2.174 1.181-3.261 1.749-1.135.52-1.796.803-2.978.85-2.363.19-2.127-.047-1.89 2.647-2.41-.047-4.254-.614-6.57-1.323-2.316-.898-4.68-1.749-6.995-2.647-1.938-.567-3.64-.992-5.672-.992-.142-2.742-.047-5.578-.425-8.272-.047-.52-.095-1.04-.19-1.56zM.567 84.46H43.86c.048 0 .095.047.095.095v.85a.102.102 0 01-.095.095H.567a.102.102 0 01-.095-.094v-.851c0-.048.047-.095.095-.095zM42.82 0c-.803 0-1.512.33-2.079.85-.567.615-.898 1.277-.898 2.175 0 .803.331 1.465.898 2.032.567.615 1.276.851 2.08.851.803 0 1.56-.236 2.127-.85.567-.568.85-1.277.85-2.033 0-.85-.283-1.56-.85-2.174A3.172 3.172 0 0042.82 0zm-1.7 1.276c.472-.425 1.086-.709 1.7-.709.663 0 1.277.284 1.702.71.473.519.71 1.039.71 1.748 0 .662-.237 1.276-.71 1.701a2.399 2.399 0 01-1.701.71c-.662 0-1.276-.237-1.702-.71-.472-.425-.709-1.04-.661-1.701-.095-.71.189-1.276.661-1.749z" fill="#313131"/><path fill-rule="evenodd" clip-rule="evenodd" d="M41.593 4.49V1.7h1.181c.284 0 .52.048.662.095.142.047.236.142.33.283a.763.763 0 01.143.426c0 .189-.048.378-.19.52a.708.708 0 01-.566.236.484.484 0 01.283.236c.095.095.19.237.33.473l.332.52h-.662l-.425-.615c-.142-.236-.237-.33-.284-.425-.047-.047-.094-.095-.189-.095-.047 0-.142-.047-.283-.047h-.095V4.49h-.567zm.567-1.607h.425c.284 0 .426 0 .52-.047.048-.048.142-.048.142-.095.047-.047.047-.142.047-.189a.36.36 0 00-.094-.236.358.358 0 00-.19-.095h-.85v.662zM1.607 94.86L0 87.958h1.418l1.04 4.773 1.276-4.773h1.654l1.229 4.82 1.04-4.82h1.418l-1.655 6.9H5.908l-1.37-5.152-1.371 5.152h-1.56zm8.507 0v-6.901h5.105v1.181h-3.734v1.513h3.45v1.181h-3.45v1.89h3.876v1.182h-5.247v-.047zm11.25-2.553l1.37.425c-.19.757-.567 1.324-1.04 1.702-.473.378-1.087.567-1.843.567-.898 0-1.654-.33-2.269-.945-.614-.615-.898-1.465-.898-2.552 0-1.135.284-2.033.898-2.695.615-.614 1.37-.945 2.363-.945.851 0 1.513.236 2.08.756.33.284.567.71.709 1.276l-1.37.331c-.095-.378-.237-.661-.52-.85-.284-.19-.568-.331-.946-.331-.52 0-.945.189-1.229.567-.33.378-.472.945-.472 1.796 0 .85.141 1.512.472 1.843.331.378.71.567 1.23.567.377 0 .708-.094.944-.378.19-.236.378-.614.52-1.134zm2.599-.85c0-.71.094-1.277.33-1.797.142-.33.379-.661.662-.945a2.77 2.77 0 01.898-.615c.426-.189.946-.283 1.513-.283 1.04 0 1.843.33 2.457.945.615.615.898 1.513.898 2.647s-.283 1.985-.898 2.647c-.614.614-1.418.945-2.457.945-1.04 0-1.844-.33-2.458-.945-.662-.662-.945-1.513-.945-2.6zm1.418-.048c0 .803.189 1.37.567 1.796.378.425.803.614 1.37.614.568 0 .993-.189 1.371-.614s.52-.993.52-1.796-.189-1.37-.52-1.796c-.33-.378-.803-.567-1.37-.567-.568 0-1.04.189-1.418.614-.331.331-.52.946-.52 1.749zm6.711 3.45v-6.9h1.37L36.3 92.59v-4.632h1.276v6.9h-1.418l-2.789-4.537v4.537h-1.276zm8.886 0v-5.766h-2.033v-1.182h5.483v1.182h-2.032v5.766h-1.418z" fill="#313131"/></svg>