<svg width="86" height="92" fill="none" xmlns="http://www.w3.org/2000/svg"><path d="M71.038 78.314c-18.662 10.775-37.935 10.775-56.653 0C5.055 72.927.39 67.428.39 61.984v4.333c0 5.499 4.665 10.942 13.996 16.33 18.662 10.775 37.935 10.775 56.653 0 9.331-5.388 13.997-10.887 13.997-16.33v-4.332c.055 5.443-4.666 10.942-13.997 16.33z" fill="#F6F6F6"/><path d="M42.767 91.2c-9.553 0-19.162-2.722-28.548-8.165C4.777 77.592 0 71.927 0 66.261V61.93c0-.278.222-.5.5-.5s.5.222.5.5c0 5.277 4.61 10.664 13.774 15.94 18.44 10.665 37.713 10.665 56.153 0 9.109-5.276 13.774-10.608 13.774-15.94 0-.278.223-.5.5-.5.278 0 .5.222.5.5v4.332c0 5.666-4.776 11.331-14.274 16.774-9.498 5.443-19.107 8.165-28.66 8.165zM.89 66.317c.055 5.276 4.665 10.609 13.774 15.885 18.44 10.664 37.713 10.664 56.153 0 9.109-5.276 13.719-10.609 13.774-15.885-1.833 4.166-6.276 8.331-13.274 12.386-18.718 10.83-38.38 10.83-57.097 0C7.165 74.648 2.722 70.538.889 66.317z" fill="#0000BD"/><path d="M71.038 45.6c-18.662-10.776-37.935-10.776-56.653 0C5.11 50.986.445 56.486.445 61.983c0 5.499 4.665 10.942 13.996 16.33 18.662 10.775 37.935 10.775 56.653 0 9.33-5.388 13.996-10.886 13.996-16.33 0-5.498-4.72-10.997-14.052-16.385z" fill="#F6F6F6"/><path d="M42.767 86.867c-9.553 0-19.162-2.721-28.548-8.164C4.777 73.26 0 67.594 0 61.929c0-5.665 4.777-11.33 14.219-16.774 18.717-10.83 38.38-10.83 57.097 0C80.758 50.6 85.59 56.264 85.59 61.93c0 5.665-4.776 11.33-14.274 16.774-9.387 5.443-18.995 8.164-28.549 8.164zm0-48.877c-9.386 0-18.828 2.722-28.048 7.998C5.554 51.322.889 56.654.889 61.986c0 5.276 4.61 10.664 13.774 15.94 18.44 10.664 37.713 10.664 56.153 0 9.109-5.276 13.774-10.608 13.774-15.94 0-5.277-4.61-10.664-13.774-15.941-9.22-5.332-18.662-8.054-28.049-8.054z" fill="#0000BD"/><path d="M39.768 61.818l-5.554 3.166 3.777-9.775 5.554-3.166-3.777 9.775z" fill="#F6F6F6"/><path d="M34.214 65.484c-.111 0-.222-.056-.333-.111-.167-.111-.222-.333-.111-.556l3.777-9.775a.434.434 0 01.222-.222l5.554-3.221c.166-.112.389-.056.555.055.167.111.222.333.111.555l-3.776 9.776a.434.434 0 01-.223.222l-5.554 3.221c-.055.056-.11.056-.222.056zm4.166-9.942l-3.222 8.387 4.221-2.444 3.222-8.331-4.221 2.388z" fill="#0000BD"/><path d="M45.267 63.096L42.49 68.15l-.722 1.222 5.554-3.222.722-1.221 2.777-5.055-5.554 3.222z" fill="#F6F6F6"/><path d="M41.768 69.816c-.111 0-.222-.055-.333-.11a.427.427 0 01-.056-.556l3.5-6.276.166-.167 5.554-3.221c.167-.112.445-.056.556.055a.427.427 0 01.055.556l-3.499 6.276-.167.166-5.554 3.222c-.055.055-.11.055-.222.055zm3.888-6.387l-2.61 4.61 3.943-2.277 2.61-4.61-3.943 2.277z" fill="#0000BD"/><path d="M58.153 67.872l-5.554 3.166-8.443-31.714 5.554-3.222 8.443 31.77z" fill="#F6F6F6"/><path d="M52.598 71.537c-.055 0-.11 0-.166-.055a.569.569 0 01-.278-.333l-8.498-31.715a.528.528 0 01.222-.555l5.554-3.222c.111-.055.278-.11.445 0a.569.569 0 01.277.334l8.443 31.714a.528.528 0 01-.222.555l-5.554 3.222c-.056.055-.167.055-.223.055zm-7.887-31.992l8.22 30.77 4.666-2.721-8.22-30.715-4.666 2.666z" fill="#0000BD"/><path d="M44.156 39.324L31.88 32.27l-8.442 21.939 1.444.11 5.832.39 2.832 8.275.667 2 3.776-9.775 3.777 14.163.722-1.222 2.777-5.055 5.888 6.388 1.444 1.555-8.442-31.714z" fill="#F6F6F6"/><path d="M52.599 71.538c-.112 0-.278-.055-.334-.166l-6.887-7.498-3.166 5.665c-.11.166-.278.278-.5.222-.166 0-.333-.167-.389-.333l-3.388-12.72-3.221 8.388c-.056.166-.353.333-.576.333-.222 0-.388-.111-.444-.334l-3.257-9.997-6.998-.444c-.167 0-.278-.112-.389-.223-.055-.11-.11-.277-.055-.444l8.442-21.939a.67.67 0 01.278-.278.342.342 0 01.389.056l12.274 7.11c.111.055.167.166.222.277l8.443 31.714a.528.528 0 01-.222.556c-.056.055-.167.055-.222.055zm-7.332-8.942c.111 0 .278.056.333.167l5.999 6.554-7.887-29.66-11.608-6.72-7.998 20.828 6.665.444c.166 0 .388.167.444.333l3.11 9.054 3.277-8.554c.056-.166.278-.333.5-.333.222 0 .389.167.444.333L41.99 68.04l2.944-5.22a.468.468 0 01.389-.223h-.056z" fill="#0000BD"/><path d="M44.49 3.333C38.712 0 33.546-.333 29.77 1.833l-8.83 5.11c3.776-2.166 8.942-1.833 14.662 1.444 11.498 6.61 20.773 22.717 20.773 35.936 0 6.61-2.333 11.275-6.054 13.441l8.831-5.11c3.777-2.166 6.054-6.832 6.054-13.441 0-13.219-9.275-29.27-20.717-35.88z" fill="#F6F6F6"/><path d="M50.321 58.208c-.166 0-.333-.111-.444-.222a.53.53 0 01.166-.667c3.777-2.166 5.832-6.776 5.832-12.997 0-13.052-9.22-28.992-20.495-35.49C30.048 5.72 24.938 5.22 21.217 7.386a.53.53 0 01-.666-.167.53.53 0 01.166-.666l8.831-5.11C31.215.5 33.103 0 35.214 0c2.999 0 6.165 1 9.497 2.888 11.553 6.665 20.995 22.995 20.995 36.325 0 6.553-2.221 11.497-6.332 13.83l-8.83 5.11c-.056.055-.167.055-.223.055zM26.383 5.11c2.999 0 6.165 1 9.497 2.888 11.553 6.665 20.995 22.994 20.995 36.325 0 4.443-1.055 8.164-2.944 10.775l5-2.889c3.776-2.166 5.831-6.776 5.831-12.996 0-13.053-9.22-28.993-20.495-35.492C38.935.611 33.825.111 30.104 2.277l-4.999 2.888c.389-.055.833-.055 1.278-.055z" fill="#DF0112"/><path d="M56.375 44.323c0 6.61-2.333 11.275-6.054 13.441-3.777 2.166-8.943 1.833-14.664-1.444-11.441-6.61-20.772-22.717-20.772-35.936 0-6.61 2.333-11.275 6.054-13.44 3.721-2.167 8.998-1.834 14.718 1.443 11.442 6.61 20.718 22.717 20.718 35.936z" fill="#F6F6F6"/><path d="M44.933 59.596c-3 0-6.165-1-9.498-2.888C23.827 50.043 14.44 33.714 14.44 20.384c0-6.554 2.222-11.498 6.332-13.83 1.667-.945 3.555-1.444 5.666-1.444 2.999 0 6.165 1 9.497 2.888C47.488 14.663 56.93 30.992 56.93 44.322c0 6.554-2.222 11.497-6.332 13.83-1.722 1-3.61 1.444-5.665 1.444zM26.382 6.054c-1.889 0-3.666.444-5.166 1.333-3.776 2.166-5.831 6.776-5.831 12.997 0 13.052 9.22 28.992 20.495 35.49 5.332 3.111 10.441 3.611 14.163 1.445 3.777-2.166 5.832-6.776 5.832-12.997 0-13.052-9.22-28.993-20.495-35.491-3.166-1.833-6.165-2.777-8.998-2.777z" fill="#DF0112"/><path d="M53.32 42.545c0 11.275-7.886 15.83-17.662 10.22-9.775-5.665-17.662-19.328-17.662-30.604 0-11.275 7.887-15.829 17.662-10.22 9.776 5.666 17.663 19.33 17.663 30.604z" fill="#F6F6F6"/><path d="M43.545 55.653c-2.555 0-5.276-.834-8.109-2.5-9.886-5.665-17.94-19.606-17.94-30.992 0-7.943 4-13.108 10.275-13.108 2.555 0 5.277.833 8.11 2.5 9.886 5.665 17.94 19.606 17.94 30.992 0 7.942-4.055 13.108-10.276 13.108zM27.771 9.997c-5.72 0-9.275 4.666-9.275 12.164 0 11.108 7.831 24.66 17.44 30.16 2.722 1.554 5.276 2.332 7.665 2.332 5.72 0 9.275-4.666 9.275-12.108 0-11.109-7.831-24.66-17.44-30.215-2.721-1.5-5.276-2.333-7.665-2.333z" fill="#DF0112"/><path d="M23.772 32.437l-1-.556V17.996l1 .555v13.886zm10.553-3.777c-.111-2.167-1.222-3.833-2.888-4.833-1.61-.944-2.61-.555-2.61 1.111 0 1.833 1.166 2.833 2.832 4.221 2.277 2 4 3.555 4 6.332 0 3-2 2.944-3.889 1.833-2.61-1.5-4.165-4.166-4.165-7.165v-.111l.944.555c0 2.555 1.277 4.555 3.277 5.666 1.777 1.055 2.888.61 2.888-1.167 0-1.888-1.111-2.944-3.5-5.11-1.61-1.388-3.276-2.832-3.276-5.498 0-2.333 1.388-3 3.61-1.722 2.166 1.277 3.666 3.555 3.777 6.443l-1-.556zm14.163 11.163c0 4.332-2 6.054-4.943 4.388-2.944-1.666-4.888-5.72-4.888-10.109 0-4.332 2-6.11 4.888-4.443 2.944 1.722 4.943 5.832 4.943 10.164zm-8.776-5.165c0 3.721 1.556 7.054 3.888 8.387 2.333 1.333 3.888-.167 3.888-3.833 0-3.666-1.555-6.998-3.888-8.387-2.332-1.333-3.888.223-3.888 3.833z" fill="#DF0112"/></svg>