<svg width="129" height="86" fill="none" xmlns="http://www.w3.org/2000/svg"><path d="M22.797 21.738l.238-1.772-1.663.945-1.425-.945H16.98l.237-1.772-3.324 1.772-1.425-.827-.238 1.772-4.512-.827-1.068-2.6 4.75-.944 1.662-.945 1.662-.827-.238 1.772h2.969l1.662-.945 1.188 2.599 1.662-.827 1.662-.945h6.056l-.475 3.544-2.019 2.599 22.56 2.481 3.325-1.772-1.306-.827 1.663-.827 2.73 1.654 4.988-2.6 1.425.828 1.662-.827 3.325-1.772 4.155 2.599-1.9 2.599 9.737-3.544-2.73-1.654 1.899-2.718 5.58 3.545 4.988-2.718 8.905 1.773-.237 1.654-4.75.945.831 4.37 4.75-.944-3.681 3.544-8.074 2.717-.832 5.199 4.75-.946-2.019 2.718 2.494 3.426 8.43-4.371 5.462 3.426-3.324 1.772-4.394-.827-8.074 2.6 5.225 5.316 2.85 1.654 4.63-.827 1.187 2.599-4.75.827-6.174.118-1.068 6.97-7.837.945-8.668-3.544-.475 3.544-4.512-.827-1.9 2.6 8.906 1.654-.356 1.772H70.53l-7.243-2.481-4.156-2.6h-6.174l-4.75.828-4.987 2.717-6.412 1.772-2.493-3.544 6.412-1.772 6.412-1.773-7.244-2.599-8.074 2.718-5.818-1.773-4.156-2.599-4.512-.827-3.325 1.773-.237 1.772-4.512-.827-1.9 2.599-4.512-.827 2.019-2.718 3.324-1.772 1.663-.827h3.087l1.9-2.599-4.156-2.599 3.324-1.772-10.805.827-1.068-2.6-1.188-2.598 4.512.827 5.581-6.144.238-1.654 7.243 2.6 3.087-.119-1.663-8.624-2.256-5.317 5.106-2.599z" stroke="#0000BD" stroke-miterlimit="10"/><path d="M54.38 43.241a2.487 2.487 0 002.494-2.48 2.487 2.487 0 00-2.494-2.482 2.487 2.487 0 00-2.493 2.481 2.487 2.487 0 002.493 2.481z" fill="#DF0112"/><path d="M55.215 39.933s46.07-42.886 71.48-1.181" stroke="#DF0112" stroke-miterlimit="10" stroke-dasharray="2 2"/><path d="M124.734 38.654l1.618.35.488.105.106-.487.343-1.57.178.265-.442 2.026-2.148-.445-.143-.244z" fill="#FF3B3B" stroke="#DF0112"/><path d="M53.551 41.586S27.002 23.5 15.674 79.392" stroke="#DF0112" stroke-miterlimit="10" stroke-dasharray="2 2"/><path d="M14.097 77.568l1.286 1.57.235.288.296-.144 1.516-.732-.05.303-1.691.836-1.603-1.958.011-.163z" fill="#FF3B3B" stroke="#DF0112"/><path d="M55.214 41.587S58.42-6.025 37.64 2.717" stroke="#DF0112" stroke-miterlimit="10" stroke-dasharray="2 2"/><path d="M38.139.939l-.605 1.47-.19.464.464.19 1.543.627-.298.137-1.965-.8.71-1.943.34-.145z" fill="#FF3B3B" stroke="#DF0112"/><path d="M56.043 41.586S80 23 94.633 82.7" stroke="#DF0112" stroke-miterlimit="10" stroke-dasharray="2 2"/><path d="M92.855 82.11l1.62.694.313.134.23-.314 1.203-1.65.035.244-1.492 1.942-1.876-.803-.033-.247z" fill="#FF3B3B" stroke="#DF0112"/></svg>