<svg width="87" height="75" fill="none" xmlns="http://www.w3.org/2000/svg"><path d="M29.546 21.537l-.145-.25H19.28L31.329.5h24.198l11.57 20.13-5.015 8.755h-9.449l-8.82-15.176-.434-.745-.431.746-8.822 15.254-4.58-7.927zm2.219 43.958l-.143.25.143.249 4.873 8.506h-24.01L.578 53.6l11.664-20.132h10.122l4.727 8.272-8.725 15.079-.434.75h18.413l-4.58 7.926z" stroke="#DF0112"/><path d="M68.4 56.82l-8.726-15.157h9.448l.145-.248 4.965-8.511 11.957 20.695L74.138 74.5H50.806l-5.108-8.756 4.724-8.175h18.41l-.431-.75z" stroke="#00F"/></svg>