<svg width="17" height="16" fill="none" xmlns="http://www.w3.org/2000/svg"><g clip-path="url(#clip0)"><path d="M.125 16l1.109-4.092A7.802 7.802 0 01.148 7.97C.126 3.625 3.683.068 8.077.044a7.965 7.965 0 015.652 2.282 7.796 7.796 0 012.363 5.565c.022 4.347-3.535 7.904-7.929 7.928a8.046 8.046 0 01-3.818-.939L.125 16zm4.408-2.549c1.127.654 2.202 1.043 3.62 1.036 3.652-.02 6.61-2.976 6.593-6.59-.018-3.621-2.995-6.54-6.66-6.522-3.654.02-6.61 2.976-6.592 6.59.008 1.475.45 2.577 1.191 3.728l-.656 2.423 2.504-.665zm7.613-3.664c-.05-.082-.183-.13-.383-.228s-1.182-.569-1.365-.633c-.183-.065-.316-.098-.448.1a11.6 11.6 0 01-.626.777c-.116.131-.232.149-.432.051-.2-.098-.843-.302-1.607-.97a5.94 5.94 0 01-1.116-1.358c-.117-.196-.013-.304.085-.402.09-.09.198-.232.297-.347.1-.115.133-.197.2-.33.065-.131.032-.247-.019-.345-.05-.098-.454-1.066-.622-1.46-.164-.382-.328-.33-.45-.335l-.382-.005a.733.733 0 00-.53.25c-.181.199-.693.677-.688 1.647.005.97.724 1.903.824 2.034.1.13 1.416 2.114 3.419 2.956.476.2.848.32 1.138.409.478.147.912.124 1.255.071.382-.058 1.176-.483 1.34-.944.163-.461.16-.856.11-.938z" fill="#fff"/></g><defs><clipPath id="clip0"><path fill="#fff" transform="rotate(-.314 16.049 .044)" d="M0 0h16.087v15.912H0z"/></clipPath></defs></svg>