<svg width="17" height="11" fill="none" xmlns="http://www.w3.org/2000/svg"><path d="M15.601 1.047C14.246.05 11.233 0 8.5 0 5.767 0 2.754.049 1.399 1.047.043 2.047 0 4.21 0 5.5c0 1.29.043 3.454 1.399 4.452C2.754 10.952 5.767 11 8.5 11c2.733 0 5.746-.049 7.101-1.048C16.957 8.954 17 6.79 17 5.5s-.043-3.454-1.399-4.453zm-4.408 4.744h.001l-4.618 2.38a.352.352 0 01-.081.042l-.006.003v-.001a.35.35 0 01-.474-.322V3.097c0-.19.159-.343.355-.343.055 0 .107.013.154.035l4.67 2.42c.1.06.168.168.168.291a.34.34 0 01-.168.29z" fill="#fff"/></svg>