<svg width="14" height="14" fill="none" xmlns="http://www.w3.org/2000/svg"><g clip-path="url(#clip0)" fill="#fff"><path d="M7 4.62a2.345 2.345 0 100 4.69 2.345 2.345 0 000-4.69z"/><path d="M9.45 0h-4.9C2.065 0 0 2.065 0 4.55v4.865c0 2.52 2.065 4.55 4.55 4.55h4.865c2.52 0 4.55-2.065 4.55-4.55V4.55C14 2.065 11.935 0 9.45 0zM7 10.64A3.637 3.637 0 013.36 7c0-2.03 1.645-3.64 3.64-3.64S10.64 4.97 10.64 7c0 1.995-1.61 3.64-3.64 3.64zm3.57-6.405a.889.889 0 01-.875-.875c0-.455.42-.91.875-.91.49 0 .875.42.875.875 0 .525-.385.91-.875.91z"/></g><defs><clipPath id="clip0"><path fill="#fff" d="M0 0h14v14H0z"/></clipPath></defs></svg>