<svg width="96" height="67" fill="none" xmlns="http://www.w3.org/2000/svg"><path fill-rule="evenodd" clip-rule="evenodd" d="M8.36 2.125h50.821c17.833 0 32.618 13.318 34.842 30.435H75.161c-1.895-6.332-7.866-10.99-14.868-10.99H4.201L0 2.126h8.36zM91.305 0c-1.236 0-2.39.49-3.295 1.348-.906.94-1.442 2.043-1.442 3.391 0 1.226.495 2.329 1.442 3.227.906.94 2.059 1.349 3.294 1.349 1.318 0 2.43-.409 3.336-1.349.906-.898 1.36-1.96 1.36-3.227 0-1.348-.454-2.41-1.36-3.39C93.734.49 92.581 0 91.305 0zm-2.76 1.961c.742-.695 1.689-1.144 2.718-1.144 1.03 0 1.977.45 2.718 1.144.742.776 1.154 1.634 1.154 2.778a3.6 3.6 0 01-1.154 2.656c-.74.735-1.688 1.143-2.718 1.143s-1.977-.408-2.718-1.143c-.741-.695-1.153-1.635-1.07-2.656-.042-1.144.37-1.961 1.07-2.778z" fill="#0000BD"/><path fill-rule="evenodd" clip-rule="evenodd" d="M89.492 6.823V2.45h1.895c.453 0 .823.041 1.03.123a.96.96 0 01.493.408c.124.205.206.45.206.695 0 .327-.082.613-.288.817a1.434 1.434 0 01-.865.408c.206.123.37.246.494.368.124.123.289.368.495.695l.535.858h-1.07l-.66-.94c-.247-.327-.37-.572-.453-.654-.082-.081-.165-.163-.288-.163-.082-.041-.247-.041-.453-.041h-.165v1.838h-.906v-.04zm.906-2.493h.66c.411 0 .7 0 .782-.04.123-.041.206-.082.247-.205a.765.765 0 00.082-.327c0-.163-.041-.285-.123-.367-.083-.082-.206-.164-.33-.164h-1.359V4.33h.041z" fill="#0000BD"/><path fill-rule="evenodd" clip-rule="evenodd" d="M5.437 40.404V28.843h11.902v2.165H8.237v2.533h8.813v2.002H8.237v2.655h9.102v2.165H5.437v.041zm17.832-9.274v3.555h5.807c.577 0 .989-.123 1.236-.409s.37-.735.37-1.389-.123-1.062-.33-1.348c-.246-.286-.658-.45-1.276-.45H23.27v.041zm10.42 9.274h-2.8v-1.797c0-.572-.165-.98-.536-1.226-.33-.245-.906-.409-1.689-.409H23.27v3.432h-2.8V28.843h8.854c1.318 0 2.307.286 2.965.817.783.653 1.154 1.715 1.154 3.268 0 .817-.165 1.47-.536 2.002-.247.367-.659.735-1.194 1.021.618.204 1.112.45 1.359.736.33.326.535.776.535 1.348v2.37h.083zm9.513-6.782h7.372v3.065c0 1.348-.33 2.328-.947 2.86-.659.53-1.73.816-3.254.816h-5.642c-1.441 0-2.512-.327-3.253-.94-.7-.612-1.071-1.633-1.071-3.023v-3.554c0-1.511.33-2.614.988-3.227.66-.613 1.771-.94 3.295-.94h5.601c1.483 0 2.553.245 3.171.695.742.53 1.071 1.47 1.071 2.86h-2.8c0-.45-.165-.777-.495-.94-.33-.204-.906-.286-1.73-.286H41.39c-.865 0-1.441.163-1.77.49-.33.327-.495.899-.495 1.757v2.941c0 .776.124 1.308.412 1.553.288.245.865.367 1.812.367h4.571c.66 0 1.154-.081 1.4-.286.248-.204.371-.49.371-.94v-1.225H43.08v-2.042h.123zm12.726 6.782h-3.253l6.177-11.561h4.119l6.136 11.561h-3.254l-1.482-2.9h-6.878l-1.565 2.9zm2.636-5.107h4.654l-2.224-4.29h-.124l-2.306 4.29z" fill="#2B2A29"/><path fill-rule="evenodd" clip-rule="evenodd" d="M8.36 67h50.821C77.014 67 91.8 53.682 94.023 36.564H75.161c-1.895 6.332-7.866 10.99-14.868 10.99H4.201L0 67h8.36z" fill="#E31E24"/></svg>