<svg width="49" height="96" fill="none" xmlns="http://www.w3.org/2000/svg"><path fill-rule="evenodd" clip-rule="evenodd" d="M0 95.512v-7.13h5.24v1.18H1.465v1.559h3.54v1.18h-3.54v1.936H5.43v1.18H0v.095zm6.61 0v-7.13h3.02c.756 0 1.322.048 1.653.19.33.141.614.377.85.66.188.33.33.709.33 1.133 0 .52-.142.992-.472 1.322-.33.33-.803.567-1.416.661.33.19.566.378.755.614.189.236.472.614.803 1.18l.85 1.37h-1.7l-1.039-1.558c-.378-.567-.614-.897-.755-1.04a1.116 1.116 0 00-.425-.282 2.3 2.3 0 00-.708-.095h-.284v2.975H6.61zm1.463-4.108h1.039c.708 0 1.133-.047 1.275-.094.189-.047.283-.142.425-.284a.952.952 0 00.141-.519c0-.236-.047-.425-.188-.567a1.127 1.127 0 00-.52-.283c-.094 0-.472-.047-1.039-.047H8.073v1.794zm9.018 1.51v-1.18h3.069v2.833c-.284.284-.756.567-1.322.756a4.423 4.423 0 01-1.747.33c-.755 0-1.37-.141-1.936-.472a3.015 3.015 0 01-1.227-1.322 4.26 4.26 0 01-.425-1.888c0-.756.141-1.417.472-1.983.33-.567.755-1.039 1.37-1.322a3.762 3.762 0 011.699-.378c.897 0 1.558.189 2.077.567.472.377.803.897.944 1.558l-1.416.283a1.698 1.698 0 00-.567-.85c-.283-.189-.613-.283-1.038-.283-.614 0-1.133.189-1.511.614-.378.377-.567.991-.567 1.794 0 .85.19 1.463.567 1.888.378.425.85.614 1.464.614.283 0 .613-.047.897-.189.283-.094.566-.283.755-.425v-.897h-1.558v-.047zm4.438-4.484h1.416v3.87c0 .614 0 .992.047 1.18.048.284.19.52.425.709.236.189.52.283.945.283.425 0 .708-.094.897-.236.189-.189.33-.378.378-.614.047-.236.047-.66.047-1.227v-3.92h1.463v3.73c0 .85-.047 1.464-.094 1.795-.095.33-.236.66-.425.897-.189.236-.472.425-.85.566-.33.142-.802.237-1.37.237-.66 0-1.18-.095-1.557-.237-.33-.141-.614-.377-.85-.613a1.795 1.795 0 01-.378-.803c-.094-.425-.141-.991-.141-1.794V88.43h.047zm13.55 7.082h-1.558l-.614-1.606h-2.833l-.566 1.606h-1.51l2.737-7.13h1.511l2.833 7.13zm-2.644-2.786l-.991-2.644-.945 2.644h1.936zm3.4 2.786v-7.13h3.021c.755 0 1.322.048 1.652.19.33.141.614.377.85.66.19.33.33.709.33 1.133 0 .52-.14.992-.471 1.322-.33.33-.803.567-1.417.661.33.19.567.378.756.614.189.236.472.614.802 1.18l.85 1.37h-1.7l-1.038-1.558c-.378-.567-.614-.897-.756-1.04a1.117 1.117 0 00-.425-.282 2.3 2.3 0 00-.708-.095h-.283v2.975h-1.464zm1.463-4.108h1.039c.708 0 1.133-.047 1.274-.094.19-.047.284-.142.425-.284a.952.952 0 00.142-.519c0-.236-.047-.425-.189-.567a1.127 1.127 0 00-.52-.283c-.094 0-.471-.047-1.038-.047h-1.133v1.794zm5.713-2.974h2.596c.567 0 1.04.047 1.37.141a2.6 2.6 0 011.086.661c.283.33.519.709.66 1.133.142.473.236.992.236 1.7a4.83 4.83 0 01-.236 1.51c-.188.52-.425.945-.755 1.276-.236.236-.567.425-.991.566-.33.095-.756.142-1.275.142H43.01v-7.13zm1.463 1.18v4.721h1.086c.378 0 .708 0 .85-.047.236-.047.425-.142.567-.283.141-.142.283-.378.377-.708.095-.33.142-.756.142-1.322 0-.567-.047-.992-.142-1.275a1.78 1.78 0 00-.425-.708c-.189-.142-.377-.284-.66-.33-.19-.048-.614-.048-1.18-.048h-.615zM12.841 1.087c-.094 2.266-.188 4.532-.283 6.751-1.463 1.133-2.974 2.22-4.438 3.352v7.271c1.51-.472 3.022-.472 4.533-.472.236 5.618.377 11.284.566 16.902.095.708.142 1.464.236 2.172-.52.52-.566.944-1.605 1.605-1.133.614-1.416.567-1.7 2.03.142 1.747.142 1.889 1.37 2.833.85.236 1.227.425 2.077.047.52 13.125.991 26.203 1.51 39.328.237-.047.426-.141.662-.189v-1.18c0-.378 0-.708-.048-1.086l-.991-37.109c.803-.52 1.463-1.038 2.219-1.652.66 2.502.85 4.768.897 7.412-.189.85-.378 1.747-.567 2.597-.377 2.455-.66 4.816-.755 7.27a21.75 21.75 0 00-.095 1.748h.709a73.35 73.35 0 01.66 5.523c-.707 3.4-.283 6.185.142 9.49l.52 4.344c.094.708-1.464 1.51-1.417 2.03 0 .566.945.897 1.417 1.038.566.048.519.19 1.746-.094 1.417-.33 1.417-.567 1.275-1.605-.094-.614-.283-.708-.33-1.558-.047-1.18.094-3.022.141-4.06.19-2.125.661-4.108.945-6.233.047-1.038.141-1.746-.095-2.738.095-.472.236-.897.33-1.37.19-.896.331-1.793.426-2.69.047-.425.047-.803.094-1.228.283 0 .567.047.85.047.047 1.228.142 2.22.425 3.4.142.614.283 1.274.425 1.888-.047.472-.047.945-.095 1.417-.047.519-.094.991-.094 1.51.047.614.189 1.18.283 1.747l.425 2.267c.33 1.652.567 5.807.472 6.61-.094.377-.33.66-.425 1.085a1.784 1.784 0 000 .708c.095.378.52.567 1.086.614 1.133.142.803.142 1.983.095.33 0 .803-.095 1.086-.378.189-.189.472-.661.33-.897-.377-.614-1.038-.944-1.557-1.37 0 0 0-.613.047-.707.094-.425.708-3.778.755-4.344.33-1.18.378-2.408.52-3.588.094-1.7 0-2.739-.473-4.25.095-2.124.142-4.154.378-6.184l1.039 3.918.708 1.417.708 1.322.142-1.275.094-1.416-1.51-8.026c.471.236.896.424 1.368.66 2.078-2.596 3.683-5.146 3.966-8.734a69.79 69.79 0 00-.377-11.33c-.048-.615-.095-1.181-.142-1.795l-3.022.52c-.425-1.323-.897-2.267-2.643-3.211-1.134-.614-2.172-.944-3.494-1.322-.047.614.472-2.786.472-4.25-.283-1.18-.708-2.265-1.275-3.398-1.51-.142-2.974-.236-4.532 0-.425 1.18-.897 2.219-1.275 3.493.142 1.511.472 2.88.661 4.344-.85.33-1.841.472-2.644.897-1.275.566-2.124 1.369-3.21 2.313a2137.88 2137.88 0 01-.756-17.374c2.078.378 4.06.85 6.138 1.416 1.983.661 3.966 1.37 5.901 2.172 3.164.897 5.808 1.464 9.018 1.322 4.155-.614.944-.614 2.314-3.494 1.133-.802 2.455-1.18 3.777-2.266-2.03-.897-3.022-1.274-1.558-3.777.519-.944 1.038-1.888 1.558-2.785-1.086.566-2.172 1.18-3.258 1.746-1.133.52-1.794.803-2.975.85-2.36.19-2.124-.047-1.888 2.644-2.408-.047-4.25-.614-6.563-1.322-2.313-.897-4.674-1.747-6.987-2.644-1.936-.519-3.635-.991-5.666-.991-.141-2.738-.047-5.571-.425-8.262a14.46 14.46 0 01-.236-1.511zM2.88 84.605h43.246c.048 0 .095.047.095.094v.85a.102.102 0 01-.095.095H2.88a.102.102 0 01-.095-.095v-.85c0-.094.047-.094.095-.094zM44.568 0c-.802 0-1.51.33-2.077.85-.567.614-.897 1.275-.897 2.172 0 .802.33 1.463.897 2.03.566.614 1.275.85 2.077.85.803 0 1.558-.236 2.125-.85.566-.567.85-1.275.85-2.03a3.07 3.07 0 00-.85-2.172C46.126.33 45.418 0 44.568 0zm-1.7 1.275c.473-.425 1.086-.708 1.7-.708a2.43 2.43 0 011.7.708c.472.52.708 1.038.708 1.747 0 .66-.236 1.274-.708 1.7a2.396 2.396 0 01-1.7.707c-.66 0-1.275-.236-1.7-.708-.472-.425-.708-1.038-.66-1.7-.048-.708.188-1.274.66-1.746z" fill="#313131"/><path fill-rule="evenodd" clip-rule="evenodd" d="M43.389 4.485V1.7h1.18c.283 0 .52.047.661.094.142.047.236.142.33.283a.762.762 0 01.142.425c0 .19-.047.378-.189.52a.707.707 0 01-.566.236.484.484 0 01.283.236c.094.094.189.236.33.472l.33.52h-.66l-.425-.615c-.142-.236-.236-.33-.283-.424-.047-.048-.095-.095-.19-.095-.046 0-.14-.047-.282-.047h-.095v1.18h-.566zm.566-1.605h.425c.283 0 .425 0 .52-.047.047-.047.141-.047.141-.095.047-.047.047-.141.047-.188a.36.36 0 00-.094-.237.358.358 0 00-.189-.094h-.85v.661z" fill="#313131"/></svg>