<svg width="112" height="64" fill="none" xmlns="http://www.w3.org/2000/svg"><path fill-rule="evenodd" clip-rule="evenodd" d="M76.83 12.99h1.75c.911 0 1.698.313 2.36.95.65.612.987 1.348.987 2.148.063 6.882-.012 13.776-.012 20.659v1.81c.375 3.223 1.786 6.071 4.247 8.544 1.887 1.886 4.048 3.185 6.497 3.922 1.611.575 4.634.85 6.42.85h12.169V39.556H98.655c-.837-.038-1.561-.35-2.186-.937-.65-.612-.887-1.324-.9-2.123V24.494l-.087-10.505c-.375-3.222-1.787-6.07-4.248-8.543A16.172 16.172 0 0088.4 3.173L76.83 12.99zM0 55.757h1.924c.512 0 .95.025 1.312.075.362.05.687.15.999.325.412.237.712.55.937.936.212.387.325.825.325 1.312 0 .437-.1.837-.325 1.199-.212.374-.5.662-.874.887a2.355 2.355 0 01-1.2.35l2.274 3.022h-1l-2.748-3.672h.237c.4 0 .725-.013 1-.038s.525-.087.762-.175a1.752 1.752 0 001.05-1.636c0-.287-.063-.55-.2-.812a1.837 1.837 0 00-1.324-.962 8.077 8.077 0 00-1.063-.062H.812v7.37H0v-8.12zm15.753 0h4.423v.737h-3.623v2.91h3.498v.737h-3.498v2.985h3.623v.737h-4.423v-8.106zm48.147 0h.812v7.37h3.36v.736H63.9v-8.106zm14.167 0h.812v8.093h-.812v-8.093zm11.568 0h1.1l4.535 6.72v-6.72h.812v8.093h-.812l-4.823-7.119v7.12h-.812v-8.094zm17.215 0h4.435v.737h-3.623v2.91h3.498v.737h-3.498v2.985h3.623v.737h-4.435v-8.106zM22.524 32.325c.125 0 .238 0 .35-.012l.075.062h.437c.862.013 1.637.337 2.287.987.674.662.999 1.449.999 2.36l.162 2.836c.375 3.222 1.787 6.07 4.248 8.543a15.4 15.4 0 001.761 1.524l10.694-9.08c-.824-.038-1.549-.35-2.174-.937-.65-.612-.886-1.324-.899-2.124v-.487c0-1.786-.3-3.497-.912-5.108a14.485 14.485 0 00-2.411-4.572c2.249-2.897 3.323-6.082 3.323-9.692 0-1.786-.3-3.497-.912-5.109-.774-2.448-2.174-4.609-4.16-6.495-2.624-2.46-5.66-3.884-9.082-4.246-.563-.063-1.125-.1-1.687-.1H13.63C6.62.687 0 5.945 0 13.003v38.894h13.63V13.003h9.756c.862.012 1.637.337 2.287.986.674.662.999 1.45.999 2.361 0 2.31-1.162 3.547-4.16 3.697a6.136 6.136 0 00-6.134 6.133c.012 3.397 2.76 6.145 6.146 6.145z" fill="#093A54"/><path fill-rule="evenodd" clip-rule="evenodd" d="M30.996 61.59c.012.3.087.562.225.812.137.25.337.45.574.6.25.15.512.224.812.224.313 0 .587-.062.837-.2.25-.137.462-.324.612-.574.15-.25.225-.525.225-.824a1.488 1.488 0 00-.562-1.149 2.144 2.144 0 00-.537-.313 6.123 6.123 0 00-.712-.224 6.185 6.185 0 01-.837-.263 2.152 2.152 0 01-.587-.35c-.45-.387-.675-.886-.675-1.51 0-.425.1-.8.312-1.138.213-.324.488-.587.837-.774.35-.187.737-.275 1.162-.275.4 0 .775.1 1.112.288.337.2.612.462.812.786.2.338.3.7.3 1.112h-.85a1.5 1.5 0 00-.225-.737 1.344 1.344 0 00-.524-.5 1.566 1.566 0 00-.737-.174c-.25 0-.487.062-.7.187-.212.125-.387.3-.512.512-.125.212-.188.45-.188.7 0 .3.075.55.225.724.15.187.325.325.55.412.225.088.5.188.837.275.425.113.737.212.937.3.2.075.412.212.612.4.237.212.425.462.562.761.138.3.2.612.2.937 0 .437-.112.837-.337 1.2a2.48 2.48 0 01-.9.861 2.447 2.447 0 01-1.224.312c-.45 0-.874-.1-1.262-.312a2.33 2.33 0 01-.912-.862 2.357 2.357 0 01-.337-1.236h.875v.012zm3.872-11.666c.862.45 1.774.825 2.724 1.112 1.611.575 4.635.85 6.421.85H62.54c.574 0 1.137-.038 1.686-.1 3.423-.375 6.459-1.787 9.082-4.247 2-1.886 3.386-4.047 4.16-6.495.6-1.611.912-3.323.912-5.109 0-4.159-1.486-7.856-4.472-11.054-2.986-3.222-6.746-4.82-11.293-4.82-3.423 0-5.135-1.237-5.135-3.698 0-.912.338-1.699 1-2.36.65-.65 1.424-.987 2.286-.987 3.673-.038 8.282-.025 12.53-.013l12.88-10.929c-.475-.2-.962-.375-1.462-.524C83.103.975 80.08.7 78.294.7h-18.74c-.575 0-1.137.038-1.687.1-3.423.375-6.458 1.786-9.082 4.247-1.999 1.886-3.385 4.047-4.16 6.495a14.568 14.568 0 00-.912 5.108c0 4.16 1.487 7.857 4.473 11.067 2.985 3.222 6.746 4.82 11.293 4.82 3.423 0 5.135 1.237 5.135 3.698 0 .912-.338 1.699-1 2.36-.65.65-1.424.987-2.286.987H47.086L34.868 49.924zm18.627 9.868c0 .761-.2 1.473-.575 2.11a4.223 4.223 0 01-1.574 1.537A4.267 4.267 0 0149.21 64a4.21 4.21 0 01-2.111-.562 4.254 4.254 0 01-1.574-1.512 3.958 3.958 0 01-.587-2.085c0-.762.187-1.474.574-2.124.387-.65.9-1.149 1.562-1.524a4.267 4.267 0 012.136-.562c.75 0 1.462.188 2.111.55a4.252 4.252 0 011.574 1.511c.4.65.6 1.337.6 2.099zm-4.273-3.385c-.624 0-1.199.162-1.736.462a3.43 3.43 0 00-1.274 1.261 3.29 3.29 0 00-.463 1.712c0 .612.163 1.174.475 1.686.325.512.75.924 1.287 1.224.537.3 1.112.45 1.711.45.463 0 .913-.088 1.337-.263a3.39 3.39 0 001.112-.737c.325-.312.562-.687.75-1.099a3.43 3.43 0 00.262-1.324c0-.612-.162-1.174-.475-1.686a3.458 3.458 0 00-1.274-1.237 3.759 3.759 0 00-1.712-.45z" fill="#F5770A"/><path fill-rule="evenodd" clip-rule="evenodd" d="M107.101 0c-.75 0-1.437.312-1.974.812-.55.574-.85 1.224-.85 2.048 0 .75.313 1.4.85 1.936.55.575 1.224.812 1.974.812.787 0 1.461-.237 2.011-.812.55-.55.825-1.186.825-1.936 0-.812-.275-1.461-.825-2.048-.537-.5-1.224-.812-2.011-.812zm-1.637 1.2c.45-.413 1.025-.688 1.637-.688.612 0 1.187.275 1.636.687.437.475.675.987.675 1.674a2.18 2.18 0 01-.675 1.599 2.339 2.339 0 01-1.636.686 2.29 2.29 0 01-1.637-.686 2.066 2.066 0 01-.649-1.6c-.025-.686.212-1.198.649-1.673z" fill="#093A54"/><path fill-rule="evenodd" clip-rule="evenodd" d="M105.952 4.271V1.623h1.124c.288 0 .488.025.613.075a.68.68 0 01.312.25.785.785 0 01.112.412c0 .2-.062.362-.174.487-.113.125-.288.212-.525.25.112.062.212.137.287.225.075.075.175.225.3.424l.325.512h-.637l-.388-.574a3.716 3.716 0 00-.287-.387.479.479 0 00-.162-.113c-.063-.025-.15-.025-.275-.025h-.113v1.112h-.512zm.537-1.536h.4c.262 0 .412-.013.475-.038a.347.347 0 00.15-.112.344.344 0 00.05-.2.294.294 0 00-.075-.212.341.341 0 00-.2-.1c-.038-.013-.175-.013-.387-.013h-.413v.675z" fill="#093A54"/></svg>