<svg width="2058" height="60" fill="none" xmlns="http://www.w3.org/2000/svg"><path d="M1 12s236.256 26.51 386.318 23.524c132.306-2.632 201.615-19.999 333.937-21.806 144.014-1.966 211.299 32.847 354.825 21.806 96.12-7.394 129.91-22.008 226.37-21.806 95.6.201 167.56 21.82 263.16 21.806 95.54-.014 139.55-22.024 235.09-21.806 94.63.217 256.3 44.673 256.3 44.673" stroke="#00F" stroke-width="1.5" stroke-dasharray="4 4"/><path d="M7.86 58.322S237.255-.79 387.317 2.195c132.306 2.632 200.991 54.32 333.313 56.127C864.645 60.29 940.817-8.845 1084.34 2.195c96.12 7.394 142.86 56.33 239.31 56.128 95.6-.201 141.45-56.142 237.04-56.128 95.54.014 141.35 56.346 236.89 56.128 94.63-.217 234.48-56.128 234.48-56.128" stroke="#DF0112" stroke-width="1.5"/></svg>