<svg><defs><font id="HalvarBreit-Bd" horiz-adv-x="554"><font-face font-family="Halvar Breit Rg" font-weight="700" font-stretch="expanded" panose-1="0 0 8 5 0 0 0 0 0 0" ascent="800" descent="-200" x-height="501" cap-height="656" bbox="-246 -238 1395 968" underline-thickness="50" underline-position="-50" unicode-range="U+0020-U+FB02"/><glyph glyph-name=".notdef" horiz-adv-x="436" d="M38 656h140L0 478v140zm219 0h140L0 259v139zm179-38V478L0 39v140zm0-359L179 0H40l396 398V259zm0-220L398 0H259l177 179V39z"/><glyph glyph-name="space" horiz-adv-x="400"/><glyph glyph-name="A" unicode="A" horiz-adv-x="770" d="M759 23V0H609l-60 136H221L161 0H11v23l291 633h166zM492 266L385 510 278 266h214z"/><glyph glyph-name="B" unicode="B" horiz-adv-x="785" d="M709 279q24-36 24-84v-11q0-85-66-134.5T488 0H78v656h391q116 0 179.5-45.5T712 483v-11q0-88-73-136 46-21 70-57zM228 525V393h240q93 0 93 61v10q0 30-23.5 45.5T469 525H228zm352-319q0 62-94 62H228V131h258q45 0 69.5 17t24.5 48v10z"/><glyph glyph-name="C" unicode="C" horiz-adv-x="874" d="M235 29Q145 70 96.5 145.5T48 322v11q0 101 48.5 176.5t138.5 117T444 668q110 0 197.5-36t137-100T828 388v-8H675v8q0 41-29.5 73t-82 50T443 529q-119 0-180.5-50T201 335v-15q0-95 61-144t182-49q105 0 168 38.5T675 267v7h153v-7q0-80-49.5-143.5T641.5 24 444-12q-119 0-209 41z"/><glyph glyph-name="D" unicode="D" horiz-adv-x="826" d="M405 656q184 0 278.5-81.5T778 333v-11q0-160-94-241T405 0H78v656h327zm166.5-476Q625 225 625 320v14q0 94-55 140.5T404 521H228V135h177q113 0 166.5 45z"/><glyph glyph-name="E" unicode="E" horiz-adv-x="723" d="M661 656V524H228V394h413V263H228V132h433V0H78v656h583z"/><glyph glyph-name="F" unicode="F" horiz-adv-x="704" d="M664 656V521H228V382h416V247H228V0H78v656h586z"/><glyph glyph-name="G" unicode="G" horiz-adv-x="879" d="M830 360V0H695l-5 58q-92-70-240-70-122 0-213 40.5t-140 116T48 322v11q0 101 49.5 176.5t140 117T448 668q115 0 201-29.5T782 555t47-126v-4H676v4q0 27-30.5 50.5t-82 37.5T452 531q-121 0-186-50.5T201 335v-15q0-97 63.5-146T452 125q75 0 133.5 18.5T683 195v41H356v124h474z"/><glyph glyph-name="H" unicode="H" horiz-adv-x="819" d="M228 656V395h363v261h150V0H591v261H228V0H78v656h150z"/><glyph glyph-name="I" unicode="I" horiz-adv-x="299" d="M225 656V0H74v656h151z"/><glyph glyph-name="J" unicode="J" horiz-adv-x="749" d="M192 24Q120 60 81 127.5T42 287v36h150v-36q0-76 44.5-118T362 127q169 0 169 159v235H230v135h451V288q0-92-38.5-160t-110-104T362-12q-98 0-170 36z"/><glyph glyph-name="K" unicode="K" horiz-adv-x="813" d="M767 633L464 366 753 23V0H577L347 274 228 170V0H78v656h150V350l349 306h190v-23z"/><glyph glyph-name="L" unicode="L" horiz-adv-x="687" d="M228 656V135h445V0H78v656h150z"/><glyph glyph-name="M" unicode="M" horiz-adv-x="1029" d="M951 0H802v452L590 0H439L227 454V0H78v656h207l230-487 229 487h207V0z"/><glyph glyph-name="N" unicode="N" horiz-adv-x="819" d="M741 656V0H597L222 445V0H78v656h144l375-444v444h144z"/><glyph glyph-name="O" unicode="O" horiz-adv-x="877" d="M233 29Q145 70 96.5 146T48 323v9q0 101 48.5 177t137 117.5T439 668q118 0 206-41.5T781 509t48-177v-9q0-101-48-177T645 29 439-12 233 29zm382.5 148Q676 227 676 321v12q0 94-61.5 145T439 529q-115 0-176.5-51T201 333v-12q0-94 61.5-144T439 127q116 0 176.5 50z"/><glyph glyph-name="P" unicode="P" horiz-adv-x="787" d="M494 656q116 0 183-56t67-153v-11q0-98-67-154t-183-56H228V0H78v656h416zm71-277.5q26 19.5 26 57.5v11q0 37-26 56.5T490 523H228V359h262q49 0 75 19.5z"/><glyph glyph-name="Q" unicode="Q" horiz-adv-x="877" d="M645 626.5Q733 585 781 509t48-177v-9q0-124-71-208.5T562 1l54-121v-23H464L406-11Q298-6 217 37T92 153.5 48 323v9q0 101 48.5 177t137 117.5T439 668q118 0 206-41.5zM676 333q0 94-61.5 145T439 529q-115 0-176.5-51T201 333v-12q0-94 61.5-144T439 127q116 0 176.5 50T676 321v12z"/><glyph glyph-name="R" unicode="R" horiz-adv-x="806" d="M693.5 302Q643 251 550 238L741 23V0H569L365 235H228V0H78v656h416q117 0 183.5-56.5T744 444v-11q0-80-50.5-131zM591 447q0 37-25.5 56.5T490 523H228V359h262q49 0 75 19.5t26 57.5v11z"/><glyph glyph-name="S" unicode="S" horiz-adv-x="771" d="M142 46q-84 58-84 170v10h148v-10q0-48 48-73t140-25q82 0 124.5 17.5T561 187v7q0 27-24 41.5T452 259l-167 24Q69 315 69 461v10q0 93 81.5 145T379 668q156 0 238-56t82-162v-9H551v9q0 88-172 88-77 0-117.5-16T221 475v-8q0-23 22.5-36t77.5-21l168-24q115-17 169.5-61.5T713 201v-10q0-96-85-149.5T388-12q-162 0-246 58z"/><glyph glyph-name="T" unicode="T" horiz-adv-x="691" d="M14 521v135h663V521H421V0H270v521H14z"/><glyph glyph-name="U" unicode="U" horiz-adv-x="793" d="M223.5 26.5Q149 65 108.5 135T68 298v358h150V296q0-81 46.5-125T396 127q86 0 132.5 44T575 296v360h150V298q0-93-40.5-163t-115-108.5T396-12q-98 0-172.5 38.5z"/><glyph glyph-name="V" unicode="V" horiz-adv-x="770" d="M759 656v-23L472 0H298L11 633v23h154l220-509 220 509h154z"/><glyph glyph-name="W" unicode="W" horiz-adv-x="1175" d="M1164 656v-23L937 0H754L588 466 423 0H240L11 633v23h153l168-489 174 489h164l174-488 167 488h153z"/><glyph glyph-name="X" unicode="X" horiz-adv-x="819" d="M773 633L515 328 773 23V0H597L410 226 222 0H46v23l258 305L46 633v23h176l188-226 188 226h175v-23z"/><glyph glyph-name="Y" unicode="Y" horiz-adv-x="726" d="M727 656v-23L439 255V0H288v255L-1 633v23h163l201-265 201 265h163z"/><glyph glyph-name="Z" unicode="Z" horiz-adv-x="696" d="M654 522L242 134h412V0H42v134l412 388H42v134h612V522z"/><glyph glyph-name="Aacute" unicode="Á" horiz-adv-x="770" d="M759 23V0H609l-60 136H221L161 0H11v23l291 633h166zM492 266L385 510 278 266h214zm114 628V775l-441-67v119z"/><glyph glyph-name="Abreve" unicode="Ă" horiz-adv-x="770" d="M759 23V0H609l-60 136H221L161 0H11v23l291 633h166zM492 266L385 510 278 266h214zM165 764v119q121-50 223-50t218 50V764q-115-50-218-50-105 0-223 50z"/><glyph glyph-name="uni01CD" unicode="Ǎ" horiz-adv-x="770" d="M759 23V0H609l-60 136H221L161 0H11v23l291 633h166zM492 266L385 510 278 266h214zM165 894l220-64 221 64V771l-221-63-220 63v123z"/><glyph glyph-name="Acircumflex" unicode="Â" horiz-adv-x="770" d="M759 23V0H609l-60 136H221L161 0H11v23l291 633h166zM492 266L385 510 278 266h214zM385 894l221-64V708l-221 63-220-63v122z"/><glyph glyph-name="Adieresis" unicode="Ä" horiz-adv-x="770" d="M759 23V0H609l-60 136H221L161 0H11v23l291 633h166zM492 266L385 510 278 266h214zM194 740.5Q170 763 170 798q0 36 24 58t62 22q36 0 59.5-22t23.5-58q0-35-23.5-57.5T256 718q-38 0-62 22.5zm260 0Q430 763 430 798q0 36 23.5 58t61.5 22 61-22 23-58q0-35-23.5-57.5T515 718t-61 22.5z"/><glyph glyph-name="Agrave" unicode="À" horiz-adv-x="770" d="M759 23V0H609l-60 136H221L161 0H11v23l291 633h166zM492 266L385 510 278 266h214zM165 895l441-67V708l-441 68v119z"/><glyph glyph-name="Amacron" unicode="Ā" horiz-adv-x="770" d="M759 23V0H609l-60 136H221L161 0H11v23l291 633h166zM492 266L385 510 278 266h214zm114 593V739H165v120h441z"/><glyph glyph-name="Aogonek" unicode="Ą" horiz-adv-x="770" d="M759 23V0H609l-60 136H221L161 0H11v23l291 633h166zM492 266L385 510 278 266h214zm53-414.5Q514-127 514-90q0 30 18 52t64 52l118 75 45-89-77-42q-12-8-12-15 0-10 17-10h72v-103H629q-53 0-84 21.5z"/><glyph glyph-name="Aring" unicode="Å" horiz-adv-x="770" d="M759 23V0H609l-60 136H221L161 0H11v23l291 633h166zM492 266L385 510 278 266h214zM258 653q-45 35-45 100 0 64 46.5 100T385 889t125.5-36T557 753q0-65-45-100t-127-35-127 35zm171 64.5q15 12.5 15 35.5 0 24-15.5 36.5T385 802t-43.5-13-15.5-36 15.5-35.5T385 705q29 0 44 12.5z"/><glyph glyph-name="Atilde" unicode="Ã" horiz-adv-x="770" d="M759 23V0H609l-60 136H221L161 0H11v23l291 633h166zM492 266L385 510 278 266h214zm-71 466q-35 7-41 8-64 15-103 15-57 0-112-27v118q58 28 114 28 24 0 46-4t57-12q6-1 29-6.5t43.5-8T493 841q58 0 113 25V748q-53-23-115-23-35 0-70 7z"/><glyph glyph-name="AE" unicode="Æ" horiz-adv-x="1072" d="M573 524l29-130h388V263H631l29-131h350V0H535l-30 136H222L161 0H11v23l291 633h708V524H573zm-152 0h-26L280 266h197z"/><glyph glyph-name="AEacute" unicode="Ǽ" horiz-adv-x="1072" d="M573 524l29-130h388V263H631l29-131h350V0H535l-30 136H222L161 0H11v23l291 633h708V524H573zm-152 0h-26L280 266h197zm336 370V775l-441-67v119z"/><glyph glyph-name="Cacute" unicode="Ć" horiz-adv-x="874" d="M235 29Q145 70 96.5 145.5T48 322v11q0 101 48.5 176.5t138.5 117T444 668q110 0 197.5-36t137-100T828 388v-8H675v8q0 41-29.5 73t-82 50T443 529q-119 0-180.5-50T201 335v-15q0-95 61-144t182-49q105 0 168 38.5T675 267v7h153v-7q0-80-49.5-143.5T641.5 24 444-12q-119 0-209 41zm434 865V775l-441-67v119z"/><glyph glyph-name="Ccaron" unicode="Č" horiz-adv-x="874" d="M235 29Q145 70 96.5 145.5T48 322v11q0 101 48.5 176.5t138.5 117T444 668q110 0 197.5-36t137-100T828 388v-8H675v8q0 41-29.5 73t-82 50T443 529q-119 0-180.5-50T201 335v-15q0-95 61-144t182-49q105 0 168 38.5T675 267v7h153v-7q0-80-49.5-143.5T641.5 24 444-12q-119 0-209 41zm-7 865l220-64 221 64V771l-221-63-220 63v123z"/><glyph glyph-name="Ccedilla" unicode="Ç" horiz-adv-x="874" d="M235 29Q145 70 96.5 145.5T48 322v11q0 101 48.5 176.5t138.5 117T444 668q110 0 197.5-36t137-100T828 388v-8H675v8q0 41-29.5 73t-82 50T443 529q-119 0-180.5-50T201 335v-15q0-95 61-144t182-49q105 0 168 38.5T675 267v7h153v-7q0-80-49.5-143.5T641.5 24 444-12q-119 0-209 41zM523 0l-48-170H318l63 220z"/><glyph glyph-name="Ccircumflex" unicode="Ĉ" horiz-adv-x="874" d="M235 29Q145 70 96.5 145.5T48 322v11q0 101 48.5 176.5t138.5 117T444 668q110 0 197.5-36t137-100T828 388v-8H675v8q0 41-29.5 73t-82 50T443 529q-119 0-180.5-50T201 335v-15q0-95 61-144t182-49q105 0 168 38.5T675 267v7h153v-7q0-80-49.5-143.5T641.5 24 444-12q-119 0-209 41zm213 865l221-64V708l-221 63-220-63v122z"/><glyph glyph-name="Cdotaccent" unicode="Ċ" horiz-adv-x="874" d="M235 29Q145 70 96.5 145.5T48 322v11q0 101 48.5 176.5t138.5 117T444 668q110 0 197.5-36t137-100T828 388v-8H675v8q0 41-29.5 73t-82 50T443 529q-119 0-180.5-50T201 335v-15q0-95 61-144t182-49q105 0 168 38.5T675 267v7h153v-7q0-80-49.5-143.5T641.5 24 444-12q-119 0-209 41zm148 708.5Q358 761 358 799t25 61.5 65 23.5q41 0 65.5-23.5T538 799t-25-61.5-65-23.5-65 23.5z"/><glyph glyph-name="Eth" unicode="Ð" horiz-adv-x="859" d="M716.5 574.5Q811 493 811 333v-11q0-160-94-241T438 0H111v263H-3v130h114v263h327q184 0 278.5-81.5zM658 334q0 94-55 140.5T437 521H261V393h171V263H261V135h177q113 0 166.5 45T658 320v14z"/><glyph glyph-name="Dcaron" unicode="Ď" horiz-adv-x="826" d="M405 656q184 0 278.5-81.5T778 333v-11q0-160-94-241T405 0H78v656h327zm166.5-476Q625 225 625 320v14q0 94-55 140.5T404 521H228V135h177q113 0 166.5 45zM183 894l220-64 221 64V771l-221-63-220 63v123z"/><glyph glyph-name="Dcroat" unicode="Đ" horiz-adv-x="859" d="M716.5 574.5Q811 493 811 333v-11q0-160-94-241T438 0H111v263H-3v130h114v263h327q184 0 278.5-81.5zM658 334q0 94-55 140.5T437 521H261V393h171V263H261V135h177q113 0 166.5 45T658 320v14z"/><glyph glyph-name="Eacute" unicode="É" horiz-adv-x="723" d="M661 656V524H228V394h413V263H228V132h433V0H78v656h583zm-71 238V775l-441-67v119z"/><glyph glyph-name="Ebreve" unicode="Ĕ" horiz-adv-x="723" d="M661 656V524H228V394h413V263H228V132h433V0H78v656h583zM149 764v119q121-50 223-50t218 50V764q-115-50-218-50-105 0-223 50z"/><glyph glyph-name="Ecaron" unicode="Ě" horiz-adv-x="723" d="M661 656V524H228V394h413V263H228V132h433V0H78v656h583zM149 894l220-64 221 64V771l-221-63-220 63v123z"/><glyph glyph-name="Ecircumflex" unicode="Ê" horiz-adv-x="723" d="M661 656V524H228V394h413V263H228V132h433V0H78v656h583zM369 894l221-64V708l-221 63-220-63v122z"/><glyph glyph-name="Edieresis" unicode="Ë" horiz-adv-x="723" d="M661 656V524H228V394h413V263H228V132h433V0H78v656h583zm-483 84.5Q154 763 154 798q0 36 24 58t62 22q36 0 59.5-22t23.5-58q0-35-23.5-57.5T240 718q-38 0-62 22.5zm260 0Q414 763 414 798q0 36 23.5 58t61.5 22 61-22 23-58q0-35-23.5-57.5T499 718t-61 22.5z"/><glyph glyph-name="Edotaccent" unicode="Ė" horiz-adv-x="723" d="M661 656V524H228V394h413V263H228V132h433V0H78v656h583zm-357 81.5Q279 761 279 799t25 61.5 65 23.5q41 0 65.5-23.5T459 799t-25-61.5-65-23.5-65 23.5z"/><glyph glyph-name="uni1EB8" unicode="Ẹ" horiz-adv-x="723" d="M661 656V524H228V394h413V263H228V132h433V0H78v656h583zM304-204.5Q279-181 279-144q0 38 25 62t65 24 65-24 25-62-25-61-65-23-65 23.5z"/><glyph glyph-name="Egrave" unicode="È" horiz-adv-x="723" d="M661 656V524H228V394h413V263H228V132h433V0H78v656h583zM149 895l441-67V708l-441 68v119z"/><glyph glyph-name="Emacron" unicode="Ē" horiz-adv-x="723" d="M661 656V524H228V394h413V263H228V132h433V0H78v656h583zm-71 203V739H149v120h441z"/><glyph glyph-name="Eogonek" unicode="Ę" horiz-adv-x="723" d="M661 656V524H228V394h413V263H228V132h433V0H78v656h583zM447-148.5Q416-127 416-90q0 30 18 52t64 52l118 75 45-89-77-42q-12-8-12-15 0-10 17-10h72v-103H531q-53 0-84 21.5z"/><glyph glyph-name="uni1EBC" unicode="Ẽ" horiz-adv-x="723" d="M661 656V524H228V394h413V263H228V132h433V0H78v656h583zm-256 76q-35 7-41 8-64 15-103 15-57 0-112-27v118q58 28 114 28 24 0 46-4t57-12q6-1 29-6.5t43.5-8T477 841q58 0 113 25V748q-53-23-115-23-35 0-70 7z"/><glyph glyph-name="uni01F4" unicode="Ǵ" horiz-adv-x="879" d="M830 360V0H695l-5 58q-92-70-240-70-122 0-213 40.5t-140 116T48 322v11q0 101 49.5 176.5t140 117T448 668q115 0 201-29.5T782 555t47-126v-4H676v4q0 27-30.5 50.5t-82 37.5T452 531q-121 0-186-50.5T201 335v-15q0-97 63.5-146T452 125q75 0 133.5 18.5T683 195v41H356v124h474zM668 894V775l-441-67v119z"/><glyph glyph-name="Gbreve" unicode="Ğ" horiz-adv-x="879" d="M830 360V0H695l-5 58q-92-70-240-70-122 0-213 40.5t-140 116T48 322v11q0 101 49.5 176.5t140 117T448 668q115 0 201-29.5T782 555t47-126v-4H676v4q0 27-30.5 50.5t-82 37.5T452 531q-121 0-186-50.5T201 335v-15q0-97 63.5-146T452 125q75 0 133.5 18.5T683 195v41H356v124h474zM227 764v119q121-50 223-50t218 50V764q-115-50-218-50-105 0-223 50z"/><glyph glyph-name="Gcaron" unicode="Ǧ" horiz-adv-x="879" d="M830 360V0H695l-5 58q-92-70-240-70-122 0-213 40.5t-140 116T48 322v11q0 101 49.5 176.5t140 117T448 668q115 0 201-29.5T782 555t47-126v-4H676v4q0 27-30.5 50.5t-82 37.5T452 531q-121 0-186-50.5T201 335v-15q0-97 63.5-146T452 125q75 0 133.5 18.5T683 195v41H356v124h474zM227 894l220-64 221 64V771l-221-63-220 63v123z"/><glyph glyph-name="Gcircumflex" unicode="Ĝ" horiz-adv-x="879" d="M830 360V0H695l-5 58q-92-70-240-70-122 0-213 40.5t-140 116T48 322v11q0 101 49.5 176.5t140 117T448 668q115 0 201-29.5T782 555t47-126v-4H676v4q0 27-30.5 50.5t-82 37.5T452 531q-121 0-186-50.5T201 335v-15q0-97 63.5-146T452 125q75 0 133.5 18.5T683 195v41H356v124h474zM447 894l221-64V708l-221 63-220-63v122z"/><glyph glyph-name="uni0122" unicode="Ģ" horiz-adv-x="879" d="M830 360V0H695l-5 58q-92-70-240-70-122 0-213 40.5t-140 116T48 322v11q0 101 49.5 176.5t140 117T448 668q115 0 201-29.5T782 555t47-126v-4H676v4q0 27-30.5 50.5t-82 37.5T452 531q-121 0-186-50.5T201 335v-15q0-97 63.5-146T452 125q75 0 133.5 18.5T683 195v41H356v124h474zM521-58l-64-180H308l56 180h157z"/><glyph glyph-name="Gdotaccent" unicode="Ġ" horiz-adv-x="879" d="M830 360V0H695l-5 58q-92-70-240-70-122 0-213 40.5t-140 116T48 322v11q0 101 49.5 176.5t140 117T448 668q115 0 201-29.5T782 555t47-126v-4H676v4q0 27-30.5 50.5t-82 37.5T452 531q-121 0-186-50.5T201 335v-15q0-97 63.5-146T452 125q75 0 133.5 18.5T683 195v41H356v124h474zM382 737.5Q357 761 357 799t25 61.5 65 23.5q41 0 65.5-23.5T537 799t-25-61.5-65-23.5-65 23.5z"/><glyph glyph-name="Hbar" unicode="Ħ" horiz-adv-x="819" d="M820 436h-79V0H591v219H228V0H78v436H-1v130h79v90h150v-90h363v90h150v-90h79V436zm-229 0H228v-87h363v87z"/><glyph glyph-name="Hcircumflex" unicode="Ĥ" horiz-adv-x="819" d="M228 656V395h363v261h150V0H591v261H228V0H78v656h150zm182 238l221-64V708l-221 63-220-63v122z"/><glyph glyph-name="IJ" unicode="Ĳ" horiz-adv-x="841" d="M228 656V0H78v656h150zm226-519q169 0 169 160v224H339v135h434V300q0-93-38-160.5t-110-103T454 1L339 0v137h115z"/><glyph glyph-name="Iacute" unicode="Í" horiz-adv-x="299" d="M225 656V0H74v656h151zm72 228V765L3 719v118z"/><glyph glyph-name="Ibreve" unicode="Ĭ" horiz-adv-x="299" d="M225 656V0H74v656h151zM3 764v119q67-48 148-48 84 0 147 48V764q-62-49-147-49-83 0-148 49z"/><glyph glyph-name="Icircumflex" unicode="Î" horiz-adv-x="299" d="M225 656V0H74v656h151zm-75 229l147-35V726l-147 36L3 726v124z"/><glyph glyph-name="Idieresis" unicode="Ï" horiz-adv-x="299" d="M225 656V0H74v656h151zm-266 84.5Q-65 763-65 798q0 36 24 58t62 22q36 0 59.5-22t23.5-58q0-35-23.5-57.5T21 718q-38 0-62 22.5zm260 0Q195 763 195 798q0 36 23.5 58t61.5 22 61-22 23-58q0-35-23.5-57.5T280 718t-61 22.5z"/><glyph glyph-name="Idotaccent" unicode="İ" horiz-adv-x="299" d="M225 656V0H74v656h151zM85 737.5Q60 761 60 799t25 61.5 65 23.5q41 0 65.5-23.5T240 799t-25-61.5-65-23.5-65 23.5z"/><glyph glyph-name="uni1ECA" unicode="Ị" horiz-adv-x="299" d="M225 656V0H74v656h151zM85-204.5Q60-181 60-144q0 38 25 62t65 24 65-24 25-62-25-61-65-23-65 23.5z"/><glyph glyph-name="Igrave" unicode="Ì" horiz-adv-x="299" d="M225 656V0H74v656h151zM3 885l294-47V719L3 765v120z"/><glyph glyph-name="Imacron" unicode="Ī" horiz-adv-x="299" d="M225 656V0H74v656h151zm72 203V739H3v120h294z"/><glyph glyph-name="Iogonek" unicode="Į" horiz-adv-x="299" d="M225 656V0H74v656h151zM11-148.5Q-20-127-20-90q0 30 18 52t64 52l118 75 45-89-77-42q-12-8-12-15 0-10 17-10h72v-103H95q-53 0-84 21.5z"/><glyph glyph-name="Itilde" unicode="Ĩ" horiz-adv-x="299" d="M225 656V0H74v656h151zm-52.5 76q-22.5 7-26.5 8-41 15-65 15-41 0-78-24v118q39 25 80 25 15 0 28.5-4t36.5-12q27-9 41-13t30-4q40 0 78 22V745q-36-20-80-20-22 0-44.5 7z"/><glyph glyph-name="Jcircumflex" unicode="Ĵ" horiz-adv-x="749" d="M192 24Q120 60 81 127.5T42 287v36h150v-36q0-76 44.5-118T362 127q169 0 169 159v235H230v135h451V288q0-92-38.5-160t-110-104T362-12q-98 0-170 36zm252 870l221-64V708l-221 63-220-63v122z"/><glyph glyph-name="uni0136" unicode="Ķ" horiz-adv-x="813" d="M767 633L464 366 753 23V0H577L347 274 228 170V0H78v656h150V350l349 306h190v-23zM476-58l-64-180H263l56 180h157z"/><glyph glyph-name="Lacute" unicode="Ĺ" horiz-adv-x="687" d="M228 656V135h445V0H78v656h150zm147 238V775l-441-67v119z"/><glyph glyph-name="Lcaron" unicode="Ľ" horiz-adv-x="687" d="M228 656V135h445V0H78v656h150zm348 0l-61-187H379l25 187h172z"/><glyph glyph-name="uni013B" unicode="Ļ" horiz-adv-x="687" d="M228 656V135h445V0H78v656h150zM420-58l-64-180H207l56 180h157z"/><glyph glyph-name="Ldot" unicode="Ŀ" horiz-adv-x="687" d="M228 656V135h445V0H78v656h150zm206.5-336.5Q410 343 410 380t24.5 60.5T497 464q39 0 63-23.5t24-60.5q0-38-24-61t-63-23q-38 0-62.5 23.5z"/><glyph glyph-name="Lslash" unicode="Ł" horiz-adv-x="720" d="M706 135V0H111v271L-3 247v132l114 24v253h150V428l270 57V353l-270-57V135h445z"/><glyph glyph-name="Nacute" unicode="Ń" horiz-adv-x="819" d="M741 656V0H597L222 445V0H78v656h144l375-444v444h144zM631 894V775l-441-67v119z"/><glyph glyph-name="Ncaron" unicode="Ň" horiz-adv-x="819" d="M741 656V0H597L222 445V0H78v656h144l375-444v444h144zM190 894l220-64 221 64V771l-221-63-220 63v123z"/><glyph glyph-name="uni0145" unicode="Ņ" horiz-adv-x="819" d="M741 656V0H597L222 445V0H78v656h144l375-444v444h144zM484-58l-64-180H271l56 180h157z"/><glyph glyph-name="Eng" unicode="Ŋ" horiz-adv-x="819" d="M741 656V74q0-121-62.5-182.5T494-170h-55v131h47q41 0 66 13.5T588 16L222 447V0H78v656h145l374-439v439h144z"/><glyph glyph-name="Ntilde" unicode="Ñ" horiz-adv-x="819" d="M741 656V0H597L222 445V0H78v656h144l375-444v444h144zm-295 76q-35 7-41 8-64 15-103 15-57 0-112-27v118q58 28 114 28 24 0 46-4t57-12q6-1 29-6.5t43.5-8T518 841q58 0 113 25V748q-53-23-115-23-35 0-70 7z"/><glyph glyph-name="Oacute" unicode="Ó" horiz-adv-x="877" d="M233 29Q145 70 96.5 146T48 323v9q0 101 48.5 177t137 117.5T439 668q118 0 206-41.5T781 509t48-177v-9q0-101-48-177T645 29 439-12 233 29zm382.5 148Q676 227 676 321v12q0 94-61.5 145T439 529q-115 0-176.5-51T201 333v-12q0-94 61.5-144T439 127q116 0 176.5 50zM661 894V775l-441-67v119z"/><glyph glyph-name="Obreve" unicode="Ŏ" horiz-adv-x="877" d="M233 29Q145 70 96.5 146T48 323v9q0 101 48.5 177t137 117.5T439 668q118 0 206-41.5T781 509t48-177v-9q0-101-48-177T645 29 439-12 233 29zm382.5 148Q676 227 676 321v12q0 94-61.5 145T439 529q-115 0-176.5-51T201 333v-12q0-94 61.5-144T439 127q116 0 176.5 50zM220 764v119q121-50 223-50t218 50V764q-115-50-218-50-105 0-223 50z"/><glyph glyph-name="Ocircumflex" unicode="Ô" horiz-adv-x="877" d="M233 29Q145 70 96.5 146T48 323v9q0 101 48.5 177t137 117.5T439 668q118 0 206-41.5T781 509t48-177v-9q0-101-48-177T645 29 439-12 233 29zm382.5 148Q676 227 676 321v12q0 94-61.5 145T439 529q-115 0-176.5-51T201 333v-12q0-94 61.5-144T439 127q116 0 176.5 50zM440 894l221-64V708l-221 63-220-63v122z"/><glyph glyph-name="Odieresis" unicode="Ö" horiz-adv-x="877" d="M233 29Q145 70 96.5 146T48 323v9q0 101 48.5 177t137 117.5T439 668q118 0 206-41.5T781 509t48-177v-9q0-101-48-177T645 29 439-12 233 29zm382.5 148Q676 227 676 321v12q0 94-61.5 145T439 529q-115 0-176.5-51T201 333v-12q0-94 61.5-144T439 127q116 0 176.5 50zM249 740.5Q225 763 225 798q0 36 24 58t62 22q36 0 59.5-22t23.5-58q0-35-23.5-57.5T311 718q-38 0-62 22.5zm260 0Q485 763 485 798q0 36 23.5 58t61.5 22 61-22 23-58q0-35-23.5-57.5T570 718t-61 22.5z"/><glyph glyph-name="uni1ECC" unicode="Ọ" horiz-adv-x="877" d="M233 29Q145 70 96.5 146T48 323v9q0 101 48.5 177t137 117.5T439 668q118 0 206-41.5T781 509t48-177v-9q0-101-48-177T645 29 439-12 233 29zm382.5 148Q676 227 676 321v12q0 94-61.5 145T439 529q-115 0-176.5-51T201 333v-12q0-94 61.5-144T439 127q116 0 176.5 50zM373-204.5Q348-181 348-144q0 38 25 62t65 24 65-24 25-62-25-61-65-23-65 23.5z"/><glyph glyph-name="Ograve" unicode="Ò" horiz-adv-x="877" d="M233 29Q145 70 96.5 146T48 323v9q0 101 48.5 177t137 117.5T439 668q118 0 206-41.5T781 509t48-177v-9q0-101-48-177T645 29 439-12 233 29zm382.5 148Q676 227 676 321v12q0 94-61.5 145T439 529q-115 0-176.5-51T201 333v-12q0-94 61.5-144T439 127q116 0 176.5 50zM220 895l441-67V708l-441 68v119z"/><glyph glyph-name="Ohungarumlaut" unicode="Ő" horiz-adv-x="877" d="M233 29Q145 70 96.5 146T48 323v9q0 101 48.5 177t137 117.5T439 668q118 0 206-41.5T781 509t48-177v-9q0-101-48-177T645 29 439-12 233 29zm382.5 148Q676 227 676 321v12q0 94-61.5 145T439 529q-115 0-176.5-51T201 333v-12q0-94 61.5-144T439 127q116 0 176.5 50zM465 894V772l-271-64v121zm301 0V772l-270-64v121z"/><glyph glyph-name="Omacron" unicode="Ō" horiz-adv-x="877" d="M233 29Q145 70 96.5 146T48 323v9q0 101 48.5 177t137 117.5T439 668q118 0 206-41.5T781 509t48-177v-9q0-101-48-177T645 29 439-12 233 29zm382.5 148Q676 227 676 321v12q0 94-61.5 145T439 529q-115 0-176.5-51T201 333v-12q0-94 61.5-144T439 127q116 0 176.5 50zM661 859V739H220v120h441z"/><glyph glyph-name="Oslash" unicode="Ø" horiz-adv-x="877" d="M794 486.5Q829 418 829 332v-9q0-102-48-177.5T645 29 439-12q-69 0-122 13l-43-69H119v23l63 103q-64 44-99 112T48 323v9q0 101 48.5 177t137 117.5T439 668q67 0 122-13l42 69h156v-23l-64-102q64-44 99-112.5zM201 320q0-97 60-147l227 359q-23 3-49 3-116 0-177-51.5T201 334v-14zm475 14q0 98-60 149L390 124q24-3 49-3 116 0 176.5 50.5T676 320v14z"/><glyph glyph-name="Oslashacute" unicode="Ǿ" horiz-adv-x="877" d="M794 486.5Q829 418 829 332v-9q0-102-48-177.5T645 29 439-12q-69 0-122 13l-43-69H119v23l63 103q-64 44-99 112T48 323v9q0 101 48.5 177t137 117.5T439 668q67 0 122-13l42 69h156v-23l-64-102q64-44 99-112.5zM201 320q0-97 60-147l227 359q-23 3-49 3-116 0-177-51.5T201 334v-14zm475 14q0 98-60 149L390 124q24-3 49-3 116 0 176.5 50.5T676 320v14zm-16 560V775l-441-67v119z"/><glyph glyph-name="Otilde" unicode="Õ" horiz-adv-x="877" d="M233 29Q145 70 96.5 146T48 323v9q0 101 48.5 177t137 117.5T439 668q118 0 206-41.5T781 509t48-177v-9q0-101-48-177T645 29 439-12 233 29zm382.5 148Q676 227 676 321v12q0 94-61.5 145T439 529q-115 0-176.5-51T201 333v-12q0-94 61.5-144T439 127q116 0 176.5 50zM476 732q-35 7-41 8-64 15-103 15-57 0-112-27v118q58 28 114 28 24 0 46-4t57-12q6-1 29-6.5t43.5-8T548 841q58 0 113 25V748q-53-23-115-23-35 0-70 7z"/><glyph glyph-name="OE" unicode="Œ" horiz-adv-x="1263" d="M142 81q-94 81-94 241v11q0 160 94.5 241.5T421 656h780V524H749V394h408V263H749V132h452V0H421Q236 0 142 81zm457 440H422q-221 0-221-187v-14q0-94 54.5-139.5T421 135h178v386z"/><glyph glyph-name="Thorn" unicode="Þ" horiz-adv-x="787" d="M677.5 486.5Q744 431 744 334v-11q0-97-66.5-152.5T494 115H228V0H78v656h150V542h266q117 0 183.5-55.5zM591 334q0 37-26 56t-75 19H228V248h262q49 0 75 19t26 56v11z"/><glyph glyph-name="Racute" unicode="Ŕ" horiz-adv-x="806" d="M693.5 302Q643 251 550 238L741 23V0H569L365 235H228V0H78v656h416q117 0 183.5-56.5T744 444v-11q0-80-50.5-131zM591 447q0 37-25.5 56.5T490 523H228V359h262q49 0 75 19.5t26 57.5v11zm31 447V775l-441-67v119z"/><glyph glyph-name="Rcaron" unicode="Ř" horiz-adv-x="806" d="M693.5 302Q643 251 550 238L741 23V0H569L365 235H228V0H78v656h416q117 0 183.5-56.5T744 444v-11q0-80-50.5-131zM591 447q0 37-25.5 56.5T490 523H228V359h262q49 0 75 19.5t26 57.5v11zM181 894l220-64 221 64V771l-221-63-220 63v123z"/><glyph glyph-name="uni0156" unicode="Ŗ" horiz-adv-x="806" d="M693.5 302Q643 251 550 238L741 23V0H569L365 235H228V0H78v656h416q117 0 183.5-56.5T744 444v-11q0-80-50.5-131zM591 447q0 37-25.5 56.5T490 523H228V359h262q49 0 75 19.5t26 57.5v11zM475-58l-64-180H262l56 180h157z"/><glyph glyph-name="Sacute" unicode="Ś" horiz-adv-x="771" d="M142 46q-84 58-84 170v10h148v-10q0-48 48-73t140-25q82 0 124.5 17.5T561 187v7q0 27-24 41.5T452 259l-167 24Q69 315 69 461v10q0 93 81.5 145T379 668q156 0 238-56t82-162v-9H551v9q0 88-172 88-77 0-117.5-16T221 475v-8q0-23 22.5-36t77.5-21l168-24q115-17 169.5-61.5T713 201v-10q0-96-85-149.5T388-12q-162 0-246 58zm461 848V775l-441-67v119z"/><glyph glyph-name="Scaron" unicode="Š" horiz-adv-x="771" d="M142 46q-84 58-84 170v10h148v-10q0-48 48-73t140-25q82 0 124.5 17.5T561 187v7q0 27-24 41.5T452 259l-167 24Q69 315 69 461v10q0 93 81.5 145T379 668q156 0 238-56t82-162v-9H551v9q0 88-172 88-77 0-117.5-16T221 475v-8q0-23 22.5-36t77.5-21l168-24q115-17 169.5-61.5T713 201v-10q0-96-85-149.5T388-12q-162 0-246 58zm20 848l220-64 221 64V771l-221-63-220 63v123z"/><glyph glyph-name="Scedilla" unicode="Ş" horiz-adv-x="771" d="M142 46q-84 58-84 170v10h148v-10q0-48 48-73t140-25q82 0 124.5 17.5T561 187v7q0 27-24 41.5T452 259l-167 24Q69 315 69 461v10q0 93 81.5 145T379 668q156 0 238-56t82-162v-9H551v9q0 88-172 88-77 0-117.5-16T221 475v-8q0-23 22.5-36t77.5-21l168-24q115-17 169.5-61.5T713 201v-10q0-96-85-149.5T388-12q-162 0-246 58zM457 0l-48-170H252l63 220z"/><glyph glyph-name="Scircumflex" unicode="Ŝ" horiz-adv-x="771" d="M142 46q-84 58-84 170v10h148v-10q0-48 48-73t140-25q82 0 124.5 17.5T561 187v7q0 27-24 41.5T452 259l-167 24Q69 315 69 461v10q0 93 81.5 145T379 668q156 0 238-56t82-162v-9H551v9q0 88-172 88-77 0-117.5-16T221 475v-8q0-23 22.5-36t77.5-21l168-24q115-17 169.5-61.5T713 201v-10q0-96-85-149.5T388-12q-162 0-246 58zm240 848l221-64V708l-221 63-220-63v122z"/><glyph glyph-name="uni0218" unicode="Ș" horiz-adv-x="771" d="M142 46q-84 58-84 170v10h148v-10q0-48 48-73t140-25q82 0 124.5 17.5T561 187v7q0 27-24 41.5T452 259l-167 24Q69 315 69 461v10q0 93 81.5 145T379 668q156 0 238-56t82-162v-9H551v9q0 88-172 88-77 0-117.5-16T221 475v-8q0-23 22.5-36t77.5-21l168-24q115-17 169.5-61.5T713 201v-10q0-96-85-149.5T388-12q-162 0-246 58zM457-58l-64-180H244l56 180h157z"/><glyph glyph-name="uni1E62" unicode="Ṣ" horiz-adv-x="771" d="M142 46q-84 58-84 170v10h148v-10q0-48 48-73t140-25q82 0 124.5 17.5T561 187v7q0 27-24 41.5T452 259l-167 24Q69 315 69 461v10q0 93 81.5 145T379 668q156 0 238-56t82-162v-9H551v9q0 88-172 88-77 0-117.5-16T221 475v-8q0-23 22.5-36t77.5-21l168-24q115-17 169.5-61.5T713 201v-10q0-96-85-149.5T388-12q-162 0-246 58zm176-250.5Q293-181 293-144q0 38 25 62t65 24 65-24 25-62-25-61-65-23-65 23.5z"/><glyph glyph-name="uni1E9E" unicode="ẞ" horiz-adv-x="821" d="M729 328.5Q779 285 779 202v-11Q779 0 523 0H389v131h130q53 0 80 15.5t27 45.5v11q0 62-107 62H389v114l165 142H284q-27 0-41.5-14T228 465V0H78v477q0 88 48 133.5T266 656h478V521L576 380q103-8 153-51.5z"/><glyph glyph-name="uni018F" unicode="Ə" horiz-adv-x="877" d="M642.5 628q89.5-41 138-117T829 332v-9q0-102-48-177.5T644.5 29 437-12q-122 0-209.5 42.5T94 153.5 48 346v37h623q-16 74-78 113.5T430 536q-85 0-143-27.5T212 432H52q16 72 67.5 125.5T251 640t181 29q121 0 210.5-41zm-55-471.5Q648 193 668 259H206q17-69 74.5-104T435 120q92 0 152.5 36.5z"/><glyph glyph-name="Tbar" unicode="Ŧ" horiz-adv-x="711" d="M431 521V356h207V227H431V0H280v227H93v129h187v165H24v135h663V521H431z"/><glyph glyph-name="Tcaron" unicode="Ť" horiz-adv-x="691" d="M14 521v135h663V521H421V0H270v521H14zm112 373l220-64 221 64V771l-221-63-220 63v123z"/><glyph glyph-name="uni0162" unicode="Ţ" horiz-adv-x="691" d="M14 521v135h663V521H421V0H270v521H14zM420 0l-48-170H215l63 220z"/><glyph glyph-name="uni021A" unicode="Ț" horiz-adv-x="691" d="M14 521v135h663V521H421V0H270v521H14zM420-58l-64-180H207l56 180h157z"/><glyph glyph-name="Uacute" unicode="Ú" horiz-adv-x="793" d="M223.5 26.5Q149 65 108.5 135T68 298v358h150V296q0-81 46.5-125T396 127q86 0 132.5 44T575 296v360h150V298q0-93-40.5-163t-115-108.5T396-12q-98 0-172.5 38.5zM618 894V775l-441-67v119z"/><glyph glyph-name="Ubreve" unicode="Ŭ" horiz-adv-x="793" d="M223.5 26.5Q149 65 108.5 135T68 298v358h150V296q0-81 46.5-125T396 127q86 0 132.5 44T575 296v360h150V298q0-93-40.5-163t-115-108.5T396-12q-98 0-172.5 38.5zM177 764v119q121-50 223-50t218 50V764q-115-50-218-50-105 0-223 50z"/><glyph glyph-name="Ucircumflex" unicode="Û" horiz-adv-x="793" d="M223.5 26.5Q149 65 108.5 135T68 298v358h150V296q0-81 46.5-125T396 127q86 0 132.5 44T575 296v360h150V298q0-93-40.5-163t-115-108.5T396-12q-98 0-172.5 38.5zM397 894l221-64V708l-221 63-220-63v122z"/><glyph glyph-name="Udieresis" unicode="Ü" horiz-adv-x="793" d="M223.5 26.5Q149 65 108.5 135T68 298v358h150V296q0-81 46.5-125T396 127q86 0 132.5 44T575 296v360h150V298q0-93-40.5-163t-115-108.5T396-12q-98 0-172.5 38.5zm-17.5 714Q182 763 182 798q0 36 24 58t62 22q36 0 59.5-22t23.5-58q0-35-23.5-57.5T268 718q-38 0-62 22.5zm260 0Q442 763 442 798q0 36 23.5 58t61.5 22 61-22 23-58q0-35-23.5-57.5T527 718t-61 22.5z"/><glyph glyph-name="uni1EE4" unicode="Ụ" horiz-adv-x="793" d="M223.5 26.5Q149 65 108.5 135T68 298v358h150V296q0-81 46.5-125T396 127q86 0 132.5 44T575 296v360h150V298q0-93-40.5-163t-115-108.5T396-12q-98 0-172.5 38.5zm108.5-231Q307-181 307-144q0 38 25 62t65 24 65-24 25-62-25-61-65-23-65 23.5z"/><glyph glyph-name="Ugrave" unicode="Ù" horiz-adv-x="793" d="M223.5 26.5Q149 65 108.5 135T68 298v358h150V296q0-81 46.5-125T396 127q86 0 132.5 44T575 296v360h150V298q0-93-40.5-163t-115-108.5T396-12q-98 0-172.5 38.5zM177 895l441-67V708l-441 68v119z"/><glyph glyph-name="Uhungarumlaut" unicode="Ű" horiz-adv-x="793" d="M223.5 26.5Q149 65 108.5 135T68 298v358h150V296q0-81 46.5-125T396 127q86 0 132.5 44T575 296v360h150V298q0-93-40.5-163t-115-108.5T396-12q-98 0-172.5 38.5zM422 894V772l-271-64v121zm301 0V772l-270-64v121z"/><glyph glyph-name="Umacron" unicode="Ū" horiz-adv-x="793" d="M223.5 26.5Q149 65 108.5 135T68 298v358h150V296q0-81 46.5-125T396 127q86 0 132.5 44T575 296v360h150V298q0-93-40.5-163t-115-108.5T396-12q-98 0-172.5 38.5zM618 859V739H177v120h441z"/><glyph glyph-name="Uogonek" unicode="Ų" horiz-adv-x="793" d="M223.5 26.5Q149 65 108.5 135T68 298v358h150V296q0-81 46.5-125T396 127q86 0 132.5 44T575 296v360h150V298q0-93-40.5-163t-115-108.5T396-12q-98 0-172.5 38.5zm144-171Q334-119 334-78q0 30 20.5 57.5T422 42l92 69 91-61-86-69q-12-10-16.5-15.5T498-47q0-8 7-13.5t18-5.5h60v-104H456q-55 0-88.5 25.5z"/><glyph glyph-name="Uring" unicode="Ů" horiz-adv-x="793" d="M223.5 26.5Q149 65 108.5 135T68 298v358h150V296q0-81 46.5-125T396 127q86 0 132.5 44T575 296v360h150V298q0-93-40.5-163t-115-108.5T396-12q-98 0-172.5 38.5zM270 732q-45 35-45 100 0 64 46.5 100T397 968t125.5-36T569 832q0-65-45-100t-127-35-127 35zm171 64.5q15 12.5 15 35.5 0 24-15.5 36.5T397 881t-43.5-13-15.5-36 15.5-35.5T397 784q29 0 44 12.5z"/><glyph glyph-name="Utilde" unicode="Ũ" horiz-adv-x="793" d="M223.5 26.5Q149 65 108.5 135T68 298v358h150V296q0-81 46.5-125T396 127q86 0 132.5 44T575 296v360h150V298q0-93-40.5-163t-115-108.5T396-12q-98 0-172.5 38.5zM433 732q-35 7-41 8-64 15-103 15-57 0-112-27v118q58 28 114 28 24 0 46-4t57-12q6-1 29-6.5t43.5-8T505 841q58 0 113 25V748q-53-23-115-23-35 0-70 7z"/><glyph glyph-name="Wacute" unicode="Ẃ" horiz-adv-x="1175" d="M1164 656v-23L937 0H754L588 466 423 0H240L11 633v23h153l168-489 174 489h164l174-488 167 488h153zM809 894V775l-441-67v119z"/><glyph glyph-name="Wcircumflex" unicode="Ŵ" horiz-adv-x="1175" d="M1164 656v-23L937 0H754L588 466 423 0H240L11 633v23h153l168-489 174 489h164l174-488 167 488h153zM588 894l221-64V708l-221 63-220-63v122z"/><glyph glyph-name="Wdieresis" unicode="Ẅ" horiz-adv-x="1175" d="M1164 656v-23L937 0H754L588 466 423 0H240L11 633v23h153l168-489 174 489h164l174-488 167 488h153zm-767 84.5Q373 763 373 798q0 36 24 58t62 22q36 0 59.5-22t23.5-58q0-35-23.5-57.5T459 718q-38 0-62 22.5zm260 0Q633 763 633 798q0 36 23.5 58t61.5 22 61-22 23-58q0-35-23.5-57.5T718 718t-61 22.5z"/><glyph glyph-name="Wgrave" unicode="Ẁ" horiz-adv-x="1175" d="M1164 656v-23L937 0H754L588 466 423 0H240L11 633v23h153l168-489 174 489h164l174-488 167 488h153zM368 895l441-67V708l-441 68v119z"/><glyph glyph-name="Yacute" unicode="Ý" horiz-adv-x="726" d="M727 656v-23L439 255V0H288v255L-1 633v23h163l201-265 201 265h163zM584 894V775l-441-67v119z"/><glyph glyph-name="Ycircumflex" unicode="Ŷ" horiz-adv-x="726" d="M727 656v-23L439 255V0H288v255L-1 633v23h163l201-265 201 265h163zM363 894l221-64V708l-221 63-220-63v122z"/><glyph glyph-name="Ydieresis" unicode="Ÿ" horiz-adv-x="726" d="M727 656v-23L439 255V0H288v255L-1 633v23h163l201-265 201 265h163zm-555 84.5Q148 763 148 798q0 36 24 58t62 22q36 0 59.5-22t23.5-58q0-35-23.5-57.5T234 718q-38 0-62 22.5zm260 0Q408 763 408 798q0 36 23.5 58t61.5 22 61-22 23-58q0-35-23.5-57.5T493 718t-61 22.5z"/><glyph glyph-name="Ygrave" unicode="Ỳ" horiz-adv-x="726" d="M727 656v-23L439 255V0H288v255L-1 633v23h163l201-265 201 265h163zM143 895l441-67V708l-441 68v119z"/><glyph glyph-name="uni0232" unicode="Ȳ" horiz-adv-x="726" d="M727 656v-23L439 255V0H288v255L-1 633v23h163l201-265 201 265h163zM584 859V739H143v120h441z"/><glyph glyph-name="uni1EF8" unicode="Ỹ" horiz-adv-x="726" d="M727 656v-23L439 255V0H288v255L-1 633v23h163l201-265 201 265h163zm-328 76q-35 7-41 8-64 15-103 15-57 0-112-27v118q58 28 114 28 24 0 46-4t57-12q6-1 29-6.5t43.5-8T471 841q58 0 113 25V748q-53-23-115-23-35 0-70 7z"/><glyph glyph-name="Zacute" unicode="Ź" horiz-adv-x="696" d="M654 522L242 134h412V0H42v134l412 388H42v134h612V522zm-85 372V775l-441-67v119z"/><glyph glyph-name="Zcaron" unicode="Ž" horiz-adv-x="696" d="M654 522L242 134h412V0H42v134l412 388H42v134h612V522zM128 894l220-64 221 64V771l-221-63-220 63v123z"/><glyph glyph-name="Zdotaccent" unicode="Ż" horiz-adv-x="696" d="M654 522L242 134h412V0H42v134l412 388H42v134h612V522zM283 737.5Q258 761 258 799t25 61.5 65 23.5q41 0 65.5-23.5T438 799t-25-61.5-65-23.5-65 23.5z"/><glyph glyph-name="Iacute_J.loclNLD" horiz-adv-x="841" d="M228 656V0H78v656h150zm226-519q169 0 169 160v224H339v135h434V300q0-93-38-160.5t-110-103T454 1L339 0v137h115zm260 747V765l-294-46v118zm-424 0V765L-4 719v118z"/><glyph glyph-name="I.ss07" horiz-adv-x="701" d="M275 134v388H46v134h609V522H426V134h229V0H46v134h229z"/><glyph glyph-name="IJ.ss07" horiz-adv-x="1421" d="M275 134v388H46v134h609V522H426V134h229V0H46v134h229zM864 24q-72 36-111 103.5T714 287v36h150v-36q0-76 44.5-118t125.5-42q169 0 169 159v235H902v135h451V288q0-92-38.5-160t-110-104T1034-12q-98 0-170 36z"/><glyph glyph-name="Iacute.ss07" horiz-adv-x="701" d="M275 134v388H46v134h609V522H426V134h229V0H46v134h229zm297 760V775l-441-67v119z"/><glyph glyph-name="Iacute_J.loclNLD.ss07" horiz-adv-x="1421" d="M275 134v388H46v134h609V522H426V134h229V0H46v134h229zm297 760V775l-441-67v119zM864 24q-72 36-111 103.5T714 287v36h150v-36q0-76 44.5-118t125.5-42q169 0 169 159v235H902v135h451V288q0-92-38.5-160t-110-104T1034-12q-98 0-170 36zm473 870V775l-441-67v119z"/><glyph glyph-name="Ibreve.ss07" horiz-adv-x="701" d="M275 134v388H46v134h609V522H426V134h229V0H46v134h229zM131 764v119q121-50 223-50t218 50V764q-115-50-218-50-105 0-223 50z"/><glyph glyph-name="Icircumflex.ss07" horiz-adv-x="701" d="M275 134v388H46v134h609V522H426V134h229V0H46v134h229zm76 760l221-64V708l-221 63-220-63v122z"/><glyph glyph-name="Idieresis.ss07" horiz-adv-x="701" d="M275 134v388H46v134h609V522H426V134h229V0H46v134h229zM160 740.5Q136 763 136 798q0 36 24 58t62 22q36 0 59.5-22t23.5-58q0-35-23.5-57.5T222 718q-38 0-62 22.5zm260 0Q396 763 396 798q0 36 23.5 58t61.5 22 61-22 23-58q0-35-23.5-57.5T481 718t-61 22.5z"/><glyph glyph-name="Idotaccent.ss07" horiz-adv-x="701" d="M275 134v388H46v134h609V522H426V134h229V0H46v134h229zm11 603.5Q261 761 261 799t25 61.5 65 23.5q41 0 65.5-23.5T441 799t-25-61.5-65-23.5-65 23.5z"/><glyph glyph-name="uni1ECA.ss07" horiz-adv-x="701" d="M275 134v388H46v134h609V522H426V134h229V0H46v134h229zm11-338.5Q261-181 261-144q0 38 25 62t65 24 65-24 25-62-25-61-65-23-65 23.5z"/><glyph glyph-name="Igrave.ss07" horiz-adv-x="701" d="M275 134v388H46v134h609V522H426V134h229V0H46v134h229zM131 895l441-67V708l-441 68v119z"/><glyph glyph-name="Imacron.ss07" horiz-adv-x="701" d="M275 134v388H46v134h609V522H426V134h229V0H46v134h229zm297 725V739H131v120h441z"/><glyph glyph-name="Iogonek.ss07" horiz-adv-x="701" d="M275 134v388H46v134h609V522H426V134h229V0H46v134h229zm166-282.5Q410-127 410-90q0 30 18 52t64 52l118 75 45-89-77-42q-12-8-12-15 0-10 17-10h72v-103H525q-53 0-84 21.5z"/><glyph glyph-name="Itilde.ss07" horiz-adv-x="701" d="M275 134v388H46v134h609V522H426V134h229V0H46v134h229zm112 598q-35 7-41 8-64 15-103 15-57 0-112-27v118q58 28 114 28 24 0 46-4t57-12q6-1 29-6.5t43.5-8T459 841q58 0 113 25V748q-53-23-115-23-35 0-70 7z"/><glyph glyph-name="a" unicode="a" horiz-adv-x="716" d="M709 127V0h-85q-46 0-79.5 15.5T494 60q-76-72-216-72-106 0-165 40T54 140q0 61 44 97.5T226 283l247 27q-12 74-134 74-64 0-99.5-17.5T204 318v-3H58v3q0 59 34.5 103t98.5 68 149 24q132 0 205.5-59T619 291V167q0-40 46-40h44zm-307.5-3.5Q451 143 474 176v34l-210-24q-33-4-49-14t-16-28q0-40 89-40 64 0 113.5 19.5z"/><glyph glyph-name="b" unicode="b" horiz-adv-x="710" d="M538.5 481.5q64.5-31.5 99-89.5T672 256v-10q0-78-35-136.5t-99-90T387-12q-106 0-175 55l-4-43H73v696h145V462q70 51 169 51 87 0 151.5-31.5zM522 256q0 59-41 92t-115 33q-47 0-86.5-15T218 325V177q23-26 62-41.5t86-15.5q74 0 115 33t41 93v10z"/><glyph glyph-name="c" unicode="c" horiz-adv-x="670" d="M179.5 19q-68.5 31-105 88T38 242v13q0 79 36.5 137t105 89.5T340 513q85 0 152.5-28.5t105-79T635 290v-4H486v4q0 40-40.5 65.5T340 381q-74 0-113-32.5T188 254v-11q0-60 39-91.5T340 120q66 0 106 24.5t40 65.5v4h149v-4q0-66-36.5-116.5t-103-78T340-12q-92 0-160.5 31z"/><glyph glyph-name="d" unicode="d" horiz-adv-x="710" d="M637 696V0H502l-4 43q-69-55-175-55-87 0-151 31.5t-99 90T38 246v10q0 78 34.5 136t99 89.5T323 513q99 0 169-51v234h145zM430 135.5q39 15.5 62 41.5v148q-22 26-61.5 41T344 381q-74 0-115-33t-41-92v-10q0-60 41-93t115-33q47 0 86 15.5z"/><glyph glyph-name="e" unicode="e" horiz-adv-x="671" d="M633 208H187q7-47 46-72t105-25q60 0 98 16t44 44h152q-11-88-87.5-135.5T338-12q-92 0-160 30.5T74 106 38 240v19q0 78 36.5 135.5t104 88T338 513q140 0 217.5-66.5T633 260v-52zM241 371q-38-21-50-59h289q-12 38-49 59t-94 21q-58 0-96-21z"/><glyph glyph-name="f" unicode="f" horiz-adv-x="500" d="M501 373H292V0H147v373H-8v128h155v28q0 77 47.5 122T324 696h137V571H344q-52 0-52-49v-21h209V373z"/><glyph glyph-name="g" unicode="g" horiz-adv-x="709" d="M636 501V56q0-240-297-238-141 0-220 51T40 11v6h148v-6q0-29 42-48t106-19q76 0 115.5 27.5T491 51v26q-70-47-165-47-139 0-214 60T37 262v10q0 114 76 177.5T326 513q102 0 172-51l3 39h135zM429 169q40 15 62 41v117q-22 26-62.5 42T341 385q-154 0-154-113v-10q0-55 37.5-81.5T341 154q48 0 88 15z"/><glyph glyph-name="h" unicode="h" horiz-adv-x="711" d="M578 445.5Q645 378 645 247V0H500v247q0 65-35.5 99.5T361 381q-47 0-85-22t-58-59V0H73v696h145V458q67 55 163 55 130 0 197-67.5z"/><glyph glyph-name="i" unicode="i" horiz-adv-x="286" d="M215 501V0H71v501h144zM78 582.5Q53 606 53 644t25 61.5 65 23.5q41 0 65.5-23.5T233 644t-25-61.5-65-23.5-65 23.5z"/><glyph glyph-name="j" unicode="j" horiz-adv-x="286" d="M8-43q31 0 47 15t16 44v485h144V7q0-80-52.5-128.5T23-170h-91v127H8zm70 625.5Q53 606 53 644t25 61.5 65 23.5q41 0 65.5-23.5T233 644t-25-61.5-65-23.5-65 23.5z"/><glyph glyph-name="k" unicode="k" horiz-adv-x="681" d="M669 20V0H498L328 196 218 99V0H73v696h145V272l264 229h176v-21L437 285z"/><glyph glyph-name="l" unicode="l" horiz-adv-x="319" d="M115 38.5Q71 77 71 146v550h144V172q0-23 12-34t39-11h43V0h-70q-80 0-124 38.5z"/><glyph glyph-name="m" unicode="m" horiz-adv-x="1108" d="M980 445.5q66-67.5 66-197.5V0H901v248q0 64-33 98.5T774 381q-48 0-87-23t-59-62q2-30 2-48V0H485v248q0 64-32.5 98.5T359 381q-47 0-85-22t-59-60V0H70v501h135l4-48q69 60 170 60 142 0 204-88 77 88 204 88t193-67.5z"/><glyph glyph-name="n" unicode="n" horiz-adv-x="711" d="M578 446q67-67 67-199V0H500v247q0 65-35.5 99.5T361 381q-47 0-85-21.5T218 301V0H73v501h135l4-48q66 58 169 60 130 0 197-67z"/><glyph glyph-name="o" unicode="o" horiz-adv-x="685" d="M181 18.5q-69 30.5-106 88T38 242v13q0 80 36.5 138T180 482t164 31q94 0 162-31t104.5-89T647 255v-13q0-78-36.5-135.5T506 18.5 344-12 181 18.5zM456.5 152q40.5 32 40.5 91v11q0 61-40 94t-114 33q-75 0-115-32.5T188 254v-11q0-59 40.5-91T343 120q73 0 113.5 32z"/><glyph glyph-name="p" unicode="p" horiz-adv-x="710" d="M535 481.5q66-31.5 101.5-90T672 256v-10q0-77-36-135.5T534.5 20 381-12q-96 0-163 49v-207H73v671h135l4-43q71 55 169 55 88 0 154-31.5zM522 256q0 59-41 92t-114 33q-48 0-87.5-14.5T218 326V176q23-26 62.5-41t86.5-15q73 0 114 33t41 93v10z"/><glyph glyph-name="q" unicode="q" horiz-adv-x="710" d="M637 501v-671H492V37q-67-49-163-49-88 0-153.5 32T74 110.5 38 246v10q0 77 35.5 135.5t101.5 90T329 513q98 0 169-55l4 43h135zM429.5 135q39.5 15 62.5 41v150q-22 26-61.5 40.5T343 381q-73 0-114-33t-41-92v-10q0-60 41-93t114-33q47 0 86.5 15z"/><glyph glyph-name="r" unicode="r" horiz-adv-x="473" d="M459 501V373H347q-94 0-132-47V0H71v501h135l4-46q63 46 156 46h93z"/><glyph glyph-name="s" unicode="s" horiz-adv-x="688" d="M129.5 32.5Q51 77 51 159v5h139v-5q0-28 38-40.5T351 106q140 0 140 40v5q0 15-18 23t-65 12l-129 13q-111 11-162 46t-51 99v10q0 75 74.5 117T348 513q138 0 212-44t74-127v-6H495v6q0 28-35.5 40.5T344 395q-65 0-100-9t-35-26v-6q0-15 16.5-23t54.5-12l131-13q118-12 171.5-47T636 158v-10q0-76-76-118T349-12q-141 0-219.5 44.5z"/><glyph glyph-name="t" unicode="t" horiz-adv-x="520" d="M304 373V183q0-27 15.5-41.5T364 127h118V0H345q-86 0-136 46.5T159 173v200H-8v128h134q21 0 29 8t8 29v96h141V501h208V373H304z"/><glyph glyph-name="u" unicode="u" horiz-adv-x="711" d="M638 501V0H503l-4 48q-66-58-169-60-129-1-196.5 66.5T66 254v247h145V254q0-65 35.5-99.5T350 120q47 0 85 21.5t58 58.5v301h145z"/><glyph glyph-name="v" unicode="v" horiz-adv-x="697" d="M678 501v-21L443 0H255L19 480v21h152l178-370 177 370h152z"/><glyph glyph-name="w" unicode="w" horiz-adv-x="1067" d="M1048 501v-21L853 0H663L533 318 404 0H215L19 480v21h155l136-364 148 364h149l151-370 142 370h148z"/><glyph glyph-name="x" unicode="x" horiz-adv-x="656" d="M637 20V0H468L328 161 188 0H19v20l211 232L23 480v21h168l137-158 139 158h164v-21L425 252z"/><glyph glyph-name="y" unicode="y" horiz-adv-x="697" d="M678 501v-21L413-50q-32-63-79-91.5T208-170H77v127h124q27 0 42.5 6.5T270-12L19 480v21h154l177-361 174 361h154z"/><glyph glyph-name="z" unicode="z" horiz-adv-x="642" d="M582 378L256 123h326V0H60v123l325 254H60v124h522V378z"/><glyph glyph-name="aacute" unicode="á" horiz-adv-x="716" d="M709 127V0h-85q-46 0-79.5 15.5T494 60q-76-72-216-72-106 0-165 40T54 140q0 61 44 97.5T226 283l247 27q-12 74-134 74-64 0-99.5-17.5T204 318v-3H58v3q0 59 34.5 103t98.5 68 149 24q132 0 205.5-59T619 291V167q0-40 46-40h44zm-307.5-3.5Q451 143 474 176v34l-210-24q-33-4-49-14t-16-28q0-40 89-40 64 0 113.5 19.5zM562 739V620l-441-67v119z"/><glyph glyph-name="abreve" unicode="ă" horiz-adv-x="716" d="M709 127V0h-85q-46 0-79.5 15.5T494 60q-76-72-216-72-106 0-165 40T54 140q0 61 44 97.5T226 283l247 27q-12 74-134 74-64 0-99.5-17.5T204 318v-3H58v3q0 59 34.5 103t98.5 68 149 24q132 0 205.5-59T619 291V167q0-40 46-40h44zm-307.5-3.5Q451 143 474 176v34l-210-24q-33-4-49-14t-16-28q0-40 89-40 64 0 113.5 19.5zM121 609v119q121-50 223-50t218 50V609q-115-50-218-50-105 0-223 50z"/><glyph glyph-name="uni01CE" unicode="ǎ" horiz-adv-x="716" d="M709 127V0h-85q-46 0-79.5 15.5T494 60q-76-72-216-72-106 0-165 40T54 140q0 61 44 97.5T226 283l247 27q-12 74-134 74-64 0-99.5-17.5T204 318v-3H58v3q0 59 34.5 103t98.5 68 149 24q132 0 205.5-59T619 291V167q0-40 46-40h44zm-307.5-3.5Q451 143 474 176v34l-210-24q-33-4-49-14t-16-28q0-40 89-40 64 0 113.5 19.5zM121 739l220-64 221 64V616l-221-63-220 63v123z"/><glyph glyph-name="acircumflex" unicode="â" horiz-adv-x="716" d="M709 127V0h-85q-46 0-79.5 15.5T494 60q-76-72-216-72-106 0-165 40T54 140q0 61 44 97.5T226 283l247 27q-12 74-134 74-64 0-99.5-17.5T204 318v-3H58v3q0 59 34.5 103t98.5 68 149 24q132 0 205.5-59T619 291V167q0-40 46-40h44zm-307.5-3.5Q451 143 474 176v34l-210-24q-33-4-49-14t-16-28q0-40 89-40 64 0 113.5 19.5zM341 739l221-64V553l-221 63-220-63v122z"/><glyph glyph-name="adieresis" unicode="ä" horiz-adv-x="716" d="M709 127V0h-85q-46 0-79.5 15.5T494 60q-76-72-216-72-106 0-165 40T54 140q0 61 44 97.5T226 283l247 27q-12 74-134 74-64 0-99.5-17.5T204 318v-3H58v3q0 59 34.5 103t98.5 68 149 24q132 0 205.5-59T619 291V167q0-40 46-40h44zm-307.5-3.5Q451 143 474 176v34l-210-24q-33-4-49-14t-16-28q0-40 89-40 64 0 113.5 19.5zM150 585.5Q126 608 126 643q0 36 24 58t62 22q36 0 59.5-22t23.5-58q0-35-23.5-57.5T212 563q-38 0-62 22.5zm260 0Q386 608 386 643q0 36 23.5 58t61.5 22 61-22 23-58q0-35-23.5-57.5T471 563t-61 22.5z"/><glyph glyph-name="agrave" unicode="à" horiz-adv-x="716" d="M709 127V0h-85q-46 0-79.5 15.5T494 60q-76-72-216-72-106 0-165 40T54 140q0 61 44 97.5T226 283l247 27q-12 74-134 74-64 0-99.5-17.5T204 318v-3H58v3q0 59 34.5 103t98.5 68 149 24q132 0 205.5-59T619 291V167q0-40 46-40h44zm-307.5-3.5Q451 143 474 176v34l-210-24q-33-4-49-14t-16-28q0-40 89-40 64 0 113.5 19.5zM121 740l441-67V553l-441 68v119z"/><glyph glyph-name="amacron" unicode="ā" horiz-adv-x="716" d="M709 127V0h-85q-46 0-79.5 15.5T494 60q-76-72-216-72-106 0-165 40T54 140q0 61 44 97.5T226 283l247 27q-12 74-134 74-64 0-99.5-17.5T204 318v-3H58v3q0 59 34.5 103t98.5 68 149 24q132 0 205.5-59T619 291V167q0-40 46-40h44zm-307.5-3.5Q451 143 474 176v34l-210-24q-33-4-49-14t-16-28q0-40 89-40 64 0 113.5 19.5zM562 704V584H121v120h441z"/><glyph glyph-name="aogonek" unicode="ą" horiz-adv-x="716" d="M709 127V0h-85q-46 0-79.5 15.5T494 60q-76-72-216-72-106 0-165 40T54 140q0 61 44 97.5T226 283l247 27q-12 74-134 74-64 0-99.5-17.5T204 318v-3H58v3q0 59 34.5 103t98.5 68 149 24q132 0 205.5-59T619 291V167q0-40 46-40h44zm-307.5-3.5Q451 143 474 176v34l-210-24q-33-4-49-14t-16-28q0-40 89-40 64 0 113.5 19.5zm93.5-272Q464-127 464-90q0 30 18 52t64 52l118 75 45-89-77-42q-12-8-12-15 0-10 17-10h72v-103H579q-53 0-84 21.5z"/><glyph glyph-name="aring" unicode="å" horiz-adv-x="716" d="M709 127V0h-85q-46 0-79.5 15.5T494 60q-76-72-216-72-106 0-165 40T54 140q0 61 44 97.5T226 283l247 27q-12 74-134 74-64 0-99.5-17.5T204 318v-3H58v3q0 59 34.5 103t98.5 68 149 24q132 0 205.5-59T619 291V167q0-40 46-40h44zm-307.5-3.5Q451 143 474 176v34l-210-24q-33-4-49-14t-16-28q0-40 89-40 64 0 113.5 19.5zM214 577q-45 35-45 100 0 64 46.5 100T341 813t125.5-36T513 677q0-65-45-100t-127-35-127 35zm171 64.5q15 12.5 15 35.5 0 24-15.5 36.5T341 726t-43.5-13-15.5-36 15.5-35.5T341 629q29 0 44 12.5z"/><glyph glyph-name="atilde" unicode="ã" horiz-adv-x="716" d="M709 127V0h-85q-46 0-79.5 15.5T494 60q-76-72-216-72-106 0-165 40T54 140q0 61 44 97.5T226 283l247 27q-12 74-134 74-64 0-99.5-17.5T204 318v-3H58v3q0 59 34.5 103t98.5 68 149 24q132 0 205.5-59T619 291V167q0-40 46-40h44zm-307.5-3.5Q451 143 474 176v34l-210-24q-33-4-49-14t-16-28q0-40 89-40 64 0 113.5 19.5zM377 577q-35 7-41 8-64 15-103 15-57 0-112-27v118q58 28 114 28 24 0 46-4t57-12q6-1 29-6.5t43.5-8T449 686q58 0 113 25V593q-53-23-115-23-35 0-70 7z"/><glyph glyph-name="ae" unicode="æ" horiz-adv-x="1098" d="M1060 207H618q7-48 45.5-73T770 109q58 0 95.5 17t42.5 45h151q-10-86-85-134.5T777-12q-81 0-143 21.5T533 73q-39-41-102-63T286-12q-110 0-171 39.5T54 138q0 61 44.5 98.5T226 283l246 27q-7 36-43 55t-98 19q-59 0-92.5-17.5T205 318v-3H58v3q0 59 34.5 103t98.5 68 149 24q149 0 214-77 74 77 218 77 135 0 211.5-66.5T1060 263v-56zM672 371q-38-21-50-60h286q-11 39-47 60t-93 21q-58 0-96-21zM402 123.5q53 19.5 78 52.5-4 19-5 32l-205-23q-71-8-71-44 0-37 82-37 68 0 121 19.5z"/><glyph glyph-name="aeacute" unicode="ǽ" horiz-adv-x="1098" d="M1060 207H618q7-48 45.5-73T770 109q58 0 95.5 17t42.5 45h151q-10-86-85-134.5T777-12q-81 0-143 21.5T533 73q-39-41-102-63T286-12q-110 0-171 39.5T54 138q0 61 44.5 98.5T226 283l246 27q-7 36-43 55t-98 19q-59 0-92.5-17.5T205 318v-3H58v3q0 59 34.5 103t98.5 68 149 24q149 0 214-77 74 77 218 77 135 0 211.5-66.5T1060 263v-56zM672 371q-38-21-50-60h286q-11 39-47 60t-93 21q-58 0-96-21zM402 123.5q53 19.5 78 52.5-4 19-5 32l-205-23q-71-8-71-44 0-37 82-37 68 0 121 19.5zM774 739V620l-441-67v119z"/><glyph glyph-name="cacute" unicode="ć" horiz-adv-x="670" d="M179.5 19q-68.5 31-105 88T38 242v13q0 79 36.5 137t105 89.5T340 513q85 0 152.5-28.5t105-79T635 290v-4H486v4q0 40-40.5 65.5T340 381q-74 0-113-32.5T188 254v-11q0-60 39-91.5T340 120q66 0 106 24.5t40 65.5v4h149v-4q0-66-36.5-116.5t-103-78T340-12q-92 0-160.5 31zM554 739V620l-441-67v119z"/><glyph glyph-name="ccaron" unicode="č" horiz-adv-x="670" d="M179.5 19q-68.5 31-105 88T38 242v13q0 79 36.5 137t105 89.5T340 513q85 0 152.5-28.5t105-79T635 290v-4H486v4q0 40-40.5 65.5T340 381q-74 0-113-32.5T188 254v-11q0-60 39-91.5T340 120q66 0 106 24.5t40 65.5v4h149v-4q0-66-36.5-116.5t-103-78T340-12q-92 0-160.5 31zM113 739l220-64 221 64V616l-221-63-220 63v123z"/><glyph glyph-name="ccedilla" unicode="ç" horiz-adv-x="670" d="M179.5 19q-68.5 31-105 88T38 242v13q0 79 36.5 137t105 89.5T340 513q85 0 152.5-28.5t105-79T635 290v-4H486v4q0 40-40.5 65.5T340 381q-74 0-113-32.5T188 254v-11q0-60 39-91.5T340 120q66 0 106 24.5t40 65.5v4h149v-4q0-66-36.5-116.5t-103-78T340-12q-92 0-160.5 31zM408 0l-48-170H203l63 220z"/><glyph glyph-name="ccircumflex" unicode="ĉ" horiz-adv-x="670" d="M179.5 19q-68.5 31-105 88T38 242v13q0 79 36.5 137t105 89.5T340 513q85 0 152.5-28.5t105-79T635 290v-4H486v4q0 40-40.5 65.5T340 381q-74 0-113-32.5T188 254v-11q0-60 39-91.5T340 120q66 0 106 24.5t40 65.5v4h149v-4q0-66-36.5-116.5t-103-78T340-12q-92 0-160.5 31zM333 739l221-64V553l-221 63-220-63v122z"/><glyph glyph-name="cdotaccent" unicode="ċ" horiz-adv-x="670" d="M179.5 19q-68.5 31-105 88T38 242v13q0 79 36.5 137t105 89.5T340 513q85 0 152.5-28.5t105-79T635 290v-4H486v4q0 40-40.5 65.5T340 381q-74 0-113-32.5T188 254v-11q0-60 39-91.5T340 120q66 0 106 24.5t40 65.5v4h149v-4q0-66-36.5-116.5t-103-78T340-12q-92 0-160.5 31zM268 582.5Q243 606 243 644t25 61.5 65 23.5q41 0 65.5-23.5T423 644t-25-61.5-65-23.5-65 23.5z"/><glyph glyph-name="eth" unicode="ð" horiz-adv-x="684" d="M645 593l-127-21q62-50 89.5-110T635 317v-78q0-76-36.5-133t-104-87.5T336-12q-90 0-157.5 29t-104 82T38 222v20q0 68 34.5 120.5T169 444t143 29q99 0 161-43-13 30-40 55.5T360 538L53 489v112l153 24-96 55v20h193l71-39 271 44V593zM449 148q40 32 40 91v40q-20 32-61.5 50.5T332 348q-68 0-106.5-28T187 243v-16q0-53 39-82t109-29q74 0 114 32z"/><glyph glyph-name="dcaron" unicode="ď" horiz-adv-x="920" d="M637 696V0H502l-4 43q-69-55-175-55-87 0-151 31.5t-99 90T38 246v10q0 78 34.5 136t99 89.5T323 513q99 0 169-51v234h145zM430 135.5q39 15.5 62 41.5v148q-22 26-61.5 41T344 381q-74 0-115-33t-41-92v-10q0-60 41-93t115-33q47 0 86 15.5zM918 696l-61-187H721l25 187h172z"/><glyph glyph-name="dcroat" unicode="đ" horiz-adv-x="736" d="M751 533H637V0H502l-4 42q-68-54-168-54-89 0-155 30T73.5 103.5 38 235v11q0 71 35.5 124t99.5 82 147 29q104 0 172-47v99H281v116h211v47h145v-47h114V533zM429 133q40 15 63 42v128q-23 24-63 38t-88 14q-72 0-112.5-29T188 243v-11q0-54 40-84t112-30q49 0 89 15z"/><glyph glyph-name="eacute" unicode="é" horiz-adv-x="671" d="M633 208H187q7-47 46-72t105-25q60 0 98 16t44 44h152q-11-88-87.5-135.5T338-12q-92 0-160 30.5T74 106 38 240v19q0 78 36.5 135.5t104 88T338 513q140 0 217.5-66.5T633 260v-52zM241 371q-38-21-50-59h289q-12 38-49 59t-94 21q-58 0-96-21zm316 368V620l-441-67v119z"/><glyph glyph-name="ebreve" unicode="ĕ" horiz-adv-x="671" d="M633 208H187q7-47 46-72t105-25q60 0 98 16t44 44h152q-11-88-87.5-135.5T338-12q-92 0-160 30.5T74 106 38 240v19q0 78 36.5 135.5t104 88T338 513q140 0 217.5-66.5T633 260v-52zM241 371q-38-21-50-59h289q-12 38-49 59t-94 21q-58 0-96-21zM116 609v119q121-50 223-50t218 50V609q-115-50-218-50-105 0-223 50z"/><glyph glyph-name="ecaron" unicode="ě" horiz-adv-x="671" d="M633 208H187q7-47 46-72t105-25q60 0 98 16t44 44h152q-11-88-87.5-135.5T338-12q-92 0-160 30.5T74 106 38 240v19q0 78 36.5 135.5t104 88T338 513q140 0 217.5-66.5T633 260v-52zM241 371q-38-21-50-59h289q-12 38-49 59t-94 21q-58 0-96-21zM116 739l220-64 221 64V616l-221-63-220 63v123z"/><glyph glyph-name="ecircumflex" unicode="ê" horiz-adv-x="671" d="M633 208H187q7-47 46-72t105-25q60 0 98 16t44 44h152q-11-88-87.5-135.5T338-12q-92 0-160 30.5T74 106 38 240v19q0 78 36.5 135.5t104 88T338 513q140 0 217.5-66.5T633 260v-52zM241 371q-38-21-50-59h289q-12 38-49 59t-94 21q-58 0-96-21zm95 368l221-64V553l-221 63-220-63v122z"/><glyph glyph-name="edieresis" unicode="ë" horiz-adv-x="671" d="M633 208H187q7-47 46-72t105-25q60 0 98 16t44 44h152q-11-88-87.5-135.5T338-12q-92 0-160 30.5T74 106 38 240v19q0 78 36.5 135.5t104 88T338 513q140 0 217.5-66.5T633 260v-52zM241 371q-38-21-50-59h289q-12 38-49 59t-94 21q-58 0-96-21zm-96 214.5Q121 608 121 643q0 36 24 58t62 22q36 0 59.5-22t23.5-58q0-35-23.5-57.5T207 563q-38 0-62 22.5zm260 0Q381 608 381 643q0 36 23.5 58t61.5 22 61-22 23-58q0-35-23.5-57.5T466 563t-61 22.5z"/><glyph glyph-name="edotaccent" unicode="ė" horiz-adv-x="671" d="M633 208H187q7-47 46-72t105-25q60 0 98 16t44 44h152q-11-88-87.5-135.5T338-12q-92 0-160 30.5T74 106 38 240v19q0 78 36.5 135.5t104 88T338 513q140 0 217.5-66.5T633 260v-52zM241 371q-38-21-50-59h289q-12 38-49 59t-94 21q-58 0-96-21zm30 211.5Q246 606 246 644t25 61.5 65 23.5q41 0 65.5-23.5T426 644t-25-61.5-65-23.5-65 23.5z"/><glyph glyph-name="uni1EB9" unicode="ẹ" horiz-adv-x="671" d="M633 208H187q7-47 46-72t105-25q60 0 98 16t44 44h152q-11-88-87.5-135.5T338-12q-92 0-160 30.5T74 106 38 240v19q0 78 36.5 135.5t104 88T338 513q140 0 217.5-66.5T633 260v-52zM241 371q-38-21-50-59h289q-12 38-49 59t-94 21q-58 0-96-21zm30-575.5Q246-181 246-144q0 38 25 62t65 24 65-24 25-62-25-61-65-23-65 23.5z"/><glyph glyph-name="egrave" unicode="è" horiz-adv-x="671" d="M633 208H187q7-47 46-72t105-25q60 0 98 16t44 44h152q-11-88-87.5-135.5T338-12q-92 0-160 30.5T74 106 38 240v19q0 78 36.5 135.5t104 88T338 513q140 0 217.5-66.5T633 260v-52zM241 371q-38-21-50-59h289q-12 38-49 59t-94 21q-58 0-96-21zM116 740l441-67V553l-441 68v119z"/><glyph glyph-name="emacron" unicode="ē" horiz-adv-x="671" d="M633 208H187q7-47 46-72t105-25q60 0 98 16t44 44h152q-11-88-87.5-135.5T338-12q-92 0-160 30.5T74 106 38 240v19q0 78 36.5 135.5t104 88T338 513q140 0 217.5-66.5T633 260v-52zM241 371q-38-21-50-59h289q-12 38-49 59t-94 21q-58 0-96-21zm316 333V584H116v120h441z"/><glyph glyph-name="eogonek" unicode="ę" horiz-adv-x="671" d="M633 208H187q7-47 46-72t105-25q60 0 98 16t44 44h152q-11-88-87.5-135.5T338-12q-92 0-160 30.5T74 106 38 240v19q0 78 36.5 135.5t104 88T338 513q140 0 217.5-66.5T633 260v-52zM241 371q-38-21-50-59h289q-12 38-49 59t-94 21q-58 0-96-21zm82.5-515.5Q290-119 290-78q0 30 20.5 57.5T378 42l92 69 91-61-86-69q-12-10-16.5-15.5T454-47q0-8 7-13.5t18-5.5h60v-104H412q-55 0-88.5 25.5z"/><glyph glyph-name="uni1EBD" unicode="ẽ" horiz-adv-x="671" d="M633 208H187q7-47 46-72t105-25q60 0 98 16t44 44h152q-11-88-87.5-135.5T338-12q-92 0-160 30.5T74 106 38 240v19q0 78 36.5 135.5t104 88T338 513q140 0 217.5-66.5T633 260v-52zM241 371q-38-21-50-59h289q-12 38-49 59t-94 21q-58 0-96-21zm131 206q-35 7-41 8-64 15-103 15-57 0-112-27v118q58 28 114 28 24 0 46-4t57-12q6-1 29-6.5t43.5-8T444 686q58 0 113 25V593q-53-23-115-23-35 0-70 7z"/><glyph glyph-name="uni0259" unicode="ə" horiz-adv-x="671" d="M493 482.5Q561 452 597 395t36-134v-19q0-78-36.5-135.5t-104-88T333-12q-140 0-217.5 66T38 241v52h446q-7 46-46.5 71.5T333 390q-60 0-98-16t-44-44H39q11 88 87.5 135.5T333 513q92 0 160-30.5zM430 130q38 21 50 59H191q11-38 48-59t95-21 96 21z"/><glyph glyph-name="uni01F5" unicode="ǵ" horiz-adv-x="709" d="M636 501V56q0-240-297-238-141 0-220 51T40 11v6h148v-6q0-29 42-48t106-19q76 0 115.5 27.5T491 51v26q-70-47-165-47-139 0-214 60T37 262v10q0 114 76 177.5T326 513q102 0 172-51l3 39h135zM429 169q40 15 62 41v117q-22 26-62.5 42T341 385q-154 0-154-113v-10q0-55 37.5-81.5T341 154q48 0 88 15zm138 570V620l-441-67v119z"/><glyph glyph-name="gbreve" unicode="ğ" horiz-adv-x="709" d="M636 501V56q0-240-297-238-141 0-220 51T40 11v6h148v-6q0-29 42-48t106-19q76 0 115.5 27.5T491 51v26q-70-47-165-47-139 0-214 60T37 262v10q0 114 76 177.5T326 513q102 0 172-51l3 39h135zM429 169q40 15 62 41v117q-22 26-62.5 42T341 385q-154 0-154-113v-10q0-55 37.5-81.5T341 154q48 0 88 15zM126 609v119q121-50 223-50t218 50V609q-115-50-218-50-105 0-223 50z"/><glyph glyph-name="gcaron" unicode="ǧ" horiz-adv-x="709" d="M636 501V56q0-240-297-238-141 0-220 51T40 11v6h148v-6q0-29 42-48t106-19q76 0 115.5 27.5T491 51v26q-70-47-165-47-139 0-214 60T37 262v10q0 114 76 177.5T326 513q102 0 172-51l3 39h135zM429 169q40 15 62 41v117q-22 26-62.5 42T341 385q-154 0-154-113v-10q0-55 37.5-81.5T341 154q48 0 88 15zM126 739l220-64 221 64V616l-221-63-220 63v123z"/><glyph glyph-name="gcircumflex" unicode="ĝ" horiz-adv-x="709" d="M636 501V56q0-240-297-238-141 0-220 51T40 11v6h148v-6q0-29 42-48t106-19q76 0 115.5 27.5T491 51v26q-70-47-165-47-139 0-214 60T37 262v10q0 114 76 177.5T326 513q102 0 172-51l3 39h135zM429 169q40 15 62 41v117q-22 26-62.5 42T341 385q-154 0-154-113v-10q0-55 37.5-81.5T341 154q48 0 88 15zm-83 570l221-64V553l-221 63-220-63v122z"/><glyph glyph-name="uni0123" unicode="ģ" horiz-adv-x="709" d="M636 501V56q0-240-297-238-141 0-220 51T40 11v6h148v-6q0-29 42-48t106-19q76 0 115.5 27.5T491 51v26q-70-47-165-47-139 0-214 60T37 262v10q0 114 76 177.5T326 513q102 0 172-51l3 39h135zM429 169q40 15 62 41v117q-22 26-62.5 42T341 385q-154 0-154-113v-10q0-55 37.5-81.5T341 154q48 0 88 15zm30 566l-50-180H253l56 180h150z"/><glyph glyph-name="gdotaccent" unicode="ġ" horiz-adv-x="709" d="M636 501V56q0-240-297-238-141 0-220 51T40 11v6h148v-6q0-29 42-48t106-19q76 0 115.5 27.5T491 51v26q-70-47-165-47-139 0-214 60T37 262v10q0 114 76 177.5T326 513q102 0 172-51l3 39h135zM429 169q40 15 62 41v117q-22 26-62.5 42T341 385q-154 0-154-113v-10q0-55 37.5-81.5T341 154q48 0 88 15zM281 582.5Q256 606 256 644t25 61.5 65 23.5q41 0 65.5-23.5T436 644t-25-61.5-65-23.5-65 23.5z"/><glyph glyph-name="hbar" unicode="ħ" horiz-adv-x="737" d="M604 413.5Q671 346 671 215V0H526v215q0 65-35.5 99.5T387 349q-47 0-85-22t-58-59V0H99v533H-15v116H99v47h145v-47h210V533H244V426q67 55 163 55 130 0 197-67.5z"/><glyph glyph-name="hcircumflex" unicode="ĥ" horiz-adv-x="711" d="M578 445.5Q645 378 645 247V0H500v247q0 65-35.5 99.5T361 381q-47 0-85-22t-58-59V0H73v696h145V458q67 55 163 55 130 0 197-67.5zM145 904l221-64V718l-221 63-220-63v122z"/><glyph glyph-name="dotlessi" unicode="ı" horiz-adv-x="286" d="M215 501V0H71v501h144z"/><glyph glyph-name="iacute" unicode="í" horiz-adv-x="286" d="M215 501V0H71v501h144zm75 228V610L-4 564v118z"/><glyph glyph-name="ibreve" unicode="ĭ" horiz-adv-x="286" d="M215 501V0H71v501h144zM-4 609v119q67-48 148-48 84 0 147 48V609q-62-49-147-49-83 0-148 49z"/><glyph glyph-name="icircumflex" unicode="î" horiz-adv-x="286" d="M215 501V0H71v501h144zm-72 229l147-35V571l-147 36-147-36v124z"/><glyph glyph-name="idieresis" unicode="ï" horiz-adv-x="286" d="M215 501V0H71v501h144zm-249 85.5Q-58 609-58 644t24 57.5T28 724q37 0 60.5-22.5T112 644t-23.5-57.5T28 564q-38 0-62 22.5zm231.5 0Q174 609 174 644t23.5 57.5T258 724q38 0 61.5-22.5T343 644t-24-57.5-61-22.5-60.5 22.5z"/><glyph glyph-name="i.loclTRK" horiz-adv-x="286" d="M215 501V0H71v501h144zM78 582.5Q53 606 53 644t25 61.5 65 23.5q41 0 65.5-23.5T233 644t-25-61.5-65-23.5-65 23.5z"/><glyph glyph-name="uni1ECB" unicode="ị" horiz-adv-x="286" d="M215 501V0H71v501h144zM78 582.5Q53 606 53 644t25 61.5 65 23.5q41 0 65.5-23.5T233 644t-25-61.5-65-23.5-65 23.5zm0-787Q53-181 53-144q0 38 25 62t65 24 65-24 25-62-25-61-65-23-65 23.5z"/><glyph glyph-name="igrave" unicode="ì" horiz-adv-x="286" d="M215 501V0H71v501h144zM-4 730l294-47V564L-4 610v120z"/><glyph glyph-name="ij" unicode="ĳ" horiz-adv-x="572" d="M215 501V0H71v501h144zM78 582.5Q53 606 53 644t25 61.5 65 23.5q41 0 65.5-23.5T233 644t-25-61.5-65-23.5-65 23.5zM294-43q31 0 47 15t16 44v485h144V7q0-80-52.5-128.5T309-170h-91v127h76zm70 625.5Q339 606 339 644t25 61.5 65 23.5q41 0 65.5-23.5T519 644t-25-61.5-65-23.5-65 23.5z"/><glyph glyph-name="imacron" unicode="ī" horiz-adv-x="286" d="M215 501V0H71v501h144zm75 203V584H-4v120h294z"/><glyph glyph-name="iogonek" unicode="į" horiz-adv-x="286" d="M215 501V0H71v501h144zM78 582.5Q53 606 53 644t25 61.5 65 23.5q41 0 65.5-23.5T233 644t-25-61.5-65-23.5-65 23.5zm-77-731Q-30-127-30-90q0 30 18 52t64 52l118 75 45-89-77-42q-12-8-12-15 0-10 17-10h72v-103H85q-53 0-84 21.5z"/><glyph glyph-name="itilde" unicode="ĩ" horiz-adv-x="286" d="M215 501V0H71v501h144zm-49.5 76q-22.5 7-26.5 8-41 15-65 15-41 0-78-24v118q39 25 80 25 15 0 28.5-4t36.5-12q27-9 41-13t30-4q40 0 78 22V590q-36-20-80-20-22 0-44.5 7z"/><glyph glyph-name="uni0237" unicode="ȷ" horiz-adv-x="286" d="M8-43q31 0 47 15t16 44v485h144V7q0-80-52.5-128.5T23-170h-91v127H8z"/><glyph glyph-name="jcircumflex" unicode="ĵ" horiz-adv-x="286" d="M8-43q31 0 47 15t16 44v485h144V7q0-80-52.5-128.5T23-170h-91v127H8zm135 773l147-35V571l-147 36-147-36v124z"/><glyph glyph-name="uni0137" unicode="ķ" horiz-adv-x="681" d="M669 20V0H498L328 196 218 99V0H73v696h145V272l264 229h176v-21L437 285zM411-58l-64-180H198l56 180h157z"/><glyph glyph-name="lacute" unicode="ĺ" horiz-adv-x="319" d="M115 38.5Q71 77 71 146v550h144V172q0-23 12-34t39-11h43V0h-70q-80 0-124 38.5zM291 894V775L-3 729v118z"/><glyph glyph-name="lcaron" unicode="ľ" horiz-adv-x="509" d="M115 38.5Q71 77 71 146v550h144V172q0-23 12-34t39-11h43V0h-70q-80 0-124 38.5zM496 696l-61-187H299l25 187h172z"/><glyph glyph-name="uni013C" unicode="ļ" horiz-adv-x="319" d="M115 38.5Q71 77 71 146v550h144V172q0-23 12-34t39-11h43V0h-70q-80 0-124 38.5zM313-58l-64-180H100l56 180h157z"/><glyph glyph-name="ldot" unicode="ŀ" horiz-adv-x="407" d="M115 38.5Q71 77 71 146v550h144V172q0-23 12-34t39-11h43V0h-70q-80 0-124 38.5zm173 231Q265 293 265 331t23 61 59 23q37 0 59-23t22-61-22.5-61.5T347 246t-59 23.5z"/><glyph glyph-name="lslash" unicode="ł" horiz-adv-x="398" d="M248 328V172q0-23 12-34t39-11h43V0h-70q-80 0-124 38.5T104 146v158L-3 282v127l107 22v265h144V455l133 28V356z"/><glyph glyph-name="nacute" unicode="ń" horiz-adv-x="711" d="M578 446q67-67 67-199V0H500v247q0 65-35.5 99.5T361 381q-47 0-85-21.5T218 301V0H73v501h135l4-48q66 58 169 60 130 0 197-67zm4 293V620l-441-67v119z"/><glyph glyph-name="ncaron" unicode="ň" horiz-adv-x="711" d="M578 446q67-67 67-199V0H500v247q0 65-35.5 99.5T361 381q-47 0-85-21.5T218 301V0H73v501h135l4-48q66 58 169 60 130 0 197-67zM141 739l220-64 221 64V616l-221-63-220 63v123z"/><glyph glyph-name="uni0146" unicode="ņ" horiz-adv-x="711" d="M578 446q67-67 67-199V0H500v247q0 65-35.5 99.5T361 381q-47 0-85-21.5T218 301V0H73v501h135l4-48q66 58 169 60 130 0 197-67zM435-58l-64-180H222l56 180h157z"/><glyph glyph-name="eng" unicode="ŋ" horiz-adv-x="711" d="M578 446q67-67 67-199V74q0-121-63.5-182.5T393-170h-50v127h43q58 0 86 29.5T500 76v171q0 65-35.5 99.5T361 381q-47 0-85-21.5T218 301V0H73v501h135l4-48q66 58 169 60 130 0 197-67z"/><glyph glyph-name="ntilde" unicode="ñ" horiz-adv-x="711" d="M578 446q67-67 67-199V0H500v247q0 65-35.5 99.5T361 381q-47 0-85-21.5T218 301V0H73v501h135l4-48q66 58 169 60 130 0 197-67zM397 577q-35 7-41 8-64 15-103 15-57 0-112-27v118q58 28 114 28 24 0 46-4t57-12q6-1 29-6.5t43.5-8T469 686q58 0 113 25V593q-53-23-115-23-35 0-70 7z"/><glyph glyph-name="oacute" unicode="ó" horiz-adv-x="685" d="M181 18.5q-69 30.5-106 88T38 242v13q0 80 36.5 138T180 482t164 31q94 0 162-31t104.5-89T647 255v-13q0-78-36.5-135.5T506 18.5 344-12 181 18.5zM456.5 152q40.5 32 40.5 91v11q0 61-40 94t-114 33q-75 0-115-32.5T188 254v-11q0-59 40.5-91T343 120q73 0 113.5 32zM564 739V620l-441-67v119z"/><glyph glyph-name="obreve" unicode="ŏ" horiz-adv-x="685" d="M181 18.5q-69 30.5-106 88T38 242v13q0 80 36.5 138T180 482t164 31q94 0 162-31t104.5-89T647 255v-13q0-78-36.5-135.5T506 18.5 344-12 181 18.5zM456.5 152q40.5 32 40.5 91v11q0 61-40 94t-114 33q-75 0-115-32.5T188 254v-11q0-59 40.5-91T343 120q73 0 113.5 32zM123 609v119q121-50 223-50t218 50V609q-115-50-218-50-105 0-223 50z"/><glyph glyph-name="uni01D2" unicode="ǒ" horiz-adv-x="685" d="M181 18.5q-69 30.5-106 88T38 242v13q0 80 36.5 138T180 482t164 31q94 0 162-31t104.5-89T647 255v-13q0-78-36.5-135.5T506 18.5 344-12 181 18.5zM456.5 152q40.5 32 40.5 91v11q0 61-40 94t-114 33q-75 0-115-32.5T188 254v-11q0-59 40.5-91T343 120q73 0 113.5 32zM123 739l220-64 221 64V616l-221-63-220 63v123z"/><glyph glyph-name="ocircumflex" unicode="ô" horiz-adv-x="685" d="M181 18.5q-69 30.5-106 88T38 242v13q0 80 36.5 138T180 482t164 31q94 0 162-31t104.5-89T647 255v-13q0-78-36.5-135.5T506 18.5 344-12 181 18.5zM456.5 152q40.5 32 40.5 91v11q0 61-40 94t-114 33q-75 0-115-32.5T188 254v-11q0-59 40.5-91T343 120q73 0 113.5 32zM343 739l221-64V553l-221 63-220-63v122z"/><glyph glyph-name="odieresis" unicode="ö" horiz-adv-x="685" d="M181 18.5q-69 30.5-106 88T38 242v13q0 80 36.5 138T180 482t164 31q94 0 162-31t104.5-89T647 255v-13q0-78-36.5-135.5T506 18.5 344-12 181 18.5zM456.5 152q40.5 32 40.5 91v11q0 61-40 94t-114 33q-75 0-115-32.5T188 254v-11q0-59 40.5-91T343 120q73 0 113.5 32zM152 585.5Q128 608 128 643q0 36 24 58t62 22q36 0 59.5-22t23.5-58q0-35-23.5-57.5T214 563q-38 0-62 22.5zm260 0Q388 608 388 643q0 36 23.5 58t61.5 22 61-22 23-58q0-35-23.5-57.5T473 563t-61 22.5z"/><glyph glyph-name="uni1ECD" unicode="ọ" horiz-adv-x="685" d="M181 18.5q-69 30.5-106 88T38 242v13q0 80 36.5 138T180 482t164 31q94 0 162-31t104.5-89T647 255v-13q0-78-36.5-135.5T506 18.5 344-12 181 18.5zM456.5 152q40.5 32 40.5 91v11q0 61-40 94t-114 33q-75 0-115-32.5T188 254v-11q0-59 40.5-91T343 120q73 0 113.5 32zM278-204.5Q253-181 253-144q0 38 25 62t65 24 65-24 25-62-25-61-65-23-65 23.5z"/><glyph glyph-name="ograve" unicode="ò" horiz-adv-x="685" d="M181 18.5q-69 30.5-106 88T38 242v13q0 80 36.5 138T180 482t164 31q94 0 162-31t104.5-89T647 255v-13q0-78-36.5-135.5T506 18.5 344-12 181 18.5zM456.5 152q40.5 32 40.5 91v11q0 61-40 94t-114 33q-75 0-115-32.5T188 254v-11q0-59 40.5-91T343 120q73 0 113.5 32zM123 740l441-67V553l-441 68v119z"/><glyph glyph-name="ohungarumlaut" unicode="ő" horiz-adv-x="685" d="M181 18.5q-69 30.5-106 88T38 242v13q0 80 36.5 138T180 482t164 31q94 0 162-31t104.5-89T647 255v-13q0-78-36.5-135.5T506 18.5 344-12 181 18.5zM456.5 152q40.5 32 40.5 91v11q0 61-40 94t-114 33q-75 0-115-32.5T188 254v-11q0-59 40.5-91T343 120q73 0 113.5 32zM368 739V617L97 553v121zm301 0V617l-270-64v121z"/><glyph glyph-name="omacron" unicode="ō" horiz-adv-x="685" d="M181 18.5q-69 30.5-106 88T38 242v13q0 80 36.5 138T180 482t164 31q94 0 162-31t104.5-89T647 255v-13q0-78-36.5-135.5T506 18.5 344-12 181 18.5zM456.5 152q40.5 32 40.5 91v11q0 61-40 94t-114 33q-75 0-115-32.5T188 254v-11q0-59 40.5-91T343 120q73 0 113.5 32zM564 704V584H123v120h441z"/><glyph glyph-name="oslash" unicode="ø" horiz-adv-x="685" d="M623 370q24-51 24-115v-13q0-78-36.5-135.5T506 18.5 344-12q-39 0-86 7l-33-51H81v18l52 84q-46 33-70.5 83T38 242v13q0 80 36.5 138T180 482t164 31q40 0 85-7l31 49h145v-18l-52-83q46-33 70-84zM178 240q0-53 29-85l153 237h-17q-80 0-122.5-34.5T178 256v-16zm329 16q0 54-29 88L325 108h18q79 0 121.5 34t42.5 98v16z"/><glyph glyph-name="oslashacute" unicode="ǿ" horiz-adv-x="685" d="M623 370q24-51 24-115v-13q0-78-36.5-135.5T506 18.5 344-12q-39 0-86 7l-33-51H81v18l52 84q-46 33-70.5 83T38 242v13q0 80 36.5 138T180 482t164 31q40 0 85-7l31 49h145v-18l-52-83q46-33 70-84zM178 240q0-53 29-85l153 237h-17q-80 0-122.5-34.5T178 256v-16zm329 16q0 54-29 88L325 108h18q79 0 121.5 34t42.5 98v16zm57 483V620l-441-67v119z"/><glyph glyph-name="otilde" unicode="õ" horiz-adv-x="685" d="M181 18.5q-69 30.5-106 88T38 242v13q0 80 36.5 138T180 482t164 31q94 0 162-31t104.5-89T647 255v-13q0-78-36.5-135.5T506 18.5 344-12 181 18.5zM456.5 152q40.5 32 40.5 91v11q0 61-40 94t-114 33q-75 0-115-32.5T188 254v-11q0-59 40.5-91T343 120q73 0 113.5 32zM379 577q-35 7-41 8-64 15-103 15-57 0-112-27v118q58 28 114 28 24 0 46-4t57-12q6-1 29-6.5t43.5-8T451 686q58 0 113 25V593q-53-23-115-23-35 0-70 7z"/><glyph glyph-name="oe" unicode="œ" horiz-adv-x="1114" d="M1076 208H638q6-47 44-72.5T786 110q57 0 94 16.5t43 44.5h152q-10-86-85.5-134.5T791-12q-75 0-134 23t-96 66q-36-43-93.5-66T336-12q-90 0-157.5 31t-104 88.5T38 242v13q0 79 36.5 137T178 481.5 336 513q74 0 131.5-23.5T561 422q38 44 96 67.5T789 513q135 0 211-67.5t76-187.5v-50zM688.5 371.5Q653 351 642 312h281q-11 38-48 59t-94 21-92.5-20.5zM488 253q0 61-39 94.5T338 381t-111-33.5-39-94.5v-9q0-59 39.5-91.5T338 120t110.5 32.5T488 244v9z"/><glyph glyph-name="thorn" unicode="þ" horiz-adv-x="710" d="M537.5 481q64.5-32 99.5-90t35-135v-10q0-77-35.5-135T536 20.5 384-12q-102 0-166 49v-207H73v866h145V463q67 50 169 50 86 0 150.5-32zM522 256q0 59-41 92t-114 33q-48 0-87.5-14.5T218 326V176q23-26 62.5-41t86.5-15q73 0 114 33t41 93v10z"/><glyph glyph-name="racute" unicode="ŕ" horiz-adv-x="473" d="M459 501V373H347q-94 0-132-47V0H71v501h135l4-46q63 46 156 46h93zm21 238V620L39 553v119z"/><glyph glyph-name="rcaron" unicode="ř" horiz-adv-x="473" d="M459 501V373H347q-94 0-132-47V0H71v501h135l4-46q63 46 156 46h93zM39 739l220-64 221 64V616l-221-63-220 63v123z"/><glyph glyph-name="uni0157" unicode="ŗ" horiz-adv-x="473" d="M459 501V373H347q-94 0-132-47V0H71v501h135l4-46q63 46 156 46h93zM224-58l-64-180H11L67-58h157z"/><glyph glyph-name="sacute" unicode="ś" horiz-adv-x="688" d="M129.5 32.5Q51 77 51 159v5h139v-5q0-28 38-40.5T351 106q140 0 140 40v5q0 15-18 23t-65 12l-129 13q-111 11-162 46t-51 99v10q0 75 74.5 117T348 513q138 0 212-44t74-127v-6H495v6q0 28-35.5 40.5T344 395q-65 0-100-9t-35-26v-6q0-15 16.5-23t54.5-12l131-13q118-12 171.5-47T636 158v-10q0-76-76-118T349-12q-141 0-219.5 44.5zM573 739V620l-441-67v119z"/><glyph glyph-name="scaron" unicode="š" horiz-adv-x="688" d="M129.5 32.5Q51 77 51 159v5h139v-5q0-28 38-40.5T351 106q140 0 140 40v5q0 15-18 23t-65 12l-129 13q-111 11-162 46t-51 99v10q0 75 74.5 117T348 513q138 0 212-44t74-127v-6H495v6q0 28-35.5 40.5T344 395q-65 0-100-9t-35-26v-6q0-15 16.5-23t54.5-12l131-13q118-12 171.5-47T636 158v-10q0-76-76-118T349-12q-141 0-219.5 44.5zM132 739l220-64 221 64V616l-221-63-220 63v123z"/><glyph glyph-name="scedilla" unicode="ş" horiz-adv-x="688" d="M129.5 32.5Q51 77 51 159v5h139v-5q0-28 38-40.5T351 106q140 0 140 40v5q0 15-18 23t-65 12l-129 13q-111 11-162 46t-51 99v10q0 75 74.5 117T348 513q138 0 212-44t74-127v-6H495v6q0 28-35.5 40.5T344 395q-65 0-100-9t-35-26v-6q0-15 16.5-23t54.5-12l131-13q118-12 171.5-47T636 158v-10q0-76-76-118T349-12q-141 0-219.5 44.5zM426 0l-48-170H221l63 220z"/><glyph glyph-name="scircumflex" unicode="ŝ" horiz-adv-x="688" d="M129.5 32.5Q51 77 51 159v5h139v-5q0-28 38-40.5T351 106q140 0 140 40v5q0 15-18 23t-65 12l-129 13q-111 11-162 46t-51 99v10q0 75 74.5 117T348 513q138 0 212-44t74-127v-6H495v6q0 28-35.5 40.5T344 395q-65 0-100-9t-35-26v-6q0-15 16.5-23t54.5-12l131-13q118-12 171.5-47T636 158v-10q0-76-76-118T349-12q-141 0-219.5 44.5zM352 739l221-64V553l-221 63-220-63v122z"/><glyph glyph-name="uni0219" unicode="ș" horiz-adv-x="688" d="M129.5 32.5Q51 77 51 159v5h139v-5q0-28 38-40.5T351 106q140 0 140 40v5q0 15-18 23t-65 12l-129 13q-111 11-162 46t-51 99v10q0 75 74.5 117T348 513q138 0 212-44t74-127v-6H495v6q0 28-35.5 40.5T344 395q-65 0-100-9t-35-26v-6q0-15 16.5-23t54.5-12l131-13q118-12 171.5-47T636 158v-10q0-76-76-118T349-12q-141 0-219.5 44.5zM426-58l-64-180H213l56 180h157z"/><glyph glyph-name="uni1E63" unicode="ṣ" horiz-adv-x="688" d="M129.5 32.5Q51 77 51 159v5h139v-5q0-28 38-40.5T351 106q140 0 140 40v5q0 15-18 23t-65 12l-129 13q-111 11-162 46t-51 99v10q0 75 74.5 117T348 513q138 0 212-44t74-127v-6H495v6q0 28-35.5 40.5T344 395q-65 0-100-9t-35-26v-6q0-15 16.5-23t54.5-12l131-13q118-12 171.5-47T636 158v-10q0-76-76-118T349-12q-141 0-219.5 44.5zm157.5-237Q262-181 262-144q0 38 25 62t65 24 65-24 25-62-25-61-65-23-65 23.5z"/><glyph glyph-name="germandbls" unicode="ß" horiz-adv-x="723" d="M661 287.5q24-38.5 24-90.5v-9q0-54-27.5-97T579 24 460 0H341v127h95q50 0 76.5 19t26.5 55v6q0 67-107 67h-89v122h64q47 0 73.5 21t26.5 59v11q0 43-36 66t-101 23q-151 0-151-109V0H73l1 469q0 73 36 127t103 83 159 29q85 0 148-26t97.5-74T652 496v-18q0-81-61-129 46-23 70-61.5z"/><glyph glyph-name="tbar" unicode="ŧ" horiz-adv-x="558" d="M327 379v-60h210V198H327v-18q0-25 14-39t39-14h124V0H368q-87 0-136.5 46.5T182 173v25H14v121h168v60H14v122h134q21 0 29 8t8 29v96h142V501h210V379H327z"/><glyph glyph-name="tcaron" unicode="ť" horiz-adv-x="570" d="M304 373V183q0-27 15.5-41.5T364 127h118V0H345q-86 0-136 46.5T159 173v200H-8v128h134q21 0 29 8t8 29v96h141V501h208V373H304zm281 367l-61-187H388l25 187h172z"/><glyph glyph-name="uni0163" unicode="ţ" horiz-adv-x="520" d="M304 373V183q0-27 15.5-41.5T364 127h118V0H345q-86 0-136 46.5T159 173v200H-8v128h134q21 0 29 8t8 29v96h141V501h208V373H304zM434 0l-48-170H229l63 220z"/><glyph glyph-name="uni021B" unicode="ț" horiz-adv-x="520" d="M304 373V183q0-27 15.5-41.5T364 127h118V0H345q-86 0-136 46.5T159 173v200H-8v128h134q21 0 29 8t8 29v96h141V501h208V373H304zM433-58l-64-180H220l56 180h157z"/><glyph glyph-name="uacute" unicode="ú" horiz-adv-x="711" d="M638 501V0H503l-4 48q-66-58-169-60-129-1-196.5 66.5T66 254v247h145V254q0-65 35.5-99.5T350 120q47 0 85 21.5t58 58.5v301h145zm-65 238V620l-441-67v119z"/><glyph glyph-name="ubreve" unicode="ŭ" horiz-adv-x="711" d="M638 501V0H503l-4 48q-66-58-169-60-129-1-196.5 66.5T66 254v247h145V254q0-65 35.5-99.5T350 120q47 0 85 21.5t58 58.5v301h145zM132 609v119q121-50 223-50t218 50V609q-115-50-218-50-105 0-223 50z"/><glyph glyph-name="ucircumflex" unicode="û" horiz-adv-x="711" d="M638 501V0H503l-4 48q-66-58-169-60-129-1-196.5 66.5T66 254v247h145V254q0-65 35.5-99.5T350 120q47 0 85 21.5t58 58.5v301h145zM352 739l221-64V553l-221 63-220-63v122z"/><glyph glyph-name="udieresis" unicode="ü" horiz-adv-x="711" d="M638 501V0H503l-4 48q-66-58-169-60-129-1-196.5 66.5T66 254v247h145V254q0-65 35.5-99.5T350 120q47 0 85 21.5t58 58.5v301h145zm-477 84.5Q137 608 137 643q0 36 24 58t62 22q36 0 59.5-22t23.5-58q0-35-23.5-57.5T223 563q-38 0-62 22.5zm260 0Q397 608 397 643q0 36 23.5 58t61.5 22 61-22 23-58q0-35-23.5-57.5T482 563t-61 22.5z"/><glyph glyph-name="uni1EE5" unicode="ụ" horiz-adv-x="711" d="M638 501V0H503l-4 48q-66-58-169-60-129-1-196.5 66.5T66 254v247h145V254q0-65 35.5-99.5T350 120q47 0 85 21.5t58 58.5v301h145zM290-204.5Q265-181 265-144q0 38 25 62t65 24 65-24 25-62-25-61-65-23-65 23.5z"/><glyph glyph-name="ugrave" unicode="ù" horiz-adv-x="711" d="M638 501V0H503l-4 48q-66-58-169-60-129-1-196.5 66.5T66 254v247h145V254q0-65 35.5-99.5T350 120q47 0 85 21.5t58 58.5v301h145zM132 740l441-67V553l-441 68v119z"/><glyph glyph-name="uhungarumlaut" unicode="ű" horiz-adv-x="711" d="M638 501V0H503l-4 48q-66-58-169-60-129-1-196.5 66.5T66 254v247h145V254q0-65 35.5-99.5T350 120q47 0 85 21.5t58 58.5v301h145zM377 739V617l-271-64v121zm301 0V617l-270-64v121z"/><glyph glyph-name="umacron" unicode="ū" horiz-adv-x="711" d="M638 501V0H503l-4 48q-66-58-169-60-129-1-196.5 66.5T66 254v247h145V254q0-65 35.5-99.5T350 120q47 0 85 21.5t58 58.5v301h145zm-65 203V584H132v120h441z"/><glyph glyph-name="uogonek" unicode="ų" horiz-adv-x="711" d="M638 501V0H503l-4 48q-66-58-169-60-129-1-196.5 66.5T66 254v247h145V254q0-65 35.5-99.5T350 120q47 0 85 21.5t58 58.5v301h145zM424-148.5Q393-127 393-90q0 30 18 52t64 52l118 75 45-89-77-42q-12-8-12-15 0-10 17-10h72v-103H508q-53 0-84 21.5z"/><glyph glyph-name="uring" unicode="ů" horiz-adv-x="711" d="M638 501V0H503l-4 48q-66-58-169-60-129-1-196.5 66.5T66 254v247h145V254q0-65 35.5-99.5T350 120q47 0 85 21.5t58 58.5v301h145zm-413 76q-45 35-45 100 0 64 46.5 100T352 813t125.5-36T524 677q0-65-45-100t-127-35-127 35zm171 64.5q15 12.5 15 35.5 0 24-15.5 36.5T352 726t-43.5-13-15.5-36 15.5-35.5T352 629q29 0 44 12.5z"/><glyph glyph-name="utilde" unicode="ũ" horiz-adv-x="711" d="M638 501V0H503l-4 48q-66-58-169-60-129-1-196.5 66.5T66 254v247h145V254q0-65 35.5-99.5T350 120q47 0 85 21.5t58 58.5v301h145zm-250 76q-35 7-41 8-64 15-103 15-57 0-112-27v118q58 28 114 28 24 0 46-4t57-12q6-1 29-6.5t43.5-8T460 686q58 0 113 25V593q-53-23-115-23-35 0-70 7z"/><glyph glyph-name="wacute" unicode="ẃ" horiz-adv-x="1067" d="M1048 501v-21L853 0H663L533 318 404 0H215L19 480v21h155l136-364 148 364h149l151-370 142 370h148zM755 739V620l-441-67v119z"/><glyph glyph-name="wcircumflex" unicode="ŵ" horiz-adv-x="1067" d="M1048 501v-21L853 0H663L533 318 404 0H215L19 480v21h155l136-364 148 364h149l151-370 142 370h148zM534 739l221-64V553l-221 63-220-63v122z"/><glyph glyph-name="wdieresis" unicode="ẅ" horiz-adv-x="1067" d="M1048 501v-21L853 0H663L533 318 404 0H215L19 480v21h155l136-364 148 364h149l151-370 142 370h148zm-705 84.5Q319 608 319 643q0 36 24 58t62 22q36 0 59.5-22t23.5-58q0-35-23.5-57.5T405 563q-38 0-62 22.5zm260 0Q579 608 579 643q0 36 23.5 58t61.5 22 61-22 23-58q0-35-23.5-57.5T664 563t-61 22.5z"/><glyph glyph-name="wgrave" unicode="ẁ" horiz-adv-x="1067" d="M1048 501v-21L853 0H663L533 318 404 0H215L19 480v21h155l136-364 148 364h149l151-370 142 370h148zM314 740l441-67V553l-441 68v119z"/><glyph glyph-name="yacute" unicode="ý" horiz-adv-x="697" d="M678 501v-21L413-50q-32-63-79-91.5T208-170H77v127h124q27 0 42.5 6.5T270-12L19 480v21h154l177-361 174 361h154zM570 739V620l-441-67v119z"/><glyph glyph-name="ycircumflex" unicode="ŷ" horiz-adv-x="697" d="M678 501v-21L413-50q-32-63-79-91.5T208-170H77v127h124q27 0 42.5 6.5T270-12L19 480v21h154l177-361 174 361h154zM349 739l221-64V553l-221 63-220-63v122z"/><glyph glyph-name="ydieresis" unicode="ÿ" horiz-adv-x="697" d="M678 501v-21L413-50q-32-63-79-91.5T208-170H77v127h124q27 0 42.5 6.5T270-12L19 480v21h154l177-361 174 361h154zm-520 84.5Q134 608 134 643q0 36 24 58t62 22q36 0 59.5-22t23.5-58q0-35-23.5-57.5T220 563q-38 0-62 22.5zm260 0Q394 608 394 643q0 36 23.5 58t61.5 22 61-22 23-58q0-35-23.5-57.5T479 563t-61 22.5z"/><glyph glyph-name="ygrave" unicode="ỳ" horiz-adv-x="697" d="M678 501v-21L413-50q-32-63-79-91.5T208-170H77v127h124q27 0 42.5 6.5T270-12L19 480v21h154l177-361 174 361h154zM129 740l441-67V553l-441 68v119z"/><glyph glyph-name="uni0233" unicode="ȳ" horiz-adv-x="697" d="M678 501v-21L413-50q-32-63-79-91.5T208-170H77v127h124q27 0 42.5 6.5T270-12L19 480v21h154l177-361 174 361h154zM570 704V584H129v120h441z"/><glyph glyph-name="uni1EF9" unicode="ỹ" horiz-adv-x="697" d="M678 501v-21L413-50q-32-63-79-91.5T208-170H77v127h124q27 0 42.5 6.5T270-12L19 480v21h154l177-361 174 361h154zm-293 76q-35 7-41 8-64 15-103 15-57 0-112-27v118q58 28 114 28 24 0 46-4t57-12q6-1 29-6.5t43.5-8T457 686q58 0 113 25V593q-53-23-115-23-35 0-70 7z"/><glyph glyph-name="zacute" unicode="ź" horiz-adv-x="642" d="M582 378L256 123h326V0H60v123l325 254H60v124h522V378zm-36 361V620l-441-67v119z"/><glyph glyph-name="zcaron" unicode="ž" horiz-adv-x="642" d="M582 378L256 123h326V0H60v123l325 254H60v124h522V378zM105 739l220-64 221 64V616l-221-63-220 63v123z"/><glyph glyph-name="zdotaccent" unicode="ż" horiz-adv-x="642" d="M582 378L256 123h326V0H60v123l325 254H60v124h522V378zM260 582.5Q235 606 235 644t25 61.5 65 23.5q41 0 65.5-23.5T415 644t-25-61.5-65-23.5-65 23.5z"/><glyph glyph-name="iacute_j.loclNLD" horiz-adv-x="572" d="M215 501V0H71v501h144zm75 228V610L-4 564v118zm4-772q31 0 47 15t16 44v485h144V7q0-80-52.5-128.5T309-170h-91v127h76zm282 772V610l-294-46v118z"/><glyph glyph-name="a.ss05" horiz-adv-x="693" d="M551.5 454.5Q627 396 627 290V0H492l-5 47q-73-59-205-59-109 0-168.5 39.5T54 140q0 124 172 143l254 28q-8 35-44.5 54T337 384q-61 0-96-17.5T206 318v-3H58v3q0 59 35 103t98.5 68T340 513q136 0 211.5-58.5zM407.5 124q51.5 20 74.5 55v31l-218-24q-30-3-47.5-14T199 144q0-40 90-40 67 0 118.5 20z"/><glyph glyph-name="aacute.ss05" horiz-adv-x="693" d="M551.5 454.5Q627 396 627 290V0H492l-5 47q-73-59-205-59-109 0-168.5 39.5T54 140q0 124 172 143l254 28q-8 35-44.5 54T337 384q-61 0-96-17.5T206 318v-3H58v3q0 59 35 103t98.5 68T340 513q136 0 211.5-58.5zM407.5 124q51.5 20 74.5 55v31l-218-24q-30-3-47.5-14T199 144q0-40 90-40 67 0 118.5 20zM567 739V620l-441-67v119z"/><glyph glyph-name="abreve.ss05" horiz-adv-x="693" d="M551.5 454.5Q627 396 627 290V0H492l-5 47q-73-59-205-59-109 0-168.5 39.5T54 140q0 124 172 143l254 28q-8 35-44.5 54T337 384q-61 0-96-17.5T206 318v-3H58v3q0 59 35 103t98.5 68T340 513q136 0 211.5-58.5zM407.5 124q51.5 20 74.5 55v31l-218-24q-30-3-47.5-14T199 144q0-40 90-40 67 0 118.5 20zM126 609v119q121-50 223-50t218 50V609q-115-50-218-50-105 0-223 50z"/><glyph glyph-name="uni01CE.ss05" horiz-adv-x="693" d="M551.5 454.5Q627 396 627 290V0H492l-5 47q-73-59-205-59-109 0-168.5 39.5T54 140q0 124 172 143l254 28q-8 35-44.5 54T337 384q-61 0-96-17.5T206 318v-3H58v3q0 59 35 103t98.5 68T340 513q136 0 211.5-58.5zM407.5 124q51.5 20 74.5 55v31l-218-24q-30-3-47.5-14T199 144q0-40 90-40 67 0 118.5 20zM126 739l220-64 221 64V616l-221-63-220 63v123z"/><glyph glyph-name="acircumflex.ss05" horiz-adv-x="693" d="M551.5 454.5Q627 396 627 290V0H492l-5 47q-73-59-205-59-109 0-168.5 39.5T54 140q0 124 172 143l254 28q-8 35-44.5 54T337 384q-61 0-96-17.5T206 318v-3H58v3q0 59 35 103t98.5 68T340 513q136 0 211.5-58.5zM407.5 124q51.5 20 74.5 55v31l-218-24q-30-3-47.5-14T199 144q0-40 90-40 67 0 118.5 20zM346 739l221-64V553l-221 63-220-63v122z"/><glyph glyph-name="adieresis.ss05" horiz-adv-x="693" d="M551.5 454.5Q627 396 627 290V0H492l-5 47q-73-59-205-59-109 0-168.5 39.5T54 140q0 124 172 143l254 28q-8 35-44.5 54T337 384q-61 0-96-17.5T206 318v-3H58v3q0 59 35 103t98.5 68T340 513q136 0 211.5-58.5zM407.5 124q51.5 20 74.5 55v31l-218-24q-30-3-47.5-14T199 144q0-40 90-40 67 0 118.5 20zM155 585.5Q131 608 131 643q0 36 24 58t62 22q36 0 59.5-22t23.5-58q0-35-23.5-57.5T217 563q-38 0-62 22.5zm260 0Q391 608 391 643q0 36 23.5 58t61.5 22 61-22 23-58q0-35-23.5-57.5T476 563t-61 22.5z"/><glyph glyph-name="agrave.ss05" horiz-adv-x="693" d="M551.5 454.5Q627 396 627 290V0H492l-5 47q-73-59-205-59-109 0-168.5 39.5T54 140q0 124 172 143l254 28q-8 35-44.5 54T337 384q-61 0-96-17.5T206 318v-3H58v3q0 59 35 103t98.5 68T340 513q136 0 211.5-58.5zM407.5 124q51.5 20 74.5 55v31l-218-24q-30-3-47.5-14T199 144q0-40 90-40 67 0 118.5 20zM126 740l441-67V553l-441 68v119z"/><glyph glyph-name="amacron.ss05" horiz-adv-x="693" d="M551.5 454.5Q627 396 627 290V0H492l-5 47q-73-59-205-59-109 0-168.5 39.5T54 140q0 124 172 143l254 28q-8 35-44.5 54T337 384q-61 0-96-17.5T206 318v-3H58v3q0 59 35 103t98.5 68T340 513q136 0 211.5-58.5zM407.5 124q51.5 20 74.5 55v31l-218-24q-30-3-47.5-14T199 144q0-40 90-40 67 0 118.5 20zM567 704V584H126v120h441z"/><glyph glyph-name="aogonek.ss05" horiz-adv-x="693" d="M551.5 454.5Q627 396 627 290V0H492l-5 47q-73-59-205-59-109 0-168.5 39.5T54 140q0 124 172 143l254 28q-8 35-44.5 54T337 384q-61 0-96-17.5T206 318v-3H58v3q0 59 35 103t98.5 68T340 513q136 0 211.5-58.5zM407.5 124q51.5 20 74.5 55v31l-218-24q-30-3-47.5-14T199 144q0-40 90-40 67 0 118.5 20zm5.5-272.5Q382-127 382-90q0 30 18 52t64 52l118 75 45-89-77-42q-12-8-12-15 0-10 17-10h72v-103H497q-53 0-84 21.5z"/><glyph glyph-name="aring.ss05" horiz-adv-x="693" d="M551.5 454.5Q627 396 627 290V0H492l-5 47q-73-59-205-59-109 0-168.5 39.5T54 140q0 124 172 143l254 28q-8 35-44.5 54T337 384q-61 0-96-17.5T206 318v-3H58v3q0 59 35 103t98.5 68T340 513q136 0 211.5-58.5zM407.5 124q51.5 20 74.5 55v31l-218-24q-30-3-47.5-14T199 144q0-40 90-40 67 0 118.5 20zM219 577q-45 35-45 100 0 64 46.5 100T346 813t125.5-36T518 677q0-65-45-100t-127-35-127 35zm171 64.5q15 12.5 15 35.5 0 24-15.5 36.5T346 726t-43.5-13-15.5-36 15.5-35.5T346 629q29 0 44 12.5z"/><glyph glyph-name="atilde.ss05" horiz-adv-x="693" d="M551.5 454.5Q627 396 627 290V0H492l-5 47q-73-59-205-59-109 0-168.5 39.5T54 140q0 124 172 143l254 28q-8 35-44.5 54T337 384q-61 0-96-17.5T206 318v-3H58v3q0 59 35 103t98.5 68T340 513q136 0 211.5-58.5zM407.5 124q51.5 20 74.5 55v31l-218-24q-30-3-47.5-14T199 144q0-40 90-40 67 0 118.5 20zM382 577q-35 7-41 8-64 15-103 15-57 0-112-27v118q58 28 114 28 24 0 46-4t57-12q6-1 29-6.5t43.5-8T454 686q58 0 113 25V593q-53-23-115-23-35 0-70 7z"/><glyph glyph-name="l.ss06" horiz-adv-x="286" d="M215 696V0H71v696h144z"/><glyph glyph-name="lacute.ss06" horiz-adv-x="286" d="M215 696V0H71v696h144zm75 228V805L-4 759v118z"/><glyph glyph-name="lcaron.ss06" horiz-adv-x="496" d="M215 696V0H71v696h144zm281 0l-61-187H299l25 187h172z"/><glyph glyph-name="uni013C.ss06" horiz-adv-x="286" d="M215 696V0H71v696h144zm2-754l-64-180H4L60-58h157z"/><glyph glyph-name="ldot.ss06" horiz-adv-x="407" d="M215 0H71v696h144V0zm74 269.5Q266 293 266 331t22.5 61 59.5 23q36 0 58.5-23t22.5-61-22.5-61.5T348 246t-59 23.5z"/><glyph glyph-name="lslash.ss06" horiz-adv-x="368" d="M371 354l-115-24V0H112v306L-3 282v127l115 24v263h144V457l115 24V354z"/><glyph glyph-name="fi" unicode="ﬁ" horiz-adv-x="786" d="M501 373H292V0H147v373H-8v128h155v28q0 77 47.5 122T324 696h137V571H344q-52 0-52-49v-21h209V373zm214 128V0H571v501h144zm-137 81.5Q553 606 553 644t25 61.5 65 23.5q41 0 65.5-23.5T733 644t-25-61.5-65-23.5-65 23.5z"/><glyph glyph-name="fl" unicode="ﬂ" horiz-adv-x="819" d="M501 373H292V0H147v373H-8v128h155v28q0 77 47.5 122T324 696h137V571H344q-52 0-52-49v-21h209V373zM615 38.5Q571 77 571 146v550h144V172q0-23 12-34t39-11h43V0h-70q-80 0-124 38.5z"/><glyph glyph-name="fl.ss06" horiz-adv-x="786" d="M501 373H292V0H147v373H-8v128h155v28q0 77 47.5 122T324 696h137V571H344q-52 0-52-49v-21h209V373zm214 323V0H571v696h144z"/><glyph glyph-name="ordfeminine" unicode="ª" horiz-adv-x="606" d="M601 356V245h-74q-73 0-108 44-64-55-182-55-94 0-146.5 33.5T38 360q0 50 38 80t109 38l211 23q-5 29-33 42.5T281 557q-53 0-82.5-14T169 505v-3H41v3q0 73 65.5 115.5T283 663q115 0 178.5-48.5T525 480v-95q0-29 38-29h38zm-266.5-13q42.5 15 63.5 41v31l-178-19q-56-6-56-35 0-33 75-33 53 0 95.5 15z"/><glyph glyph-name="ordmasculine" unicode="º" horiz-adv-x="575" d="M148 259.5Q89 285 57 332T25 442v11q0 98 70 154t193 56q122 0 191.5-56T549 453v-10q0-97-69.5-153T288 234q-81 0-140 25.5zM384.5 374q34.5 25 34.5 70v7q0 47-34 72t-97 25q-64 0-98.5-25T155 450v-7q0-45 35-69.5t98-24.5q62 0 96.5 25z"/><glyph glyph-name="ordfeminine.case" horiz-adv-x="532" d="M526 262v-19H399l-29 66H165l-29-66H8v19l187 394h144zM323 414l-56 125-55-125h111z"/><glyph glyph-name="ordfeminine.ss05" horiz-adv-x="576" d="M466 614.5Q531 566 531 480V245H414l-4 33q-62-44-171-44-96 0-148.5 33T38 359q0 51 37.5 81T185 478l218 23q-15 56-123 56-52 0-81-14t-29-38v-3H41v3q0 73 66 115.5T284 663q117 0 182-48.5zm-125-270q44 16.5 64 43.5v27l-181-19q-60-6-60-35 0-33 77-33 56 0 100 16.5z"/><glyph glyph-name="uni0410" unicode="А" horiz-adv-x="770" d="M759 23V0H609l-60 136H221L161 0H11v23l291 633h166zM492 266L385 510 278 266h214z"/><glyph glyph-name="uni0411" unicode="Б" horiz-adv-x="785" d="M682 656V525H228V398h255q121 0 185.5-49.5T733 205v-12q0-93-65-143T483 0H78v656h604zM554.5 148.5Q581 166 581 197v11q0 31-26.5 48T480 273H228V131h252q48 0 74.5 17.5z"/><glyph glyph-name="uni0412" unicode="В" horiz-adv-x="785" d="M709 279q24-36 24-84v-11q0-85-66-134.5T488 0H78v656h391q116 0 179.5-45.5T712 483v-11q0-88-73-136 46-21 70-57zM228 525V393h240q93 0 93 61v10q0 30-23.5 45.5T469 525H228zm352-319q0 62-94 62H228V131h258q45 0 69.5 17t24.5 48v10z"/><glyph glyph-name="uni0413" unicode="Г" horiz-adv-x="627" d="M613 656V521H228V0H78v656h535z"/><glyph glyph-name="uni0403" unicode="Ѓ" horiz-adv-x="627" d="M613 656V521H228V0H78v656h535zm-35 238V775l-441-67v119z"/><glyph glyph-name="uni0490" unicode="Ґ" horiz-adv-x="627" d="M456 656v133h151V521H228V0H78v656h378z"/><glyph glyph-name="uni0414" unicode="Д" horiz-adv-x="867" d="M839 135v-268H689V0H166v-133H16v268h84q53 84 56 214l6 307h576V135h101zm-592 0h341v386H299l-4-175q-3-125-48-211z"/><glyph glyph-name="uni0415" unicode="Е" horiz-adv-x="723" d="M661 656V524H228V394h413V263H228V132h433V0H78v656h583z"/><glyph glyph-name="uni0400" unicode="Ѐ" horiz-adv-x="723" d="M661 656V524H228V394h413V263H228V132h433V0H78v656h583zM149 895l441-67V708l-441 68v119z"/><glyph glyph-name="uni0401" unicode="Ё" horiz-adv-x="723" d="M661 656V524H228V394h413V263H228V132h433V0H78v656h583zm-483 84.5Q154 763 154 798q0 36 24 58t62 22q36 0 59.5-22t23.5-58q0-35-23.5-57.5T240 718q-38 0-62 22.5zm260 0Q414 763 414 798q0 36 23.5 58t61.5 22 61-22 23-58q0-35-23.5-57.5T499 718t-61 22.5z"/><glyph glyph-name="uni0416" unicode="Ж" horiz-adv-x="1257" d="M1211 633L946 337l251-314V0h-171L814 263H704V0H553v263H443L231 0H60v23l252 314L46 633v23h177l226-257h104v257h151V399h104l226 257h177v-23z"/><glyph glyph-name="uni0417" unicode="З" horiz-adv-x="833" d="M764.5 278.5Q789 245 789 202v-11q0-96-93-149.5T437-12q-186 0-283 71.5T57 268v7h152v-7q0-75 55.5-109.5T441 124q195 0 195 76v10q0 22-15 34.5T569.5 262 466 267H316v124h145q89 0 124 13.5t35 47.5v10q0 35-48.5 52.5T429 532q-113 0-164.5-34.5T213 388v-7H61v7q0 136 95.5 208T432 668q160 0 250.5-52T773 472v-11q0-82-80-127 47-22 71.5-55.5z"/><glyph glyph-name="uni0418" unicode="И" horiz-adv-x="819" d="M227 656V206l364 450h150V0H592v450L228 0H78v656h149z"/><glyph glyph-name="uni0419" unicode="Й" horiz-adv-x="819" d="M227 656V206l364 450h150V0H592v450L228 0H78v656h149zm19 95.5Q191 792 191 871v8h126v-8q0-22 24-34t69-12q41 0 63.5 12t22.5 34v8h133v-8q0-160-219-160-109 0-164 40.5z"/><glyph glyph-name="uni040D" unicode="Ѝ" horiz-adv-x="819" d="M227 656V206l364 450h150V0H592v450L228 0H78v656h149zm-37 239l441-67V708l-441 68v119z"/><glyph glyph-name="uni041A" unicode="К" horiz-adv-x="803" d="M757 633L476 338 743 23V0H570L346 264H228V0H78v656h150V399h113l237 257h179v-23z"/><glyph glyph-name="uni040C" unicode="Ќ" horiz-adv-x="803" d="M757 633L476 338 743 23V0H570L346 264H228V0H78v656h150V399h113l237 257h179v-23zM618 894V775l-441-67v119z"/><glyph glyph-name="uni041B" unicode="Л" horiz-adv-x="794" d="M716 0H566v521H282l-5-249q-3-138-58-205T53 0H0v135h25q62 0 87 33t26 116l6 372h572V0z"/><glyph glyph-name="uni041C" unicode="М" horiz-adv-x="1029" d="M951 0H802v452L590 0H439L227 454V0H78v656h207l230-487 229 487h207V0z"/><glyph glyph-name="uni041D" unicode="Н" horiz-adv-x="819" d="M228 656V395h363v261h150V0H591v261H228V0H78v656h150z"/><glyph glyph-name="uni041E" unicode="О" horiz-adv-x="877" d="M233 29Q145 70 96.5 146T48 323v9q0 101 48.5 177t137 117.5T439 668q118 0 206-41.5T781 509t48-177v-9q0-101-48-177T645 29 439-12 233 29zm382.5 148Q676 227 676 321v12q0 94-61.5 145T439 529q-115 0-176.5-51T201 333v-12q0-94 61.5-144T439 127q116 0 176.5 50z"/><glyph glyph-name="uni041F" unicode="П" horiz-adv-x="799" d="M721 656V0H571v521H228V0H78v656h643z"/><glyph glyph-name="uni0420" unicode="Р" horiz-adv-x="787" d="M494 656q116 0 183-56t67-153v-11q0-98-67-154t-183-56H228V0H78v656h416zm71-277.5q26 19.5 26 57.5v11q0 37-26 56.5T490 523H228V359h262q49 0 75 19.5z"/><glyph glyph-name="uni0421" unicode="С" horiz-adv-x="874" d="M235 29Q145 70 96.5 145.5T48 322v11q0 101 48.5 176.5t138.5 117T444 668q110 0 197.5-36t137-100T828 388v-8H675v8q0 41-29.5 73t-82 50T443 529q-119 0-180.5-50T201 335v-15q0-95 61-144t182-49q105 0 168 38.5T675 267v7h153v-7q0-80-49.5-143.5T641.5 24 444-12q-119 0-209 41z"/><glyph glyph-name="uni0422" unicode="Т" horiz-adv-x="691" d="M14 521v135h663V521H421V0H270v521H14z"/><glyph glyph-name="uni0423" unicode="У" horiz-adv-x="738" d="M754 656v-23L493 150q-45-84-94-117T270 0H125v135h143q20 0 32.5 3t22.5 11L31 633v23h157l218-375 192 375h156z"/><glyph glyph-name="uni040E" unicode="Ў" horiz-adv-x="763" d="M754 656v-23L493 150q-45-84-94-117T270 0H125v135h143q20 0 32.5 3t22.5 11L31 633v23h157l218-375 192 375h156zm-518 95.5Q181 792 181 871v8h126v-8q0-22 24-34t69-12q41 0 63.5 12t22.5 34v8h133v-8q0-160-219-160-109 0-164 40.5z"/><glyph glyph-name="uni0424" unicode="Ф" horiz-adv-x="1096" d="M966.5 529.5Q1053 458 1053 330v-6q0-127-86-197.5T725 56H624v-68H473v68H370q-155 0-241 70.5T43 324v6q0 128 86 199.5T370 601h103v67h151v-67h101q155 0 241.5-71.5zM237 219q41-32 133-32h106v283H370q-91 0-132.5-33.5T196 332v-10q0-71 41-103zm663 113q0 71-42 104.5T725 470H621V187h104q91 0 133 32t42 103v10z"/><glyph glyph-name="uni0425" unicode="Х" horiz-adv-x="819" d="M773 633L515 328 773 23V0H597L410 226 222 0H46v23l258 305L46 633v23h176l188-226 188 226h175v-23z"/><glyph glyph-name="uni0427" unicode="Ч" horiz-adv-x="799" d="M721 656V0H571v230q-109-14-201-14-155 0-233 63.5T59 470v186h150V482q0-68 42-98.5T388 353q62 0 183 11v292h150z"/><glyph glyph-name="uni0426" unicode="Ц" horiz-adv-x="850" d="M822 135v-268H672V0H78v656h150V135h343v521h150V135h101z"/><glyph glyph-name="uni0428" unicode="Ш" horiz-adv-x="1159" d="M228 656V135h276v521h151V135h276v521h150V0H78v656h150z"/><glyph glyph-name="uni0429" unicode="Щ" horiz-adv-x="1208" d="M1180 135v-268h-150V0H78v656h150V135h275v521h151V135h275v521h150V135h101z"/><glyph glyph-name="uni040F" unicode="Џ" horiz-adv-x="799" d="M721 0H475v-143H324V0H78v656h150V135h343v521h150V0z"/><glyph glyph-name="uni042C" unicode="Ь" horiz-adv-x="776" d="M228 656V429h255q119 0 184.5-54T733 222v-13q0-100-65.5-154.5T483 0H78v656h150zm326-503q26 20 26 57v11q0 36-26.5 56T479 297H228V133h251q49 0 75 20z"/><glyph glyph-name="uni042A" unicode="Ъ" horiz-adv-x="937" d="M828.5 375Q894 321 894 222v-13q0-100-65.5-154.5T644 0H239v521H14v135h375V429h255q119 0 184.5-54zM741 221q0 36-26.5 56T640 297H389V133h251q49 0 75 20t26 57v11z"/><glyph glyph-name="uni042B" unicode="Ы" horiz-adv-x="1013" d="M231 656V429h239q119 0 185-54.5T721 221v-12q0-100-66-154.5T470 0H81v656h150zm701 0V0H782v656h150zM542 152q26 19 26 56v13q0 36-26.5 56T466 297H231V133h235q50 0 76 19z"/><glyph glyph-name="uni0409" unicode="Љ" horiz-adv-x="1240" d="M1131.5 375q65.5-54 65.5-153v-13q0-99-65.5-154T947 0H559v521H282l-5-249q-3-138-58-205T53 0H0v135h25q62 0 87 33t26 116l6 372h566V429h237q119 0 184.5-54zM1044 222q0 35-26 54.5T943 296H710V133h233q49 0 75 19.5t26 56.5v13z"/><glyph glyph-name="uni040A" unicode="Њ" horiz-adv-x="1276" d="M228 656V405h363v251h151V411h241q122 0 186-51t64-148v-12q0-96-65-148T983 0H591v271H228V0H78v656h150zm852-457v13q0 35-24.5 51.5T979 280H742V131h237q101 0 101 68z"/><glyph glyph-name="uni0405" unicode="Ѕ" horiz-adv-x="771" d="M142 46q-84 58-84 170v10h148v-10q0-48 48-73t140-25q82 0 124.5 17.5T561 187v7q0 27-24 41.5T452 259l-167 24Q69 315 69 461v10q0 93 81.5 145T379 668q156 0 238-56t82-162v-9H551v9q0 88-172 88-77 0-117.5-16T221 475v-8q0-23 22.5-36t77.5-21l168-24q115-17 169.5-61.5T713 201v-10q0-96-85-149.5T388-12q-162 0-246 58z"/><glyph glyph-name="uni0404" unicode="Є" horiz-adv-x="874" d="M675 380v5q0 43-29.5 76T563 513t-121 19q-99 0-158.5-36T207 392h343V264H207q16-68 76-104t160-36q69 0 121.5 18.5t81.5 51 29 75.5v5h153v-5q0-79-50-143.5t-138-101T443-12q-119 0-208.5 41t-138 116.5T48 322v11q0 101 48.5 177t138 117T443 668q110 0 197.5-36.5T778 530t50-145v-5H675z"/><glyph glyph-name="uni042D" unicode="Э" horiz-adv-x="874" d="M639.5 627q89.5-41 138-117T826 333v-11q0-101-48.5-176.5T639.5 29 431-12q-109 0-197 36.5t-138 101T46 269v5h153v-5q0-43 29-75.5t81.5-51T431 124q98 0 159 36t77 104H324v128h343q-16 68-76 104t-159 36q-68 0-121-19t-82.5-52-29.5-76v-5H46v5q0 80 50 145t137.5 101.5T431 668q119 0 208.5-41z"/><glyph glyph-name="uni0406" unicode="І" horiz-adv-x="299" d="M225 656V0H74v656h151z"/><glyph glyph-name="uni0407" unicode="Ї" horiz-adv-x="299" d="M225 656V0H74v656h151zm-266 84.5Q-65 763-65 798q0 36 24 58t62 22q36 0 59.5-22t23.5-58q0-35-23.5-57.5T21 718q-38 0-62 22.5zm260 0Q195 763 195 798q0 36 23.5 58t61.5 22 61-22 23-58q0-35-23.5-57.5T280 718t-61 22.5z"/><glyph glyph-name="uni0408" unicode="Ј" horiz-adv-x="749" d="M192 24Q120 60 81 127.5T42 287v36h150v-36q0-76 44.5-118T362 127q169 0 169 159v235H230v135h451V288q0-92-38.5-160t-110-104T362-12q-98 0-170 36z"/><glyph glyph-name="uni040B" unicode="Ћ" horiz-adv-x="960" d="M828 354.5Q901 291 901 164V0H751v155q0 68-40 98.5T578 284q-84 0-189-11V0H239v521H14v135h651V521H389V400q110 18 210 18 156 0 229-63.5z"/><glyph glyph-name="uni042E" unicode="Ю" horiz-adv-x="1161" d="M931 627q87-41 134.5-117t47.5-178v-9q0-102-47.5-177.5T931 29 727-12q-104 0-185.5 33T409 115.5 344 261H228V0H78v656h150V395h116q14 84 65 145.5T541.5 635 727 668q117 0 204-41zm29-294q0 94-60.5 145T727 529t-173.5-51.5T492 333v-12q0-93 61-143.5T727 127q114 0 173.5 50T960 321v12z"/><glyph glyph-name="uni042F" unicode="Я" horiz-adv-x="806" d="M728 656V0H578v232H464L241 0H65v23l207 211q-98 10-154 63.5T62 436v11q0 97 67 153t183 56h416zM578 523H316q-49 0-75-19.5T215 447v-11q0-38 26-57.5t75-19.5h262v164z"/><glyph glyph-name="uni0402" unicode="Ђ" horiz-adv-x="944" d="M900 216v-13q0-98-73-150.5T618 0H511v129h94q79 0 111.5 17t32.5 58v11q0 75-171 75-66 0-189-11V0H239v521H14v135h651V521H389V404q112 14 203 14 308 0 308-202z"/><glyph glyph-name="uni0462" unicode="Ѣ" horiz-adv-x="893" d="M797.5 326.5Q862 280 862 192v-12q0-87-65-133.5T611 0H206v468H-4v126h210v72h151v-72h272V468H357v-95h254q122 0 186.5-46.5zM710 192q0 58-102 58H357V124h251q102 0 102 57v11z"/><glyph glyph-name="uni0472" unicode="Ѳ" horiz-adv-x="877" d="M645 627q88-41 136-117t48-178v-9q0-102-48-177.5T645 29 439-12 233 29 96.5 146 48 323v9q0 101 48.5 177t137 117.5T439 668q118 0 206-41zM278.5 496Q219 457 205 383q61 20 119 20 36 0 110-10 78-10 124-10 40 0 112 12-17 68-76 104t-155 36q-101 0-160.5-39zM596 160.5Q657 200 672 271q-61-17-123-17-45 0-121 10-11 1-46 5t-67 4q-51 0-107-13 16-68 75.5-103.5T439 121t157 39.5z"/><glyph glyph-name="uni0474" unicode="Ѵ" horiz-adv-x="793" d="M779 656V522h-49q-22 0-33.5-8.5T674 481L469 0H295L11 633v23h147l224-523 159 399q27 68 63 96t96 28h79z"/><glyph glyph-name="uni0492" unicode="Ғ" horiz-adv-x="710" d="M261 521V334h285V205H261V0H111v205H-3v129h114v322h585V521H261z"/><glyph glyph-name="uni0494" unicode="Ҕ" horiz-adv-x="790" d="M659.5 300Q738 238 738 117V80q0-118-78-183.5T442-169h-71v133h49q82 0 124.5 31T587 86v22q0 62-43.5 91T408 228q-75 0-180-10V0H78v656h603V525H228V348q110 14 200 14 153 0 231.5-62z"/><glyph glyph-name="uni0496" unicode="Җ" horiz-adv-x="1236" d="M1212 135v-268h-150V0h-50L811 263H704V0H553v263H443L231 0H60v23l253 315L46 633v23h177l226-257h104v257h151V399h104l226 257h177v-23L945 338l153-203h114z"/><glyph glyph-name="uni0498" unicode="Ҙ" horiz-adv-x="833" d="M764.5 278.5Q789 245 789 202v-11q0-96-93-149.5T437-12q-186 0-283 71.5T57 268v7h152v-7q0-75 55.5-109.5T441 124q195 0 195 76v10q0 22-15 34.5T569.5 262 466 267H316v124h145q89 0 124 13.5t35 47.5v10q0 35-48.5 52.5T429 532q-113 0-164.5-34.5T213 388v-7H61v7q0 136 95.5 208T432 668q160 0 250.5-52T773 472v-11q0-82-80-127 47-22 71.5-55.5zM521 29v-172H370V29h151z"/><glyph glyph-name="uni049A" unicode="Қ" horiz-adv-x="792" d="M768 135v-268H618V0h-50L345 264H228V0H78v656h150V399h112l238 257h179v-23L476 338l171-203h121z"/><glyph glyph-name="uni049C" unicode="Ҝ" horiz-adv-x="843" d="M797 633L535 335 783 23V0H616L404 264h-12V135H278v129h-53V0H78v656h147V399h53v129h114V399h13l219 257h173v-23z"/><glyph glyph-name="uni04A0" unicode="Ҡ" horiz-adv-x="1034" d="M988 633L707 338 974 23V0H801L577 264H459V0H309v521H14v135h445V399h113l237 257h179v-23z"/><glyph glyph-name="uni04A2" unicode="Ң" horiz-adv-x="870" d="M842 135v-268H692V0H591v261H228V0H78v656h150V395h363v261h150V135h101z"/><glyph glyph-name="uni04A4" unicode="Ҥ" horiz-adv-x="1080" d="M228 656V395h347v261h491V521H725V0H575v261H228V0H78v656h150z"/><glyph glyph-name="uni04AA" unicode="Ҫ" horiz-adv-x="874" d="M235 29Q145 70 96.5 145.5T48 322v11q0 101 48.5 176.5t138.5 117T444 668q110 0 197.5-36t137-100T828 388v-8H675v8q0 41-29.5 73t-82 50T443 529q-119 0-180.5-50T201 335v-15q0-95 61-144t182-49q105 0 168 38.5T675 267v7h153v-7q0-80-49.5-143.5T641.5 24 444-12q-119 0-209 41zm289 0v-172H373V29h151z"/><glyph glyph-name="uni04AE" unicode="Ү" horiz-adv-x="726" d="M727 656v-23L439 255V0H288v255L-1 633v23h163l201-265 201 265h163z"/><glyph glyph-name="uni04B0" unicode="Ұ" horiz-adv-x="726" d="M727 633L493 326h142V191H439V0H288v191H92v135h142L-1 633v23h163l201-265 201 265h163v-23z"/><glyph glyph-name="uni04B2" unicode="Ҳ" horiz-adv-x="812" d="M784 135v-268H635V0h-50L408 224 222 0H46v23l258 305L46 633v23h176l188-226 188 226h175v-23L515 328l156-193h113z"/><glyph glyph-name="uni04B6" unicode="Ҷ" horiz-adv-x="850" d="M822 135v-268H672V0H571v230q-109-14-201-14-155 0-233 63.5T59 470v186h150V482q0-68 42-98.5T388 353q62 0 183 11v292h150V135h101z"/><glyph glyph-name="uni04B8" unicode="Ҹ" horiz-adv-x="799" d="M721 656V0H571v234q-67-8-122-11V105H331v116q-137 8-204.5 69.5T59 470v186h150V482q0-56 29-86.5t93-39.5v142h118V355q56 1 122 8v293h150z"/><glyph glyph-name="uni04BA" unicode="Һ" horiz-adv-x="799" d="M662 376.5Q740 313 740 186V0H590v174q0 68-42 98.5T411 303q-62 0-183-11V0H78v656h150V426q109 14 201 14 155 0 233-63.5z"/><glyph glyph-name="uni04C0" unicode="Ӏ" horiz-adv-x="299" d="M225 656V0H74v656h151z"/><glyph glyph-name="uni04C1" unicode="Ӂ" horiz-adv-x="1257" d="M1211 633L946 337l251-314V0h-171L814 263H704V0H553v263H443L231 0H60v23l252 314L46 633v23h177l226-257h104v257h151V399h104l226 257h177v-23zM465 751.5Q410 792 410 871v8h126v-8q0-22 24-34t69-12q41 0 63.5 12t22.5 34v8h133v-8q0-160-219-160-109 0-164 40.5z"/><glyph glyph-name="uni04D0" unicode="Ӑ" horiz-adv-x="770" d="M759 23V0H609l-60 136H221L161 0H11v23l291 633h166zM492 266L385 510 278 266h214zM221 751.5Q166 792 166 871v8h126v-8q0-22 24-34t69-12q41 0 63.5 12t22.5 34v8h133v-8q0-160-219-160-109 0-164 40.5z"/><glyph glyph-name="uni04D2" unicode="Ӓ" horiz-adv-x="770" d="M759 23V0H609l-60 136H221L161 0H11v23l291 633h166zM492 266L385 510 278 266h214zM194 740.5Q170 763 170 798q0 36 24 58t62 22q36 0 59.5-22t23.5-58q0-35-23.5-57.5T256 718q-38 0-62 22.5zm260 0Q430 763 430 798q0 36 23.5 58t61.5 22 61-22 23-58q0-35-23.5-57.5T515 718t-61 22.5z"/><glyph glyph-name="uni04D4" unicode="Ӕ" horiz-adv-x="1072" d="M573 524l29-130h388V263H631l29-131h350V0H535l-30 136H222L161 0H11v23l291 633h708V524H573zm-152 0h-26L280 266h197z"/><glyph glyph-name="uni04D6" unicode="Ӗ" horiz-adv-x="723" d="M661 656V524H228V394h413V263H228V132h433V0H78v656h583zm-456 95.5Q150 792 150 871v8h126v-8q0-22 24-34t69-12q41 0 63.5 12t22.5 34v8h133v-8q0-160-219-160-109 0-164 40.5z"/><glyph glyph-name="uni04D8" unicode="Ә" horiz-adv-x="877" d="M642.5 628q89.5-41 138-117T829 332v-9q0-102-48-177.5T644.5 29 437-12q-122 0-209.5 42.5T94 153.5 48 346v37h623q-16 74-78 113.5T430 536q-85 0-143-27.5T212 432H52q16 72 67.5 125.5T251 640t181 29q121 0 210.5-41zm-55-471.5Q648 193 668 259H206q17-69 74.5-104T435 120q92 0 152.5 36.5z"/><glyph glyph-name="uni04DA" unicode="Ӛ" horiz-adv-x="877" d="M642.5 628q89.5-41 138-117T829 332v-9q0-102-48-177.5T644.5 29 437-12q-122 0-209.5 42.5T94 153.5 48 346v37h623q-16 74-78 113.5T430 536q-85 0-143-27.5T212 432H52q16 72 67.5 125.5T251 640t181 29q121 0 210.5-41zm-55-471.5Q648 193 668 259H206q17-69 74.5-104T435 120q92 0 152.5 36.5zM248 740.5Q224 763 224 798q0 36 24 58t62 22q36 0 59.5-22t23.5-58q0-35-23.5-57.5T310 718q-38 0-62 22.5zm260 0Q484 763 484 798q0 36 23.5 58t61.5 22 61-22 23-58q0-35-23.5-57.5T569 718t-61 22.5z"/><glyph glyph-name="uni04DC" unicode="Ӝ" horiz-adv-x="1257" d="M1211 633L946 337l251-314V0h-171L814 263H704V0H553v263H443L231 0H60v23l252 314L46 633v23h177l226-257h104v257h151V399h104l226 257h177v-23zM438 740.5Q414 763 414 798q0 36 24 58t62 22q36 0 59.5-22t23.5-58q0-35-23.5-57.5T500 718q-38 0-62 22.5zm260 0Q674 763 674 798q0 36 23.5 58t61.5 22 61-22 23-58q0-35-23.5-57.5T759 718t-61 22.5z"/><glyph glyph-name="uni04DE" unicode="Ӟ" horiz-adv-x="833" d="M764.5 278.5Q789 245 789 202v-11q0-96-93-149.5T437-12q-186 0-283 71.5T57 268v7h152v-7q0-75 55.5-109.5T441 124q195 0 195 76v10q0 22-15 34.5T569.5 262 466 267H316v124h145q89 0 124 13.5t35 47.5v10q0 35-48.5 52.5T429 532q-113 0-164.5-34.5T213 388v-7H61v7q0 136 95.5 208T432 668q160 0 250.5-52T773 472v-11q0-82-80-127 47-22 71.5-55.5zM254 740.5Q230 763 230 798q0 36 24 58t62 22q36 0 59.5-22t23.5-58q0-35-23.5-57.5T316 718q-38 0-62 22.5zm260 0Q490 763 490 798q0 36 23.5 58t61.5 22 61-22 23-58q0-35-23.5-57.5T575 718t-61 22.5z"/><glyph glyph-name="uni04E2" unicode="Ӣ" horiz-adv-x="819" d="M227 656V206l364 450h150V0H592v450L228 0H78v656h149zm404 203V739H190v120h441z"/><glyph glyph-name="uni04E4" unicode="Ӥ" horiz-adv-x="819" d="M227 656V206l364 450h150V0H592v450L228 0H78v656h149zm-8 84.5Q195 763 195 798q0 36 24 58t62 22q36 0 59.5-22t23.5-58q0-35-23.5-57.5T281 718q-38 0-62 22.5zm260 0Q455 763 455 798q0 36 23.5 58t61.5 22 61-22 23-58q0-35-23.5-57.5T540 718t-61 22.5z"/><glyph glyph-name="uni04E6" unicode="Ӧ" horiz-adv-x="877" d="M233 29Q145 70 96.5 146T48 323v9q0 101 48.5 177t137 117.5T439 668q118 0 206-41.5T781 509t48-177v-9q0-101-48-177T645 29 439-12 233 29zm382.5 148Q676 227 676 321v12q0 94-61.5 145T439 529q-115 0-176.5-51T201 333v-12q0-94 61.5-144T439 127q116 0 176.5 50zM249 740.5Q225 763 225 798q0 36 24 58t62 22q36 0 59.5-22t23.5-58q0-35-23.5-57.5T311 718q-38 0-62 22.5zm260 0Q485 763 485 798q0 36 23.5 58t61.5 22 61-22 23-58q0-35-23.5-57.5T570 718t-61 22.5z"/><glyph glyph-name="uni04E8" unicode="Ө" horiz-adv-x="877" d="M645 627q88-41 136-117t48-178v-9q0-102-48-177.5T645 29 439-12 233 29 96.5 146 48 323v9q0 101 48.5 177t137 117.5T439 668q118 0 206-41zM282 498.5Q223 462 207 393h463q-16 69-75 105.5T439 535q-98 0-157-36.5zM592.5 158Q653 195 670 263H206q16-70 75.5-106T439 121q93 0 153.5 37z"/><glyph glyph-name="uni04EE" unicode="Ӯ" horiz-adv-x="763" d="M754 656v-23L493 150q-45-84-94-117T270 0H125v135h143q20 0 32.5 3t22.5 11L31 633v23h157l218-375 192 375h156zM621 859V739H180v120h441z"/><glyph glyph-name="uni04F0" unicode="Ӱ" horiz-adv-x="763" d="M754 656v-23L493 150q-45-84-94-117T270 0H125v135h143q20 0 32.5 3t22.5 11L31 633v23h157l218-375 192 375h156zm-545 84.5Q185 763 185 798q0 36 24 58t62 22q36 0 59.5-22t23.5-58q0-35-23.5-57.5T271 718q-38 0-62 22.5zm260 0Q445 763 445 798q0 36 23.5 58t61.5 22 61-22 23-58q0-35-23.5-57.5T530 718t-61 22.5z"/><glyph glyph-name="uni04F2" unicode="Ӳ" horiz-adv-x="763" d="M754 656v-23L493 150q-45-84-94-117T270 0H125v135h143q20 0 32.5 3t22.5 11L31 633v23h157l218-375 192 375h156zM425 894V772l-271-64v121zm301 0V772l-270-64v121z"/><glyph glyph-name="uni04F4" unicode="Ӵ" horiz-adv-x="799" d="M721 656V0H571v230q-109-14-201-14-155 0-233 63.5T59 470v186h150V482q0-68 42-98.5T388 353q62 0 183 11v292h150zm-512 84.5Q185 763 185 798q0 36 24 58t62 22q36 0 59.5-22t23.5-58q0-35-23.5-57.5T271 718q-38 0-62 22.5zm260 0Q445 763 445 798q0 36 23.5 58t61.5 22 61-22 23-58q0-35-23.5-57.5T530 718t-61 22.5z"/><glyph glyph-name="uni04F8" unicode="Ӹ" horiz-adv-x="1013" d="M231 656V429h239q119 0 185-54.5T721 221v-12q0-100-66-154.5T470 0H81v656h150zm701 0V0H782v656h150zM542 152q26 19 26 56v13q0 36-26.5 56T466 297H231V133h235q50 0 76 19zM316 740.5Q292 763 292 798q0 36 24 58t62 22q36 0 59.5-22t23.5-58q0-35-23.5-57.5T378 718q-38 0-62 22.5zm260 0Q552 763 552 798q0 36 23.5 58t61.5 22 61-22 23-58q0-35-23.5-57.5T637 718t-61 22.5z"/><glyph glyph-name="uni0407.Yi-cy" horiz-adv-x="319" d="M19 740q-20 22-20 59t19.5 58T73 878t55-21 20-58-20.5-59T73 718t-54 22zm173.5-.5Q173 761 173 799q0 37 19 58t54 21 54.5-21 19.5-58-20-59-54-22-53.5 21.5zM235 656V0H84v656h151z"/><glyph glyph-name="uni0414.loclBGR" horiz-adv-x="916" d="M888 135v-268H738V0H178v-133H28v268h95l252 521h166l253-521h94zm-251 0L458 513 279 135h358z"/><glyph glyph-name="uni041B.loclBGR" horiz-adv-x="770" d="M759 23V0H605L385 509 165 0H11v23l287 633h174z"/><glyph glyph-name="uni0406.ss07" horiz-adv-x="701" d="M275 134v388H46v134h609V522H426V134h229V0H46v134h229z"/><glyph glyph-name="uni0407.ss07" horiz-adv-x="701" d="M275 134v388H46v134h609V522H426V134h229V0H46v134h229zM174 741.5Q150 764 150 799t24 57.5 62 22.5q37 0 60.5-22.5T320 799t-23.5-57.5T236 719q-38 0-62 22.5zm231.5 0Q382 764 382 799t23.5 57.5T466 879q38 0 61.5-22.5T551 799t-24-57.5-61-22.5-60.5 22.5z"/><glyph glyph-name="uni04C0.ss07" horiz-adv-x="701" d="M275 134v388H46v134h609V522H426V134h229V0H46v134h229z"/><glyph glyph-name="uni0430" unicode="а" horiz-adv-x="716" d="M709 127V0h-85q-46 0-79.5 15.5T494 60q-76-72-216-72-106 0-165 40T54 140q0 61 44 97.5T226 283l247 27q-12 74-134 74-64 0-99.5-17.5T204 318v-3H58v3q0 59 34.5 103t98.5 68 149 24q132 0 205.5-59T619 291V167q0-40 46-40h44zm-307.5-3.5Q451 143 474 176v34l-210-24q-33-4-49-14t-16-28q0-40 89-40 64 0 113.5 19.5z"/><glyph glyph-name="uni0431" unicode="б" horiz-adv-x="704" d="M594.5 402.5Q666 343 666 239v-21q0-70-36.5-122T526 16 368-12q-153 0-234 77.5T53 290v53q0 148 71 225t220 90l108 9q17 1 24.5 6t7.5 15v8h152v-28q0-112-131-123l-157-13q-80-7-118-38.5T192 403v-5q81 64 206 64t196.5-59.5zM516 234q0 51-40 79t-113 28q-106 0-164-60v-30q0-139 163-139 72 0 113 27.5t41 76.5v18z"/><glyph glyph-name="uni0432" unicode="в" horiz-adv-x="710" d="M664 151v-10q0-68-54-104.5T455 0H73v501h367q101 0 156-36t55-103v-10q0-65-60-97 73-32 73-104zM218 395v-92h212q35 0 53 11t18 31v10q0 40-71 40H218zm297-236q0 20-18.5 31T444 201H218v-95h226q71 0 71 43v10z"/><glyph glyph-name="uni0433" unicode="г" horiz-adv-x="513" d="M499 501V373H218V0H73v501h426z"/><glyph glyph-name="uni0453" unicode="ѓ" horiz-adv-x="513" d="M499 501V373H218V0H73v501h426zm11 238V620L69 553v119z"/><glyph glyph-name="uni0491" unicode="ґ" horiz-adv-x="513" d="M338 501v128h145V373H218V0H73v501h265z"/><glyph glyph-name="uni0434" unicode="д" horiz-adv-x="762" d="M751 127v-255H606V0H159v-128H14v255h78q22 35 33 76t12 96l4 202h515V127h95zm-240 0v246H273l-2-75q-2-58-11-98t-28-73h279z"/><glyph glyph-name="uni0435" unicode="е" horiz-adv-x="671" d="M633 208H187q7-47 46-72t105-25q60 0 98 16t44 44h152q-11-88-87.5-135.5T338-12q-92 0-160 30.5T74 106 38 240v19q0 78 36.5 135.5t104 88T338 513q140 0 217.5-66.5T633 260v-52zM241 371q-38-21-50-59h289q-12 38-49 59t-94 21q-58 0-96-21z"/><glyph glyph-name="uni0450" unicode="ѐ" horiz-adv-x="671" d="M633 208H187q7-47 46-72t105-25q60 0 98 16t44 44h152q-11-88-87.5-135.5T338-12q-92 0-160 30.5T74 106 38 240v19q0 78 36.5 135.5t104 88T338 513q140 0 217.5-66.5T633 260v-52zM241 371q-38-21-50-59h289q-12 38-49 59t-94 21q-58 0-96-21zM116 740l441-67V553l-441 68v119z"/><glyph glyph-name="uni0451" unicode="ё" horiz-adv-x="671" d="M633 208H187q7-47 46-72t105-25q60 0 98 16t44 44h152q-11-88-87.5-135.5T338-12q-92 0-160 30.5T74 106 38 240v19q0 78 36.5 135.5t104 88T338 513q140 0 217.5-66.5T633 260v-52zM241 371q-38-21-50-59h289q-12 38-49 59t-94 21q-58 0-96-21zm-96 214.5Q121 608 121 643q0 36 24 58t62 22q36 0 59.5-22t23.5-58q0-35-23.5-57.5T207 563q-38 0-62 22.5zm260 0Q381 608 381 643q0 36 23.5 58t61.5 22 61-22 23-58q0-35-23.5-57.5T466 563t-61 22.5z"/><glyph glyph-name="uni0436" unicode="ж" horiz-adv-x="1018" d="M999 20V0H840L685 189H581V0H437v189H332L178 0H19v20l192 236L30 480v21h160l147-185h100v185h144V316h99l148 185h160v-21L806 256z"/><glyph glyph-name="uni0437" unicode="з" horiz-adv-x="684" d="M618.5 209.5Q638 182 638 148v-7q0-75-73.5-114T350-12q-157 0-232 53.5T43 207v6h140v-6q0-53 40-77.5T351 105q67 0 101.5 12.5T487 153v6q0 20-19 29t-60 9H259v110h139q40 0 58.5 9t18.5 29v6q0 22-35 33t-102 11q-83 0-119-23.5T183 293v-6H43v6q0 220 302 220 133 0 206-40t73-114v-7q0-61-62-98 37-17 56.5-44.5z"/><glyph glyph-name="uni0438" unicode="и" horiz-adv-x="713" d="M212 501V176l297 325h131V0H501v325L204 0H73v501h139z"/><glyph glyph-name="uni0439" unicode="й" horiz-adv-x="713" d="M212 501V176l297 325h131V0H501v325L204 0H73v501h139zm-19 95.5Q138 637 138 716v8h126v-8q0-22 24-34t69-12q41 0 63.5 12t22.5 34v8h133v-8q0-160-219-160-109 0-164 40.5z"/><glyph glyph-name="uni045D" unicode="ѝ" horiz-adv-x="713" d="M212 501V176l297 325h131V0H501v325L204 0H73v501h139zm-75 239l441-67V553l-441 68v119z"/><glyph glyph-name="uni043A" unicode="к" horiz-adv-x="687" d="M668 21V0H506L334 190H218V0H73v501h145V315h110l164 186h165v-21L459 256z"/><glyph glyph-name="uni045C" unicode="ќ" horiz-adv-x="687" d="M668 21V0H506L334 190H218V0H73v501h145V315h110l164 186h165v-21L459 256zM559 739V620l-441-67v119z"/><glyph glyph-name="uni043B" unicode="л" horiz-adv-x="712" d="M639 0H494v373H259l-4-131Q247 0 66 0H7v129h25q44 0 64.5 28.5T118 251l7 250h514V0z"/><glyph glyph-name="uni043C" unicode="м" horiz-adv-x="913" d="M840 501V0H700v354l-25-56L521 0H392L239 298l-26 57v-61l1-294H73v501h206l178-352 177 352h206z"/><glyph glyph-name="uni043D" unicode="н" horiz-adv-x="718" d="M218 501V315h282v186h145V0H500v188H218V0H73v501h145z"/><glyph glyph-name="uni043E" unicode="о" horiz-adv-x="685" d="M181 18.5q-69 30.5-106 88T38 242v13q0 80 36.5 138T180 482t164 31q94 0 162-31t104.5-89T647 255v-13q0-78-36.5-135.5T506 18.5 344-12 181 18.5zM456.5 152q40.5 32 40.5 91v11q0 61-40 94t-114 33q-75 0-115-32.5T188 254v-11q0-59 40.5-91T343 120q73 0 113.5 32z"/><glyph glyph-name="uni043F" unicode="п" horiz-adv-x="708" d="M635 501V0H490v373H218V0H73v501h562z"/><glyph glyph-name="uni0440" unicode="р" horiz-adv-x="710" d="M535 481.5q66-31.5 101.5-90T672 256v-10q0-77-36-135.5T534.5 20 381-12q-96 0-163 49v-207H73v671h135l4-43q71 55 169 55 88 0 154-31.5zM522 256q0 59-41 92t-114 33q-48 0-87.5-14.5T218 326V176q23-26 62.5-41t86.5-15q73 0 114 33t41 93v10z"/><glyph glyph-name="uni0441" unicode="с" horiz-adv-x="670" d="M179.5 19q-68.5 31-105 88T38 242v13q0 79 36.5 137t105 89.5T340 513q85 0 152.5-28.5t105-79T635 290v-4H486v4q0 40-40.5 65.5T340 381q-74 0-113-32.5T188 254v-11q0-60 39-91.5T340 120q66 0 106 24.5t40 65.5v4h149v-4q0-66-36.5-116.5t-103-78T340-12q-92 0-160.5 31z"/><glyph glyph-name="uni0442" unicode="т" horiz-adv-x="606" d="M14 371v130h578V371H377V0H231v371H14z"/><glyph glyph-name="uni0443" unicode="у" horiz-adv-x="697" d="M678 501v-21L413-50q-32-63-79-91.5T208-170H77v127h124q27 0 42.5 6.5T270-12L19 480v21h154l177-361 174 361h154z"/><glyph glyph-name="uni045E" unicode="ў" horiz-adv-x="697" d="M678 501v-21L413-50q-32-63-79-91.5T208-170H77v127h124q27 0 42.5 6.5T270-12L19 480v21h154l177-361 174 361h154zm-493 95.5Q130 637 130 716v8h126v-8q0-22 24-34t69-12q41 0 63.5 12t22.5 34v8h133v-8q0-160-219-160-109 0-164 40.5z"/><glyph glyph-name="uni0444" unicode="ф" horiz-adv-x="968" d="M849.5 436.5Q930 372 930 257v-14q0-115-80.5-179T624 0h-68v-170H412V0h-68Q199 0 118.5 64T38 243v14q0 115 80.5 179.5T344 501h68v195h144V501h68q145 0 225.5-64.5zM413 127v246h-77q-73 0-111.5-30.5T186 255v-10q0-56 39-87t111-31h77zm369 128q0 57-38.5 87.5T632 373h-77V127h77q72 0 111 31t39 87v10z"/><glyph glyph-name="uni0445" unicode="х" horiz-adv-x="656" d="M637 20V0H468L328 161 188 0H19v20l211 232L23 480v21h168l137-158 139 158h164v-21L425 252z"/><glyph glyph-name="uni0447" unicode="ч" horiz-adv-x="677" d="M604 501V0H459v157q-87-12-169-12-248 0-248 209v147h145V364q0-46 30-68t93-22q66 0 149 9v218h145z"/><glyph glyph-name="uni0446" unicode="ц" horiz-adv-x="734" d="M723 127v-255H578V0H73v501h145V127h265v374h145V127h95z"/><glyph glyph-name="uni0448" unicode="ш" horiz-adv-x="1039" d="M218 501V127h230v374h144V127h229v374h145V0H73v501h145z"/><glyph glyph-name="uni0449" unicode="щ" horiz-adv-x="1075" d="M1061 127v-255H917V0H73v501h145V127h230v374h144V127h229v374h145V127h95z"/><glyph glyph-name="uni045F" unicode="џ" horiz-adv-x="698" d="M625 0H415v-128H283V0H73v501h145V127h262v374h145V0z"/><glyph glyph-name="uni044C" unicode="ь" horiz-adv-x="704" d="M606.5 327Q664 278 664 193v-11q0-84-58-132.5T449 1H73v500h145V376h231q100 0 157.5-49zM516 193q0 29-19.5 44.5T439 253H218V124h221q37 0 57 15t20 43v11z"/><glyph glyph-name="uni044A" unicode="ъ" horiz-adv-x="835" d="M737.5 327Q795 278 795 193v-11q0-84-58-132.5T580 1H204v370H14v130h335V376h231q100 0 157.5-49zM647 193q0 29-19.5 44.5T570 253H349V124h221q37 0 57 15t20 43v11z"/><glyph glyph-name="uni044B" unicode="ы" horiz-adv-x="902" d="M577.5 326.5Q635 277 635 192v-11q0-83-57.5-132T419 0H71v501h144V376h204q101 0 158.5-49.5zM831 501V0H687v501h144zM486 193q0 29-19.5 45T409 254H215V122h194q38 0 57.5 15.5T486 181v12z"/><glyph glyph-name="uni0459" unicode="љ" horiz-adv-x="1100" d="M1002.5 327q57.5-49 57.5-134v-11q0-84-58-133T845 0H484v372H259l-4-130Q247 0 66 0H7v129h25q44 0 64.5 28.5T118 251l7 250h504V376h216q100 0 157.5-49zM912 193q0 29-19.5 44.5T835 253H629V124h206q37 0 57 14.5t20 42.5v12z"/><glyph glyph-name="uni045A" unicode="њ" horiz-adv-x="1107" d="M218 501V322h278v179h145V335h215q98 0 154.5-43t56.5-118v-12q0-75-57-118.5T856 0H496v194H218V0H73v501h145zm683-373.5q18 12.5 18 34.5v12q0 23-17.5 35T850 221H641V115h209q33 0 51 12.5z"/><glyph glyph-name="uni0455" unicode="ѕ" horiz-adv-x="688" d="M129.5 32.5Q51 77 51 159v5h139v-5q0-28 38-40.5T351 106q140 0 140 40v5q0 15-18 23t-65 12l-129 13q-111 11-162 46t-51 99v10q0 75 74.5 117T348 513q138 0 212-44t74-127v-6H495v6q0 28-35.5 40.5T344 395q-65 0-100-9t-35-26v-6q0-15 16.5-23t54.5-12l131-13q118-12 171.5-47T636 158v-10q0-76-76-118T349-12q-141 0-219.5 44.5z"/><glyph glyph-name="uni0454" unicode="є" horiz-adv-x="670" d="M489 287v3q0 46-41 74t-109 28q-60 0-98-22.5T190 306h221V195H190q12-42 50.5-64t99.5-22q69 0 109 27.5t40 73.5v3h146v-3q0-66-36.5-116.5t-103-78T340-12q-92 0-160 30.5t-105 88T38 241v19q0 77 37 134t105 88 159 31q86 0 153.5-28.5t105-79T635 290v-3H489z"/><glyph glyph-name="uni044D" unicode="э" horiz-adv-x="670" d="M490 482q68-31 105-88t37-134v-19q0-77-37-134.5t-105-88T330-12q-89 0-155.5 27.5t-103 78T35 210v3h146v-3q0-47 40-74t109-27q61 0 99.5 22t50.5 64H259v111h221q-13 41-51 63.5T331 392q-68 0-109-28t-41-74v-3H35v3q0 65 37.5 116t105 79T331 513q91 0 159-31z"/><glyph glyph-name="uni0456" unicode="і" horiz-adv-x="286" d="M215 501V0H71v501h144zM78 582.5Q53 606 53 644t25 61.5 65 23.5q41 0 65.5-23.5T233 644t-25-61.5-65-23.5-65 23.5z"/><glyph glyph-name="uni0457" unicode="ї" horiz-adv-x="336" d="M32.5 583Q13 605 13 643t19 59.5T85 724q32 0 51-21.5t19-59.5-19-60-51-22q-33 0-52.5 22zm168 .5Q181 606 181 643t19.5 59 51.5 22 51.5-22 19.5-59-19.5-59.5T252 561t-51.5 22.5zM240 501V0H96v501h144z"/><glyph glyph-name="uni0458" unicode="ј" horiz-adv-x="286" d="M8-43q31 0 47 15t16 44v485h144V7q0-80-52.5-128.5T23-170h-91v127H8zm70 625.5Q53 606 53 644t25 61.5 65 23.5q41 0 65.5-23.5T233 644t-25-61.5-65-23.5-65 23.5z"/><glyph glyph-name="uni045B" unicode="ћ" horiz-adv-x="737" d="M604 413.5Q671 346 671 215V0H526v215q0 65-35.5 99.5T387 349q-47 0-85-22t-58-59V0H99v533H-15v116H99v47h145v-47h210V533H244V426q67 55 163 55 130 0 197-67.5z"/><glyph glyph-name="uni044E" unicode="ю" horiz-adv-x="928" d="M811 444.5Q890 376 890 255v-13q0-78-36-135.5t-103-88T593-12q-119 0-194.5 52.5T305 186h-87V0H73v501h145V315h88q18 94 93 146t194 52q139 0 218-68.5zM740 253q0 61-38.5 94.5T593 381q-71 0-109.5-33T445 253v-9q0-59 38.5-91.5T593 120q69 0 108 33t39 91v9z"/><glyph glyph-name="uni044F" unicode="я" horiz-adv-x="715" d="M642 1H497v150h-87L233 0H54v18l163 136q-78 11-122 53T51 315v12q0 80 58 127t159 47h374V1zM497 260v123H279q-39 0-59-14.5T200 327v-12q0-27 20.5-41t58.5-14h218z"/><glyph glyph-name="uni0452" unicode="ђ" horiz-adv-x="737" d="M604 413.5Q671 346 671 215V99q0-269-262-269h-45v127h33q66 0 97.5 33.5T526 94v121q0 65-35.5 99.5T387 349q-47 0-85-22t-58-59V0H99v533H-15v116H99v47h145v-47h210V533H244V426q67 55 163 55 130 0 197-67.5z"/><glyph glyph-name="uni0463" unicode="ѣ" horiz-adv-x="815" d="M722 276q53-40 53-112v-11q0-74-52.5-113.5T576 0H184v383H14v118h170v195h145V501h238V383H329v-67h247q93 0 146-40zm-87-112q0 19-15.5 29T576 203H329v-90h247q59 0 59 40v11z"/><glyph glyph-name="uni0473" unicode="ѳ" horiz-adv-x="685" d="M506 482q68-31 104.5-89T647 255v-13q0-78-36.5-135.5T506 18.5 344-12 181 19 75 107 38 242v13q0 80 36.5 138T180 482t164 31q94 0 162-31zM237.5 369Q197 346 184 301q38 10 72 10 22 0 48.5-3t36.5-4q58-8 93-8 31 0 67 6-14 44-54 67t-104 23q-65 0-105.5-23zM449 131.5q40 23.5 53 67.5-39-9-75-9-32 0-92 8-8 1-35 4t-51 3q-27 0-65-7 13-44 53.5-67T343 108q66 0 106 23.5z"/><glyph glyph-name="uni0475" unicode="ѵ" horiz-adv-x="705" d="M691 501V371h-42q-20 0-31.5-8T596 332L442 0H254L19 480v21h150l178-372 125 280q23 51 53.5 71.5T611 501h80z"/><glyph glyph-name="uni0493" unicode="ғ" horiz-adv-x="603" d="M254 372V261h182V145H255V0H111v145H-3v116h114v240h454V372H254z"/><glyph glyph-name="uni0495" unicode="ҕ" horiz-adv-x="696" d="M572.5 225.5Q635 173 635 70V29q0-93-57-146t-155-53h-71v127h46q92 0 92 78v30q0 44-29.5 65T370 151q-62 0-152-11V0H73v501h520V373H218V265q88 13 169 13 123 0 185.5-52.5z"/><glyph glyph-name="uni0497" unicode="җ" horiz-adv-x="1049" d="M1038 127v-255H893V0h-66L677 189H574V0H430v189H325L171 0H12v20l192 236L23 480v21h160l147-185h100v185h144V316h99l148 185h160v-21L799 255l102-128h137z"/><glyph glyph-name="uni0499" unicode="ҙ" horiz-adv-x="684" d="M618.5 209.5Q638 182 638 148v-7q0-75-73.5-114T350-12q-157 0-232 53.5T43 207v6h140v-6q0-53 40-77.5T351 105q67 0 101.5 12.5T487 153v6q0 20-19 29t-60 9H259v110h139q40 0 58.5 9t18.5 29v6q0 22-35 33t-102 11q-83 0-119-23.5T183 293v-6H43v6q0 220 302 220 133 0 206-40t73-114v-7q0-61-62-98 37-17 56.5-44.5zM418 27v-170H274V27h144z"/><glyph glyph-name="uni049B" unicode="қ" horiz-adv-x="717" d="M706 127v-255H561V0h-62L332 190H218V0H73v501h145V315h110l164 186h165v-21L459 255l111-128h136z"/><glyph glyph-name="uni049D" unicode="ҝ" horiz-adv-x="754" d="M735 23V0H573L407 188h-28V71H272v117h-54V0H73v501h145V313h54v101h107V313h19l161 188h165v-21L532 256z"/><glyph glyph-name="uni04A1" unicode="ҡ" horiz-adv-x="865" d="M853 21V0H691L519 190H403V0H258v371H14v130h389V315h110l164 186h165v-21L644 256z"/><glyph glyph-name="uni04A3" unicode="ң" horiz-adv-x="754" d="M743 127v-255H598V0h-95v186H218V0H73v501h145V315h285v186h145V127h95z"/><glyph glyph-name="uni04A5" unicode="ҥ" horiz-adv-x="923" d="M218 501V315h263v186h428V371H626V0H481v186H218V0H73v501h145z"/><glyph glyph-name="uni04AB" unicode="ҫ" horiz-adv-x="670" d="M179.5 19q-68.5 31-105 88T38 242v13q0 79 36.5 137t105 89.5T340 513q85 0 152.5-28.5t105-79T635 290v-4H486v4q0 40-40.5 65.5T340 381q-74 0-113-32.5T188 254v-11q0-60 39-91.5T340 120q66 0 106 24.5t40 65.5v4h149v-4q0-66-36.5-116.5t-103-78T340-12q-92 0-160.5 31zM406 27v-170H262V27h144z"/><glyph glyph-name="uni04AF" unicode="ү" horiz-adv-x="695" d="M677 480L420-17v-153H276v153L18 480v21h151l179-351 178 351h151v-21z"/><glyph glyph-name="uni04B1" unicode="ұ" horiz-adv-x="695" d="M677 480L489 117h123V0H420v-170H276V0H83v117h123L18 480v21h151l179-351 178 351h151v-21z"/><glyph glyph-name="uni04B3" unicode="ҳ" horiz-adv-x="676" d="M665 127v-255H520V0h-60L325 158 188 0H19v20l209 230L23 480v21h168l136-160 140 160h164v-21L424 250l110-123h131z"/><glyph glyph-name="uni04B7" unicode="ҷ" horiz-adv-x="732" d="M699 127v-255H555V0h-96v157q-87-12-169-12-248 0-248 209v147h145V364q0-46 30-68t93-22q66 0 149 9v218h145V127h95z"/><glyph glyph-name="uni04B9" unicode="ҹ" horiz-adv-x="677" d="M604 501V0H459v158q-56-6-79-8V51H266v96q-112 4-168 56T42 353v148h145V362q0-37 19.5-58.5T266 275v139h114V274l79 7v220h145z"/><glyph glyph-name="uni04BB" unicode="һ" horiz-adv-x="711" d="M578 445.5Q645 378 645 247V0H500v247q0 65-35.5 99.5T361 381q-47 0-85-22t-58-59V0H73v696h145V458q67 55 163 55 130 0 197-67.5z"/><glyph glyph-name="uni04CF" unicode="ӏ" horiz-adv-x="286" d="M215 696V0H71v696h144z"/><glyph glyph-name="uni04C2" unicode="ӂ" horiz-adv-x="1018" d="M999 20V0H840L685 189H581V0H437v189H332L178 0H19v20l192 236L30 480v21h160l147-185h100v185h144V316h99l148 185h160v-21L806 256zM345 596.5Q290 637 290 716v8h126v-8q0-22 24-34t69-12q41 0 63.5 12t22.5 34v8h133v-8q0-160-219-160-109 0-164 40.5z"/><glyph glyph-name="uni04D1" unicode="ӑ" horiz-adv-x="716" d="M709 127V0h-85q-46 0-79.5 15.5T494 60q-76-72-216-72-106 0-165 40T54 140q0 61 44 97.5T226 283l247 27q-12 74-134 74-64 0-99.5-17.5T204 318v-3H58v3q0 59 34.5 103t98.5 68 149 24q132 0 205.5-59T619 291V167q0-40 46-40h44zm-307.5-3.5Q451 143 474 176v34l-210-24q-33-4-49-14t-16-28q0-40 89-40 64 0 113.5 19.5zM177 596.5Q122 637 122 716v8h126v-8q0-22 24-34t69-12q41 0 63.5 12t22.5 34v8h133v-8q0-160-219-160-109 0-164 40.5z"/><glyph glyph-name="uni04D3" unicode="ӓ" horiz-adv-x="716" d="M709 127V0h-85q-46 0-79.5 15.5T494 60q-76-72-216-72-106 0-165 40T54 140q0 61 44 97.5T226 283l247 27q-12 74-134 74-64 0-99.5-17.5T204 318v-3H58v3q0 59 34.5 103t98.5 68 149 24q132 0 205.5-59T619 291V167q0-40 46-40h44zm-307.5-3.5Q451 143 474 176v34l-210-24q-33-4-49-14t-16-28q0-40 89-40 64 0 113.5 19.5zM150 585.5Q126 608 126 643q0 36 24 58t62 22q36 0 59.5-22t23.5-58q0-35-23.5-57.5T212 563q-38 0-62 22.5zm260 0Q386 608 386 643q0 36 23.5 58t61.5 22 61-22 23-58q0-35-23.5-57.5T471 563t-61 22.5z"/><glyph glyph-name="uni04D5" unicode="ӕ" horiz-adv-x="1098" d="M1060 207H618q7-48 45.5-73T770 109q58 0 95.5 17t42.5 45h151q-10-86-85-134.5T777-12q-81 0-143 21.5T533 73q-39-41-102-63T286-12q-110 0-171 39.5T54 138q0 61 44.5 98.5T226 283l246 27q-7 36-43 55t-98 19q-59 0-92.5-17.5T205 318v-3H58v3q0 59 34.5 103t98.5 68 149 24q149 0 214-77 74 77 218 77 135 0 211.5-66.5T1060 263v-56zM672 371q-38-21-50-60h286q-11 39-47 60t-93 21q-58 0-96-21zM402 123.5q53 19.5 78 52.5-4 19-5 32l-205-23q-71-8-71-44 0-37 82-37 68 0 121 19.5z"/><glyph glyph-name="uni04D7" unicode="ӗ" horiz-adv-x="671" d="M633 208H187q7-47 46-72t105-25q60 0 98 16t44 44h152q-11-88-87.5-135.5T338-12q-92 0-160 30.5T74 106 38 240v19q0 78 36.5 135.5t104 88T338 513q140 0 217.5-66.5T633 260v-52zM241 371q-38-21-50-59h289q-12 38-49 59t-94 21q-58 0-96-21zm-69 225.5Q117 637 117 716v8h126v-8q0-22 24-34t69-12q41 0 63.5 12t22.5 34v8h133v-8q0-160-219-160-109 0-164 40.5z"/><glyph glyph-name="uni04D9" unicode="ә" horiz-adv-x="671" d="M493 482.5Q561 452 597 395t36-134v-19q0-78-36.5-135.5t-104-88T333-12q-140 0-217.5 66T38 241v52h446q-7 46-46.5 71.5T333 390q-60 0-98-16t-44-44H39q11 88 87.5 135.5T333 513q92 0 160-30.5zM430 130q38 21 50 59H191q11-38 48-59t95-21 96 21z"/><glyph glyph-name="uni04DB" unicode="ӛ" horiz-adv-x="671" d="M493 482.5Q561 452 597 395t36-134v-19q0-78-36.5-135.5t-104-88T333-12q-140 0-217.5 66T38 241v52h446q-7 46-46.5 71.5T333 390q-60 0-98-16t-44-44H39q11 88 87.5 135.5T333 513q92 0 160-30.5zM430 130q38 21 50 59H191q11-38 48-59t95-21 96 21zM144 585.5Q120 608 120 643q0 36 24 58t62 22q36 0 59.5-22t23.5-58q0-35-23.5-57.5T206 563q-38 0-62 22.5zm260 0Q380 608 380 643q0 36 23.5 58t61.5 22 61-22 23-58q0-35-23.5-57.5T465 563t-61 22.5z"/><glyph glyph-name="uni04DD" unicode="ӝ" horiz-adv-x="1018" d="M999 20V0H840L685 189H581V0H437v189H332L178 0H19v20l192 236L30 480v21h160l147-185h100v185h144V316h99l148 185h160v-21L806 256zM318 585.5Q294 608 294 643q0 36 24 58t62 22q36 0 59.5-22t23.5-58q0-35-23.5-57.5T380 563q-38 0-62 22.5zm260 0Q554 608 554 643q0 36 23.5 58t61.5 22 61-22 23-58q0-35-23.5-57.5T639 563t-61 22.5z"/><glyph glyph-name="uni04DF" unicode="ӟ" horiz-adv-x="684" d="M618.5 209.5Q638 182 638 148v-7q0-75-73.5-114T350-12q-157 0-232 53.5T43 207v6h140v-6q0-53 40-77.5T351 105q67 0 101.5 12.5T487 153v6q0 20-19 29t-60 9H259v110h139q40 0 58.5 9t18.5 29v6q0 22-35 33t-102 11q-83 0-119-23.5T183 293v-6H43v6q0 220 302 220 133 0 206-40t73-114v-7q0-61-62-98 37-17 56.5-44.5zM154 585.5Q130 608 130 643q0 36 24 58t62 22q36 0 59.5-22t23.5-58q0-35-23.5-57.5T216 563q-38 0-62 22.5zm260 0Q390 608 390 643q0 36 23.5 58t61.5 22 61-22 23-58q0-35-23.5-57.5T475 563t-61 22.5z"/><glyph glyph-name="uni04E3" unicode="ӣ" horiz-adv-x="713" d="M212 501V176l297 325h131V0H501v325L204 0H73v501h139zm366 203V584H137v120h441z"/><glyph glyph-name="uni04E5" unicode="ӥ" horiz-adv-x="713" d="M212 501V176l297 325h131V0H501v325L204 0H73v501h139zm-46 84.5Q142 608 142 643q0 36 24 58t62 22q36 0 59.5-22t23.5-58q0-35-23.5-57.5T228 563q-38 0-62 22.5zm260 0Q402 608 402 643q0 36 23.5 58t61.5 22 61-22 23-58q0-35-23.5-57.5T487 563t-61 22.5z"/><glyph glyph-name="uni04E7" unicode="ӧ" horiz-adv-x="685" d="M181 18.5q-69 30.5-106 88T38 242v13q0 80 36.5 138T180 482t164 31q94 0 162-31t104.5-89T647 255v-13q0-78-36.5-135.5T506 18.5 344-12 181 18.5zM456.5 152q40.5 32 40.5 91v11q0 61-40 94t-114 33q-75 0-115-32.5T188 254v-11q0-59 40.5-91T343 120q73 0 113.5 32zM152 585.5Q128 608 128 643q0 36 24 58t62 22q36 0 59.5-22t23.5-58q0-35-23.5-57.5T214 563q-38 0-62 22.5zm260 0Q388 608 388 643q0 36 23.5 58t61.5 22 61-22 23-58q0-35-23.5-57.5T473 563t-61 22.5z"/><glyph glyph-name="uni04E9" unicode="ө" horiz-adv-x="685" d="M506 482q68-31 104.5-89T647 255v-13q0-78-36.5-135.5T506 18.5 344-12 181 19 75 107 38 242v13q0 80 36.5 138T180 482t164 31q94 0 162-31zM238 369.5Q198 347 185 304h315q-13 43-53 65.5T343 392q-65 0-105-22.5zm209.5-239Q488 153 501 197H184q13-44 53.5-66.5T343 108q64 0 104.5 22.5z"/><glyph glyph-name="uni04EF" unicode="ӯ" horiz-adv-x="697" d="M678 501v-21L413-50q-32-63-79-91.5T208-170H77v127h124q27 0 42.5 6.5T270-12L19 480v21h154l177-361 174 361h154zM570 704V584H129v120h441z"/><glyph glyph-name="uni04F1" unicode="ӱ" horiz-adv-x="697" d="M678 501v-21L413-50q-32-63-79-91.5T208-170H77v127h124q27 0 42.5 6.5T270-12L19 480v21h154l177-361 174 361h154zm-520 84.5Q134 608 134 643q0 36 24 58t62 22q36 0 59.5-22t23.5-58q0-35-23.5-57.5T220 563q-38 0-62 22.5zm260 0Q394 608 394 643q0 36 23.5 58t61.5 22 61-22 23-58q0-35-23.5-57.5T479 563t-61 22.5z"/><glyph glyph-name="uni04F3" unicode="ӳ" horiz-adv-x="697" d="M678 501v-21L413-50q-32-63-79-91.5T208-170H77v127h124q27 0 42.5 6.5T270-12L19 480v21h154l177-361 174 361h154zM374 739V617l-271-64v121zm301 0V617l-270-64v121z"/><glyph glyph-name="uni04F5" unicode="ӵ" horiz-adv-x="677" d="M604 501V0H459v157q-87-12-169-12-248 0-248 209v147h145V364q0-46 30-68t93-22q66 0 149 9v218h145zm-470 84.5Q110 608 110 643q0 36 24 58t62 22q36 0 59.5-22t23.5-58q0-35-23.5-57.5T196 563q-38 0-62 22.5zm260 0Q370 608 370 643q0 36 23.5 58t61.5 22 61-22 23-58q0-35-23.5-57.5T455 563t-61 22.5z"/><glyph glyph-name="uni04F9" unicode="ӹ" horiz-adv-x="902" d="M577.5 326.5Q635 277 635 192v-11q0-83-57.5-132T419 0H71v501h144V376h204q101 0 158.5-49.5zM831 501V0H687v501h144zM486 193q0 29-19.5 45T409 254H215V122h194q38 0 57.5 15.5T486 181v12zM260 585.5Q236 608 236 643q0 36 24 58t62 22q36 0 59.5-22t23.5-58q0-35-23.5-57.5T322 563q-38 0-62 22.5zm260 0Q496 608 496 643q0 36 23.5 58t61.5 22 61-22 23-58q0-35-23.5-57.5T581 563t-61 22.5z"/><glyph glyph-name="uni0432.loclBGR" horiz-adv-x="707" d="M643 299q26-37 26-86v-15q0-101-76.5-155.5T374-12q-153 0-235 66.5T57 245v206q0 121 81 189t227 68q86 0 152-25t102-71 36-106v-13q0-45-22-79t-64-56q48-22 74-59zM244.5 543Q202 510 202 448v-33h195q52 0 82.5 19.5T510 486v6q0 40-37.5 62T367 576q-80 0-122.5-33zM523 222q0 34-28 52t-81 18H202v-44q0-63 43.5-95.5T374 120q149 0 149 90v12z"/><glyph glyph-name="uni0433.loclBGR" horiz-adv-x="688" d="M127.5 29.5Q52 71 52 146v10q0 65 53 99.5T276 301l132 13q41 4 59 13t18 25v5q0 37-133 37-77 0-113.5-13.5T202 339v-3H62v3q0 84 74.5 129T348 513q135 0 209-41t74-116v-10q0-62-54-97t-168-45l-129-12q-44-4-62-12.5T200 155v-5q0-43 137-43 82 0 121 13.5t39 41.5v3h141v-3q0-82-79-128T339-12q-136 0-211.5 41.5z"/><glyph glyph-name="uni0434.loclBGR" horiz-adv-x="709" d="M636 501V56q0-240-297-238-141 0-220 51T40 11v6h148v-6q0-29 42-48t106-19q76 0 115.5 27.5T491 51v26q-70-47-165-47-139 0-214 60T37 262v10q0 114 76 177.5T326 513q102 0 172-51l3 39h135zM429 169q40 15 62 41v117q-22 26-62.5 42T341 385q-154 0-154-113v-10q0-55 37.5-81.5T341 154q48 0 88 15z"/><glyph glyph-name="uni0436.loclBGR" horiz-adv-x="1018" d="M999 20V0H840L685 189H581V0H437v189H332L178 0H19v20l192 236L30 480v21h160l147-185h100v380h144V316h99l148 185h160v-21L806 256z"/><glyph glyph-name="uni0437.loclBGR" horiz-adv-x="684" d="M614 115.5Q638 80 638 31v-8q0-97-79-151t-220-54q-140 0-218 62.5T43 55v13h142V55q0-106 160-106 142 0 142 89v7q0 30-27 48t-72 18H242v120h140q86 0 86 64v7q0 80-132 80-76 0-111-25.5T190 275v-14H48v14q0 112 77 175t214 63q128 0 202.5-54T616 312v-8q0-42-19-76t-54-57q47-20 71-55.5z"/><glyph glyph-name="uni0438.loclBGR" horiz-adv-x="711" d="M638 501V0H503l-4 48q-66-58-169-60-129-1-196.5 66.5T66 254v247h145V254q0-65 35.5-99.5T350 120q47 0 85 21.5t58 58.5v301h145z"/><glyph glyph-name="uni0439.loclBGR" horiz-adv-x="711" d="M638 501V0H503l-4 48q-66-58-169-60-129-1-196.5 66.5T66 254v247h145V254q0-65 35.5-99.5T350 120q47 0 85 21.5t58 58.5v301h145zm-450 95.5Q133 637 133 716v8h126v-8q0-22 24-34t69-12q41 0 63.5 12t22.5 34v8h133v-8q0-160-219-160-109 0-164 40.5z"/><glyph glyph-name="uni045D.loclBGR" horiz-adv-x="711" d="M638 501V0H503l-4 48q-66-58-169-60-129-1-196.5 66.5T66 254v247h145V254q0-65 35.5-99.5T350 120q47 0 85 21.5t58 58.5v301h145zM132 740l441-67V553l-441 68v119z"/><glyph glyph-name="uni043A.loclBGR" horiz-adv-x="687" d="M668 21V0H506L334 190H218V0H73v696h145V315h110l164 186h165v-21L459 256z"/><glyph glyph-name="uni043B.loclBGR" horiz-adv-x="697" d="M678 20V0H526L349 369 171 0H19v20l236 481h188z"/><glyph glyph-name="uni043F.loclBGR" horiz-adv-x="711" d="M578 446q67-67 67-199V0H500v247q0 65-35.5 99.5T361 381q-47 0-85-21.5T218 301V0H73v501h135l4-48q66 58 169 60 130 0 197-67z"/><glyph glyph-name="uni0442.loclBGR" horiz-adv-x="1108" d="M980 445.5q66-67.5 66-197.5V0H901v248q0 64-33 98.5T774 381q-48 0-87-23t-59-62q2-30 2-48V0H485v248q0 64-32.5 98.5T359 381q-47 0-85-22t-59-60V0H70v501h135l4-48q69 60 170 60 142 0 204-88 77 88 204 88t193-67.5z"/><glyph glyph-name="uni0446.loclBGR" horiz-adv-x="747" d="M736 127v-260H591V0h-88l-4 47q-67-59-169-59-130 0-197 67T66 254v247h145V254q0-65 35.5-99.5T350 120q47 0 85 21.5t58 58.5v301h145V127h98z"/><glyph glyph-name="uni0448.loclBGR" horiz-adv-x="1108" d="M1038 501V0H903l-4 48q-69-60-170-60-142 0-204 88-77-88-204-88T128 55.5 62 253v248h145V253q0-64 33-98.5t94-34.5q48 0 87 23t59 62q-2 30-2 48v248h145V253q0-64 32.5-98.5T749 120q47 0 85 22t59 60v299h145z"/><glyph glyph-name="uni0449.loclBGR" horiz-adv-x="1144" d="M1133 127v-260H988V0h-85l-4 49q-69-61-169-61-142 0-205 89-77-89-203-89-127 0-193 67T63 252v249h144V252q0-64 33-98t94-34q48 0 87 22.5t60 61.5q-3 23-3 48v249h145V252q0-63 32.5-97.5T749 120q47 0 85.5 22t58.5 59v300h145V127h95z"/><glyph glyph-name="uni044C.loclBGR" horiz-adv-x="704" d="M605 328q59-48 59-132v-11q0-89-67-137T406 0h-66Q73 0 73 208v293h145V376h224q104 0 163-48zm-89-131q0 56-87 56H218v-42q0-45 29.5-65.5T341 125h48q67 0 97 14.5t30 46.5v11z"/><glyph glyph-name="uni044A.loclBGR" horiz-adv-x="835" d="M736 328q59-48 59-132v-11q0-89-67-137T537 0h-66Q204 0 204 208v163H14v130h335V376h224q104 0 163-48zm-89-131q0 56-87 56H349v-42q0-45 29.5-65.5T472 125h48q67 0 97 14.5t30 46.5v11z"/><glyph glyph-name="uni044E.loclBGR" horiz-adv-x="928" d="M811 444.5Q890 376 890 255v-13q0-78-36-135.5t-103-88T593-12q-119 0-194.5 52.5T305 186h-87V0H73v696h145V315h88q18 94 93 146t194 52q139 0 218-68.5zM740 253q0 61-38.5 94.5T593 381q-71 0-109.5-33T445 253v-9q0-59 38.5-91.5T593 120q69 0 108 33t39 91v9z"/><glyph glyph-name="uni0431.loclSRB" horiz-adv-x="689" d="M595 384.5Q655 326 655 237v-10q0-112-81.5-175.5T348-12q-95 0-165 28.5T75.5 99 38 226v11q0 117 102 172-27 22-42 53t-15 68q0 66 48 110t125 48l343 20V576l-313-19q-25-1-38-10t-13-24q0-29 48-37l141-24q111-19 171-77.5zM506 235q0 45-34.5 72T366 346l-78 13q-103-29-103-119v-8q0-57 42.5-88T348 113q75 0 116.5 29.5T506 225v10z"/><glyph glyph-name="uni0430.ss05" horiz-adv-x="693" d="M551.5 454.5Q627 396 627 290V0H492l-5 47q-73-59-205-59-109 0-168.5 39.5T54 140q0 124 172 143l254 28q-8 35-44.5 54T337 384q-61 0-96-17.5T206 318v-3H58v3q0 59 35 103t98.5 68T340 513q136 0 211.5-58.5zM407.5 124q51.5 20 74.5 55v31l-218-24q-30-3-47.5-14T199 144q0-40 90-40 67 0 118.5 20z"/><glyph glyph-name="uni04D1.ss05" horiz-adv-x="693" d="M551.5 454.5Q627 396 627 290V0H492l-5 47q-73-59-205-59-109 0-168.5 39.5T54 140q0 124 172 143l254 28q-8 35-44.5 54T337 384q-61 0-96-17.5T206 318v-3H58v3q0 59 35 103t98.5 68T340 513q136 0 211.5-58.5zM407.5 124q51.5 20 74.5 55v31l-218-24q-30-3-47.5-14T199 144q0-40 90-40 67 0 118.5 20zM182 596.5Q127 637 127 716v8h126v-8q0-22 24-34t69-12q41 0 63.5 12t22.5 34v8h133v-8q0-160-219-160-109 0-164 40.5z"/><glyph glyph-name="uni04D3.ss05" horiz-adv-x="693" d="M551.5 454.5Q627 396 627 290V0H492l-5 47q-73-59-205-59-109 0-168.5 39.5T54 140q0 124 172 143l254 28q-8 35-44.5 54T337 384q-61 0-96-17.5T206 318v-3H58v3q0 59 35 103t98.5 68T340 513q136 0 211.5-58.5zM407.5 124q51.5 20 74.5 55v31l-218-24q-30-3-47.5-14T199 144q0-40 90-40 67 0 118.5 20zM155 585.5Q131 608 131 643q0 36 24 58t62 22q36 0 59.5-22t23.5-58q0-35-23.5-57.5T217 563q-38 0-62 22.5zm260 0Q391 608 391 643q0 36 23.5 58t61.5 22 61-22 23-58q0-35-23.5-57.5T476 563t-61 22.5z"/><glyph glyph-name="uni0431.ss08" horiz-adv-x="704" d="M594 407.5Q666 347 666 241v-18q0-110-80.5-172.5T364-12q-149 0-230 79T53 292v72q0 149 76 224t245 93l252 27V576l-247-29q-71-8-111.5-23.5t-58-43T192 408v-5q40 32 92.5 48.5T397 468q125 0 197-60.5zM516 234q0 112-151 112-108 0-166-60v-34q0-69 41-104.5T360 112q73 0 114.5 27.5T516 216v18z"/><glyph glyph-name="Alpha" unicode="Α" horiz-adv-x="770" d="M759 23V0H609l-60 136H221L161 0H11v23l291 633h166zM492 266L385 510 278 266h214z"/><glyph glyph-name="Beta" unicode="Β" horiz-adv-x="785" d="M709 279q24-36 24-84v-11q0-85-66-134.5T488 0H78v656h391q116 0 179.5-45.5T712 483v-11q0-88-73-136 46-21 70-57zM228 525V393h240q93 0 93 61v10q0 30-23.5 45.5T469 525H228zm352-319q0 62-94 62H228V131h258q45 0 69.5 17t24.5 48v10z"/><glyph glyph-name="Gamma" unicode="Γ" horiz-adv-x="687" d="M673 656V521H228V0H78v656h595z"/><glyph glyph-name="uni0394" unicode="Δ" horiz-adv-x="773" d="M733 134V0H40v134l255 522h183zm-537 1h381L387 533z"/><glyph glyph-name="Epsilon" unicode="Ε" horiz-adv-x="723" d="M661 656V524H228V394h413V263H228V132h433V0H78v656h583z"/><glyph glyph-name="Zeta" unicode="Ζ" horiz-adv-x="696" d="M654 522L242 134h412V0H42v134l412 388H42v134h612V522z"/><glyph glyph-name="Eta" unicode="Η" horiz-adv-x="819" d="M228 656V395h363v261h150V0H591v261H228V0H78v656h150z"/><glyph glyph-name="Theta" unicode="Θ" horiz-adv-x="877" d="M645 627q88-41 136-117t48-178v-9q0-102-48-177.5T645 29 439-12 233 29 96.5 146 48 323v9q0 101 48.5 177t137 117.5T439 668q118 0 206-41zM282 498.5Q223 462 207 393h463q-16 69-75 105.5T439 535q-98 0-157-36.5zM592.5 158Q653 195 670 263H206q16-70 75.5-106T439 121q93 0 153.5 37z"/><glyph glyph-name="Iota" unicode="Ι" horiz-adv-x="299" d="M225 656V0H74v656h151z"/><glyph glyph-name="Kappa" unicode="Κ" horiz-adv-x="813" d="M767 633L464 366 753 23V0H577L347 274 228 170V0H78v656h150V350l349 306h190v-23z"/><glyph glyph-name="Lambda" unicode="Λ" horiz-adv-x="770" d="M759 23V0H605L385 509 165 0H11v23l287 633h174z"/><glyph glyph-name="Mu" unicode="Μ" horiz-adv-x="1029" d="M951 0H802v452L590 0H439L227 454V0H78v656h207l230-487 229 487h207V0z"/><glyph glyph-name="Nu" unicode="Ν" horiz-adv-x="819" d="M741 656V0H597L222 445V0H78v656h144l375-444v444h144z"/><glyph glyph-name="Xi" unicode="Ξ" horiz-adv-x="790" d="M467 524V394h241V263H467V132h261V0H62v132h262v131H82v131h242v130H62v132h666V524H467z"/><glyph glyph-name="Omicron" unicode="Ο" horiz-adv-x="877" d="M233 29Q145 70 96.5 146T48 323v9q0 101 48.5 177t137 117.5T439 668q118 0 206-41.5T781 509t48-177v-9q0-101-48-177T645 29 439-12 233 29zm382.5 148Q676 227 676 321v12q0 94-61.5 145T439 529q-115 0-176.5-51T201 333v-12q0-94 61.5-144T439 127q116 0 176.5 50z"/><glyph glyph-name="Pi" unicode="Π" horiz-adv-x="799" d="M721 656V0H571v521H228V0H78v656h643z"/><glyph glyph-name="Rho" unicode="Ρ" horiz-adv-x="787" d="M494 656q116 0 183-56t67-153v-11q0-98-67-154t-183-56H228V0H78v656h416zm71-277.5q26 19.5 26 57.5v11q0 37-26 56.5T490 523H228V359h262q49 0 75 19.5z"/><glyph glyph-name="Sigma" unicode="Σ" horiz-adv-x="703" d="M653 521H290l231-148v-89L290 135h363V0H52v134l305 194L52 522v134h601V521z"/><glyph glyph-name="Tau" unicode="Τ" horiz-adv-x="691" d="M14 521v135h663V521H421V0H270v521H14z"/><glyph glyph-name="Upsilon" unicode="Υ" horiz-adv-x="726" d="M727 656v-23L439 255V0H288v255L-1 633v23h163l201-265 201 265h163z"/><glyph glyph-name="Phi" unicode="Φ" horiz-adv-x="1077" d="M872 573.5q76-32.5 116.5-94T1029 334v-6q0-86-40.5-148.5T872 83.5 692 50h-78v-90H463v90h-79q-104 0-179.5 33.5t-116 96T48 328v6q0 84 40.5 145.5t116 94T384 606h79v90h151v-90h78q104 0 180-32.5zM246 219q45-35 138-35h81v288h-81q-183 0-183-136v-10q0-72 45-107zm630 117q0 68-45.5 102T692 472h-80V184h80q94 0 139 35t45 107v10z"/><glyph glyph-name="Chi" unicode="Χ" horiz-adv-x="819" d="M773 633L515 328 773 23V0H597L410 226 222 0H46v23l258 305L46 633v23h176l188-226 188 226h175v-23z"/><glyph glyph-name="Psi" unicode="Ψ" horiz-adv-x="1057" d="M1003 656V412q0-122-84-189t-235-67h-80V0H453v156h-79q-151 0-235 67T55 412v244h150V423q0-68 39.5-100T366 291h87v365h151V291h88q82 0 121 32.5t39 99.5v233h151z"/><glyph glyph-name="uni03A9" unicode="Ω" horiz-adv-x="880" d="M781 232.5Q732 175 642 149v-24h188V0H500v237q85 10 131 44.5t46 87.5v15q0 69-60.5 105T440 525t-176.5-36T203 384v-15q0-53 46-87.5T380 237V0H50v125h188v24q-90 26-139 83.5T50 372v16q0 85 47.5 148.5T233 634t207 34 207-34 135.5-97.5T830 388v-16q0-82-49-139.5z"/><glyph glyph-name="Alphatonos" unicode="Ά" horiz-adv-x="770" d="M759 23V0H609l-60 136H221L161 0H11v23l291 633h166zM492 266L385 510 278 266h214zM71 656L51 394H-79l20 262H71z"/><glyph glyph-name="Epsilontonos" unicode="Έ" horiz-adv-x="723" d="M661 656V524H228V394h413V263H228V132h433V0H78v656h583zm-743 0l-20-262h-130l20 262h130z"/><glyph glyph-name="Etatonos" unicode="Ή" horiz-adv-x="819" d="M228 656V395h363v261h150V0H591v261H228V0H78v656h150zm-310 0l-20-262h-130l20 262h130z"/><glyph glyph-name="Iotatonos" unicode="Ί" horiz-adv-x="299" d="M225 656V0H74v656h151zm-318 0l-20-262h-130l20 262h130z"/><glyph glyph-name="Omicrontonos" unicode="Ό" horiz-adv-x="877" d="M233 29Q145 70 96.5 146T48 323v9q0 101 48.5 177t137 117.5T439 668q118 0 206-41.5T781 509t48-177v-9q0-101-48-177T645 29 439-12 233 29zm382.5 148Q676 227 676 321v12q0 94-61.5 145T439 529q-115 0-176.5-51T201 333v-12q0-94 61.5-144T439 127q116 0 176.5 50zM-29 656l-20-262h-130l20 262h130z"/><glyph glyph-name="Upsilontonos" unicode="Ύ" horiz-adv-x="726" d="M727 656v-23L439 255V0H288v255L-1 633v23h163l201-265 201 265h163zm-823 0l-20-262h-130l20 262h130z"/><glyph glyph-name="Omegatonos" unicode="Ώ" horiz-adv-x="880" d="M781 232.5Q732 175 642 149v-24h188V0H500v237q85 10 131 44.5t46 87.5v15q0 69-60.5 105T440 525t-176.5-36T203 384v-15q0-53 46-87.5T380 237V0H50v125h188v24q-90 26-139 83.5T50 372v16q0 85 47.5 148.5T233 634t207 34 207-34 135.5-97.5T830 388v-16q0-82-49-139.5zM-16 656l-20-262h-130l20 262h130z"/><glyph glyph-name="Iotadieresis" unicode="Ϊ" horiz-adv-x="299" d="M225 656V0H74v656h151zm-266 84.5Q-65 763-65 798q0 36 24 58t62 22q36 0 59.5-22t23.5-58q0-35-23.5-57.5T21 718q-38 0-62 22.5zm260 0Q195 763 195 798q0 36 23.5 58t61.5 22 61-22 23-58q0-35-23.5-57.5T280 718t-61 22.5z"/><glyph glyph-name="Upsilondieresis" unicode="Ϋ" horiz-adv-x="726" d="M727 656v-23L439 255V0H288v255L-1 633v23h163l201-265 201 265h163zm-555 84.5Q148 763 148 798q0 36 24 58t62 22q36 0 59.5-22t23.5-58q0-35-23.5-57.5T234 718q-38 0-62 22.5zm260 0Q408 763 408 798q0 36 23.5 58t61.5 22 61-22 23-58q0-35-23.5-57.5T493 718t-61 22.5z"/><glyph glyph-name="Iota.ss07" horiz-adv-x="701" d="M275 134v388H46v134h609V522H426V134h229V0H46v134h229z"/><glyph glyph-name="Iotatonos.ss07" horiz-adv-x="701" d="M275 134v388H46v134h609V522H426V134h229V0H46v134h229zM-88 656l-20-262h-130l20 262h130z"/><glyph glyph-name="Iotadieresis.ss07" horiz-adv-x="701" d="M275 134v388H46v134h609V522H426V134h229V0H46v134h229zM160 740.5Q136 763 136 798q0 36 24 58t62 22q36 0 59.5-22t23.5-58q0-35-23.5-57.5T222 718q-38 0-62 22.5zm260 0Q396 763 396 798q0 36 23.5 58t61.5 22 61-22 23-58q0-35-23.5-57.5T481 718t-61 22.5z"/><glyph glyph-name="alpha" unicode="α" horiz-adv-x="737" d="M730 127V0h-85q-44 0-76.5 14T517 55q-70-67-190-67-86 0-151.5 32T74 110.5 38 246v10q0 77 36 135t101 90 151 32q106 0 175-55l4 43h135V167q0-40 46-40h44zm-297.5 8q39.5 15 62.5 42v149q-22 26-61.5 40.5T345 381q-74 0-115.5-33T188 256v-10q0-59 41.5-92.5T345 120q48 0 87.5 15z"/><glyph glyph-name="beta" unicode="β" horiz-adv-x="723" d="M685 206v-12q0-97-72.5-151.5T409-12q-115 0-191 47v-205H73v628q0 120 78 185t223 65q90 0 157.5-25.5T635 610t36-111v-12q0-95-86-136 100-43 100-145zm-148 6q0 38-24 56t-76 18H324v122h96q103 0 103 74v8q0 86-143 86-162 0-162-120V179q24-29 69-44t106-15q71 0 107.5 21.5T537 205v7z"/><glyph glyph-name="gamma" unicode="γ" horiz-adv-x="695" d="M677 480L420-17v-153H276v153L18 480v21h151l179-351 178 351h151v-21z"/><glyph glyph-name="delta" unicode="δ" horiz-adv-x="685" d="M611.5 360Q647 310 647 242v-11q0-74-37-129T504.5 17.5 343-12 181 17.5 75 102 38 232v11q0 88 51 143.5T237 462L64 566v130h532V569H302l191-111q83-48 118.5-98zM497 241q0 38-21.5 64.5T392 369h-15q-93 0-141-31.5T188 245v-8q0-59 41-92t114-33 113.5 32 40.5 89v8z"/><glyph glyph-name="epsilon" unicode="ε" horiz-adv-x="684" d="M498 303v6q0 33-14.5 51.5t-47 26.5-90.5 8q-137 0-137-44v-6q0-38 77-38h142V197H276q-41 0-60-9t-19-29v-6q0-23 35-35.5T333 105q94 0 129.5 20.5T498 191v6h143v-6q0-103-75.5-153T334-12q-141 0-214.5 39T46 141v7q0 34 19.5 61.5T122 254q-62 37-62 98v7q0 74 73 114t206 40q149 0 225.5-51.5T641 309v-6H498z"/><glyph glyph-name="zeta" unicode="ζ" horiz-adv-x="599" d="M598-18v-13q0-71-44.5-105T420-170H289v117h128q38 0 38 24v5q0 24-38 24H312Q178 0 106.5 52.5T35 203v13q0 44 17.5 81.5t58 76.5T222 463l152 106H48v127h546V572L313 373q-54-38-81-62.5t-37.5-44T184 222v-8q0-42 33.5-64.5T313 127h107q178 0 178-145z"/><glyph glyph-name="eta" unicode="η" horiz-adv-x="733" d="M601.5 445Q667 377 667 247v-417H522v417q0 65-33.5 99.5T393 381q-49 0-88-21t-59-59L245 0H101v329q0 42-48 42H7v130h87q91 0 129-55 67 67 188 67 125 0 190.5-68z"/><glyph glyph-name="theta" unicode="θ" horiz-adv-x="675" d="M557 600.5Q637 532 637 412V242q0-78-36-135.5t-103.5-88T339-12 180 19 75 107 38 242v170q0 79 36.5 137T179 638t160 31q138 0 218-68.5zm-334.5-91Q181 476 181 415v-24h314v24q0 60-42.5 94T338 543q-74 0-115.5-33.5zm230-360.5q42.5 34 42.5 93v25H181v-25q0-60 41.5-93.5T338 115q72 0 114.5 34z"/><glyph glyph-name="iota" unicode="ι" horiz-adv-x="329" d="M115 40Q71 80 71 153v348h144V173q0-24 12-35t39-11h53V0h-80q-80 0-124 40z"/><glyph glyph-name="kappa" unicode="κ" horiz-adv-x="681" d="M669 20V0H505L332 199 218 97V0H73v501h145V273l263 228h177v-21L437 285z"/><glyph glyph-name="lambda" unicode="λ" horiz-adv-x="705" d="M686 20V0H531L357 342 183 0H28v20l248 480-10 20q-15 28-32 38.5T187 569H48v127h148q78 0 122-24t75-85z"/><glyph glyph-name="uni03BC" unicode="μ" horiz-adv-x="740" d="M736 127V0h-86q-47 0-81 15.5T517 60q-26-35-67-53.5T357-12q-84 0-139 44v-202H73v671h145V254q0-64 35-99t100-35q49 0 86 20.5t59 58.5v302h144V169q0-42 49-42h45z"/><glyph glyph-name="nu" unicode="ν" horiz-adv-x="697" d="M678 501v-21L443 0H255L19 480v21h152l178-370 177 370h152z"/><glyph glyph-name="xi" unicode="ξ" horiz-adv-x="663" d="M506 481v4q0 43-40 67t-112 24q-67 0-105.5-22.5T210 491v-9q0-37 26-56.5t74-19.5h164V283H288q-47 0-71.5-18T192 213v-9q0-40 36-58.5T343 127h127q178 0 178-145v-13q0-71-43.5-105T470-170H340v117h127q38 0 38 24v5q0 24-38 24H343Q200 0 121 50.5T42 192v12q0 105 97 147-79 46-79 140v13q0 60 37 106.5t104 72T354 708q90 0 158-27.5t105.5-78T655 485v-4H506z"/><glyph glyph-name="omicron" unicode="ο" horiz-adv-x="685" d="M181 18.5q-69 30.5-106 88T38 242v13q0 80 36.5 138T180 482t164 31q94 0 162-31t104.5-89T647 255v-13q0-78-36.5-135.5T506 18.5 344-12 181 18.5zM456.5 152q40.5 32 40.5 91v11q0 61-40 94t-114 33q-75 0-115-32.5T188 254v-11q0-59 40.5-91T343 120q73 0 113.5 32z"/><glyph glyph-name="pi" unicode="π" horiz-adv-x="814" d="M11 371v130h795V371H640V180q0-27 13-40t41-13h99V0H678q-87 0-135 45t-48 127v199H302V0H157v371H11z"/><glyph glyph-name="rho" unicode="ρ" horiz-adv-x="704" d="M525 482q68-31 104.5-89.5T666 255v-11q0-75-35.5-133t-100-90.5T382-12q-101 0-170 49v-207H66v426q0 121 79 189t219 68q93 0 161-31zm-9-227q0 60-39.5 93T364 381q-74 0-113-33t-39-94v-77q23-26 63.5-41.5T365 120q72 0 111.5 32.5T516 244v11z"/><glyph glyph-name="uni03C2" unicode="ς" horiz-adv-x="665" d="M448-53q38 0 38 24v5q0 24-38 24H340Q194 0 116 62.5T38 241v19q0 76 37 133.5T180 482t159 31q87 0 154.5-29t105-81T636 284v-9H488v9q0 43-41 70t-107 27q-73 0-112.5-31T188 260v-19q0-56 38.5-85T341 127h110q178 0 178-145v-13q0-71-43.5-105T451-170H320v117h128z"/><glyph glyph-name="sigma" unicode="σ" horiz-adv-x="735" d="M734 371H594q53-44 53-130v-13q0-73-37-127T504.5 17.5 344-12q-94 0-163 30.5t-106 88T38 242v13q0 76 37 131.5t105.5 85T343 501h391V371zm-252-56q-15 28-49 56h-90q-76 0-115.5-31T188 249v-9q0-59 40.5-91.5T343 116q73 0 113.5 32.5T497 240v9q0 38-15 66z"/><glyph glyph-name="tau" unicode="τ" horiz-adv-x="572" d="M229 46q-49 46-49 127v198H11v130h538V371H324V183q0-27 15.5-41.5T384 127h135V0H365q-87 0-136 46z"/><glyph glyph-name="upsilon" unicode="υ" horiz-adv-x="704" d="M142.5 56.5Q66 125 66 245v256h145V244q0-62 37-95t107-33q67 0 102.5 33t35.5 95v257h145V245q0-122-74.5-189.5T355-12q-136 0-212.5 68.5z"/><glyph glyph-name="phi" unicode="φ" horiz-adv-x="968" d="M849.5 436.5Q930 372 930 257v-14q0-115-80.5-179T624 0h-68v-170H412V0h-68Q199 0 118.5 64T38 243v14q0 115 80.5 179.5T344 501h68v195h144V501h68q145 0 225.5-64.5zM413 127v246h-77q-73 0-111.5-30.5T186 255v-10q0-56 39-87t111-31h77zm369 128q0 57-38.5 87.5T632 373h-77V127h77q72 0 111 31t39 87v10z"/><glyph glyph-name="chi" unicode="χ" horiz-adv-x="656" d="M636-150v-20H477L327 65 178-170H19v20l211 317L23 480v21h158l146-231 145 231h159v-21L424 167z"/><glyph glyph-name="psi" unicode="ψ" horiz-adv-x="898" d="M832 501V249q0-118-79.5-183.5T529 0h-8v-170H377V0h-8Q225 0 145.5 65.5T66 249v252h145V260q0-66 37.5-98T361 130h16v566h144V130h16q76 0 113 32t37 98v241h145z"/><glyph glyph-name="omega" unicode="ω" horiz-adv-x="968" d="M852.5 436Q930 371 930 249v-13q0-74-33-130t-92.5-87T666-12q-59 0-105.5 18.5T484 61q-30-36-76.5-54.5T302-12q-79 0-138.5 31T71 106 38 236v13q0 122 77.5 187T336 501h23V373h-30q-143 0-143-121v-12q0-58 34.5-90.5T315 117q33 0 58 11.5t39 33.5v205h144V162q14-22 39-33.5t58-11.5q60 0 94.5 32.5T782 240v12q0 121-143 121h-30v128h23q143 0 220.5-65z"/><glyph glyph-name="iotatonos" unicode="ί" horiz-adv-x="329" d="M115 40Q71 80 71 153v348h144V173q0-24 12-35t39-11h53V0h-80q-80 0-124 40zm112 777l-20-262H77l20 262h130z"/><glyph glyph-name="iotadieresis" unicode="ϊ" horiz-adv-x="329" d="M115 40Q71 80 71 153v348h144V173q0-24 12-35t39-11h53V0h-80q-80 0-124 40zM-47 585.5Q-71 608-71 643q0 36 24 58t62 22q36 0 59.5-22T98 643q0-35-23.5-57.5T15 563q-38 0-62 22.5zm260 0Q189 608 189 643q0 36 23.5 58t61.5 22 61-22 23-58q0-35-23.5-57.5T274 563t-61 22.5z"/><glyph glyph-name="iotadieresistonos" unicode="ΐ" horiz-adv-x="329" d="M115 40Q71 80 71 153v348h144V173q0-24 12-35t39-11h53V0h-80q-80 0-124 40zm106 777l-20-262H71l20 262h130zm-332.5-231.5Q-135 608-135 643q0 36 23 58t61 22q37 0 59.5-22T31 643q0-35-22.5-57.5T-51 563t-60.5 22.5zm391.5 0Q257 608 257 643q0 36 23 58t60 22 59.5-22 22.5-58q0-35-22.5-57.5T340 563t-60 22.5z"/><glyph glyph-name="upsilontonos" unicode="ύ" horiz-adv-x="704" d="M142.5 56.5Q66 125 66 245v256h145V244q0-62 37-95t107-33q67 0 102.5 33t35.5 95v257h145V245q0-122-74.5-189.5T355-12q-136 0-212.5 68.5zM437 817l-20-262H287l20 262h130z"/><glyph glyph-name="upsilondieresis" unicode="ϋ" horiz-adv-x="704" d="M142.5 56.5Q66 125 66 245v256h145V244q0-62 37-95t107-33q67 0 102.5 33t35.5 95v257h145V245q0-122-74.5-189.5T355-12q-136 0-212.5 68.5zm21.5 529Q140 608 140 643q0 36 24 58t62 22q36 0 59.5-22t23.5-58q0-35-23.5-57.5T226 563q-38 0-62 22.5zm260 0Q400 608 400 643q0 36 23.5 58t61.5 22 61-22 23-58q0-35-23.5-57.5T485 563t-61 22.5z"/><glyph glyph-name="upsilondieresistonos" unicode="ΰ" horiz-adv-x="704" d="M142.5 56.5Q66 125 66 245v256h145V244q0-62 37-95t107-33q67 0 102.5 33t35.5 95v257h145V245q0-122-74.5-189.5T355-12q-136 0-212.5 68.5zM432 817l-20-262H282l20 262h130zM99.5 585.5Q76 608 76 643q0 36 23 58t61 22q37 0 59.5-22t22.5-58q0-35-22.5-57.5T160 563t-60.5 22.5zm391.5 0Q468 608 468 643q0 36 23 58t60 22 59.5-22 22.5-58q0-35-22.5-57.5T551 563t-60 22.5z"/><glyph glyph-name="omicrontonos" unicode="ό" horiz-adv-x="685" d="M181 18.5q-69 30.5-106 88T38 242v13q0 80 36.5 138T180 482t164 31q94 0 162-31t104.5-89T647 255v-13q0-78-36.5-135.5T506 18.5 344-12 181 18.5zM456.5 152q40.5 32 40.5 91v11q0 61-40 94t-114 33q-75 0-115-32.5T188 254v-11q0-59 40.5-91T343 120q73 0 113.5 32zM426 817l-20-262H276l20 262h130z"/><glyph glyph-name="omegatonos" unicode="ώ" horiz-adv-x="968" d="M852.5 436Q930 371 930 249v-13q0-74-33-130t-92.5-87T666-12q-59 0-105.5 18.5T484 61q-30-36-76.5-54.5T302-12q-79 0-138.5 31T71 106 38 236v13q0 122 77.5 187T336 501h23V373h-30q-143 0-143-121v-12q0-58 34.5-90.5T315 117q33 0 58 11.5t39 33.5v205h144V162q14-22 39-33.5t58-11.5q60 0 94.5 32.5T782 240v12q0 121-143 121h-30v128h23q143 0 220.5-65zM567 817l-20-262H417l20 262h130z"/><glyph glyph-name="alphatonos" unicode="ά" horiz-adv-x="737" d="M730 127V0h-85q-44 0-76.5 14T517 55q-70-67-190-67-86 0-151.5 32T74 110.5 38 246v10q0 77 36 135t101 90 151 32q106 0 175-55l4 43h135V167q0-40 46-40h44zm-297.5 8q39.5 15 62.5 42v149q-22 26-61.5 40.5T345 381q-74 0-115.5-33T188 256v-10q0-59 41.5-92.5T345 120q48 0 87.5 15zM449 817l-20-262H299l20 262h130z"/><glyph glyph-name="epsilontonos" unicode="έ" horiz-adv-x="684" d="M498 303v6q0 33-14.5 51.5t-47 26.5-90.5 8q-137 0-137-44v-6q0-38 77-38h142V197H276q-41 0-60-9t-19-29v-6q0-23 35-35.5T333 105q94 0 129.5 20.5T498 191v6h143v-6q0-103-75.5-153T334-12q-141 0-214.5 39T46 141v7q0 34 19.5 61.5T122 254q-62 37-62 98v7q0 74 73 114t206 40q149 0 225.5-51.5T641 309v-6H498zm-72 514l-20-262H276l20 262h130z"/><glyph glyph-name="etatonos" unicode="ή" horiz-adv-x="733" d="M601.5 445Q667 377 667 247v-417H522v417q0 65-33.5 99.5T393 381q-49 0-88-21t-59-59L245 0H101v329q0 42-48 42H7v130h87q91 0 129-55 67 67 188 67 125 0 190.5-68zM469 817l-20-262H319l20 262h130z"/><glyph glyph-name="zeta.ss09" horiz-adv-x="599" d="M598-37v-106H451v92q0 26-12 38.5T401 0h-89Q178 0 106.5 52.5T35 203v13q0 44 17.5 81.5t58 76.5T222 463l152 106H48v127h546V572L313 373q-54-38-81-62.5t-37.5-44T184 222v-8q0-42 33.5-64.5T313 127h119q166 0 166-164z"/><glyph glyph-name="xi.ss09" horiz-adv-x="663" d="M506 481v4q0 43-40 67t-112 24q-67 0-105.5-22.5T210 491v-9q0-36 26-56t74-20h164V283H288q-47 0-71.5-18T192 212v-7q0-40 36.5-59T343 127h136q169 0 169-161v-109H502v92q0 51-54 51H343Q200 0 121 50.5T42 192v12q0 103 96 146-78 46-78 138v19q0 59 37 105t103.5 71T354 708q90 0 158-27.5t105.5-78T655 485v-4H506z"/><glyph glyph-name="uni03C2.ss09" horiz-adv-x="665" d="M469-12.5Q456 0 428 0h-88Q194 0 116 62.5T38 241v19q0 76 37 133.5T180 482t159 31q87 0 154.5-29t105-81T636 284v-9H488v9q0 43-41 70t-107 27q-73 0-112.5-31T188 260v-19q0-114 152-114h119q170 0 170-161v-109H482v92q0 26-13 38.5z"/><glyph glyph-name="zero" unicode="0" horiz-adv-x="817" d="M223 26Q142 64 97 132.5T52 290v75q0 90 45 158.5T223 630t187 38q105 0 185.5-38t125-106.5T765 365v-75q0-90-44-158.5t-124.5-106T410-12 223 26zm340 142q53 41 53 119v80q0 77-54 119.5T409 529t-153.5-42.5T201 367v-80q0-77 54-118.5T410 127q100 0 153 41z"/><glyph glyph-name="one" unicode="1" horiz-adv-x="519" d="M403 0H253v465q-42-18-100-18H47v140h99q56 0 81.5 16.5T253 656h150V0z"/><glyph glyph-name="two" unicode="2" horiz-adv-x="755" d="M699 127V0H70v118l315 177q64 36 94.5 58t41.5 41 11 45v9q0 43-39.5 65.5T379 536q-78 0-118.5-26.5T220 432v-20H72v21q0 115 78 175t226 60q145 0 226-56.5T683 455v-10q0-49-20-88t-67.5-77.5T463 193l-118-66h354z"/><glyph glyph-name="three" unicode="3" horiz-adv-x="790" d="M668.5 335.5Q728 288 728 209v-12q0-103-85-156T393-12q-164 1-248.5 56T60 206v6h149v-6q0-41 47.5-63T394 121q183 0 183 78v11q0 36-45 53.5T394 281H272v117l205 127H73v131h637V525L495 396q114-13 173.5-60.5z"/><glyph glyph-name="four" unicode="4" horiz-adv-x="898" d="M836 133H687V0H538v133H66v134q67 107 109.5 199T244 656h159v-23q-54-182-162-366h297v275h149V267h149V133z"/><glyph glyph-name="five" unicode="5" horiz-adv-x="801" d="M653.5 376Q739 320 739 220v-12q0-108-85.5-164T404-12q-165 0-249 50T71 187v7h149v-7q0-32 47-49t136-17q90 0 137.5 22.5T588 208v11q0 39-49.5 60.5T399 301q-81 0-128.5-14T218 248H71l21 408h604V521H220l-6-129q74 40 199 40 155 0 240.5-56z"/><glyph glyph-name="six" unicode="6" horiz-adv-x="786" d="M660.5 365.5Q744 313 744 216v-10q0-104-88.5-161T408-12q-111 0-191 31T94.5 108.5 52 248v144q0 131 93 203.5T407 668q154 0 240-57t86-160v-5H585v5q0 40-47 62t-131 22q-101 0-153.5-35.5T201 394v-30q79 54 223 54 153 0 236.5-52.5zM593 212q0 40-43.5 59T416 290q-77 0-132.5-14.5T201 234q5-55 58.5-84T412 121q88 0 134.5 20.5T593 203v9z"/><glyph glyph-name="seven" unicode="7" horiz-adv-x="757" d="M693 656V521Q557 382 481.5 252T406 25V0H239v25q0 102 71.5 231.5T513 521H52v135h641z"/><glyph glyph-name="eight" unicode="8" horiz-adv-x="853" d="M787 204v-11q0-205-360-205T67 193v11q0 95 103 140-73 44-73 121v11q0 58 40.5 101.5t115 67T427 668t174.5-23.5 115-67T757 476v-11q0-77-73-121 103-45 103-140zM243 464q0-40 41-56t143-16q101 0 142.5 16t41.5 56v6q0 37-43 53.5T427 540t-141-16.5-43-53.5v-6zm394-270q0 26-20 41.5t-65 22-125 6.5-125-6.5-65-22-20-41.5v-6q0-39 48-55.5T427 116t162 16.5 48 55.5v6z"/><glyph glyph-name="nine" unicode="9" horiz-adv-x="786" d="M569 637.5q80-31.5 122.5-90T734 409V264q0-131-93-203.5T379-12q-154 0-240 57T53 205v6h148v-6q0-40 47-62t131-22q101 0 153.5 36T585 262v30q-79-54-223-54-153 0-236.5 52.5T42 440v10q0 104 88.5 161.5T378 669q111 0 191-31.5zm-66.5-257Q558 395 585 422q-5 55-59 84.5T374 536q-88 0-134.5-21T193 453v-8q0-40 43.5-59.5T370 366q77 0 132.5 14.5z"/><glyph glyph-name="uni24FF" unicode="⓿" horiz-adv-x="853" d="M295 140q-58 26-90 73t-32 108v15q0 62 31.5 109.5t89.5 73T429 544q76 0 133-25.5t88-73T681 336v-15q0-62-31-109t-88-72.5T429 114t-134 26zm224.5 115q30.5 23 30.5 67v13q0 45-31 68t-91 23q-61 0-92.5-23.5T304 335v-13q0-44 31.5-67t92.5-23 91.5 23zM647 28.5q94 41.5 145 118T843 325v5q0 102-51 179T647 627.5 428 669t-220-42T61.5 508.5 10 330v-5q0-102 51.5-178.5T208 28.5 428-13t219 41.5z"/><glyph glyph-name="uni2776" unicode="❶" horiz-adv-x="853" d="M382 228v170q-26-8-56-8H206v109h118q31 0 44.5 8t13.5 28h132V228h153V122H206v106h176zM647 28.5q94 41.5 145 118T843 325v5q0 102-51 179T647 627.5 428 669t-220-42T61.5 508.5 10 330v-5q0-102 51.5-178.5T208 28.5 428-13t219 41.5z"/><glyph glyph-name="uni2777" unicode="❷" horiz-adv-x="853" d="M446 327q43 19 59.5 32.5T522 389v5q0 21-24 32t-69 11q-48 0-74-14t-26-40v-12H201v12q0 78 58.5 119.5T427 544q106 0 166.5-37.5T654 404v-8q0-45-32.5-79T516 252l-71-30h217V122H201v97zM647 28.5q94 41.5 145 118T843 325v5q0 102-51 179T647 627.5 428 669t-220-42T61.5 508.5 10 330v-5q0-102 51.5-178.5T208 28.5 428-13t219 41.5z"/><glyph glyph-name="uni2778" unicode="❸" horiz-adv-x="853" d="M187 259v3h129v-3q0-40 111-40 110 0 110 36v5q0 16-26 23.5t-85 7.5h-91v77l122 63H196v105h460V431l-127-63 14-2q126-19 126-111v-7q0-66-61.5-100T427 114q-240 0-240 145zM647 28.5q94 41.5 145 118T843 325v5q0 102-51 179T647 627.5 428 669t-220-42T61.5 508.5 10 330v-5q0-102 51.5-178.5T208 28.5 428-13t219 41.5z"/><glyph glyph-name="uni2779" unicode="❹" horiz-adv-x="853" d="M173 194v106q70 112 97 236h138v-19q-32-125-83-217h144v166h133V300h88V194h-88v-72H469v72H173zM647 28.5q94 41.5 145 118T843 325v5q0 102-51 179T647 627.5 428 669t-220-42T61.5 508.5 10 330v-5q0-102 51.5-178.5T208 28.5 428-13t219 41.5z"/><glyph glyph-name="uni277A" unicode="❺" horiz-adv-x="853" d="M251 148.5Q192 183 192 253v3h128v-2q0-36 111-36 53 0 81 10.5t28 29.5v4q0 36-120 36-38 0-64.5-5.5T321 279H193l14 257h435V433H317l-4-62q52 26 136 26 105 0 163.5-35.5T671 262v-5q0-143-239-143-122 0-181 34.5zm396-120q94 41.5 145 118T843 325v5q0 102-51 179T647 627.5 428 669t-220-42T61.5 508.5 10 330v-5q0-102 51.5-178.5T208 28.5 428-13t219 41.5z"/><glyph glyph-name="uni277B" unicode="❻" horiz-adv-x="853" d="M244.5 160Q177 206 177 291v65q0 91 67.5 139.5T437 544q112 0 174-38t62-107v-3H545v3q0 20-30.5 32T434 443q-60 0-93-18.5T308 373v-15q52 28 142 28 110 0 170-33t60-94v-4q0-67-63-104t-179-37q-126 0-193.5 46zM547 252v4q0 19-24 27.5t-80 8.5q-104 0-135-25v-4q0-22 36.5-36t93.5-14q109 0 109 39zM647 28.5q94 41.5 145 118T843 325v5q0 102-51 179T647 627.5 428 669t-220-42T61.5 508.5 10 330v-5q0-102 51.5-178.5T208 28.5 428-13t219 41.5z"/><glyph glyph-name="uni277C" unicode="❼" horiz-adv-x="853" d="M363 278q49 77 140 151H189v107h470V429q-92-75-144.5-153T462 139v-17H314v17q0 62 49 139zM647 28.5q94 41.5 145 118T843 325v5q0 102-51 179T647 627.5 428 669t-220-42T61.5 508.5 10 330v-5q0-102 51.5-178.5T208 28.5 428-13t219 41.5z"/><glyph glyph-name="uni277D" unicode="❽" horiz-adv-x="853" d="M240.5 146Q179 178 179 245v12q0 55 60 83-39 29-39 70v12q0 57 61 89.5T428 544q104 0 165.5-33t61.5-89v-12q0-41-39-70 59-28 59-83v-12q0-67-61-99t-186-32q-126 0-187.5 32zm269 237q22.5 7 22.5 24v6q0 19-23 26.5t-81 7.5q-57 0-81.5-8T322 413v-6q0-17 23-24t83-7q59 0 81.5 7zm8.5-162.5q26 7.5 26 26.5v6q0 17-25 23.5t-91 6.5-91.5-6.5T311 253v-6q0-19 26-26.5t91-7.5q64 0 90 7.5zm129-192q94 41.5 145 118T843 325v5q0 102-51 179T647 627.5 428 669t-220-42T61.5 508.5 10 330v-5q0-102 51.5-178.5T208 28.5 428-13t219 41.5z"/><glyph glyph-name="uni277E" unicode="❾" horiz-adv-x="853" d="M206 627.5q-94-41.5-145-118T10 331v-5q0-102 51-179T206 28.5 425-13t220 42 146.5 118.5T843 326v5q0 102-51.5 178.5T645 627.5 425 669t-219-41.5zM244 151q-62 38-62 107v3h128v-3q0-20 30-32t81-12q59 0 92.5 18.5T547 284v15q-52-28-142-28-111 0-170.5 33T175 398v4q0 67 63 104t179 37q126 0 193.5-46T678 366v-65q0-91-67.5-139.5T418 113q-112 0-174 38zm303 239v4q0 22-36.5 36T416 444q-109 0-109-39v-4q0-19 24.5-27.5T412 365q103 0 135 25z"/><glyph glyph-name="uni24EA" unicode="⓪" horiz-adv-x="853" d="M206.5 28.5Q112 70 61 146T10 325v5q0 103 51.5 179.5t146 118T428 669t220-41.5 144.5-118T843 330v-5q0-103-51-179T647 28.5 427-13 206.5 28.5zm455.5 110Q745 204 745 325v5q0 121-83 187t-234 66q-152 0-236-66.5T108 330v-5q0-120 83.5-186T427 73t235 65.5zM308.5 159Q257 182 229 223.5T201 320v13q0 56 28 98t79.5 65T428 519q102 0 163-50.5T652 333v-13q0-84-60.5-134T428 136q-68 0-119.5 23zM536 321v12q0 40-27.5 60.5T427 414t-82-20.5-28-60.5v-12q0-40 28-60t82-20q109 0 109 80z"/><glyph glyph-name="uni2460" unicode="①" horiz-adv-x="853" d="M206.5 28.5Q112 70 61 146T10 325v5q0 103 51.5 179.5t146 118T428 669t220-41.5 144.5-118T843 330v-5q0-103-51-179T647 28.5 427-13 206.5 28.5zm455.5 110Q745 204 745 325v5q0 121-83 187t-234 66q-152 0-236-66.5T108 330v-5q0-120 83.5-186T427 73t235 65.5zM388 239v152q-20-7-50-7H231v96h106q27 0 39 7.5t12 24.5h117V239h136v-94H231v94h157z"/><glyph glyph-name="uni2461" unicode="②" horiz-adv-x="853" d="M206.5 28.5Q112 70 61 146T10 325v5q0 103 51.5 179.5t146 118T428 669t220-41.5 144.5-118T843 330v-5q0-103-51-179T647 28.5 427-13 206.5 28.5zm455.5 110Q745 204 745 325v5q0 121-83 187t-234 66q-152 0-236-66.5T108 330v-5q0-120 83.5-186T427 73t235 65.5zM442 326q37 16 52 28.5t15 27.5v4q0 19-21.5 29T426 425q-43 0-66.5-12.5T336 377v-11H223v11q0 69 52 106t149 37q94 0 148-33.5t54-91.5v-7q0-40-28.5-70T503 260l-63-27h193v-89H223v86z"/><glyph glyph-name="uni2462" unicode="③" horiz-adv-x="853" d="M206.5 28.5Q112 70 61 146T10 325v5q0 103 51.5 179.5t146 118T428 669t220-41.5 144.5-118T843 330v-5q0-103-51-179T647 28.5 427-13 206.5 28.5zm455.5 110Q745 204 745 325v5q0 121-83 187t-234 66q-152 0-236-66.5T108 330v-5q0-120 83.5-186T427 73t235 65.5zM270 169q-53 32-53 96v4h114v-4q0-35 100-35 98 0 98 32v5q0 14-23.5 20.5T430 294h-82v69l110 57H225v92h409v-92l-114-57 13-2q57-9 85-33.5t28-65.5v-6q0-58-55-88.5T430 137q-107 0-160 32z"/><glyph glyph-name="uni2463" unicode="④" horiz-adv-x="853" d="M206.5 28.5Q112 70 61 146T10 325v5q0 103 51.5 179.5t146 118T428 669t220-41.5 144.5-118T843 330v-5q0-103-51-179T647 28.5 427-13 206.5 28.5zm455.5 110Q745 204 745 325v5q0 121-83 187t-234 66q-152 0-236-66.5T108 330v-5q0-120 83.5-186T427 73t235 65.5zM199 208v94q62 100 86 210h123v-17q-27-107-75-193h129v148h118V302h79v-94h-79v-64H462v64H199z"/><glyph glyph-name="uni2464" unicode="⑤" horiz-adv-x="853" d="M206.5 28.5Q112 70 61 146T10 325v5q0 103 51.5 179.5t146 118T428 669t220-41.5 144.5-118T843 330v-5q0-103-51-179T647 28.5 427-13 206.5 28.5zm455.5 110Q745 204 745 325v5q0 121-83 187t-234 66q-152 0-236-66.5T108 330v-5q0-120 83.5-186T427 73t235 65.5zm-397 29Q212 198 212 261v2h114v-2q0-32 98-32 47 0 72.5 9.5T522 265v4q0 16-26.5 24t-82.5 8q-33 0-56.5-4.5T326 284H213l12 228h387v-91H323l-3-55q44 23 120 23 94 0 146-31.5t52-89.5v-4q0-64-53-95.5T425 137t-160 30.5z"/><glyph glyph-name="uni2465" unicode="⑥" horiz-adv-x="853" d="M206.5 28.5Q112 70 61 146T10 325v5q0 103 51.5 179.5t146 118T428 669t220-41.5 144.5-118T843 330v-5q0-103-51-179T647 28.5 427-13 206.5 28.5zm455.5 110Q745 204 745 325v5q0 121-83 187t-234 66q-152 0-236-66.5T108 330v-5q0-120 83.5-186T427 73t235 65.5zm-398 39Q204 218 204 294v58q0 81 60 124.5T436 520q99 0 154-34t55-95v-3H532v3q0 18-27 28.5T433 430q-53 0-83-16.5T320 367v-13q46 25 127 25 98 0 151-29.5t53-83.5v-3q0-60-56-93t-159-33q-112 0-172 40.5zM534 260v3q0 18-21.5 25.5T441 296q-92 0-121-23v-4q0-20 33-32.5t84-12.5q97 0 97 36z"/><glyph glyph-name="uni2466" unicode="⑦" horiz-adv-x="853" d="M206.5 28.5Q112 70 61 146T10 325v5q0 103 51.5 179.5t146 118T428 669t220-41.5 144.5-118T843 330v-5q0-103-51-179T647 28.5 427-13 206.5 28.5zm455.5 110Q745 204 745 325v5q0 121-83 187t-234 66q-152 0-236-66.5T108 330v-5q0-120 83.5-186T427 73t235 65.5zm-284.5 144Q421 351 502 418H223v94h418v-94q-82-67-128.5-136.5T466 159v-15H334v15q0 55 43.5 123.5z"/><glyph glyph-name="uni2467" unicode="⑧" horiz-adv-x="853" d="M206.5 28.5Q112 70 61 146T10 325v5q0 103 51.5 179.5t146 118T428 669t220-41.5 144.5-118T843 330v-5q0-103-51-179T647 28.5 427-13 206.5 28.5zm455.5 110Q745 204 745 325v5q0 121-83 187t-234 66q-152 0-236-66.5T108 330v-5q0-120 83.5-186T427 73t235 65.5zm-401.5 27Q206 194 206 253v11q0 49 53 74-35 26-35 63v10q0 51 54 80t149 29q92 0 147-29.5t55-79.5v-10q0-37-35-63 53-25 53-74v-11q0-59-54.5-87.5T427 137q-112 0-166.5 28.5zM500 376q20 6 20 22v5q0 17-20.5 23.5T427 433q-51 0-72.5-7T333 403v-5q0-16 20.5-22t73.5-6 73 6zm7.5-144q23.5 7 23.5 23v5q0 16-22.5 22t-81.5 6-82-6-23-22v-5q0-16 24-23t81-7 80.5 7z"/><glyph glyph-name="uni2468" unicode="⑨" horiz-adv-x="853" d="M205 28.5Q111 70 60.5 146.5T10 326v5q0 103 51 179t145 117.5T426 669t220.5-41.5T792 510t51-179v-5q0-103-51.5-179.5t-146-118T425-13 205 28.5zm456 111Q745 206 745 326v5q0 120-83.5 186T426 583t-235-65.5T108 331v-5q0-121 83-187t234-66q152 0 236 66.5zM263 170q-55 34-55 95v3h113v-3q0-18 27-28.5t72-10.5q53 0 83 16.5t30 46.5v13q-46-25-127-25-98 0-151.5 29.5T201 390v3q0 60 56.5 93T417 519q112 0 172-40.5T649 362v-58q0-81-60-124.5T417 136q-99 0-154 34zm270 213v4q0 19-33 31.5T416 431q-97 0-97-34v-4q0-17 21.5-24.5T412 361q92 0 121 22z"/><glyph glyph-name="three.ss10" horiz-adv-x="793" d="M706 276.5q25-34.5 25-78.5v-11q0-96-88.5-147.5T389-12q-167 0-253.5 56.5T49 211v6h148v-6q0-46 49-68t149-22q88 0 137 19t49 54v12q0 23-16 36.5t-51.5 19T414 267H278v128h137q84 0 119 15t35 51v11q0 36-39 50.5T394 537q-100 0-143-17t-43-58v-6H61v6q0 206 331 206 160 0 243-48t83-141v-11q0-90-84-134 47-23 72-57.5z"/><glyph glyph-name="uni2778.ss10" horiz-adv-x="853" d="M235.5 150Q175 186 175 261v3h129v-3q0-23 28.5-34.5T421 215q112 0 112 34v6q0 14-22.5 19.5T429 280h-81v98h81q54 0 76 6.5t22 21.5v5q0 18-24 25t-84 7q-58 0-83-9t-25-31v-2H182v3q0 69 61.5 104.5T424 544q237 0 237-125v-7q0-53-49-81 58-29 58-78v-8q0-63-65-97t-184-34q-125 0-185.5 36zM647 28.5q94 41.5 145 118T843 325v5q0 102-51 179T647 627.5 428 669t-220-42T61.5 508.5 10 330v-5q0-102 51.5-178.5T208 28.5 428-13t219 41.5z"/><glyph glyph-name="uni2462.ss10" horiz-adv-x="853" d="M206.5 28.5Q112 70 61 146T10 325v5q0 103 51.5 179.5t146 118T428 669t220-41.5 144.5-118T843 330v-5q0-103-51-179T647 28.5 427-13 206.5 28.5zm455.5 110Q745 204 745 325v5q0 121-83 187t-234 66q-152 0-236-66.5T108 330v-5q0-120 83.5-186T427 73t235 65.5zM258.5 169Q205 201 205 268v2h114v-2q0-21 26-31t80-10q99 0 99 30v5q0 13-20 18t-72 5h-73v87h73q48 0 67.5 5.5T519 397v4q0 16-21.5 22.5T422 430q-52 0-74.5-8T325 395v-2H212v2q0 61 54.5 93T426 520t158-28 53-83v-7q0-47-43-72 51-25 51-70v-6q0-56-57.5-86.5T424 137q-112 0-165.5 32z"/><glyph glyph-name="zero.tf" horiz-adv-x="816" d="M223 26.5Q142 65 97 135T52 297v62q0 93 44.5 163T222 630.5 410 669q106 0 186-38.5T720 522t44-163v-62q0-93-43.5-163t-124-108T410-12 223 26.5zm340 143Q615 212 615 295v65q0 82-53 125.5T409 529q-101 0-154.5-43.5T201 360v-65q0-82 53.5-125T410 127q101 0 153 42.5z"/><glyph glyph-name="one.tf" horiz-adv-x="816" d="M793 135V0H110v135h282v330q-42-18-100-18H110v140h175q56 0 81.5 16.5T392 656h150V135h251z"/><glyph glyph-name="two.tf" horiz-adv-x="816" d="M745 127V0H86v118l328 176q72 38 105.5 60.5t45.5 41 12 44.5v9q0 43-43 65.5T410 537q-85 0-129-26.5T237 433v-20H89v21q0 115 81.5 175T407 669q151 0 235.5-56.5T727 456v-10q0-51-22-92t-73-80.5T492 187l-114-60h367z"/><glyph glyph-name="three.tf" horiz-adv-x="816" d="M685.5 337Q747 289 747 209v-12q0-103-87-156T405-12q-167 0-253 55.5T66 208v5h149v-5q0-42 48-64.5T406 121q98 0 144 19.5t46 58.5v11q0 36-46 54t-143 18H283v117l216 127H79v131h650V526L507 397q117-12 178.5-60z"/><glyph glyph-name="four.tf" horiz-adv-x="816" d="M774 133H638V0H489v133H45v134q62 108 101 201t63 189h159v-23q-52-185-149-367h270v276h149V267h136V133z"/><glyph glyph-name="five.tf" horiz-adv-x="816" d="M668.5 377Q755 321 755 220v-12q0-109-86-164.5T417-12q-167 0-252 50T80 188v6h149v-6q0-33 48-50t139-17q93 0 141 23t48 64v11q0 39-51 61t-142 22q-85 0-132.5-14.5T227 248H80l22 409h610V522H230l-7-130q76 41 203 41 156 0 242.5-56z"/><glyph glyph-name="six.tf" horiz-adv-x="816" d="M681.5 366.5Q767 314 767 217v-11q0-104-91-161T423-12q-113 0-194.5 31t-125 89.5T60 248v145q0 131 95.5 203.5T423 669q156 0 244.5-57.5T756 452v-5H608v5q0 40-49.5 62T422 536q-104 0-158.5-36T209 395v-32q80 56 231 56 156 0 241.5-52.5zM616 213q0 40-45 59t-139 19q-80 0-137.5-15.5T210 233q5-54 60.5-83T428 121q188 0 188 81v11z"/><glyph glyph-name="seven.tf" horiz-adv-x="816" d="M736 656V521Q592 389 511.5 259T431 25V0H266v25q0 109 76 238.5T556 521H66v135h670z"/><glyph glyph-name="eight.tf" horiz-adv-x="816" d="M760 203v-12q0-203-351-203T58 191v12q0 96 101 141-72 44-72 122v11q0 59 39 102t112 66.5T409 669t170.5-23.5T691 579t39-102v-11q0-76-72-122 102-46 102-141zM232 465q0-40 39.5-56.5T409 392q97 0 136.5 16.5T585 465v6q0 36-39 53t-137 17-137.5-17-39.5-53v-6zm378-271q0 25-17 40t-60.5 22.5T409 264t-124-7.5-61-22.5-17-40v-6q0-39 46.5-55.5T409 116t155 16.5 46 55.5v6z"/><glyph glyph-name="nine.tf" horiz-adv-x="816" d="M587.5 637q81.5-31 125-89.5T756 409V264q0-131-95.5-203.5T393-12q-156 0-244.5 57.5T60 205v5h148v-5q0-40 49.5-62T394 121q104 0 158.5 36T607 262v32q-80-56-231-56-156 0-241.5 52.5T49 440v11q0 104 91 160.5T393 668q113 0 194.5-31zM245 385q45-19 139-19 80 0 137.5 15.5T606 424q-5 54-60.5 82.5T388 535q-188 0-188-80v-11q0-40 45-59z"/><glyph glyph-name="three.tf.ss10" horiz-adv-x="816" d="M748 198v-11q0-96-90-147.5T401-12q-170 0-258 57T55 213v4h148v-4q0-46 49.5-69T407 121q91 0 141.5 19.5T599 195v10q0 22-14 35t-51.5 20-106.5 7H287v128h140q81 0 120 14.5t39 53.5v10q0 23-15.5 37T516 531t-110 7q-109 0-150.5-18.5T214 461v-4l-147 1v4q0 207 337 207 162 0 246.5-48T735 479v-10q0-91-86-135 99-46 99-136z"/><glyph glyph-name="zero.tf.zero" horiz-adv-x="816" d="M594.5 630q80.5-38 125-106.5T764 365v-75q0-90-44-158.5t-124.5-106T409-12 222 26 96 132.5 51 290v75q0 90 45 158.5T222 630t187 38q105 0 185.5-38zM561 492q-54 43-153 43-74 0-124-24l329-256q2 18 2 29v86q0 79-54 122zM253.5 162.5Q307 121 409 121q76 0 125 24L203 402q-3-15-3-32v-86q0-80 53.5-121.5z"/><glyph glyph-name="zero.zero" horiz-adv-x="817" d="M595.5 630q80.5-38 125-106.5T765 365v-75q0-90-44-158.5t-124.5-106T410-12 223 26 97 132.5 52 290v75q0 90 45 158.5T223 630t187 38q105 0 185.5-38zM562 492q-54 43-153 43-74 0-124-24l329-256q2 18 2 29v86q0 79-54 122zM254.5 162.5Q308 121 410 121q75 0 125 24L204 402q-3-15-3-32v-86q0-80 53.5-121.5z"/><glyph glyph-name="uni2080" unicode="₀" d="M145-82Q87-56 55-9T23 99v15q0 62 31.5 109.5t89.5 73T279 322q76 0 133-25.5t88-73T531 114V99q0-62-31-109t-88-72.5T279-108 145-82zM369.5 33Q400 56 400 100v13q0 45-31 68t-91 23q-61 0-92.5-23.5T154 113v-13q0-44 31.5-67T278 10t91.5 23z"/><glyph glyph-name="uni2081" unicode="₁" d="M253 7v170q-26-8-56-8H77v109h118q31 0 44.5 8t13.5 28h132V7h153V-99H77V7h176z"/><glyph glyph-name="uni2082" unicode="₂" d="M297 105q43 19 59.5 32.5T373 167v5q0 21-24 32t-69 11q-48 0-74-14t-26-40v-12H52v12q0 78 58.5 119.5T278 322q106 0 166.5-37.5T505 182v-8q0-45-32.5-79T367 30L296 0h217v-100H52v97z"/><glyph glyph-name="uni2083" unicode="₃" d="M38 37v3h129v-3q0-40 111-40 110 0 110 36v5q0 16-26 23.5T277 69h-91v77l122 63H47v105h460V209l-127-63 14-2q126-19 126-111v-7q0-66-61.5-100T278-108Q38-108 38 37z"/><glyph glyph-name="uni2084" unicode="₄" d="M24-28V78q70 112 97 236h138v-19q-32-125-83-217h144v166h133V78h88V-28h-88v-72H320v72H24z"/><glyph glyph-name="uni2085" unicode="₅" d="M102-73.5Q43-39 43 31v3h128v-2q0-36 111-36 53 0 81 10.5T391 36v4q0 36-120 36-38 0-64.5-5.5T172 57H44l14 257h435V211H168l-4-62q52 26 136 26 105 0 163.5-35.5T522 40v-5q0-143-239-143-122 0-181 34.5z"/><glyph glyph-name="uni2086" unicode="₆" d="M96.5-62Q29-16 29 69v65q0 91 67.5 139.5T289 322q112 0 174-38t62-107v-3H397v3q0 20-30.5 32T286 221q-60 0-93-18.5T160 151v-15q52 28 142 28 110 0 170-33t60-94v-4q0-67-63-104t-179-37q-126 0-193.5 46zM399 30v4q0 19-24 27.5T295 70q-104 0-135-25v-4q0-22 36.5-36T290-9q109 0 109 39z"/><glyph glyph-name="uni2087" unicode="₇" d="M213 56q49 77 140 151H39v107h470V207q-92-75-144.5-153T312-83v-17H164v17q0 62 49 139z"/><glyph glyph-name="uni2088" unicode="₈" d="M90.5-76Q29-44 29 23v12q0 55 60 83-39 29-39 70v12q0 57 61 89.5T278 322q104 0 165.5-33t61.5-89v-12q0-41-39-70 59-28 59-83V23q0-67-61-99t-186-32q-126 0-187.5 32zm269 237q22.5 7 22.5 24v6q0 19-23 26.5t-81 7.5q-57 0-81.5-8T172 191v-6q0-17 23-24t83-7q59 0 81.5 7zM368-1.5Q394 6 394 25v6q0 17-25 23.5T278 61t-91.5-6.5T161 31v-6q0-19 26-26.5T278-9q64 0 90 7.5z"/><glyph glyph-name="uni2089" unicode="₉" d="M91-71Q29-33 29 36v3h128v-3q0-20 30.5-32T268-8q60 0 93 18.5T394 62v15q-52-28-142-28-110 0-170 33t-60 94v4q0 67 63 104t179 37q126 0 193.5-46T525 144V79q0-91-67.5-139.5T265-109q-112 0-174 38zm303 239v4q0 22-36.5 36T264 222q-109 0-109-39v-4q0-19 24-27.5t80-8.5q104 0 135 25z"/><glyph glyph-name="zero.dnom" d="M145 18Q87 44 55 91T23 199v15q0 62 31.5 109.5t89.5 73T279 422q76 0 133-25.5t88-73T531 214v-15q0-62-31-109t-88-72.5T279-8 145 18zm224.5 115q30.5 23 30.5 67v13q0 45-31 68t-91 23q-61 0-92.5-23.5T154 213v-13q0-44 31.5-67t92.5-23 91.5 23z"/><glyph glyph-name="one.dnom" d="M253 107v170q-26-8-56-8H77v109h118q31 0 44.5 8t13.5 28h132V107h153V1H77v106h176z"/><glyph glyph-name="two.dnom" d="M297 205q43 19 59.5 32.5T373 267v5q0 21-24 32t-69 11q-48 0-74-14t-26-40v-12H52v12q0 78 58.5 119.5T278 422q106 0 166.5-37.5T505 282v-8q0-45-32.5-79T367 130l-71-30h217V0H52v97z"/><glyph glyph-name="three.dnom" d="M38 137v3h129v-3q0-40 111-40 110 0 110 36v5q0 16-26 23.5t-85 7.5h-91v77l122 63H47v105h460V309l-127-63 14-2q126-19 126-111v-7q0-66-61.5-100T278-8Q38-8 38 137z"/><glyph glyph-name="four.dnom" d="M24 72v106q70 112 97 236h138v-19q-32-125-83-217h144v166h133V178h88V72h-88V0H320v72H24z"/><glyph glyph-name="five.dnom" d="M102 26.5Q43 61 43 131v3h128v-2q0-36 111-36 53 0 81 10.5t28 29.5v4q0 36-120 36-38 0-64.5-5.5T172 157H44l14 257h435V311H168l-4-62q52 26 136 26 105 0 163.5-35.5T522 140v-5Q522-8 283-8 161-8 102 26.5z"/><glyph glyph-name="six.dnom" d="M96.5 38Q29 84 29 169v65q0 91 67.5 139.5T289 422q112 0 174-38t62-107v-3H397v3q0 20-30.5 32T286 321q-60 0-93-18.5T160 251v-15q52 28 142 28 110 0 170-33t60-94v-4q0-67-63-104T290-8Q164-8 96.5 38zM399 130v4q0 19-24 27.5t-80 8.5q-104 0-135-25v-4q0-22 36.5-36T290 91q109 0 109 39z"/><glyph glyph-name="seven.dnom" d="M213 156q49 77 140 151H39v107h470V307q-92-75-144.5-153T312 17V0H164v17q0 62 49 139z"/><glyph glyph-name="eight.dnom" d="M90.5 24Q29 56 29 123v12q0 55 60 83-39 29-39 70v12q0 57 61 89.5T278 422q104 0 165.5-33t61.5-89v-12q0-41-39-70 59-28 59-83v-12q0-67-61-99T278-8Q152-8 90.5 24zm269 237q22.5 7 22.5 24v6q0 19-23 26.5t-81 7.5q-57 0-81.5-8T172 291v-6q0-17 23-24t83-7q59 0 81.5 7zM368 98.5q26 7.5 26 26.5v6q0 17-25 23.5t-91 6.5-91.5-6.5T161 131v-6q0-19 26-26.5t91-7.5q64 0 90 7.5z"/><glyph glyph-name="nine.dnom" d="M91 29Q29 67 29 136v3h128v-3q0-20 30.5-32T268 92q60 0 93 18.5t33 51.5v15q-52-28-142-28-110 0-170 33t-60 94v4q0 67 63 104t179 37q126 0 193.5-46T525 244v-65q0-91-67.5-139.5T265-9Q153-9 91 29zm303 239v4q0 22-36.5 36T264 322q-109 0-109-39v-4q0-19 24-27.5t80-8.5q104 0 135 25z"/><glyph glyph-name="zero.numr" d="M145 261q-58 26-90 73T23 442v15q0 62 31.5 109.5t89.5 73T279 665q76 0 133-25.5t88-73T531 457v-15q0-62-31-109t-88-72.5T279 235t-134 26zm224.5 115q30.5 23 30.5 67v13q0 45-31 68t-91 23q-61 0-92.5-23.5T154 456v-13q0-44 31.5-67t92.5-23 91.5 23z"/><glyph glyph-name="one.numr" d="M253 350v170q-26-8-56-8H77v109h118q31 0 44.5 8t13.5 28h132V350h153V244H77v106h176z"/><glyph glyph-name="two.numr" d="M297 448q43 19 59.5 32.5T373 510v5q0 21-24 32t-69 11q-48 0-74-14t-26-40v-12H52v12q0 78 58.5 119.5T278 665q106 0 166.5-37.5T505 525v-8q0-45-32.5-79T367 373l-71-30h217V243H52v97z"/><glyph glyph-name="three.numr" d="M38 380v3h129v-3q0-40 111-40 110 0 110 36v5q0 16-26 23.5t-85 7.5h-91v77l122 63H47v105h460V552l-127-63 14-2q126-19 126-111v-7q0-66-61.5-100T278 235Q38 235 38 380z"/><glyph glyph-name="four.numr" d="M24 315v106q70 112 97 236h138v-19q-32-125-83-217h144v166h133V421h88V315h-88v-72H320v72H24z"/><glyph glyph-name="five.numr" d="M102 269.5Q43 304 43 374v3h128v-2q0-36 111-36 53 0 81 10.5t28 29.5v4q0 36-120 36-38 0-64.5-5.5T172 400H44l14 257h435V554H168l-4-62q52 26 136 26 105 0 163.5-35.5T522 383v-5q0-143-239-143-122 0-181 34.5z"/><glyph glyph-name="six.numr" d="M96.5 281Q29 327 29 412v65q0 91 67.5 139.5T289 665q112 0 174-38t62-107v-3H397v3q0 20-30.5 32T286 564q-60 0-93-18.5T160 494v-15q52 28 142 28 110 0 170-33t60-94v-4q0-67-63-104t-179-37q-126 0-193.5 46zM399 373v4q0 19-24 27.5t-80 8.5q-104 0-135-25v-4q0-22 36.5-36t93.5-14q109 0 109 39z"/><glyph glyph-name="seven.numr" d="M213 399q49 77 140 151H39v107h470V550q-92-75-144.5-153T312 260v-17H164v17q0 62 49 139z"/><glyph glyph-name="eight.numr" d="M90.5 267Q29 299 29 366v12q0 55 60 83-39 29-39 70v12q0 57 61 89.5T278 665q104 0 165.5-33t61.5-89v-12q0-41-39-70 59-28 59-83v-12q0-67-61-99t-186-32q-126 0-187.5 32zm269 237q22.5 7 22.5 24v6q0 19-23 26.5t-81 7.5q-57 0-81.5-8T172 534v-6q0-17 23-24t83-7q59 0 81.5 7zm8.5-162.5q26 7.5 26 26.5v6q0 17-25 23.5t-91 6.5-91.5-6.5T161 374v-6q0-19 26-26.5t91-7.5q64 0 90 7.5z"/><glyph glyph-name="nine.numr" d="M91 272q-62 38-62 107v3h128v-3q0-20 30.5-32t80.5-12q60 0 93 18.5t33 51.5v15q-52-28-142-28-110 0-170 33t-60 94v4q0 67 63 104t179 37q126 0 193.5-46T525 487v-65q0-91-67.5-139.5T265 234q-112 0-174 38zm303 239v4q0 22-36.5 36T264 565q-109 0-109-39v-4q0-19 24-27.5t80-8.5q104 0 135 25z"/><glyph glyph-name="uni2070" unicode="⁰" d="M145 361q-58 26-90 73T23 542v15q0 62 31.5 109.5t89.5 73T279 765q76 0 133-25.5t88-73T531 557v-15q0-62-31-109t-88-72.5T279 335t-134 26zm224.5 115q30.5 23 30.5 67v13q0 45-31 68t-91 23q-61 0-92.5-23.5T154 556v-13q0-44 31.5-67t92.5-23 91.5 23z"/><glyph glyph-name="uni00B9" unicode="¹" d="M253 450v170q-26-8-56-8H77v109h118q31 0 44.5 8t13.5 28h132V450h153V344H77v106h176z"/><glyph glyph-name="uni00B2" unicode="²" d="M297 548q43 19 59.5 32.5T373 610v5q0 21-24 32t-69 11q-48 0-74-14t-26-40v-12H52v12q0 78 58.5 119.5T278 765q106 0 166.5-37.5T505 625v-8q0-45-32.5-79T367 473l-71-30h217V343H52v97z"/><glyph glyph-name="uni00B3" unicode="³" d="M38 480v3h129v-3q0-40 111-40 110 0 110 36v5q0 16-26 23.5t-85 7.5h-91v77l122 63H47v105h460V652l-127-63 14-2q126-19 126-111v-7q0-66-61.5-100T278 335Q38 335 38 480z"/><glyph glyph-name="uni2074" unicode="⁴" d="M24 415v106q70 112 97 236h138v-19q-32-125-83-217h144v166h133V521h88V415h-88v-72H320v72H24z"/><glyph glyph-name="uni2075" unicode="⁵" d="M102 369.5Q43 404 43 474v3h128v-2q0-36 111-36 53 0 81 10.5t28 29.5v4q0 36-120 36-38 0-64.5-5.5T172 500H44l14 257h435V654H168l-4-62q52 26 136 26 105 0 163.5-35.5T522 483v-5q0-143-239-143-122 0-181 34.5z"/><glyph glyph-name="uni2076" unicode="⁶" d="M96.5 381Q29 427 29 512v65q0 91 67.5 139.5T289 765q112 0 174-38t62-107v-3H397v3q0 20-30.5 32T286 664q-60 0-93-18.5T160 594v-15q52 28 142 28 110 0 170-33t60-94v-4q0-67-63-104t-179-37q-126 0-193.5 46zM399 473v4q0 19-24 27.5t-80 8.5q-104 0-135-25v-4q0-22 36.5-36t93.5-14q109 0 109 39z"/><glyph glyph-name="uni2077" unicode="⁷" d="M213 499q49 77 140 151H39v107h470V650q-92-75-144.5-153T312 360v-17H164v17q0 62 49 139z"/><glyph glyph-name="uni2078" unicode="⁸" d="M90.5 367Q29 399 29 466v12q0 55 60 83-39 29-39 70v12q0 57 61 89.5T278 765q104 0 165.5-33t61.5-89v-12q0-41-39-70 59-28 59-83v-12q0-67-61-99t-186-32q-126 0-187.5 32zm269 237q22.5 7 22.5 24v6q0 19-23 26.5t-81 7.5q-57 0-81.5-8T172 634v-6q0-17 23-24t83-7q59 0 81.5 7zm8.5-162.5q26 7.5 26 26.5v6q0 17-25 23.5t-91 6.5-91.5-6.5T161 474v-6q0-19 26-26.5t91-7.5q64 0 90 7.5z"/><glyph glyph-name="uni2079" unicode="⁹" d="M91 372q-62 38-62 107v3h128v-3q0-20 30.5-32t80.5-12q60 0 93 18.5t33 51.5v15q-52-28-142-28-110 0-170 33t-60 94v4q0 67 63 104t179 37q126 0 193.5-46T525 587v-65q0-91-67.5-139.5T265 334q-112 0-174 38zm303 239v4q0 22-36.5 36T264 665q-109 0-109-39v-4q0-19 24-27.5t80-8.5q104 0 135 25z"/><glyph glyph-name="fraction" unicode="⁄" horiz-adv-x="369" d="M402 656h142v-23L-33 0h-142v20z"/><glyph glyph-name="onehalf" unicode="½" horiz-adv-x="1418" d="M253 350v170q-26-8-56-8H77v109h118q31 0 44.5 8t13.5 28h132V350h153V244H77v106h176zm703 306h142v-23L521 0H379v20zm205-451q43 19 59.5 32.5T1237 267v5q0 21-24 32t-69 11q-48 0-74-14t-26-40v-12H916v12q0 78 58.5 119.5T1142 422q106 0 166.5-37.5T1369 282v-8q0-45-32.5-79T1231 130l-71-30h217V0H916v97z"/><glyph glyph-name="onequarter" unicode="¼" horiz-adv-x="1408" d="M253 350v170q-26-8-56-8H77v109h118q31 0 44.5 8t13.5 28h132V350h153V244H77v106h176zm703 306h142v-23L521 0H379v20zM878 72v106q70 112 97 236h138v-19q-32-125-83-217h144v166h133V178h88V72h-88V0h-133v72H878z"/><glyph glyph-name="threequarters" unicode="¾" horiz-adv-x="1359" d="M38 380v3h129v-3q0-40 111-40 110 0 110 36v5q0 16-26 23.5t-85 7.5h-91v77l122 63H47v105h460V552l-127-63 14-2q126-19 126-111v-7q0-66-61.5-100T278 235Q38 235 38 380zm869 276h142v-23L472 0H330v20zM829 72v106q70 112 97 236h138v-19q-32-125-83-217h144v166h133V178h88V72h-88V0h-133v72H829z"/><glyph glyph-name="oneeighth" unicode="⅛" horiz-adv-x="1408" d="M253 350v170q-26-8-56-8H77v109h118q31 0 44.5 8t13.5 28h132V350h153V244H77v106h176zm703 306h142v-23L521 0H379v20zM944.5 24Q883 56 883 123v12q0 55 60 83-39 29-39 70v12q0 57 61 89.5t167 32.5q104 0 165.5-33t61.5-89v-12q0-41-39-70 59-28 59-83v-12q0-67-61-99T1132-8q-126 0-187.5 32zm269 237q22.5 7 22.5 24v6q0 19-23 26.5t-81 7.5q-57 0-81.5-8t-24.5-26v-6q0-17 23-24t83-7q59 0 81.5 7zm8.5-162.5q26 7.5 26 26.5v6q0 17-25 23.5t-91 6.5-91.5-6.5T1015 131v-6q0-19 26-26.5t91-7.5q64 0 90 7.5z"/><glyph glyph-name="threeeighths" unicode="⅜" horiz-adv-x="1359" d="M38 380v3h129v-3q0-40 111-40 110 0 110 36v5q0 16-26 23.5t-85 7.5h-91v77l122 63H47v105h460V552l-127-63 14-2q126-19 126-111v-7q0-66-61.5-100T278 235Q38 235 38 380zm869 276h142v-23L472 0H330v20zM895.5 24Q834 56 834 123v12q0 55 60 83-39 29-39 70v12q0 57 61 89.5t167 32.5q104 0 165.5-33t61.5-89v-12q0-41-39-70 59-28 59-83v-12q0-67-61-99T1083-8Q957-8 895.5 24zm269 237q22.5 7 22.5 24v6q0 19-23 26.5t-81 7.5q-57 0-81.5-8T977 291v-6q0-17 23-24t83-7q59 0 81.5 7zm8.5-162.5q26 7.5 26 26.5v6q0 17-25 23.5t-91 6.5-91.5-6.5T966 131v-6q0-19 26-26.5t91-7.5q64 0 90 7.5z"/><glyph glyph-name="fiveeighths" unicode="⅝" horiz-adv-x="1359" d="M102 269.5Q43 304 43 374v3h128v-2q0-36 111-36 53 0 81 10.5t28 29.5v4q0 36-120 36-38 0-64.5-5.5T172 400H44l14 257h435V554H168l-4-62q52 26 136 26 105 0 163.5-35.5T522 383v-5q0-143-239-143-122 0-181 34.5zM907 656h142v-23L472 0H330v20zM895.5 24Q834 56 834 123v12q0 55 60 83-39 29-39 70v12q0 57 61 89.5t167 32.5q104 0 165.5-33t61.5-89v-12q0-41-39-70 59-28 59-83v-12q0-67-61-99T1083-8Q957-8 895.5 24zm269 237q22.5 7 22.5 24v6q0 19-23 26.5t-81 7.5q-57 0-81.5-8T977 291v-6q0-17 23-24t83-7q59 0 81.5 7zm8.5-162.5q26 7.5 26 26.5v6q0 17-25 23.5t-91 6.5-91.5-6.5T966 131v-6q0-19 26-26.5t91-7.5q64 0 90 7.5z"/><glyph glyph-name="seveneighths" unicode="⅞" horiz-adv-x="1309" d="M213 399q49 77 140 151H39v107h470V550q-92-75-144.5-153T312 260v-17H164v17q0 62 49 139zm644 257h142v-23L422 0H280v20zM845.5 24Q784 56 784 123v12q0 55 60 83-39 29-39 70v12q0 57 61 89.5t167 32.5q104 0 165.5-33t61.5-89v-12q0-41-39-70 59-28 59-83v-12q0-67-61-99T1033-8Q907-8 845.5 24zm269 237q22.5 7 22.5 24v6q0 19-23 26.5t-81 7.5q-57 0-81.5-8T927 291v-6q0-17 23-24t83-7q59 0 81.5 7zm8.5-162.5q26 7.5 26 26.5v6q0 17-25 23.5t-91 6.5-91.5-6.5T916 131v-6q0-19 26-26.5t91-7.5q64 0 90 7.5z"/><glyph glyph-name="uni2083.ss10" d="M86.5-72Q26-36 26 39v3h129v-3q0-23 28.5-34.5T272-7q112 0 112 34v6q0 14-22.5 19.5T280 58h-81v98h81q54 0 76 6.5t22 21.5v5q0 18-24 25t-84 7q-58 0-83-9t-25-31v-2H33v3q0 69 61.5 104.5T275 322q237 0 237-125v-7q0-53-49-81 58-29 58-78v-8q0-63-65-97t-184-34q-125 0-185.5 36z"/><glyph glyph-name="three.dnom.ss10" d="M86.5 28Q26 64 26 139v3h129v-3q0-23 28.5-34.5T272 93q112 0 112 34v6q0 14-22.5 19.5T280 158h-81v98h81q54 0 76 6.5t22 21.5v5q0 18-24 25t-84 7q-58 0-83-9t-25-31v-2H33v3q0 69 61.5 104.5T275 422q237 0 237-125v-7q0-53-49-81 58-29 58-78v-8q0-63-65-97T272-8Q147-8 86.5 28z"/><glyph glyph-name="three.numr.ss10" d="M86.5 271Q26 307 26 382v3h129v-3q0-23 28.5-34.5T272 336q112 0 112 34v6q0 14-22.5 19.5T280 401h-81v98h81q54 0 76 6.5t22 21.5v5q0 18-24 25t-84 7q-58 0-83-9t-25-31v-2H33v3q0 69 61.5 104.5T275 665q237 0 237-125v-7q0-53-49-81 58-29 58-78v-8q0-63-65-97t-184-34q-125 0-185.5 36z"/><glyph glyph-name="uni00B3.ss10" d="M86.5 371Q26 407 26 482v3h129v-3q0-23 28.5-34.5T272 436q112 0 112 34v6q0 14-22.5 19.5T280 501h-81v98h81q54 0 76 6.5t22 21.5v5q0 18-24 25t-84 7q-58 0-83-9t-25-31v-2H33v3q0 69 61.5 104.5T275 765q237 0 237-125v-7q0-53-49-81 58-29 58-78v-8q0-63-65-97t-184-34q-125 0-185.5 36z"/><glyph glyph-name="period" unicode="." horiz-adv-x="334" d="M104.5 11.5Q80 35 80 72t24.5 60.5T167 156q39 0 63-23.5T254 72q0-38-24-61t-63-23q-38 0-62.5 23.5z"/><glyph glyph-name="comma" unicode="," horiz-adv-x="334" d="M276 148v-21l-98-270H44l71 291h161z"/><glyph glyph-name="colon" unicode=":" horiz-adv-x="374" d="M124.5 11.5Q100 35 100 72t24.5 60.5T187 156q39 0 63-23.5T274 72q0-38-24-61t-63-23q-38 0-62.5 23.5zm0 330Q100 365 100 402t24.5 60.5T187 486q39 0 63-23.5t24-60.5q0-38-24-61t-63-23q-38 0-62.5 23.5z"/><glyph glyph-name="semicolon" unicode=";" horiz-adv-x="374" d="M286 148v-21l-98-270H54l71 291h161zM124.5 341.5Q100 365 100 402t24.5 60.5T187 486q39 0 63-23.5t24-60.5q0-38-24-61t-63-23q-38 0-62.5 23.5z"/><glyph glyph-name="ellipsis" unicode="…" horiz-adv-x="906" d="M104.5 11.5Q80 35 80 72t24.5 60.5T167 156q39 0 63-23.5T254 72q0-38-24-61t-63-23q-38 0-62.5 23.5zm289 0Q369 35 369 72t24.5 60.5T456 156q39 0 63-23.5T543 72q0-38-24-61t-63-23q-38 0-62.5 23.5zm283 0Q652 35 652 72t24.5 60.5T739 156q39 0 63-23.5T826 72q0-38-24-61t-63-23q-38 0-62.5 23.5z"/><glyph glyph-name="exclam" unicode="!" horiz-adv-x="352" d="M252 656l-8-444H109l-9 444h152zM113.5 11.5Q89 35 89 72t24.5 60.5T176 156t62.5-23.5T263 72t-24.5-60.5T176-12t-62.5 23.5z"/><glyph glyph-name="exclamdown" unicode="¡" horiz-adv-x="352" d="M113.5 368.5Q89 392 89 429t24.5 60.5T176 513t62.5-23.5T263 429t-24.5-60.5T176 345t-62.5 23.5zM243 288l9-458H100l8 458h135z"/><glyph glyph-name="question" unicode="?" horiz-adv-x="632" d="M267.5 315q22.5 31 84.5 62 56 28 73.5 44t17.5 38v9q0 34-33 53t-94 19q-65 0-102-25t-37-69v-20H36v20q0 103 74.5 162.5T315 668q78 0 141-25t98.5-69 35.5-99v-14q0-46-28-81.5T474 313q-42-21-61-33.5T387 256t-7-27v-17H245v17q0 55 22.5 86zM250 11.5Q226 35 226 72t24 60.5 62 23.5 62.5-23.5T399 72t-24.5-60.5T312-12t-62 23.5z"/><glyph glyph-name="questiondown" unicode="¿" horiz-adv-x="632" d="M257 368q-24 23-24 61t24 61 63 23q38 0 62-23.5t24-60.5-24-60.5-62-23.5q-39 0-63 23zm-81-524.5q-63 25.5-98.5 70T42 14v15q0 49 27.5 86.5T158 186q43 22 62 34.5t25.5 23T252 270v18h135v-18q0-55-22.5-86T280 122q-55-31-73-49t-18-43v-9q0-35 33.5-55T316-54q65 0 102 25t37 69v20h141V40q0-103-74.5-162.5T317-182q-78 0-141 25.5z"/><glyph glyph-name="periodcentered" unicode="·" horiz-adv-x="334" d="M104.5 215.5Q80 239 80 276t24.5 60.5T167 360q39 0 63-23.5t24-60.5q0-38-24-61t-63-23q-38 0-62.5 23.5z"/><glyph glyph-name="bullet" unicode="•" horiz-adv-x="497" d="M132.5 186Q88 229 88 298q0 70 44.5 113T248 454t116-43.5T409 298t-45-112-116-43-115.5 43z"/><glyph glyph-name="asterisk" unicode="*" horiz-adv-x="640" d="M469 500l148-41-44-121-190 82 5-105H252l6 106-192-83-43 121 148 41-148 40 43 121 192-83-6 106h136l-5-106 190 83 44-121z"/><glyph glyph-name="numbersign" unicode="#" horiz-adv-x="844" d="M650 411l-10-166h134V111H631L624 0H482l7 111H327L321 0H178l7 111H48v134h146l10 166H70v134h143l7 111h142l-7-111h161l7 111h143l-7-111h137V411H650zM499 244l11 168H345l-11-168h165z"/><glyph glyph-name="slash" unicode="/" horiz-adv-x="703" d="M496 724h151v-23L207-68H56v23z"/><glyph glyph-name="backslash" unicode="\" horiz-adv-x="703" d="M56 724h151L647-45v-23H496L56 701v23z"/><glyph glyph-name="exclamdown.case" horiz-adv-x="352" d="M238.5 644.5Q263 621 263 584t-24.5-60.5T176 500t-62.5 23.5T89 584t24.5 60.5T176 668t62.5-23.5zM108 444h135l9-444H100z"/><glyph glyph-name="questiondown.case" horiz-adv-x="632" d="M382 644.5q24-23.5 24-60.5t-24-60.5-62-23.5-62.5 23.5T233 584t24.5 60.5T320 668t62-23.5zM364.5 341Q342 310 280 279q-56-28-73.5-44T189 197v-9q0-34 33-53t94-19q65 0 102 25t37 69v20h141v-20q0-103-74.5-162.5T317-12q-78 0-141 25T77.5 82 42 181v14q0 46 28 81.5t88 66.5q42 21 61 33.5t26 23.5 7 27v17h135v-17q0-55-22.5-86z"/><glyph glyph-name="colon.up" horiz-adv-x="374" d="M124.5 426.5Q100 450 100 487t24.5 60.5T187 571q39 0 63-23.5t24-60.5q0-38-24-61t-63-23q-38 0-62.5 23.5zm0-316.5Q100 134 100 171t24.5 60.5T187 255q39 0 63-23.5t24-60.5q0-38-24-61.5T187 86q-38 0-62.5 24z"/><glyph glyph-name="parenleft" unicode="(" horiz-adv-x="466" d="M232-31.5Q151 9 107 82T63 252v152q0 99 43.5 172T231 688.5 422 729V600q-103-1-158.5-52.5T208 401V256q0-95 55.5-146.5T422 57V-73q-109 1-190 41.5z"/><glyph glyph-name="parenright" unicode=")" horiz-adv-x="466" d="M234 687.5Q315 647 359 574t44-170V252q0-99-43.5-172T235-32.5 44-73V56q103 1 158.5 52.5T258 255v145q0 95-55.5 146.5T44 599v130q109-1 190-41.5z"/><glyph glyph-name="braceleft" unicode="{" horiz-adv-x="544" d="M219 328q91-18 91-122v-96q0-23 16-36t45-13h129V-68H344q-52 0-92.5 20.5T188 9.5 165 93v121q0 23-16 36t-44 13H33v130h72q28 0 44 13t16 36v121q0 47 23 83.5t63.5 57T344 724h156V595H371q-29 0-45-12.5T310 546v-96q0-104-91-122z"/><glyph glyph-name="braceright" unicode="}" horiz-adv-x="544" d="M511 393V263h-72q-28 0-44-13t-16-36V93q0-47-23-83.5t-63.5-57T200-68H44V61h129q29 0 45 12.5t16 36.5v96q0 104 91 122-91 18-91 122v96q0 23-16 36t-45 13H44v129h156q52 0 92.5-20.5t63.5-57 23-83.5V442q0-23 16-36t44-13h72z"/><glyph glyph-name="bracketleft" unicode="[" horiz-adv-x="457" d="M413 724V595H205V61h208V-68H78v792h335z"/><glyph glyph-name="bracketright" unicode="]" horiz-adv-x="457" d="M44 61h208v534H44v129h335V-68H44V61z"/><glyph glyph-name="hyphen" unicode="-" horiz-adv-x="442" d="M392 342V213H50v129h342z"/><glyph glyph-name="uni00AD" unicode="­" horiz-adv-x="442" d="M392 342V213H50v129h342z"/><glyph glyph-name="endash" unicode="–" horiz-adv-x="564" d="M519 342V213H45v129h474z"/><glyph glyph-name="emdash" unicode="—" horiz-adv-x="1122" d="M1050 342V213H72v129h978z"/><glyph glyph-name="uni2015" unicode="―" horiz-adv-x="1122" d="M1050 342V213H72v129h978z"/><glyph glyph-name="uni2010" unicode="‐" horiz-adv-x="442" d="M392 342V213H50v129h342z"/><glyph glyph-name="uni2011" unicode="‑" horiz-adv-x="442" d="M392 342V213H50v129h342z"/><glyph glyph-name="underscore" unicode="_" horiz-adv-x="564" d="M519-42v-118H45v118h474z"/><glyph glyph-name="quotesinglbase" unicode="‚" horiz-adv-x="334" d="M276 148v-21l-98-270H44l71 291h161z"/><glyph glyph-name="quotedblbase" unicode="„" horiz-adv-x="583" d="M273 148v-21l-98-270H44l71 291h158zm252 0v-21l-98-270H296l71 291h158z"/><glyph glyph-name="quotedblleft" unicode="“" horiz-adv-x="583" d="M58 426l98 270h131l-71-291H58v21zm252 0l98 270h131l-71-291H310v21z"/><glyph glyph-name="quotedblright" unicode="”" horiz-adv-x="583" d="M273 696v-21l-98-270H44l71 291h158zm252 0v-21l-98-270H296l71 291h158z"/><glyph glyph-name="quoteleft" unicode="‘" horiz-adv-x="334" d="M58 426l98 270h134l-71-291H58v21z"/><glyph glyph-name="quoteright" unicode="’" horiz-adv-x="334" d="M276 696v-21l-98-270H44l71 291h161z"/><glyph glyph-name="guillemotleft" unicode="«" horiz-adv-x="809" d="M237 277L442 75V54H278L59 267v21l219 213h164v-21zm297 0L740 75V54H575L357 267v21l218 213h165v-21z"/><glyph glyph-name="guillemotright" unicode="»" horiz-adv-x="809" d="M275 277L69 480v21h165l218-213v-21L234 54H69v20zm297 0L367 480v21h164l219-213v-21L531 54H367v20z"/><glyph glyph-name="guilsinglleft" unicode="‹" horiz-adv-x="515" d="M59 288l219 213h168v-21L240 277 446 74V54H278L59 267v21z"/><glyph glyph-name="guilsinglright" unicode="›" horiz-adv-x="515" d="M237 55H69v21l206 203L69 482v20h168l219-213v-21z"/><glyph glyph-name="quotedbl" unicode="&quot;" horiz-adv-x="573" d="M238 696l-4-291H97l-4 291h145zm242 0l-4-291H339l-4 291h145z"/><glyph glyph-name="quotesingle" unicode="'" horiz-adv-x="334" d="M241 696l-4-291H97l-4 291h148z"/><glyph glyph-name="anoteleia" unicode="·" horiz-adv-x="334" d="M104.5 355.5Q80 379 80 416t24.5 60.5T167 500q39 0 63-23.5t24-60.5q0-38-24-61t-63-23q-38 0-62.5 23.5z"/><glyph glyph-name="uni00A0" horiz-adv-x="400"/><glyph glyph-name="uni2009" horiz-adv-x="200"/><glyph glyph-name="uni20BF" unicode="₿" horiz-adv-x="816" d="M723 280q20-32 20-74v-10q0-70-46.5-113T566 31v-91H433v88h-73v-88H227v88H100v601h127v88h133v-88h73v88h133v-91q81-11 125.5-51.5T736 468v-10q0-41-18.5-73T664 332q39-20 59-52zM570.5 494.5Q550 507 505 507H244V388h261q44 0 65 13t21 41v12q0 28-20.5 40.5zM598 216q0 55-87 55H244V150h267q44 0 65.5 14t21.5 43v9z"/><glyph glyph-name="cent" unicode="¢" horiz-adv-x="816" d="M588 364v5q0 41-47.5 64.5T410 457q-181 0-181-119v-20q0-119 183-119 83 0 129.5 23t46.5 65v5h149v-5q0-90-69-147.5T479 69v-79H339v79q-122 16-190.5 81.5T80 318v20q0 103 69.5 169T342 587v79h134v-79q119-14 190-72.5T737 369v-5H588z"/><glyph glyph-name="currency" unicode="¤" horiz-adv-x="816" d="M647 215l101-102-101-91-101 108q-58-24-138-24-81 0-138 24L168 23 67 113l101 102q-25 45-25 101v10q0 58 25 103L68 532l100 91 102-107q57 24 138 24 79 0 138-25l101 108 101-91-101-103q25-47 25-103v-10q0-56-25-101zm-152 39q31 22 31 63v9q0 43-30.5 65.5T408 414t-88-23-31-65v-9q0-40 31.5-62.5T408 232t87 22z"/><glyph glyph-name="dollar" unicode="$" horiz-adv-x="816" d="M745 226v-10q0-82-68-131.5T483 23v-83H331v83Q202 34 136 85T70 225v7h147v-7q0-42 49.5-62.5T419 142q89 0 132.5 14.5T595 201v9q0 16-9 26t-32 15.5-66 10.5l-183 20q-115 13-169 52T82 443v10q0 76 65 122.5T331 633v84h152v-85q121-12 184.5-60.5T731 441v-7H584v7q0 36-47.5 54.5T395 514q-81 0-122.5-13T231 463v-9q0-15 9-23.5t32-14.5 68-11l180-20q225-26 225-159z"/><glyph glyph-name="Euro" unicode="€" horiz-adv-x="816" d="M655 380v7q0 69-55 110t-148 41q-136 0-186-80h299V358H238v-58h327V200H263q50-82 190-82 95 0 148.5 39.5T655 267v7h146v-7q0-80-44.5-144T633 23.5 454-12q-129 0-220 56.5T109 200H0v100h91v58H0v100h110q34 98 124.5 154T454 668q100 0 179-36t123.5-100T801 387v-7H655z"/><glyph glyph-name="florin" unicode="ƒ" horiz-adv-x="816" d="M759 259H460V22q0-76-48-122t-128-46H97v128h167q52 0 52 56v221H57v128h259v142q0 76 48 121.5T492 696h227V569H512q-52 0-52-56V387h299V259z"/><glyph glyph-name="uni20B4" unicode="₴" horiz-adv-x="816" d="M592 352l-150-55h329V197H238q-3-7-3-15 0-73 173-73 89 0 136 15.5t47 45.5v3h145v-3q0-88-82.5-135T417-12Q317-12 243 8.5T129 67t-40 89q0 22 6 41H44v100h153q18 8 27 11l136 50H44v102h531q2 10 2 15 0 72-162 72-83 0-126.5-15.5T245 486v-3H92v3q0 87 82.5 134.5T407 668q96 0 167.5-20.5t110.5-59 39-89.5q0-21-6-39h53V358H608z"/><glyph glyph-name="uni20BA" unicode="₺" horiz-adv-x="816" d="M791 382v-47q0-159-100.5-247T406 0H103v181L0 148v127l103 33v67L0 341v127l103 34v154h150V543l289 93V509l-289-93v-67l289 94V316l-289-94v-90h153q116 0 177 52t61 149v49h147z"/><glyph glyph-name="uni20BD" unicode="₽" horiz-adv-x="816" d="M723.5 605Q791 554 791 466v-12q0-88-67-138.5T540 265H275v-62h352V86H275V0H125v86H25v117h100v62H25v117h100v274h415q116 0 183.5-51zM641 460q0 37-24.5 54T540 531H275V382h265q52 0 76.5 16t24.5 51v11z"/><glyph glyph-name="uni20B9" unicode="₹" horiz-adv-x="816" d="M649 539q13-28 14-62h97V367H660q-14-81-84-128t-179-47h-51L731 23V0H494L57 192v113l333 1q56 0 87.5 14.5T519 367H57v110h467q-1 34-16 62H57v117h703V539H649z"/><glyph glyph-name="sterling" unicode="£" horiz-adv-x="816" d="M627 413v7q0 59-37.5 88T475 537q-156 0-156-104v-74h266V236H319v-31q0-48-25-81h480V0H59v124h39q37 0 53.5 16t16.5 50v46H59v123h109v77q0 110 81 171t227 61q148 0 224-63t76-185v-7H627z"/><glyph glyph-name="uni20B8" unicode="₸" horiz-adv-x="816" d="M765 655V538H50v117h715zM50 357v120h715V357H483V0H332v357H50z"/><glyph glyph-name="uni20AE" unicode="₮" horiz-adv-x="816" d="M484 522V419l226 37V337l-226-37v-65l226 37V153l-226-37V0H333v98L107 61v119l226 37v66l-226-38v119l226 38v120H39v134h739V522H484z"/><glyph glyph-name="yen" unicode="¥" horiz-adv-x="816" d="M772 633L560 362h163V245H484v-62h239V66H484V0H333v66H94v117h239v62H94v117h162L44 633v23h162l202-261 202 261h162v-23z"/><glyph glyph-name="uni2219" unicode="∙" horiz-adv-x="334" d="M104.5 267.5Q80 291 80 329q0 37 24.5 60t62.5 23 62.5-23 24.5-60q0-38-24.5-61.5T167 244t-62.5 23.5z"/><glyph glyph-name="uni2215" unicode="∕" horiz-adv-x="703" d="M496 724h151v-23L207-68H56v23z"/><glyph glyph-name="uni2B38" unicode="⬸" horiz-adv-x="734" d="M277.5 472Q261 489 261 512t16.5 40 40.5 17 40.5-17 16.5-40-16.5-40-40.5-17-40.5 17zM178 363.5Q161 380 161 404t17 40.5 41 16.5q23 0 40-16.5t17-40.5-17-40.5-40-16.5q-24 0-41 16.5zm-101.5-107Q60 273 60 297t16.5 40.5T117 354t40.5-16.5T174 297t-16.5-40.5T117 240t-40.5 16.5zm204.5 0Q264 273 264 297t17 40.5 41 16.5q23 0 39.5-16.5T378 297t-16.5-40.5T322 240q-24 0-41 16.5zm147.5 0Q412 273 412 297t16.5 40.5T469 354q23 0 40-16.5t17-40.5-17-40.5-40-16.5q-24 0-40.5 16.5zm147 0Q559 273 559 297q0 23 17 40t40 17q24 0 40.5-16.5T673 297q0-25-16.5-41T616 240t-40.5 16.5zM178.5 149Q161 166 161 190q0 23 17.5 40t40.5 17 40-17 17-40q0-24-17-41t-40-17-40.5 17zM278 41q-17 16-17 40t16.5 40.5T318 138t40.5-16.5T375 81q0-23-16.5-39.5T318 25q-23 0-40 16z"/><glyph glyph-name="plus" unicode="+" horiz-adv-x="816" d="M715 261H475V41H341v220H101v134h240v220h134V395h240V261z"/><glyph glyph-name="minus" unicode="−" horiz-adv-x="816" d="M715 395V261H101v134h614z"/><glyph glyph-name="multiply" unicode="×" horiz-adv-x="816" d="M504 328l186-186-96-96-186 186L222 46l-96 96 186 186-186 186 96 96 186-186 186 186 96-96z"/><glyph glyph-name="divide" unicode="÷" horiz-adv-x="816" d="M346.5 486Q323 509 323 546t23.5 59.5T408 628t61.5-22.5T493 546t-23.5-60-61.5-23-61.5 23zM715 395V261H101v134h614zM347 51q-24 23-24 59 0 37 23.5 60t61.5 23 61.5-23 23.5-60q0-36-23.5-59T408 28q-37 0-61 23z"/><glyph glyph-name="equal" unicode="=" horiz-adv-x="816" d="M705 510V375H111v135h594zm0-229V146H111v135h594z"/><glyph glyph-name="notequal" unicode="≠" horiz-adv-x="816" d="M509 375l-54-94h250V146H377L317 42H183v22l47 82H111v135h197l54 94H111v135h329l60 104h134v-22l-47-82h118V375H509z"/><glyph glyph-name="greater" unicode="&gt;" horiz-adv-x="816" d="M712 415V241L131 50h-20v134l433 144-433 143v134h20z"/><glyph glyph-name="less" unicode="&lt;" horiz-adv-x="816" d="M705 471L272 328l433-144V50h-20L104 241v174l581 190h20V471z"/><glyph glyph-name="greaterequal" unicode="≥" horiz-adv-x="816" d="M708 488V320L134 173h-20v124l415 107-415 100v123h20zM114 132h594V5H114v127z"/><glyph glyph-name="lessequal" unicode="≤" horiz-adv-x="816" d="M702 504L287 404l415-107V173h-20L108 320v168l574 139h20V504zM108 132h594V5H108v127z"/><glyph glyph-name="plusminus" unicode="±" horiz-adv-x="816" d="M705 471V343H475V196H341v147H111v128h230v149h134V471h230zM111 136h594V4H111v132z"/><glyph glyph-name="approxequal" unicode="≈" horiz-adv-x="816" d="M483.5 357.5Q450 364 401 377q-47 13-79 19.5t-66 6.5q-66 0-143-37v134q72 38 144 38 33 0 61.5-5.5T402 513q44-13 80-20t74-7q76 0 148 33V386q-75-35-150-35-37 0-70.5 6.5zm0-229Q450 135 401 148q-44 12-77.5 18.5T256 173q-69 0-143-37v134q74 39 144 39 34 0 64.5-6.5T402 283q50-14 83.5-20.5T556 256q74 0 148 34V156q-72-34-150-34-37 0-70.5 6.5z"/><glyph glyph-name="logicalnot" unicode="¬" horiz-adv-x="816" d="M101 261v134h614V66H588v195H101z"/><glyph glyph-name="asciitilde" unicode="~" horiz-adv-x="816" d="M486 238.5q-35 6.5-86 19.5-46 12-80 18.5t-70 6.5q-72 0-149-37v134q77 39 150 39 35 0 67-6.5t82-19.5q54-14 88.5-20.5T561 366q77 0 154 34V266q-75-34-156-34-38 0-73 6.5z"/><glyph glyph-name="asciicircum" unicode="^" horiz-adv-x="557" d="M533 392v-20H384L278 525 173 372H24v20l189 264h130z"/><glyph glyph-name="infinity" unicode="∞" horiz-adv-x="1033" d="M888.5 555q56.5-32 88-89.5T1008 335v-14q0-73-31.5-130.5t-88-89.5T761 69 641 97 537 197l-20 26-21-26q-55-72-103.5-100T272 69q-71 0-127.5 32t-88 89.5T25 321v14q0 73 31.5 130.5t88 89.5T272 587q72 0 120.5-28T496 459l21-26 20 26q55 72 104 100t120 28 127.5-32zm-561-338.5Q353 233 380 267l48 61-48 61q-27 35-52.5 51T273 456q-46 0-76-34.5T167 335v-14q0-52 30-86.5t76-34.5q29 0 54.5 16.5zM866 335q0 52-30 86.5T760 456q-29 0-54.5-16T653 389l-48-61 48-61q27-35 52.5-51t54.5-16q46 0 76 34.5t30 86.5v14z"/><glyph glyph-name="integral" unicode="∫" horiz-adv-x="540" d="M146 23q52 0 52 49v429q0 76 48 121.5T374 668h137V546H394q-52 0-52-49V68q0-76-48-121.5T166-99H29V23h117z"/><glyph glyph-name="uni2126" unicode="Ω" horiz-adv-x="880" d="M781 232.5Q732 175 642 149v-24h188V0H500v237q85 10 131 44.5t46 87.5v15q0 69-60.5 105T440 525t-176.5-36T203 384v-15q0-53 46-87.5T380 237V0H50v125h188v24q-90 26-139 83.5T50 372v16q0 85 47.5 148.5T233 634t207 34 207-34 135.5-97.5T830 388v-16q0-82-49-139.5z"/><glyph glyph-name="uni2206" unicode="∆" horiz-adv-x="773" d="M733 134V0H40v134l255 522h183zm-537 1h381L387 533z"/><glyph glyph-name="product" unicode="∏" horiz-adv-x="984" d="M14 521v135h956V521H785V-99H635v620H350V-99H199v620H14z"/></font>
</defs>
</svg>
