<svg><defs><font id="HalvarBreit-Blk" horiz-adv-x="554"><font-face font-family="Halvar Breit Blk" font-weight="900" font-stretch="expanded" panose-1="0 0 10 5 0 0 0 0 0 0" ascent="800" descent="-200" x-height="506" cap-height="656" bbox="-280 -250 1398 979" underline-thickness="50" underline-position="-50" unicode-range="U+0020-U+FB02"/><glyph glyph-name=".notdef" horiz-adv-x="436" d="M15 656h185L0 456v185zm219 0h185L0 236v185zm202-15V456L0 16v185zm0-405L202 0H17l419 421V236zm0-220L421 0H236l200 201V16z"/><glyph glyph-name="space" horiz-adv-x="400"/><glyph glyph-name="A" unicode="A" horiz-adv-x="770" d="M768 30V0H572l-43 108H241L198 0H2v30l272 626h222zM462 274l-77 191-77-191h154z"/><glyph glyph-name="B" unicode="B" horiz-adv-x="785" d="M722 273.5q22-36.5 22-83.5v-10q0-85-67-132.5T489 0H64v656h406q122 0 188-47t66-133v-10q0-86-67-133 43-23 65-59.5zM265 486v-80h205q54 0 54 35v10q0 35-54 35H265zm274-269q0 37-54 37H265v-84h220q54 0 54 37v10z"/><glyph glyph-name="C" unicode="C" horiz-adv-x="874" d="M227 28.5Q134 70 83 146.5T32 325v5q0 102 51 178.5T227 627t216 42q116 0 207.5-37t143-103.5T845 378v-7H640v7q0 48-53.5 76T442 482q-104 0-154.5-37T237 332v-10q0-76 50-112t156-36q94 0 145.5 26.5T640 276v7h205v-7q0-83-51.5-149t-143-103T443-13q-123 0-216 41.5z"/><glyph glyph-name="D" unicode="D" horiz-adv-x="826" d="M410 656q191 0 287.5-81.5T794 331v-7Q794 0 410 0H64v656h346zm137-443q42 33 42 108v12q0 74-43.5 108.5T409 476H265V180h145q95 0 137 33z"/><glyph glyph-name="E" unicode="E" horiz-adv-x="723" d="M672 656V484H265v-71h387V244H265v-72h407V0H64v656h608z"/><glyph glyph-name="F" unicode="F" horiz-adv-x="704" d="M672 656V476H265v-76h387V220H265V0H64v656h608z"/><glyph glyph-name="G" unicode="G" horiz-adv-x="879" d="M847 373V0H669l-4 39q-44-28-94-40T451-13q-127 0-222 41.5T83 146 32 325v5q0 102 51 178.5T227 627t217 42 214.5-28.5 139-82.5T846 430v-3H641v3q0 16-26 29.5t-69 22-92 8.5q-217 0-217-158v-10q0-79 53-117t164-38q134 0 203 39v19H346v148h501z"/><glyph glyph-name="H" unicode="H" horiz-adv-x="819" d="M265 656V418h289v238h201V0H554v238H265V0H64v656h201z"/><glyph glyph-name="I" unicode="I" horiz-adv-x="299" d="M250 656V0H49v656h201z"/><glyph glyph-name="J" unicode="J" horiz-adv-x="749" d="M186.5 25Q111 63 70.5 135T30 305v28h201v-28q0-131 134-131 70 0 99.5 29.5T494 303v173H223v180h472V307q0-152-86.5-236T365-13q-103 0-178.5 38z"/><glyph glyph-name="K" unicode="K" horiz-adv-x="813" d="M783 626L510 369 764 30V0H540L354 253l-89-88V0H64v656h201V387l283 269h235v-30z"/><glyph glyph-name="L" unicode="L" horiz-adv-x="687" d="M265 656V180h407V0H64v656h201z"/><glyph glyph-name="M" unicode="M" horiz-adv-x="1029" d="M965 0H767v365L613 0H416L263 363V0H64v656h269l182-431 180 431h270V0z"/><glyph glyph-name="N" unicode="N" horiz-adv-x="819" d="M755 656V0H569L252 371V0H64v656h187l316-370v370h188z"/><glyph glyph-name="O" unicode="O" horiz-adv-x="877" d="M225 28.5Q133 70 82.5 147T32 325v5q0 101 50.5 178T225 627t213 42q123 0 215-42t142-118.5T845 330v-5q0-102-50-178.5t-142-118T438-13q-121 0-213 41.5zm366 182Q640 247 640 322v10q0 150-202 150-99 0-150-38t-51-112v-10q0-75 50-111.5T438 174q104 0 153 36.5z"/><glyph glyph-name="P" unicode="P" horiz-adv-x="787" d="M491 656q124 0 194-59t70-163v-10q0-104-70-163.5T491 201H265V0H64v656h427zm59-232v10q0 48-64 48H265V375h221q64 0 64 49z"/><glyph glyph-name="Q" unicode="Q" horiz-adv-x="877" d="M653 627q92-42 142-118.5T845 330v-5q0-116-65-199T599 9l57-122v-30H453L392-11Q283-4 201.5 39.5T76 156.5 32 325v5q0 101 50.5 178T225 627t213 42q123 0 215-42zm-13-295q0 150-202 150-99 0-150-38t-51-112v-10q0-75 50-111.5T438 174q104 0 153 36.5T640 322v10z"/><glyph glyph-name="R" unicode="R" horiz-adv-x="806" d="M708.5 297Q662 248 574 233L751 30V0H524L338 226h-73V0H64v656h427q123 0 193.5-59T755 435v-10q0-79-46.5-128zM265 375h221q64 0 64 49v10q0 48-64 48H265V375z"/><glyph glyph-name="S" unicode="S" horiz-adv-x="771" d="M133.5 48Q47 109 47 225v10h195v-10q0-34 39-52.5T391 154q129 0 129 43v6q0 27-65 37l-185 29q-108 17-161 62T56 451v10q0 99 84 153.5T376 669q161 0 246.5-58.5T708 443v-8H515v8q0 30-34 44.5T376 502q-120 0-120-36v-6q0-11 14.5-18.5T319 429l186-29q111-17 165-63.5T724 212v-10q0-102-89.5-158.5T384-13q-164 0-250.5 61z"/><glyph glyph-name="T" unicode="T" horiz-adv-x="691" d="M15 476v180h661V476H446V0H245v476H15z"/><glyph glyph-name="U" unicode="U" horiz-adv-x="793" d="M215.5 27.5Q138 68 96 143T54 317v339h201V313q0-139 141-139 72 0 107 34.5T538 313v343h201V317q0-100-42.5-174.5t-120-115T396-13 215.5 27.5z"/><glyph glyph-name="V" unicode="V" horiz-adv-x="770" d="M768 656v-30L501 0H269L2 626v30h206l176-448 176 448h208z"/><glyph glyph-name="W" unicode="W" horiz-adv-x="1175" d="M1173 656v-30L962 0H717L588 396 460 0H215L2 626v30h204l133-423 140 423h218l141-422 131 422h204z"/><glyph glyph-name="X" unicode="X" horiz-adv-x="819" d="M789 626L545 328 789 30V0H557L409 186 262 0H30v30l244 298L30 626v30h232l147-186 148 186h232v-30z"/><glyph glyph-name="Y" unicode="Y" horiz-adv-x="726" d="M735 656v-30L464 254V0H263v254L-9 626v30h210l163-231 162 231h209z"/><glyph glyph-name="Z" unicode="Z" horiz-adv-x="696" d="M659 477L311 179h348V0H37v179l348 298H37v179h622V477z"/><glyph glyph-name="Aacute" unicode="Á" horiz-adv-x="770" d="M768 30V0H572l-43 108H241L198 0H2v30l272 626h222zM462 274l-77 191-77-191h154zm149 633V755l-452-60v152z"/><glyph glyph-name="Abreve" unicode="Ă" horiz-adv-x="770" d="M768 30V0H572l-43 108H241L198 0H2v30l272 626h222zM462 274l-77 191-77-191h154zM159 747v152q122-45 228-45 107 0 224 45V747q-117-45-224-45-106 0-228 45z"/><glyph glyph-name="uni01CD" unicode="Ǎ" horiz-adv-x="770" d="M768 30V0H572l-43 108H241L198 0H2v30l272 626h222zM462 274l-77 191-77-191h154zM159 906l226-56 226 56V751l-226-56-226 56v155z"/><glyph glyph-name="Acircumflex" unicode="Â" horiz-adv-x="770" d="M768 30V0H572l-43 108H241L198 0H2v30l272 626h222zM462 274l-77 191-77-191h154zm-77 632l226-56V695l-226 56-226-56v155z"/><glyph glyph-name="Adieresis" unicode="Ä" horiz-adv-x="770" d="M768 30V0H572l-43 108H241L198 0H2v30l272 626h222zM462 274l-77 191-77-191h154zM178.5 728.5Q149 756 149 800t29.5 71 76.5 27q46 0 75-27t29-71-29-71.5-75-27.5q-47 0-76.5 27.5zm261.5 0Q411 756 411 800t29 71 76 27 75.5-27 28.5-71-29-71.5-75-27.5q-47 0-76 27.5z"/><glyph glyph-name="Agrave" unicode="À" horiz-adv-x="770" d="M768 30V0H572l-43 108H241L198 0H2v30l272 626h222zM462 274l-77 191-77-191h154zM159 908l452-60V696l-452 60v152z"/><glyph glyph-name="Amacron" unicode="Ā" horiz-adv-x="770" d="M768 30V0H572l-43 108H241L198 0H2v30l272 626h222zM462 274l-77 191-77-191h154zm149 603V725H159v152h452z"/><glyph glyph-name="Aogonek" unicode="Ą" horiz-adv-x="770" d="M768 30V0H572l-43 108H241L198 0H2v30l272 626h222zM462 274l-77 191-77-191h154zm57-423q-31 21-31 58 0 27 17 48.5T567 9l153 102L768 0l-48-35q-6-4-8.5-7.5T709-50q0-5 4-7.5t11-2.5h44v-110H603q-53 0-84 21z"/><glyph glyph-name="Aring" unicode="Å" horiz-adv-x="770" d="M768 30V0H572l-43 108H241L198 0H2v30l272 626h222zM462 274l-77 191-77-191h154zM251.5 649Q204 686 204 755q0 67 48.5 105T385 898t132.5-38T566 755q0-69-47.5-106T385 612t-133.5 37zM422 724q13 11 13 31t-13 31-37 11-37-11-13-31 13-31 37-11 37 11z"/><glyph glyph-name="Atilde" unicode="Ã" horiz-adv-x="770" d="M768 30V0H572l-43 108H241L198 0H2v30l272 626h222zM462 274l-77 191-77-191h154zm-19 440.5q-24 3.5-62 10.5-35 7-58.5 10.5T274 739q-59 0-115-27v150q58 29 117 29 32 0 66.5-7t41.5-8q35-8 60.5-12t51.5-4q63 0 115 26V736q-53-25-117-25-27 0-51 3.5z"/><glyph glyph-name="AE" unicode="Æ" horiz-adv-x="1072" d="M618 484l15-71h368V244H670l15-72h336V0H512l-22 108H242L198 0H2v30l272 626h747V484H618zm-203 0h-22l-85-210h149z"/><glyph glyph-name="AEacute" unicode="Ǽ" horiz-adv-x="1072" d="M618 484l15-71h368V244H670l15-72h336V0H512l-22 108H242L198 0H2v30l272 626h747V484H618zm-203 0h-22l-85-210h149zm347 423V755l-452-60v152z"/><glyph glyph-name="Cacute" unicode="Ć" horiz-adv-x="874" d="M227 28.5Q134 70 83 146.5T32 325v5q0 102 51 178.5T227 627t216 42q116 0 207.5-37t143-103.5T845 378v-7H640v7q0 48-53.5 76T442 482q-104 0-154.5-37T237 332v-10q0-76 50-112t156-36q94 0 145.5 26.5T640 276v7h205v-7q0-83-51.5-149t-143-103T443-13q-123 0-216 41.5zM673 907V755l-452-60v152z"/><glyph glyph-name="Ccaron" unicode="Č" horiz-adv-x="874" d="M227 28.5Q134 70 83 146.5T32 325v5q0 102 51 178.5T227 627t216 42q116 0 207.5-37t143-103.5T845 378v-7H640v7q0 48-53.5 76T442 482q-104 0-154.5-37T237 332v-10q0-76 50-112t156-36q94 0 145.5 26.5T640 276v7h205v-7q0-83-51.5-149t-143-103T443-13q-123 0-216 41.5zM221 906l226-56 226 56V751l-226-56-226 56v155z"/><glyph glyph-name="Ccedilla" unicode="Ç" horiz-adv-x="874" d="M227 28.5Q134 70 83 146.5T32 325v5q0 102 51 178.5T227 627t216 42q116 0 207.5-37t143-103.5T845 378v-7H640v7q0 48-53.5 76T442 482q-104 0-154.5-37T237 332v-10q0-76 50-112t156-36q94 0 145.5 26.5T640 276v7h205v-7q0-83-51.5-149t-143-103T443-13q-123 0-216 41.5zM547 0l-48-170H298l69 243z"/><glyph glyph-name="Ccircumflex" unicode="Ĉ" horiz-adv-x="874" d="M227 28.5Q134 70 83 146.5T32 325v5q0 102 51 178.5T227 627t216 42q116 0 207.5-37t143-103.5T845 378v-7H640v7q0 48-53.5 76T442 482q-104 0-154.5-37T237 332v-10q0-76 50-112t156-36q94 0 145.5 26.5T640 276v7h205v-7q0-83-51.5-149t-143-103T443-13q-123 0-216 41.5zM447 906l226-56V695l-226 56-226-56v155z"/><glyph glyph-name="Cdotaccent" unicode="Ċ" horiz-adv-x="874" d="M227 28.5Q134 70 83 146.5T32 325v5q0 102 51 178.5T227 627t216 42q116 0 207.5-37t143-103.5T845 378v-7H640v7q0 48-53.5 76T442 482q-104 0-154.5-37T237 332v-10q0-76 50-112t156-36q94 0 145.5 26.5T640 276v7h205v-7q0-83-51.5-149t-143-103T443-13q-123 0-216 41.5zm139.5 696Q335 754 335 801t31 76 81 29 81-29 31-76-31-76.5-81-29.5q-49 0-80.5 29.5z"/><glyph glyph-name="Eth" unicode="Ð" horiz-adv-x="859" d="M730.5 574.5Q827 493 827 331v-7Q827 0 443 0H97v242H-10v173H97v241h346q191 0 287.5-81.5zM622 333q0 74-43.5 108.5T442 476H298v-61h137V242H298v-62h145q95 0 137 33t42 108v12z"/><glyph glyph-name="Dcaron" unicode="Ď" horiz-adv-x="826" d="M410 656q191 0 287.5-81.5T794 331v-7Q794 0 410 0H64v656h346zm137-443q42 33 42 108v12q0 74-43.5 108.5T409 476H265V180h145q95 0 137 33zM192 906l226-56 226 56V751l-226-56-226 56v155z"/><glyph glyph-name="Dcroat" unicode="Đ" horiz-adv-x="859" d="M730.5 574.5Q827 493 827 331v-7Q827 0 443 0H97v242H-10v173H97v241h346q191 0 287.5-81.5zM622 333q0 74-43.5 108.5T442 476H298v-61h137V242H298v-62h145q95 0 137 33t42 108v12z"/><glyph glyph-name="Eacute" unicode="É" horiz-adv-x="723" d="M672 656V484H265v-71h387V244H265v-72h407V0H64v656h608zm-78 251V755l-452-60v152z"/><glyph glyph-name="Ebreve" unicode="Ĕ" horiz-adv-x="723" d="M672 656V484H265v-71h387V244H265v-72h407V0H64v656h608zm-530 91v152q122-45 228-45 107 0 224 45V747q-117-45-224-45-106 0-228 45z"/><glyph glyph-name="Ecaron" unicode="Ě" horiz-adv-x="723" d="M672 656V484H265v-71h387V244H265v-72h407V0H64v656h608zM142 906l226-56 226 56V751l-226-56-226 56v155z"/><glyph glyph-name="Ecircumflex" unicode="Ê" horiz-adv-x="723" d="M672 656V484H265v-71h387V244H265v-72h407V0H64v656h608zM368 906l226-56V695l-226 56-226-56v155z"/><glyph glyph-name="Edieresis" unicode="Ë" horiz-adv-x="723" d="M672 656V484H265v-71h387V244H265v-72h407V0H64v656h608zm-510.5 72.5Q132 756 132 800t29.5 71 76.5 27q46 0 75-27t29-71-29-71.5-75-27.5q-47 0-76.5 27.5zm261.5 0Q394 756 394 800t29 71 76 27 75.5-27 28.5-71-29-71.5-75-27.5q-47 0-76 27.5z"/><glyph glyph-name="Edotaccent" unicode="Ė" horiz-adv-x="723" d="M672 656V484H265v-71h387V244H265v-72h407V0H64v656h608zm-384.5 68.5Q256 754 256 801t31 76 81 29 81-29 31-76-31-76.5-81-29.5q-49 0-80.5 29.5z"/><glyph glyph-name="uni1EB8" unicode="Ẹ" horiz-adv-x="723" d="M672 656V484H265v-71h387V244H265v-72h407V0H64v656h608zM287-221q-31 29-31 76t31.5 76.5T368-39q50 0 81-29.5t31-76.5-31-76-81-29-81 29z"/><glyph glyph-name="Egrave" unicode="È" horiz-adv-x="723" d="M672 656V484H265v-71h387V244H265v-72h407V0H64v656h608zM142 908l452-60V696l-452 60v152z"/><glyph glyph-name="Emacron" unicode="Ē" horiz-adv-x="723" d="M672 656V484H265v-71h387V244H265v-72h407V0H64v656h608zm-78 221V725H142v152h452z"/><glyph glyph-name="Eogonek" unicode="Ę" horiz-adv-x="723" d="M672 656V484H265v-71h387V244H265v-72h407V0H64v656h608zM423-149q-31 21-31 58 0 27 17 48.5T471 9l153 102L672 0l-48-35q-6-4-8.5-7.5T613-50q0-5 4-7.5t11-2.5h44v-110H507q-53 0-84 21z"/><glyph glyph-name="uni1EBC" unicode="Ẽ" horiz-adv-x="723" d="M672 656V484H265v-71h387V244H265v-72h407V0H64v656h608zm-246 58.5q-24 3.5-62 10.5-35 7-58.5 10.5T257 739q-59 0-115-27v150q58 29 117 29 32 0 66.5-7t41.5-8q35-8 60.5-12t51.5-4q63 0 115 26V736q-53-25-117-25-27 0-51 3.5z"/><glyph glyph-name="uni01F4" unicode="Ǵ" horiz-adv-x="879" d="M847 373V0H669l-4 39q-44-28-94-40T451-13q-127 0-222 41.5T83 146 32 325v5q0 102 51 178.5T227 627t217 42 214.5-28.5 139-82.5T846 430v-3H641v3q0 16-26 29.5t-69 22-92 8.5q-217 0-217-158v-10q0-79 53-117t164-38q134 0 203 39v19H346v148h501zM674 907V755l-452-60v152z"/><glyph glyph-name="Gbreve" unicode="Ğ" horiz-adv-x="879" d="M847 373V0H669l-4 39q-44-28-94-40T451-13q-127 0-222 41.5T83 146 32 325v5q0 102 51 178.5T227 627t217 42 214.5-28.5 139-82.5T846 430v-3H641v3q0 16-26 29.5t-69 22-92 8.5q-217 0-217-158v-10q0-79 53-117t164-38q134 0 203 39v19H346v148h501zM222 747v152q122-45 228-45 107 0 224 45V747q-117-45-224-45-106 0-228 45z"/><glyph glyph-name="Gcaron" unicode="Ǧ" horiz-adv-x="879" d="M847 373V0H669l-4 39q-44-28-94-40T451-13q-127 0-222 41.5T83 146 32 325v5q0 102 51 178.5T227 627t217 42 214.5-28.5 139-82.5T846 430v-3H641v3q0 16-26 29.5t-69 22-92 8.5q-217 0-217-158v-10q0-79 53-117t164-38q134 0 203 39v19H346v148h501zM222 906l226-56 226 56V751l-226-56-226 56v155z"/><glyph glyph-name="Gcircumflex" unicode="Ĝ" horiz-adv-x="879" d="M847 373V0H669l-4 39q-44-28-94-40T451-13q-127 0-222 41.5T83 146 32 325v5q0 102 51 178.5T227 627t217 42 214.5-28.5 139-82.5T846 430v-3H641v3q0 16-26 29.5t-69 22-92 8.5q-217 0-217-158v-10q0-79 53-117t164-38q134 0 203 39v19H346v148h501zM448 906l226-56V695l-226 56-226-56v155z"/><glyph glyph-name="uni0122" unicode="Ģ" horiz-adv-x="879" d="M847 373V0H669l-4 39q-44-28-94-40T451-13q-127 0-222 41.5T83 146 32 325v5q0 102 51 178.5T227 627t217 42 214.5-28.5 139-82.5T846 430v-3H641v3q0 16-26 29.5t-69 22-92 8.5q-217 0-217-158v-10q0-79 53-117t164-38q134 0 203 39v19H346v148h501zM544-58l-68-192H285l58 192h201z"/><glyph glyph-name="Gdotaccent" unicode="Ġ" horiz-adv-x="879" d="M847 373V0H669l-4 39q-44-28-94-40T451-13q-127 0-222 41.5T83 146 32 325v5q0 102 51 178.5T227 627t217 42 214.5-28.5 139-82.5T846 430v-3H641v3q0 16-26 29.5t-69 22-92 8.5q-217 0-217-158v-10q0-79 53-117t164-38q134 0 203 39v19H346v148h501zM367.5 724.5Q336 754 336 801t31 76 81 29 81-29 31-76-31-76.5-81-29.5q-49 0-80.5 29.5z"/><glyph glyph-name="Hbar" unicode="Ħ" horiz-adv-x="819" d="M829 422h-74V0H554v182H265V0H64v422h-74v173h74v61h201v-61h289v61h201v-61h74V422zm-275 0H265v-67h289v67z"/><glyph glyph-name="Hcircumflex" unicode="Ĥ" horiz-adv-x="819" d="M265 656V418h289v238h201V0H554v238H265V0H64v656h201zm145 250l226-56V695l-226 56-226-56v155z"/><glyph glyph-name="IJ" unicode="Ĳ" horiz-adv-x="841" d="M265 656V0H64v656h201zm192-476q68 0 98.5 31.5T586 315v161H345v180h442V319q0-152-86.5-235.5T457 0H345v180h112z"/><glyph glyph-name="Iacute" unicode="Í" horiz-adv-x="299" d="M250 656V0H49v656h201zm58 243V747L-8 703v152z"/><glyph glyph-name="Ibreve" unicode="Ĭ" horiz-adv-x="299" d="M250 656V0H49v656h201zM-8 746v152q74-43 158-43 91 0 158 43V746q-67-43-158-43-84 0-158 43z"/><glyph glyph-name="Icircumflex" unicode="Î" horiz-adv-x="299" d="M250 656V0H49v656h201zM150 899l158-28V714l-158 28-158-28v157z"/><glyph glyph-name="Idieresis" unicode="Ï" horiz-adv-x="299" d="M250 656V0H49v656h201zm-306.5 72.5Q-86 756-86 800t29.5 71T20 898q46 0 75-27t29-71-29-71.5T20 701q-47 0-76.5 27.5zm261.5 0Q176 756 176 800t29 71 76 27 75.5-27 28.5-71-29-71.5-75-27.5q-47 0-76 27.5z"/><glyph glyph-name="Idotaccent" unicode="İ" horiz-adv-x="299" d="M250 656V0H49v656h201zM69.5 724.5Q38 754 38 801t31 76 81 29 81-29 31-76-31-76.5-81-29.5q-49 0-80.5 29.5z"/><glyph glyph-name="uni1ECA" unicode="Ị" horiz-adv-x="299" d="M250 656V0H49v656h201zM69-221q-31 29-31 76t31.5 76.5T150-39q50 0 81-29.5t31-76.5-31-76-81-29-81 29z"/><glyph glyph-name="Igrave" unicode="Ì" horiz-adv-x="299" d="M250 656V0H49v656h201zM-8 900l316-44V704L-8 748v152z"/><glyph glyph-name="Imacron" unicode="Ī" horiz-adv-x="299" d="M250 656V0H49v656h201zm58 221V725H-8v152h316z"/><glyph glyph-name="Iogonek" unicode="Į" horiz-adv-x="299" d="M250 656V0H49v656h201zM1-149q-31 21-31 58 0 27 17 48.5T49 9l153 102L250 0l-48-35q-6-4-8.5-7.5T191-50q0-5 4-7.5t11-2.5h44v-110H85q-53 0-84 21z"/><glyph glyph-name="Itilde" unicode="Ĩ" horiz-adv-x="299" d="M250 656V0H49v656h201zm-102 69q-19 5-39 9.5T72 739q-41 0-80-24v150q40 26 82 26 23 0 46.5-7t28.5-8q50-16 79-16 43 0 80 22V732q-37-21-82-21-28 0-78 14z"/><glyph glyph-name="Jcircumflex" unicode="Ĵ" horiz-adv-x="749" d="M186.5 25Q111 63 70.5 135T30 305v28h201v-28q0-131 134-131 70 0 99.5 29.5T494 303v173H223v180h472V307q0-152-86.5-236T365-13q-103 0-178.5 38zM450 906l226-56V695l-226 56-226-56v155z"/><glyph glyph-name="uni0136" unicode="Ķ" horiz-adv-x="813" d="M783 626L510 369 764 30V0H540L354 253l-89-88V0H64v656h201V387l283 269h235v-30zM502-58l-68-192H243l58 192h201z"/><glyph glyph-name="Lacute" unicode="Ĺ" horiz-adv-x="687" d="M265 656V180h407V0H64v656h201zm127 251V755l-452-60v152z"/><glyph glyph-name="Lcaron" unicode="Ľ" horiz-adv-x="687" d="M265 656V180h407V0H64v656h201zm341 0l-67-190H365l22 190h219z"/><glyph glyph-name="uni013B" unicode="Ļ" horiz-adv-x="687" d="M265 656V180h407V0H64v656h201zM448-58l-68-192H189l58 192h201z"/><glyph glyph-name="Ldot" unicode="Ŀ" horiz-adv-x="687" d="M265 656V180h407V0H64v656h201zm162-336q-31 30-31 79 0 48 31 78t81 30 81-30 31-78q0-49-31-79t-81-30-81 30z"/><glyph glyph-name="Lslash" unicode="Ł" horiz-adv-x="720" d="M705 180V0H97v253l-107-22v176l107 22v227h201V461l248 51V336l-248-51V180h407z"/><glyph glyph-name="Nacute" unicode="Ń" horiz-adv-x="819" d="M755 656V0H569L252 371V0H64v656h187l316-370v370h188zM636 907V755l-452-60v152z"/><glyph glyph-name="Ncaron" unicode="Ň" horiz-adv-x="819" d="M755 656V0H569L252 371V0H64v656h187l316-370v370h188zM184 906l226-56 226 56V751l-226-56-226 56v155z"/><glyph glyph-name="uni0145" unicode="Ņ" horiz-adv-x="819" d="M755 656V0H569L252 371V0H64v656h187l316-370v370h188zM506-58l-68-192H247l58 192h201z"/><glyph glyph-name="Eng" unicode="Ŋ" horiz-adv-x="819" d="M755 656V78q0-122-66-185t-194-63h-52V0h42q43 0 64 21L253 373V0H64v656h190l313-373v373h188z"/><glyph glyph-name="Ntilde" unicode="Ñ" horiz-adv-x="819" d="M755 656V0H569L252 371V0H64v656h187l316-370v370h188zm-287 58.5q-24 3.5-62 10.5-35 7-58.5 10.5T299 739q-59 0-115-27v150q58 29 117 29 32 0 66.5-7t41.5-8q35-8 60.5-12t51.5-4q63 0 115 26V736q-53-25-117-25-27 0-51 3.5z"/><glyph glyph-name="Oacute" unicode="Ó" horiz-adv-x="877" d="M225 28.5Q133 70 82.5 147T32 325v5q0 101 50.5 178T225 627t213 42q123 0 215-42t142-118.5T845 330v-5q0-102-50-178.5t-142-118T438-13q-121 0-213 41.5zm366 182Q640 247 640 322v10q0 150-202 150-99 0-150-38t-51-112v-10q0-75 50-111.5T438 174q104 0 153 36.5zM667 907V755l-452-60v152z"/><glyph glyph-name="Obreve" unicode="Ŏ" horiz-adv-x="877" d="M225 28.5Q133 70 82.5 147T32 325v5q0 101 50.5 178T225 627t213 42q123 0 215-42t142-118.5T845 330v-5q0-102-50-178.5t-142-118T438-13q-121 0-213 41.5zm366 182Q640 247 640 322v10q0 150-202 150-99 0-150-38t-51-112v-10q0-75 50-111.5T438 174q104 0 153 36.5zM215 747v152q122-45 228-45 107 0 224 45V747q-117-45-224-45-106 0-228 45z"/><glyph glyph-name="Ocircumflex" unicode="Ô" horiz-adv-x="877" d="M225 28.5Q133 70 82.5 147T32 325v5q0 101 50.5 178T225 627t213 42q123 0 215-42t142-118.5T845 330v-5q0-102-50-178.5t-142-118T438-13q-121 0-213 41.5zm366 182Q640 247 640 322v10q0 150-202 150-99 0-150-38t-51-112v-10q0-75 50-111.5T438 174q104 0 153 36.5zM441 906l226-56V695l-226 56-226-56v155z"/><glyph glyph-name="Odieresis" unicode="Ö" horiz-adv-x="877" d="M225 28.5Q133 70 82.5 147T32 325v5q0 101 50.5 178T225 627t213 42q123 0 215-42t142-118.5T845 330v-5q0-102-50-178.5t-142-118T438-13q-121 0-213 41.5zm366 182Q640 247 640 322v10q0 150-202 150-99 0-150-38t-51-112v-10q0-75 50-111.5T438 174q104 0 153 36.5zm-356.5 518Q205 756 205 800t29.5 71 76.5 27q46 0 75-27t29-71-29-71.5-75-27.5q-47 0-76.5 27.5zm261.5 0Q467 756 467 800t29 71 76 27 75.5-27 28.5-71-29-71.5-75-27.5q-47 0-76 27.5z"/><glyph glyph-name="uni1ECC" unicode="Ọ" horiz-adv-x="877" d="M225 28.5Q133 70 82.5 147T32 325v5q0 101 50.5 178T225 627t213 42q123 0 215-42t142-118.5T845 330v-5q0-102-50-178.5t-142-118T438-13q-121 0-213 41.5zm366 182Q640 247 640 322v10q0 150-202 150-99 0-150-38t-51-112v-10q0-75 50-111.5T438 174q104 0 153 36.5zM358-221q-31 29-31 76t31.5 76.5T439-39q50 0 81-29.5t31-76.5-31-76-81-29-81 29z"/><glyph glyph-name="Ograve" unicode="Ò" horiz-adv-x="877" d="M225 28.5Q133 70 82.5 147T32 325v5q0 101 50.5 178T225 627t213 42q123 0 215-42t142-118.5T845 330v-5q0-102-50-178.5t-142-118T438-13q-121 0-213 41.5zm366 182Q640 247 640 322v10q0 150-202 150-99 0-150-38t-51-112v-10q0-75 50-111.5T438 174q104 0 153 36.5zM215 908l452-60V696l-452 60v152z"/><glyph glyph-name="Ohungarumlaut" unicode="Ő" horiz-adv-x="877" d="M225 28.5Q133 70 82.5 147T32 325v5q0 101 50.5 178T225 627t213 42q123 0 215-42t142-118.5T845 330v-5q0-102-50-178.5t-142-118T438-13q-121 0-213 41.5zm366 182Q640 247 640 322v10q0 150-202 150-99 0-150-38t-51-112v-10q0-75 50-111.5T438 174q104 0 153 36.5zM454 906V752l-280-57v154zm320 0V752l-280-57v154z"/><glyph glyph-name="Omacron" unicode="Ō" horiz-adv-x="877" d="M225 28.5Q133 70 82.5 147T32 325v5q0 101 50.5 178T225 627t213 42q123 0 215-42t142-118.5T845 330v-5q0-102-50-178.5t-142-118T438-13q-121 0-213 41.5zm366 182Q640 247 640 322v10q0 150-202 150-99 0-150-38t-51-112v-10q0-75 50-111.5T438 174q104 0 153 36.5zM667 877V725H215v152h452z"/><glyph glyph-name="Oslash" unicode="Ø" horiz-adv-x="877" d="M810 482.5Q845 415 845 330v-5q0-102-49.5-178.5T654 28.5 440-13q-52 0-94 7l-39-65H104v30l63 102q-65 45-100 112.5T32 325v5q0 102 50.5 178.5t143 118.5T440 669q50 0 91-7l39 65h203v-30l-62-102q64-45 99-112.5zM237 321q0-68 31-108l175 289h-4q-103 0-152.5-40.5T237 335v-14zm404 14q0 70-32 109L434 154h5q103 0 152.5 40.5T641 321v14z"/><glyph glyph-name="Oslashacute" unicode="Ǿ" horiz-adv-x="877" d="M810 482.5Q845 415 845 330v-5q0-102-49.5-178.5T654 28.5 440-13q-52 0-94 7l-39-65H104v30l63 102q-65 45-100 112.5T32 325v5q0 102 50.5 178.5t143 118.5T440 669q50 0 91-7l39 65h203v-30l-62-102q64-45 99-112.5zM237 321q0-68 31-108l175 289h-4q-103 0-152.5-40.5T237 335v-14zm404 14q0 70-32 109L434 154h5q103 0 152.5 40.5T641 321v14zm24 572V755l-452-60v152z"/><glyph glyph-name="Otilde" unicode="Õ" horiz-adv-x="877" d="M225 28.5Q133 70 82.5 147T32 325v5q0 101 50.5 178T225 627t213 42q123 0 215-42t142-118.5T845 330v-5q0-102-50-178.5t-142-118T438-13q-121 0-213 41.5zm366 182Q640 247 640 322v10q0 150-202 150-99 0-150-38t-51-112v-10q0-75 50-111.5T438 174q104 0 153 36.5zm-92 504q-24 3.5-62 10.5-35 7-58.5 10.5T330 739q-59 0-115-27v150q58 29 117 29 32 0 66.5-7t41.5-8q35-8 60.5-12t51.5-4q63 0 115 26V736q-53-25-117-25-27 0-51 3.5z"/><glyph glyph-name="OE" unicode="Œ" horiz-adv-x="1263" d="M32 324v7q0 162 96.5 243.5T416 656h796V484H772v-71h388V244H772v-72h440V0H416Q32 0 32 324zm539 152H417q-91 0-135.5-35.5T237 333v-12q0-73 43-107t136-34h155v296z"/><glyph glyph-name="Thorn" unicode="Þ" horiz-adv-x="787" d="M685 497q70-59 70-163v-10q0-104-70-163.5T491 101H265V0H64v656h201V556h226q124 0 194-59zM550 334q0 48-64 48H265V275h221q64 0 64 49v10z"/><glyph glyph-name="Racute" unicode="Ŕ" horiz-adv-x="806" d="M708.5 297Q662 248 574 233L751 30V0H524L338 226h-73V0H64v656h427q123 0 193.5-59T755 435v-10q0-79-46.5-128zM265 375h221q64 0 64 49v10q0 48-64 48H265V375zm365 532V755l-452-60v152z"/><glyph glyph-name="Rcaron" unicode="Ř" horiz-adv-x="806" d="M708.5 297Q662 248 574 233L751 30V0H524L338 226h-73V0H64v656h427q123 0 193.5-59T755 435v-10q0-79-46.5-128zM265 375h221q64 0 64 49v10q0 48-64 48H265V375zm-87 531l226-56 226 56V751l-226-56-226 56v155z"/><glyph glyph-name="uni0156" unicode="Ŗ" horiz-adv-x="806" d="M708.5 297Q662 248 574 233L751 30V0H524L338 226h-73V0H64v656h427q123 0 193.5-59T755 435v-10q0-79-46.5-128zM265 375h221q64 0 64 49v10q0 48-64 48H265V375zM500-58l-68-192H241l58 192h201z"/><glyph glyph-name="Sacute" unicode="Ś" horiz-adv-x="771" d="M133.5 48Q47 109 47 225v10h195v-10q0-34 39-52.5T391 154q129 0 129 43v6q0 27-65 37l-185 29q-108 17-161 62T56 451v10q0 99 84 153.5T376 669q161 0 246.5-58.5T708 443v-8H515v8q0 30-34 44.5T376 502q-120 0-120-36v-6q0-11 14.5-18.5T319 429l186-29q111-17 165-63.5T724 212v-10q0-102-89.5-158.5T384-13q-164 0-250.5 61zM607 907V755l-452-60v152z"/><glyph glyph-name="Scaron" unicode="Š" horiz-adv-x="771" d="M133.5 48Q47 109 47 225v10h195v-10q0-34 39-52.5T391 154q129 0 129 43v6q0 27-65 37l-185 29q-108 17-161 62T56 451v10q0 99 84 153.5T376 669q161 0 246.5-58.5T708 443v-8H515v8q0 30-34 44.5T376 502q-120 0-120-36v-6q0-11 14.5-18.5T319 429l186-29q111-17 165-63.5T724 212v-10q0-102-89.5-158.5T384-13q-164 0-250.5 61zM155 906l226-56 226 56V751l-226-56-226 56v155z"/><glyph glyph-name="Scedilla" unicode="Ş" horiz-adv-x="771" d="M133.5 48Q47 109 47 225v10h195v-10q0-34 39-52.5T391 154q129 0 129 43v6q0 27-65 37l-185 29q-108 17-161 62T56 451v10q0 99 84 153.5T376 669q161 0 246.5-58.5T708 443v-8H515v8q0 30-34 44.5T376 502q-120 0-120-36v-6q0-11 14.5-18.5T319 429l186-29q111-17 165-63.5T724 212v-10q0-102-89.5-158.5T384-13q-164 0-250.5 61zM483 0l-48-170H234l69 243z"/><glyph glyph-name="Scircumflex" unicode="Ŝ" horiz-adv-x="771" d="M133.5 48Q47 109 47 225v10h195v-10q0-34 39-52.5T391 154q129 0 129 43v6q0 27-65 37l-185 29q-108 17-161 62T56 451v10q0 99 84 153.5T376 669q161 0 246.5-58.5T708 443v-8H515v8q0 30-34 44.5T376 502q-120 0-120-36v-6q0-11 14.5-18.5T319 429l186-29q111-17 165-63.5T724 212v-10q0-102-89.5-158.5T384-13q-164 0-250.5 61zM381 906l226-56V695l-226 56-226-56v155z"/><glyph glyph-name="uni0218" unicode="Ș" horiz-adv-x="771" d="M133.5 48Q47 109 47 225v10h195v-10q0-34 39-52.5T391 154q129 0 129 43v6q0 27-65 37l-185 29q-108 17-161 62T56 451v10q0 99 84 153.5T376 669q161 0 246.5-58.5T708 443v-8H515v8q0 30-34 44.5T376 502q-120 0-120-36v-6q0-11 14.5-18.5T319 429l186-29q111-17 165-63.5T724 212v-10q0-102-89.5-158.5T384-13q-164 0-250.5 61zM479-58l-68-192H220l58 192h201z"/><glyph glyph-name="uni1E62" unicode="Ṣ" horiz-adv-x="771" d="M133.5 48Q47 109 47 225v10h195v-10q0-34 39-52.5T391 154q129 0 129 43v6q0 27-65 37l-185 29q-108 17-161 62T56 451v10q0 99 84 153.5T376 669q161 0 246.5-58.5T708 443v-8H515v8q0 30-34 44.5T376 502q-120 0-120-36v-6q0-11 14.5-18.5T319 429l186-29q111-17 165-63.5T724 212v-10q0-102-89.5-158.5T384-13q-164 0-250.5 61zM302-221q-31 29-31 76t31.5 76.5T383-39q50 0 81-29.5t31-76.5-31-76-81-29-81 29z"/><glyph glyph-name="uni1E9E" unicode="ẞ" horiz-adv-x="821" d="M745.5 332.5Q788 289 788 210v-10q0-101-65.5-150.5T524 0H383v170h136q64 0 64 32v10q0 33-64 33H383v145l122 86H299q-34 0-34-32V0H64v469q0 93 50.5 140T265 656h480V476l-132-87q90-13 132.5-56.5z"/><glyph glyph-name="uni018F" unicode="Ə" horiz-adv-x="877" d="M649.5 629q94.5-41 145-118T845 330v-5q0-102-49.5-178.5T654 28.5 440-13q-129 0-220.5 43.5T80 156.5 32 355v37h599q-18 54-70 82t-134 28q-73 0-120-17t-58-48H36q14 71 66.5 124t136 81T427 670q128 0 222.5-41zm-92-451.5Q605 201 625 245H245q16-48 61.5-69.5T438 154q72 0 119.5 23.5z"/><glyph glyph-name="Tbar" unicode="Ŧ" horiz-adv-x="711" d="M456 476V365h185V192H456V0H255v192H90v173h165v111H25v180h661V476H456z"/><glyph glyph-name="Tcaron" unicode="Ť" horiz-adv-x="691" d="M15 476v180h661V476H446V0H245v476H15zm105 430l226-56 226 56V751l-226-56-226 56v155z"/><glyph glyph-name="uni0162" unicode="Ţ" horiz-adv-x="691" d="M15 476v180h661V476H446V0H245v476H15zM446 0l-48-170H197l69 243z"/><glyph glyph-name="uni021A" unicode="Ț" horiz-adv-x="691" d="M15 476v180h661V476H446V0H245v476H15zM442-58l-68-192H183l58 192h201z"/><glyph glyph-name="Uacute" unicode="Ú" horiz-adv-x="793" d="M215.5 27.5Q138 68 96 143T54 317v339h201V313q0-139 141-139 72 0 107 34.5T538 313v343h201V317q0-100-42.5-174.5t-120-115T396-13 215.5 27.5zM623 907V755l-452-60v152z"/><glyph glyph-name="Ubreve" unicode="Ŭ" horiz-adv-x="793" d="M215.5 27.5Q138 68 96 143T54 317v339h201V313q0-139 141-139 72 0 107 34.5T538 313v343h201V317q0-100-42.5-174.5t-120-115T396-13 215.5 27.5zM171 747v152q122-45 228-45 107 0 224 45V747q-117-45-224-45-106 0-228 45z"/><glyph glyph-name="Ucircumflex" unicode="Û" horiz-adv-x="793" d="M215.5 27.5Q138 68 96 143T54 317v339h201V313q0-139 141-139 72 0 107 34.5T538 313v343h201V317q0-100-42.5-174.5t-120-115T396-13 215.5 27.5zM397 906l226-56V695l-226 56-226-56v155z"/><glyph glyph-name="Udieresis" unicode="Ü" horiz-adv-x="793" d="M215.5 27.5Q138 68 96 143T54 317v339h201V313q0-139 141-139 72 0 107 34.5T538 313v343h201V317q0-100-42.5-174.5t-120-115T396-13 215.5 27.5zm-25 701Q161 756 161 800t29.5 71 76.5 27q46 0 75-27t29-71-29-71.5-75-27.5q-47 0-76.5 27.5zm261.5 0Q423 756 423 800t29 71 76 27 75.5-27 28.5-71-29-71.5-75-27.5q-47 0-76 27.5z"/><glyph glyph-name="uni1EE4" unicode="Ụ" horiz-adv-x="793" d="M215.5 27.5Q138 68 96 143T54 317v339h201V313q0-139 141-139 72 0 107 34.5T538 313v343h201V317q0-100-42.5-174.5t-120-115T396-13 215.5 27.5zM316-221q-31 29-31 76t31.5 76.5T397-39q50 0 81-29.5t31-76.5-31-76-81-29-81 29z"/><glyph glyph-name="Ugrave" unicode="Ù" horiz-adv-x="793" d="M215.5 27.5Q138 68 96 143T54 317v339h201V313q0-139 141-139 72 0 107 34.5T538 313v343h201V317q0-100-42.5-174.5t-120-115T396-13 215.5 27.5zM171 908l452-60V696l-452 60v152z"/><glyph glyph-name="Uhungarumlaut" unicode="Ű" horiz-adv-x="793" d="M215.5 27.5Q138 68 96 143T54 317v339h201V313q0-139 141-139 72 0 107 34.5T538 313v343h201V317q0-100-42.5-174.5t-120-115T396-13 215.5 27.5zM410 906V752l-280-57v154zm320 0V752l-280-57v154z"/><glyph glyph-name="Umacron" unicode="Ū" horiz-adv-x="793" d="M215.5 27.5Q138 68 96 143T54 317v339h201V313q0-139 141-139 72 0 107 34.5T538 313v343h201V317q0-100-42.5-174.5t-120-115T396-13 215.5 27.5zM623 877V725H171v152h452z"/><glyph glyph-name="Uogonek" unicode="Ų" horiz-adv-x="793" d="M215.5 27.5Q138 68 96 143T54 317v339h201V313q0-139 141-139 72 0 107 34.5T538 313v343h201V317q0-100-42.5-174.5t-120-115T396-13 215.5 27.5zM335-149q-31 21-31 58 0 28 18.5 53.5T383 23l143 118 106-76-96-93q-11-11-11-20 0-5 5-8.5t12-3.5h42v-110H419q-53 0-84 21z"/><glyph glyph-name="Uring" unicode="Ů" horiz-adv-x="793" d="M215.5 27.5Q138 68 96 143T54 317v339h201V313q0-139 141-139 72 0 107 34.5T538 313v343h201V317q0-100-42.5-174.5t-120-115T396-13 215.5 27.5zm48 702.5Q216 767 216 836q0 67 48.5 105T397 979t132.5-38T578 836q0-69-47.5-106T397 693t-133.5 37zM434 805q13 11 13 31t-13 31-37 11-37-11-13-31 13-31 37-11 37 11z"/><glyph glyph-name="Utilde" unicode="Ũ" horiz-adv-x="793" d="M215.5 27.5Q138 68 96 143T54 317v339h201V313q0-139 141-139 72 0 107 34.5T538 313v343h201V317q0-100-42.5-174.5t-120-115T396-13 215.5 27.5zm239.5 687q-24 3.5-62 10.5-35 7-58.5 10.5T286 739q-59 0-115-27v150q58 29 117 29 32 0 66.5-7t41.5-8q35-8 60.5-12t51.5-4q63 0 115 26V736q-53-25-117-25-27 0-51 3.5z"/><glyph glyph-name="Wacute" unicode="Ẃ" horiz-adv-x="1175" d="M1173 656v-30L962 0H717L588 396 460 0H215L2 626v30h204l133-423 140 423h218l141-422 131 422h204zM814 907V755l-452-60v152z"/><glyph glyph-name="Wcircumflex" unicode="Ŵ" horiz-adv-x="1175" d="M1173 656v-30L962 0H717L588 396 460 0H215L2 626v30h204l133-423 140 423h218l141-422 131 422h204zM588 906l226-56V695l-226 56-226-56v155z"/><glyph glyph-name="Wdieresis" unicode="Ẅ" horiz-adv-x="1175" d="M1173 656v-30L962 0H717L588 396 460 0H215L2 626v30h204l133-423 140 423h218l141-422 131 422h204zm-791.5 72.5Q352 756 352 800t29.5 71 76.5 27q46 0 75-27t29-71-29-71.5-75-27.5q-47 0-76.5 27.5zm261.5 0Q614 756 614 800t29 71 76 27 75.5-27 28.5-71-29-71.5-75-27.5q-47 0-76 27.5z"/><glyph glyph-name="Wgrave" unicode="Ẁ" horiz-adv-x="1175" d="M1173 656v-30L962 0H717L588 396 460 0H215L2 626v30h204l133-423 140 423h218l141-422 131 422h204zM362 908l452-60V696l-452 60v152z"/><glyph glyph-name="Yacute" unicode="Ý" horiz-adv-x="726" d="M735 656v-30L464 254V0H263v254L-9 626v30h210l163-231 162 231h209zM590 907V755l-452-60v152z"/><glyph glyph-name="Ycircumflex" unicode="Ŷ" horiz-adv-x="726" d="M735 656v-30L464 254V0H263v254L-9 626v30h210l163-231 162 231h209zM364 906l226-56V695l-226 56-226-56v155z"/><glyph glyph-name="Ydieresis" unicode="Ÿ" horiz-adv-x="726" d="M735 656v-30L464 254V0H263v254L-9 626v30h210l163-231 162 231h209zm-577.5 72.5Q128 756 128 800t29.5 71 76.5 27q46 0 75-27t29-71-29-71.5-75-27.5q-47 0-76.5 27.5zm261.5 0Q390 756 390 800t29 71 76 27 75.5-27 28.5-71-29-71.5-75-27.5q-47 0-76 27.5z"/><glyph glyph-name="Ygrave" unicode="Ỳ" horiz-adv-x="726" d="M735 656v-30L464 254V0H263v254L-9 626v30h210l163-231 162 231h209zM138 908l452-60V696l-452 60v152z"/><glyph glyph-name="uni0232" unicode="Ȳ" horiz-adv-x="726" d="M735 656v-30L464 254V0H263v254L-9 626v30h210l163-231 162 231h209zM590 877V725H138v152h452z"/><glyph glyph-name="uni1EF8" unicode="Ỹ" horiz-adv-x="726" d="M735 656v-30L464 254V0H263v254L-9 626v30h210l163-231 162 231h209zm-313 58.5q-24 3.5-62 10.5-35 7-58.5 10.5T253 739q-59 0-115-27v150q58 29 117 29 32 0 66.5-7t41.5-8q35-8 60.5-12t51.5-4q63 0 115 26V736q-53-25-117-25-27 0-51 3.5z"/><glyph glyph-name="Zacute" unicode="Ź" horiz-adv-x="696" d="M659 477L311 179h348V0H37v179l348 298H37v179h622V477zm-85 430V755l-452-60v152z"/><glyph glyph-name="Zcaron" unicode="Ž" horiz-adv-x="696" d="M659 477L311 179h348V0H37v179l348 298H37v179h622V477zM122 906l226-56 226 56V751l-226-56-226 56v155z"/><glyph glyph-name="Zdotaccent" unicode="Ż" horiz-adv-x="696" d="M659 477L311 179h348V0H37v179l348 298H37v179h622V477zM267.5 724.5Q236 754 236 801t31 76 81 29 81-29 31-76-31-76.5-81-29.5q-49 0-80.5 29.5z"/><glyph glyph-name="Iacute_J.loclNLD" horiz-adv-x="841" d="M265 656V0H64v656h201zm192-476q68 0 98.5 31.5T586 315v161H345v180h442V319q0-152-86.5-235.5T457 0H345v180h112zm275 719V747l-316-44v152zm-424 0V747L-8 703v152z"/><glyph glyph-name="I.ss07" horiz-adv-x="701" d="M250 179v298H45v179h611V477H451V179h205V0H45v179h205z"/><glyph glyph-name="IJ.ss07" horiz-adv-x="1421" d="M250 179v298H45v179h611V477H451V179h205V0H45v179h205zM858.5 25q-75.5 38-116 110T702 305v28h201v-28q0-131 134-131 70 0 99.5 29.5T1166 303v173H895v180h472V307q0-152-86.5-236T1037-13q-103 0-178.5 38z"/><glyph glyph-name="Iacute.ss07" horiz-adv-x="701" d="M250 179v298H45v179h611V477H451V179h205V0H45v179h205zm327 728V755l-452-60v152z"/><glyph glyph-name="Iacute_J.loclNLD.ss07" horiz-adv-x="1421" d="M250 179v298H45v179h611V477H451V179h205V0H45v179h205zm327 728V755l-452-60v152zM858.5 25q-75.5 38-116 110T702 305v28h201v-28q0-131 134-131 70 0 99.5 29.5T1166 303v173H895v180h472V307q0-152-86.5-236T1037-13q-103 0-178.5 38zM1348 907V755l-452-60v152z"/><glyph glyph-name="Ibreve.ss07" horiz-adv-x="701" d="M250 179v298H45v179h611V477H451V179h205V0H45v179h205zM125 747v152q122-45 228-45 107 0 224 45V747q-117-45-224-45-106 0-228 45z"/><glyph glyph-name="Icircumflex.ss07" horiz-adv-x="701" d="M250 179v298H45v179h611V477H451V179h205V0H45v179h205zm101 727l226-56V695l-226 56-226-56v155z"/><glyph glyph-name="Idieresis.ss07" horiz-adv-x="701" d="M250 179v298H45v179h611V477H451V179h205V0H45v179h205zM144.5 728.5Q115 756 115 800t29.5 71 76.5 27q46 0 75-27t29-71-29-71.5-75-27.5q-47 0-76.5 27.5zm261.5 0Q377 756 377 800t29 71 76 27 75.5-27 28.5-71-29-71.5-75-27.5q-47 0-76 27.5z"/><glyph glyph-name="Idotaccent.ss07" horiz-adv-x="701" d="M250 179v298H45v179h611V477H451V179h205V0H45v179h205zm20.5 545.5Q239 754 239 801t31 76 81 29 81-29 31-76-31-76.5-81-29.5q-49 0-80.5 29.5z"/><glyph glyph-name="uni1ECA.ss07" horiz-adv-x="701" d="M250 179v298H45v179h611V477H451V179h205V0H45v179h205zm20-400q-31 29-31 76t31.5 76.5T351-39q50 0 81-29.5t31-76.5-31-76-81-29-81 29z"/><glyph glyph-name="Igrave.ss07" horiz-adv-x="701" d="M250 179v298H45v179h611V477H451V179h205V0H45v179h205zM125 908l452-60V696l-452 60v152z"/><glyph glyph-name="Imacron.ss07" horiz-adv-x="701" d="M250 179v298H45v179h611V477H451V179h205V0H45v179h205zm327 698V725H125v152h452z"/><glyph glyph-name="Iogonek.ss07" horiz-adv-x="701" d="M250 179v298H45v179h611V477H451V179h205V0H45v179h205zm157-328q-31 21-31 58 0 27 17 48.5T455 9l153 102L656 0l-48-35q-6-4-8.5-7.5T597-50q0-5 4-7.5t11-2.5h44v-110H491q-53 0-84 21z"/><glyph glyph-name="Itilde.ss07" horiz-adv-x="701" d="M250 179v298H45v179h611V477H451V179h205V0H45v179h205zm159 535.5q-24 3.5-62 10.5-35 7-58.5 10.5T240 739q-59 0-115-27v150q58 29 117 29 32 0 66.5-7t41.5-8q35-8 60.5-12t51.5-4q63 0 115 26V736q-53-25-117-25-27 0-51 3.5z"/><glyph glyph-name="a" unicode="a" horiz-adv-x="716" d="M706 170V0H597q-85 0-127 50-39-30-94-46.5T257-13q-100 0-157 41T43 142q0 122 166 142l227 26q-12 50-95 50-96 0-96-40v-3H47v3q0 61 36 105.5t103 69T343 519q137 0 213.5-61T633 288v-94q0-13 6.5-18.5T662 170h44zm-415-47q41 0 82 13.5t65 33.5v33l-169-20q-33-4-33-29 0-31 55-31z"/><glyph glyph-name="b" unicode="b" horiz-adv-x="710" d="M551 486.5q63-32.5 96.5-92T681 257v-6q0-78-33.5-138T551 20 404-13q-94 0-159 48l-4-35H61v696h194V476q63 43 149 43 84 0 147-32.5zM481 257q0 41-29.5 63T367 342q-36 0-65.5-8.5T255 309V199q18-16 47.5-25.5T367 164q54 0 84 22.5t30 64.5v6z"/><glyph glyph-name="c" unicode="c" horiz-adv-x="670" d="M174 18.5q-70 31.5-107.5 90T29 247v9q0 81 37.5 140.5t107.5 91T339 519q90 0 159.5-29T606 408.5 644 288v-6H445v6q0 25-29 40t-77 15q-57 0-83.5-21.5T229 253v-4q0-44 27-65t83-21q51 0 78.5 14.5T445 218v6h199v-6q0-71-37-123T501.5 15 339-13q-95 0-165 31.5z"/><glyph glyph-name="d" unicode="d" horiz-adv-x="710" d="M649 696V0H469l-4 35q-65-48-159-48-84 0-147 33t-96.5 93T29 251v6q0 78 33.5 137.5t96.5 92T306 519q86 0 149-43v220h194zM259 186.5q30-22.5 84-22.5 35 0 64.5 9.5T455 199v110q-17 16-46.5 24.5T343 342q-55 0-84.5-22T229 257v-6q0-42 30-64.5z"/><glyph glyph-name="e" unicode="e" horiz-adv-x="671" d="M642 205H225q6-34 34-51.5t77-17.5q89 0 106 32h199q-16-89-93-135T337-13q-144 0-226 68T29 243v17q0 80 37 138.5T172.5 488 337 519q149 0 227-67.5T642 255v-50zM266 360.5Q239 346 229 318h214q-10 28-37 42.5T336 375t-70-14.5z"/><glyph glyph-name="f" unicode="f" horiz-adv-x="500" d="M508 336H315V0H121v336H-17v170h138v10q0 84 52.5 132T317 696h151V533H344q-29 0-29-22v-5h193V336z"/><glyph glyph-name="g" unicode="g" horiz-adv-x="709" d="M648 506V70q0-128-77.5-191T335-183q-143 1-223 53T32 16v5h198v-5q0-16 31-27.5T336-23q118 0 118 83v12q-61-35-149-35-134 0-205.5 60T28 269v6q0 115 73.5 179.5T305 519q97 0 159-44l4 31h180zM407.5 202.5Q437 211 454 227v90q-18 16-47.5 25.5T342 352q-59 0-86.5-18.5T228 275v-6q0-39 27.5-57t86.5-18q36 0 65.5 8.5z"/><glyph glyph-name="h" unicode="h" horiz-adv-x="711" d="M591 448.5Q657 378 657 241V0H463v241q0 49-26 75t-76 26q-35 0-62.5-14.5T255 286V0H61v696h194V477q59 42 142 42 128 0 194-70.5z"/><glyph glyph-name="i" unicode="i" horiz-adv-x="286" d="M240 506V0H46v506h194zM62.5 574.5Q31 604 31 651t31 76 81 29 81-29 31-76-31-76.5-81-29.5q-49 0-80.5 29.5z"/><glyph glyph-name="j" unicode="j" horiz-adv-x="286" d="M5 0q41 0 41 33v473h194V12q0-52-25.5-93.5t-71-65T41-170h-95V0H5zm57.5 574.5Q31 604 31 651t31 76 81 29 81-29 31-76-31-76.5-81-29.5q-49 0-80.5 29.5z"/><glyph glyph-name="k" unicode="k" horiz-adv-x="681" d="M683 27V0H468L340 170l-85-84V0H61v696h194V310l204 196h214v-27L482 290z"/><glyph glyph-name="l" unicode="l" horiz-adv-x="319" d="M96.5 43.5Q46 87 46 161v535h194V196q0-14 7.5-20t23.5-6h43V0h-79Q147 0 96.5 43.5z"/><glyph glyph-name="m" unicode="m" horiz-adv-x="1108" d="M987 448.5q67-70.5 67-207.5V0H860v241q0 49-25 75t-71 26q-37 0-66-16t-46-45q2-26 2-40V0H460v241q0 49-24.5 75T365 342q-36 0-64.5-15.5T255 284V0H61v506h180l4-37q64 50 156 50 132 0 196-79 73 79 193 79 130 0 197-70.5z"/><glyph glyph-name="n" unicode="n" horiz-adv-x="711" d="M590.5 450.5Q657 381 657 241V0H463v241q0 49-26 75t-76 26q-35 0-62.5-14.5T255 286V0H61v506h180l4-36q63 49 152 49 127 1 193.5-68.5z"/><glyph glyph-name="o" unicode="o" horiz-adv-x="685" d="M175 18.5Q104 50 66.5 109T29 247v9q0 81 37.5 140T175 487t169 32q148 0 230-70t82-193v-9q0-121-82-190.5T344-13q-98 0-169 31.5zm252 166q29 21.5 29 64.5v4q0 45-29 67.5T343 343q-56 0-85-22.5T229 253v-4q0-43 29.5-64.5T343 163t84 21.5z"/><glyph glyph-name="p" unicode="p" horiz-adv-x="710" d="M551 486.5q63-32.5 96.5-92T681 257v-6q0-78-33.5-138T551 20 404-13q-87 0-149 41v-198H61v676h180l4-37q67 50 159 50 84 0 147-32.5zM481 257q0 41-29.5 63T367 342q-36 0-65.5-8.5T255 309V199q18-16 47.5-25.5T367 164q54 0 84 22.5t30 64.5v6z"/><glyph glyph-name="q" unicode="q" horiz-adv-x="710" d="M649 506v-676H455V28q-62-41-149-41-84 0-147 33t-96.5 93T29 251v6q0 78 33.5 137.5t96.5 92T306 519q92 0 159-50l4 37h180zM407.5 173.5Q437 183 455 199v110q-17 16-46.5 24.5T343 342q-55 0-84.5-22T229 257v-6q0-42 30-64.5t84-22.5q35 0 64.5 9.5z"/><glyph glyph-name="r" unicode="r" horiz-adv-x="473" d="M458 506V336H342q-73 0-102-26V0H46v506h181l4-39q59 39 137 39h90z"/><glyph glyph-name="s" unicode="s" horiz-adv-x="688" d="M120.5 34.5Q40 82 40 170v3h177v-3q0-23 31-33.5T349 126q53 0 82 5.5t29 16.5v4q0 9-9.5 13.5T416 172l-142 14q-115 11-169 48T51 338v10q0 82 78 126.5T349 519q146 0 220-46t74-137v-3H467v3q0 24-28 34t-96 10q-111 0-111-21v-4q0-15 43-19l145-15q117-12 171.5-49T646 168v-10q0-81-78-126T349-13q-148 0-228.5 47.5z"/><glyph glyph-name="t" unicode="t" horiz-adv-x="520" d="M328 336V205q0-35 40-35h118V0H333q-92 0-145.5 49T134 182v154H-17v170H93q26 0 36 10.5t10 35.5v87h189V506h188V336H328z"/><glyph glyph-name="u" unicode="u" horiz-adv-x="711" d="M650 506V0H470l-4 36q-63-49-152-49-127-1-193.5 68.5T54 265v241h194V265q0-49 26-75t76-26q35 0 62.5 14.5T456 220v286h194z"/><glyph glyph-name="v" unicode="v" horiz-adv-x="697" d="M697 506v-27L475 0H223L0 479v27h207l142-319 141 319h207z"/><glyph glyph-name="w" unicode="w" horiz-adv-x="1067" d="M1067 506v-27L885 0H630l-97 256L437 0H183L0 479v27h210l102-310 119 310h203l123-318 110 318h200z"/><glyph glyph-name="x" unicode="x" horiz-adv-x="656" d="M651 27V0H429L327 130 227 0H5v27l196 227L8 479v27h221l98-126 97 126h221v-27L453 254z"/><glyph glyph-name="y" unicode="y" horiz-adv-x="697" d="M697 506v-27L445-55q-26-56-73.5-85.5T240-170H72V0h149q12 0 17 1L0 479v27h207l147-309 136 309h207z"/><glyph glyph-name="z" unicode="z" horiz-adv-x="642" d="M585 342L325 164h260V0H56v164l260 178H56v164h529V342z"/><glyph glyph-name="aacute" unicode="á" horiz-adv-x="716" d="M706 170V0H597q-85 0-127 50-39-30-94-46.5T257-13q-100 0-157 41T43 142q0 122 166 142l227 26q-12 50-95 50-96 0-96-40v-3H47v3q0 61 36 105.5t103 69T343 519q137 0 213.5-61T633 288v-94q0-13 6.5-18.5T662 170h44zm-415-47q41 0 82 13.5t65 33.5v33l-169-20q-33-4-33-29 0-31 55-31zm274 634V605l-452-60v152z"/><glyph glyph-name="abreve" unicode="ă" horiz-adv-x="716" d="M706 170V0H597q-85 0-127 50-39-30-94-46.5T257-13q-100 0-157 41T43 142q0 122 166 142l227 26q-12 50-95 50-96 0-96-40v-3H47v3q0 61 36 105.5t103 69T343 519q137 0 213.5-61T633 288v-94q0-13 6.5-18.5T662 170h44zm-415-47q41 0 82 13.5t65 33.5v33l-169-20q-33-4-33-29 0-31 55-31zM113 597v152q122-45 228-45 107 0 224 45V597q-117-45-224-45-106 0-228 45z"/><glyph glyph-name="uni01CE" unicode="ǎ" horiz-adv-x="716" d="M706 170V0H597q-85 0-127 50-39-30-94-46.5T257-13q-100 0-157 41T43 142q0 122 166 142l227 26q-12 50-95 50-96 0-96-40v-3H47v3q0 61 36 105.5t103 69T343 519q137 0 213.5-61T633 288v-94q0-13 6.5-18.5T662 170h44zm-415-47q41 0 82 13.5t65 33.5v33l-169-20q-33-4-33-29 0-31 55-31zM113 756l226-56 226 56V601l-226-56-226 56v155z"/><glyph glyph-name="acircumflex" unicode="â" horiz-adv-x="716" d="M706 170V0H597q-85 0-127 50-39-30-94-46.5T257-13q-100 0-157 41T43 142q0 122 166 142l227 26q-12 50-95 50-96 0-96-40v-3H47v3q0 61 36 105.5t103 69T343 519q137 0 213.5-61T633 288v-94q0-13 6.5-18.5T662 170h44zm-415-47q41 0 82 13.5t65 33.5v33l-169-20q-33-4-33-29 0-31 55-31zm48 633l226-56V545l-226 56-226-56v155z"/><glyph glyph-name="adieresis" unicode="ä" horiz-adv-x="716" d="M706 170V0H597q-85 0-127 50-39-30-94-46.5T257-13q-100 0-157 41T43 142q0 122 166 142l227 26q-12 50-95 50-96 0-96-40v-3H47v3q0 61 36 105.5t103 69T343 519q137 0 213.5-61T633 288v-94q0-13 6.5-18.5T662 170h44zm-415-47q41 0 82 13.5t65 33.5v33l-169-20q-33-4-33-29 0-31 55-31zM132.5 578.5Q103 606 103 650t29.5 71 76.5 27q46 0 75-27t29-71-29-71.5-75-27.5q-47 0-76.5 27.5zm261.5 0Q365 606 365 650t29 71 76 27 75.5-27 28.5-71-29-71.5-75-27.5q-47 0-76 27.5z"/><glyph glyph-name="agrave" unicode="à" horiz-adv-x="716" d="M706 170V0H597q-85 0-127 50-39-30-94-46.5T257-13q-100 0-157 41T43 142q0 122 166 142l227 26q-12 50-95 50-96 0-96-40v-3H47v3q0 61 36 105.5t103 69T343 519q137 0 213.5-61T633 288v-94q0-13 6.5-18.5T662 170h44zm-415-47q41 0 82 13.5t65 33.5v33l-169-20q-33-4-33-29 0-31 55-31zM113 758l452-60V546l-452 60v152z"/><glyph glyph-name="amacron" unicode="ā" horiz-adv-x="716" d="M706 170V0H597q-85 0-127 50-39-30-94-46.5T257-13q-100 0-157 41T43 142q0 122 166 142l227 26q-12 50-95 50-96 0-96-40v-3H47v3q0 61 36 105.5t103 69T343 519q137 0 213.5-61T633 288v-94q0-13 6.5-18.5T662 170h44zm-415-47q41 0 82 13.5t65 33.5v33l-169-20q-33-4-33-29 0-31 55-31zm274 604V575H113v152h452z"/><glyph glyph-name="aogonek" unicode="ą" horiz-adv-x="716" d="M706 170V0H597q-85 0-127 50-39-30-94-46.5T257-13q-100 0-157 41T43 142q0 122 166 142l227 26q-12 50-95 50-96 0-96-40v-3H47v3q0 61 36 105.5t103 69T343 519q137 0 213.5-61T633 288v-94q0-13 6.5-18.5T662 170h44zm-415-47q41 0 82 13.5t65 33.5v33l-169-20q-33-4-33-29 0-31 55-31zm166-272q-31 21-31 58 0 27 17 48.5T505 9l153 102L706 0l-48-35q-6-4-8.5-7.5T647-50q0-5 4-7.5t11-2.5h44v-110H541q-53 0-84 21z"/><glyph glyph-name="aring" unicode="å" horiz-adv-x="716" d="M706 170V0H597q-85 0-127 50-39-30-94-46.5T257-13q-100 0-157 41T43 142q0 122 166 142l227 26q-12 50-95 50-96 0-96-40v-3H47v3q0 61 36 105.5t103 69T343 519q137 0 213.5-61T633 288v-94q0-13 6.5-18.5T662 170h44zm-415-47q41 0 82 13.5t65 33.5v33l-169-20q-33-4-33-29 0-31 55-31zm-85.5 457Q158 617 158 686q0 67 48.5 105T339 829t132.5-38T520 686q0-69-47.5-106T339 543t-133.5 37zM376 655q13 11 13 31t-13 31-37 11-37-11-13-31 13-31 37-11 37 11z"/><glyph glyph-name="atilde" unicode="ã" horiz-adv-x="716" d="M706 170V0H597q-85 0-127 50-39-30-94-46.5T257-13q-100 0-157 41T43 142q0 122 166 142l227 26q-12 50-95 50-96 0-96-40v-3H47v3q0 61 36 105.5t103 69T343 519q137 0 213.5-61T633 288v-94q0-13 6.5-18.5T662 170h44zm-415-47q41 0 82 13.5t65 33.5v33l-169-20q-33-4-33-29 0-31 55-31zm106 441.5q-24 3.5-62 10.5-35 7-58.5 10.5T228 589q-59 0-115-27v150q58 29 117 29 32 0 66.5-7t41.5-8q35-8 60.5-12t51.5-4q63 0 115 26V586q-53-25-117-25-27 0-51 3.5z"/><glyph glyph-name="ae" unicode="æ" horiz-adv-x="1098" d="M1069 205H642q14-69 127-69 40 0 66.5 8.5T869 168h199q-14-86-91-133.5T773-13q-163 0-248 73-41-35-102-54T285-13q-114 0-178 41.5T43 144q0 60 42 95.5T209 284l236 26q-15 50-111 50-89 0-89-40v-3H47v3q0 61 36 106t103.5 69T346 519q144 0 209-65 74 65 214 65 143 0 221.5-66.5T1069 265v-60zM686 360.5Q657 346 646 318h224q-20 57-110 57-45 0-74-14.5zm-301-222q48 15.5 70 38.5-2 9-4 25l-182-24q-33-4-33-30 0-13 11.5-19t38.5-6q51 0 99 15.5z"/><glyph glyph-name="aeacute" unicode="ǽ" horiz-adv-x="1098" d="M1069 205H642q14-69 127-69 40 0 66.5 8.5T869 168h199q-14-86-91-133.5T773-13q-163 0-248 73-41-35-102-54T285-13q-114 0-178 41.5T43 144q0 60 42 95.5T209 284l236 26q-15 50-111 50-89 0-89-40v-3H47v3q0 61 36 106t103.5 69T346 519q144 0 209-65 74 65 214 65 143 0 221.5-66.5T1069 265v-60zM686 360.5Q657 346 646 318h224q-20 57-110 57-45 0-74-14.5zm-301-222q48 15.5 70 38.5-2 9-4 25l-182-24q-33-4-33-30 0-13 11.5-19t38.5-6q51 0 99 15.5zM780 757V605l-452-60v152z"/><glyph glyph-name="cacute" unicode="ć" horiz-adv-x="670" d="M174 18.5q-70 31.5-107.5 90T29 247v9q0 81 37.5 140.5t107.5 91T339 519q90 0 159.5-29T606 408.5 644 288v-6H445v6q0 25-29 40t-77 15q-57 0-83.5-21.5T229 253v-4q0-44 27-65t83-21q51 0 78.5 14.5T445 218v6h199v-6q0-71-37-123T501.5 15 339-13q-95 0-165 31.5zM560 757V605l-452-60v152z"/><glyph glyph-name="ccaron" unicode="č" horiz-adv-x="670" d="M174 18.5q-70 31.5-107.5 90T29 247v9q0 81 37.5 140.5t107.5 91T339 519q90 0 159.5-29T606 408.5 644 288v-6H445v6q0 25-29 40t-77 15q-57 0-83.5-21.5T229 253v-4q0-44 27-65t83-21q51 0 78.5 14.5T445 218v6h199v-6q0-71-37-123T501.5 15 339-13q-95 0-165 31.5zM108 756l226-56 226 56V601l-226-56-226 56v155z"/><glyph glyph-name="ccedilla" unicode="ç" horiz-adv-x="670" d="M174 18.5q-70 31.5-107.5 90T29 247v9q0 81 37.5 140.5t107.5 91T339 519q90 0 159.5-29T606 408.5 644 288v-6H445v6q0 25-29 40t-77 15q-57 0-83.5-21.5T229 253v-4q0-44 27-65t83-21q51 0 78.5 14.5T445 218v6h199v-6q0-71-37-123T501.5 15 339-13q-95 0-165 31.5zM434 0l-48-170H185l69 243z"/><glyph glyph-name="ccircumflex" unicode="ĉ" horiz-adv-x="670" d="M174 18.5q-70 31.5-107.5 90T29 247v9q0 81 37.5 140.5t107.5 91T339 519q90 0 159.5-29T606 408.5 644 288v-6H445v6q0 25-29 40t-77 15q-57 0-83.5-21.5T229 253v-4q0-44 27-65t83-21q51 0 78.5 14.5T445 218v6h199v-6q0-71-37-123T501.5 15 339-13q-95 0-165 31.5zM334 756l226-56V545l-226 56-226-56v155z"/><glyph glyph-name="cdotaccent" unicode="ċ" horiz-adv-x="670" d="M174 18.5q-70 31.5-107.5 90T29 247v9q0 81 37.5 140.5t107.5 91T339 519q90 0 159.5-29T606 408.5 644 288v-6H445v6q0 25-29 40t-77 15q-57 0-83.5-21.5T229 253v-4q0-44 27-65t83-21q51 0 78.5 14.5T445 218v6h199v-6q0-71-37-123T501.5 15 339-13q-95 0-165 31.5zm79.5 556Q222 604 222 651t31 76 81 29 81-29 31-76-31-76.5-81-29.5q-49 0-80.5 29.5z"/><glyph glyph-name="eth" unicode="ð" horiz-adv-x="684" d="M653 577l-110-17q50-48 74.5-107.5T642 319v-76q0-78-37.5-136T498 18 335-13q-92 0-161 29.5t-107 83T29 223v17q0 67 33.5 119t93 81T292 469q97 0 149-52-9 29-30 52t-62 48l-1 1-304-48v134l129 20-79 49v27h225l57-33 277 44V577zM448 243v17q-28 51-114 51-52 0-78.5-19T229 236v-6q0-38 27.5-58t79.5-20q112 0 112 91z"/><glyph glyph-name="dcaron" unicode="ď" horiz-adv-x="920" d="M649 696V0H469l-4 35q-65-48-159-48-84 0-147 33t-96.5 93T29 251v6q0 78 33.5 137.5t96.5 92T306 519q86 0 149-43v220h194zM259 186.5q30-22.5 84-22.5 35 0 64.5 9.5T455 199v110q-17 16-46.5 24.5T343 342q-55 0-84.5-22T229 257v-6q0-42 30-64.5zM941 696l-67-190H700l22 190h219z"/><glyph glyph-name="dcroat" unicode="đ" horiz-adv-x="736" d="M756 516H649V0H469l-4 35q-65-48-159-48-83 0-146 31.5t-97 89T29 241v6q0 69 33.5 121.5T157 450t141 29q92 0 157-40v77H264v140h191v40h194v-40h107V516zM258.5 179q29.5-20 84.5-20 35 0 64.5 9.5T455 194v95q-18 13-47.5 20.5T343 317q-56 0-85-19t-29-56v-6q0-37 29.5-57z"/><glyph glyph-name="eacute" unicode="é" horiz-adv-x="671" d="M642 205H225q6-34 34-51.5t77-17.5q89 0 106 32h199q-16-89-93-135T337-13q-144 0-226 68T29 243v17q0 80 37 138.5T172.5 488 337 519q149 0 227-67.5T642 255v-50zM266 360.5Q239 346 229 318h214q-10 28-37 42.5T336 375t-70-14.5zM562 757V605l-452-60v152z"/><glyph glyph-name="ebreve" unicode="ĕ" horiz-adv-x="671" d="M642 205H225q6-34 34-51.5t77-17.5q89 0 106 32h199q-16-89-93-135T337-13q-144 0-226 68T29 243v17q0 80 37 138.5T172.5 488 337 519q149 0 227-67.5T642 255v-50zM266 360.5Q239 346 229 318h214q-10 28-37 42.5T336 375t-70-14.5zM110 597v152q122-45 228-45 107 0 224 45V597q-117-45-224-45-106 0-228 45z"/><glyph glyph-name="ecaron" unicode="ě" horiz-adv-x="671" d="M642 205H225q6-34 34-51.5t77-17.5q89 0 106 32h199q-16-89-93-135T337-13q-144 0-226 68T29 243v17q0 80 37 138.5T172.5 488 337 519q149 0 227-67.5T642 255v-50zM266 360.5Q239 346 229 318h214q-10 28-37 42.5T336 375t-70-14.5zM110 756l226-56 226 56V601l-226-56-226 56v155z"/><glyph glyph-name="ecircumflex" unicode="ê" horiz-adv-x="671" d="M642 205H225q6-34 34-51.5t77-17.5q89 0 106 32h199q-16-89-93-135T337-13q-144 0-226 68T29 243v17q0 80 37 138.5T172.5 488 337 519q149 0 227-67.5T642 255v-50zM266 360.5Q239 346 229 318h214q-10 28-37 42.5T336 375t-70-14.5zM336 756l226-56V545l-226 56-226-56v155z"/><glyph glyph-name="edieresis" unicode="ë" horiz-adv-x="671" d="M642 205H225q6-34 34-51.5t77-17.5q89 0 106 32h199q-16-89-93-135T337-13q-144 0-226 68T29 243v17q0 80 37 138.5T172.5 488 337 519q149 0 227-67.5T642 255v-50zM266 360.5Q239 346 229 318h214q-10 28-37 42.5T336 375t-70-14.5zm-136.5 218Q100 606 100 650t29.5 71 76.5 27q46 0 75-27t29-71-29-71.5-75-27.5q-47 0-76.5 27.5zm261.5 0Q362 606 362 650t29 71 76 27 75.5-27 28.5-71-29-71.5-75-27.5q-47 0-76 27.5z"/><glyph glyph-name="edotaccent" unicode="ė" horiz-adv-x="671" d="M642 205H225q6-34 34-51.5t77-17.5q89 0 106 32h199q-16-89-93-135T337-13q-144 0-226 68T29 243v17q0 80 37 138.5T172.5 488 337 519q149 0 227-67.5T642 255v-50zM266 360.5Q239 346 229 318h214q-10 28-37 42.5T336 375t-70-14.5zm-10.5 214Q224 604 224 651t31 76 81 29 81-29 31-76-31-76.5-81-29.5q-49 0-80.5 29.5z"/><glyph glyph-name="uni1EB9" unicode="ẹ" horiz-adv-x="671" d="M642 205H225q6-34 34-51.5t77-17.5q89 0 106 32h199q-16-89-93-135T337-13q-144 0-226 68T29 243v17q0 80 37 138.5T172.5 488 337 519q149 0 227-67.5T642 255v-50zM266 360.5Q239 346 229 318h214q-10 28-37 42.5T336 375t-70-14.5zM255-221q-31 29-31 76t31.5 76.5T336-39q50 0 81-29.5t31-76.5-31-76-81-29-81 29z"/><glyph glyph-name="egrave" unicode="è" horiz-adv-x="671" d="M642 205H225q6-34 34-51.5t77-17.5q89 0 106 32h199q-16-89-93-135T337-13q-144 0-226 68T29 243v17q0 80 37 138.5T172.5 488 337 519q149 0 227-67.5T642 255v-50zM266 360.5Q239 346 229 318h214q-10 28-37 42.5T336 375t-70-14.5zM110 758l452-60V546l-452 60v152z"/><glyph glyph-name="emacron" unicode="ē" horiz-adv-x="671" d="M642 205H225q6-34 34-51.5t77-17.5q89 0 106 32h199q-16-89-93-135T337-13q-144 0-226 68T29 243v17q0 80 37 138.5T172.5 488 337 519q149 0 227-67.5T642 255v-50zM266 360.5Q239 346 229 318h214q-10 28-37 42.5T336 375t-70-14.5zM562 727V575H110v152h452z"/><glyph glyph-name="eogonek" unicode="ę" horiz-adv-x="671" d="M642 205H225q6-34 34-51.5t77-17.5q89 0 106 32h199q-16-89-93-135T337-13q-144 0-226 68T29 243v17q0 80 37 138.5T172.5 488 337 519q149 0 227-67.5T642 255v-50zM266 360.5Q239 346 229 318h214q-10 28-37 42.5T336 375t-70-14.5zM292-149q-31 21-31 58 0 28 18.5 53.5T340 23l143 118 106-76-96-93q-11-11-11-20 0-5 5-8.5t12-3.5h42v-110H376q-53 0-84 21z"/><glyph glyph-name="uni1EBD" unicode="ẽ" horiz-adv-x="671" d="M642 205H225q6-34 34-51.5t77-17.5q89 0 106 32h199q-16-89-93-135T337-13q-144 0-226 68T29 243v17q0 80 37 138.5T172.5 488 337 519q149 0 227-67.5T642 255v-50zM266 360.5Q239 346 229 318h214q-10 28-37 42.5T336 375t-70-14.5zm128 204q-24 3.5-62 10.5-35 7-58.5 10.5T225 589q-59 0-115-27v150q58 29 117 29 32 0 66.5-7t41.5-8q35-8 60.5-12t51.5-4q63 0 115 26V586q-53-25-117-25-27 0-51 3.5z"/><glyph glyph-name="uni0259" unicode="ə" horiz-adv-x="671" d="M560 451q82-68 82-188v-17q0-80-37-138.5T498.5 18 334-13q-149 0-227 67.5T29 251v50h417q-6 34-34 51.5T335 370q-89 0-106-32H30q16 89 93 135t211 46q144 0 226-68zM405 145.5q27 14.5 37 42.5H228q10-28 37-42.5t70-14.5 70 14.5z"/><glyph glyph-name="uni01F5" unicode="ǵ" horiz-adv-x="709" d="M648 506V70q0-128-77.5-191T335-183q-143 1-223 53T32 16v5h198v-5q0-16 31-27.5T336-23q118 0 118 83v12q-61-35-149-35-134 0-205.5 60T28 269v6q0 115 73.5 179.5T305 519q97 0 159-44l4 31h180zM407.5 202.5Q437 211 454 227v90q-18 16-47.5 25.5T342 352q-59 0-86.5-18.5T228 275v-6q0-39 27.5-57t86.5-18q36 0 65.5 8.5zM573 757V605l-452-60v152z"/><glyph glyph-name="gbreve" unicode="ğ" horiz-adv-x="709" d="M648 506V70q0-128-77.5-191T335-183q-143 1-223 53T32 16v5h198v-5q0-16 31-27.5T336-23q118 0 118 83v12q-61-35-149-35-134 0-205.5 60T28 269v6q0 115 73.5 179.5T305 519q97 0 159-44l4 31h180zM407.5 202.5Q437 211 454 227v90q-18 16-47.5 25.5T342 352q-59 0-86.5-18.5T228 275v-6q0-39 27.5-57t86.5-18q36 0 65.5 8.5zM121 597v152q122-45 228-45 107 0 224 45V597q-117-45-224-45-106 0-228 45z"/><glyph glyph-name="gcaron" unicode="ǧ" horiz-adv-x="709" d="M648 506V70q0-128-77.5-191T335-183q-143 1-223 53T32 16v5h198v-5q0-16 31-27.5T336-23q118 0 118 83v12q-61-35-149-35-134 0-205.5 60T28 269v6q0 115 73.5 179.5T305 519q97 0 159-44l4 31h180zM407.5 202.5Q437 211 454 227v90q-18 16-47.5 25.5T342 352q-59 0-86.5-18.5T228 275v-6q0-39 27.5-57t86.5-18q36 0 65.5 8.5zM121 756l226-56 226 56V601l-226-56-226 56v155z"/><glyph glyph-name="gcircumflex" unicode="ĝ" horiz-adv-x="709" d="M648 506V70q0-128-77.5-191T335-183q-143 1-223 53T32 16v5h198v-5q0-16 31-27.5T336-23q118 0 118 83v12q-61-35-149-35-134 0-205.5 60T28 269v6q0 115 73.5 179.5T305 519q97 0 159-44l4 31h180zM407.5 202.5Q437 211 454 227v90q-18 16-47.5 25.5T342 352q-59 0-86.5-18.5T228 275v-6q0-39 27.5-57t86.5-18q36 0 65.5 8.5zM347 756l226-56V545l-226 56-226-56v155z"/><glyph glyph-name="uni0123" unicode="ģ" horiz-adv-x="709" d="M648 506V70q0-128-77.5-191T335-183q-143 1-223 53T32 16v5h198v-5q0-16 31-27.5T336-23q118 0 118 83v12q-61-35-149-35-134 0-205.5 60T28 269v6q0 115 73.5 179.5T305 519q97 0 159-44l4 31h180zM407.5 202.5Q437 211 454 227v90q-18 16-47.5 25.5T342 352q-59 0-86.5-18.5T228 275v-6q0-39 27.5-57t86.5-18q36 0 65.5 8.5zM482 746l-49-192H232l58 192h192z"/><glyph glyph-name="gdotaccent" unicode="ġ" horiz-adv-x="709" d="M648 506V70q0-128-77.5-191T335-183q-143 1-223 53T32 16v5h198v-5q0-16 31-27.5T336-23q118 0 118 83v12q-61-35-149-35-134 0-205.5 60T28 269v6q0 115 73.5 179.5T305 519q97 0 159-44l4 31h180zM407.5 202.5Q437 211 454 227v90q-18 16-47.5 25.5T342 352q-59 0-86.5-18.5T228 275v-6q0-39 27.5-57t86.5-18q36 0 65.5 8.5zm-141 372Q235 604 235 651t31 76 81 29 81-29 31-76-31-76.5-81-29.5q-49 0-80.5 29.5z"/><glyph glyph-name="hbar" unicode="ħ" horiz-adv-x="737" d="M617 408.5Q683 338 683 201V0H489v201q0 49-26 75t-76 26q-35 0-62.5-14.5T281 246V0H87v516H-20v140H87v40h194v-40h191V516H281v-79q59 42 142 42 128 0 194-70.5z"/><glyph glyph-name="hcircumflex" unicode="ĥ" horiz-adv-x="711" d="M591 448.5Q657 378 657 241V0H463v241q0 49-26 75t-76 26q-35 0-62.5-14.5T255 286V0H61v696h194V477q59 42 142 42 128 0 194-70.5zM158 916l226-56V705l-226 56-226-56v155z"/><glyph glyph-name="dotlessi" unicode="ı" horiz-adv-x="286" d="M240 506V0H46v506h194z"/><glyph glyph-name="iacute" unicode="í" horiz-adv-x="286" d="M240 506V0H46v506h194zm61 243V597l-316-44v152z"/><glyph glyph-name="ibreve" unicode="ĭ" horiz-adv-x="286" d="M240 506V0H46v506h194zm-255 90v152q74-43 158-43 91 0 158 43V596q-67-43-158-43-84 0-158 43z"/><glyph glyph-name="icircumflex" unicode="î" horiz-adv-x="286" d="M240 506V0H46v506h194zm-97 243l158-28V564l-158 28-158-28v157z"/><glyph glyph-name="idieresis" unicode="ï" horiz-adv-x="286" d="M240 506V0H46v506h194zm-293.5 73.5Q-83 607-83 651t29.5 71T23 749q46 0 75-27t29-71-29-71.5T23 552q-47 0-76.5 27.5zm241.5 0Q159 607 159 651t29 71 76 27 75.5-27 28.5-71-29-71.5-75-27.5q-47 0-76 27.5z"/><glyph glyph-name="i.loclTRK" horiz-adv-x="286" d="M240 506V0H46v506h194zM62.5 574.5Q31 604 31 651t31 76 81 29 81-29 31-76-31-76.5-81-29.5q-49 0-80.5 29.5z"/><glyph glyph-name="uni1ECB" unicode="ị" horiz-adv-x="286" d="M240 506V0H46v506h194zM62.5 574.5Q31 604 31 651t31 76 81 29 81-29 31-76-31-76.5-81-29.5q-49 0-80.5 29.5zM62-221q-31 29-31 76t31.5 76.5T143-39q50 0 81-29.5t31-76.5-31-76-81-29-81 29z"/><glyph glyph-name="igrave" unicode="ì" horiz-adv-x="286" d="M240 506V0H46v506h194zM-15 750l316-44V554l-316 44v152z"/><glyph glyph-name="ij" unicode="ĳ" horiz-adv-x="572" d="M240 506V0H46v506h194zM62.5 574.5Q31 604 31 651t31 76 81 29 81-29 31-76-31-76.5-81-29.5q-49 0-80.5 29.5zM291 0q41 0 41 33v473h194V12q0-52-25.5-93.5t-71-65T327-170h-95V0h59zm57.5 574.5Q317 604 317 651t31 76 81 29 81-29 31-76-31-76.5-81-29.5q-49 0-80.5 29.5z"/><glyph glyph-name="imacron" unicode="ī" horiz-adv-x="286" d="M240 506V0H46v506h194zm61 221V575H-15v152h316z"/><glyph glyph-name="iogonek" unicode="į" horiz-adv-x="286" d="M240 506V0H46v506h194zM62.5 574.5Q31 604 31 651t31 76 81 29 81-29 31-76-31-76.5-81-29.5q-49 0-80.5 29.5zM-9-149q-31 21-31 58 0 27 17 48.5T39 9l153 102L240 0l-48-35q-6-4-8.5-7.5T181-50q0-5 4-7.5t11-2.5h44v-110H75q-53 0-84 21z"/><glyph glyph-name="itilde" unicode="ĩ" horiz-adv-x="286" d="M240 506V0H46v506h194zm-99 69q-19 5-39 9.5T65 589q-41 0-80-24v150q40 26 82 26 23 0 46.5-7t28.5-8q50-16 79-16 43 0 80 22V582q-37-21-82-21-28 0-78 14z"/><glyph glyph-name="uni0237" unicode="ȷ" horiz-adv-x="286" d="M5 0q41 0 41 33v473h194V12q0-52-25.5-93.5t-71-65T41-170h-95V0H5z"/><glyph glyph-name="jcircumflex" unicode="ĵ" horiz-adv-x="286" d="M5 0q41 0 41 33v473h194V12q0-52-25.5-93.5t-71-65T41-170h-95V0H5zm138 749l158-28V564l-158 28-158-28v157z"/><glyph glyph-name="uni0137" unicode="ķ" horiz-adv-x="681" d="M683 27V0H468L340 170l-85-84V0H61v696h194V310l204 196h214v-27L482 290zM440-58l-68-192H181l58 192h201z"/><glyph glyph-name="lacute" unicode="ĺ" horiz-adv-x="319" d="M96.5 43.5Q46 87 46 161v535h194V196q0-14 7.5-20t23.5-6h43V0h-79Q147 0 96.5 43.5zM305 909V757l-316-44v152z"/><glyph glyph-name="lcaron" unicode="ľ" horiz-adv-x="509" d="M96.5 43.5Q46 87 46 161v535h194V196q0-14 7.5-20t23.5-6h43V0h-79Q147 0 96.5 43.5zM532 696l-67-190H291l22 190h219z"/><glyph glyph-name="uni013C" unicode="ļ" horiz-adv-x="319" d="M96.5 43.5Q46 87 46 161v535h194V196q0-14 7.5-20t23.5-6h43V0h-79Q147 0 96.5 43.5zM331-58l-68-192H72l58 192h201z"/><glyph glyph-name="ldot" unicode="ŀ" horiz-adv-x="407" d="M96.5 43.5Q46 87 46 161v535h194V196q0-14 7.5-20t23.5-6h43V0h-79Q147 0 96.5 43.5zM277 269q-27 30-27 80t26.5 79 71.5 29q44 0 69.5-29t25.5-79-26-80-69-30q-44 0-71 30z"/><glyph glyph-name="lslash" unicode="ł" horiz-adv-x="398" d="M281 313V196q0-14 7.5-20t23.5-6h43V0h-79q-88 0-138.5 43.5T87 161v122l-97-20v170l97 20v243h194V483l117 25V338z"/><glyph glyph-name="nacute" unicode="ń" horiz-adv-x="711" d="M590.5 450.5Q657 381 657 241V0H463v241q0 49-26 75t-76 26q-35 0-62.5-14.5T255 286V0H61v506h180l4-36q63 49 152 49 127 1 193.5-68.5zM587 757V605l-452-60v152z"/><glyph glyph-name="ncaron" unicode="ň" horiz-adv-x="711" d="M590.5 450.5Q657 381 657 241V0H463v241q0 49-26 75t-76 26q-35 0-62.5-14.5T255 286V0H61v506h180l4-36q63 49 152 49 127 1 193.5-68.5zM135 756l226-56 226 56V601l-226-56-226 56v155z"/><glyph glyph-name="uni0146" unicode="ņ" horiz-adv-x="711" d="M590.5 450.5Q657 381 657 241V0H463v241q0 49-26 75t-76 26q-35 0-62.5-14.5T255 286V0H61v506h180l4-36q63 49 152 49 127 1 193.5-68.5zM457-58l-68-192H198l58 192h201z"/><glyph glyph-name="eng" unicode="ŋ" horiz-adv-x="711" d="M590.5 450.5Q657 381 657 241V78q0-122-66-185t-194-63h-52V0h36q43 0 62.5 20T463 81v160q0 49-26 75t-76 26q-35 0-62.5-14.5T255 286V0H61v506h180l4-36q63 49 152 49 127 1 193.5-68.5z"/><glyph glyph-name="ntilde" unicode="ñ" horiz-adv-x="711" d="M590.5 450.5Q657 381 657 241V0H463v241q0 49-26 75t-76 26q-35 0-62.5-14.5T255 286V0H61v506h180l4-36q63 49 152 49 127 1 193.5-68.5zM419 564.5q-24 3.5-62 10.5-35 7-58.5 10.5T250 589q-59 0-115-27v150q58 29 117 29 32 0 66.5-7t41.5-8q35-8 60.5-12t51.5-4q63 0 115 26V586q-53-25-117-25-27 0-51 3.5z"/><glyph glyph-name="oacute" unicode="ó" horiz-adv-x="685" d="M175 18.5Q104 50 66.5 109T29 247v9q0 81 37.5 140T175 487t169 32q148 0 230-70t82-193v-9q0-121-82-190.5T344-13q-98 0-169 31.5zm252 166q29 21.5 29 64.5v4q0 45-29 67.5T343 343q-56 0-85-22.5T229 253v-4q0-43 29.5-64.5T343 163t84 21.5zM569 757V605l-452-60v152z"/><glyph glyph-name="obreve" unicode="ŏ" horiz-adv-x="685" d="M175 18.5Q104 50 66.5 109T29 247v9q0 81 37.5 140T175 487t169 32q148 0 230-70t82-193v-9q0-121-82-190.5T344-13q-98 0-169 31.5zm252 166q29 21.5 29 64.5v4q0 45-29 67.5T343 343q-56 0-85-22.5T229 253v-4q0-43 29.5-64.5T343 163t84 21.5zM117 597v152q122-45 228-45 107 0 224 45V597q-117-45-224-45-106 0-228 45z"/><glyph glyph-name="uni01D2" unicode="ǒ" horiz-adv-x="685" d="M175 18.5Q104 50 66.5 109T29 247v9q0 81 37.5 140T175 487t169 32q148 0 230-70t82-193v-9q0-121-82-190.5T344-13q-98 0-169 31.5zm252 166q29 21.5 29 64.5v4q0 45-29 67.5T343 343q-56 0-85-22.5T229 253v-4q0-43 29.5-64.5T343 163t84 21.5zM117 756l226-56 226 56V601l-226-56-226 56v155z"/><glyph glyph-name="ocircumflex" unicode="ô" horiz-adv-x="685" d="M175 18.5Q104 50 66.5 109T29 247v9q0 81 37.5 140T175 487t169 32q148 0 230-70t82-193v-9q0-121-82-190.5T344-13q-98 0-169 31.5zm252 166q29 21.5 29 64.5v4q0 45-29 67.5T343 343q-56 0-85-22.5T229 253v-4q0-43 29.5-64.5T343 163t84 21.5zM343 756l226-56V545l-226 56-226-56v155z"/><glyph glyph-name="odieresis" unicode="ö" horiz-adv-x="685" d="M175 18.5Q104 50 66.5 109T29 247v9q0 81 37.5 140T175 487t169 32q148 0 230-70t82-193v-9q0-121-82-190.5T344-13q-98 0-169 31.5zm252 166q29 21.5 29 64.5v4q0 45-29 67.5T343 343q-56 0-85-22.5T229 253v-4q0-43 29.5-64.5T343 163t84 21.5zm-290.5 394Q107 606 107 650t29.5 71 76.5 27q46 0 75-27t29-71-29-71.5-75-27.5q-47 0-76.5 27.5zm261.5 0Q369 606 369 650t29 71 76 27 75.5-27 28.5-71-29-71.5-75-27.5q-47 0-76 27.5z"/><glyph glyph-name="uni1ECD" unicode="ọ" horiz-adv-x="685" d="M175 18.5Q104 50 66.5 109T29 247v9q0 81 37.5 140T175 487t169 32q148 0 230-70t82-193v-9q0-121-82-190.5T344-13q-98 0-169 31.5zm252 166q29 21.5 29 64.5v4q0 45-29 67.5T343 343q-56 0-85-22.5T229 253v-4q0-43 29.5-64.5T343 163t84 21.5zM262-221q-31 29-31 76t31.5 76.5T343-39q50 0 81-29.5t31-76.5-31-76-81-29-81 29z"/><glyph glyph-name="ograve" unicode="ò" horiz-adv-x="685" d="M175 18.5Q104 50 66.5 109T29 247v9q0 81 37.5 140T175 487t169 32q148 0 230-70t82-193v-9q0-121-82-190.5T344-13q-98 0-169 31.5zm252 166q29 21.5 29 64.5v4q0 45-29 67.5T343 343q-56 0-85-22.5T229 253v-4q0-43 29.5-64.5T343 163t84 21.5zM117 758l452-60V546l-452 60v152z"/><glyph glyph-name="ohungarumlaut" unicode="ő" horiz-adv-x="685" d="M175 18.5Q104 50 66.5 109T29 247v9q0 81 37.5 140T175 487t169 32q148 0 230-70t82-193v-9q0-121-82-190.5T344-13q-98 0-169 31.5zm252 166q29 21.5 29 64.5v4q0 45-29 67.5T343 343q-56 0-85-22.5T229 253v-4q0-43 29.5-64.5T343 163t84 21.5zM356 756V602L76 545v154zm320 0V602l-280-57v154z"/><glyph glyph-name="omacron" unicode="ō" horiz-adv-x="685" d="M175 18.5Q104 50 66.5 109T29 247v9q0 81 37.5 140T175 487t169 32q148 0 230-70t82-193v-9q0-121-82-190.5T344-13q-98 0-169 31.5zm252 166q29 21.5 29 64.5v4q0 45-29 67.5T343 343q-56 0-85-22.5T229 253v-4q0-43 29.5-64.5T343 163t84 21.5zM569 727V575H117v152h452z"/><glyph glyph-name="oslash" unicode="ø" horiz-adv-x="685" d="M632.5 372Q656 321 656 256v-9q0-122-82.5-191T344-13q-35 0-62 4l-30-50H72v24l51 84q-45 34-69.5 84.5T29 247v9q0 81 38 140.5t109 91T344 519q33 0 61-3l29 47h180v-23l-50-83q45-34 68.5-85zM200 239q0-38 15-62l120 200q-70-2-102.5-29T200 263v-24zm286 24q0 39-15 65L350 129q70 1 103 27.5t33 82.5v24z"/><glyph glyph-name="oslashacute" unicode="ǿ" horiz-adv-x="685" d="M632.5 372Q656 321 656 256v-9q0-122-82.5-191T344-13q-35 0-62 4l-30-50H72v24l51 84q-45 34-69.5 84.5T29 247v9q0 81 38 140.5t109 91T344 519q33 0 61-3l29 47h180v-23l-50-83q45-34 68.5-85zM200 239q0-38 15-62l120 200q-70-2-102.5-29T200 263v-24zm286 24q0 39-15 65L350 129q70 1 103 27.5t33 82.5v24zm83 494V605l-452-60v152z"/><glyph glyph-name="otilde" unicode="õ" horiz-adv-x="685" d="M175 18.5Q104 50 66.5 109T29 247v9q0 81 37.5 140T175 487t169 32q148 0 230-70t82-193v-9q0-121-82-190.5T344-13q-98 0-169 31.5zm252 166q29 21.5 29 64.5v4q0 45-29 67.5T343 343q-56 0-85-22.5T229 253v-4q0-43 29.5-64.5T343 163t84 21.5zm-26 380q-24 3.5-62 10.5-35 7-58.5 10.5T232 589q-59 0-115-27v150q58 29 117 29 32 0 66.5-7t41.5-8q35-8 60.5-12t51.5-4q63 0 115 26V586q-53-25-117-25-27 0-51 3.5z"/><glyph glyph-name="oe" unicode="œ" horiz-adv-x="1114" d="M1085 205H663q6-34 35-51.5t78-17.5q92 0 109 32h199q-16-89-93.5-135T777-13q-68 0-123.5 20.5T559 67q-36-39-90-59.5T346-13q-97 0-168.5 31.5t-110 90T29 247v9q0 81 38 140.5t109.5 91T346 519q68 0 122.5-21t90.5-60q40 39 95.5 60T777 519q150 0 229-69t79-200v-45zM705 360.5Q677 346 667 318h219q-10 28-38 42.5T776 375q-43 0-71-14.5zM461 253q0 90-116 90-115 0-115-90v-4q0-86 115-86 57 0 86.5 21.5T461 249v4z"/><glyph glyph-name="thorn" unicode="þ" horiz-adv-x="710" d="M551 486.5q63-32.5 96.5-92T681 257v-6q0-78-33.5-138T551 20 404-13q-87 0-149 41v-198H61v866h194V476q63 43 149 43 84 0 147-32.5zM481 257q0 41-29.5 63T367 342q-36 0-65.5-8.5T255 309V199q18-16 47.5-25.5T367 164q54 0 84 22.5t30 64.5v6z"/><glyph glyph-name="racute" unicode="ŕ" horiz-adv-x="473" d="M458 506V336H342q-73 0-102-26V0H46v506h181l4-39q59 39 137 39h90zm10 251V605L16 545v152z"/><glyph glyph-name="rcaron" unicode="ř" horiz-adv-x="473" d="M458 506V336H342q-73 0-102-26V0H46v506h181l4-39q59 39 137 39h90zM16 756l226-56 226 56V601l-226-56-226 56v155z"/><glyph glyph-name="uni0157" unicode="ŗ" horiz-adv-x="473" d="M458 506V336H342q-73 0-102-26V0H46v506h181l4-39q59 39 137 39h90zM249-58l-68-192H-10L48-58h201z"/><glyph glyph-name="sacute" unicode="ś" horiz-adv-x="688" d="M120.5 34.5Q40 82 40 170v3h177v-3q0-23 31-33.5T349 126q53 0 82 5.5t29 16.5v4q0 9-9.5 13.5T416 172l-142 14q-115 11-169 48T51 338v10q0 82 78 126.5T349 519q146 0 220-46t74-137v-3H467v3q0 24-28 34t-96 10q-111 0-111-21v-4q0-15 43-19l145-15q117-12 171.5-49T646 168v-10q0-81-78-126T349-13q-148 0-228.5 47.5zM584 757V605l-452-60v152z"/><glyph glyph-name="scaron" unicode="š" horiz-adv-x="688" d="M120.5 34.5Q40 82 40 170v3h177v-3q0-23 31-33.5T349 126q53 0 82 5.5t29 16.5v4q0 9-9.5 13.5T416 172l-142 14q-115 11-169 48T51 338v10q0 82 78 126.5T349 519q146 0 220-46t74-137v-3H467v3q0 24-28 34t-96 10q-111 0-111-21v-4q0-15 43-19l145-15q117-12 171.5-49T646 168v-10q0-81-78-126T349-13q-148 0-228.5 47.5zM132 756l226-56 226 56V601l-226-56-226 56v155z"/><glyph glyph-name="scedilla" unicode="ş" horiz-adv-x="688" d="M120.5 34.5Q40 82 40 170v3h177v-3q0-23 31-33.5T349 126q53 0 82 5.5t29 16.5v4q0 9-9.5 13.5T416 172l-142 14q-115 11-169 48T51 338v10q0 82 78 126.5T349 519q146 0 220-46t74-137v-3H467v3q0 24-28 34t-96 10q-111 0-111-21v-4q0-15 43-19l145-15q117-12 171.5-49T646 168v-10q0-81-78-126T349-13q-148 0-228.5 47.5zM458 0l-48-170H209l69 243z"/><glyph glyph-name="scircumflex" unicode="ŝ" horiz-adv-x="688" d="M120.5 34.5Q40 82 40 170v3h177v-3q0-23 31-33.5T349 126q53 0 82 5.5t29 16.5v4q0 9-9.5 13.5T416 172l-142 14q-115 11-169 48T51 338v10q0 82 78 126.5T349 519q146 0 220-46t74-137v-3H467v3q0 24-28 34t-96 10q-111 0-111-21v-4q0-15 43-19l145-15q117-12 171.5-49T646 168v-10q0-81-78-126T349-13q-148 0-228.5 47.5zM358 756l226-56V545l-226 56-226-56v155z"/><glyph glyph-name="uni0219" unicode="ș" horiz-adv-x="688" d="M120.5 34.5Q40 82 40 170v3h177v-3q0-23 31-33.5T349 126q53 0 82 5.5t29 16.5v4q0 9-9.5 13.5T416 172l-142 14q-115 11-169 48T51 338v10q0 82 78 126.5T349 519q146 0 220-46t74-137v-3H467v3q0 24-28 34t-96 10q-111 0-111-21v-4q0-15 43-19l145-15q117-12 171.5-49T646 168v-10q0-81-78-126T349-13q-148 0-228.5 47.5zM454-58l-68-192H195l58 192h201z"/><glyph glyph-name="uni1E63" unicode="ṣ" horiz-adv-x="688" d="M120.5 34.5Q40 82 40 170v3h177v-3q0-23 31-33.5T349 126q53 0 82 5.5t29 16.5v4q0 9-9.5 13.5T416 172l-142 14q-115 11-169 48T51 338v10q0 82 78 126.5T349 519q146 0 220-46t74-137v-3H467v3q0 24-28 34t-96 10q-111 0-111-21v-4q0-15 43-19l145-15q117-12 171.5-49T646 168v-10q0-81-78-126T349-13q-148 0-228.5 47.5zM277-221q-31 29-31 76t31.5 76.5T358-39q50 0 81-29.5t31-76.5-31-76-81-29-81 29z"/><glyph glyph-name="germandbls" unicode="ß" horiz-adv-x="723" d="M672 291q22-38 22-86v-10q0-89-62-142T465 0H347v170h86q34 0 50 10.5t16 31.5v6q0 40-64 40h-89v154h54q66 0 66 56v8q0 28-25.5 42.5T369 533q-59 0-86-19t-27-59V0H61l1 457q0 77 37.5 134T207 678.5 372 709q86 0 151.5-27.5t101.5-78T661 487v-16q0-73-53-118 42-24 64-62z"/><glyph glyph-name="tbar" unicode="ŧ" horiz-adv-x="558" d="M355 374v-39h188V203H355v-6q0-27 30-27h128V0H360q-92 0-145.5 49T161 182v21H10v132h151v39H10v132h110q26 0 36 10.5t10 35.5v87h189V506h188V374H355z"/><glyph glyph-name="tcaron" unicode="ť" horiz-adv-x="570" d="M328 336V205q0-35 40-35h118V0H333q-92 0-145.5 49T134 182v154H-17v170H93q26 0 36 10.5t10 35.5v87h189V506h188V336H328zm292 404l-67-190H379l22 190h219z"/><glyph glyph-name="uni0163" unicode="ţ" horiz-adv-x="520" d="M328 336V205q0-35 40-35h118V0H333q-92 0-145.5 49T134 182v154H-17v170H93q26 0 36 10.5t10 35.5v87h189V506h188V336H328zM443 0l-48-170H194l69 243z"/><glyph glyph-name="uni021B" unicode="ț" horiz-adv-x="520" d="M328 336V205q0-35 40-35h118V0H333q-92 0-145.5 49T134 182v154H-17v170H93q26 0 36 10.5t10 35.5v87h189V506h188V336H328zM439-58l-68-192H180l58 192h201z"/><glyph glyph-name="uacute" unicode="ú" horiz-adv-x="711" d="M650 506V0H470l-4 36q-63-49-152-49-127-1-193.5 68.5T54 265v241h194V265q0-49 26-75t76-26q35 0 62.5 14.5T456 220v286h194zm-71 251V605l-452-60v152z"/><glyph glyph-name="ubreve" unicode="ŭ" horiz-adv-x="711" d="M650 506V0H470l-4 36q-63-49-152-49-127-1-193.5 68.5T54 265v241h194V265q0-49 26-75t76-26q35 0 62.5 14.5T456 220v286h194zm-523 91v152q122-45 228-45 107 0 224 45V597q-117-45-224-45-106 0-228 45z"/><glyph glyph-name="ucircumflex" unicode="û" horiz-adv-x="711" d="M650 506V0H470l-4 36q-63-49-152-49-127-1-193.5 68.5T54 265v241h194V265q0-49 26-75t76-26q35 0 62.5 14.5T456 220v286h194zM353 756l226-56V545l-226 56-226-56v155z"/><glyph glyph-name="udieresis" unicode="ü" horiz-adv-x="711" d="M650 506V0H470l-4 36q-63-49-152-49-127-1-193.5 68.5T54 265v241h194V265q0-49 26-75t76-26q35 0 62.5 14.5T456 220v286h194zm-503.5 72.5Q117 606 117 650t29.5 71 76.5 27q46 0 75-27t29-71-29-71.5-75-27.5q-47 0-76.5 27.5zm261.5 0Q379 606 379 650t29 71 76 27 75.5-27 28.5-71-29-71.5-75-27.5q-47 0-76 27.5z"/><glyph glyph-name="uni1EE5" unicode="ụ" horiz-adv-x="711" d="M650 506V0H470l-4 36q-63-49-152-49-127-1-193.5 68.5T54 265v241h194V265q0-49 26-75t76-26q35 0 62.5 14.5T456 220v286h194zM275-221q-31 29-31 76t31.5 76.5T356-39q50 0 81-29.5t31-76.5-31-76-81-29-81 29z"/><glyph glyph-name="ugrave" unicode="ù" horiz-adv-x="711" d="M650 506V0H470l-4 36q-63-49-152-49-127-1-193.5 68.5T54 265v241h194V265q0-49 26-75t76-26q35 0 62.5 14.5T456 220v286h194zM127 758l452-60V546l-452 60v152z"/><glyph glyph-name="uhungarumlaut" unicode="ű" horiz-adv-x="711" d="M650 506V0H470l-4 36q-63-49-152-49-127-1-193.5 68.5T54 265v241h194V265q0-49 26-75t76-26q35 0 62.5 14.5T456 220v286h194zM366 756V602L86 545v154zm320 0V602l-280-57v154z"/><glyph glyph-name="umacron" unicode="ū" horiz-adv-x="711" d="M650 506V0H470l-4 36q-63-49-152-49-127-1-193.5 68.5T54 265v241h194V265q0-49 26-75t76-26q35 0 62.5 14.5T456 220v286h194zm-71 221V575H127v152h452z"/><glyph glyph-name="uogonek" unicode="ų" horiz-adv-x="711" d="M650 506V0H470l-4 36q-63-49-152-49-127-1-193.5 68.5T54 265v241h194V265q0-49 26-75t76-26q35 0 62.5 14.5T456 220v286h194zM401-149q-31 21-31 58 0 27 17 48.5T449 9l153 102L650 0l-48-35q-6-4-8.5-7.5T591-50q0-5 4-7.5t11-2.5h44v-110H485q-53 0-84 21z"/><glyph glyph-name="uring" unicode="ů" horiz-adv-x="711" d="M650 506V0H470l-4 36q-63-49-152-49-127-1-193.5 68.5T54 265v241h194V265q0-49 26-75t76-26q35 0 62.5 14.5T456 220v286h194zm-430.5 74Q172 617 172 686q0 67 48.5 105T353 829t132.5-38T534 686q0-69-47.5-106T353 543t-133.5 37zM390 655q13 11 13 31t-13 31-37 11-37-11-13-31 13-31 37-11 37 11z"/><glyph glyph-name="utilde" unicode="ũ" horiz-adv-x="711" d="M650 506V0H470l-4 36q-63-49-152-49-127-1-193.5 68.5T54 265v241h194V265q0-49 26-75t76-26q35 0 62.5 14.5T456 220v286h194zm-239 58.5q-24 3.5-62 10.5-35 7-58.5 10.5T242 589q-59 0-115-27v150q58 29 117 29 32 0 66.5-7t41.5-8q35-8 60.5-12t51.5-4q63 0 115 26V586q-53-25-117-25-27 0-51 3.5z"/><glyph glyph-name="wacute" unicode="ẃ" horiz-adv-x="1067" d="M1067 506v-27L885 0H630l-97 256L437 0H183L0 479v27h210l102-310 119 310h203l123-318 110 318h200zM760 757V605l-452-60v152z"/><glyph glyph-name="wcircumflex" unicode="ŵ" horiz-adv-x="1067" d="M1067 506v-27L885 0H630l-97 256L437 0H183L0 479v27h210l102-310 119 310h203l123-318 110 318h200zM534 756l226-56V545l-226 56-226-56v155z"/><glyph glyph-name="wdieresis" unicode="ẅ" horiz-adv-x="1067" d="M1067 506v-27L885 0H630l-97 256L437 0H183L0 479v27h210l102-310 119 310h203l123-318 110 318h200zm-739.5 72.5Q298 606 298 650t29.5 71 76.5 27q46 0 75-27t29-71-29-71.5-75-27.5q-47 0-76.5 27.5zm261.5 0Q560 606 560 650t29 71 76 27 75.5-27 28.5-71-29-71.5-75-27.5q-47 0-76 27.5z"/><glyph glyph-name="wgrave" unicode="ẁ" horiz-adv-x="1067" d="M1067 506v-27L885 0H630l-97 256L437 0H183L0 479v27h210l102-310 119 310h203l123-318 110 318h200zM308 758l452-60V546l-452 60v152z"/><glyph glyph-name="yacute" unicode="ý" horiz-adv-x="697" d="M697 506v-27L445-55q-26-56-73.5-85.5T240-170H72V0h149q12 0 17 1L0 479v27h207l147-309 136 309h207zM575 757V605l-452-60v152z"/><glyph glyph-name="ycircumflex" unicode="ŷ" horiz-adv-x="697" d="M697 506v-27L445-55q-26-56-73.5-85.5T240-170H72V0h149q12 0 17 1L0 479v27h207l147-309 136 309h207zM349 756l226-56V545l-226 56-226-56v155z"/><glyph glyph-name="ydieresis" unicode="ÿ" horiz-adv-x="697" d="M697 506v-27L445-55q-26-56-73.5-85.5T240-170H72V0h149q12 0 17 1L0 479v27h207l147-309 136 309h207zm-554.5 72.5Q113 606 113 650t29.5 71 76.5 27q46 0 75-27t29-71-29-71.5-75-27.5q-47 0-76.5 27.5zm261.5 0Q375 606 375 650t29 71 76 27 75.5-27 28.5-71-29-71.5-75-27.5q-47 0-76 27.5z"/><glyph glyph-name="ygrave" unicode="ỳ" horiz-adv-x="697" d="M697 506v-27L445-55q-26-56-73.5-85.5T240-170H72V0h149q12 0 17 1L0 479v27h207l147-309 136 309h207zM123 758l452-60V546l-452 60v152z"/><glyph glyph-name="uni0233" unicode="ȳ" horiz-adv-x="697" d="M697 506v-27L445-55q-26-56-73.5-85.5T240-170H72V0h149q12 0 17 1L0 479v27h207l147-309 136 309h207zM575 727V575H123v152h452z"/><glyph glyph-name="uni1EF9" unicode="ỹ" horiz-adv-x="697" d="M697 506v-27L445-55q-26-56-73.5-85.5T240-170H72V0h149q12 0 17 1L0 479v27h207l147-309 136 309h207zm-290 58.5q-24 3.5-62 10.5-35 7-58.5 10.5T238 589q-59 0-115-27v150q58 29 117 29 32 0 66.5-7t41.5-8q35-8 60.5-12t51.5-4q63 0 115 26V586q-53-25-117-25-27 0-51 3.5z"/><glyph glyph-name="zacute" unicode="ź" horiz-adv-x="642" d="M585 342L325 164h260V0H56v164l260 178H56v164h529V342zm-33 415V605l-452-60v152z"/><glyph glyph-name="zcaron" unicode="ž" horiz-adv-x="642" d="M585 342L325 164h260V0H56v164l260 178H56v164h529V342zM100 756l226-56 226 56V601l-226-56-226 56v155z"/><glyph glyph-name="zdotaccent" unicode="ż" horiz-adv-x="642" d="M585 342L325 164h260V0H56v164l260 178H56v164h529V342zM245.5 574.5Q214 604 214 651t31 76 81 29 81-29 31-76-31-76.5-81-29.5q-49 0-80.5 29.5z"/><glyph glyph-name="iacute_j.loclNLD" horiz-adv-x="572" d="M240 506V0H46v506h194zm61 243V597l-316-44v152zM291 0q41 0 41 33v473h194V12q0-52-25.5-93.5t-71-65T327-170h-95V0h59zm296 749V597l-316-44v152z"/><glyph glyph-name="a.ss05" horiz-adv-x="693" d="M561 458.5Q639 398 639 288V0H458l-5 35q-82-48-194-48-102 0-159 41T43 142q0 124 166 142l233 26q-13 50-106 50-46 0-68.5-9.5T245 320v-3H47v3q0 61 36 106t102.5 69T342 519q141 0 219-60.5zM291 123q44 0 87 14t67 34v33l-176-21q-33-4-33-29 0-31 55-31z"/><glyph glyph-name="aacute.ss05" horiz-adv-x="693" d="M561 458.5Q639 398 639 288V0H458l-5 35q-82-48-194-48-102 0-159 41T43 142q0 124 166 142l233 26q-13 50-106 50-46 0-68.5-9.5T245 320v-3H47v3q0 61 36 106t102.5 69T342 519q141 0 219-60.5zM291 123q44 0 87 14t67 34v33l-176-21q-33-4-33-29 0-31 55-31zm285 634V605l-452-60v152z"/><glyph glyph-name="abreve.ss05" horiz-adv-x="693" d="M561 458.5Q639 398 639 288V0H458l-5 35q-82-48-194-48-102 0-159 41T43 142q0 124 166 142l233 26q-13 50-106 50-46 0-68.5-9.5T245 320v-3H47v3q0 61 36 106t102.5 69T342 519q141 0 219-60.5zM291 123q44 0 87 14t67 34v33l-176-21q-33-4-33-29 0-31 55-31zM124 597v152q122-45 228-45 107 0 224 45V597q-117-45-224-45-106 0-228 45z"/><glyph glyph-name="uni01CE.ss05" horiz-adv-x="693" d="M561 458.5Q639 398 639 288V0H458l-5 35q-82-48-194-48-102 0-159 41T43 142q0 124 166 142l233 26q-13 50-106 50-46 0-68.5-9.5T245 320v-3H47v3q0 61 36 106t102.5 69T342 519q141 0 219-60.5zM291 123q44 0 87 14t67 34v33l-176-21q-33-4-33-29 0-31 55-31zM124 756l226-56 226 56V601l-226-56-226 56v155z"/><glyph glyph-name="acircumflex.ss05" horiz-adv-x="693" d="M561 458.5Q639 398 639 288V0H458l-5 35q-82-48-194-48-102 0-159 41T43 142q0 124 166 142l233 26q-13 50-106 50-46 0-68.5-9.5T245 320v-3H47v3q0 61 36 106t102.5 69T342 519q141 0 219-60.5zM291 123q44 0 87 14t67 34v33l-176-21q-33-4-33-29 0-31 55-31zm59 633l226-56V545l-226 56-226-56v155z"/><glyph glyph-name="adieresis.ss05" horiz-adv-x="693" d="M561 458.5Q639 398 639 288V0H458l-5 35q-82-48-194-48-102 0-159 41T43 142q0 124 166 142l233 26q-13 50-106 50-46 0-68.5-9.5T245 320v-3H47v3q0 61 36 106t102.5 69T342 519q141 0 219-60.5zM291 123q44 0 87 14t67 34v33l-176-21q-33-4-33-29 0-31 55-31zM143.5 578.5Q114 606 114 650t29.5 71 76.5 27q46 0 75-27t29-71-29-71.5-75-27.5q-47 0-76.5 27.5zm261.5 0Q376 606 376 650t29 71 76 27 75.5-27 28.5-71-29-71.5-75-27.5q-47 0-76 27.5z"/><glyph glyph-name="agrave.ss05" horiz-adv-x="693" d="M561 458.5Q639 398 639 288V0H458l-5 35q-82-48-194-48-102 0-159 41T43 142q0 124 166 142l233 26q-13 50-106 50-46 0-68.5-9.5T245 320v-3H47v3q0 61 36 106t102.5 69T342 519q141 0 219-60.5zM291 123q44 0 87 14t67 34v33l-176-21q-33-4-33-29 0-31 55-31zM124 758l452-60V546l-452 60v152z"/><glyph glyph-name="amacron.ss05" horiz-adv-x="693" d="M561 458.5Q639 398 639 288V0H458l-5 35q-82-48-194-48-102 0-159 41T43 142q0 124 166 142l233 26q-13 50-106 50-46 0-68.5-9.5T245 320v-3H47v3q0 61 36 106t102.5 69T342 519q141 0 219-60.5zM291 123q44 0 87 14t67 34v33l-176-21q-33-4-33-29 0-31 55-31zm285 604V575H124v152h452z"/><glyph glyph-name="aogonek.ss05" horiz-adv-x="693" d="M561 458.5Q639 398 639 288V0H458l-5 35q-82-48-194-48-102 0-159 41T43 142q0 124 166 142l233 26q-13 50-106 50-46 0-68.5-9.5T245 320v-3H47v3q0 61 36 106t102.5 69T342 519q141 0 219-60.5zM291 123q44 0 87 14t67 34v33l-176-21q-33-4-33-29 0-31 55-31zm99-272q-31 21-31 58 0 27 17 48.5T438 9l153 102L639 0l-48-35q-6-4-8.5-7.5T580-50q0-5 4-7.5t11-2.5h44v-110H474q-53 0-84 21z"/><glyph glyph-name="aring.ss05" horiz-adv-x="693" d="M561 458.5Q639 398 639 288V0H458l-5 35q-82-48-194-48-102 0-159 41T43 142q0 124 166 142l233 26q-13 50-106 50-46 0-68.5-9.5T245 320v-3H47v3q0 61 36 106t102.5 69T342 519q141 0 219-60.5zM291 123q44 0 87 14t67 34v33l-176-21q-33-4-33-29 0-31 55-31zm-74.5 457Q169 617 169 686q0 67 48.5 105T350 829t132.5-38T531 686q0-69-47.5-106T350 543t-133.5 37zM387 655q13 11 13 31t-13 31-37 11-37-11-13-31 13-31 37-11 37 11z"/><glyph glyph-name="atilde.ss05" horiz-adv-x="693" d="M561 458.5Q639 398 639 288V0H458l-5 35q-82-48-194-48-102 0-159 41T43 142q0 124 166 142l233 26q-13 50-106 50-46 0-68.5-9.5T245 320v-3H47v3q0 61 36 106t102.5 69T342 519q141 0 219-60.5zM291 123q44 0 87 14t67 34v33l-176-21q-33-4-33-29 0-31 55-31zm117 441.5q-24 3.5-62 10.5-35 7-58.5 10.5T239 589q-59 0-115-27v150q58 29 117 29 32 0 66.5-7t41.5-8q35-8 60.5-12t51.5-4q63 0 115 26V586q-53-25-117-25-27 0-51 3.5z"/><glyph glyph-name="l.ss06" horiz-adv-x="286" d="M240 696V0H46v696h194z"/><glyph glyph-name="lacute.ss06" horiz-adv-x="286" d="M240 696V0H46v696h194zm61 243V787l-316-44v152z"/><glyph glyph-name="lcaron.ss06" horiz-adv-x="496" d="M240 696V0H46v696h194zm292 0l-67-190H291l22 190h219z"/><glyph glyph-name="uni013C.ss06" horiz-adv-x="286" d="M240 696V0H46v696h194zm-1-754l-68-192H-20L38-58h201z"/><glyph glyph-name="ldot.ss06" horiz-adv-x="407" d="M240 0H46v696h194V0zm37 269q-27 30-27 80t26.5 79 71.5 29q44 0 69.5-29t25.5-79-26-80-69-30q-44 0-71 30z"/><glyph glyph-name="lslash.ss06" horiz-adv-x="368" d="M378 334l-97-20V0H87v283l-97-20v170l97 20v243h194V484l97 20V334z"/><glyph glyph-name="fi" unicode="ﬁ" horiz-adv-x="786" d="M508 336H315V0H121v336H-17v170h138v10q0 84 52.5 132T317 696h151V533H344q-29 0-29-22v-5h193V336zm232 170V0H546v506h194zm-177.5 68.5Q531 604 531 651t31 76 81 29 81-29 31-76-31-76.5-81-29.5q-49 0-80.5 29.5z"/><glyph glyph-name="fl" unicode="ﬂ" horiz-adv-x="819" d="M508 336H315V0H121v336H-17v170h138v10q0 84 52.5 132T317 696h151V533H344q-29 0-29-22v-5h193V336zm88.5-292.5Q546 87 546 161v535h194V196q0-14 7.5-20t23.5-6h43V0h-79q-88 0-138.5 43.5z"/><glyph glyph-name="fl.ss06" horiz-adv-x="786" d="M508 336H315V0H121v336H-17v170h138v10q0 84 52.5 132T317 696h151V533H344q-29 0-29-22v-5h193V336zm232 360V0H546v696h194z"/><glyph glyph-name="ordfeminine" unicode="ª" horiz-adv-x="606" d="M599 382V244h-86q-73 0-110 40-65-51-179-51-92 0-143 34.5T30 363q0 50 35.5 78T174 477l199 20q-4 22-25.5 30.5T276 536q-40 0-61-8.5T194 503v-4H33v4q0 74 67.5 117.5T282 664q119 0 185-49t66-138v-76q0-19 28-19h38zm-400.5-34q11.5-5 39.5-5 43 0 79.5 12t57.5 31v19l-152-16q-17-1-26.5-7.5T187 365q0-12 11.5-17z"/><glyph glyph-name="ordmasculine" unicode="º" horiz-adv-x="575" d="M92 289q-72 56-72 154v9q0 99 71.5 155.5T289 664q125 0 195.5-56T555 452v-8q0-100-70.5-155.5T289 233 92 289zm274.5 104.5Q393 411 393 445v5q0 71-105 71-106 0-106-72v-5q0-33 27-50.5t79-17.5 78.5 17.5z"/><glyph glyph-name="ordfeminine.case" horiz-adv-x="532" d="M531 266v-23H374l-19 47H178l-19-47H2v23l176 390h176zM305 415l-38 94-39-94h77z"/><glyph glyph-name="ordfeminine.ss05" horiz-adv-x="576" d="M471.5 615Q538 566 538 477V244H391l-4 29q-65-40-163-40-92 0-143 34.5T30 363q0 50 35.5 78T174 477l205 21q-6 21-29.5 29.5T277 536q-83 0-83-33v-4H33v4q0 74 68 117.5T285 664q120 0 186.5-49zm-148-258q39.5 14 57.5 35v14l-158-17q-17-1-26.5-7.5T187 365q0-12 11.5-17t39.5-5q46 0 85.5 14z"/><glyph glyph-name="uni0410" unicode="А" horiz-adv-x="770" d="M768 30V0H572l-43 108H241L198 0H2v30l272 626h222zM462 274l-77 191-77-191h154z"/><glyph glyph-name="uni0411" unicode="Б" horiz-adv-x="785" d="M693 656V486H265v-80h215q131 0 197.5-50T744 208v-10q0-98-67-148T480 0H64v656h629zM540 208v10q0 38-64 38H265v-86h211q64 0 64 38z"/><glyph glyph-name="uni0412" unicode="В" horiz-adv-x="785" d="M722 273.5q22-36.5 22-83.5v-10q0-85-67-132.5T489 0H64v656h406q122 0 188-47t66-133v-10q0-86-67-133 43-23 65-59.5zM265 486v-80h205q54 0 54 35v10q0 35-54 35H265zm274-269q0 37-54 37H265v-84h220q54 0 54 37v10z"/><glyph glyph-name="uni0413" unicode="Г" horiz-adv-x="627" d="M612 656V476H265V0H64v656h548z"/><glyph glyph-name="uni0403" unicode="Ѓ" horiz-adv-x="627" d="M612 656V476H265V0H64v656h548zm-24 251V755l-452-60v152z"/><glyph glyph-name="uni0490" unicode="Ґ" horiz-adv-x="627" d="M411 656v133h201V476H265V0H64v656h347z"/><glyph glyph-name="uni0414" unicode="Д" horiz-adv-x="867" d="M852 180v-313H651V0H209v-133H8v313h83q46 70 49 188l7 288h604V180h101zm-571 0h269v296l-222-1-3-107q-3-116-44-188z"/><glyph glyph-name="uni0415" unicode="Е" horiz-adv-x="723" d="M672 656V484H265v-71h387V244H265v-72h407V0H64v656h608z"/><glyph glyph-name="uni0400" unicode="Ѐ" horiz-adv-x="723" d="M672 656V484H265v-71h387V244H265v-72h407V0H64v656h608zM142 908l452-60V696l-452 60v152z"/><glyph glyph-name="uni0401" unicode="Ё" horiz-adv-x="723" d="M672 656V484H265v-71h387V244H265v-72h407V0H64v656h608zm-510.5 72.5Q132 756 132 800t29.5 71 76.5 27q46 0 75-27t29-71-29-71.5-75-27.5q-47 0-76.5 27.5zm261.5 0Q394 756 394 800t29 71 76 27 75.5-27 28.5-71-29-71.5-75-27.5q-47 0-76 27.5z"/><glyph glyph-name="uni0416" unicode="Ж" horiz-adv-x="1257" d="M1227 626L983 341l225-311V0H981L812 238h-83V0H528v238h-83L276 0H49v30l225 311L30 626v30h236l190-238h72v238h201V418h72l190 238h236v-30z"/><glyph glyph-name="uni0417" unicode="З" horiz-adv-x="833" d="M758.5 279q23.5-33 23.5-76v-10q0-64-43-110.5t-123.5-71T424-13q-190 0-286.5 73.5T41 278v7h203v-7q0-60 44-87t143-27q67 0 106 12.5t39 34.5v10q0 15-10 21.5t-38 9-87 2.5H319v150h118q50 0 76 3t36.5 10.5T560 439v10q0 21-36.5 32T418 492q-64 0-100.5-11t-53-35-16.5-66v-7H45v7q0 142 96 215.5T423 669q106 0 183.5-24T725 575.5 766 468v-10q0-80-75-124 44-22 67.5-55z"/><glyph glyph-name="uni0418" unicode="И" horiz-adv-x="819" d="M262 656V278l292 378h201V0H557v378L265 0H64v656h198z"/><glyph glyph-name="uni0419" unicode="Й" horiz-adv-x="819" d="M262 656V278l292 378h201V0H557v378L265 0H64v656h198zm-22 86.5Q184 788 184 881v10h156v-10q0-43 70-43 60 0 60 43v10h166v-10q0-94-55.5-139T410 697q-114 0-170 45.5z"/><glyph glyph-name="uni040D" unicode="Ѝ" horiz-adv-x="819" d="M262 656V278l292 378h201V0H557v378L265 0H64v656h198zm-78 252l452-60V696l-452 60v152z"/><glyph glyph-name="uni041A" unicode="К" horiz-adv-x="803" d="M773 626L519 341 754 30V0H527L351 238h-86V0H64v656h201V418h75l197 238h236v-30z"/><glyph glyph-name="uni040C" unicode="Ќ" horiz-adv-x="803" d="M773 626L519 341 754 30V0H527L351 238h-86V0H64v656h201V418h75l197 238h236v-30zM623 907V755l-452-60v152z"/><glyph glyph-name="uni041B" unicode="Л" horiz-adv-x="794" d="M730 0H529v476H309l-5-193q-4-139-65-211T62 0H0v180h24q51 0 73.5 27.5T121 299l8 357h601V0z"/><glyph glyph-name="uni041C" unicode="М" horiz-adv-x="1029" d="M965 0H767v365L613 0H416L263 363V0H64v656h269l182-431 180 431h270V0z"/><glyph glyph-name="uni041D" unicode="Н" horiz-adv-x="819" d="M265 656V418h289v238h201V0H554v238H265V0H64v656h201z"/><glyph glyph-name="uni041E" unicode="О" horiz-adv-x="877" d="M225 28.5Q133 70 82.5 147T32 325v5q0 101 50.5 178T225 627t213 42q123 0 215-42t142-118.5T845 330v-5q0-102-50-178.5t-142-118T438-13q-121 0-213 41.5zm366 182Q640 247 640 322v10q0 150-202 150-99 0-150-38t-51-112v-10q0-75 50-111.5T438 174q104 0 153 36.5z"/><glyph glyph-name="uni041F" unicode="П" horiz-adv-x="799" d="M735 656V0H534v476H265V0H64v656h671z"/><glyph glyph-name="uni0420" unicode="Р" horiz-adv-x="787" d="M491 656q124 0 194-59t70-163v-10q0-104-70-163.5T491 201H265V0H64v656h427zm59-232v10q0 48-64 48H265V375h221q64 0 64 49z"/><glyph glyph-name="uni0421" unicode="С" horiz-adv-x="874" d="M227 28.5Q134 70 83 146.5T32 325v5q0 102 51 178.5T227 627t216 42q116 0 207.5-37t143-103.5T845 378v-7H640v7q0 48-53.5 76T442 482q-104 0-154.5-37T237 332v-10q0-76 50-112t156-36q94 0 145.5 26.5T640 276v7h205v-7q0-83-51.5-149t-143-103T443-13q-123 0-216 41.5z"/><glyph glyph-name="uni0422" unicode="Т" horiz-adv-x="691" d="M15 476v180h661V476H446V0H245v476H15z"/><glyph glyph-name="uni0423" unicode="У" horiz-adv-x="738" d="M757 656v-30L523 174Q473 77 419 38.5T281 0H108v180h171L18 626v30h207l174-323 151 323h207z"/><glyph glyph-name="uni040E" unicode="Ў" horiz-adv-x="763" d="M757 656v-30L523 174Q473 77 419 38.5T281 0H108v180h171L18 626v30h207l174-323 151 323h207zm-534 86.5Q167 788 167 881v10h156v-10q0-43 70-43 60 0 60 43v10h166v-10q0-94-55.5-139T393 697q-114 0-170 45.5z"/><glyph glyph-name="uni0424" unicode="Ф" horiz-adv-x="1096" d="M913 568q73-33 112-94t39-145v-5q0-83-39-144T913.5 87 741 55h-92v-68H448v68h-93q-99 0-172 32.5t-112 93T32 324v5q0 84 39 145t112 94 172 33h93v68h201v-68h92q99 0 172-33zM264 247.5q27-22.5 91-22.5h101v206H355q-63 0-90.5-23T237 333v-10q0-53 27-75.5zM859 333q0 52-27.5 75T741 431H641V225h100q64 0 91 22.5t27 75.5v10z"/><glyph glyph-name="uni0425" unicode="Х" horiz-adv-x="819" d="M789 626L545 328 789 30V0H557L409 186 262 0H30v30l244 298L30 626v30h232l147-186 148 186h232v-30z"/><glyph glyph-name="uni0427" unicode="Ч" horiz-adv-x="799" d="M735 656V0H534v223q-104-13-183-13-152 0-229 65T45 467v189h201V487q0-50 34-73.5T385 390q68 0 149 6v260h201z"/><glyph glyph-name="uni0426" unicode="Ц" horiz-adv-x="850" d="M835 180v-313H634V0H64v656h201V180h269v476h201V180h100z"/><glyph glyph-name="uni0428" unicode="Ш" horiz-adv-x="1159" d="M265 656V180h214v476h201V180h214v476h201V0H64v656h201z"/><glyph glyph-name="uni0429" unicode="Щ" horiz-adv-x="1208" d="M1193 180v-313H992V0H64v656h201V180h213v476h201V180h213v476h201V180h100z"/><glyph glyph-name="uni040F" unicode="Џ" horiz-adv-x="799" d="M735 0H500v-143H299V0H64v656h201V180h269v476h201V0z"/><glyph glyph-name="uni042C" unicode="Ь" horiz-adv-x="776" d="M265 656V454h215q130 0 197-55.5T744 236v-12q0-109-67.5-166T480 1H64v655h201zm258.5-470q15.5 12 15.5 37v12q0 46-64 46H265V174h210q33 0 48.5 12z"/><glyph glyph-name="uni042A" unicode="Ъ" horiz-adv-x="937" d="M838 398.5Q905 343 905 236v-12q0-109-67.5-166T641 1H225v475H15v180h411V454h215q130 0 197-55.5zM700 235q0 46-64 46H426V174h210q33 0 48.5 12t15.5 37v12z"/><glyph glyph-name="uni042B" unicode="Ы" horiz-adv-x="1013" d="M265 656V454h179q130 0 197-55.5T708 236v-12q0-109-67.5-166T444 1H64v655h201zm684 0V0H748v656h201zM487.5 186q15.5 12 15.5 37v12q0 47-64 47H265V174h174q33 0 48.5 12z"/><glyph glyph-name="uni0409" unicode="Љ" horiz-adv-x="1240" d="M1141 398.5q67-55.5 67-162.5v-12q0-109-67.5-166T944 1H528v475H309l-5-193q-4-139-65-211T62 0H0v180h24q51 0 73.5 27.5T121 299l8 357h600V454h215q130 0 197-55.5zM1003 235q0 46-64 46H729V174h210q33 0 48.5 12t15.5 37v12z"/><glyph glyph-name="uni040A" unicode="Њ" horiz-adv-x="1276" d="M265 656V428h299v228h201V444h215q131 0 197.5-53.5T1244 231v-12q0-108-67-163.5T980 0H564v248H265V0H64v656h201zm758.5-476q15.5 12 15.5 38v12q0 46-64 46H765V168h210q33 0 48.5 12z"/><glyph glyph-name="uni0405" unicode="Ѕ" horiz-adv-x="771" d="M133.5 48Q47 109 47 225v10h195v-10q0-34 39-52.5T391 154q129 0 129 43v6q0 27-65 37l-185 29q-108 17-161 62T56 451v10q0 99 84 153.5T376 669q161 0 246.5-58.5T708 443v-8H515v8q0 30-34 44.5T376 502q-120 0-120-36v-6q0-11 14.5-18.5T319 429l186-29q111-17 165-63.5T724 212v-10q0-102-89.5-158.5T384-13q-164 0-250.5 61z"/><glyph glyph-name="uni0404" unicode="Є" horiz-adv-x="874" d="M640 371v3q0 53-55 85.5T438 492q-149 0-188-84h305V248H252q21-41 69.5-62.5T442 164q94 0 146 31t52 85v3h205v-3q0-84-51.5-150.5T650 25 442-13q-123 0-216 41.5t-143.5 118T32 325v5q0 102 50.5 178.5T226 627t216 42q116 0 208-38t143.5-105.5T845 374v-3H640z"/><glyph glyph-name="uni042D" unicode="Э" horiz-adv-x="874" d="M648 627q93-42 143.5-118.5T842 330v-5q0-102-50.5-178.5T648 28.5 432-13q-116 0-208 38T80.5 129.5 29 280v3h205v-3q0-54 52-85t146-31q72 0 120.5 21.5T622 248H319v160h305q-39 84-188 84-92 0-147-32.5T234 374v-3H29v3q0 84 51.5 151.5T224 631t208 38q123 0 216-42z"/><glyph glyph-name="uni0406" unicode="І" horiz-adv-x="299" d="M250 656V0H49v656h201z"/><glyph glyph-name="uni0407" unicode="Ї" horiz-adv-x="299" d="M250 656V0H49v656h201zm-306.5 72.5Q-86 756-86 800t29.5 71T20 898q46 0 75-27t29-71-29-71.5T20 701q-47 0-76.5 27.5zm261.5 0Q176 756 176 800t29 71 76 27 75.5-27 28.5-71-29-71.5-75-27.5q-47 0-76 27.5z"/><glyph glyph-name="uni0408" unicode="Ј" horiz-adv-x="749" d="M186.5 25Q111 63 70.5 135T30 305v28h201v-28q0-131 134-131 70 0 99.5 29.5T494 303v173H223v180h472V307q0-152-86.5-236T365-13q-103 0-178.5 38z"/><glyph glyph-name="uni040B" unicode="Ћ" horiz-adv-x="960" d="M838 354q77-65 77-192V0H714v152q0 50-34 73.5T575 249q-68 0-149-6V0H225v476H15v180h659V476H426v-70q106 13 183 13 152 0 229-65z"/><glyph glyph-name="uni042E" unicode="Ю" horiz-adv-x="1161" d="M939.5 627.5q90.5-41.5 140-118.5t49.5-179v-5q0-102-49.5-178.5t-140-118T728-13q-101 0-183 30.5t-135.5 87T337 238h-72V0H64v656h201V418h72q20 76 73.5 133t135 87.5T728 669q121 0 211.5-41.5zM924 332q0 150-196 150-96 0-146.5-38.5T531 332v-10q0-148 197-148 100 0 148 36t48 112v10z"/><glyph glyph-name="uni042F" unicode="Я" horiz-adv-x="806" d="M742 656V0H541v215h-60L282 0H55v30l188 191q-90 16-141 70T51 424v10q0 104 70 163t194 59h427zM256 424q0-49 64-49h221v107H320q-64 0-64-48v-10z"/><glyph glyph-name="uni0402" unicode="Ђ" horiz-adv-x="944" d="M837.5 362.5Q915 312 915 211v-10q0-96-74.5-148.5T630 0H508v163h104q56 0 79.5 9t23.5 31v7q0 16-10.5 25t-36 12.5T595 251q-64 0-169-7V0H225v476H15v180h659V476H426v-76q95 13 183 13 151 0 228.5-50.5z"/><glyph glyph-name="uni0462" unicode="Ѣ" horiz-adv-x="893" d="M794.5 339.5Q861 292 861 199v-10q0-93-67-141T597 0H181v453H-10v158h191v58h201v-58h241V453H382v-66h215q131 0 197.5-47.5zM657 199q0 38-64 38H382v-86h211q64 0 64 38v10z"/><glyph glyph-name="uni0472" unicode="Ѳ" horiz-adv-x="877" d="M654 627.5Q746 586 795.5 509T845 330v-5q0-102-49.5-178.5T654 28.5 440-13 225.5 28.5t-143 118T32 325v5q0 102 50.5 178.5t143 118.5T440 669t214-41.5zM243 400q30 11 53 16t49 5q29 0 93-10 6-1 39.5-6t64.5-5q19 0 41.5 4t46.5 9q-36 89-191 89-166 0-196-102zm390-146q-32-10-54.5-14t-48.5-4q-34 0-100 10t-98 10q-34 0-84-12 35-90 191-90 166 0 194 100z"/><glyph glyph-name="uni0474" unicode="Ѵ" horiz-adv-x="793" d="M778 656V477h-54q-16 0-25-6.5T683 448L500 0H268L2 626v30h196l186-472 125 339q28 75 61.5 104t94.5 29h113z"/><glyph glyph-name="uni0492" unicode="Ғ" horiz-adv-x="710" d="M298 476V337h247V164H298V0H97v164H-10v173H97v319h598V476H298z"/><glyph glyph-name="uni0494" unicode="Ҕ" horiz-adv-x="790" d="M672 314q77-65 77-192V84q0-118-74-186t-203-68h-95V0h52q119 0 119 97v15q0 50-34 73.5T409 209q-64 0-144-6V0H64v656h624V486H265V366q91 13 178 13 152 0 229-65z"/><glyph glyph-name="uni0496" unicode="Җ" horiz-adv-x="1236" d="M983 341l108-161h130v-313h-201V0h-55L807 238h-78V0H528v238h-83L276 0H49v30l225 311L30 626v30h236l190-238h72v238h201V418h72l190 238h236v-30z"/><glyph glyph-name="uni0498" unicode="Ҙ" horiz-adv-x="833" d="M758.5 279q23.5-33 23.5-76v-10q0-64-43-110.5t-123.5-71T424-13q-190 0-286.5 73.5T41 278v7h203v-7q0-60 44-87t143-27q67 0 106 12.5t39 34.5v10q0 15-10 21.5t-38 9-87 2.5H319v150h118q50 0 76 3t36.5 10.5T560 439v10q0 21-36.5 32T418 492q-64 0-100.5-11t-53-35-16.5-66v-7H45v7q0 142 96 215.5T423 669q106 0 183.5-24T725 575.5 766 468v-10q0-80-75-124 44-22 67.5-55zM537 40v-183H336V40h201z"/><glyph glyph-name="uni049A" unicode="Қ" horiz-adv-x="792" d="M777 180v-313H576V0h-54L349 238h-84V0H64v656h201V418h75l197 238h236v-30L519 341l119-161h139z"/><glyph glyph-name="uni049C" unicode="Ҝ" horiz-adv-x="843" d="M813 626L585 332 794 30V0H579L418 238h-13V122H297v116h-42V0H64v656h191V418h42v117h108V418h13l171 238h224v-30z"/><glyph glyph-name="uni04A0" unicode="Ҡ" horiz-adv-x="1034" d="M1004 626L750 341 985 30V0H758L582 238h-86V0H295v476H15v180h481V418h75l197 238h236v-30z"/><glyph glyph-name="uni04A2" unicode="Ң" horiz-adv-x="870" d="M855 180v-313H654V0H554v238H265V0H64v656h201V418h289v238h201V180h100z"/><glyph glyph-name="uni04A4" unicode="Ҥ" horiz-adv-x="1080" d="M265 656V418h279v238h521V476H745V0H544v238H265V0H64v656h201z"/><glyph glyph-name="uni04AA" unicode="Ҫ" horiz-adv-x="874" d="M227 28.5Q134 70 83 146.5T32 325v5q0 102 51 178.5T227 627t216 42q116 0 207.5-37t143-103.5T845 378v-7H640v7q0 48-53.5 76T442 482q-104 0-154.5-37T237 332v-10q0-76 50-112t156-36q94 0 145.5 26.5T640 276v7h205v-7q0-83-51.5-149t-143-103T443-13q-123 0-216 41.5zM548 40v-183H347V40h201z"/><glyph glyph-name="uni04AE" unicode="Ү" horiz-adv-x="726" d="M735 656v-30L464 254V0H263v254L-9 626v30h210l163-231 162 231h209z"/><glyph glyph-name="uni04B0" unicode="Ұ" horiz-adv-x="726" d="M735 626L523 335h132V155H464V0H263v155H72v180h132L-9 626v30h210l163-231 162 231h209v-30z"/><glyph glyph-name="uni04B2" unicode="Ҳ" horiz-adv-x="812" d="M797 180v-313H596V0h-54L406 182 262 0H30v30l244 298L30 626v30h232l147-186 148 186h232v-30L545 328l114-148h138z"/><glyph glyph-name="uni04B6" unicode="Ҷ" horiz-adv-x="850" d="M835 180v-313H634V0H534v223q-104-13-183-13-152 0-229 65T45 467v189h201V487q0-50 34-73.5T385 390q68 0 149 6v260h201V180h100z"/><glyph glyph-name="uni04B8" unicode="Ҹ" horiz-adv-x="799" d="M735 656V0H534v223q-42-6-84-9V102H332v108q-143 5-215 69T45 467v189h201V487q0-77 86-93v121h118V392q58 2 84 4v260h201z"/><glyph glyph-name="uni04BA" unicode="Һ" horiz-adv-x="799" d="M677 381q77-65 77-192V0H553v169q0 50-34 73.5T414 266q-68 0-149-6V0H64v656h201V433q104 13 183 13 152 0 229-65z"/><glyph glyph-name="uni04C0" unicode="Ӏ" horiz-adv-x="299" d="M250 656V0H49v656h201z"/><glyph glyph-name="uni04C1" unicode="Ӂ" horiz-adv-x="1257" d="M1227 626L983 341l225-311V0H981L812 238h-83V0H528v238h-83L276 0H49v30l225 311L30 626v30h236l190-238h72v238h201V418h72l190 238h236v-30zM459 742.5Q403 788 403 881v10h156v-10q0-43 70-43 60 0 60 43v10h166v-10q0-94-55.5-139T629 697q-114 0-170 45.5z"/><glyph glyph-name="uni04D0" unicode="Ӑ" horiz-adv-x="770" d="M768 30V0H572l-43 108H241L198 0H2v30l272 626h222zM462 274l-77 191-77-191h154zM215 742.5Q159 788 159 881v10h156v-10q0-43 70-43 60 0 60 43v10h166v-10q0-94-55.5-139T385 697q-114 0-170 45.5z"/><glyph glyph-name="uni04D2" unicode="Ӓ" horiz-adv-x="770" d="M768 30V0H572l-43 108H241L198 0H2v30l272 626h222zM462 274l-77 191-77-191h154zM178.5 728.5Q149 756 149 800t29.5 71 76.5 27q46 0 75-27t29-71-29-71.5-75-27.5q-47 0-76.5 27.5zm261.5 0Q411 756 411 800t29 71 76 27 75.5-27 28.5-71-29-71.5-75-27.5q-47 0-76 27.5z"/><glyph glyph-name="uni04D4" unicode="Ӕ" horiz-adv-x="1072" d="M618 484l15-71h368V244H670l15-72h336V0H512l-22 108H242L198 0H2v30l272 626h747V484H618zm-203 0h-22l-85-210h149z"/><glyph glyph-name="uni04D6" unicode="Ӗ" horiz-adv-x="723" d="M672 656V484H265v-71h387V244H265v-72h407V0H64v656h608zm-474 86.5Q142 788 142 881v10h156v-10q0-43 70-43 60 0 60 43v10h166v-10q0-94-55.5-139T368 697q-114 0-170 45.5z"/><glyph glyph-name="uni04D8" unicode="Ә" horiz-adv-x="877" d="M649.5 629q94.5-41 145-118T845 330v-5q0-102-49.5-178.5T654 28.5 440-13q-129 0-220.5 43.5T80 156.5 32 355v37h599q-18 54-70 82t-134 28q-73 0-120-17t-58-48H36q14 71 66.5 124t136 81T427 670q128 0 222.5-41zm-92-451.5Q605 201 625 245H245q16-48 61.5-69.5T438 154q72 0 119.5 23.5z"/><glyph glyph-name="uni04DA" unicode="Ӛ" horiz-adv-x="877" d="M649.5 629q94.5-41 145-118T845 330v-5q0-102-49.5-178.5T654 28.5 440-13q-129 0-220.5 43.5T80 156.5 32 355v37h599q-18 54-70 82t-134 28q-73 0-120-17t-58-48H36q14 71 66.5 124t136 81T427 670q128 0 222.5-41zm-92-451.5Q605 201 625 245H245q16-48 61.5-69.5T438 154q72 0 119.5 23.5zm-325 551Q203 756 203 800t29.5 71 76.5 27q46 0 75-27t29-71-29-71.5-75-27.5q-47 0-76.5 27.5zm261.5 0Q465 756 465 800t29 71 76 27 75.5-27 28.5-71-29-71.5-75-27.5q-47 0-76 27.5z"/><glyph glyph-name="uni04DC" unicode="Ӝ" horiz-adv-x="1257" d="M1227 626L983 341l225-311V0H981L812 238h-83V0H528v238h-83L276 0H49v30l225 311L30 626v30h236l190-238h72v238h201V418h72l190 238h236v-30zM422.5 728.5Q393 756 393 800t29.5 71 76.5 27q46 0 75-27t29-71-29-71.5-75-27.5q-47 0-76.5 27.5zm261.5 0Q655 756 655 800t29 71 76 27 75.5-27 28.5-71-29-71.5-75-27.5q-47 0-76 27.5z"/><glyph glyph-name="uni04DE" unicode="Ӟ" horiz-adv-x="833" d="M758.5 279q23.5-33 23.5-76v-10q0-64-43-110.5t-123.5-71T424-13q-190 0-286.5 73.5T41 278v7h203v-7q0-60 44-87t143-27q67 0 106 12.5t39 34.5v10q0 15-10 21.5t-38 9-87 2.5H319v150h118q50 0 76 3t36.5 10.5T560 439v10q0 21-36.5 32T418 492q-64 0-100.5-11t-53-35-16.5-66v-7H45v7q0 142 96 215.5T423 669q106 0 183.5-24T725 575.5 766 468v-10q0-80-75-124 44-22 67.5-55zm-529 449.5Q200 756 200 800t29.5 71 76.5 27q46 0 75-27t29-71-29-71.5-75-27.5q-47 0-76.5 27.5zm261.5 0Q462 756 462 800t29 71 76 27 75.5-27 28.5-71-29-71.5-75-27.5q-47 0-76 27.5z"/><glyph glyph-name="uni04E2" unicode="Ӣ" horiz-adv-x="819" d="M262 656V278l292 378h201V0H557v378L265 0H64v656h198zm374 221V725H184v152h452z"/><glyph glyph-name="uni04E4" unicode="Ӥ" horiz-adv-x="819" d="M262 656V278l292 378h201V0H557v378L265 0H64v656h198zm-58.5 72.5Q174 756 174 800t29.5 71 76.5 27q46 0 75-27t29-71-29-71.5-75-27.5q-47 0-76.5 27.5zm261.5 0Q436 756 436 800t29 71 76 27 75.5-27 28.5-71-29-71.5-75-27.5q-47 0-76 27.5z"/><glyph glyph-name="uni04E6" unicode="Ӧ" horiz-adv-x="877" d="M225 28.5Q133 70 82.5 147T32 325v5q0 101 50.5 178T225 627t213 42q123 0 215-42t142-118.5T845 330v-5q0-102-50-178.5t-142-118T438-13q-121 0-213 41.5zm366 182Q640 247 640 322v10q0 150-202 150-99 0-150-38t-51-112v-10q0-75 50-111.5T438 174q104 0 153 36.5zm-356.5 518Q205 756 205 800t29.5 71 76.5 27q46 0 75-27t29-71-29-71.5-75-27.5q-47 0-76.5 27.5zm261.5 0Q467 756 467 800t29 71 76 27 75.5-27 28.5-71-29-71.5-75-27.5q-47 0-76 27.5z"/><glyph glyph-name="uni04E8" unicode="Ө" horiz-adv-x="877" d="M654 627.5Q746 586 795.5 509T845 330v-5q0-102-49.5-178.5T654 28.5 440-13 225.5 28.5t-143 118T32 325v5q0 102 50.5 178.5t143 118.5T440 669t214-41.5zM247 412h383q-34 90-191 90-156 0-192-90zm383-167H247q34-91 192-91 157 0 191 91z"/><glyph glyph-name="uni04EE" unicode="Ӯ" horiz-adv-x="763" d="M757 656v-30L523 174Q473 77 419 38.5T281 0H108v180h171L18 626v30h207l174-323 151 323h207zM619 877V725H167v152h452z"/><glyph glyph-name="uni04F0" unicode="Ӱ" horiz-adv-x="763" d="M757 656v-30L523 174Q473 77 419 38.5T281 0H108v180h171L18 626v30h207l174-323 151 323h207zm-570.5 72.5Q157 756 157 800t29.5 71 76.5 27q46 0 75-27t29-71-29-71.5-75-27.5q-47 0-76.5 27.5zm261.5 0Q419 756 419 800t29 71 76 27 75.5-27 28.5-71-29-71.5-75-27.5q-47 0-76 27.5z"/><glyph glyph-name="uni04F2" unicode="Ӳ" horiz-adv-x="763" d="M757 656v-30L523 174Q473 77 419 38.5T281 0H108v180h171L18 626v30h207l174-323 151 323h207zM406 906V752l-280-57v154zm320 0V752l-280-57v154z"/><glyph glyph-name="uni04F4" unicode="Ӵ" horiz-adv-x="799" d="M735 656V0H534v223q-104-13-183-13-152 0-229 65T45 467v189h201V487q0-50 34-73.5T385 390q68 0 149 6v260h201zm-540.5 72.5Q165 756 165 800t29.5 71 76.5 27q46 0 75-27t29-71-29-71.5-75-27.5q-47 0-76.5 27.5zm261.5 0Q427 756 427 800t29 71 76 27 75.5-27 28.5-71-29-71.5-75-27.5q-47 0-76 27.5z"/><glyph glyph-name="uni04F8" unicode="Ӹ" horiz-adv-x="1013" d="M265 656V454h179q130 0 197-55.5T708 236v-12q0-109-67.5-166T444 1H64v655h201zm684 0V0H748v656h201zM487.5 186q15.5 12 15.5 37v12q0 47-64 47H265V174h174q33 0 48.5 12zm-187 542.5Q271 756 271 800t29.5 71 76.5 27q46 0 75-27t29-71-29-71.5-75-27.5q-47 0-76.5 27.5zm261.5 0Q533 756 533 800t29 71 76 27 75.5-27 28.5-71-29-71.5-75-27.5q-47 0-76 27.5z"/><glyph glyph-name="uni0407.Yi-cy" horiz-adv-x="319" d="M11 726.5Q-10 752-10 800t20.5 73T72 898t62-25 21-73-21.5-73.5T72 701t-61 25.5zm175.5 0Q166 752 166 800q0 98 81 98 41 0 61.5-25t20.5-73-21-73.5-61-25.5-60.5 25.5zM260 656V0H59v656h201z"/><glyph glyph-name="uni0414.loclBGR" horiz-adv-x="916" d="M901 180v-313H700V0H216v-133H15v313h102l230 476h222l231-476h101zm-305 0L458 474 321 180h275z"/><glyph glyph-name="uni041B.loclBGR" horiz-adv-x="770" d="M768 30V0H562L386 448 210 0H2v30l267 626h232z"/><glyph glyph-name="uni0406.ss07" horiz-adv-x="701" d="M250 179v298H45v179h611V477H451V179h205V0H45v179h205z"/><glyph glyph-name="uni0407.ss07" horiz-adv-x="701" d="M250 179v298H45v179h611V477H451V179h205V0H45v179h205zm-95.5 550.5Q125 757 125 801t29.5 71 76.5 27q46 0 75-27t29-71-29-71.5-75-27.5q-47 0-76.5 27.5zm241.5 0Q367 757 367 801t29 71 76 27 75.5-27 28.5-71-29-71.5-75-27.5q-47 0-76 27.5z"/><glyph glyph-name="uni04C0.ss07" horiz-adv-x="701" d="M250 179v298H45v179h611V477H451V179h205V0H45v179h205z"/><glyph glyph-name="uni0430" unicode="а" horiz-adv-x="716" d="M706 170V0H597q-85 0-127 50-39-30-94-46.5T257-13q-100 0-157 41T43 142q0 122 166 142l227 26q-12 50-95 50-96 0-96-40v-3H47v3q0 61 36 105.5t103 69T343 519q137 0 213.5-61T633 288v-94q0-13 6.5-18.5T662 170h44zm-415-47q41 0 82 13.5t65 33.5v33l-169-20q-33-4-33-29 0-31 55-31z"/><glyph glyph-name="uni0431" unicode="б" horiz-adv-x="704" d="M609.5 395Q675 341 675 238v-12q0-115-78-177T375-13Q44-13 44 303v17q0 165 67.5 245.5T329 661l88 9q19 2 26.5 6.5T451 690v6h198v-58q0-52-35-82t-102-36l-173-15q-58-5-84-29.5T229 404v-12q78 57 189 57 126 0 191.5-54zM475 228q0 35-28.5 54.5T366 302q-39 0-72-10t-55-28v-17q0-53 31-79t95-26q50 0 80 20.5t30 55.5v10z"/><glyph glyph-name="uni0432" unicode="в" horiz-adv-x="710" d="M675 150v-10q0-68-58.5-104T448 0H61v506h372q110 0 168.5-35.5T660 368v-10q0-65-53-100 68-35 68-108zM255 375v-62h155q26 0 37.5 6.5T459 340v8q0 14-11.5 20.5T410 375H255zm219-207q0 28-49 28H255v-65h170q49 0 49 29v8z"/><glyph glyph-name="uni0433" unicode="г" horiz-adv-x="513" d="M498 506V334H255V0H61v506h437z"/><glyph glyph-name="uni0453" unicode="ѓ" horiz-adv-x="513" d="M498 506V334H255V0H61v506h437zm10 251V605L56 545v152z"/><glyph glyph-name="uni0491" unicode="ґ" horiz-adv-x="513" d="M294 506v128h194V336H255V0H61v506h233z"/><glyph glyph-name="uni0434" unicode="д" horiz-adv-x="762" d="M757 170v-298H563V0H199v-128H5v298h77q21 32 31 66t11 84l6 186h535V170h92zm-286 0v166H305l-1-16q-2-53-10.5-87T266 170h205z"/><glyph glyph-name="uni0435" unicode="е" horiz-adv-x="671" d="M642 205H225q6-34 34-51.5t77-17.5q89 0 106 32h199q-16-89-93-135T337-13q-144 0-226 68T29 243v17q0 80 37 138.5T172.5 488 337 519q149 0 227-67.5T642 255v-50zM266 360.5Q239 346 229 318h214q-10 28-37 42.5T336 375t-70-14.5z"/><glyph glyph-name="uni0450" unicode="ѐ" horiz-adv-x="671" d="M642 205H225q6-34 34-51.5t77-17.5q89 0 106 32h199q-16-89-93-135T337-13q-144 0-226 68T29 243v17q0 80 37 138.5T172.5 488 337 519q149 0 227-67.5T642 255v-50zM266 360.5Q239 346 229 318h214q-10 28-37 42.5T336 375t-70-14.5zM110 758l452-60V546l-452 60v152z"/><glyph glyph-name="uni0451" unicode="ё" horiz-adv-x="671" d="M642 205H225q6-34 34-51.5t77-17.5q89 0 106 32h199q-16-89-93-135T337-13q-144 0-226 68T29 243v17q0 80 37 138.5T172.5 488 337 519q149 0 227-67.5T642 255v-50zM266 360.5Q239 346 229 318h214q-10 28-37 42.5T336 375t-70-14.5zm-136.5 218Q100 606 100 650t29.5 71 76.5 27q46 0 75-27t29-71-29-71.5-75-27.5q-47 0-76.5 27.5zm261.5 0Q362 606 362 650t29 71 76 27 75.5-27 28.5-71-29-71.5-75-27.5q-47 0-76 27.5z"/><glyph glyph-name="uni0436" unicode="ж" horiz-adv-x="1018" d="M1013 27V0H804L686 170h-80V0H412v170h-80L214 0H5v27l166 232L15 479v27h210l114-166h73v166h194V340h73l114 166h210v-27L846 259z"/><glyph glyph-name="uni0437" unicode="з" horiz-adv-x="684" d="M649 148v-10q0-75-76-113T346-13q-165 0-238.5 55T34 221v3h179v-3q0-49 30.5-71t98.5-22q47 0 74.5 9t27.5 25v8q0 13-11.5 18.5T395 194H261v120h124q26 0 37.5 5.5T434 338v8q0 31-102 31-64 0-91.5-21T213 285v-3H34v3q0 119 75.5 176.5T341 519q142 0 217-40t75-116v-10q0-62-49-96 65-35 65-109z"/><glyph glyph-name="uni0438" unicode="и" horiz-adv-x="713" d="M245 506V233l233 273h174V0H468v272L235 0H61v506h184z"/><glyph glyph-name="uni0439" unicode="й" horiz-adv-x="713" d="M245 506V233l233 273h174V0H468v272L235 0H61v506h184zm-58 86.5Q131 638 131 731v10h156v-10q0-43 70-43 60 0 60 43v10h166v-10q0-94-55.5-139T357 547q-114 0-170 45.5z"/><glyph glyph-name="uni045D" unicode="ѝ" horiz-adv-x="713" d="M245 506V233l233 273h174V0H468v272L235 0H61v506h184zM131 758l452-60V546l-452 60v152z"/><glyph glyph-name="uni043A" unicode="к" horiz-adv-x="687" d="M682 30V0H470L338 170h-83V0H61v506h194V337h73l129 169h215v-27L503 260z"/><glyph glyph-name="uni045C" unicode="ќ" horiz-adv-x="687" d="M682 30V0H470L338 170h-83V0H61v506h194V337h73l129 169h215v-27L503 260zM565 757V605l-452-60v152z"/><glyph glyph-name="uni043B" unicode="л" horiz-adv-x="712" d="M651 0H457v334H287l-3-81q-5-122-57-187.5T81 0H10v172h25q35 0 51.5 22t18.5 71l8 241h538V0z"/><glyph glyph-name="uni043C" unicode="м" horiz-adv-x="913" d="M852 506V0H664v318l-24-73L543 0H371l-97 245-25 76v-76l2-245H61v506h277l119-307 119 307h276z"/><glyph glyph-name="uni043D" unicode="н" horiz-adv-x="718" d="M255 506V339h208v167h194V0H463v169H255V0H61v506h194z"/><glyph glyph-name="uni043E" unicode="о" horiz-adv-x="685" d="M175 18.5Q104 50 66.5 109T29 247v9q0 81 37.5 140T175 487t169 32q148 0 230-70t82-193v-9q0-121-82-190.5T344-13q-98 0-169 31.5zm252 166q29 21.5 29 64.5v4q0 45-29 67.5T343 343q-56 0-85-22.5T229 253v-4q0-43 29.5-64.5T343 163t84 21.5z"/><glyph glyph-name="uni043F" unicode="п" horiz-adv-x="708" d="M647 506V0H453v336H255V0H61v506h586z"/><glyph glyph-name="uni0440" unicode="р" horiz-adv-x="710" d="M551 486.5q63-32.5 96.5-92T681 257v-6q0-78-33.5-138T551 20 404-13q-87 0-149 41v-198H61v676h180l4-37q67 50 159 50 84 0 147-32.5zM481 257q0 41-29.5 63T367 342q-36 0-65.5-8.5T255 309V199q18-16 47.5-25.5T367 164q54 0 84 22.5t30 64.5v6z"/><glyph glyph-name="uni0441" unicode="с" horiz-adv-x="670" d="M174 18.5q-70 31.5-107.5 90T29 247v9q0 81 37.5 140.5t107.5 91T339 519q90 0 159.5-29T606 408.5 644 288v-6H445v6q0 25-29 40t-77 15q-57 0-83.5-21.5T229 253v-4q0-44 27-65t83-21q51 0 78.5 14.5T445 218v6h199v-6q0-71-37-123T501.5 15 339-13q-95 0-165 31.5z"/><glyph glyph-name="uni0442" unicode="т" horiz-adv-x="606" d="M15 333v173h576V333H400V0H206v333H15z"/><glyph glyph-name="uni0443" unicode="у" horiz-adv-x="697" d="M697 506v-27L445-55q-26-56-73.5-85.5T240-170H72V0h149q12 0 17 1L0 479v27h207l147-309 136 309h207z"/><glyph glyph-name="uni045E" unicode="ў" horiz-adv-x="697" d="M697 506v-27L445-55q-26-56-73.5-85.5T240-170H72V0h149q12 0 17 1L0 479v27h207l147-309 136 309h207zm-518 86.5Q123 638 123 731v10h156v-10q0-43 70-43 60 0 60 43v10h166v-10q0-94-55.5-139T349 547q-114 0-170 45.5z"/><glyph glyph-name="uni0444" unicode="ф" horiz-adv-x="968" d="M858 441q81-65 81-181v-14q0-116-81-181T631 0h-50v-170H387V0h-50Q191 0 110 65T29 246v14q0 116 81 181t227 65h50v190h194V506h50q146 0 227-65zM392 170v166h-66q-50 0-76-20.5T224 257v-8q0-38 26-58.5t76-20.5h66zm352 87q0 38-26 58.5T642 336h-66V170h66q50 0 76 20.5t26 58.5v8z"/><glyph glyph-name="uni0445" unicode="х" horiz-adv-x="656" d="M651 27V0H429L327 130 227 0H5v27l196 227L8 479v27h221l98-126 97 126h221v-27L453 254z"/><glyph glyph-name="uni0447" unicode="ч" horiz-adv-x="677" d="M616 506V0H422v146q-74-8-132-8-260 0-260 235v133h194V378q0-34 24.5-50.5T326 311t96 4v191h194z"/><glyph glyph-name="uni0446" unicode="ц" horiz-adv-x="734" d="M729 170v-298H535V0H61v506h194V170h188v336h194V170h92z"/><glyph glyph-name="uni0448" unicode="ш" horiz-adv-x="1039" d="M255 506V170h168v336h194V170h167v336h194V0H61v506h194z"/><glyph glyph-name="uni0449" unicode="щ" horiz-adv-x="1075" d="M1070 170v-298H876V0H61v506h194V170h168v336h194V170h167v336h194V170h92z"/><glyph glyph-name="uni045F" unicode="џ" horiz-adv-x="698" d="M637 0H438v-128H261V0H61v506h194V170h188v336h194V0z"/><glyph glyph-name="uni044C" unicode="ь" horiz-adv-x="704" d="M567 379.5q52-24.5 80-69T675 207v-10q0-90-62-143.5T446 0H61v506h194V404h191q69 0 121-24.5zM478 208q0 17-12 27.5T434 246H255v-88h179q19 0 31.5 11t12.5 28v11z"/><glyph glyph-name="uni044A" unicode="ъ" horiz-adv-x="835" d="M698 379.5q52-24.5 80-69T806 207v-10q0-90-62-143.5T577 0H192v333H15v173h371V404h191q69 0 121-24.5zM609 208q0 17-12 27.5T565 246H386v-88h179q19 0 31.5 11t12.5 28v11z"/><glyph glyph-name="uni044B" unicode="ы" horiz-adv-x="902" d="M522 379.5q52-24.5 80-69T630 207v-10q0-90-62-143.5T401 0H46v506h194V404h161q69 0 121-24.5zM856 506V0H662v506h194zM433 208q0 18-12.5 29.5T389 249H240v-94h149q19 0 31.5 11.5T433 196v12z"/><glyph glyph-name="uni0459" unicode="љ" horiz-adv-x="1100" d="M963 379.5q52-24.5 80-69t28-103.5v-10q0-90-62-143.5T842 0H457v334H287l-3-81q-5-122-57-187.5T81 0H10v172h25q35 0 51.5 22t18.5 71l8 241h538V404h191q69 0 121-24.5zM874 208q0 17-12 27.5T830 246H651v-88h179q20 0 32 10.5t12 27.5v12z"/><glyph glyph-name="uni045A" unicode="њ" horiz-adv-x="1107" d="M255 506V339h208v167h195V364h191q106 0 167.5-46.5T1078 187v-10q0-84-61.5-130.5T849 0H463v169H255V0H61v506h194zm614-357.5q12 10.5 12 27.5v12q0 17-12 27.5T837 226H658v-88h179q20 0 32 10.5z"/><glyph glyph-name="uni0455" unicode="ѕ" horiz-adv-x="688" d="M120.5 34.5Q40 82 40 170v3h177v-3q0-23 31-33.5T349 126q53 0 82 5.5t29 16.5v4q0 9-9.5 13.5T416 172l-142 14q-115 11-169 48T51 338v10q0 82 78 126.5T349 519q146 0 220-46t74-137v-3H467v3q0 24-28 34t-96 10q-111 0-111-21v-4q0-15 43-19l145-15q117-12 171.5-49T646 168v-10q0-81-78-126T349-13q-148 0-228.5 47.5z"/><glyph glyph-name="uni0454" unicode="є" horiz-adv-x="670" d="M456 282v3q0 42-32 66t-89 24q-91 0-112-62h189V193H223q21-62 116-62 56 0 86.5 23.5T456 221v3h188v-3q0-71-37-124T501 15.5 339-13q-95 0-165 31.5T66.5 108 29 244v18q0 78 37.5 136t107 89.5T336 519q90 0 160-29.5T605 407t39-122v-3H456z"/><glyph glyph-name="uni044D" unicode="э" horiz-adv-x="670" d="M496.5 487.5Q566 456 603.5 398T641 262v-18q0-78-37.5-136T496 18.5 331-13q-93 0-162 28.5T63 97 26 221v3h188v-3q0-43 30.5-66.5T331 131q95 0 116 62H258v120h189q-21 62-112 62-57 0-89-23.5T214 285v-3H26v3q0 69 39 122t108.5 82.5T334 519q93 0 162.5-31.5z"/><glyph glyph-name="uni0456" unicode="і" horiz-adv-x="286" d="M240 506V0H46v506h194zM62.5 574.5Q31 604 31 651t31 76 81 29 81-29 31-76-31-76.5-81-29.5q-49 0-80.5 29.5z"/><glyph glyph-name="uni0457" unicode="ї" horiz-adv-x="336" d="M26.5 575Q6 602 6 651t20.5 75.5T85 753q37 0 57-26t20-76q0-49-20-76t-57-27q-38 0-58.5 27zm168-.5Q174 601 174 651q0 49 20 75.5t58 26.5 58-26.5 20-75.5q0-50-20.5-76.5T252 548t-57.5 26.5zM265 506V0H71v506h194z"/><glyph glyph-name="uni0458" unicode="ј" horiz-adv-x="286" d="M5 0q41 0 41 33v473h194V12q0-52-25.5-93.5t-71-65T41-170h-95V0H5zm57.5 574.5Q31 604 31 651t31 76 81 29 81-29 31-76-31-76.5-81-29.5q-49 0-80.5 29.5z"/><glyph glyph-name="uni045B" unicode="ћ" horiz-adv-x="737" d="M617 408.5Q683 338 683 201V0H489v201q0 49-26 75t-76 26q-35 0-62.5-14.5T281 246V0H87v516H-20v140H87v40h194v-40h191V516H281v-79q59 42 142 42 128 0 194-70.5z"/><glyph glyph-name="uni044E" unicode="ю" horiz-adv-x="928" d="M818 449.5Q899 380 899 256v-9q0-122-81-191T594-13q-115 0-190 47t-98 133h-51V0H61v506h194V340h52q24 86 98 132.5T594 519q143 0 224-69.5zM699 253q0 44-27 67t-79 23q-106 0-106-90v-4q0-86 106-86 52 0 79 22t27 64v4z"/><glyph glyph-name="uni044F" unicode="я" horiz-adv-x="715" d="M654 1H460v151h-15L269 0H44v23l164 134q-79 13-123.5 54T40 314v10q0 83 63.5 132.5T275 506h379V1zM240 314q0-18 13.5-28.5T290 275h170v88H290q-23 0-36.5-10.5T240 324v-10z"/><glyph glyph-name="uni0452" unicode="ђ" horiz-adv-x="737" d="M617 408.5Q683 338 683 201v-93q0-278-270-278h-42V0h26q47 0 69.5 24.5T489 101v100q0 49-26 75t-76 26q-35 0-62.5-14.5T281 246V0H87v516H-20v140H87v40h194v-40h191V516H281v-79q59 42 142 42 128 0 194-70.5z"/><glyph glyph-name="uni0463" unicode="ѣ" horiz-adv-x="815" d="M726 278.5Q786 241 786 162v-10q0-79-59-115.5T547 0H172v364H15v142h157v190h194V506h207V364H366v-48h181q119 0 179-37.5zM606 163q0 26-45 26H366v-62h195q45 0 45 26v10z"/><glyph glyph-name="uni0473" unicode="ѳ" horiz-adv-x="685" d="M573.5 449.5Q656 380 656 256v-9q0-122-82.5-191T344-13q-97 0-168 31.5t-109 90T29 247v9q0 81 38 140.5t109 91T344 519q147 0 229.5-69.5zm-323-89.5Q217 343 206 308q39 14 68 14 22 0 70-8 45-9 76-9 26 0 58 9-13 32-46 47.5T343 377q-59 0-92.5-17zM437 146q34 17 44 53-21-7-36.5-10t-34.5-3q-23 0-73 8-48 8-73 8-27 0-57-8 12-34 45-49.5t91-15.5q60 0 94 17z"/><glyph glyph-name="uni0475" unicode="ѵ" horiz-adv-x="705" d="M690 506V333h-40q-18 0-26.5-5T608 307L475 0H223L0 479v27h202l145-327 94 231q21 53 51 74.5t82 21.5h116z"/><glyph glyph-name="uni0493" unicode="ғ" horiz-adv-x="603" d="M289 334v-68h154V126H290V0H96v126H-10v140H96v240h477V334H289z"/><glyph glyph-name="uni0495" unicode="ҕ" horiz-adv-x="696" d="M579.5 225Q647 171 647 71V36q0-95-59-150.5T428-170h-75V0h29q33 0 52 13t19 35v12q0 53-93 53-52 0-105-6V0H61v506h533V336H255v-65q72 8 133 8 124 0 191.5-54z"/><glyph glyph-name="uni0497" unicode="җ" horiz-adv-x="1049" d="M1044 170v-298H850V0h-53L679 170h-80V0H405v170h-80L207 0H-2v27l166 232L8 479v27h210l116-169h71v169h194V337h71l116 169h210v-27L839 259l64-89h141z"/><glyph glyph-name="uni0499" unicode="ҙ" horiz-adv-x="684" d="M649 148v-10q0-75-76-113T346-13q-165 0-238.5 55T34 221v3h179v-3q0-49 30.5-71t98.5-22q47 0 74.5 9t27.5 25v8q0 13-11.5 18.5T395 194H261v120h124q26 0 37.5 5.5T434 338v8q0 31-102 31-64 0-91.5-21T213 285v-3H34v3q0 119 75.5 176.5T341 519q142 0 217-40t75-116v-10q0-62-49-96 65-35 65-109zM445 36v-179H252V36h193z"/><glyph glyph-name="uni049B" unicode="қ" horiz-adv-x="717" d="M712 170v-298H518V0h-48L338 170h-83V0H61v506h194V337h73l129 169h215v-27L503 260l70-90h139z"/><glyph glyph-name="uni049D" unicode="ҝ" horiz-adv-x="754" d="M749 30V0H537L418 170h-23V71h-98v99h-42V0H61v506h194V337h42v77h98v-77h14l115 169h215v-27L584 259z"/><glyph glyph-name="uni04A1" unicode="ҡ" horiz-adv-x="865" d="M867 30V0H655L523 170h-83V0H246v333H15v173h425V337h73l129 169h215v-27L688 260z"/><glyph glyph-name="uni04A3" unicode="ң" horiz-adv-x="754" d="M749 170v-298H555V0h-92v167H255V0H61v506h194V340h208v166h194V170h92z"/><glyph glyph-name="uni04A5" unicode="ҥ" horiz-adv-x="923" d="M255 506V340h198v166h455V333H647V0H453v167H255V0H61v506h194z"/><glyph glyph-name="uni04AB" unicode="ҫ" horiz-adv-x="670" d="M174 18.5q-70 31.5-107.5 90T29 247v9q0 81 37.5 140.5t107.5 91T339 519q90 0 159.5-29T606 408.5 644 288v-6H445v6q0 25-29 40t-77 15q-57 0-83.5-21.5T229 253v-4q0-44 27-65t83-21q51 0 78.5 14.5T445 218v6h199v-6q0-71-37-123T501.5 15 339-13q-95 0-165 31.5zM431 36v-179H238V36h193z"/><glyph glyph-name="uni04AF" unicode="ү" horiz-adv-x="695" d="M696 479L445-19v-151H251v151L-1 479v27h201l148-303 147 303h201v-27z"/><glyph glyph-name="uni04B1" unicode="ұ" horiz-adv-x="695" d="M696 479L525 139h94V-1H445v-169H251V-1H76v140h95L-1 479v27h201l148-303 147 303h201v-27z"/><glyph glyph-name="uni04B3" unicode="ҳ" horiz-adv-x="676" d="M671 170v-298H477V0h-48L327 130 227 0H5v27l196 227L8 479v27h221l98-126 97 126h221v-27L453 254l73-84h145z"/><glyph glyph-name="uni04B7" unicode="ҷ" horiz-adv-x="732" d="M708 170v-298H514V0h-92v146q-74-8-132-8-260 0-260 235v133h194V378q0-34 24.5-50.5T326 311t96 4v191h194V170h92z"/><glyph glyph-name="uni04B9" unicode="ҹ" horiz-adv-x="677" d="M616 506V0H422v145q-12-2-40-4V51H264v87q-116 5-175 61.5T30 362v144h194V367q0-43 40-58v105h118V301l40 3v202h194z"/><glyph glyph-name="uni04BB" unicode="һ" horiz-adv-x="711" d="M591 448.5Q657 378 657 241V0H463v241q0 49-26 75t-76 26q-35 0-62.5-14.5T255 286V0H61v696h194V477q59 42 142 42 128 0 194-70.5z"/><glyph glyph-name="uni04CF" unicode="ӏ" horiz-adv-x="286" d="M240 696V0H46v696h194z"/><glyph glyph-name="uni04C2" unicode="ӂ" horiz-adv-x="1018" d="M1013 27V0H804L686 170h-80V0H412v170h-80L214 0H5v27l166 232L15 479v27h210l114-166h73v166h194V340h73l114 166h210v-27L846 259zM339 592.5Q283 638 283 731v10h156v-10q0-43 70-43 60 0 60 43v10h166v-10q0-94-55.5-139T509 547q-114 0-170 45.5z"/><glyph glyph-name="uni04D1" unicode="ӑ" horiz-adv-x="716" d="M706 170V0H597q-85 0-127 50-39-30-94-46.5T257-13q-100 0-157 41T43 142q0 122 166 142l227 26q-12 50-95 50-96 0-96-40v-3H47v3q0 61 36 105.5t103 69T343 519q137 0 213.5-61T633 288v-94q0-13 6.5-18.5T662 170h44zm-415-47q41 0 82 13.5t65 33.5v33l-169-20q-33-4-33-29 0-31 55-31zM169 592.5Q113 638 113 731v10h156v-10q0-43 70-43 60 0 60 43v10h166v-10q0-94-55.5-139T339 547q-114 0-170 45.5z"/><glyph glyph-name="uni04D3" unicode="ӓ" horiz-adv-x="716" d="M706 170V0H597q-85 0-127 50-39-30-94-46.5T257-13q-100 0-157 41T43 142q0 122 166 142l227 26q-12 50-95 50-96 0-96-40v-3H47v3q0 61 36 105.5t103 69T343 519q137 0 213.5-61T633 288v-94q0-13 6.5-18.5T662 170h44zm-415-47q41 0 82 13.5t65 33.5v33l-169-20q-33-4-33-29 0-31 55-31zM132.5 578.5Q103 606 103 650t29.5 71 76.5 27q46 0 75-27t29-71-29-71.5-75-27.5q-47 0-76.5 27.5zm261.5 0Q365 606 365 650t29 71 76 27 75.5-27 28.5-71-29-71.5-75-27.5q-47 0-76 27.5z"/><glyph glyph-name="uni04D5" unicode="ӕ" horiz-adv-x="1098" d="M1069 205H642q14-69 127-69 40 0 66.5 8.5T869 168h199q-14-86-91-133.5T773-13q-163 0-248 73-41-35-102-54T285-13q-114 0-178 41.5T43 144q0 60 42 95.5T209 284l236 26q-15 50-111 50-89 0-89-40v-3H47v3q0 61 36 106t103.5 69T346 519q144 0 209-65 74 65 214 65 143 0 221.5-66.5T1069 265v-60zM686 360.5Q657 346 646 318h224q-20 57-110 57-45 0-74-14.5zm-301-222q48 15.5 70 38.5-2 9-4 25l-182-24q-33-4-33-30 0-13 11.5-19t38.5-6q51 0 99 15.5z"/><glyph glyph-name="uni04D7" unicode="ӗ" horiz-adv-x="671" d="M642 205H225q6-34 34-51.5t77-17.5q89 0 106 32h199q-16-89-93-135T337-13q-144 0-226 68T29 243v17q0 80 37 138.5T172.5 488 337 519q149 0 227-67.5T642 255v-50zM266 360.5Q239 346 229 318h214q-10 28-37 42.5T336 375t-70-14.5zm-100 232Q110 638 110 731v10h156v-10q0-43 70-43 60 0 60 43v10h166v-10q0-94-55.5-139T336 547q-114 0-170 45.5z"/><glyph glyph-name="uni04D9" unicode="ә" horiz-adv-x="671" d="M560 451q82-68 82-188v-17q0-80-37-138.5T498.5 18 334-13q-149 0-227 67.5T29 251v50h417q-6 34-34 51.5T335 370q-89 0-106-32H30q16 89 93 135t211 46q144 0 226-68zM405 145.5q27 14.5 37 42.5H228q10-28 37-42.5t70-14.5 70 14.5z"/><glyph glyph-name="uni04DB" unicode="ӛ" horiz-adv-x="671" d="M560 451q82-68 82-188v-17q0-80-37-138.5T498.5 18 334-13q-149 0-227 67.5T29 251v50h417q-6 34-34 51.5T335 370q-89 0-106-32H30q16 89 93 135t211 46q144 0 226-68zM405 145.5q27 14.5 37 42.5H228q10-28 37-42.5t70-14.5 70 14.5zm-276.5 433Q99 606 99 650t29.5 71 76.5 27q46 0 75-27t29-71-29-71.5-75-27.5q-47 0-76.5 27.5zm261.5 0Q361 606 361 650t29 71 76 27 75.5-27 28.5-71-29-71.5-75-27.5q-47 0-76 27.5z"/><glyph glyph-name="uni04DD" unicode="ӝ" horiz-adv-x="1018" d="M1013 27V0H804L686 170h-80V0H412v170h-80L214 0H5v27l166 232L15 479v27h210l114-166h73v166h194V340h73l114 166h210v-27L846 259zM302.5 578.5Q273 606 273 650t29.5 71 76.5 27q46 0 75-27t29-71-29-71.5-75-27.5q-47 0-76.5 27.5zm261.5 0Q535 606 535 650t29 71 76 27 75.5-27 28.5-71-29-71.5-75-27.5q-47 0-76 27.5z"/><glyph glyph-name="uni04DF" unicode="ӟ" horiz-adv-x="684" d="M649 148v-10q0-75-76-113T346-13q-165 0-238.5 55T34 221v3h179v-3q0-49 30.5-71t98.5-22q47 0 74.5 9t27.5 25v8q0 13-11.5 18.5T395 194H261v120h124q26 0 37.5 5.5T434 338v8q0 31-102 31-64 0-91.5-21T213 285v-3H34v3q0 119 75.5 176.5T341 519q142 0 217-40t75-116v-10q0-62-49-96 65-35 65-109zM141.5 578.5Q112 606 112 650t29.5 71 76.5 27q46 0 75-27t29-71-29-71.5-75-27.5q-47 0-76.5 27.5zm261.5 0Q374 606 374 650t29 71 76 27 75.5-27 28.5-71-29-71.5-75-27.5q-47 0-76 27.5z"/><glyph glyph-name="uni04E3" unicode="ӣ" horiz-adv-x="713" d="M245 506V233l233 273h174V0H468v272L235 0H61v506h184zm338 221V575H131v152h452z"/><glyph glyph-name="uni04E5" unicode="ӥ" horiz-adv-x="713" d="M245 506V233l233 273h174V0H468v272L235 0H61v506h184zm-94.5 72.5Q121 606 121 650t29.5 71 76.5 27q46 0 75-27t29-71-29-71.5-75-27.5q-47 0-76.5 27.5zm261.5 0Q383 606 383 650t29 71 76 27 75.5-27 28.5-71-29-71.5-75-27.5q-47 0-76 27.5z"/><glyph glyph-name="uni04E7" unicode="ӧ" horiz-adv-x="685" d="M175 18.5Q104 50 66.5 109T29 247v9q0 81 37.5 140T175 487t169 32q148 0 230-70t82-193v-9q0-121-82-190.5T344-13q-98 0-169 31.5zm252 166q29 21.5 29 64.5v4q0 45-29 67.5T343 343q-56 0-85-22.5T229 253v-4q0-43 29.5-64.5T343 163t84 21.5zm-290.5 394Q107 606 107 650t29.5 71 76.5 27q46 0 75-27t29-71-29-71.5-75-27.5q-47 0-76.5 27.5zm261.5 0Q369 606 369 650t29 71 76 27 75.5-27 28.5-71-29-71.5-75-27.5q-47 0-76 27.5z"/><glyph glyph-name="uni04E9" unicode="ө" horiz-adv-x="685" d="M573.5 449.5Q656 380 656 256v-9q0-122-82.5-191T344-13q-97 0-168 31.5t-109 90T29 247v9q0 81 38 140.5t109 91T344 519q147 0 229.5-69.5zm-319.5-88Q221 346 208 313h270q-13 33-46 48.5T343 377t-89-15.5zm179.5-217Q467 160 479 193H207q12-33 45.5-48.5T343 129t90.5 15.5z"/><glyph glyph-name="uni04EF" unicode="ӯ" horiz-adv-x="697" d="M697 506v-27L445-55q-26-56-73.5-85.5T240-170H72V0h149q12 0 17 1L0 479v27h207l147-309 136 309h207zM575 727V575H123v152h452z"/><glyph glyph-name="uni04F1" unicode="ӱ" horiz-adv-x="697" d="M697 506v-27L445-55q-26-56-73.5-85.5T240-170H72V0h149q12 0 17 1L0 479v27h207l147-309 136 309h207zm-554.5 72.5Q113 606 113 650t29.5 71 76.5 27q46 0 75-27t29-71-29-71.5-75-27.5q-47 0-76.5 27.5zm261.5 0Q375 606 375 650t29 71 76 27 75.5-27 28.5-71-29-71.5-75-27.5q-47 0-76 27.5z"/><glyph glyph-name="uni04F3" unicode="ӳ" horiz-adv-x="697" d="M697 506v-27L445-55q-26-56-73.5-85.5T240-170H72V0h149q12 0 17 1L0 479v27h207l147-309 136 309h207zM362 756V602L82 545v154zm320 0V602l-280-57v154z"/><glyph glyph-name="uni04F5" unicode="ӵ" horiz-adv-x="677" d="M616 506V0H422v146q-74-8-132-8-260 0-260 235v133h194V378q0-34 24.5-50.5T326 311t96 4v191h194zm-497.5 72.5Q89 606 89 650t29.5 71 76.5 27q46 0 75-27t29-71-29-71.5-75-27.5q-47 0-76.5 27.5zm261.5 0Q351 606 351 650t29 71 76 27 75.5-27 28.5-71-29-71.5-75-27.5q-47 0-76 27.5z"/><glyph glyph-name="uni04F9" unicode="ӹ" horiz-adv-x="902" d="M522 379.5q52-24.5 80-69T630 207v-10q0-90-62-143.5T401 0H46v506h194V404h161q69 0 121-24.5zM856 506V0H662v506h194zM433 208q0 18-12.5 29.5T389 249H240v-94h149q19 0 31.5 11.5T433 196v12zM244.5 578.5Q215 606 215 650t29.5 71 76.5 27q46 0 75-27t29-71-29-71.5-75-27.5q-47 0-76.5 27.5zm261.5 0Q477 606 477 650t29 71 76 27 75.5-27 28.5-71-29-71.5-75-27.5q-47 0-76 27.5z"/><glyph glyph-name="uni0432.loclBGR" horiz-adv-x="707" d="M653.5 292q24.5-36 24.5-85v-10q0-103-77.5-156.5T374-13q-158 0-243.5 68.5T45 250v196q0 125 84 194t237 69q88 0 155.5-26t105-73.5T664 501v-17q0-90-82-134 47-22 71.5-58zM271 510q-32-23-32-67v-17h163q32 0 50 12.5t18 35.5v7q0 52-104 52-63 0-95-23zm213-282q0 43-63 43H239v-18q0-90 137-90 57 0 82.5 14t25.5 46v5z"/><glyph glyph-name="uni0433.loclBGR" horiz-adv-x="688" d="M118.5 30.5Q41 74 41 155v10q0 65 53.5 99.5T267 311l147 15q23 2 33 7.5t10 15.5v3q0 25-104 25-67 0-93.5-8.5T233 336v-3H52v3q0 92 74.5 138T347 520q145 0 222.5-43.5T647 351v-10q0-64-55-98t-177-46l-144-14q-18-1-26-6t-8-14v-4q0-30 102-30 68 0 98 9.5t30 32.5v3h183v-3q0-88-81.5-136T339-13q-143 0-220.5 43.5z"/><glyph glyph-name="uni0434.loclBGR" horiz-adv-x="709" d="M648 506V70q0-128-77.5-191T335-183q-143 1-223 53T32 16v5h198v-5q0-16 31-27.5T336-23q118 0 118 83v12q-61-35-149-35-134 0-205.5 60T28 269v6q0 115 73.5 179.5T305 519q97 0 159-44l4 31h180zM407.5 202.5Q437 211 454 227v90q-18 16-47.5 25.5T342 352q-59 0-86.5-18.5T228 275v-6q0-39 27.5-57t86.5-18q36 0 65.5 8.5z"/><glyph glyph-name="uni0436.loclBGR" horiz-adv-x="1018" d="M1013 27V0H804L686 170h-80V0H412v170h-80L214 0H5v27l166 232L15 479v27h210l114-166h73v356h194V340h73l114 166h210v-27L846 259z"/><glyph glyph-name="uni0437.loclBGR" horiz-adv-x="684" d="M649 36V26q0-98-83.5-153.5T335-183q-92 0-160 30.5t-104.5 88T34 71v12h189V71q0-41 29-61t89-20q103 0 103 57v7q0 20-16 32.5T386 99H261v147h121q25 0 39.5 11.5T436 288v8q0 26-25 38t-78 12q-60 0-82.5-17.5T228 264v-12H39v12q0 122 78 188.5T340 519q136 0 214-56.5T632 307v-10q0-39-20.5-71T553 172q96-41 96-136z"/><glyph glyph-name="uni0438.loclBGR" horiz-adv-x="711" d="M650 506V0H470l-4 36q-63-49-152-49-127-1-193.5 68.5T54 265v241h194V265q0-49 26-75t76-26q35 0 62.5 14.5T456 220v286h194z"/><glyph glyph-name="uni0439.loclBGR" horiz-adv-x="711" d="M650 506V0H470l-4 36q-63-49-152-49-127-1-193.5 68.5T54 265v241h194V265q0-49 26-75t76-26q35 0 62.5 14.5T456 220v286h194zm-467 86.5Q127 638 127 731v10h156v-10q0-43 70-43 60 0 60 43v10h166v-10q0-94-55.5-139T353 547q-114 0-170 45.5z"/><glyph glyph-name="uni045D.loclBGR" horiz-adv-x="711" d="M650 506V0H470l-4 36q-63-49-152-49-127-1-193.5 68.5T54 265v241h194V265q0-49 26-75t76-26q35 0 62.5 14.5T456 220v286h194zM127 758l452-60V546l-452 60v152z"/><glyph glyph-name="uni043A.loclBGR" horiz-adv-x="687" d="M682 30V0H470L338 170h-83V0H61v696h194V337h73l129 169h215v-27L503 260z"/><glyph glyph-name="uni043B.loclBGR" horiz-adv-x="697" d="M697 27V0H490L349 319 207 0H0v27l223 479h252z"/><glyph glyph-name="uni043F.loclBGR" horiz-adv-x="711" d="M590.5 450.5Q657 381 657 241V0H463v241q0 49-26 75t-76 26q-35 0-62.5-14.5T255 286V0H61v506h180l4-36q63 49 152 49 127 1 193.5-68.5z"/><glyph glyph-name="uni0442.loclBGR" horiz-adv-x="1108" d="M987 448.5q67-70.5 67-207.5V0H860v241q0 49-25 75t-71 26q-37 0-66-16t-46-45q2-26 2-40V0H460v241q0 49-24.5 75T365 342q-36 0-64.5-15.5T255 284V0H61v506h180l4-37q64 50 156 50 132 0 196-79 73 79 193 79 130 0 197-70.5z"/><glyph glyph-name="uni0446.loclBGR" horiz-adv-x="747" d="M742 170v-303H548V0h-78l-4 36q-63-49-152-49-127 0-193.5 69T54 265v241h194V265q0-49 26-75t76-26q35 0 62.5 14.5T456 220v286h194V170h92z"/><glyph glyph-name="uni0448.loclBGR" horiz-adv-x="1108" d="M1047 506V0H867l-4 37q-64-50-156-50-132 0-196 79-73-79-193-79-130 0-197 70.5T54 265v241h194V265q0-49 25-75t71-26q37 0 66 16t46 45q-2 26-2 40v241h194V265q0-49 24.5-75t70.5-26q36 0 64.5 15.5T853 222v284h194z"/><glyph glyph-name="uni0449.loclBGR" horiz-adv-x="1144" d="M1139 170v-303H945V0h-78l-4 37q-64-50-156-50-132 0-196 79-73-79-193-79-130 0-197 70.5T54 265v241h194V265q0-49 25-75t71-26q37 0 66 16t46 45q-2 26-2 40v241h194V265q0-49 24.5-75t70.5-26q36 0 64.5 15.5T853 222v284h194V170h92z"/><glyph glyph-name="uni044C.loclBGR" horiz-adv-x="704" d="M567 379.5q52-24.5 80-69T675 207v-9q0-94-71.5-146T403 0h-57Q205 0 133 55T61 217v289h194V404h191q69 0 121-24.5zM478 210q0 17-14 26.5t-40 9.5H255v-19q0-34 21-49t67-15h41q51 0 72.5 9t21.5 31v7z"/><glyph glyph-name="uni044A.loclBGR" horiz-adv-x="835" d="M698 379.5q52-24.5 80-69T806 207v-9q0-94-71.5-146T534 0h-57Q336 0 264 55t-72 162v116H15v173h371V404h191q69 0 121-24.5zM609 210q0 17-14 26.5t-40 9.5H386v-19q0-34 21-49t67-15h41q51 0 72.5 9t21.5 31v7z"/><glyph glyph-name="uni044E.loclBGR" horiz-adv-x="928" d="M818 449.5Q899 380 899 256v-9q0-122-81-191T594-13q-115 0-190 47t-98 133h-51V0H61v696h194V340h52q24 86 98 132.5T594 519q143 0 224-69.5zM699 253q0 44-27 67t-79 23q-106 0-106-90v-4q0-86 106-86 52 0 79 22t27 64v4z"/><glyph glyph-name="uni0431.loclSRB" horiz-adv-x="689" d="M599 387q61-59 61-151v-9q0-73-38-127T513 16.5 347-13q-96 0-168 29.5t-111 84T29 227v9q0 102 91 151-46 52-46 122 0 73 53 120t142 54l337 26V539l-294-18q-31-1-31-24 0-9 8-16t23-8l115-14q111-13 172-72zM460 234q0 64-105 76l-86 10q-45-28-45-79v-10q0-41 33-64.5t90-23.5q53 0 83 20.5t30 57.5v13z"/><glyph glyph-name="uni0430.ss05" horiz-adv-x="693" d="M561 458.5Q639 398 639 288V0H458l-5 35q-82-48-194-48-102 0-159 41T43 142q0 124 166 142l233 26q-13 50-106 50-46 0-68.5-9.5T245 320v-3H47v3q0 61 36 106t102.5 69T342 519q141 0 219-60.5zM291 123q44 0 87 14t67 34v33l-176-21q-33-4-33-29 0-31 55-31z"/><glyph glyph-name="uni04D1.ss05" horiz-adv-x="693" d="M561 458.5Q639 398 639 288V0H458l-5 35q-82-48-194-48-102 0-159 41T43 142q0 124 166 142l233 26q-13 50-106 50-46 0-68.5-9.5T245 320v-3H47v3q0 61 36 106t102.5 69T342 519q141 0 219-60.5zM291 123q44 0 87 14t67 34v33l-176-21q-33-4-33-29 0-31 55-31zM180 592.5Q124 638 124 731v10h156v-10q0-43 70-43 60 0 60 43v10h166v-10q0-94-55.5-139T350 547q-114 0-170 45.5z"/><glyph glyph-name="uni04D3.ss05" horiz-adv-x="693" d="M561 458.5Q639 398 639 288V0H458l-5 35q-82-48-194-48-102 0-159 41T43 142q0 124 166 142l233 26q-13 50-106 50-46 0-68.5-9.5T245 320v-3H47v3q0 61 36 106t102.5 69T342 519q141 0 219-60.5zM291 123q44 0 87 14t67 34v33l-176-21q-33-4-33-29 0-31 55-31zM143.5 578.5Q114 606 114 650t29.5 71 76.5 27q46 0 75-27t29-71-29-71.5-75-27.5q-47 0-76.5 27.5zm261.5 0Q376 606 376 650t29 71 76 27 75.5-27 28.5-71-29-71.5-75-27.5q-47 0-76 27.5z"/><glyph glyph-name="uni0431.ss08" horiz-adv-x="704" d="M607 394.5Q675 340 675 242v-12q0-116-78.5-179.5T375-13q-163 0-247 82T44 310v20q0 115 33 187.5T181.5 629 372 681l267 28V539l-249-27q-63-7-97.5-18.5t-49-32.5-14.5-56v-13q78 57 189 57 121 0 189-54.5zM475 228q0 35-28.5 54.5T366 302q-40 0-72.5-10T239 263v-16q0-53 31-79t95-26q51 0 80.5 20.5T475 218v10z"/><glyph glyph-name="Alpha" unicode="Α" horiz-adv-x="770" d="M768 30V0H572l-43 108H241L198 0H2v30l272 626h222zM462 274l-77 191-77-191h154z"/><glyph glyph-name="Beta" unicode="Β" horiz-adv-x="785" d="M722 273.5q22-36.5 22-83.5v-10q0-85-67-132.5T489 0H64v656h406q122 0 188-47t66-133v-10q0-86-67-133 43-23 65-59.5zM265 486v-80h205q54 0 54 35v10q0 35-54 35H265zm274-269q0 37-54 37H265v-84h220q54 0 54 37v10z"/><glyph glyph-name="Gamma" unicode="Γ" horiz-adv-x="687" d="M672 656V476H265V0H64v656h608z"/><glyph glyph-name="uni0394" unicode="Δ" horiz-adv-x="773" d="M736 179V0H37v179l227 477h245zm-493 1h287L387 490z"/><glyph glyph-name="Epsilon" unicode="Ε" horiz-adv-x="723" d="M672 656V484H265v-71h387V244H265v-72h407V0H64v656h608z"/><glyph glyph-name="Zeta" unicode="Ζ" horiz-adv-x="696" d="M659 477L311 179h348V0H37v179l348 298H37v179h622V477z"/><glyph glyph-name="Eta" unicode="Η" horiz-adv-x="819" d="M265 656V418h289v238h201V0H554v238H265V0H64v656h201z"/><glyph glyph-name="Theta" unicode="Θ" horiz-adv-x="877" d="M654 627.5Q746 586 795.5 509T845 330v-5q0-102-49.5-178.5T654 28.5 440-13 225.5 28.5t-143 118T32 325v5q0 102 50.5 178.5t143 118.5T440 669t214-41.5zM247 412h383q-34 90-191 90-156 0-192-90zm383-167H247q34-91 192-91 157 0 191 91z"/><glyph glyph-name="Iota" unicode="Ι" horiz-adv-x="299" d="M250 656V0H49v656h201z"/><glyph glyph-name="Kappa" unicode="Κ" horiz-adv-x="813" d="M783 626L510 369 764 30V0H540L354 253l-89-88V0H64v656h201V387l283 269h235v-30z"/><glyph glyph-name="Lambda" unicode="Λ" horiz-adv-x="770" d="M768 30V0H562L386 448 210 0H2v30l267 626h232z"/><glyph glyph-name="Mu" unicode="Μ" horiz-adv-x="1029" d="M965 0H767v365L613 0H416L263 363V0H64v656h269l182-431 180 431h270V0z"/><glyph glyph-name="Nu" unicode="Ν" horiz-adv-x="819" d="M755 656V0H569L252 371V0H64v656h187l316-370v370h188z"/><glyph glyph-name="Xi" unicode="Ξ" horiz-adv-x="790" d="M491 484v-71h228V244H491v-72h248V0H51v172h249v72H71v169h229v71H51v172h688V484H491z"/><glyph glyph-name="Omicron" unicode="Ο" horiz-adv-x="877" d="M225 28.5Q133 70 82.5 147T32 325v5q0 101 50.5 178T225 627t213 42q123 0 215-42t142-118.5T845 330v-5q0-102-50-178.5t-142-118T438-13q-121 0-213 41.5zm366 182Q640 247 640 322v10q0 150-202 150-99 0-150-38t-51-112v-10q0-75 50-111.5T438 174q104 0 153 36.5z"/><glyph glyph-name="Pi" unicode="Π" horiz-adv-x="799" d="M735 656V0H534v476H265V0H64v656h671z"/><glyph glyph-name="Rho" unicode="Ρ" horiz-adv-x="787" d="M491 656q124 0 194-59t70-163v-10q0-104-70-163.5T491 201H265V0H64v656h427zm59-232v10q0 48-64 48H265V375h221q64 0 64 49z"/><glyph glyph-name="Sigma" unicode="Σ" horiz-adv-x="703" d="M652 476H368l167-91V272l-168-92h285V0H37v179l269 149L37 477v179h615V476z"/><glyph glyph-name="Tau" unicode="Τ" horiz-adv-x="691" d="M15 476v180h661V476H446V0H245v476H15z"/><glyph glyph-name="Upsilon" unicode="Υ" horiz-adv-x="726" d="M735 656v-30L464 254V0H263v254L-9 626v30h210l163-231 162 231h209z"/><glyph glyph-name="Phi" unicode="Φ" horiz-adv-x="1077" d="M885.5 582.5q76.5-34.5 118-98.5t41.5-149v-5q0-88-41.5-154T886 74.5 707 39h-68v-79H438v79h-68q-103 0-179 35.5T73.5 176 32 330v5q0 85 41.5 149t118 98.5T370 617h68v79h201v-79h68q102 0 178.5-34.5zM270 245.5Q303 219 370 219h73v218h-73q-133 0-133-100v-10q0-55 33-81.5zM840 337q0 100-133 100h-73V219h73q67 0 100 26.5t33 81.5v10z"/><glyph glyph-name="Chi" unicode="Χ" horiz-adv-x="819" d="M789 626L545 328 789 30V0H557L409 186 262 0H30v30l244 298L30 626v30h232l147-186 148 186h232v-30z"/><glyph glyph-name="Psi" unicode="Ψ" horiz-adv-x="1057" d="M1012 656V397q0-117-84-183t-233-66h-66V0H428v148h-65q-149 0-233.5 66T45 397v259h201V420q0-49 24.5-70.5T352 328h76v328h201V328h77q56 0 80.5 21.5T811 420v236h201z"/><glyph glyph-name="uni03A9" unicode="Ω" horiz-adv-x="880" d="M803 253q-42-53-129-78v-25h171V0H483v278q81 4 119 26t38 65v10q0 47-49 70t-151 23-151-23-49-70v-10q0-43 38-65t119-26V0H35v150h171v25q-87 25-129 78T35 387v7q0 85 48.5 147T223 636t217 33 217-33 139.5-95T845 394v-7q0-81-42-134z"/><glyph glyph-name="Alphatonos" unicode="Ά" horiz-adv-x="770" d="M768 30V0H572l-43 108H241L198 0H2v30l272 626h222zM462 274l-77 191-77-191h154zM81 656L61 394h-172l20 262H81z"/><glyph glyph-name="Epsilontonos" unicode="Έ" horiz-adv-x="723" d="M672 656V484H265v-71h387V244H265v-72h407V0H64v656h608zm-736 0l-20-262h-172l20 262h172z"/><glyph glyph-name="Etatonos" unicode="Ή" horiz-adv-x="819" d="M265 656V418h289v238h201V0H554v238H265V0H64v656h201zm-329 0l-20-262h-172l20 262h172z"/><glyph glyph-name="Iotatonos" unicode="Ί" horiz-adv-x="299" d="M250 656V0H49v656h201zm-329 0l-20-262h-172l20 262h172z"/><glyph glyph-name="Omicrontonos" unicode="Ό" horiz-adv-x="877" d="M225 28.5Q133 70 82.5 147T32 325v5q0 101 50.5 178T225 627t213 42q123 0 215-42t142-118.5T845 330v-5q0-102-50-178.5t-142-118T438-13q-121 0-213 41.5zm366 182Q640 247 640 322v10q0 150-202 150-99 0-150-38t-51-112v-10q0-75 50-111.5T438 174q104 0 153 36.5zM-22 656l-20-262h-172l20 262h172z"/><glyph glyph-name="Upsilontonos" unicode="Ύ" horiz-adv-x="726" d="M735 656v-30L464 254V0H263v254L-9 626v30h210l163-231 162 231h209zm-799 0l-20-262h-172l20 262h172z"/><glyph glyph-name="Omegatonos" unicode="Ώ" horiz-adv-x="880" d="M803 253q-42-53-129-78v-25h171V0H483v278q81 4 119 26t38 65v10q0 47-49 70t-151 23-151-23-49-70v-10q0-43 38-65t119-26V0H35v150h171v25q-87 25-129 78T35 387v7q0 85 48.5 147T223 636t217 33 217-33 139.5-95T845 394v-7q0-81-42-134zM-12 656l-20-262h-172l20 262h172z"/><glyph glyph-name="Iotadieresis" unicode="Ϊ" horiz-adv-x="299" d="M250 656V0H49v656h201zm-306.5 72.5Q-86 756-86 800t29.5 71T20 898q46 0 75-27t29-71-29-71.5T20 701q-47 0-76.5 27.5zm261.5 0Q176 756 176 800t29 71 76 27 75.5-27 28.5-71-29-71.5-75-27.5q-47 0-76 27.5z"/><glyph glyph-name="Upsilondieresis" unicode="Ϋ" horiz-adv-x="726" d="M735 656v-30L464 254V0H263v254L-9 626v30h210l163-231 162 231h209zm-577.5 72.5Q128 756 128 800t29.5 71 76.5 27q46 0 75-27t29-71-29-71.5-75-27.5q-47 0-76.5 27.5zm261.5 0Q390 756 390 800t29 71 76 27 75.5-27 28.5-71-29-71.5-75-27.5q-47 0-76 27.5z"/><glyph glyph-name="Iota.ss07" horiz-adv-x="701" d="M250 179v298H45v179h611V477H451V179h205V0H45v179h205z"/><glyph glyph-name="Iotatonos.ss07" horiz-adv-x="701" d="M250 179v298H45v179h611V477H451V179h205V0H45v179h205zM-74 656l-20-262h-172l20 262h172z"/><glyph glyph-name="Iotadieresis.ss07" horiz-adv-x="701" d="M250 179v298H45v179h611V477H451V179h205V0H45v179h205zM144.5 728.5Q115 756 115 800t29.5 71 76.5 27q46 0 75-27t29-71-29-71.5-75-27.5q-47 0-76.5 27.5zm261.5 0Q377 756 377 800t29 71 76 27 75.5-27 28.5-71-29-71.5-75-27.5q-47 0-76 27.5z"/><glyph glyph-name="alpha" unicode="α" horiz-adv-x="737" d="M727 170V0H618q-87 0-128 52-70-65-179-65-85 0-148.5 32.5T64 112 29 251v6q0 79 35 138t98.5 91.5T311 519q92 0 159-50l4 37h180V194q0-13 6.5-18.5T683 170h44zm-467 17q31-23 88-23 35 0 64.5 9.5T460 199v110q-17 16-46.5 24.5T348 342q-57 0-88-22t-31-63v-6q0-41 31-64z"/><glyph glyph-name="beta" unicode="β" horiz-adv-x="723" d="M694 208v-12q0-100-68.5-154.5T430-13q-105 0-175 40v-197H61v622q0 122 81 189.5T370 709q95 0 165-25.5t107.5-73T680 499v-12q0-92-83-133 97-41 97-146zm-194 21q0 22-15.5 32T437 271H323v155h95q32 0 50 12.5t18 35.5v7q0 52-108 52-62 0-92.5-20.5T255 449V204q41-41 138-41 107 0 107 59v7z"/><glyph glyph-name="gamma" unicode="γ" horiz-adv-x="695" d="M696 479L445-19v-151H251v151L-1 479v27h201l148-303 147 303h201v-27z"/><glyph glyph-name="delta" unicode="δ" horiz-adv-x="685" d="M621 364q35-49 35-118v-9q0-118-83-184T344-13q-97 0-168 30T67 103.5 29 237v9q0 75 45 124t130 69L55 523v173h548V526H366l140-72q80-41 115-90zM456 242q0 26-15 46.5T386 334h-4q-74 0-113-22.5T230 246v-4q0-49 29-75t84-26q113 0 113 97v4z"/><glyph glyph-name="epsilon" unicode="ε" horiz-adv-x="684" d="M461 302v3q0 29-10 44t-33 21.5-66 6.5q-102 0-102-31v-8q0-13 11.5-18.5T299 314h124V194H289q-26 0-37.5-5.5T240 170v-8q0-16 27.5-25t74.5-9q56 0 82 10.5t31.5 24.5 5.5 38v3h189v-3q0-112-74.5-163T338-13q-151 0-227 38T35 138v10q0 74 65 109-49 34-49 96v10q0 76 75 116t217 40q152 0 229.5-54T650 305v-3H461z"/><glyph glyph-name="zeta" unicode="ζ" horiz-adv-x="599" d="M244.5 280Q225 258 225 231v-10q0-51 80-51h106q96 0 142-42T599-1v-9q0-160-188-160H254v140h134q22 0 22 12v5q0 13-22 13h-84Q161 0 92.5 48.5T24 200v15q0 47 17 85t56.5 75.5T208 459l103 67H37v170h562V531L326 344q-62-42-81.5-64z"/><glyph glyph-name="eta" unicode="η" horiz-adv-x="733" d="M679 241v-411H485v411q0 49-26 75t-74 26q-36 0-64-15t-44-41L276 0H83v308q0 13-6.5 18.5T54 332H10v174h109q80 0 121-44 69 57 183 57 256 0 256-278z"/><glyph glyph-name="theta" unicode="θ" horiz-adv-x="675" d="M564.5 600Q646 531 646 408V247q0-122-81.5-191T339-13q-94 0-164 31.5t-108 90T29 247v161q0 81 37.5 140T174 638t165 31q144 0 225.5-69zM246 485q-32-25-32-73v-3h248v3q0 47-32.5 72.5T338 510q-60 0-92-25zm183.5-310.5Q462 200 462 247v2H214v-2q0-48 32-73t92-25q59 0 91.5 25.5z"/><glyph glyph-name="iota" unicode="ι" horiz-adv-x="329" d="M96.5 43.5Q46 87 46 161v345h194V197q0-14 7.5-20.5T271 170h53V0h-89Q147 0 96.5 43.5z"/><glyph glyph-name="kappa" unicode="κ" horiz-adv-x="681" d="M683 27V0H469L341 169l-86-85V0H61v506h194V310l204 196h214v-27L482 290z"/><glyph glyph-name="lambda" unicode="λ" horiz-adv-x="705" d="M705 27V0H499L359 291 215 0H9v27l244 480q-8 10-19 14.5t-29 4.5H36v170h188q77 0 126-27.5t79-87.5z"/><glyph glyph-name="uni03BC" unicode="μ" horiz-adv-x="740" d="M730 170V0H621q-90 0-131 55-21-32-55.5-50T358-13q-60 0-103 31v-188H61v676h194V265q0-49 26-75t74-26q35 0 63 14.5t45 41.5v286h194V194q0-13 6.5-18.5T686 170h44z"/><glyph glyph-name="nu" unicode="ν" horiz-adv-x="697" d="M697 506v-27L475 0H223L0 479v27h207l142-319 141 319h207z"/><glyph glyph-name="xi" unicode="ξ" horiz-adv-x="663" d="M464 472v2q0 28-29 43.5T355 533q-49 0-77.5-14.5T249 478v-7q0-25 18-38.5t52-13.5h178V264H293q-64 0-64-41v-8q0-24 25.5-34.5T339 170h127q96 0 142-42T654-1v-9q0-160-188-160H309v140h134q22 0 22 12v5q0 13-22 13H339Q194 0 111.5 52T29 195v15q0 95 84 139-65 44-65 132v19q0 62 38 109.5T192.5 683 350 709q93 0 164-29.5T624 597t39-123v-2H464z"/><glyph glyph-name="omicron" unicode="ο" horiz-adv-x="685" d="M175 18.5Q104 50 66.5 109T29 247v9q0 81 37.5 140T175 487t169 32q148 0 230-70t82-193v-9q0-121-82-190.5T344-13q-98 0-169 31.5zm252 166q29 21.5 29 64.5v4q0 45-29 67.5T343 343q-56 0-85-22.5T229 253v-4q0-43 29.5-64.5T343 163t84 21.5z"/><glyph glyph-name="pi" unicode="π" horiz-adv-x="814" d="M10 332v174h800V332H666V202q0-17 8.5-24.5T703 170h87V0H671q-92 0-145.5 49T472 182v150H335V0H141v332H10z"/><glyph glyph-name="rho" unicode="ρ" horiz-adv-x="704" d="M592.5 449.5Q675 380 675 256v-9q0-77-34-136t-96.5-91.5T401-13q-90 0-152 41v-198H54v426q0 124 82 193.5T363 519q147 0 229.5-69.5zM475 256q0 87-113 87t-113-90v-54q18-17 49-26.5t67-9.5q54 0 82 21.5t28 62.5v9z"/><glyph glyph-name="uni03C2" unicode="ς" horiz-adv-x="665" d="M423-30q22 0 22 12v5q0 13-22 13h-84Q187 0 108 62.5T29 244v18q0 78 37.5 136t107 89.5T336 519q91 0 161-30t108.5-84T644 280v-6H445v6q0 29-28.5 46T339 343q-56 0-82.5-20T230 262v-18q0-39 26-56.5t84-17.5h106q96 0 142-42T634-1v-9q0-160-188-160H289v140h134z"/><glyph glyph-name="sigma" unicode="σ" horiz-adv-x="735" d="M735 332H621q35-37 35-96v-9q0-73-38-127T509.5 16.5 344-13q-97 0-168 31.5t-109 90T29 247v9q0 117 83.5 183.5T343 506h392V332zm-286.5-43q-7.5 18-27.5 43h-78q-59 0-86-20.5T230 248v-4q0-85 113-85 56 0 84.5 21.5T456 244v4q0 23-7.5 41z"/><glyph glyph-name="tau" unicode="τ" horiz-adv-x="572" d="M214 49q-53 49-53 133v150H10v174h543V332H355V205q0-35 40-35h128V0H360q-93 0-146 49z"/><glyph glyph-name="upsilon" unicode="υ" horiz-adv-x="704" d="M134 58q-80 71-80 196v252h194V252q0-93 107-93 50 0 75.5 23.5T456 252v254h194V254q0-127-77.5-197T355-13q-141 0-221 71z"/><glyph glyph-name="phi" unicode="φ" horiz-adv-x="968" d="M858 441q81-65 81-181v-14q0-116-81-181T631 0h-50v-170H387V0h-50Q191 0 110 65T29 246v14q0 116 81 181t227 65h50v190h194V506h50q146 0 227-65zM392 170v166h-66q-50 0-76-20.5T224 257v-8q0-38 26-58.5t76-20.5h66zm352 87q0 38-26 58.5T642 336h-66V170h66q50 0 76 20.5t26 58.5v8z"/><glyph glyph-name="chi" unicode="χ" horiz-adv-x="656" d="M650-143v-27H437L327 29 218-170H5v27l196 312L8 479v27h212l106-194 105 194h213v-27L452 169z"/><glyph glyph-name="psi" unicode="ψ" horiz-adv-x="898" d="M844 506V246q0-114-78.5-179T546 0v-170H352V0Q211 2 132.5 67T54 246v260h195V269q0-50 24.5-73t77.5-23h1v523h194V173h1q53 0 77.5 23t24.5 73v237h195z"/><glyph glyph-name="omega" unicode="ω" horiz-adv-x="968" d="M857.5 439Q939 372 939 247v-9q0-74-34-131t-95.5-88.5T668-13q-60 0-106.5 18T484 58q-31-35-77.5-53T300-13q-80 0-141.5 31.5T63 107 29 238v9q0 125 81.5 192T337 506h30V336h-40q-49 0-76-21t-27-64v-7q0-39 26.5-61.5T322 160q41 0 65 22v185h194V182q24-22 65-22 45 0 71.5 22.5T744 244v7q0 43-27 64t-76 21h-40v170h30q145 0 226.5-67z"/><glyph glyph-name="iotatonos" unicode="ί" horiz-adv-x="329" d="M96.5 43.5Q46 87 46 161v345h194V197q0-14 7.5-20.5T271 170h53V0h-89Q147 0 96.5 43.5zM247 816l-20-262H55l20 262h172z"/><glyph glyph-name="iotadieresis" unicode="ϊ" horiz-adv-x="329" d="M96.5 43.5Q46 87 46 161v345h194V197q0-14 7.5-20.5T271 170h53V0h-89Q147 0 96.5 43.5zm-159 535Q-92 606-92 650t29.5 71T14 748q46 0 75-27t29-71-29-71.5T14 551q-47 0-76.5 27.5zm261.5 0Q170 606 170 650t29 71 76 27 75.5-27 28.5-71-29-71.5-75-27.5q-47 0-76 27.5z"/><glyph glyph-name="iotadieresistonos" unicode="ΐ" horiz-adv-x="329" d="M96.5 43.5Q46 87 46 161v345h194V197q0-14 7.5-20.5T271 170h53V0h-89Q147 0 96.5 43.5zM244 816l-20-262H52l20 262h172zm-379-237.5q-28 27.5-28 71.5t28 71 73 27q44 0 71.5-27T37 650 9.5 578.5-62 551q-45 0-73 27.5zm414.5 0Q252 606 252 650t27.5 71 72.5 27q44 0 71.5-27t27.5-71-27.5-71.5T352 551q-45 0-72.5 27.5z"/><glyph glyph-name="upsilontonos" unicode="ύ" horiz-adv-x="704" d="M134 58q-80 71-80 196v252h194V252q0-93 107-93 50 0 75.5 23.5T456 252v254h194V254q0-127-77.5-197T355-13q-141 0-221 71zm325 758l-20-262H267l20 262h172z"/><glyph glyph-name="upsilondieresis" unicode="ϋ" horiz-adv-x="704" d="M134 58q-80 71-80 196v252h194V252q0-93 107-93 50 0 75.5 23.5T456 252v254h194V254q0-127-77.5-197T355-13q-141 0-221 71zm15.5 520.5Q120 606 120 650t29.5 71 76.5 27q46 0 75-27t29-71-29-71.5-75-27.5q-47 0-76.5 27.5zm261.5 0Q382 606 382 650t29 71 76 27 75.5-27 28.5-71-29-71.5-75-27.5q-47 0-76 27.5z"/><glyph glyph-name="upsilondieresistonos" unicode="ΰ" horiz-adv-x="704" d="M134 58q-80 71-80 196v252h194V252q0-93 107-93 50 0 75.5 23.5T456 252v254h194V254q0-127-77.5-197T355-13q-141 0-221 71zm322 758l-20-262H264l20 262h172zM77 578.5Q49 606 49 650t28 71 73 27q44 0 71.5-27t27.5-71-27.5-71.5T150 551q-45 0-73 27.5zm414.5 0Q464 606 464 650t27.5 71 72.5 27q44 0 71.5-27t27.5-71-27.5-71.5T564 551q-45 0-72.5 27.5z"/><glyph glyph-name="omicrontonos" unicode="ό" horiz-adv-x="685" d="M175 18.5Q104 50 66.5 109T29 247v9q0 81 37.5 140T175 487t169 32q148 0 230-70t82-193v-9q0-121-82-190.5T344-13q-98 0-169 31.5zm252 166q29 21.5 29 64.5v4q0 45-29 67.5T343 343q-56 0-85-22.5T229 253v-4q0-43 29.5-64.5T343 163t84 21.5zM446 816l-20-262H254l20 262h172z"/><glyph glyph-name="omegatonos" unicode="ώ" horiz-adv-x="968" d="M857.5 439Q939 372 939 247v-9q0-74-34-131t-95.5-88.5T668-13q-60 0-106.5 18T484 58q-31-35-77.5-53T300-13q-80 0-141.5 31.5T63 107 29 238v9q0 125 81.5 192T337 506h30V336h-40q-49 0-76-21t-27-64v-7q0-39 26.5-61.5T322 160q41 0 65 22v185h194V182q24-22 65-22 45 0 71.5 22.5T744 244v7q0 43-27 64t-76 21h-40v170h30q145 0 226.5-67zM587 816l-20-262H395l20 262h172z"/><glyph glyph-name="alphatonos" unicode="ά" horiz-adv-x="737" d="M727 170V0H618q-87 0-128 52-70-65-179-65-85 0-148.5 32.5T64 112 29 251v6q0 79 35 138t98.5 91.5T311 519q92 0 159-50l4 37h180V194q0-13 6.5-18.5T683 170h44zm-467 17q31-23 88-23 35 0 64.5 9.5T460 199v110q-17 16-46.5 24.5T348 342q-57 0-88-22t-31-63v-6q0-41 31-64zm211 629l-20-262H279l20 262h172z"/><glyph glyph-name="epsilontonos" unicode="έ" horiz-adv-x="684" d="M461 302v3q0 29-10 44t-33 21.5-66 6.5q-102 0-102-31v-8q0-13 11.5-18.5T299 314h124V194H289q-26 0-37.5-5.5T240 170v-8q0-16 27.5-25t74.5-9q56 0 82 10.5t31.5 24.5 5.5 38v3h189v-3q0-112-74.5-163T338-13q-151 0-227 38T35 138v10q0 74 65 109-49 34-49 96v10q0 76 75 116t217 40q152 0 229.5-54T650 305v-3H461zm-15 514l-20-262H254l20 262h172z"/><glyph glyph-name="etatonos" unicode="ή" horiz-adv-x="733" d="M679 241v-411H485v411q0 49-26 75t-74 26q-36 0-64-15t-44-41L276 0H83v308q0 13-6.5 18.5T54 332H10v174h109q80 0 121-44 69 57 183 57 256 0 256-278zM483 816l-20-262H291l20 262h172z"/><glyph glyph-name="zeta.ss09" horiz-adv-x="599" d="M244.5 280Q225 258 225 231v-10q0-51 80-51h126q85 0 126.5-43T599-5v-138H400v107q0 36-32 36h-64Q161 0 92.5 48.5T24 200v15q0 47 17 85t56.5 75.5T208 459l103 67H37v170h562V531L326 344q-62-42-81.5-64z"/><glyph glyph-name="xi.ss09" horiz-adv-x="663" d="M464 472v2q0 28-29 43.5T355 533q-49 0-77.5-14.5T249 478v-7q0-25 18-38.5t52-13.5h178V264H293q-64 0-64-41v-8q0-24 25.5-34.5T339 170h143q172 0 172-165v-148H455v107q0 36-36 36h-80Q194 0 111.5 52T29 195v15q0 95 84 139-65 44-65 132v19q0 62 38 109.5T192.5 683 350 709q93 0 164-29.5T624 597t39-123v-2H464z"/><glyph glyph-name="uni03C2.ss09" horiz-adv-x="665" d="M399 0h-60Q187 0 108 62.5T29 244v18q0 78 37.5 136t107 89.5T336 519q91 0 161-30t108.5-84T644 280v-6H445v6q0 29-28.5 46T339 343q-56 0-82.5-20T230 262v-18q0-39 25.5-56.5T339 170h123q172 0 172-165v-148H435v107q0 36-36 36z"/><glyph glyph-name="zero" unicode="0" horiz-adv-x="817" d="M212 27Q126 67 78.5 139T31 305v45q0 94 47.5 166.5T212 629t198 40 197-40 132-112 47-167v-45q0-95-46.5-167t-132-111.5T410-13 212 27zm331 178q42 31 42 97v50q0 130-176 130-88 0-132.5-33T232 352v-50q0-65 44-96.5T410 174q91 0 133 31z"/><glyph glyph-name="one" unicode="1" horiz-adv-x="519" d="M426 0H225v425q-37-12-81-12H51v187h93q43 0 62 13t19 43h201V0z"/><glyph glyph-name="two" unicode="2" horiz-adv-x="755" d="M710 157V0H60v153l344 190q56 31 75.5 50t19.5 41v8q0 31-30 47t-87 16q-64 0-97.5-22.5T251 417v-20H58v21q0 251 321 251 153 0 238-56.5T702 455v-10q0-63-46-118.5T509 216l-108-59h309z"/><glyph glyph-name="three" unicode="3" horiz-adv-x="790" d="M699 324q50-47 50-120v-10q0-103-88.5-155T397-13q-177 1-263.5 58T47 219v3h197v-3q0-34 37.5-49T399 155q77 0 112.5 11.5T547 204v10q0 22-36 32.5T395 257H259v130l171 99H61v170h668V486l-178-97q98-18 148-65z"/><glyph glyph-name="four" unicode="4" horiz-adv-x="898" d="M841 116H720V0H519v116H54v180q59 96 95 181.5T206 656h213v-30q-41-164-130-330h230v249h201V296h121V116z"/><glyph glyph-name="five" unicode="5" horiz-adv-x="801" d="M675.5 383.5Q760 328 760 223v-10q0-114-87-170T408-13 144 41 58 206v5h197v-5q0-51 155-51 77 0 112.5 14t35.5 44v10q0 26-39 40t-113 14q-71 0-107-7t-44-22H59l20 408h638V476H243l-4-76q70 39 194 39 158 0 242.5-55.5z"/><glyph glyph-name="six" unicode="6" horiz-adv-x="786" d="M675.5 369Q761 316 761 216v-5q0-109-93-166.5T400-13q-115 0-198 32.5t-127 94T31 259v123q0 137 98.5 212T406 669q166 0 255.5-59.5T751 440v-3H556v3q0 29-41 45.5T404 502q-83 0-127.5-30.5T232 385v-6q70 43 197 43 161 0 246.5-53zM560 213q0 30-35 43t-116 13q-124 0-175-34 17-81 175-81 78 0 114.5 14t36.5 44v1z"/><glyph glyph-name="seven" unicode="7" horiz-adv-x="757" d="M709 656V476Q582 349 511.5 231T441 25V0H208v25q0 92 67.5 208.5T470 476H41v180h668z"/><glyph glyph-name="eight" unicode="8" horiz-adv-x="853" d="M802 217v-10q0-110-94-165T427-13Q51-13 51 207v10q0 90 93 135-63 46-63 117v10q0 90 91 140t255 50q163 0 254-50t91-140v-10q0-71-63-117 93-45 93-135zM270 456q0-20 13.5-30t46.5-14 97-4 96.5 4 46 14 13.5 30v3q0 20-14 30.5t-47 15-95 4.5-95.5-4.5-47.5-15-14-30.5v-3zm331-253q0 18-15.5 28t-52 14-106.5 4-107-4-52.5-14-15.5-28v-3q0-20 15.5-31t52.5-15.5 107-4.5 106.5 4.5 52 15.5 15.5 31v3z"/><glyph glyph-name="nine" unicode="9" horiz-adv-x="786" d="M584 637.5q83-32.5 127-94T755 398V275q0-137-98.5-212T380-12q-166 0-255.5 59.5T35 217v3h195v-3q0-29 41-45.5T382 155q83 0 127.5 30.5T554 272v6q-70-43-197-43-161 0-246.5 53T25 441v5q0 109 93 166.5T386 670q115 0 198-32.5zM261 401q35-13 116-13 124 0 175 34-16 81-175 81-78 0-114.5-14T226 445v-1q0-30 35-43z"/><glyph glyph-name="uni24FF" unicode="⓿" horiz-adv-x="853" d="M231.5 171Q160 227 160 324v10q0 99 71.5 155T428 545t195.5-55.5T694 334v-10q0-98-70.5-153.5T428 115t-196.5 56zm273 102.5Q531 292 531 327v5q0 73-104 73t-104-73v-5q0-35 26.5-53.5T427 255t77.5 18.5zM647 28.5q94 41.5 145 118T843 325v5q0 102-51 179T647 627.5 428 669t-220-42T61.5 508.5 10 330v-5q0-102 51.5-178.5T208 28.5 428-13t219 41.5z"/><glyph glyph-name="uni2776" unicode="❶" horiz-adv-x="853" d="M366 254v121q-16-4-40-4H208v133h114q26 0 35 6.5t9 24.5h165V254h134V122H208v132h158zM647 28.5q94 41.5 145 118T843 325v5q0 102-51 179T647 627.5 428 669t-220-42T61.5 508.5 10 330v-5q0-102 51.5-178.5T208 28.5 428-13t219 41.5z"/><glyph glyph-name="uni2777" unicode="❷" horiz-adv-x="853" d="M451 347q32 14 41.5 20.5T502 382v4q0 13-16.5 18.5T431 410q-37 0-58-10.5T352 371v-9H192v9q0 88 58.5 131T428 545q112 0 175-37t63-103v-10q0-44-28-73t-96-57l-51-21h178V122H195v116zM647 28.5q94 41.5 145 118T843 325v5q0 102-51 179T647 627.5 428 669t-220-42T61.5 508.5 10 330v-5q0-102 51.5-178.5T208 28.5 428-13t219 41.5z"/><glyph glyph-name="uni2778" unicode="❸" horiz-adv-x="853" d="M240 152.5Q178 191 178 270v3h161v-3q0-14 20.5-20t68.5-6q90 0 90 22v4q0 11-19 14.5t-72 3.5H326v86l94 36H188v126h480V410l-114-39 14-3q56-12 85-41t29-72v-6q0-67-64-101.5T429 113q-127 1-189 39.5zm407-124q94 41.5 145 118T843 325v5q0 102-51 179T647 627.5 428 669t-220-42T61.5 508.5 10 330v-5q0-102 51.5-178.5T208 28.5 428-13t219 41.5z"/><glyph glyph-name="uni2779" unicode="❹" horiz-adv-x="853" d="M168 183v132q60 102 80 221h173v-24q-28-122-64-197h96v153h169V315h69V183h-69v-61H453v61H168zM647 28.5q94 41.5 145 118T843 325v5q0 102-51 179T647 627.5 428 669t-220-42T61.5 508.5 10 330v-5q0-102 51.5-178.5T208 28.5 428-13t219 41.5z"/><glyph glyph-name="uni277A" unicode="❺" horiz-adv-x="853" d="M245 149q-60 36-60 115v3h158v-2q0-14 20-20t69-6q90 0 90 22v4q0 10-17 13.5t-74 4.5q-21 1-56-1-11-1-30-1H186l13 255h456V414H336l-2-39q51 19 128 19 105 0 164-34.5t59-96.5v-4q0-74-61.5-110T435 113q-130 0-190 36zM647 28.5q94 41.5 145 118T843 325v5q0 102-51 179T647 627.5 428 669t-220-42T61.5 508.5 10 330v-5q0-102 51.5-178.5T208 28.5 428-13t219 41.5z"/><glyph glyph-name="uni277B" unicode="❻" horiz-adv-x="853" d="M234.5 160.5Q163 208 163 293v63q0 91 71 140t202 49q119 0 183-40t64-114v-3H523v3q0 30-88 30-109 0-109-49v-7q54 18 129 18 112 0 173.5-31.5T690 262v-4q0-71-66-108t-190-37q-128 0-199.5 47.5zm268.5 76q22 6.5 22 19.5v4q0 12-18 17t-62 5q-83 0-119-17v-3q0-32 108-32 47 0 69 6.5zm144-208q94 41.5 145 118T843 325v5q0 102-51 179T647 627.5 428 669t-220-42T61.5 508.5 10 330v-5q0-102 51.5-178.5T208 28.5 428-13t219 41.5z"/><glyph glyph-name="uni277C" unicode="❼" horiz-adv-x="853" d="M344 265.5Q390 335 473 403H185v132h483V403q-88-72-137-141t-49-120v-20H298v20q0 54 46 123.5zm303-237q94 41.5 145 118T843 325v5q0 102-51 179T647 627.5 428 669t-220-42T61.5 508.5 10 330v-5q0-102 51.5-178.5T208 28.5 428-13t219 41.5z"/><glyph glyph-name="uni277D" unicode="❽" horiz-adv-x="853" d="M233.5 147.5Q168 182 168 249v12q0 54 52 82-31 28-31 64v12q0 37 30 65.5t84 44.5 124 16 124-16 84-44.5 30-65.5v-12q0-36-31-64 52-28 52-82v-12q0-67-65.5-101.5T427 113t-193.5 34.5zm260 236Q513 389 513 402v4q0 13-20 18.5t-66 5.5-66-5.5-20-18.5v-4q0-13 20.5-18.5T428 378t65.5 5.5zM501 236q21 5 21 18v4q0 13-22.5 18.5T427 282t-72.5-5.5T332 258v-4q0-13 21-18t74-5 74 5zM647 28.5q94 41.5 145 118T843 325v5q0 102-51 179T647 627.5 428 669t-220-42T61.5 508.5 10 330v-5q0-102 51.5-178.5T208 28.5 428-13t219 41.5z"/><glyph glyph-name="uni277E" unicode="❾" horiz-adv-x="853" d="M206 627.5q-94-41.5-145-118T10 331v-5q0-102 51-179T206 28.5 425-13t220 42 146.5 118.5T843 326v5q0 102-51.5 178.5T645 627.5 425 669t-219-41.5zM234 152q-64 40-64 114v3h160v-3q0-30 88-30 109 0 109 49v7q-54-18-129-18-112 0-173.5 31.5T163 395v4q0 71 66 108t190 37q128 0 199.5-47.5T690 364v-63q0-91-71-140t-202-49q-119 0-183 40zm293 240v3q0 32-108 32-47 0-69-6t-22-20v-4q0-12 18-17t62-5q83 0 119 17z"/><glyph glyph-name="uni24EA" unicode="⓪" horiz-adv-x="853" d="M208 28.5Q113 70 61.5 146.5T10 325v5q0 102 51.5 178.5T208 627t220 42 219-41.5T792 509t51-179v-5q0-102-51-178.5t-145-118T428-13 208 28.5zm448 118Q737 210 737 325v5q0 116-81 179.5T428 573t-229.5-64T116 330v-5q0-114 82.5-178T428 83t228 63.5zm-395.5 46Q200 240 200 323v8q0 85 60 132.5T427 511q106 0 166-47.5T653 331v-8q0-84-59.5-131T427 145q-106 0-166.5 47.5zm232 87Q515 295 515 325v5q0 62-89 62-88 0-88-62v-5q0-30 22.5-45.5T426 264q44 0 66.5 15.5z"/><glyph glyph-name="uni2460" unicode="①" horiz-adv-x="853" d="M208 28.5Q113 70 61.5 146.5T10 325v5q0 102 51.5 178.5T208 627t220 42 219-41.5T792 509t51-179v-5q0-102-51-178.5t-145-118T428-13 208 28.5zm448 118Q737 210 737 325v5q0 116-81 179.5T428 573t-229.5-64T116 330v-5q0-114 82.5-178T428 83t228 63.5zM376 265v103q-10-3-34-3H242v113h97q22 0 29.5 5.5T376 504h141V265h113V153H242v112h134z"/><glyph glyph-name="uni2461" unicode="②" horiz-adv-x="853" d="M208 28.5Q113 70 61.5 146.5T10 325v5q0 102 51.5 178.5T208 627t220 42 219-41.5T792 509t51-179v-5q0-102-51-178.5t-145-118T428-13 208 28.5zm448 118Q737 210 737 325v5q0 116-81 179.5T428 573t-229.5-64T116 330v-5q0-114 82.5-178T428 83t228 63.5zM444 343q26 11 34.5 17t8.5 13v3q0 11-14 16t-46 5q-31 0-49-9t-18-24v-8H224v8q0 148 200 148 96 0 149-31.5t53-87.5v-9q0-37-23.5-62T521 274l-43-18h151V152H226v99z"/><glyph glyph-name="uni2462" unicode="③" horiz-adv-x="853" d="M208 28.5Q113 70 61.5 146.5T10 325v5q0 102 51.5 178.5T208 627t220 42 219-41.5T792 509t51-179v-5q0-102-51-178.5t-145-118T428-13 208 28.5zm448 118Q737 210 737 325v5q0 116-81 179.5T428 573t-229.5-64T116 330v-5q0-114 82.5-178T428 83t228 63.5zM272.5 178Q220 211 220 278v2h137v-2q0-12 17.5-17t57.5-5q77 0 77 18v4q0 9-16 12t-62 3h-86v73l80 31H228v107h408V397l-97-33 12-3q48-10 72.5-34.5T648 265v-5q0-116-215-116-108 1-160.5 34z"/><glyph glyph-name="uni2463" unicode="④" horiz-adv-x="853" d="M208 28.5Q113 70 61.5 146.5T10 325v5q0 102 51.5 178.5T208 627t220 42 219-41.5T792 509t51-179v-5q0-102-51-178.5t-145-118T428-13 208 28.5zm448 118Q737 210 737 325v5q0 116-81 179.5T428 573t-229.5-64T116 330v-5q0-114 82.5-178T428 83t228 63.5zM204 204v112q51 85 68 188h147v-20q-22-101-54-168h81v130h144V316h59V204h-59v-52H446v52H204z"/><glyph glyph-name="uni2464" unicode="⑤" horiz-adv-x="853" d="M208 28.5Q113 70 61.5 146.5T10 325v5q0 102 51.5 178.5T208 627t220 42 219-41.5T792 509t51-179v-5q0-102-51-178.5t-145-118T428-13 208 28.5zm448 118Q737 210 737 325v5q0 116-81 179.5T428 573t-229.5-64T116 330v-5q0-114 82.5-178T428 83t228 63.5zM265 175q-51 31-51 98v2h134v-1q0-13 17-18t59-5q76 0 76 19v4q0 8-14 10.5t-63 4.5q-19 1-48-1-10-1-25-1H214l12 217h387V400H342l-2-33q44 16 109 16 89 0 139.5-29.5T639 272v-4q0-63-52-93.5T426 144q-110 0-161 31z"/><glyph glyph-name="uni2465" unicode="⑥" horiz-adv-x="853" d="M208 28.5Q113 70 61.5 146.5T10 325v5q0 102 51.5 178.5T208 627t220 42 219-41.5T792 509t51-179v-5q0-102-51-178.5t-145-118T428-13 208 28.5zm448 118Q737 210 737 325v5q0 116-81 179.5T428 573t-229.5-64T116 330v-5q0-114 82.5-178T428 83t228 63.5zM263.5 184Q203 224 203 297v54q0 77 60.5 119T435 512q101 0 155.5-34t54.5-97v-3H509v3q0 25-75 25-93 0-93-41v-6q47 15 110 15 95 0 147.5-27t52.5-76v-3q0-60-56-92t-162-32q-109 0-169.5 40zm228 65.5Q510 255 510 266v3q0 10-15 14.5t-53 4.5q-70 0-101-14v-3q0-27 92-27 40 0 58.5 5.5z"/><glyph glyph-name="uni2466" unicode="⑦" horiz-adv-x="853" d="M208 28.5Q113 70 61.5 146.5T10 325v5q0 102 51.5 178.5T208 627t220 42 219-41.5T792 509t51-179v-5q0-102-51-178.5t-145-118T428-13 208 28.5zm448 118Q737 210 737 325v5q0 116-81 179.5T428 573t-229.5-64T116 330v-5q0-114 82.5-178T428 83t228 63.5zm-300 128Q395 334 466 391H221v112h410V391q-75-62-116.5-120.5T473 169v-17H317v17q0 46 39 105.5z"/><glyph glyph-name="uni2467" unicode="⑧" horiz-adv-x="853" d="M208 28.5Q113 70 61.5 146.5T10 325v5q0 102 51.5 178.5T208 627t220 42 219-41.5T792 509t51-179v-5q0-102-51-178.5t-145-118T428-13 208 28.5zm448 118Q737 210 737 325v5q0 116-81 179.5T428 573t-229.5-64T116 330v-5q0-114 82.5-178T428 83t228 63.5zM261.5 173Q206 202 206 260v10q0 46 45 70-27 24-27 54v10q0 48 56.5 78T426 512q90 0 146.5-30t56.5-78v-10q0-30-27-54 45-24 45-70v-10q0-116-221-116-109 0-164.5 29zM483 374.5q17 4.5 17 15.5v3q0 11-17.5 16t-56.5 5q-38 0-55.5-5T353 393v-3q0-11 17.5-15.5T427 370t56 4.5zm6-125.5q18 4 18 15v4q0 11-19 15.5t-62 4.5q-42 0-61-4.5T346 268v-4q0-11 18-15t62-4q45 0 63 4z"/><glyph glyph-name="uni2468" unicode="⑨" horiz-adv-x="853" d="M206 28.5Q112 70 61 147T10 326v5q0 102 51 178.5t145 118T425 669t220-41.5 146.5-118T843 331v-5q0-102-51.5-178.5T645 29 425-13 206 28.5zM654.5 147Q737 211 737 326v5q0 114-82.5 178T425 573t-228-63.5T116 331v-5q0-116 81-179.5T425 83t229.5 64zm-392 31Q208 212 208 275v3h136v-3q0-25 75-25 93 0 93 41v6q-46-15-110-15-95 0-147.5 27T202 385v3q0 60 56 92t162 32q109 0 169.5-40T650 359v-54q0-77-60.5-119T418 144q-101 0-155.5 34zM512 382v3q0 27-92 27-40 0-58.5-5.5T343 390v-3q0-10 15-14.5t53-4.5q70 0 101 14z"/><glyph glyph-name="three.ss10" horiz-adv-x="793" d="M752 205v-10q0-100-94.5-154T389-13q-182 0-271 59T29 226v3h196v-3q0-38 41-54.5T398 155q72 0 112 13t40 37v10q0 15-11.5 22.5t-40 10.5-87.5 3H285v160h127q51 0 78.5 3.5t39 12.5 11.5 26v10q0 18-12.5 27.5t-44.5 13-95 3.5-95.5-4.5-46-15.5-13.5-33v-3H41v3q0 110 86 162.5T393 669q172 0 259.5-50T740 471v-10q0-83-76-127 88-48 88-129z"/><glyph glyph-name="uni2778.ss10" horiz-adv-x="853" d="M224 149.5Q162 186 162 265v3h161v-3q0-16 23-24.5t66-8.5q90 0 90 22v4q0 11-19 14.5t-72 3.5h-58v107h58q53 0 72 3.5t19 14.5v4q0 22-90 22-38 0-59-8.5T332 394v-3H169v3q0 74 65.5 112.5T425 545q250 0 250-129v-8q0-46-38-78 46-28 46-72v-8q0-66-68-101.5T422 113q-136 0-198 36.5zm423-121q94 41.5 145 118T843 325v5q0 102-51 179T647 627.5 428 669t-220-42T61.5 508.5 10 330v-5q0-102 51.5-178.5T208 28.5 428-13t219 41.5z"/><glyph glyph-name="uni2462.ss10" horiz-adv-x="853" d="M208 28.5Q113 70 61.5 146.5T10 325v5q0 102 51.5 178.5T208 627t220 42 219-41.5T792 509t51-179v-5q0-102-51-178.5t-145-118T428-13 208 28.5zm448 118Q737 210 737 325v5q0 116-81 179.5T428 573t-229.5-64T116 330v-5q0-114 82.5-178T428 83t228 63.5zM257.5 175Q205 206 205 274v2h137v-2q0-14 19.5-21t56.5-7q40 0 58 4t18 14v4q0 9-16 12t-61 3h-50v91h50q45 0 61 3t16 12v4q0 18-76 18-33 0-50.5-7T350 383v-2H211v2q0 63 56 96t162 33q212 0 212-110v-7q0-39-32-66 39-24 39-61v-7q0-56-57.5-86.5T426 144q-116 0-168.5 31z"/><glyph glyph-name="zero.tf" horiz-adv-x="816" d="M212 28Q126 69 78.5 143.5T31 315v26q0 98 47 172.5T211 629t199 41q112 0 197-40.5t131.5-115T785 341v-26q0-99-46-173T608 27.5 410-13q-112 0-198 41zm330.5 179Q584 240 584 312v31q0 71-43 105.5T409 483t-133-34.5T232 343v-31q0-71 43-104.5T410 174q91 0 132.5 33z"/><glyph glyph-name="one.tf" horiz-adv-x="816" d="M790 181V1H114v180h255v246q-41-13-81-13l-174-1v187l174 1q43 0 62 13t19 43h202V181h219z"/><glyph glyph-name="two.tf" horiz-adv-x="816" d="M756 157V0H75v153l358 188q67 35 89 53.5t22 40.5v8q0 31-34 47t-98 16q-70 0-107-22.5T268 418v-20H74v21q0 125 84.5 188T409 670q159 0 248-56.5T746 456v-10q0-65-50-120.5T537 215l-114-58h333z"/><glyph glyph-name="three.tf" horiz-adv-x="816" d="M716.5 324.5Q768 277 768 204v-10q0-103-90.5-155T409-13q-179 1-267.5 58T53 219v3h197v-3q0-32 37.5-48T411 155t120.5 12.5T566 204v10q0 21-35 32.5T408 258H270v130l178 99H67v170h681V487l-182-97q99-18 150.5-65.5z"/><glyph glyph-name="four.tf" horiz-adv-x="816" d="M779 116H670V0H471v116H33v180q54 96 87.5 182.5T172 657h211v-30q-37-163-118-331h206v250h199V296h109V116z"/><glyph glyph-name="five.tf" horiz-adv-x="816" d="M685.5 384Q771 328 771 223v-10q0-115-88-170.5T416-13 149.5 41 62 208v3h197v-3q0-27 40-40t119-13q83 0 117.5 15t34.5 43v10q0 26-40.5 40.5T414 278q-79 0-113.5-8T259 248H63l20 409h645V477H248l-4-76q72 39 196 39 160 0 245.5-56z"/><glyph glyph-name="six.tf" horiz-adv-x="816" d="M696.5 370.5Q784 318 784 219v-10q0-108-95-165T416-13q-117 0-202 32.5t-130 94T39 259v124q0 137 100.5 212T422 670q168 0 260-59.5T774 441v-3H579v3q0 29-43 45.5T420 503q-87 0-133.5-30.5T240 386v-8q75 45 205 45 164 0 251.5-52.5zM583 218q0 29-36 40.5T425 270q-130 0-183-36 18-80 183-80 86 0 122 13t36 41v10z"/><glyph glyph-name="seven.tf" horiz-adv-x="816" d="M752 656V476Q616 357 541 238.5T466 25V0H235v25q0 99 72 215.5T513 476H55v180h697z"/><glyph glyph-name="eight.tf" horiz-adv-x="816" d="M775 212v-10q0-109-90.5-162T409-13q-186 0-276.5 53T42 202v10q0 92 93 139-64 46-64 119v10q0 90 89 140t249 50q159 0 247.5-50T745 480v-10q0-73-63-119 93-47 93-139zM259 457q0-20 12.5-30t44-14 93.5-4q61 0 92 4t44 14.5 13 29.5v3q0 20-13 30.5t-45 15-91 4.5-91-4.5-45.5-15T259 460v-3zm316-254q0 18-14.5 28t-50 14-101.5 4q-67 0-102-4t-50-14-15-28v-3q0-20 15-31t50-15.5 102-4.5 102 4.5 49.5 15.5 14.5 31v3z"/><glyph glyph-name="nine.tf" horiz-adv-x="816" d="M602 636.5Q687 604 732 543t45-145V274q0-137-100.5-212T394-13q-168 0-260 59.5T42 216v3h195v-3q0-29 43-45.5T396 154q87 0 133.5 30.5T576 271v8q-75-45-205-45-164 0-251.5 52.5T32 438v10q0 108 94.5 164.5T400 669q117 0 202-32.5zm-333-238Q305 387 391 387q130 0 183 36-9 40-54 59.5T391 502q-86 0-122-12.5T233 449v-10q0-29 36-40.5z"/><glyph glyph-name="three.tf.ss10" horiz-adv-x="816" d="M746 277.5q23-32.5 23-72.5v-10q0-100-96-154T401-13q-184 0-275 60T35 228v1h196v-1q0-36 40-54.5T410 155q74 0 116 13.5t42 37.5v8q0 15-10 22.5t-40.5 11T424 251H294v161h130q72 0 103 8t31 35v8q0 17-11.5 26.5t-44.5 14-101 4.5-103-6-46.5-17.5T240 453v-1l-193 1v1q0 103 82 159.5T405 670q174 0 263-50t89-148v-10q0-83-77-128 43-24 66-56.5z"/><glyph glyph-name="zero.tf.zero" horiz-adv-x="816" d="M606 629q85-40 132-112t47-167v-45q0-95-46.5-167t-132-111.5T409-13 211 27 77.5 139 30 305v45q0 94 47.5 166.5T211 629t198 40 197-40zm-65.5-161.5Q497 502 408 502q-42 0-71-7l247-198v65q0 71-43.5 105.5zM274 187.5Q317 154 409 154q41 0 71 6L231 360v-68q0-71 43-104.5z"/><glyph glyph-name="zero.zero" horiz-adv-x="817" d="M607 629q85-40 132-112t47-167v-45q0-95-46.5-167t-132-111.5T410-13 212 27 78.5 139 31 305v45q0 94 47.5 166.5T212 629t198 40 197-40zm-65.5-161.5Q498 502 409 502q-42 0-71-7l247-198v65q0 71-43.5 105.5zM275 187.5Q318 154 410 154q41 0 71 6L232 360v-68q0-71 43-104.5z"/><glyph glyph-name="uni2080" unicode="₀" d="M81.5-51Q10 5 10 102v10q0 99 71.5 155T278 323t195.5-55.5T544 112v-10q0-98-70.5-153.5T278-107 81.5-51zm273 102.5Q381 70 381 105v5q0 73-104 73t-104-73v-5q0-35 26.5-53.5T277 33t77.5 18.5z"/><glyph glyph-name="uni2081" unicode="₁" d="M238 33v121q-16-4-40-4H80v133h114q26 0 35 6.5t9 24.5h165V33h134V-99H80V33h158z"/><glyph glyph-name="uni2082" unicode="₂" d="M302 125q32 14 41.5 20.5T353 160v4q0 13-16.5 18.5T282 188q-37 0-58-10.5T203 149v-9H43v9q0 88 58.5 131T279 323q112 0 175-37t63-103v-10q0-44-28-73t-96-57l-51-21h178v-122H46V16z"/><glyph glyph-name="uni2083" unicode="₃" d="M91-69.5Q29-31 29 48v3h161v-3q0-14 20.5-20t68.5-6q90 0 90 22v4q0 11-19 14.5T278 66H177v86l94 36H39v126h480V188l-114-39 14-3q56-12 85-41t29-72v-6q0-67-64-101.5T280-109q-127 1-189 39.5z"/><glyph glyph-name="uni2084" unicode="₄" d="M19-39V93q60 102 80 221h173v-24q-28-122-64-197h96v153h169V93h69V-39h-69v-61H304v61H19z"/><glyph glyph-name="uni2085" unicode="₅" d="M96-73Q36-37 36 42v3h158v-2q0-14 20-20t69-6q90 0 90 22v4q0 10-17 13.5T282 61q-21 1-56-1-11-1-30-1H37l13 255h456V192H187l-2-39q51 19 128 19 105 0 164-34.5T536 41v-4q0-74-61.5-110T286-109q-130 0-190 36z"/><glyph glyph-name="uni2086" unicode="₆" d="M87.5-61.5Q16-14 16 71v63q0 91 71 140t202 49q119 0 183-40t64-114v-3H376v3q0 30-88 30-109 0-109-49v-7q54 18 129 18 112 0 173.5-31.5T543 40v-4q0-71-66-108t-190-37q-128 0-199.5 47.5zm268.5 76Q378 21 378 34v4q0 12-18 17t-62 5q-83 0-119-17v-3q0-32 108-32 47 0 69 6.5z"/><glyph glyph-name="uni2087" unicode="₇" d="M193 43.5Q239 113 322 181H34v132h483V181q-88-72-137-141T331-80v-20H147v20q0 54 46 123.5z"/><glyph glyph-name="uni2088" unicode="₈" d="M83.5-74.5Q18-40 18 27v12q0 54 52 82-31 28-31 64v12q0 37 30 65.5t84 44.5 124 16 124-16 84-44.5 30-65.5v-12q0-36-31-64 52-28 52-82V27q0-67-65.5-101.5T277-109 83.5-74.5zm260 236Q363 167 363 180v4q0 13-20 18.5t-66 5.5-66-5.5-20-18.5v-4q0-13 20.5-18.5T278 156t65.5 5.5zM351 14q21 5 21 18v4q0 13-22.5 18.5T277 60t-72.5-5.5T182 36v-4q0-13 21-18t74-5 74 5z"/><glyph glyph-name="uni2089" unicode="₉" d="M82-70Q18-30 18 44v3h160v-3q0-30 88-30 109 0 109 49v7q-54-18-129-18-112 0-173.5 31.5T11 173v4q0 71 66 108t190 37q128 0 199.5-47.5T538 142V79q0-91-71-140t-202-49q-119 0-183 40zm293 240v3q0 32-108 32-47 0-69-6t-22-20v-4q0-12 18-17t62-5q83 0 119 17z"/><glyph glyph-name="zero.dnom" d="M81.5 49Q10 105 10 202v10q0 99 71.5 155T278 423t195.5-55.5T544 212v-10q0-98-70.5-153.5T278-7 81.5 49zm273 102.5Q381 170 381 205v5q0 73-104 73t-104-73v-5q0-35 26.5-53.5T277 133t77.5 18.5z"/><glyph glyph-name="one.dnom" d="M238 133v121q-16-4-40-4H80v133h114q26 0 35 6.5t9 24.5h165V133h134V1H80v132h158z"/><glyph glyph-name="two.dnom" d="M302 225q32 14 41.5 20.5T353 260v4q0 13-16.5 18.5T282 288q-37 0-58-10.5T203 249v-9H43v9q0 88 58.5 131T279 423q112 0 175-37t63-103v-10q0-44-28-73t-96-57l-51-21h178V0H46v116z"/><glyph glyph-name="three.dnom" d="M91 30.5Q29 69 29 148v3h161v-3q0-14 20.5-20t68.5-6q90 0 90 22v4q0 11-19 14.5t-72 3.5H177v86l94 36H39v126h480V288l-114-39 14-3q56-12 85-41t29-72v-6q0-67-64-101.5T280-9Q153-8 91 30.5z"/><glyph glyph-name="four.dnom" d="M19 61v132q60 102 80 221h173v-24q-28-122-64-197h96v153h169V193h69V61h-69V0H304v61H19z"/><glyph glyph-name="five.dnom" d="M96 27Q36 63 36 142v3h158v-2q0-14 20-20t69-6q90 0 90 22v4q0 10-17 13.5t-74 4.5q-21 1-56-1-11-1-30-1H37l13 255h456V292H187l-2-39q51 19 128 19 105 0 164-34.5t59-96.5v-4q0-74-61.5-110T286-9Q156-9 96 27z"/><glyph glyph-name="six.dnom" d="M87.5 38.5Q16 86 16 171v63q0 91 71 140t202 49q119 0 183-40t64-114v-3H376v3q0 30-88 30-109 0-109-49v-7q54 18 129 18 112 0 173.5-31.5T543 140v-4q0-71-66-108T287-9Q159-9 87.5 38.5zm268.5 76q22 6.5 22 19.5v4q0 12-18 17t-62 5q-83 0-119-17v-3q0-32 108-32 47 0 69 6.5z"/><glyph glyph-name="seven.dnom" d="M193 143.5Q239 213 322 281H34v132h483V281q-88-72-137-141T331 20V0H147v20q0 54 46 123.5z"/><glyph glyph-name="eight.dnom" d="M83.5 25.5Q18 60 18 127v12q0 54 52 82-31 28-31 64v12q0 37 30 65.5t84 44.5 124 16 124-16 84-44.5 30-65.5v-12q0-36-31-64 52-28 52-82v-12q0-67-65.5-101.5T277-9 83.5 25.5zm260 236Q363 267 363 280v4q0 13-20 18.5t-66 5.5-66-5.5-20-18.5v-4q0-13 20.5-18.5T278 256t65.5 5.5zM351 114q21 5 21 18v4q0 13-22.5 18.5T277 160t-72.5-5.5T182 136v-4q0-13 21-18t74-5 74 5z"/><glyph glyph-name="nine.dnom" d="M82 30Q18 70 18 144v3h160v-3q0-30 88-30 109 0 109 49v7q-54-18-129-18-112 0-173.5 31.5T11 273v4q0 71 66 108t190 37q128 0 199.5-47.5T538 242v-63q0-91-71-140T265-10Q146-10 82 30zm293 240v3q0 32-108 32-47 0-69-6t-22-20v-4q0-12 18-17t62-5q83 0 119 17z"/><glyph glyph-name="zero.numr" d="M81.5 292Q10 348 10 445v10q0 99 71.5 155T278 666t195.5-55.5T544 455v-10q0-98-70.5-153.5T278 236 81.5 292zm273 102.5Q381 413 381 448v5q0 73-104 73t-104-73v-5q0-35 26.5-53.5T277 376t77.5 18.5z"/><glyph glyph-name="one.numr" d="M238 376v121q-16-4-40-4H80v133h114q26 0 35 6.5t9 24.5h165V376h134V244H80v132h158z"/><glyph glyph-name="two.numr" d="M302 468q32 14 41.5 20.5T353 503v4q0 13-16.5 18.5T282 531q-37 0-58-10.5T203 492v-9H43v9q0 88 58.5 131T279 666q112 0 175-37t63-103v-10q0-44-28-73t-96-57l-51-21h178V243H46v116z"/><glyph glyph-name="three.numr" d="M91 273.5Q29 312 29 391v3h161v-3q0-14 20.5-20t68.5-6q90 0 90 22v4q0 11-19 14.5t-72 3.5H177v86l94 36H39v126h480V531l-114-39 14-3q56-12 85-41t29-72v-6q0-67-64-101.5T280 234q-127 1-189 39.5z"/><glyph glyph-name="four.numr" d="M19 304v132q60 102 80 221h173v-24q-28-122-64-197h96v153h169V436h69V304h-69v-61H304v61H19z"/><glyph glyph-name="five.numr" d="M96 270q-60 36-60 115v3h158v-2q0-14 20-20t69-6q90 0 90 22v4q0 10-17 13.5t-74 4.5q-21 1-56-1-11-1-30-1H37l13 255h456V535H187l-2-39q51 19 128 19 105 0 164-34.5t59-96.5v-4q0-74-61.5-110T286 234q-130 0-190 36z"/><glyph glyph-name="six.numr" d="M87.5 281.5Q16 329 16 414v63q0 91 71 140t202 49q119 0 183-40t64-114v-3H376v3q0 30-88 30-109 0-109-49v-7q54 18 129 18 112 0 173.5-31.5T543 383v-4q0-71-66-108t-190-37q-128 0-199.5 47.5zm268.5 76q22 6.5 22 19.5v4q0 12-18 17t-62 5q-83 0-119-17v-3q0-32 108-32 47 0 69 6.5z"/><glyph glyph-name="seven.numr" d="M193 386.5Q239 456 322 524H34v132h483V524q-88-72-137-141t-49-120v-20H147v20q0 54 46 123.5z"/><glyph glyph-name="eight.numr" d="M83.5 268.5Q18 303 18 370v12q0 54 52 82-31 28-31 64v12q0 37 30 65.5t84 44.5 124 16 124-16 84-44.5 30-65.5v-12q0-36-31-64 52-28 52-82v-12q0-67-65.5-101.5T277 234 83.5 268.5zm260 236Q363 510 363 523v4q0 13-20 18.5t-66 5.5-66-5.5-20-18.5v-4q0-13 20.5-18.5T278 499t65.5 5.5zM351 357q21 5 21 18v4q0 13-22.5 18.5T277 403t-72.5-5.5T182 379v-4q0-13 21-18t74-5 74 5z"/><glyph glyph-name="nine.numr" d="M82 273q-64 40-64 114v3h160v-3q0-30 88-30 109 0 109 49v7q-54-18-129-18-112 0-173.5 31.5T11 516v4q0 71 66 108t190 37q128 0 199.5-47.5T538 485v-63q0-91-71-140t-202-49q-119 0-183 40zm293 240v3q0 32-108 32-47 0-69-6t-22-20v-4q0-12 18-17t62-5q83 0 119 17z"/><glyph glyph-name="uni2070" unicode="⁰" d="M81.5 392Q10 448 10 545v10q0 99 71.5 155T278 766t195.5-55.5T544 555v-10q0-98-70.5-153.5T278 336 81.5 392zm273 102.5Q381 513 381 548v5q0 73-104 73t-104-73v-5q0-35 26.5-53.5T277 476t77.5 18.5z"/><glyph glyph-name="uni00B9" unicode="¹" d="M238 476v121q-16-4-40-4H80v133h114q26 0 35 6.5t9 24.5h165V476h134V344H80v132h158z"/><glyph glyph-name="uni00B2" unicode="²" d="M302 568q32 14 41.5 20.5T353 603v4q0 13-16.5 18.5T282 631q-37 0-58-10.5T203 592v-9H43v9q0 88 58.5 131T279 766q112 0 175-37t63-103v-10q0-44-28-73t-96-57l-51-21h178V343H46v116z"/><glyph glyph-name="uni00B3" unicode="³" d="M91 373.5Q29 412 29 491v3h161v-3q0-14 20.5-20t68.5-6q90 0 90 22v4q0 11-19 14.5t-72 3.5H177v86l94 36H39v126h480V631l-114-39 14-3q56-12 85-41t29-72v-6q0-67-64-101.5T280 334q-127 1-189 39.5z"/><glyph glyph-name="uni2074" unicode="⁴" d="M19 404v132q60 102 80 221h173v-24q-28-122-64-197h96v153h169V536h69V404h-69v-61H304v61H19z"/><glyph glyph-name="uni2075" unicode="⁵" d="M96 370q-60 36-60 115v3h158v-2q0-14 20-20t69-6q90 0 90 22v4q0 10-17 13.5t-74 4.5q-21 1-56-1-11-1-30-1H37l13 255h456V635H187l-2-39q51 19 128 19 105 0 164-34.5t59-96.5v-4q0-74-61.5-110T286 334q-130 0-190 36z"/><glyph glyph-name="uni2076" unicode="⁶" d="M87.5 381.5Q16 429 16 514v63q0 91 71 140t202 49q119 0 183-40t64-114v-3H376v3q0 30-88 30-109 0-109-49v-7q54 18 129 18 112 0 173.5-31.5T543 483v-4q0-71-66-108t-190-37q-128 0-199.5 47.5zm268.5 76q22 6.5 22 19.5v4q0 12-18 17t-62 5q-83 0-119-17v-3q0-32 108-32 47 0 69 6.5z"/><glyph glyph-name="uni2077" unicode="⁷" d="M193 486.5Q239 556 322 624H34v132h483V624q-88-72-137-141t-49-120v-20H147v20q0 54 46 123.5z"/><glyph glyph-name="uni2078" unicode="⁸" d="M83.5 368.5Q18 403 18 470v12q0 54 52 82-31 28-31 64v12q0 37 30 65.5t84 44.5 124 16 124-16 84-44.5 30-65.5v-12q0-36-31-64 52-28 52-82v-12q0-67-65.5-101.5T277 334 83.5 368.5zm260 236Q363 610 363 623v4q0 13-20 18.5t-66 5.5-66-5.5-20-18.5v-4q0-13 20.5-18.5T278 599t65.5 5.5zM351 457q21 5 21 18v4q0 13-22.5 18.5T277 503t-72.5-5.5T182 479v-4q0-13 21-18t74-5 74 5z"/><glyph glyph-name="uni2079" unicode="⁹" d="M82 373q-64 40-64 114v3h160v-3q0-30 88-30 109 0 109 49v7q-54-18-129-18-112 0-173.5 31.5T11 616v4q0 71 66 108t190 37q128 0 199.5-47.5T538 585v-63q0-91-71-140t-202-49q-119 0-183 40zm293 240v3q0 32-108 32-47 0-69-6t-22-20v-4q0-12 18-17t62-5q83 0 119 17z"/><glyph glyph-name="fraction" unicode="⁄" horiz-adv-x="369" d="M359 656h190v-30L10 0h-190v27z"/><glyph glyph-name="onehalf" unicode="½" horiz-adv-x="1418" d="M238 376v121q-16-4-40-4H80v133h114q26 0 35 6.5t9 24.5h165V376h134V244H80v132h158zm675 280h190v-30L564 0H374v27zm253-431q32 14 41.5 20.5t9.5 14.5v4q0 13-16.5 18.5T1146 288q-37 0-58-10.5t-21-28.5v-9H907v9q0 88 58.5 131t177.5 43q112 0 175-37t63-103v-10q0-44-28-73t-96-57l-51-21h178V0H910v116z"/><glyph glyph-name="onequarter" unicode="¼" horiz-adv-x="1408" d="M238 376v121q-16-4-40-4H80v133h114q26 0 35 6.5t9 24.5h165V376h134V244H80v132h158zm675 280h190v-30L564 0H374v27zM873 61v132q60 102 80 221h173v-24q-28-122-64-197h96v153h169V193h69V61h-69V0h-169v61H873z"/><glyph glyph-name="threequarters" unicode="¾" horiz-adv-x="1359" d="M91 273.5Q29 312 29 391v3h161v-3q0-14 20.5-20t68.5-6q90 0 90 22v4q0 11-19 14.5t-72 3.5H177v86l94 36H39v126h480V531l-114-39 14-3q56-12 85-41t29-72v-6q0-67-64-101.5T280 234q-127 1-189 39.5zM864 656h190v-30L515 0H325v27zM824 61v132q60 102 80 221h173v-24q-28-122-64-197h96v153h169V193h69V61h-69V0h-169v61H824z"/><glyph glyph-name="oneeighth" unicode="⅛" horiz-adv-x="1408" d="M238 376v121q-16-4-40-4H80v133h114q26 0 35 6.5t9 24.5h165V376h134V244H80v132h158zm675 280h190v-30L564 0H374v27zm24.5-630.5Q872 60 872 127v12q0 54 52 82-31 28-31 64v12q0 37 30 65.5t84 44.5 124 16 124-16 84-44.5 30-65.5v-12q0-36-31-64 52-28 52-82v-12q0-67-65.5-101.5T1131-9 937.5 25.5zm260 236Q1217 267 1217 280v4q0 13-20 18.5t-66 5.5-66-5.5-20-18.5v-4q0-13 20.5-18.5t66.5-5.5 65.5 5.5zM1205 114q21 5 21 18v4q0 13-22.5 18.5T1131 160t-72.5-5.5T1036 136v-4q0-13 21-18t74-5 74 5z"/><glyph glyph-name="threeeighths" unicode="⅜" horiz-adv-x="1359" d="M91 273.5Q29 312 29 391v3h161v-3q0-14 20.5-20t68.5-6q90 0 90 22v4q0 11-19 14.5t-72 3.5H177v86l94 36H39v126h480V531l-114-39 14-3q56-12 85-41t29-72v-6q0-67-64-101.5T280 234q-127 1-189 39.5zM864 656h190v-30L515 0H325v27zm24.5-630.5Q823 60 823 127v12q0 54 52 82-31 28-31 64v12q0 37 30 65.5t84 44.5 124 16 124-16 84-44.5 30-65.5v-12q0-36-31-64 52-28 52-82v-12q0-67-65.5-101.5T1082-9 888.5 25.5zm260 236Q1168 267 1168 280v4q0 13-20 18.5t-66 5.5-66-5.5-20-18.5v-4q0-13 20.5-18.5t66.5-5.5 65.5 5.5zM1156 114q21 5 21 18v4q0 13-22.5 18.5T1082 160t-72.5-5.5T987 136v-4q0-13 21-18t74-5 74 5z"/><glyph glyph-name="fiveeighths" unicode="⅝" horiz-adv-x="1359" d="M96 270q-60 36-60 115v3h158v-2q0-14 20-20t69-6q90 0 90 22v4q0 10-17 13.5t-74 4.5q-21 1-56-1-11-1-30-1H37l13 255h456V535H187l-2-39q51 19 128 19 105 0 164-34.5t59-96.5v-4q0-74-61.5-110T286 234q-130 0-190 36zm768 386h190v-30L515 0H325v27zm24.5-630.5Q823 60 823 127v12q0 54 52 82-31 28-31 64v12q0 37 30 65.5t84 44.5 124 16 124-16 84-44.5 30-65.5v-12q0-36-31-64 52-28 52-82v-12q0-67-65.5-101.5T1082-9 888.5 25.5zm260 236Q1168 267 1168 280v4q0 13-20 18.5t-66 5.5-66-5.5-20-18.5v-4q0-13 20.5-18.5t66.5-5.5 65.5 5.5zM1156 114q21 5 21 18v4q0 13-22.5 18.5T1082 160t-72.5-5.5T987 136v-4q0-13 21-18t74-5 74 5z"/><glyph glyph-name="seveneighths" unicode="⅞" horiz-adv-x="1309" d="M193 386.5Q239 456 322 524H34v132h483V524q-88-72-137-141t-49-120v-20H147v20q0 54 46 123.5zM814 656h190v-30L465 0H275v27zm24.5-630.5Q773 60 773 127v12q0 54 52 82-31 28-31 64v12q0 37 30 65.5t84 44.5 124 16 124-16 84-44.5 30-65.5v-12q0-36-31-64 52-28 52-82v-12q0-67-65.5-101.5T1032-9 838.5 25.5zm260 236Q1118 267 1118 280v4q0 13-20 18.5t-66 5.5-66-5.5-20-18.5v-4q0-13 20.5-18.5t66.5-5.5 65.5 5.5zM1106 114q21 5 21 18v4q0 13-22.5 18.5T1032 160t-72.5-5.5T937 136v-4q0-13 21-18t74-5 74 5z"/><glyph glyph-name="uni2083.ss10" d="M75-72.5Q13-36 13 43v3h161v-3q0-16 23-24.5t66-8.5q90 0 90 22v4q0 11-19 14.5T262 54h-58v107h58q53 0 72 3.5t19 14.5v4q0 22-90 22-38 0-59-8.5T183 172v-3H20v3q0 74 65.5 112.5T276 323q250 0 250-129v-8q0-46-38-78 46-28 46-72v-8q0-66-68-101.5T273-109q-136 0-198 36.5z"/><glyph glyph-name="three.dnom.ss10" d="M75 27.5Q13 64 13 143v3h161v-3q0-16 23-24.5t66-8.5q90 0 90 22v4q0 11-19 14.5t-72 3.5h-58v107h58q53 0 72 3.5t19 14.5v4q0 22-90 22-38 0-59-8.5T183 272v-3H20v3q0 74 65.5 112.5T276 423q250 0 250-129v-8q0-46-38-78 46-28 46-72v-8q0-66-68-101.5T273-9Q137-9 75 27.5z"/><glyph glyph-name="three.numr.ss10" d="M75 270.5Q13 307 13 386v3h161v-3q0-16 23-24.5t66-8.5q90 0 90 22v4q0 11-19 14.5t-72 3.5h-58v107h58q53 0 72 3.5t19 14.5v4q0 22-90 22-38 0-59-8.5T183 515v-3H20v3q0 74 65.5 112.5T276 666q250 0 250-129v-8q0-46-38-78 46-28 46-72v-8q0-66-68-101.5T273 234q-136 0-198 36.5z"/><glyph glyph-name="uni00B3.ss10" d="M75 370.5Q13 407 13 486v3h161v-3q0-16 23-24.5t66-8.5q90 0 90 22v4q0 11-19 14.5t-72 3.5h-58v107h58q53 0 72 3.5t19 14.5v4q0 22-90 22-38 0-59-8.5T183 615v-3H20v3q0 74 65.5 112.5T276 766q250 0 250-129v-8q0-46-38-78 46-28 46-72v-8q0-66-68-101.5T273 334q-136 0-198 36.5z"/><glyph glyph-name="period" unicode="." horiz-adv-x="334" d="M86 17Q55 47 55 96q0 48 31 78t81 30 81-30 31-78q0-49-31-79t-81-30-81 30z"/><glyph glyph-name="comma" unicode="," horiz-adv-x="334" d="M301 170v-27L195-143H21l69 313h211z"/><glyph glyph-name="colon" unicode=":" horiz-adv-x="374" d="M106 17Q75 47 75 96q0 48 31 78t81 30 81-30 31-78q0-49-31-79t-81-30-81 30zm0 287q-31 30-31 79 0 48 31 78t81 30 81-30 31-78q0-49-31-79t-81-30-81 30z"/><glyph glyph-name="semicolon" unicode=";" horiz-adv-x="374" d="M311 170v-27L205-143H31l69 313h211zM106 304q-31 30-31 79 0 48 31 78t81 30 81-30 31-78q0-49-31-79t-81-30-81 30z"/><glyph glyph-name="ellipsis" unicode="…" horiz-adv-x="906" d="M86 17Q55 47 55 96q0 48 31 78t81 30 81-30 31-78q0-49-31-79t-81-30-81 30zm286 0q-31 30-31 79 0 48 31 78t81 30 81-30 31-78q0-49-31-79t-81-30-81 30zm286 0q-31 30-31 79 0 48 31 78t81 30 81-30 31-78q0-49-31-79t-81-30-81 30z"/><glyph glyph-name="exclam" unicode="!" horiz-adv-x="352" d="M277 656l-10-413H86L75 656h202zM95 17Q64 47 64 96q0 48 31 78t81 30 81-30 31-78q0-49-31-79t-81-30-81 30z"/><glyph glyph-name="exclamdown" unicode="¡" horiz-adv-x="352" d="M95 332q-31 30-31 78 0 49 31 79t81 30 81-30 31-79q0-48-31-78t-81-30-81 30zm171-69l11-433H75l10 433h181z"/><glyph glyph-name="question" unicode="?" horiz-adv-x="632" d="M249 321.5q23 28.5 86 60.5 48 25 62.5 37.5T412 448v8q0 22-25 35t-68 13q-49 0-78-19.5T212 433v-19H27v19q0 72 35 125.5t100 82T316 669q82 0 148-25t103.5-69.5T605 474v-16q0-44-26.5-79.5T495 313q-35-18-56-30t-26.5-18.5T407 248v-5H226v5q0 45 23 73.5zM236 17q-31 30-31 79 0 48 31 78t81 30 81-30 31-78q0-49-31-79t-81-30-81 30z"/><glyph glyph-name="questiondown" unicode="¿" horiz-adv-x="632" d="M234 332q-31 30-31 78 0 49 31 79t81 30 81-30 31-79q0-48-31-78t-81-30-81 30zm-66-488.5q-66 26.5-103.5 73T27 22v16q0 47 26.5 85t83.5 70q35 18 56 30t26.5 18.5T225 258v5h181v-5q0-45-23-73.5T297 124q-46-28-61.5-43.5T220 48v-8q0-26 25-42t68-16q49 0 78 19.5T420 53v19h185V53q0-72-35-125.5t-100-82T316-183q-82 0-148 26.5z"/><glyph glyph-name="periodcentered" unicode="·" horiz-adv-x="334" d="M86 195q-31 30-31 79 0 48 31 78t81 30 81-30 31-78q0-49-31-79t-81-30-81 30z"/><glyph glyph-name="bullet" unicode="•" horiz-adv-x="497" d="M126.5 172Q79 218 79 291q0 72 47 117.5T248 454q76 0 123-45t47-118q0-74-47-119.5T248 126q-74 0-121.5 46z"/><glyph glyph-name="asterisk" unicode="*" horiz-adv-x="640" d="M488 498l137-31-53-144-176 79 5-91H239l6 92-178-80-52 144 137 31-137 31 52 144 178-81-6 93h162l-5-92 176 80 53-144z"/><glyph glyph-name="numbersign" unicode="#" horiz-adv-x="844" d="M669 388l-8-120h116V88H650l-5-88H455l5 88H354l-5-88H159l5 88H47v180h128l8 120H67v180h127l5 88h190l-6-88h107l5 88h190l-5-88h117V388H669zM477 263l8 130H368l-8-130h117z"/><glyph glyph-name="slash" unicode="/" horiz-adv-x="703" d="M463 727h203v-30L240-71H37v30z"/><glyph glyph-name="backslash" unicode="\" horiz-adv-x="703" d="M37 727h203L666-41v-30H463L37 697v30z"/><glyph glyph-name="exclamdown.case" horiz-adv-x="352" d="M257 639q31-30 31-79 0-48-31-78t-81-30-81 30-31 78q0 49 31 79t81 30 81-30zM85 413h181L277 0H75z"/><glyph glyph-name="questiondown.case" horiz-adv-x="632" d="M396 639q31-30 31-79 0-48-31-78t-81-30-81 30-31 78q0 49 31 79t81 30 81-30zm-13-304.5Q360 306 297 274q-48-25-62.5-37.5T220 208v-8q0-22 25-35t68-13q49 0 78 19.5t29 51.5v19h185v-19q0-72-35-125.5t-100-82T316-13q-82 0-148 25T64.5 81.5 27 182v16q0 44 26.5 79.5T137 343q35 18 56 30t26.5 18.5T225 408v5h181v-5q0-45-23-73.5z"/><glyph glyph-name="colon.up" horiz-adv-x="374" d="M106 394q-31 30-31 79 0 48 31 78t81 30 81-30 31-78q0-49-31-79t-81-30-81 30zm0-287q-31 30-31 79 0 48 31 78t81 30 81-30 31-78q0-49-31-79t-81-30-81 30z"/><glyph glyph-name="parenleft" unicode="(" horiz-adv-x="466" d="M230-37Q142 2 94.5 73.5T47 240v177q0 95 47.5 166.5T230 694t204 39V560q-94 2-143.5-37T241 409V248q0-75 49.5-114T434 97V-76q-116 0-204 39z"/><glyph glyph-name="parenright" unicode=")" horiz-adv-x="466" d="M236 694q88-39 135.5-110.5T419 417V240q0-95-47.5-166.5T236-37 32-76V97q94-2 143.5 37T225 248v161q0 75-49.5 114T32 560v173q116 0 204-39z"/><glyph glyph-name="braceleft" unicode="{" horiz-adv-x="544" d="M243 328q102-21 102-131v-62q0-33 41-33h126V-71H350q-57 0-102.5 23.5t-71 65T151 111v97q0 16-11 25t-30 9H41v172h69q19 0 30 9t11 25v97q0 52 25.5 93.5t71 65T350 727h162V555H386q-20 0-30.5-9T345 521v-62q0-110-102-131z"/><glyph glyph-name="braceright" unicode="}" horiz-adv-x="544" d="M503 414V242h-69q-19 0-30-9t-11-25v-97q0-52-25.5-93.5t-71-65T194-71H32v172h126q20 0 30.5 9t10.5 25v62q0 110 102 131-102 21-102 131v62q0 33-41 33H32v173h162q57 0 102.5-23.5t71-65T393 545v-97q0-16 11-25t30-9h69z"/><glyph glyph-name="bracketleft" unicode="[" horiz-adv-x="457" d="M425 727V555H234V101h191V-71H64v798h361z"/><glyph glyph-name="bracketright" unicode="]" horiz-adv-x="457" d="M32 101h191v454H32v172h361V-71H32v172z"/><glyph glyph-name="hyphen" unicode="-" horiz-adv-x="442" d="M392 365V192H50v173h342z"/><glyph glyph-name="uni00AD" unicode="­" horiz-adv-x="442" d="M392 365V192H50v173h342z"/><glyph glyph-name="endash" unicode="–" horiz-adv-x="564" d="M514 365V192H50v173h464z"/><glyph glyph-name="emdash" unicode="—" horiz-adv-x="1122" d="M1054 365V192H68v173h986z"/><glyph glyph-name="uni2015" unicode="―" horiz-adv-x="1122" d="M1054 365V192H68v173h986z"/><glyph glyph-name="uni2010" unicode="‐" horiz-adv-x="442" d="M392 365V192H50v173h342z"/><glyph glyph-name="uni2011" unicode="‑" horiz-adv-x="442" d="M392 365V192H50v173h342z"/><glyph glyph-name="underscore" unicode="_" horiz-adv-x="564" d="M514-25v-158H50v158h464z"/><glyph glyph-name="quotesinglbase" unicode="‚" horiz-adv-x="334" d="M301 170v-27L195-143H21l69 313h211z"/><glyph glyph-name="quotedblbase" unicode="„" horiz-adv-x="583" d="M291 170v-27L185-143H21l69 313h201zm259 0v-27L444-143H280l69 313h201z"/><glyph glyph-name="quotedblleft" unicode="“" horiz-adv-x="583" d="M33 410l106 286h164l-69-313H33v27zm259 0l106 286h164l-69-313H292v27z"/><glyph glyph-name="quotedblright" unicode="”" horiz-adv-x="583" d="M291 696v-27L185 383H21l69 313h201zm259 0v-27L444 383H280l69 313h201z"/><glyph glyph-name="quoteleft" unicode="‘" horiz-adv-x="334" d="M33 410l106 286h174l-69-313H33v27z"/><glyph glyph-name="quoteright" unicode="’" horiz-adv-x="334" d="M301 696v-27L195 383H21l69 313h211z"/><glyph glyph-name="guillemotleft" unicode="«" horiz-adv-x="809" d="M264 278L447 77V50H247L46 264v28l201 214h200v-27zm304 0L751 77V50H551L350 264v28l201 214h200v-27z"/><glyph glyph-name="guillemotright" unicode="»" horiz-adv-x="809" d="M241 278L58 479v27h200l201-214v-28L258 50H58v27zm304 0L362 479v27h200l201-214v-28L562 50H362v27z"/><glyph glyph-name="guilsinglleft" unicode="‹" horiz-adv-x="515" d="M46 292l201 214h210v-27L274 278 457 77V50H247L46 264v28z"/><glyph glyph-name="guilsinglright" unicode="›" horiz-adv-x="515" d="M268 50H58v27l183 201L58 479v27h210l201-214v-28z"/><glyph glyph-name="quotedbl" unicode="&quot;" horiz-adv-x="573" d="M254 696l-6-313H76l-6 313h184zm249 0l-6-313H325l-6 313h184z"/><glyph glyph-name="quotesingle" unicode="'" horiz-adv-x="334" d="M264 696l-6-313H76l-6 313h194z"/><glyph glyph-name="anoteleia" unicode="·" horiz-adv-x="334" d="M86 319q-31 30-31 79 0 48 31 78t81 30 81-30 31-78q0-49-31-79t-81-30-81 30z"/><glyph glyph-name="uni00A0" horiz-adv-x="400"/><glyph glyph-name="uni2009" horiz-adv-x="200"/><glyph glyph-name="uni20BF" unicode="₿" horiz-adv-x="816" d="M681 323q62-42 62-121v-9q0-65-41.5-106T582 33v-93H421v88h-50v-88H210v88h-75v1H88v601h122v87h161v-88h50v88h161v-91q86-11 132.5-53T761 464v-9q0-87-80-132zM561 464.5q-12 8.5-37 8.5H272v-77h252q49 0 49 34v9q0 17-12 25.5zM559 225q0 32-49 32H272v-74h238q49 0 49 33v9z"/><glyph glyph-name="cent" unicode="¢" horiz-adv-x="816" d="M547 357v3q0 26-37 42t-99 16q-71 0-105-20t-34-61v-18q0-41 34-61t105-20q67 0 101.5 15t34.5 43v3h199v-3q0-91-65.5-151T499 68v-78H319v79q-117 19-182.5 85T71 319v18q0 99 65.5 165T319 587v79h180v-79q113-18 180-79t67-148v-3H547z"/><glyph glyph-name="currency" unicode="¤" horiz-adv-x="816" d="M664 233l103-105L645 18 545 126q-60-22-137-22t-137 22L171 18 49 128l103 105q-16 40-16 86v7q0 49 17 89L49 521l122 110 100-108q60 22 137 22t137-22l100 108 122-110-104-106q17-40 17-89v-7q0-46-16-86zm-174 94q0 29-19.5 41.5T408 381t-62.5-12.5T326 327v-7q0-27 20-39.5t62-12.5 62 12.5 20 39.5v7z"/><glyph glyph-name="dollar" unicode="$" horiz-adv-x="816" d="M756 235v-10q0-80-63-132T514 24v-84H296v84Q59 56 59 240v7h195v-7q0-39 38.5-57.5T413 164q72 0 105.5 10.5T552 207v6q0 16-15 24.5T487 250l-197 21Q69 295 69 439v10q0 74 59 121t168 62v85h218v-86q111-17 168.5-67.5T740 430v-7H547v7q0 33-35 47.5T397 492q-67 0-97.5-8.5T269 456v-6q0-13 15-20t55-11l191-22q226-25 226-162z"/><glyph glyph-name="Euro" unicode="€" horiz-adv-x="816" d="M620 371v5q0 57-46 91.5T452 502q-120 0-162-61h260V341H267v-26h283V215H288q20-31 61-46t104-15q79 0 123 33t44 91v5h192v-5q0-84-46-150.5T638.5 24 453-13q-142 0-238.5 61T86 215H0v100h72v26H0v100h86q32 106 129 167t238 61q104 0 185.5-37.5t127.5-104T812 376v-5H620z"/><glyph glyph-name="florin" unicode="ƒ" horiz-adv-x="816" d="M768 236H485V17q0-53-24.5-94t-69-63.5T289-163H93V7h169q16 0 22.5 7.5T291 39v197H53v170h238v110q0 53 24.5 94t69 63.5T487 696h241V526H514q-16 0-22.5-7.5T485 494v-88h283V236z"/><glyph glyph-name="uni20B4" unicode="₴" horiz-adv-x="816" d="M589 347l-96-36h290V206H277q-3-7-3-14 0-30 33-44t104-14q67 0 104 10.5t37 30.5v3h195v-3q0-91-84-139.5T423-13Q321-13 243 8.5t-120.5 60T80 158q0 26 9 48H32v105h199l95 36H32v105h509q2 8 2 12 0 29-31.5 43.5T415 522q-61 0-94.5-10.5T287 481v-3H82v3q0 89 85.5 138.5T406 669q99 0 174-21.5t116-61 41-90.5q0-23-9-44h55V347H589z"/><glyph glyph-name="uni20BA" unicode="₺" horiz-adv-x="816" d="M793 394v-56q0-163-100-250.5T401 0H82v176L0 149v151l82 27v44L0 344v151l82 27v134h201v-79l254 82V508l-254-82v-44l254 82V313l-254-82v-59h118q100 0 150.5 42.5T602 335v59h191z"/><glyph glyph-name="uni20BD" unicode="₽" horiz-adv-x="816" d="M722.5 603.5Q793 551 793 459v-10q0-93-70-145.5T529 251H303v-37h323V83H303V0H102v83H20v131h82v37H20v131h82v274h427q123 0 193.5-52.5zM593 447q0 55-64 55H303V382h226q64 0 64 55v10z"/><glyph glyph-name="uni20B9" unicode="₹" horiz-adv-x="816" d="M652 525q8-15 11-37h93V357h-94q-14-80-83-124t-183-44h-3L733 30V0H465L60 189v131l326 1q45 0 69 8t34 28H60v131h435q-3 20-12 37H60v131h696V525H652z"/><glyph glyph-name="sterling" unicode="£" horiz-adv-x="816" d="M588 398v7q0 49-30 72t-95 23-94.5-18.5T339 422v-45h235V220H339q-5-39-29-63h469V0H54v157h30q28 0 40.5 10.5T137 201v19H54v157h83v48q0 116 86 180t241 64q159 0 238-65.5T781 405v-7H588z"/><glyph glyph-name="uni20B8" unicode="₸" horiz-adv-x="816" d="M763 656V525H52v131h711zM52 347v141h711V347H508V0H307v347H52z"/><glyph glyph-name="uni20AE" unicode="₮" horiz-adv-x="816" d="M509 477v-61l208 32V313l-208-32v-40l208 32V138l-208-32V0H308v86L100 54v135l208 32v40l-208-32v135l208 32v81H38v179h741V477H509z"/><glyph glyph-name="yen" unicode="¥" horiz-adv-x="816" d="M780 626L589 364h142V233H509v-37h222V65H509V0H308v65H86v131h222v37H86v131h142L36 626v30h210l163-231 162 231h209v-30z"/><glyph glyph-name="uni2219" unicode="∙" horiz-adv-x="334" d="M86 250q-31 30-31 79 0 48 31 78t81 30 81-30 31-78q0-49-31-79t-81-30-81 30z"/><glyph glyph-name="uni2215" unicode="∕" horiz-adv-x="703" d="M463 727h203v-30L240-71H37v30z"/><glyph glyph-name="uni2B38" unicode="⬸" horiz-adv-x="734" d="M273 467q-19 19-19 45t19 45 45 19 45-19 19-45-19-45-45-19-45 19zm-98-107.5Q156 378 156 404q0 27 19 45.5t45 18.5 45-18.5 19-45.5q0-26-19-44.5T220 341t-45 18.5zm-100.5-108Q56 270 56 297q0 26 18.5 44.5T119 360t45-18.5 19-44.5q0-27-19-45.5T119 233t-44.5 18.5zm201.5 0Q257 270 257 297q0 26 19 44.5t45 18.5 44.5-18.5T384 297q0-27-18.5-45.5T321 233t-45 18.5zm146.5 0Q404 270 404 297q0 26 18.5 44.5T468 360q26 0 44.5-18.5T531 297q0-27-18.5-45.5T468 233q-27 0-45.5 18.5zm147 0Q551 270 551 297q0 26 18.5 44.5T615 360q26 0 44.5-18.5T678 297q0-27-18.5-45.5T615 233q-27 0-45.5 18.5zM175 144q-19 19-19 45t19 45 45 19 45-19 19-45-19-45-45-19-45 19zm98-107.5Q254 55 254 81q0 27 19 45.5t45 18.5 45-18.5T382 81q0-26-19-44.5T318 18t-45 18.5z"/><glyph glyph-name="plus" unicode="+" horiz-adv-x="816" d="M715 238H498V41H318v197H101v180h217v197h180V418h217V238z"/><glyph glyph-name="minus" unicode="−" horiz-adv-x="816" d="M715 418V238H101v180h614z"/><glyph glyph-name="multiply" unicode="×" horiz-adv-x="816" d="M536 328l173-173L581 27 408 200 235 27 107 155l173 173-173 173 128 128 173-173 173 173 128-128z"/><glyph glyph-name="divide" unicode="÷" horiz-adv-x="816" d="M331 477q-30 29-30 75t30 74.5 77 28.5q48 0 77.5-28.5T515 552q0-47-29.5-75.5T408 448q-47 0-77 29zm384-59V238H101v180h614zM331 30q-30 29-30 75t30 74.5 77 28.5q48 0 77.5-28.5T515 105q0-47-29.5-75.5T408 1q-47 0-77 29z"/><glyph glyph-name="equal" unicode="=" horiz-adv-x="816" d="M705 538V358H111v180h594zm0-240V118H111v180h594z"/><glyph glyph-name="notequal" unicode="≠" horiz-adv-x="816" d="M518 358l-38-60h225V118H364l-49-77H155v29l31 48h-75v180h190l38 60H111v180h344l49 77h160v-29l-31-48h72V358H518z"/><glyph glyph-name="greater" unicode="&gt;" horiz-adv-x="816" d="M715 444V212L138 29h-27v179l376 120-376 119v179h27z"/><glyph glyph-name="less" unicode="&lt;" horiz-adv-x="816" d="M705 447L329 328l376-120V29h-27L101 212v232l577 182h27V447z"/><glyph glyph-name="greaterequal" unicode="≥" horiz-adv-x="816" d="M705 531V319L138 186h-27v155l344 82-344 76v154h27zM111 158h594V0H111v158z"/><glyph glyph-name="lessequal" unicode="≤" horiz-adv-x="816" d="M705 499l-344-76 344-82V186h-27L111 319v212l567 122h27V499zM111 158h594V0H111v158z"/><glyph glyph-name="plusminus" unicode="±" horiz-adv-x="816" d="M705 514V354H498V222H318v132H111v160h207v132h180V514h207zM111 169h594V-1H111v170z"/><glyph glyph-name="approxequal" unicode="≈" horiz-adv-x="816" d="M487 340.5q-34 6.5-84 19.5t-82 19.5-66 6.5q-68 0-142-39v179q69 41 143 41 34 0 68-7t79-20q53-14 86-20.5t69-6.5q77 0 145 37V371q-67-37-146-37-36 0-70 6.5zm0-241q-34 6.5-84 19.5t-82 19.5-66 6.5q-68 0-142-39v179q69 41 143 41 34 0 68-7t79-20q53-14 86-20.5t69-6.5q77 0 145 37V130q-67-37-146-37-36 0-70 6.5z"/><glyph glyph-name="logicalnot" unicode="¬" horiz-adv-x="816" d="M101 238v180h614V58H545v180H101z"/><glyph glyph-name="asciitilde" unicode="~" horiz-adv-x="816" d="M489.5 215.5Q454 222 402 235t-85.5 19.5T248 261q-71 0-148-39v179q72 41 149 41 35 0 68-6.5t85-19.5q51-14 87.5-21t74.5-7q80 0 151 37V246q-70-37-153-37-37 0-72.5 6.5z"/><glyph glyph-name="asciicircum" unicode="^" horiz-adv-x="557" d="M547 399v-27H347l-69 104-68-104H10v27l182 257h172z"/><glyph glyph-name="infinity" unicode="∞" horiz-adv-x="1033" d="M887 559q59-33 92.5-91.5T1013 335v-14q0-74-33.5-132.5T887 97 753 64q-72 0-121.5 26.5T524 187l-7 9-8-9q-58-70-107-96.5T280 64q-75 0-134 33t-92.5 91.5T20 321v14q0 74 33.5 132.5T146 559t134 33q73 0 122-26.5T509 469l8-9 7 9q58 70 107.5 96.5T753 592q75 0 134-33zM317.5 250q19.5 11 36.5 31l41 47-41 47q-18 20-36.5 31T282 417q-31 0-51.5-23.5T210 335v-14q0-35 20.5-58.5T282 239q16 0 35.5 11zM823 335q0 35-20.5 58.5T751 417q-17 0-35.5-11T679 375l-41-47 41-47q18-20 36.5-31t35.5-11q31 0 51.5 23.5T823 321v14z"/><glyph glyph-name="integral" unicode="∫" horiz-adv-x="540" d="M144 64q29 0 29 22v403q0 53 24.5 94t69 63.5T369 669h151V506H396q-29 0-29-22V81q0-53-24.5-94t-69-63.5T171-99H20V64h124z"/><glyph glyph-name="uni2126" unicode="Ω" horiz-adv-x="880" d="M803 253q-42-53-129-78v-25h171V0H483v278q81 4 119 26t38 65v10q0 47-49 70t-151 23-151-23-49-70v-10q0-43 38-65t119-26V0H35v150h171v25q-87 25-129 78T35 387v7q0 85 48.5 147T223 636t217 33 217-33 139.5-95T845 394v-7q0-81-42-134z"/><glyph glyph-name="uni2206" unicode="∆" horiz-adv-x="773" d="M736 179V0H37v179l227 477h245zm-493 1h287L387 490z"/><glyph glyph-name="product" unicode="∏" horiz-adv-x="984" d="M15 476v180h954V476H800V-99H599v575H385V-99H184v575H15z"/><glyph glyph-name="summation" unicode="∑" horiz-adv-x="713" d="M662 476H334l201-137V218L333 80h329v-180H37V79l293 199L37 477v179h625V476z"/><glyph glyph-name="radical" unicode="√" horiz-adv-x="866" d="M866 486H706L418-99H207L0 318v23h201L317 93l270 563h279V486z"/><glyph glyph-name="uni00B5" unicode="µ" horiz-adv-x="740" d="M730 170V0H621q-90 0-131 55-21-32-55.5-50T358-13q-60 0-103 31v-188H61v676h194V265q0-49 26-75t74-26q35 0 63 14.5t45 41.5v286h194V194q0-13 6.5-18.5T686 170h44z"/><glyph glyph-name="partialdiff" unicode="∂" horiz-adv-x="789" d="M671 599q97-68 97-193 0-26-2-39l-14-121Q737 120 636.5 53.5T360-13q-168 0-256.5 49.5T15 179q0 8 2 26l2 16q12 96 99.5 145.5T365 416q127 0 200-48l2 14q1 7 1 19 0 111-171 111-59 0-98.5-10.5T253 474l-1-3H50l1 5q11 56 58 99.5T230 643t164 24q180 0 277-68zM498 170q40 16 50 53-52 36-182 36-57 0-87.5-4t-44-13.5T219 214l-1-8q-3-25 36.5-38.5T372 154q86 0 126 16z"/><glyph glyph-name="percent" unicode="%" horiz-adv-x="970" d="M72 381q-56 42-56 113v14q0 73 55 114.5T223 664t151-41 54-115v-14q0-72-55-113.5T223 339 72 381zm186.5 88q13.5 10 13.5 27v10q0 18-13.5 28T222 544t-36.5-10-13.5-28v-10q0-17 13.5-27t36.5-10 36.5 10zM598 35q-56 42-56 113v14q0 73 55 114.5T749 318t151-41 54-115v-14q0-72-55-113.5T749-7 598 35zm186.5 88q13.5 10 13.5 27v10q0 18-13.5 28T748 198t-36.5-10-13.5-28v-10q0-17 13.5-27t36.5-10 36.5 10zM659 656h190v-30L310 0H120v27z"/><glyph glyph-name="perthousand" unicode="‰" horiz-adv-x="1414" d="M72 381q-56 42-56 113v14q0 73 55 114.5T223 664t151-41 54-115v-14q0-72-55-113.5T223 339 72 381zm186.5 88q13.5 10 13.5 27v10q0 18-13.5 28T222 544t-36.5-10-13.5-28v-10q0-17 13.5-27t36.5-10 36.5 10zM598 35q-56 42-56 113v14q0 73 55 114.5T749 318t151-41 54-115v-14q0-72-55-113.5T749-7 598 35zm186.5 88q13.5 10 13.5 27v10q0 18-13.5 28T748 198t-36.5-10-13.5-28v-10q0-17 13.5-27t36.5-10 36.5 10zM659 656h190v-30L310 0H120v27zm383-621q-56 42-56 113v14q0 73 55 114.5t152 41.5 151-41 54-115v-14q0-72-55-113.5T1193-7t-151 42zm186.5 88q13.5 10 13.5 27v10q0 18-13.5 28t-36.5 10-36.5-10-13.5-28v-10q0-17 13.5-27t36.5-10 36.5 10z"/><glyph glyph-name="uni2911" unicode="⤑" horiz-adv-x="734" d="M371 467q-19 19-19 45t19 45 45 19 45-19 19-45-19-45-45-19-45 19zm98-107.5Q450 378 450 404q0 27 19 45.5t45 18.5 45-18.5 19-45.5q0-26-19-44.5T514 341t-45 18.5zm-394.5-108Q56 270 56 297q0 26 18.5 44.5T119 360q27 0 45.5-18.5T183 297q0-27-18.5-45.5T119 233q-26 0-44.5 18.5zm147 0Q203 270 203 297q0 26 18.5 44.5T266 360q27 0 45.5-18.5T330 297q0-27-18.5-45.5T266 233q-26 0-44.5 18.5zm147 0Q350 270 350 297q0 26 18.5 44.5T413 360t45-18.5 19-44.5q0-27-19-45.5T413 233t-44.5 18.5zm201.5 0Q551 270 551 297q0 26 19 44.5t45 18.5 44.5-18.5T678 297q0-27-18.5-45.5T615 233t-45 18.5zM469 144q-19 19-19 45t19 45 45 19 45-19 19-45-19-45-45-19-45 19zM371 36.5Q352 55 352 81q0 27 19 45.5t45 18.5 45-18.5T480 81q0-26-19-44.5T416 18t-45 18.5z"/><glyph glyph-name="arrowup" unicode="↑" horiz-adv-x="734" d="M658 359V142h-30L455 316V0H280l1 317-175-175H76v217l276 276h30z"/><glyph glyph-name="uni2197" unicode="↗" horiz-adv-x="734" d="M623 556V165L470 12h-21l1 267L198 27 75 151l252 251H58v21l154 154h390z"/><glyph glyph-name="arrowright" unicode="→" horiz-adv-x="734" d="M719 310v-30L443 4H226v30l174 173H45v175l356-1-175 175v30h217z"/><glyph glyph-name="uni2198" unicode="↘" horiz-adv-x="734" d="M623 438V47l-21-21H212L58 180v21h269L75 452l123 124 252-252-1 267h21z"/><glyph glyph-name="arrowdown" unicode="↓" horiz-adv-x="734" d="M658 459V242L382-34h-30L76 242v217h30l175-175-1 317h175V285l173 174h30z"/><glyph glyph-name="uni2199" unicode="↙" horiz-adv-x="734" d="M676 190v-21L522 15H132l-21 21v391l153 153h21l-1-267 252 252 123-124-252-251h269z"/><glyph glyph-name="arrowleft" unicode="←" horiz-adv-x="734" d="M689 207H334L508 34V4H291L15 280v30l276 276h217v-30L333 381l356 1V207z"/><glyph glyph-name="uni2196" unicode="↖" horiz-adv-x="734" d="M676 402H407l252-251L536 27 284 279l1-267h-21L111 165v391l21 21h390l154-154v-21z"/><glyph glyph-name="uni21E1" unicode="⇡" horiz-adv-x="734" d="M322 503.5Q303 522 303 548t19 45 45 19 45-19 19-45-19-44.5-45-18.5-45 18.5zm-108.5-102Q195 420 195 446q0 27 18.5 45.5T258 510q27 0 45.5-18.5T322 446q0-26-18.5-44.5T258 383q-26 0-44.5 18.5zm217.5 0Q412 420 412 446q0 27 19 45.5t45 18.5 44.5-18.5T539 446q0-26-18.5-44.5T476 383t-45 18.5zm-109-100Q303 320 303 347q0 26 19 44.5t45 18.5 45-18.5 19-44.5q0-27-19-45.5T367 283t-45 18.5zm-219-1Q84 319 84 346q0 26 19 44.5t45 18.5 44.5-18.5T211 346q0-27-18.5-45.5T148 282t-45 18.5zm438.5 0Q523 319 523 346q0 26 18.5 44.5T586 409q27 0 45.5-18.5T650 346q0-27-18.5-45.5T586 282q-26 0-44.5 18.5zM322 154.5Q303 173 303 200q0 26 19 44.5t45 18.5 45-18.5 19-44.5q0-27-19-45.5T367 136t-45 18.5zM322 8q-19 19-19 45t19 45 45 19 45-19 19-45-19-45-45-19-45 19z"/></font>
</defs>
</svg>
