<svg width="53" height="53" fill="none" xmlns="http://www.w3.org/2000/svg"><circle cx="26.5" cy="26.5" r="26.5" fill="transition"/><path d="M13 42.428V29.857l9.714-4.572v4.572l9.143-4.572v4.572L41 25.285v17.143H13zm6.285-18.285l-4.57 2.285 1.142-12h2.857l.572 9.715z" stroke="#fff"/><path d="M29 23.544l-3.428 1.742.857-9.143h2.143l.429 7.401zm-12.442-10.83s.97-.571.97-1.905c0-.885-.655-1.076-.97-1.904-.29-.764 0-1.905 0-1.905m10.285 6.857s.97-.57.97-1.904c0-.886-.655-1.077-.97-1.905-.29-.763 0-1.905 0-1.905M16.429 36.214H21m3.429 0H29m3.429 0H37" stroke="#fff"/></svg>