<svg width="53" height="53" fill="none" xmlns="http://www.w3.org/2000/svg"><circle cx="26.5" cy="26.5" r="26.5" fill="#fff"/><path d="M33.6 18.5h-4.239a942.016 942.016 0 000 4.58c.01.522-.224 1.082-.602 1.724a40 40 0 01-.765 1.187l-.402.607-.128.19-.035.053-.01.014v.002C26.11 28.878 25.5 30.44 25.5 32.265v10.192a.251.251 0 00.15.042h11.7a.251.251 0 00.15-.042V32.265c0-1.934-.625-3.536-1.94-5.519a51.127 51.127 0 00-.166-.242c-.319-.465-.994-1.45-1.175-1.747-.382-.626-.619-1.171-.619-1.693V18.5z" stroke="#DF0112"/><path d="M25.7 14.9h-5.448a429.481 429.481 0 000 3.36c.011.614-.26 1.288-.723 2.09-.152.263-.57.912-.938 1.48l-.495.759-.157.239-.043.066-.011.017-.002.003c-1.618 2.542-2.383 4.523-2.383 6.845v12.8c0 .003 0 .007.005.016.005.01.017.027.042.047a.41.41 0 00.253.078h14.4a.41.41 0 00.253-.078.157.157 0 00.042-.047c.005-.009.005-.013.005-.015V29.759c0-2.457-.783-4.489-2.41-6.984l-.212-.316c-.396-.588-1.215-1.803-1.436-2.17-.467-.78-.742-1.437-.742-2.051V14.9z" fill="#fff" stroke="#DF0112"/><path d="M20.268 9.281v0l-.5-.002.5.002h0v.317l-.003.85-.007 2.172H25.7V9.276c0-.327-.382-.776-1.105-.776h-3.217c-.727 0-1.108.448-1.11.781z" stroke="#00F"/></svg>