<svg width="53" height="53" fill="none" xmlns="http://www.w3.org/2000/svg"><circle cx="26.5" cy="26.5" r="26.5" fill="transition"/><path d="M42.936 22.26h-7.09v2.531l4.558 3.038h4.557" stroke="#fff"/><path d="M32.803 19.215h8.785l3.38 8.207v8.009H32.803V19.216z" stroke="#fff"/><path fill="transparent" stroke="#fff" d="M12.549 31.367h23.304v4.063H12.549z"/><circle cx="36.353" cy="34.917" r="3.551" fill="#0000BD" stroke="#fff"/><circle cx="20.153" cy="34.917" r="3.551" fill="#0000BD" stroke="#fff"/><circle cx="12.051" cy="34.917" r="3.551" fill="#0000BD" stroke="#fff"/><path stroke="#fff" d="M12.549 25.803v6.077m-.339-6.418l-1.78-3.08 2.745-7.586 3.338-1.23 12.988 4.699 1.779 3.08-2.745 7.586-3.338 1.23-12.988-4.699zm.428-.22l4.063-11.232m8.318 15.71l4.064-11.232"/></svg>