<svg width="53" height="53" fill="none" xmlns="http://www.w3.org/2000/svg"><circle cx="26.5" cy="26.5" r="26.5" fill="transparent"/><path d="M36.579 16.425l2.723 4.704h1.611l.85-2.97a6.191 6.191 0 00-1.876-6.357L37.827 10h-2.801l-1.373 1.372 1.027 1.774-12.502 7.329c-.44.257-.751.671-.877 1.165a1.886 1.886 0 001.345 2.294v5.905h-1.624l-8.054 6.544v2.65H12V40h30v-.968h-6.29v-1.451l-1.992-15.968h-.912v-2.976l3.773-2.212zm-1.153-5.457h2.037l1.787 1.563a5.221 5.221 0 011.581 5.363l-.648 2.267h-.324l-4.996-8.63.563-.563zM22.342 22.586a.92.92 0 01-.104-.706.92.92 0 01.43-.57l12.497-7.326.929 1.604-12.489 7.321a.93.93 0 01-1.263-.323zm1.27 1.355a1.81 1.81 0 00.482-.198l.487-.285v6.38h-.968v-5.897zm-9.676 12.902l7.43-6.037h4.666v1.936h-4.838v6.29h-1.936v-2.42h-2.903v2.42h-2.42v-2.189zM27 33.71v5.322h-4.839V33.71H27zm-8.71 5.322h-.967v-1.451h.967v1.451zm14.517-2.903h-.968v-1.935h.968v1.935zm0-2.903h-.968V31.29h.968v1.936zm0-2.903h-.968v-1.936h.968v1.936zm-.968-2.904v-1.935h.968v1.935h-.968zm0 9.678h.968v1.935h-.968v-1.935zm.968-12.58h-.968V22.58h.968v1.935zM30.87 39.031h-.968V37.61l.968-7.742v9.163zm3.87 0h-.967V29.87l.968 7.742v1.421zm-2.902-17.42h-.911L28.938 37.52l-.003 1.511h-.968v-6.29H27v-2.903h-1.452V22.89l6.29-3.687v2.409z" fill="#fff"/><path d="M18.29 28.387a1.452 1.452 0 00.001-2.903c-.8 0-1.452.651-1.452 1.452 0 .8.651 1.451 1.452 1.451zm0-1.935a.484.484 0 110 .968.484.484 0 010-.968zm-4.838 5.806c.8 0 1.451-.651 1.451-1.452 0-.8-.651-1.451-1.451-1.451S12 30.006 12 30.806s.651 1.452 1.452 1.452zm0-1.935a.484.484 0 110 .968.484.484 0 010-.968z" fill="#fff"/></svg>