<svg width="53" height="53" fill="none" xmlns="http://www.w3.org/2000/svg"><circle cx="26.5" cy="26.5" r="26.5" fill="#fff"/><path stroke="#DF0112" stroke-width=".625" d="M27.926 8.313h6.875v.625h-6.875z"/><path stroke="#00F" stroke-width=".625" d="M15.426 12.063h6.875v.625h-6.875z"/><mask id="a" fill="#fff"><path fill-rule="evenodd" clip-rule="evenodd" d="M21.363 11.75h-5v12.343a9.25 9.25 0 002.501 18.158v-1a8.25 8.25 0 114.714-15.022l.572-.82a9.213 9.213 0 00-2.787-1.316V11.75z"/></mask><path d="M16.363 11.75v-1h-1v1h1zm5 0h1v-1h-1v1zm-5 12.343l.27.963.73-.205v-.758h-1zm2.5 18.158v1h1v-1h-1zm0-1h1v-1h-1v1zm4.715-15.022l-.572.82.82.573.572-.82-.82-.573zm.572-.82l.82.572.572-.82-.82-.572-.572.82zm-2.787-1.316h-1v.758l.73.205.27-.963zm-5-11.343h5v-2h-5v2zm1 11.343V11.75h-2v12.343h2zm-6.75 8.908a8.254 8.254 0 016.02-7.945l-.54-1.926c-4.315 1.209-7.48 5.17-7.48 9.871h2zm8.25 8.25a8.25 8.25 0 01-8.25-8.25h-2c0 5.661 4.59 10.25 10.25 10.25v-2zm-1 0v1h2v-1h-2zm-8.25-8.25a9.25 9.25 0 009.25 9.25v-2a7.25 7.25 0 01-7.25-7.25h-2zm9.25-9.25a9.25 9.25 0 00-9.25 9.25h2a7.25 7.25 0 017.25-7.25v-2zm5.287 1.658a9.21 9.21 0 00-5.287-1.658v2a7.21 7.21 0 014.143 1.299l1.144-1.64zm-.82-.572l-.573.82 1.64 1.145.573-.82-1.64-1.145zm-2.237.219c.9.251 1.737.652 2.485 1.173l1.144-1.64a10.214 10.214 0 00-3.09-1.46l-.539 1.927zm-.73-13.306v12.343h2V11.75h-2z" fill="#00F" mask="url(#a)"/><mask id="b" fill="#fff"><path fill-rule="evenodd" clip-rule="evenodd" d="M33.863 8h-5v11.25l-8.167 17.502H42.03L33.863 19.25V8zm8.75 30v.002h-22.5v3.749h22.5V38z"/></mask><path fill-rule="evenodd" clip-rule="evenodd" d="M33.863 8h-5v11.25l-8.167 17.502H42.03L33.863 19.25V8zm8.75 30v.002h-22.5v3.749h22.5V38z" fill="#fff"/><path d="M28.863 8V7h-1v1h1zm5 0h1V7h-1v1zm-5 11.25l.906.423.094-.2v-.223h-1zm-8.167 17.502l-.907-.423-.664 1.423h1.57v-1zm21.335 0v1h1.57l-.664-1.423-.906.423zM33.863 19.25h-1v.222l.094.201.906-.423zM42.613 38l.906-.423-1.906.423h1zm0 .002v1h1v-1h-1zm-22.5 0v-1h-1v1h1zm0 3.749h-1v1h1v-1zm22.5 0v1h1v-1h-1zm0-3.75h1v-.222l-.094-.202-.906.424zM28.863 9h5V7h-5v2zm1 10.25V8h-2v11.25h2zm-8.261 17.925l8.167-17.502-1.812-.846-8.168 17.502 1.813.846zm-.906.577H42.03v-2H20.696v2zm12.261-18.079l8.167 17.502 1.813-.846-8.168-17.502-1.812.846zM32.863 8v11.25h2V8h-2zm8.75 30v.002h2V38h-2zm1-.998h-22.5v2h22.5v-2zm-21.5 4.749v-3.749h-2v3.749h2zm21.5-1h-22.5v2h22.5v-2zm-1-2.75v3.75h2V38h-2zm.094.423l1.812-.847-1.812.847z" fill="#DF0112" mask="url(#b)"/><mask id="c" fill="#fff"><path fill-rule="evenodd" clip-rule="evenodd" d="M33.863 8h-5v11.25l-8.167 17.502H42.03L33.863 19.25V8zm8.75 30v.002h-22.5v3.749h22.5V38z"/></mask><path fill-rule="evenodd" clip-rule="evenodd" d="M33.863 8h-5v11.25l-8.167 17.502H42.03L33.863 19.25V8zm8.75 30v.002h-22.5v3.749h22.5V38z" fill="#fff"/><path d="M28.863 8V7h-1v1h1zm5 0h1V7h-1v1zm-5 11.25l.906.423.094-.2v-.223h-1zm-8.167 17.502l-.907-.423-.664 1.423h1.57v-1zm21.335 0v1h1.57l-.664-1.423-.906.423zM33.863 19.25h-1v.222l.094.201.906-.423zM42.613 38l.906-.423-1.906.423h1zm0 .002v1h1v-1h-1zm-22.5 0v-1h-1v1h1zm0 3.749h-1v1h1v-1zm22.5 0v1h1v-1h-1zm0-3.75h1v-.222l-.094-.202-.906.424zM28.863 9h5V7h-5v2zm1 10.25V8h-2v11.25h2zm-8.261 17.925l8.167-17.502-1.812-.846-8.168 17.502 1.813.846zm-.906.577H42.03v-2H20.696v2zm12.261-18.079l8.167 17.502 1.813-.846-8.168-17.502-1.812.846zM32.863 8v11.25h2V8h-2zm8.75 30v.002h2V38h-2zm1-.998h-22.5v2h22.5v-2zm-21.5 4.749v-3.749h-2v3.749h2zm21.5-1h-22.5v2h22.5v-2zm-1-2.75v3.75h2V38h-2zm.094.423l1.812-.847-1.812.847z" fill="#DF0112" mask="url(#c)"/></svg>