<svg width="53" height="53" fill="none" xmlns="http://www.w3.org/2000/svg"><circle cx="26.5" cy="26.5" r="26.5" fill="transition"/><mask id="a" fill="#fff"><path fill-rule="evenodd" clip-rule="evenodd" d="M22.398 23.709a2.982 2.982 0 004.218 0l4.745 4.745L21.344 38.47h-5.272l-8.436-8.436v-5.272l10.017-10.017 4.745 4.745a2.982 2.982 0 000 4.218z"/></mask><path d="M26.616 23.708l.707-.707-.707-.707-.707.707.707.707zm4.745 4.746l.707.707.708-.707-.708-.707-.707.707zM21.344 38.47v1h.414l.293-.293-.707-.707zm-5.272 0l-.707.707.293.293h.414v-1zm-8.436-8.436h-1v.415l.293.292.707-.707zm0-5.272l-.707-.707-.293.293v.414h1zm10.017-10.017l.707-.707-.707-.707-.707.707.707.707zm4.745 4.745l.707.707.708-.707-.707-.707-.708.707zM25.91 23a1.982 1.982 0 01-2.804 0l-1.414 1.415a3.982 3.982 0 005.632 0L25.91 23zm0 0l1.414 1.415L25.91 23zm0 1.415l4.745 4.745 1.415-1.415L27.324 23l-1.414 1.415zm4.745 3.33L20.637 37.764l1.414 1.414L32.07 29.161l-1.415-1.415zm-9.31 9.725h-5.272v2h5.272v-2zm-4.565.293l-8.436-8.436-1.414 1.414 8.436 8.436 1.414-1.414zm-8.143-7.729v-5.272h-2v5.272h2zm-.293-4.565L18.36 15.453l-1.414-1.414L6.93 24.056l1.414 1.414zm8.603-10.017l4.745 4.745 1.415-1.415-4.746-4.744-1.414 1.414zm6.16 4.745l-1.415-1.415 1.414 1.415zm0 2.803a1.982 1.982 0 010-2.803l-1.415-1.414a3.982 3.982 0 000 5.632L23.105 23z" fill="#fff" mask="url(#a)"/><circle cx="24.509" cy="21.599" r="1.737" transform="rotate(45 24.509 21.599)" stroke="#fff"/><mask id="b" fill="#fff"><path fill-rule="evenodd" clip-rule="evenodd" d="M19.239 11.414l15.457 15.457-1.222 1.222-6.019-6.018a2.969 2.969 0 01-.374 1.04l5.686 5.685.707.707.707-.707 1.222-1.222.707-.707-.707-.707-15.457-15.457-.707-.707-.707.707-1.222 1.222-.707.707.707.707 5.686 5.686a2.971 2.971 0 011.039-.375l-6.018-6.018 1.222-1.222z"/></mask><path fill-rule="evenodd" clip-rule="evenodd" d="M19.239 11.414l15.457 15.457-1.222 1.222-6.019-6.018a2.969 2.969 0 01-.374 1.04l5.686 5.685.707.707.707-.707 1.222-1.222.707-.707-.707-.707-15.457-15.457-.707-.707-.707.707-1.222 1.222-.707.707.707.707 5.686 5.686a2.971 2.971 0 011.039-.375l-6.018-6.018 1.222-1.222z" fill="#fff"/><path d="M34.696 26.871l.707.707.707-.707-.707-.707-.707.707zM19.239 11.414l.707-.707-.707-.707-.707.707.707.707zm14.235 16.68l-.707.706.707.707.707-.707-.707-.707zm-6.019-6.02l.707-.706-1.383-1.384-.311 1.932.987.159zm-.374 1.04l-.862-.508-.394.667.548.548.707-.707zm6.393 6.393l-.707.708.707.707.707-.707-.707-.707zm2.636-2.636l.707.707.707-.707-.707-.707-.707.707zM19.239 10l.707-.707-.707-.707-.707.707.707.707zm-2.637 2.636l-.707-.707-.707.707.707.707.707-.707zm.708.707l.707-.707-.707.707zm5.686 5.686l-.708.707.549.548.667-.394-.509-.86zm1.039-.375l.159.988 1.932-.311-1.384-1.384-.707.707zm-6.018-6.018l-.707-.707-.707.707.707.707.707-.707zm17.386 13.528L19.946 10.707l-1.415 1.414L33.99 27.578l1.414-1.414zM34.18 28.8l1.222-1.222-1.414-1.414-1.222 1.222L34.18 28.8zm-7.433-6.018l6.019 6.018 1.414-1.414-6.019-6.018-1.414 1.414zm-.28-.866a1.97 1.97 0 01-.249.69l1.723 1.017c.256-.435.423-.907.5-1.39l-1.974-.317zm-.095 1.905l5.687 5.686 1.414-1.414-5.686-5.686-1.415 1.414zm5.687 5.686l.707.708L34.18 28.8l-.707-.707-1.414 1.415zm2.12.708l.708-.707-1.414-1.415-.707.707 1.414 1.415zm.708-.707l1.222-1.223-1.414-1.414-1.222 1.222 1.414 1.415zm1.222-1.223l.707-.707-1.414-1.414-.707.707 1.414 1.415zm.707-2.12l-.707-.708-1.414 1.414.707.707 1.414-1.414zm-.707-.708L20.653 10l-1.414 1.414 15.457 15.457 1.414-1.414zM20.653 10l-.707-.707-1.415 1.414.708.707L20.653 10zm-2.121-.707l-.708.707 1.415 1.414.707-.707-1.415-1.414zm-.708.707l-1.222 1.222 1.415 1.414 1.222-1.222L17.824 10zm-1.222 1.222l-.707.707 1.415 1.414.707-.707-1.415-1.414zm-.707 2.121l.707.707 1.415-1.414-.707-.707-1.415 1.414zm.707.707l5.686 5.686 1.415-1.414-5.686-5.686-1.415 1.414zm6.902 5.84a1.97 1.97 0 01.69-.248l-.318-1.975a3.97 3.97 0 00-1.39.501l1.018 1.722zm-6.194-6.547l6.018 6.018 1.414-1.414-6.018-6.018-1.414 1.414zm1.222-2.636L17.31 11.93l1.414 1.414 1.222-1.222-1.415-1.414z" fill="#fff" mask="url(#b)"/><path d="M37.437 25.658l-4.846-4.847s4.1-.745 7.456 4.101c3.355 4.847 2.61 13.049 2.61 13.049h-5.22V25.658z" stroke="#fff"/></svg>