<svg width="53" height="53" fill="none" xmlns="http://www.w3.org/2000/svg"><circle cx="26.5" cy="26.5" r="26.5" fill="transition"/><path d="M21.84 20.287l-.144-.25h-3.614l4.37-7.537h9.13l4.36 7.584-1.791 3.127h-3.352l-3.368-5.796-.433-.745-.432.746-3.194 5.522-1.531-2.65zm.344 17.226l-.144.249.143.25 1.65 2.877h-8.709l-4.546-7.885 4.394-7.585h3.615l1.678 2.936-3.331 5.758-.435.75h7.217l-1.532 2.65zm14.883-3.399L33.91 28.63h3.351l.145-.248 1.681-2.883 4.336 7.504-4.547 7.886h-8.793l-1.824-3.127 1.675-2.899h7.564l-.431-.75z" stroke="#fff"/></svg>