<svg width="82" height="92" fill="none" xmlns="http://www.w3.org/2000/svg"><path d="M52.251 70.793l-17.065 9.922c.226 2.632.245 1.723-.018 3.995l-1.562 3.2 17.065-9.922 1.562-3.2c.263-2.272.263-1.363.018-3.995z" fill="#fff"/><path d="M33.624 88.384a.452.452 0 01-.338-.133.492.492 0 01-.113-.587l1.524-3.124.094-.795c.113-.909.113-.909 0-1.97l-.094-1.022a.489.489 0 01.244-.473l17.065-9.922a.516.516 0 01.47-.019.498.498 0 01.264.398l.094 1.022c.113 1.155.113 1.193-.019 2.197l-.094.87a.307.307 0 01-.056.171l-1.543 3.2a.41.41 0 01-.188.208l-17.065 9.922a.577.577 0 01-.245.057zm2.089-7.403l.056.7c.113 1.155.113 1.212-.018 2.197l-.094.87a.306.306 0 01-.057.17l-.847 1.743 15.541-9.032 1.449-2.992.094-.795c.113-.909.113-.909 0-1.97l-.019-.264-16.105 9.373z" fill="#000"/><path d="M62.449 81.586l-17.046 9.922c.094-5.32.282-4.828-1.242-8.918l17.065-9.922c1.505 4.09 1.317 3.598 1.223 8.918z" fill="#fff"/><path d="M45.403 92a.518.518 0 01-.245-.058.526.526 0 01-.245-.435l.038-1.515c.075-3.654.075-3.654-1.242-7.214a.515.515 0 01.207-.606l17.065-9.922a.53.53 0 01.414-.038.496.496 0 01.301.284c1.373 3.712 1.392 3.768 1.317 7.593l-.038 1.515a.47.47 0 01-.244.416l-17.065 9.922a.734.734 0 01-.263.057zm-.64-9.203c1.242 3.313 1.242 3.522 1.166 7.195l-.019.625 16.068-9.335.02-1.23c.074-3.466.074-3.655-1.055-6.666l-16.18 9.41z" fill="#000"/><path d="M72.251 79.087L55.186 89.01c-1.637-5.756-1.373-5.548-3.857-9.26l17.065-9.92c2.484 3.71 2.22 3.502 3.857 9.258z" fill="#fff"/><path d="M55.187 89.5a.666.666 0 01-.189-.038.442.442 0 01-.282-.322l-.527-1.874c-1.091-3.9-1.129-4.071-3.273-7.252a.587.587 0 01-.076-.398.565.565 0 01.226-.322l17.065-9.921a.501.501 0 01.659.151c2.22 3.314 2.314 3.635 3.386 7.536l.527 1.875a.513.513 0 01-.226.568L55.45 89.424a.468.468 0 01-.264.076zm-3.143-9.58c1.938 2.915 2.07 3.388 3.105 7.1l.357 1.25 16.18-9.411-.413-1.496c-1.054-3.75-1.129-4.033-3.01-6.873l-16.219 9.43z" fill="#000"/><path d="M68.394 69.828l-17.046 9.921 2.22-2.556 17.065-9.921-2.239 2.556z" fill="#fff"/><path d="M51.348 80.242a.472.472 0 01-.376-.17.515.515 0 010-.645l2.22-2.556a.337.337 0 01.132-.094l17.064-9.922a.489.489 0 01.603.757l-2.22 2.556a.345.345 0 01-.132.095l-17.065 9.922a.444.444 0 01-.226.057zm2.54-2.67l-.207.246 14.412-8.369.207-.246-14.412 8.369z" fill="#0000BD"/><path d="M77.726 72.837l-17.065 9.922.884-1.95 17.046-9.922-.865 1.95z" fill="#fff"/><path d="M60.661 83.252a.48.48 0 01-.339-.133.47.47 0 01-.112-.568l.884-1.95a.48.48 0 01.207-.227l17.065-9.922c.188-.114.414-.076.583.057.15.151.207.379.113.568l-.884 1.95a.48.48 0 01-.207.227l-17.065 9.922a.61.61 0 01-.245.076zm1.26-2.102l-.169.398 15.598-9.07.17-.398-15.598 9.07z" fill="#0000BD"/><path d="M78.592 70.888L61.527 80.81c-3.462-6.135-2.992-5.548-5.89-8.199l17.066-9.922c2.897 2.651 2.445 2.064 5.889 8.2z" fill="#fff"/><path d="M61.545 81.303c-.037 0-.075 0-.131-.019a.52.52 0 01-.301-.227l-.79-1.42c-2.409-4.298-2.409-4.298-4.535-6.249l-.451-.416a.504.504 0 01-.15-.417.524.524 0 01.244-.379l17.065-9.921c.188-.114.414-.076.583.057l.452.416c2.22 2.045 2.276 2.102 4.722 6.476l.809 1.439a.507.507 0 01-.188.681l-17.065 9.922a.734.734 0 01-.264.057zm-5.06-8.596c2.182 1.988 2.238 2.083 4.684 6.438l.546.984 16.218-9.41-.564-1.004c-2.409-4.28-2.409-4.28-4.535-6.23l-.188-.17-16.162 9.392z" fill="#0000BD"/><path d="M72.722 62.688L55.657 72.61l.79-4.09 17.046-9.903-.771 4.071z" fill="#fff"/><path d="M55.657 73.103a.505.505 0 01-.283-.095.547.547 0 01-.207-.492l.79-4.09a.493.493 0 01.245-.341l17.046-9.903a.483.483 0 01.527.019c.15.114.226.303.188.492l-.79 4.09a.457.457 0 01-.245.341l-17.064 9.922c-.038.038-.132.057-.207.057zm1.223-4.26l-.527 2.802 15.936-9.26.545-2.802-15.955 9.26z" fill="#0000BD"/><path d="M80.51 60.872l-17.045 9.921v-2.67l17.046-9.902v2.65z" fill="#fff"/><path d="M63.465 71.286a.577.577 0 01-.245-.056.502.502 0 01-.244-.436v-2.65c0-.171.094-.342.244-.436l17.065-9.922a.457.457 0 01.49 0 .5.5 0 01.244.435v2.651c0 .17-.094.341-.245.436L63.71 71.23a.578.578 0 01-.244.056zm.489-2.878v1.515l16.068-9.335v-1.515l-16.068 9.335z" fill="#0000BD"/><path d="M80.51 58.22l-17.045 9.903c-4.083-4.412-3.782-4.412-7.018-5.889l17.065-9.922c3.236 1.496 2.935 1.477 6.999 5.908z" fill="#fff"/><path d="M63.465 68.615a.512.512 0 01-.358-.152l-1.449-1.572c-2.615-2.859-2.709-2.972-5.418-4.203a.472.472 0 01-.282-.416.461.461 0 01.244-.455l17.065-9.922a.476.476 0 01.452-.019c2.878 1.307 3.104 1.553 5.72 4.431.413.454.884.966 1.448 1.572a.56.56 0 01.132.416.49.49 0 01-.245.36l-17.065 9.922c-.075.019-.17.038-.245.038zM57.5 62.177c2.108 1.003 2.54 1.477 4.873 4.033l1.167 1.287 16.18-9.41c-.376-.417-.715-.795-1.034-1.117-2.503-2.765-2.672-2.954-5.156-4.09L57.5 62.177z" fill="#0000BD"/><path d="M25.817 74.353l-.49 1.686-.846 1.23 17.065-9.921.846-1.231.49-1.685-17.065 9.921z" fill="#fff"/><path d="M24.48 77.762a.512.512 0 01-.357-.152.515.515 0 01-.037-.625l.79-1.174.47-1.609a.433.433 0 01.226-.284l17.065-9.922a.516.516 0 01.545.038c.17.133.226.34.17.53l-.49 1.685a.91.91 0 01-.056.133l-.846 1.23a.446.446 0 01-.17.152l-17.065 9.922a.376.376 0 01-.244.076zm1.75-3.068l-.357 1.193 15.315-8.9.734-1.078.132-.417-15.824 9.202z" fill="#000"/><path d="M73.493 52.33l-17.046 9.904-.79-5 17.065-9.902.771 4.999z" fill="#fff"/><path d="M56.447 62.727a.377.377 0 01-.207-.056.533.533 0 01-.282-.38l-.79-4.998a.483.483 0 01.244-.511l17.065-9.922c.15-.076.32-.095.451-.019.15.076.245.209.283.379l.79 4.999a.484.484 0 01-.245.51l-17.065 9.942a.575.575 0 01-.244.056zm-.264-5.226l.621 3.939 16.143-9.373-.62-3.938L56.182 57.5z" fill="#0000BD"/><path d="M78.591 45.969l-17.046 9.903-.884-2.954 17.065-9.922.865 2.973z" fill="#fff"/><path d="M61.546 56.383a.666.666 0 01-.188-.037.442.442 0 01-.283-.322l-.884-2.973c-.056-.227.019-.455.226-.568l17.065-9.922a.496.496 0 01.432-.038c.15.057.245.17.283.322l.884 2.973a.513.513 0 01-.226.568L61.79 56.308a.61.61 0 01-.244.075zm-.301-3.237l.602 1.988 16.18-9.41-.602-1.989-16.18 9.41z" fill="#0000BD"/><path d="M73.85 40.687l-1.655-.455-1.562.076-17.065 9.922 1.562-.076 1.656.436 3.875 2.329 17.065-9.922-3.875-2.31z" fill="#fff"/><path d="M60.661 53.411a.376.376 0 01-.244-.076l-3.82-2.272-1.505-.416-1.486.075c-.207 0-.433-.132-.49-.36-.056-.227.02-.454.227-.568l17.064-9.921a.498.498 0 01.226-.057l1.58-.076c.038 0 .095 0 .151.02l1.656.454c.038.019.094.038.132.056l3.875 2.31c.15.095.245.247.245.436 0 .17-.094.34-.245.435l-17.065 9.922c-.131.02-.225.038-.3.038zm-5.23-3.692l1.486.397c.038.02.094.038.132.057l3.631 2.159 16.087-9.335-3.086-1.856-1.505-.416-1.373.076-15.372 8.918z" fill="#000"/><path d="M33.417 55.57l-17.065 9.92 1.11-.985 17.066-9.903-1.11.966z" fill="#fff"/><path d="M16.353 65.983a.5.5 0 01-.32-.871l1.11-.966 17.14-9.979a.474.474 0 01.64.152.5.5 0 01-.075.663l-1.11.965-17.14 9.96a.412.412 0 01-.245.076z" fill="#000"/><path d="M70.633 40.307L53.568 50.23l-2.22-5.15 17.046-9.903 2.24 5.131z" fill="#fff"/><path d="M53.568 50.724c-.056 0-.094 0-.15-.02a.523.523 0 01-.301-.264l-2.22-5.15a.496.496 0 01.206-.625l17.065-9.922a.418.418 0 01.395-.038.524.524 0 01.302.265l2.22 5.15a.496.496 0 01-.207.625l-17.065 9.922a.576.576 0 01-.245.057zm-1.599-5.435l1.825 4.223 16.2-9.41-1.826-4.223-16.199 9.41z" fill="#000"/><path d="M55.186 40.309l-1.411 3.332-1.035.966 17.065-9.903 1.035-.966 1.411-3.351-17.065 9.922z" fill="#fff"/><path d="M52.74 45.117a.49.49 0 01-.395-.208.497.497 0 01.057-.663l.96-.89 1.373-3.237a.48.48 0 01.207-.228l17.065-9.921c.188-.114.414-.076.583.056.15.152.207.38.132.569l-1.43 3.332a.449.449 0 01-.113.17l-1.035.966-17.14 9.979a.803.803 0 01-.263.075zm2.842-4.468l-.979 2.31 14.958-8.691.865-.833.79-1.875-15.634 9.089z" fill="#0000BD"/><path d="M72.251 30.388l-17.065 9.921-1.618-2.82 17.065-9.923 1.618 2.822z" fill="#fff"/><path d="M55.186 40.802a.52.52 0 01-.432-.246l-1.637-2.822a.647.647 0 01-.057-.378.522.522 0 01.226-.303l17.065-9.922a.5.5 0 01.677.19l1.637 2.82a.648.648 0 01.057.38.522.522 0 01-.226.302L55.43 40.745a.519.519 0 01-.245.057zm-.94-3.143l1.128 1.969 16.219-9.41-1.13-1.97-16.217 9.41z" fill="#0000BD"/><path d="M30.67 47.92l-17.064 9.903-1.393.473 17.065-9.903 1.393-.473z" fill="#fff"/><path d="M12.213 58.79a.524.524 0 01-.451-.285c-.094-.227-.019-.511.207-.625l17.065-9.922 1.486-.51a.49.49 0 01.602.264c.094.227.019.511-.207.625L13.85 58.26l-1.486.511a.41.41 0 01-.15.02z" fill="#000"/><path d="M64.556 28.476L47.49 38.398l-3.33-4.507 17.046-9.903 3.349 4.488z" fill="#fff"/><path d="M47.491 38.888a.49.49 0 01-.395-.208l-3.33-4.507a.598.598 0 01-.094-.397.45.45 0 01.226-.322l17.064-9.922a.477.477 0 01.64.133l3.33 4.506a.598.598 0 01.094.398.556.556 0 01-.244.34l-17.065 9.922a.444.444 0 01-.226.057zm-2.615-4.847l2.747 3.711 16.2-9.41-2.748-3.712-16.2 9.411z" fill="#000"/><path d="M67.02 27.111l-1.354.398-17.065 9.922 1.355-.398 3.612.454 17.065-9.921-3.612-.455z" fill="#fff"/><path d="M53.568 37.98h-.056l-3.5-.436-1.26.38a.53.53 0 01-.602-.285.496.496 0 01.206-.625l17.065-9.922 1.468-.454c.056-.019.132-.019.207-.019l3.612.455a.48.48 0 01.414.397.51.51 0 01-.244.53l-17.065 9.922a.576.576 0 01-.245.057zm-2.634-1.325l2.54.321 15.654-9.088-2.051-.265-1.26.378-14.883 8.653z" fill="#0000BD"/><path d="M62.449 16.508L45.403 26.43l.075 4.506-.47 1.666-.847 1.288 17.046-9.903.866-1.306.47-1.648-.094-4.525z" fill="#fff"/><path d="M44.16 34.381a.513.513 0 01-.357-.151.544.544 0 01-.056-.625l.828-1.23.414-1.516-.076-4.45c0-.189.095-.34.245-.435l17.065-9.922c.15-.094.339-.075.49 0a.47.47 0 01.244.417l.075 4.525c0 .038 0 .095-.019.152l-.451 1.666c-.02.057-.038.095-.057.151l-.865 1.288a.445.445 0 01-.17.152l-17.065 9.921a.646.646 0 01-.244.057zm1.732-7.668l.075 4.222c0 .038 0 .095-.019.152l-.395 1.42 15.315-8.9.753-1.136.414-1.515-.057-3.597-16.086 9.354z" fill="#0000BD"/><path d="M24.65 35.348l-1.468.113-17.064 9.903-2.71 1.666 2.879-1.666 1.298-.113 1.712.416 17.065-9.903-1.712-.416z" fill="#fff"/><path d="M3.408 47.522a.48.48 0 01-.433-.246.519.519 0 01.17-.682l2.69-1.666L22.9 35.006a.377.377 0 01.207-.056l1.468-.114a.199.199 0 01.15.019l1.712.417c.188.037.339.208.377.416a.5.5 0 01-.245.492L9.504 46.102a.594.594 0 01-.357.057L7.51 45.76l-1.11.095-2.785 1.61c-.037.037-.113.056-.207.056zM8 44.852l1.223.303 15.823-9.202-.433-.095-1.28.095L8 44.853z" fill="#000"/><path d="M56.183 18.648L39.118 28.57l-3.913-3.2 17.046-9.903 3.932 3.18z" fill="#fff"/><path d="M39.119 29.062a.426.426 0 01-.301-.114l-3.933-3.2c-.131-.095-.188-.265-.188-.416a.507.507 0 01.245-.398l17.065-9.922c.188-.095.395-.095.564.038l3.933 3.219c.131.095.188.265.188.417a.507.507 0 01-.245.397l-17.065 9.922a.66.66 0 01-.263.057zm-3.048-3.636l3.104 2.519 16.143-9.373-3.104-2.518-16.143 9.372z" fill="#000"/><path d="M62.449 16.507L45.403 26.43l-2.145-2.253 17.065-9.922 2.126 2.253z" fill="#fff"/><path d="M45.403 26.922a.512.512 0 01-.358-.152l-2.126-2.253a.557.557 0 01-.132-.417.49.49 0 01.245-.36l17.046-9.921a.486.486 0 01.602.095l2.126 2.253a.56.56 0 01.132.416.49.49 0 01-.245.36l-17.065 9.922a.444.444 0 01-.225.057zm-1.355-2.632l1.43 1.515 16.18-9.411-1.43-1.515-16.18 9.41z" fill="#0000BD"/><path d="M46.814 12.285l-17.065 9.922-3.933-1.382 17.065-9.903 3.933 1.363z" fill="#fff"/><path d="M29.749 22.7c-.057 0-.113 0-.17-.02l-3.932-1.382a.487.487 0 01-.094-.89l17.065-9.921a.53.53 0 01.414-.038l3.932 1.382c.188.057.301.227.339.417a.489.489 0 01-.245.473l-17.065 9.922a.518.518 0 01-.244.056zm-2.747-1.989l2.71.947 15.935-9.259-2.69-.947-15.955 9.26z" fill="#000"/><path d="M22.129 22.491l-3.575-.284L1.49 32.129l3.556.284c2.07.909 1.28.454 3.443 1.988l17.065-9.922c-2.145-1.534-1.354-1.08-3.424-1.988z" fill="#fff"/><path d="M8.507 34.893a.557.557 0 01-.282-.095l-.847-.605c-.884-.625-.884-.625-1.712-.985l-.734-.322-3.48-.265A.504.504 0 011 32.242a.56.56 0 01.226-.549l17.083-9.903c.095-.037.189-.075.283-.056l3.556.284c.056 0 .113.018.15.037l.79.341c.922.398.96.417 1.9 1.08l.847.605a.491.491 0 01.207.436c0 .17-.094.322-.244.416L8.733 34.855c-.057 0-.132.038-.226.038zm-5.4-3.143l1.976.151c.056 0 .113.02.15.038l.79.341c.922.398.96.417 1.9 1.08l.584.416 16.124-9.373-.226-.151c-.884-.625-.884-.625-1.712-.985l-.734-.322-3.33-.265-15.522 9.07z" fill="#000"/><path d="M28.45 15.807l-17.064 9.922c-2.804-3.408-2.446-2.935-7.094-5.567l17.065-9.922c4.648 2.632 4.29 2.159 7.094 5.567z" fill="#fff"/><path d="M11.386 26.221a.472.472 0 01-.377-.17c-2.39-2.897-2.39-2.897-5.418-4.582l-1.543-.852a.501.501 0 01-.245-.436c0-.17.094-.34.245-.435l17.065-9.922c.15-.076.338-.095.489 0l1.524.852c3.16 1.76 3.217 1.799 5.7 4.828a.522.522 0 01.114.398.457.457 0 01-.245.34L11.63 26.165a.518.518 0 01-.245.057zM5.29 20.162l.771.436c3.048 1.685 3.198 1.799 5.437 4.506l16.2-9.41c-2.032-2.462-2.183-2.538-5.043-4.128l-1.298-.72L5.29 20.162z" fill="#000"/><path d="M37.858 10.41l-17.046 9.922-3.35.625 17.066-9.922 3.33-.625z" fill="#fff"/><path d="M17.463 21.45a.47.47 0 01-.452-.322.515.515 0 01.207-.606L34.283 10.6c.038-.019.094-.038.15-.057l3.331-.624a.484.484 0 01.546.321.515.515 0 01-.207.606l-17.065 9.922c-.057.019-.094.038-.15.057l-3.33.625h-.095zm17.234-9.941L20.21 19.935l.414-.076 14.487-8.426-.414.076z" fill="#000"/><path d="M34.528 11.036l-17.065 9.922c-2.032-4.128-1.882-3.636-6.077-7.972L28.45 3.064c4.176 4.336 4.045 3.844 6.077 7.972z" fill="#fff"/><path d="M17.463 21.45c-.038 0-.094 0-.15-.02a.495.495 0 01-.302-.245c-1.712-3.465-1.806-3.58-4.44-6.268-.433-.454-.94-.966-1.543-1.59a.556.556 0 01-.131-.417.49.49 0 01.244-.36l17.065-9.92a.512.512 0 01.602.075c.602.606 1.091 1.136 1.543 1.572 2.69 2.745 2.841 2.916 4.629 6.532a.492.492 0 01-.189.644l-17.065 9.922a.468.468 0 01-.263.076zm-5.287-8.37c.414.417.771.796 1.091 1.137 2.56 2.613 2.823 2.897 4.384 6.04l16.218-9.41c-1.505-3.068-1.712-3.276-4.233-5.852-.376-.378-.79-.814-1.28-1.306l-16.18 9.392z" fill="#0000BD"/><path d="M42.881 10.921l-17.064 9.922c-.904-4.071-.753-3.465-4.14-9.203l17.065-9.92c3.387 5.737 3.255 5.131 4.14 9.202z" fill="#fff"/><path d="M25.817 21.316c-.076 0-.132-.019-.207-.038a.516.516 0 01-.283-.34l-.018-.057c-.753-3.427-.753-3.427-2.954-7.139l-1.11-1.874a.647.647 0 01-.057-.379.47.47 0 01.226-.303l17.065-9.922a.511.511 0 01.677.17l1.11 1.875c2.258 3.806 2.296 3.882 3.086 7.423.038.208-.038.473-.226.587l-17.065 9.94a.518.518 0 01-.244.057zm-3.462-9.505l.846 1.44c2.126 3.578 2.277 3.843 2.936 6.816l16.161-9.392c-.696-3.124-.771-3.257-2.897-6.817l-.866-1.457-16.18 9.41z" fill="#0000BD"/><path d="M52.251 15.466l-17.065 9.922c.358-3.522.226-3.2-1.58-9.013l17.065-9.922c1.806 5.794 1.938 5.472 1.58 9.013z" fill="#fff"/><path d="M35.205 25.862a.43.43 0 01-.263-.076.51.51 0 01-.226-.473c.3-2.954.263-3.03-.922-6.779l-.64-2.044c-.075-.228.019-.455.226-.587L50.445 5.98a.57.57 0 01.433-.038c.131.057.244.17.282.303l.64 2.045c1.204 3.787 1.26 4.014.96 7.176a.524.524 0 01-.245.379l-17.065 9.96a.576.576 0 01-.245.056zm-.997-9.278l.508 1.666c1.072 3.37 1.242 3.92 1.053 6.21l16.03-9.315c.264-2.708.208-2.878-.94-6.513l-.452-1.458-16.2 9.41z" fill="#0000BD"/><path d="M50.69 6.435l-17.066 9.922-2.295-1.345L48.394 5.11l2.295 1.326z" fill="#fff"/><path d="M33.624 16.848a.578.578 0 01-.244-.057l-2.296-1.326a.501.501 0 01-.244-.435c0-.17.094-.341.244-.436L48.15 4.673a.457.457 0 01.49 0l2.295 1.344c.15.095.245.246.245.435a.53.53 0 01-.245.436L33.869 16.81c-.075.019-.17.038-.245.038zm-1.317-1.837l1.317.757 16.068-9.335-1.317-.757-16.068 9.335z" fill="#0000BD"/><path d="M38.742 1.72l-17.065 9.902-2.126-.208 17.065-9.922 2.126.227z" fill="#fff"/><path d="M21.677 12.114h-.056l-2.126-.227a.5.5 0 01-.433-.398c-.038-.208.056-.435.226-.53L36.37 1.056A.419.419 0 0136.672 1l2.127.227a.5.5 0 01.432.398c.038.208-.056.436-.226.53l-17.064 9.922c-.095.019-.17.038-.264.038zm-.564-1.042l.451.038 15.598-9.07-.452-.037-15.597 9.07z" fill="#0000BD"/><path d="M45.403 92a.519.519 0 01-.245-.058.526.526 0 01-.245-.435l.038-1.515c.075-3.654.075-3.654-1.242-7.214-.019-.038-.019-.076-.019-.132l-9.783 5.68a.507.507 0 01-.583-.057.492.492 0 01-.113-.587l1.524-3.124.094-.795c.113-.91.113-.91 0-1.97l-.094-1.022a.489.489 0 01.244-.473l17.065-9.922a.516.516 0 01.47-.019.498.498 0 01.264.398l.094 1.022c.113 1.155.113 1.193-.019 2.197l-.094.87a.307.307 0 01-.056.17l-1.393 2.86 5.72-3.313c-.339-.341-.752-.72-1.28-1.212l-.413-.38a.461.461 0 01-.15-.453l.79-4.09a.493.493 0 01.244-.341l4.27-2.48c-1.485-1.591-1.956-1.875-4.232-2.917a.489.489 0 01-.283-.378l-.79-4.999a.484.484 0 01.245-.511l5.023-2.916-.188-.663-3.65-2.177-1.505-.417-1.43.076h-.075a.47.47 0 01-.452-.303l-2.22-5.131a.496.496 0 01.207-.625l2.277-1.326 1.279-2.991-1.373-2.405-3.255-.417-.132.038-2.145 1.269c-.207.132-.49.057-.64-.133l-3.33-4.506a.486.486 0 01-.019-.568l.828-1.231.414-1.515-.075-4.26-.508-.55-5.024 2.917a.513.513 0 01-.564-.038l-3.932-3.2a.477.477 0 01-.188-.436c.244-2.423.263-2.934-.414-5.188l-4.29 2.5c-.132.076-.264.076-.414.038l-3.932-1.383a.477.477 0 01-.32-.36c-.226-1.022-.395-1.76-.565-2.366l-3.744 2.177c-.056.02-.094.038-.17.057l-.093.019-1.6.928 2.973.227c.057 0 .113.019.15.038l.791.34c.922.398.96.417 1.9 1.08l.847.606a.492.492 0 01.207.435c0 .17-.094.322-.245.417L8.77 34.779a.523.523 0 01-.526-.02l-.847-.605c-.884-.625-.884-.625-1.712-.985l-.734-.322-3.5-.227A.504.504 0 011 32.242a.56.56 0 01.226-.55l9.746-5.661c-2.39-2.897-2.39-2.897-5.4-4.563l-1.543-.871a.502.502 0 01-.244-.436c0-.17.094-.34.244-.435l8.467-4.904a95.068 95.068 0 00-1.468-1.496.556.556 0 01-.132-.417.49.49 0 01.245-.36l17.065-9.921a.512.512 0 01.602.075c.62.644 1.148 1.174 1.6 1.648l.112.113 5.851-3.408A.418.418 0 0136.673 1l2.126.227a.52.52 0 01.376.247l1.11 1.874c1.411 2.367 1.957 3.295 2.37 4.545l5.495-3.2a.457.457 0 01.489 0l2.295 1.344c.113.057.188.17.226.284l.64 2.045c1.166 3.673 1.26 3.995.978 6.911l2.032 1.647 5.268-3.067a.486.486 0 01.602.095l2.126 2.253a.458.458 0 01.132.34l.075 4.526c0 .038 0 .095-.019.151l-.451 1.667c-.02.057-.038.094-.057.151l-.677 1.004 2.69 3.654.904-.53 1.467-.454c.057-.02.132-.02.207-.02l3.594.455h.037c.038 0 .076.019.113.038a.59.59 0 01.207.17c0 .02.019.02.019.038l1.618 2.822a.45.45 0 01.019.435l-1.411 3.332a.449.449 0 01-.113.17l-1.035.967-.997.587 1.806 4.146 1.242-.057a.44.44 0 01.15.02l1.656.454c.038.019.094.038.132.057l3.876 2.31c.018.019.037.019.056.038l.075.075c.038.038.057.095.076.152v.019l.884 2.972c.056.228-.019.455-.226.568l-5.306 3.011.395 2.518c2.672 1.231 2.935 1.534 5.494 4.317.414.455.885.966 1.45 1.572a.547.547 0 01.13.34v2.652c0 .17-.093.34-.244.435l-5.474 3.18c.81.928 1.392 1.97 2.973 4.79l.771 1.364a.545.545 0 01.019.454l-.884 1.95a.48.48 0 01-.207.228L72.1 76.68l.64 2.272a.513.513 0 01-.227.568L55.45 89.424a.496.496 0 01-.433.038.442.442 0 01-.282-.322L54.133 87l-8.467 4.924a.511.511 0 01-.263.075zm-.64-9.203c1.242 3.314 1.242 3.522 1.166 7.195l-.018.625 8.26-4.81a.496.496 0 01.432-.037c.15.057.244.17.282.322l.602 2.14 16.18-9.411-.639-2.272a.524.524 0 01.226-.568l6.077-3.522.715-1.572-.64-1.136c-1.844-3.276-2.276-4.07-3.255-5.056a.49.49 0 01-.131-.416.49.49 0 01.244-.36l5.776-3.351V58.39a167.86 167.86 0 01-1.317-1.439c-2.596-2.859-2.709-2.973-5.418-4.203a.489.489 0 01-.283-.379l-.489-3.105a.484.484 0 01.245-.512l5.25-3.048-.603-1.988-16.18 9.41.244.834a.498.498 0 01-.226.568l-5.06 2.953.695 4.393c2.371 1.098 2.879 1.477 4.742 3.503.094.114.15.265.131.417a.49.49 0 01-.244.36l-4.648 2.688-.696 3.579.207.19c.79.719 1.317 1.211 1.769 1.722.094.114.15.265.113.417a.49.49 0 01-.245.36l-13.264 7.687zm-9.05-1.818l.056.7c.113 1.156.113 1.213-.018 2.197l-.094.871a.306.306 0 01-.057.17l-.846 1.743 15.54-9.032 1.45-2.992.093-.795c.113-.909.113-.909 0-1.97l-.019-.264-16.105 9.372zm19.718-31.26l1.486.397c.038.019.094.038.132.057l3.631 2.158 16.087-9.335-3.086-1.855-1.505-.417-1.374.076-15.371 8.918zm-3.462-4.431l1.825 4.222 16.2-9.41-1.92-4.45a.496.496 0 01.207-.625l1.28-.739.865-.833 1.28-3.01-1.261-2.178-8.11 4.696a.496.496 0 01-.677-.19.526.526 0 01.188-.682l7.263-4.221-2.05-.265-1.261.378-1.167.7a.477.477 0 01-.64-.132l-3.16-4.279a.486.486 0 01-.02-.568l.829-1.23.414-1.516-.076-4.24-1.73-1.838-5.231 3.03a.552.552 0 01-.565-.038l-2.502-2.026a.497.497 0 01-.188-.435c.301-2.954.263-3.03-.903-6.779l-.583-1.856-1.882-1.098-5.795 3.37a.495.495 0 01-.432.038.47.47 0 01-.283-.34c-.395-1.477-.828-2.197-2.446-4.905l-.997-1.647-1.73-.17-6.06 3.522a.512.512 0 01-.601-.076l-.377-.398a82.99 82.99 0 00-1.335-1.363l-16.181 9.391c.49.512.922.947 1.298 1.326l.17.17a.49.49 0 01.131.417.49.49 0 01-.244.36L5.27 20.16l.79.436c3.03 1.685 3.199 1.798 5.419 4.487l8.9-5.15c.056-.019.093-.038.15-.057l.094-.019 4.195-2.442a.53.53 0 01.414-.038.59.59 0 01.301.303c.245.72.414 1.514.696 2.764l3.462 1.212 4.629-2.689a.569.569 0 01.433-.038c.15.057.244.17.282.322.884 2.84.903 3.37.658 5.889l3.462 2.802 5.061-2.935a.486.486 0 01.602.095l.922.985a.546.546 0 01.132.34l.075 4.526c0 .038 0 .095-.019.151l-.451 1.667c-.019.056-.038.094-.057.151l-.677 1.004 2.86 3.881 1.863-1.079.338-.114c.057-.019.132-.019.207-.019l3.613.455c.15.019.282.113.357.246l1.637 2.821a.45.45 0 01.019.436l-1.43 3.332a.447.447 0 01-.113.17c-.019.02-.132.114-.15.133l-1.976 1.099zM3.107 31.748l1.976.152c.056 0 .113.019.15.038l.79.34c.922.398.96.417 1.9 1.08l.584.416 16.124-9.372-.226-.152c-.884-.625-.884-.625-1.712-.985l-.734-.321-3.33-.265-15.522 9.07zM24.481 77.76a.512.512 0 01-.358-.151.515.515 0 01-.038-.625l.79-1.174.471-1.61a.434.434 0 01.226-.283l17.065-9.922a.516.516 0 01.545.038c.17.132.226.34.17.53l-.49 1.685a.917.917 0 01-.056.133l-.846 1.23a.446.446 0 01-.17.152l-17.065 9.922a.376.376 0 01-.244.075zm1.75-3.067l-.358 1.193 15.315-8.9.734-1.079.132-.416-15.824 9.202zm-9.878-8.71a.499.499 0 01-.32-.871l1.11-.966 17.14-9.978a.474.474 0 01.64.151.499.499 0 01-.076.663l-1.11.966-17.14 9.96a.412.412 0 01-.244.075zm-4.14-7.195a.524.524 0 01-.451-.284c-.094-.227-.019-.511.207-.625l17.065-9.922 1.486-.511a.49.49 0 01.602.265c.094.227.019.511-.207.625L13.85 58.258l-1.486.511c-.056.019-.094.019-.15.019zM3.409 47.522a.48.48 0 01-.433-.246.519.519 0 01.17-.682l2.69-1.666L22.9 35.006a.378.378 0 01.207-.057l1.468-.113a.199.199 0 01.15.019l1.712.416c.188.038.339.208.377.417a.5.5 0 01-.245.492L9.504 46.102c-.113.056-.244.075-.357.056l-1.637-.397-1.11.094-2.785 1.61c-.037.038-.113.057-.207.057zM8 44.852l1.223.303 15.823-9.202-.433-.095-1.279.095L8 44.852z" fill="#0000BD"/><path d="M56.447 68.521c2.163 1.534 1.373 1.08 3.443 1.988l3.556.284v-2.65c-4.083-4.413-3.782-4.413-7.018-5.89l-.79-4.998 1.712.416 1.467-.113 2.71-1.666-.885-2.973-3.876-2.33-1.655-.453-1.562.075-2.22-5.15 1.392-.473 1.035-.966 1.411-3.333-1.637-2.82-3.612-.455-1.355.397-1.11.966-3.33-4.506.866-1.288.451-1.666-.075-4.526-2.126-2.253-2.804 1.496-.846 1.212-.49 1.685-3.932-3.2c.358-3.522.226-3.2-1.58-9.013l-2.258-1.306-1.562 3.218c-.263 2.235-.263 1.345-.018 3.977l-3.933-1.382c-.903-4.071-.752-3.465-4.139-9.203l-2.126-.208c-.094 5.415-.263 4.885 1.242 8.918l-3.33.625c-2.032-4.128-1.882-3.635-6.078-7.971l-1.636.927c1.843 6.438 1.505 5.738 3.857 9.26l-2.22 2.556c-2.804-3.409-2.446-2.935-7.094-5.567l-.884 1.95c3.18 5.662 2.803 5.378 5.89 8.199l-.791 4.09c-2.164-1.534-1.374-1.08-3.443-1.988l-3.556-.284v2.65c4.064 4.412 3.763 4.412 7.018 5.89l.79 4.998-1.712-.417-1.487.114-2.69 1.666.884 2.973 3.876 2.348 1.656.416 1.561-.075 2.202 5.13-1.412.474-1.034.966-1.43 3.332 1.637 2.822 3.612.454 1.355-.398 1.11-.965 3.33 4.506-.865 1.307-.47 1.647.075 4.507 2.126 2.253 2.803-1.477.847-1.23.489-1.686 3.932 3.2c-.357 3.484-.301 2.973 1.58 9.013l2.296 1.325 1.561-3.2c.264-2.272.245-1.363.02-3.995l3.931 1.382c.904 4.128.772 3.503 4.14 9.203l2.163.246c.094-5.321.283-4.829-1.241-8.918l3.33-.625c2.032 4.127 1.881 3.635 6.077 7.99l1.637-.928c-1.637-5.756-1.374-5.548-3.857-9.259l2.22-2.556c2.822 3.427 2.39 2.935 7.093 5.567l.884-1.95c-3.462-6.135-2.991-5.548-5.889-8.2l.79-4.108z" fill="#fff"/><path d="M45.402 92h-.056l-2.126-.227a.5.5 0 01-.376-.246l-1.148-1.913c-2.183-3.635-2.258-3.787-2.992-7.157l-2.954-1.041.02.246c.112 1.155.112 1.212-.02 2.196l-.094.871a.306.306 0 01-.056.17l-1.543 3.2a.44.44 0 01-.3.247.575.575 0 01-.396-.038l-2.295-1.345a.483.483 0 01-.226-.283l-.621-1.97c-1.242-3.957-1.28-4.109-.997-6.987l-3.161-2.556-.282.966c-.02.057-.038.095-.057.151l-.846 1.231a.514.514 0 01-.189.152l-2.803 1.477a.514.514 0 01-.583-.095l-2.126-2.253a.547.547 0 01-.132-.341l-.075-4.507c0-.056 0-.094.019-.151l.451-1.647a.91.91 0 01.057-.133l.677-1.022-2.803-3.806-.715.625c-.057.037-.113.075-.189.094l-1.354.398c-.057.019-.132.019-.207.019l-3.613-.455a.486.486 0 01-.357-.246l-1.637-2.821a.452.452 0 01-.019-.436l1.43-3.332a.448.448 0 01.113-.17l1.035-.966a.39.39 0 01.188-.114l.884-.303-1.881-4.336-1.204.114c-.038 0-.094 0-.15-.02l-1.657-.435c-.037-.019-.094-.038-.131-.056l-3.857-2.33a.483.483 0 01-.226-.283l-.884-2.973a.498.498 0 01.225-.568l2.69-1.666c.076-.038.151-.057.227-.076l1.467-.114c.057 0 .113 0 .15.02l.998.245-.62-3.995c-2.654-1.23-2.936-1.515-5.476-4.317-.414-.455-.884-.985-1.449-1.59a.458.458 0 01-.131-.341V32.11a.52.52 0 01.15-.36c.094-.095.245-.133.376-.133l3.556.284a.36.36 0 01.15.038l.791.341c.922.398.96.417 1.9 1.08l.226.15.583-3.047c-2.54-2.348-2.671-2.576-4.703-6.211L2.975 22.34a.546.546 0 01-.019-.455l.885-1.95a.467.467 0 01.3-.265.485.485 0 01.396.038l1.524.852c2.991 1.666 3.198 1.798 5.324 4.373l1.6-1.836-.15-.227c-1.807-2.69-1.826-2.765-3.124-7.328l-.433-1.496a.513.513 0 01.226-.568l1.637-.928a.512.512 0 01.602.076c.602.625 1.11 1.136 1.543 1.59 2.596 2.651 2.84 2.897 4.459 6.192l2.39-.454c-1.167-3.125-1.186-3.333-1.11-7.044l.037-1.496a.44.44 0 01.17-.36c.093-.094.244-.132.376-.132l2.125.208c.151.02.283.114.377.246l1.11 1.875c2.22 3.73 2.295 3.862 3.029 7.195l2.954 1.022-.019-.265c-.113-1.155-.113-1.211.019-2.196l.094-.852a.22.22 0 01.056-.152l1.543-3.219c.057-.132.17-.208.301-.264a.575.575 0 01.395.037l2.296 1.326c.113.057.188.17.226.284l.64 2.026c1.166 3.692 1.26 3.995.978 6.91l3.16 2.557.283-.965a.565.565 0 01.075-.152l.847-1.212a.445.445 0 01.169-.151l2.803-1.496a.514.514 0 01.584.095l2.126 2.253a.547.547 0 01.131.34l.076 4.526c0 .038 0 .095-.02.151l-.45 1.648c-.02.056-.038.094-.057.151l-.678 1.004 2.804 3.787.715-.625a.358.358 0 01.188-.095l1.355-.397c.056-.02.131-.02.207-.02l3.612.455c.15.019.282.114.358.246l1.636 2.822a.45.45 0 01.02.435l-1.43 3.332a.449.449 0 01-.114.17l-1.034.966c-.057.038-.113.076-.189.095l-.884.303 1.882 4.336 1.241-.057c.038 0 .094 0 .15.02l1.657.454c.037.019.094.038.131.057l3.876 2.31c.113.056.188.17.226.284l.884 2.972a.498.498 0 01-.226.568l-2.709 1.667a.673.673 0 01-.207.075l-1.486.114c-.057 0-.094 0-.15-.019l-.998-.246.62 3.995c2.654 1.212 2.936 1.515 5.495 4.317l1.449 1.572a.547.547 0 01.131.34v2.652a.467.467 0 01-.17.36c-.093.094-.225.17-.375.132l-3.556-.284a.354.354 0 01-.15-.038l-.791-.34c-.922-.399-.94-.417-1.9-1.08l-.226-.17-.583 3.048.244.227c2.22 2.045 2.258 2.102 4.741 6.495l.79 1.42a.545.545 0 01.02.454l-.885 1.95a.467.467 0 01-.3.266c-.133.056-.264.037-.396-.038l-1.467-.814c-3.067-1.686-3.237-1.8-5.4-4.412l-1.6 1.836c2.014 3.03 2.127 3.447 3.18 7.215l.527 1.855a.513.513 0 01-.226.568l-1.637.928a.505.505 0 01-.602-.076c-.602-.625-1.091-1.136-1.542-1.571-2.597-2.67-2.841-2.897-4.46-6.192l-2.39.454c1.167 3.162 1.186 3.428 1.111 7.025l-.038 1.515a.468.468 0 01-.169.36c-.113.132-.226.17-.339.17zm-1.843-1.193l1.354.133.019-.966c.075-3.654.075-3.654-1.242-7.214a.47.47 0 01.038-.417.506.506 0 01.338-.246l3.33-.625a.491.491 0 01.527.266c1.713 3.465 1.807 3.578 4.44 6.267.377.379.791.814 1.28 1.306l.96-.549-.414-1.496c-1.091-3.9-1.13-4.07-3.274-7.252a.487.487 0 01.038-.605l2.22-2.557a.472.472 0 01.376-.17.49.49 0 01.376.19l.095.113c2.314 2.821 2.314 2.821 5.38 4.506l1.017.568.564-1.23-.677-1.212c-2.409-4.298-2.409-4.298-4.535-6.249l-.451-.416a.461.461 0 01-.15-.455l.79-4.09a.49.49 0 01.3-.36c.151-.075.34-.037.47.058l.847.605c.866.625.866.625 1.713.985l.715.303 2.953.227v-1.931l-1.317-1.44c-2.615-2.858-2.709-2.972-5.418-4.203a.461.461 0 01-.282-.378l-.79-5a.521.521 0 01.15-.435.493.493 0 01.451-.113l1.637.398 1.28-.095 2.276-1.401-.715-2.424-3.65-2.178-1.505-.416-1.486.076c-.207-.02-.395-.114-.47-.303l-2.22-5.15a.488.488 0 010-.398.483.483 0 01.282-.265l1.298-.436.884-.833 1.28-3.01-1.374-2.405-3.255-.417-1.166.341-1.035.89a.471.471 0 01-.377.114.476.476 0 01-.338-.19l-3.33-4.506a.486.486 0 01-.02-.568l.828-1.231.414-1.515-.075-4.26-1.73-1.837-2.371 1.269-.734 1.041-.47 1.61a.522.522 0 01-.32.34.487.487 0 01-.452-.075l-3.932-3.2a.478.478 0 01-.188-.436c.3-2.953.263-3.03-.922-6.778l-.583-1.856-1.675-.965-1.28 2.67-.093.795c-.113.89-.113.89 0 1.969l.094 1.041a.478.478 0 01-.189.436.515.515 0 01-.47.075l-3.932-1.382a.477.477 0 01-.32-.36c-.771-3.483-.771-3.483-2.973-7.176l-.978-1.666-1.355-.133-.019.966c-.075 3.692-.075 3.692 1.186 7.063l.056.151a.469.469 0 01-.038.417.454.454 0 01-.338.246l-3.33.681a.505.505 0 01-.527-.265c-1.712-3.465-1.806-3.578-4.44-6.267-.377-.379-.79-.814-1.28-1.306l-.96.549.34 1.155c1.241 4.43 1.241 4.43 2.953 7.025l.377.549a.487.487 0 01-.038.605l-2.22 2.557a.472.472 0 01-.377.17c-.112-.019-.282-.057-.376-.17-2.39-2.897-2.39-2.897-5.418-4.582l-1.073-.606-.564 1.23.96 1.704c2.05 3.674 2.088 3.75 4.703 6.154a.461.461 0 01.15.455l-.79 4.09a.49.49 0 01-.3.36.519.519 0 01-.471-.058l-.847-.605c-.884-.625-.884-.625-1.712-.985l-.734-.322-2.954-.227v1.931c.508.55.941 1.023 1.336 1.458 2.597 2.84 2.69 2.954 5.4 4.185a.49.49 0 01.282.378l.79 5a.521.521 0 01-.15.435c-.132.113-.282.17-.452.113l-1.637-.397-1.279.094-2.277 1.401.715 2.424 3.65 2.197 1.506.397 1.505-.076a.486.486 0 01.47.303l2.22 5.15a.488.488 0 01-.3.663l-1.299.436-.884.833-1.28 3.01L11.668 65l3.255.417 1.166-.341 1.035-.89a.386.386 0 01.376-.114.553.553 0 01.339.19l3.33 4.506c.132.17.132.398.019.568l-.828 1.25-.414 1.496.075 4.241 1.75 1.837 2.37-1.25.735-1.08.47-1.608a.552.552 0 01.339-.341.447.447 0 01.451.094l3.932 3.2c.132.095.189.265.189.436-.302 2.954-.302 2.954.94 6.854l.565 1.78 1.674.966 1.28-2.632.094-.796c.113-.908.113-.908 0-1.988l-.094-1.022a.477.477 0 01.188-.436.515.515 0 01.47-.075l3.932 1.382c.17.057.283.19.32.36.772 3.522.772 3.522 2.935 7.138l.998 1.666z" fill="#0000BD"/><path d="M49.975 61.629c0 11.228-7.827 15.791-17.498 10.168-9.67-5.624-17.497-19.276-17.497-30.504 0-11.228 7.826-15.791 17.497-10.168 9.67 5.605 17.498 19.276 17.498 30.504z" fill="#fff"/><path d="M40.285 74.694c-2.521 0-5.23-.833-8.052-2.461-9.784-5.68-17.743-19.56-17.743-30.94 0-7.933 3.989-13.064 10.179-13.064 2.521 0 5.23.833 8.053 2.461 9.783 5.68 17.742 19.56 17.742 30.94 0 7.933-3.989 13.064-10.179 13.064zM24.65 29.214c-5.663 0-9.181 4.62-9.181 12.08 0 11.057 7.732 24.558 17.253 30.068 2.671 1.552 5.211 2.348 7.563 2.348 5.663 0 9.182-4.62 9.182-12.08 0-11.059-7.733-24.54-17.253-30.069-2.653-1.572-5.212-2.348-7.564-2.348z" fill="#DF0112"/></svg>