<svg width="90" height="92" fill="none" xmlns="http://www.w3.org/2000/svg"><path d="M52.503 88.638c-4.266 2.519-11.3 2.519-15.61 0L3.675 69.314c-4.266-2.519-4.266-6.594 0-9.067l33.216-19.37c4.266-2.519 11.3-2.519 15.61 0l33.217 19.37c4.266 2.519 4.266 6.594 0 9.067L61.896 83.189l-9.393 5.45z" fill="#fff"/><path d="M44.698 91.02c-3.04 0-5.9-.688-8.032-1.924L3.449 69.726C1.225 68.443 0 66.657 0 64.78c0-1.923 1.225-3.663 3.449-4.946l33.217-19.37c2.132-1.236 4.991-1.923 8.032-1.923 3.04 0 5.899.687 8.032 1.923l33.217 19.37c2.223 1.283 3.448 3.069 3.448 4.946 0 1.877-1.225 3.663-3.448 4.946L52.73 89.096c-2.133 1.236-4.992 1.923-8.032 1.923zm0-51.563c-2.86 0-5.537.64-7.533 1.786L3.948 60.659C2.042 61.758.953 63.223.953 64.78c0 1.557 1.044 3.022 2.995 4.121l33.217 19.37c1.996 1.145 4.674 1.832 7.578 1.832 2.859 0 5.536-.64 7.533-1.831l33.217-19.37c1.906-1.1 2.995-2.565 2.995-4.122s-1.044-3.022-2.995-4.121l-33.217-19.37c-1.997-1.191-4.72-1.832-7.578-1.832z" fill="#0000BD"/><path d="M84.222 64.78l-.136-.09h.045L44.88 41.792h-.045l-.136-.092L5.218 64.69l.137.092h-.046l39.252 22.896h.046l.136.092 39.48-22.988zm-37.981-7.418l11.117-6.502 11.118 6.502-11.118 6.503-11.117-6.503zm9.574 7.419l-11.117 6.502-11.118-6.502 11.118-6.503 11.117 6.503zm-11.117-8.289L33.58 49.99l11.118-6.503 11.117 6.503-11.117 6.502zm-1.543.87l-11.118 6.503-11.118-6.503 11.118-6.502 11.118 6.502zm-12.66 7.419l-11.119 6.502L8.26 64.781l11.117-6.503 11.118 6.503zm1.542.87l11.118 6.502-11.118 6.503-11.118-6.503 11.118-6.502zm12.66 7.373l11.118 6.502-11.117 6.503-11.118-6.503 11.118-6.502zm1.543-.87l11.118-6.503 11.118 6.502-11.118 6.503-11.117-6.503zm12.661-7.373l11.118-6.503 11.117 6.503-11.117 6.502L58.9 64.781z" fill="#0000BD" stroke="#fff" stroke-width=".8"/><path d="M50.642 57.637l-4.946 2.885-10.982-6.366 4.947-2.884 10.981 6.365z" fill="#fff"/><path d="M45.696 61.026c-.09 0-.182 0-.227-.046l-10.982-6.411a.482.482 0 01-.226-.412c0-.183.09-.32.226-.412l4.947-2.885c.136-.092.317-.092.499 0l10.981 6.41a.482.482 0 01.227.413.48.48 0 01-.227.412l-4.946 2.885c-.136.046-.227.046-.272.046zm-10.029-6.87l10.029 5.816 3.993-2.335-10.028-5.816-3.994 2.336z" fill="#DF0112"/><path d="M39.66 51.272l-4.946 2.885V33.87l4.947-2.885v20.286z" fill="#fff"/><path d="M34.714 54.66c-.09 0-.181 0-.227-.046a.482.482 0 01-.226-.412V33.87c0-.183.09-.32.226-.412l4.947-2.885c.136-.091.317-.091.499 0a.482.482 0 01.227.412v20.286a.483.483 0 01-.227.413l-4.992 2.885a.345.345 0 01-.227.091zm.5-20.515v19.187l3.993-2.335V31.81l-3.993 2.335z" fill="#DF0112"/><path d="M33.08 55.118l-4.99 2.884L57.675 75.22l4.946-2.885L33.08 55.118z" fill="#fff"/><path d="M57.676 75.725c-.09 0-.182 0-.227-.046L27.908 58.461a.482.482 0 01-.227-.412c0-.183.09-.32.227-.412l4.946-2.885c.136-.091.318-.091.5 0l29.54 17.218a.482.482 0 01.227.412.48.48 0 01-.227.412l-4.946 2.885c-.136 0-.227.046-.272.046zM29.087 58.003l28.589 16.669 3.993-2.335-28.588-16.669-3.994 2.335z" fill="#000"/><path d="M28.09 3.373v54.63l29.54 17.218L28.09 3.373zm6.624 30.498l10.982 26.65-10.982-6.41V33.87z" fill="#fff"/><path d="M57.676 75.725c-.09 0-.182 0-.227-.046L27.908 58.46a.482.482 0 01-.227-.412V3.373c0-.23.181-.413.408-.458a.516.516 0 01.545.274l29.45 71.849a.44.44 0 01-.136.55c-.045.09-.181.137-.272.137zM28.588 57.728l28.09 16.348L28.588 5.8v51.928zm17.108 3.297c-.09 0-.181 0-.227-.045l-10.982-6.411a.482.482 0 01-.226-.413V33.87c0-.229.181-.412.408-.458a.516.516 0 01.545.275l10.981 26.651a.44.44 0 01-.136.55.72.72 0 01-.363.137zm-10.482-7.143l9.484 5.54-9.484-23.125v17.585z" fill="#DF0112"/><path d="M62.622 72.336l-4.946 2.885L28.089 3.373 33.081.488l29.541 71.848z" fill="#fff"/><path d="M57.676 75.725c-.046 0-.09 0-.136-.046a.411.411 0 01-.273-.275L27.681 3.556c-.091-.229 0-.504.227-.595L32.854.076c.09-.092.227-.092.363-.046a.411.411 0 01.272.275l29.587 71.848c.09.23 0 .504-.227.596l-4.946 2.885c-.091.045-.182.091-.227.091zM28.724 3.556l29.179 70.978 4.13-2.38-29.18-70.98-4.129 2.382z" fill="#DF0112"/></svg>