<svg width="86" height="80" fill="none" xmlns="http://www.w3.org/2000/svg"><path d="M67.92 43.378c-16.43-9.487-33.41-9.487-49.909 0-8.25 4.743-12.374 9.556-12.374 14.437 0 4.812 4.125 9.624 12.374 14.436 16.43 9.487 33.41 9.487 49.91 0 8.248-4.744 12.373-9.556 12.373-14.437 0-4.88-4.124-9.693-12.374-14.436z" fill="#fff"/><path d="M42.966 79.813c-8.456 0-16.912-2.406-25.23-7.219-8.318-4.812-12.511-9.83-12.511-14.848 0-5.019 4.262-10.037 12.58-14.85 16.568-9.555 33.891-9.555 50.39 0 8.387 4.813 12.58 9.831 12.58 14.85 0 5.018-4.262 10.036-12.58 14.848-8.25 4.813-16.774 7.219-25.23 7.219zm0-43.103c-8.25 0-16.568 2.406-24.68 7.08-7.974 4.675-12.099 9.35-12.099 13.956 0 4.605 4.056 9.349 12.1 13.955 16.223 9.35 33.203 9.35 49.427 0 8.043-4.606 12.099-9.35 12.099-13.955 0-4.606-4.056-9.35-12.1-13.956-8.111-4.674-16.43-7.08-24.747-7.08z" fill="#0000BD"/><path d="M28.117 8.456C20.142 3.85 13.062 2.956 8.868 5.43L4.675 7.837c4.262-2.406 11.274-1.581 19.317 3.025 12.924 7.493 23.442 21.93 23.442 32.31 0 3.987-1.512 6.737-4.193 8.25l4.124-2.407c2.613-1.512 4.194-4.33 4.194-8.25 0-10.38-10.518-24.816-23.442-32.31z" fill="#fff"/><path d="M43.24 51.971c-.206 0-.343-.068-.412-.275-.137-.275-.069-.55.206-.687 2.544-1.444 3.919-4.194 3.919-7.837 0-10.174-10.38-24.473-23.167-31.829-4.881-2.819-9.556-4.33-13.474-4.33-2.063 0-3.85.412-5.294 1.236-.275.138-.55.07-.687-.206-.138-.275-.069-.55.206-.687L8.662 4.95c1.581-.963 3.575-1.375 5.843-1.375 4.125 0 8.937 1.512 13.955 4.468 13.062 7.562 23.718 22.205 23.718 32.723 0 4.056-1.513 7.08-4.4 8.73l-4.125 2.407c-.275.068-.344.068-.412.068zM10.244 5.981c4.125 0 8.937 1.512 13.955 4.468 13.062 7.562 23.717 22.205 23.717 32.723 0 2.269-.48 4.262-1.443 5.843l.687-.412c2.544-1.444 3.919-4.194 3.919-7.837 0-10.174-10.38-24.473-23.168-31.898-4.95-2.75-9.555-4.262-13.473-4.262-2.063 0-3.85.412-5.294 1.237L8.8 6.05c.413-.07.963-.07 1.444-.07z" fill="#0000BD"/><path d="M23.992 10.862c-8.043-4.606-15.055-5.5-19.317-3.025C2.062 9.349.48 12.167.48 16.087c0 5.361 2.819 11.755 7.287 17.804l-3.987 7.15 10.655.275a52.807 52.807 0 009.487 7.15c7.975 4.605 15.055 5.499 19.249 3.024 2.612-1.512 4.193-4.33 4.193-8.25.07-10.449-10.449-24.885-23.373-32.378z" fill="#fff"/><path d="M37.672 53.278c-4.124 0-8.937-1.513-13.955-4.469-3.3-1.856-6.462-4.262-9.487-7.08L3.781 41.59c-.206 0-.344-.069-.412-.275a.587.587 0 010-.481l3.85-6.875C2.543 27.636 0 21.311 0 16.087c0-4.056 1.512-7.081 4.4-8.731 1.58-.894 3.574-1.375 5.843-1.375 4.125 0 8.937 1.512 13.955 4.468 13.062 7.562 23.717 22.205 23.717 32.723 0 4.056-1.512 7.08-4.4 8.73-1.65.894-3.574 1.376-5.843 1.376zM4.675 40.56l9.762.206c.137 0 .274.069.343.137a55.336 55.336 0 009.418 7.081c4.881 2.819 9.556 4.331 13.474 4.331 2.063 0 3.85-.412 5.294-1.237 2.543-1.444 3.918-4.194 3.918-7.837 0-10.175-10.38-24.474-23.167-31.83-4.88-2.818-9.555-4.33-13.474-4.33-2.062 0-3.85.412-5.293 1.237-2.544 1.444-3.919 4.194-3.919 7.837 0 5.087 2.544 11.274 7.15 17.462.137.137.137.343.068.55L4.675 40.56z" fill="#0000BD"/><path d="M81.325 74.382l-5.362 3.025-5.087-15.055 5.293-3.025 5.156 15.055z" fill="#fff"/><path d="M75.963 77.957h-.206c-.138-.069-.275-.137-.275-.344l-5.087-15.055a.554.554 0 01.206-.619l5.293-3.093c.138-.069.275-.069.413-.069.138.069.275.138.275.344l5.087 15.055a.555.555 0 01-.206.619l-5.293 3.093s-.07.069-.207.069zm-4.468-15.33l4.743 14.092 4.4-2.543-4.744-14.093-4.4 2.544z" fill="#DF0112"/><path d="M55.546 6.119C45.372.206 36.366-.893 30.936 2.2l-5.294 3.094C31.072 2.2 40.078 3.3 50.252 9.212c16.5 9.556 29.905 28.048 29.905 41.247 0 5.087-1.994 8.593-5.294 10.518l5.294-3.093c3.368-1.925 5.293-5.5 5.293-10.519.069-13.267-13.337-31.76-29.904-41.246z" fill="#fff"/><path d="M74.863 61.458c-.206 0-.343-.069-.412-.275-.138-.275-.069-.55.206-.687 3.3-1.925 5.087-5.431 5.087-10.106 0-13.062-13.336-31.348-29.698-40.834-6.255-3.575-12.236-5.5-17.255-5.5-2.68 0-5.018.55-6.874 1.65-.275.137-.55.069-.688-.206-.137-.275-.068-.55.207-.688l5.293-3.093C32.723.619 35.197 0 38.085 0c5.224 0 11.343 1.925 17.736 5.637C72.457 15.261 86 33.96 86 47.365c0 5.087-1.925 8.868-5.568 11l-5.294 3.093h-.275zM32.723 3.094c5.224 0 11.343 1.924 17.736 5.637 16.636 9.624 30.179 28.323 30.179 41.728 0 3.093-.756 5.774-2.131 7.837l1.375-.756c3.3-1.925 5.087-5.431 5.087-10.106 0-13.061-13.337-31.348-29.698-40.834-6.256-3.644-12.237-5.5-17.255-5.5-2.681 0-5.018.55-6.874 1.65l-1.032.619c.894-.275 1.719-.275 2.613-.275z" fill="#DF0112"/><path d="M70.876 62.352c1.512-.275 2.819-.756 3.987-1.444 3.369-1.925 5.294-5.5 5.294-10.518 0-13.267-13.406-31.691-29.904-41.247C40.01 3.3 31.004 2.131 25.642 5.293c-3.369 1.925-5.293 5.5-5.293 10.587 0 13.268 13.405 31.692 29.904 41.247 4.33 2.475 8.455 4.125 12.167 4.95l13.612 15.399-5.156-15.124z" fill="#fff"/><path d="M75.963 77.957c-.137 0-.275-.069-.412-.137L62.077 62.49c-3.85-.894-7.975-2.544-12.1-4.95C33.342 47.916 19.8 29.217 19.8 15.812c0-5.087 1.924-8.937 5.568-11 2.062-1.168 4.537-1.787 7.356-1.787 5.224 0 11.343 1.925 17.736 5.637 16.636 9.624 30.179 28.323 30.179 41.728 0 5.087-1.925 8.868-5.568 11-1.032.618-2.269 1.1-3.575 1.374l4.95 14.506a.555.555 0 01-.207.618c-.069 0-.137.07-.275.07zm-43.24-73.9c-2.681 0-5.019.55-6.875 1.65-3.3 1.924-5.087 5.43-5.087 10.105 0 13.061 13.336 31.347 29.698 40.834 4.125 2.406 8.18 4.056 12.03 4.881.138 0 .207.069.275.137l11.893 13.474-4.262-12.58c-.069-.137 0-.275.069-.412.068-.138.206-.206.343-.275 1.444-.275 2.681-.756 3.85-1.375 3.3-1.925 5.087-5.431 5.087-10.106 0-13.061-13.336-31.347-29.698-40.834-6.324-3.575-12.305-5.5-17.323-5.5z" fill="#DF0112"/><path d="M50.321 26.88c-1.512-.895-2.887-.963-3.85-.413l-3.85 2.2c.963-.55 2.338-.482 3.85.412 3.025 1.719 5.432 5.98 5.432 9.418 0 1.719-.62 2.956-1.582 3.506l3.85-2.2c.962-.55 1.581-1.787 1.581-3.506.069-3.506-2.406-7.7-5.43-9.418z" fill="#fff"/><path d="M50.39 42.484c-.206 0-.344-.068-.412-.275-.138-.274-.07-.55.206-.687.894-.481 1.306-1.581 1.306-3.093 0-3.3-2.337-7.356-5.156-9.006-1.237-.756-2.475-.894-3.3-.412-.275.137-.55.068-.687-.207-.138-.275-.069-.55.206-.687l3.85-2.2c1.169-.688 2.75-.55 4.33.412 3.163 1.788 5.707 6.256 5.707 9.831 0 1.856-.688 3.3-1.856 3.987l-3.781 2.2c-.275.137-.344.137-.413.137zm-5.362-14.573c.55.137 1.169.343 1.719.687 3.162 1.787 5.706 6.256 5.706 9.83 0 .688-.07 1.307-.276 1.857l1.72-1.031c.824-.482 1.305-1.582 1.305-3.094 0-3.3-2.337-7.287-5.156-9.006-1.237-.756-2.474-.893-3.368-.412l-1.65 1.169z" fill="#DF0112"/><path d="M41.11 32.173c0 3.437 2.406 7.7 5.43 9.418 1.513.893 2.888.962 3.85.412.962-.55 1.581-1.787 1.581-3.506 0-3.437-2.406-7.7-5.43-9.418-1.513-.893-2.888-.962-3.85-.412-.963.55-1.582 1.787-1.582 3.506z" fill="#fff"/><path d="M48.947 42.828c-.826 0-1.72-.275-2.682-.825-3.162-1.787-5.705-6.255-5.705-9.83 0-1.856.687-3.3 1.856-3.988 1.168-.687 2.75-.55 4.33.413 3.163 1.787 5.706 6.256 5.706 9.83 0 1.857-.687 3.3-1.856 3.988-.48.275-1.03.412-1.65.412zm-4.813-14.024c-.412 0-.825.069-1.168.275-.894.481-1.306 1.581-1.306 3.094 0 3.3 2.337 7.355 5.155 9.005.757.413 1.513.688 2.2.688.413 0 .825-.069 1.169-.275.894-.481 1.306-1.581 1.306-3.094 0-3.3-2.337-7.355-5.156-9.005-.825-.413-1.581-.688-2.2-.688z" fill="#DF0112"/><path d="M36.16 20.417c-1.1-.618-2.131-.687-2.819-.275l-2.818 1.65c.756-.412 1.719-.344 2.818.275 2.2 1.306 3.988 4.4 3.988 6.943 0 1.238-.482 2.2-1.17 2.613l2.82-1.65c.756-.413 1.168-1.306 1.168-2.613 0-2.612-1.787-5.705-3.987-6.943z" fill="#fff"/><path d="M36.16 32.035c-.206 0-.344-.068-.412-.275-.138-.275-.07-.55.206-.687.618-.344.893-1.1.893-2.131 0-2.406-1.65-5.294-3.712-6.462-.893-.482-1.718-.619-2.337-.275-.275.137-.55.068-.688-.206-.137-.275-.068-.55.207-.688l2.818-1.65c.894-.55 2.131-.412 3.3.275 2.406 1.375 4.262 4.606 4.262 7.356 0 1.443-.481 2.475-1.444 3.025l-2.818 1.65c-.069.068-.206.068-.275.068zm-3.575-10.93c.344.137.688.275 1.031.481 2.406 1.375 4.263 4.606 4.263 7.356 0 .412-.07.756-.138 1.1l.962-.55c.62-.344.894-1.1.894-2.131 0-2.407-1.65-5.294-3.712-6.463-.894-.55-1.719-.618-2.337-.274l-.963.48z" fill="#DF0112"/><path d="M29.354 24.336c0 2.543 1.788 5.637 3.987 6.943 1.1.619 2.131.687 2.819.275.756-.413 1.169-1.306 1.169-2.612 0-2.544-1.788-5.637-3.988-6.944-1.1-.618-2.13-.687-2.818-.275-.688.413-1.169 1.306-1.169 2.613z" fill="#fff"/><path d="M35.129 32.31c-.619 0-1.306-.206-2.063-.619-2.406-1.375-4.262-4.606-4.262-7.356 0-1.443.481-2.474 1.444-3.024.893-.55 2.13-.413 3.3.275 2.406 1.375 4.262 4.606 4.262 7.355 0 1.444-.481 2.475-1.444 3.025a2.374 2.374 0 01-1.237.344zm-3.575-10.312c-.275 0-.55.069-.756.206-.619.344-.894 1.1-.894 2.131 0 2.406 1.65 5.294 3.712 6.462.894.482 1.719.62 2.338.276.618-.344.893-1.1.893-2.132 0-2.406-1.65-5.293-3.712-6.462-.55-.343-1.1-.48-1.581-.48z" fill="#DF0112"/><path d="M64.483 36.572c-1.1-.618-2.131-.687-2.819-.275l-2.818 1.65c.756-.412 1.718-.344 2.818.275 2.2 1.238 3.987 4.331 3.987 6.943 0 1.307-.48 2.2-1.168 2.613l2.818-1.65c.757-.413 1.169-1.306 1.169-2.612 0-2.613-1.787-5.706-3.987-6.944z" fill="#fff"/><path d="M64.483 48.19c-.206 0-.344-.069-.413-.275-.137-.275-.068-.55.207-.687.618-.344.893-1.1.893-2.131 0-2.406-1.65-5.294-3.712-6.462-.894-.481-1.719-.619-2.337-.275-.275.137-.55.069-.688-.206-.137-.276-.069-.55.206-.688l2.819-1.65c.894-.55 2.131-.412 3.3.275 2.406 1.375 4.262 4.606 4.262 7.356 0 1.444-.481 2.475-1.444 3.025l-2.818 1.65c-.138.068-.206.068-.275.068zm-3.575-10.86c.344.068.688.274 1.031.412 2.406 1.375 4.262 4.606 4.262 7.356 0 .412-.068.756-.137 1.1l.962-.55c.62-.344.894-1.1.894-2.131 0-2.407-1.65-5.294-3.712-6.462-.894-.482-1.719-.62-2.337-.275l-.963.55z" fill="#DF0112"/><path d="M57.677 40.49c0 2.544 1.787 5.638 3.987 6.944 1.1.619 2.131.687 2.819.275.756-.413 1.168-1.306 1.168-2.612 0-2.544-1.787-5.638-3.987-6.944-1.1-.618-2.13-.687-2.818-.275-.756.413-1.169 1.306-1.169 2.613z" fill="#fff"/><path d="M63.452 48.465c-.62 0-1.306-.207-2.063-.619-2.406-1.375-4.262-4.606-4.262-7.356 0-1.443.481-2.474 1.444-3.024.893-.55 2.13-.413 3.3.275 2.406 1.374 4.262 4.605 4.262 7.355 0 1.444-.481 2.475-1.444 3.025a2.373 2.373 0 01-1.237.344zm-3.575-10.312c-.275 0-.55.069-.756.206-.619.344-.894 1.1-.894 2.131 0 2.406 1.65 5.294 3.712 6.462.55.344 1.1.482 1.513.482.275 0 .55-.07.756-.207.618-.343.894-1.1.894-2.13 0-2.407-1.65-5.294-3.713-6.463-.55-.343-1.03-.481-1.512-.481z" fill="#DF0112"/></svg>