<svg width="86" height="94" fill="none" xmlns="http://www.w3.org/2000/svg"><path d="M57.648 74.046c4.578-10.484 3.367-21.025-2.704-23.544-6.072-2.518-14.704 3.94-19.281 14.424-4.578 10.485-3.367 21.026 2.704 23.544 6.072 2.519 14.704-3.94 19.282-14.424z" stroke="#0000BD" stroke-miterlimit="10" stroke-linecap="round" stroke-linejoin="round"/><path d="M35.616 72.977A31.498 31.498 0 0138.156 65c.752.459 3.574 2.017 4.232 2.384a8.644 8.644 0 00-.846 4.31c.282 3.3 2.916 5.042 5.738 3.85 1.505-.641 2.728-1.833 3.574-3.392l.094.092 4.045 2.292.094.091c-2.163 4.493-5.268 8.344-8.654 10.362-6.302 3.85-11.288.091-11.005-8.436-.189-1.192 0-2.384.188-3.576z" stroke="#DF0112" stroke-miterlimit="10" stroke-linecap="round" stroke-linejoin="round"/><path d="M48.906 70.419c.773-1.771.392-3.625-.851-4.14-1.243-.516-2.877.502-3.65 2.273-.773 1.77-.392 3.624.85 4.14 1.243.515 2.878-.502 3.65-2.273zM31.891 85.36l-2.633 2.2L27 85.084l1.6-1.467" stroke="#DF0112" stroke-miterlimit="10" stroke-linecap="round" stroke-linejoin="round"/><path d="M10.124 72.611c9.407 5.318 27.844 15.68 27.844 15.68M14.357 34.467C7.208 39.143 1.47 50.054 1.47 59.59c0 5.41 1.882 9.26 4.798 10.82.094.09.282.183.47.274m48.443-20.079s-3.01-1.65-7.149-4.035" stroke="#0000BD" stroke-miterlimit="10" stroke-linecap="round" stroke-linejoin="round"/><path d="M47.468 34.743s26.527-14.946 29.725-16.688l7.337 8.252-36.591 20.355" stroke="#0000BD" stroke-miterlimit="10" stroke-linecap="round" stroke-linejoin="round"/><path d="M45.535 40.594l-2.047.997L42 38.3l3.07-1.596L46 38.7" stroke="#DF0112" stroke-miterlimit="10" stroke-linecap="round" stroke-linejoin="round"/><path d="M47.938 46.663l-5.456 3.026 4.704-14.855m-20.13-10.728l-15.709 8.802 4.892-15.22m-.001.367l30.948 16.78m-31.606.366l-4.139-2.293m20.412 11.096l-12.887-6.97m23.517 12.654l-8.184-4.401m42.8-27.233S48.69 2.742 45.587 1c-2.822 1.65-29.255 16.504-29.255 16.504" stroke="#0000BD" stroke-miterlimit="10" stroke-linecap="round" stroke-linejoin="round"/><path d="M22.02 44.605L19.285 46.7l2.151 2.668 2.737-2.097-2.151-2.667zm-9.261 1.503l-3.134-1.471-1.497 3.065 3.134 1.471 1.497-3.065zm-5.833 24.67l1.693-1.284 2.164 2.66-2.728 2.016-2.163-2.567 1.034-.825zm9.055-36.654l-.798 3.304 3.388.777.798-3.303-3.388-.778zm15.477 21.15L28 55.66l.396 3.37 3.458-.386-.396-3.37z" stroke="#DF0112" stroke-miterlimit="10" stroke-linecap="round" stroke-linejoin="round"/><path d="M12.622 79.841l-1.019 3.245 3.328.993 1.02-3.245-3.329-.993zm21.113-32.262l-3.48-2.934 4.326-1.376-.846 4.31zm-12.23 24.526L20 67.978l4.421.734-2.916 3.392zM12.382 59.68v-4.4l3.95 2.2-3.95 2.2z" stroke="#0000BD" stroke-miterlimit="10" stroke-linecap="round" stroke-linejoin="round"/></svg>