<svg width="80" height="91" fill="none" xmlns="http://www.w3.org/2000/svg"><path d="M52.817 76.941l-12.634 7.292c.144-.072.217-.361.217-.866l12.634-7.292c0 .433-.073.722-.217.866z" fill="#fff"/><path d="M40.255 84.666c-.144 0-.36-.073-.433-.217-.144-.216-.072-.433.072-.578 0-.072.072-.216.072-.505 0-.144.073-.36.217-.433l12.634-7.292a.617.617 0 01.505 0c.145.072.217.217.217.433 0 .434-.072 1.083-.433 1.3l-12.634 7.22c-.072.072-.145.072-.217.072z" fill="#0000BD"/><path d="M53.034 76.075l-12.562 7.219v-.144l12.562-7.292v.216z" fill="#fff"/><path d="M53.034 75.858L40.472 83.15c0-.65.216-1.083.577-1.3l12.634-7.291c-.36.216-.65.65-.65 1.3z" fill="#fff"/><path d="M40.472 83.655c-.072 0-.145 0-.217-.072-.144-.072-.216-.217-.216-.433 0-.794.288-1.444.866-1.733l12.634-7.292a.47.47 0 11.505.795c-.216.144-.36.433-.36.866 0 .144-.073.36-.217.433l-12.634 7.292c-.217.072-.289.144-.361.144z" fill="#0000BD"/><path d="M40.76 49.724l-6.497-3.754c-1.083-.65-1.588-1.805-1.01-2.6l2.454-3.537-12.634 7.292-2.455 3.537c-.577.795-.072 1.95 1.011 2.6l6.497 3.754c1.083.65 2.022 2.238 2.022 3.465v13.14c0 .65-.217 1.082-.578 1.299l12.635-7.292c.36-.216.577-.65.577-1.3V53.262c0-1.3-.938-2.887-2.021-3.537z" fill="#fff"/><path d="M29.57 75.425c-.144 0-.36-.072-.433-.217a.47.47 0 01.145-.65c.216-.144.36-.433.36-.866v-13.14c0-1.082-.794-2.526-1.804-3.103l-6.498-3.755c-.722-.433-1.3-1.083-1.444-1.805-.144-.505 0-1.082.29-1.443l2.454-3.538.144-.144 12.634-7.292c.217-.144.433-.072.578.072.144.145.144.433.072.578l-2.455 3.537c-.144.217-.144.506-.144.722.072.433.433.867 1.01 1.228l6.498 3.754c1.3.722 2.238 2.454 2.238 3.898v13.14c0 .794-.289 1.444-.866 1.732l-12.634 7.292h-.145zm-6.136-27.94l-2.455 3.466c-.144.289-.144.505-.144.722.072.433.433.866 1.01 1.227l6.498 3.754c1.3.722 2.238 2.455 2.238 3.899v13.211l11.262-6.497c.217-.144.361-.433.361-.866V53.26c0-1.083-.794-2.527-1.804-3.104l-6.498-3.754c-.722-.434-1.3-1.083-1.444-1.805a1.68 1.68 0 01.289-1.444l1.227-1.733-10.54 6.065z" fill="#0000BD"/><path d="M60.036 59.76l-4.909-2.816c-1.083-.65-2.021-2.239-2.021-3.538v-.361c0-1.083-.433-1.66-.939-1.372l-12.634 7.364c.506-.289.939.217.939 1.372v.36c0 1.3.938 2.889 2.021 3.466l4.91 2.816c.433.288.794.288 1.01.216l12.634-7.291c-.216.072-.577.072-1.01-.217z" fill="#fff"/><path d="M48.124 67.773c-.288 0-.65-.072-1.01-.289l-4.91-2.816c-1.3-.722-2.238-2.454-2.238-3.898v-.361c0-.578-.144-.866-.216-.939a.47.47 0 11-.505-.794l12.634-7.291c.721-.434 1.66-.073 1.66 1.732v.289c0 1.083.794 2.527 1.805 3.104l4.91 2.816c.288.144.432.217.504.217a.47.47 0 11.506.794L48.63 67.628c-.145.073-.289.145-.506.145zm-7.508-8.808c.217.289.289.794.289 1.444v.36c0 1.084.794 2.528 1.805 3.105l4.909 2.816c.433.216.505.216.505.216l11.551-6.642-4.836-2.815c-1.3-.722-2.239-2.455-2.239-3.899v-.36c0-.65-.144-.94-.216-.94l-11.768 6.715z" fill="#0000BD"/><path d="M39.605 40.483L35.274 26.62c-.433-1.444-1.733-3.032-2.816-3.537l-10.685-4.837c-.433-.145-.65-.217-.794-.145L8.345 25.394c.145-.072.433-.072.794.144l10.685 4.837c1.083.506 2.383 2.094 2.816 3.538l4.331 13.861c.217.722.217 1.083.073 1.228l12.634-7.292c.144-.145.144-.505-.072-1.227z" fill="#fff"/><path d="M27.116 49.435c-.145 0-.361-.072-.433-.216a.445.445 0 01.072-.506c0-.072 0-.288-.145-.722L22.28 34.13c-.433-1.3-1.588-2.743-2.6-3.249L8.924 25.972c-.217-.144-.361-.144-.433-.144-.217.072-.506 0-.578-.217a.47.47 0 01.144-.65l12.635-7.291c.288-.145.65-.145 1.227.144l10.685 4.837c1.227.578 2.599 2.238 3.104 3.826l4.332 13.862c.216.65.36 1.444-.145 1.732l-12.562 7.292c-.072.072-.144.072-.216.072zM9.573 25.178L20.04 29.87c1.227.577 2.599 2.238 3.104 3.826l4.332 13.933c.072.145.072.29.144.506l11.696-6.787c0-.072 0-.288-.145-.721L34.84 26.765c-.434-1.3-1.589-2.743-2.527-3.249L21.629 18.68c-.289-.144-.433-.144-.433-.144L9.573 25.178z" fill="#0000BD"/><path d="M33.252 32.108c.072-.144.217-.217.29-.289.577-.289 1.299.217 1.732 1.444l2.454 6.353c.434 1.227.29 2.238-.36 2.6-.145.071-.29.144-.434.144h-.216c-.217 0-.361.072-.434.144-.433.217-.144.794.723 1.444l10.684 7.508c.794.578 1.733.65 2.31.289.217-.145.434-.289.506-.578l4.332-8.88c.433-.938 0-1.588-.939-1.516h-.144c-.939.072-2.238-1.01-2.744-2.454l-6.93-17.832c-.578-1.444-1.95-3.105-3.033-3.755L27.332 8.79c-1.082-.65-2.021-1.156-2.021-1.156s-.433.65-1.01 1.444l-7.653 11.046c-.578.794-.217 2.382.721 3.61l9.819 12.2c.794 1.011 1.805 1.372 2.455 1.011a.564.564 0 00.288-.289l3.321-4.548zM58.52 56.005c-.577-1.444-1.805-2.527-2.743-2.455l-9.819.866c-.144 0-.288.073-.433.145-.65.36-.794 1.444-.288 2.599l3.176 8.447c.361.866.289 1.443 0 1.588-.216.144-.577.072-1.01-.217l-4.91-2.743c-1.083-.65-2.021-2.238-2.021-3.465v-.362c0-1.082-.433-1.66-.939-1.371l-.216.216-6.353 6.353c-.65.65-.65 2.383 0 3.755l6.353 13.717c.433.866.722 1.227.938 1.082.145-.072.217-.36.217-.866v-.144c0-.65.216-1.083.577-1.3.361-.216.867-.144 1.444.145l13.79 8.013c.866.506 1.876.506 2.526.145.217-.145.361-.217.506-.434l6.858-9.746c.578-.794.578-2.599 0-4.043L58.52 56.005z" fill="#fff"/><path d="M57.798 90.875c-.577 0-1.227-.145-1.732-.506l-13.79-7.941c-.36-.217-.721-.289-.938-.144-.217.144-.36.433-.36.866v.144c0 .722-.145 1.083-.434 1.3-.072.072-.217.072-.361.072-.433 0-.866-.433-1.3-1.444L32.53 69.505c-.722-1.588-.722-3.537.073-4.332l6.353-6.353c.072-.144.216-.216.36-.288.723-.434 1.661-.145 1.661 1.732v.361c0 1.083.794 2.527 1.805 3.105l4.91 2.815c.288.144.432.217.505.217.072-.073.072-.361-.145-1.011l-3.248-8.375c-.578-1.444-.361-2.743.505-3.248.216-.073.36-.145.65-.217l9.818-.866h.144c1.156 0 2.527 1.155 3.105 2.743l7.725 19.854c.65 1.588.577 3.537-.073 4.476l-6.858 9.746a1.705 1.705 0 01-.65.578c-.433.288-.866.433-1.372.433zM41.555 81.2c.36 0 .722.144 1.155.36l13.789 7.942c.36.216.866.36 1.227.36.29 0 .578-.071.794-.216a.564.564 0 00.29-.288l6.858-9.747c.433-.577.505-2.166-.073-3.61l-7.58-19.78c-.505-1.3-1.516-2.167-2.238-2.167l-9.89.867c-.073 0-.145 0-.217.072-.361.217-.506 1.01-.145 2.021l3.25 8.375c.577 1.516.144 2.021-.217 2.238-.361.217-.867.144-1.444-.217l-4.91-2.815c-1.3-.722-2.238-2.455-2.238-3.899v-.36c0-.65-.144-.94-.216-.94-.072.073-.145.073-.145.145l-6.353 6.425c-.433.434-.505 1.878.072 3.25l6.354 13.716c.072.217.216.361.288.506v-.216c0-.794.29-1.444.867-1.733.216-.216.505-.288.722-.288z" fill="#0000BD"/><path d="M23.073 47.124c.072-.144.216-.216.289-.288.65-.361 1.66 0 2.454 1.01l.217.29c.505.649.866.866 1.01.793.145-.072.145-.505-.072-1.227L22.64 33.841c-.433-1.444-1.733-3.032-2.816-3.538L9.14 25.466c-.433-.144-.65-.216-.794-.144-.216.144-.072.65.578 1.444l.144.144c.939 1.227 1.3 2.816.722 3.61l-6.93 9.89c-.578.795-1.444 2.094-2.022 2.816-.578.794-.361 2.527.361 3.898l8.158 15.09c.722 1.37 2.238 3.031 3.393 3.681l15.377 8.88c.578.289 1.083.361 1.444.144.361-.216.578-.65.578-1.3V60.554c0-1.3-.939-2.888-2.021-3.466l-6.498-3.754c-1.083-.65-1.588-1.805-1.01-2.599l2.454-3.61z" fill="#fff"/><path d="M29.065 75.57c-.36 0-.722-.145-1.155-.361l-15.377-8.88c-1.156-.65-2.744-2.383-3.538-3.899L.765 47.414c-.867-1.589-1.011-3.466-.361-4.404l8.952-12.706c.36-.506.144-1.95-.722-3.033l-.144-.144c-.795-.939-.795-1.372-.722-1.66.072-.217.144-.362.36-.506.29-.144.65-.144 1.228.144l10.685 4.837c1.227.578 2.599 2.239 3.104 3.827l4.332 13.861c.216.65.36 1.444-.145 1.733-.072.072-.216.072-.288.072-.217 0-.65-.144-1.3-.939l-.216-.288c-.795-.939-1.517-1.083-1.805-.939-.073.072-.145.072-.145.145L20.98 50.95c-.144.217-.144.505-.144.722.072.433.433.866 1.01 1.227l6.498 3.755c1.3.721 2.238 2.454 2.238 3.898V73.62c0 .794-.289 1.444-.866 1.733-.145.144-.361.216-.65.216zM8.851 25.9c.072.144.216.288.433.577l.144.145c1.083 1.371 1.444 3.248.722 4.187L1.27 43.515c-.36.578-.289 2.094.361 3.393L9.79 61.997c.722 1.3 2.166 2.888 3.177 3.465l15.377 8.88c.361.217.722.289.939.145.216-.145.36-.434.36-.867V60.553c0-1.083-.793-2.527-1.804-3.104l-6.498-3.755c-.722-.433-1.3-1.082-1.444-1.804-.144-.506 0-1.083.29-1.444l2.454-3.538c.144-.216.288-.36.505-.433.866-.505 2.094 0 3.032 1.155l.217.289c.072.072.072.144.144.144 0-.072 0-.072-.072-.144l-4.332-13.861c-.433-1.3-1.588-2.744-2.599-3.25L8.923 25.973s-.072 0-.072-.072z" fill="#0000BD"/><path d="M78.807 68.567l-7.725-19.854c-.577-1.444-1.805-2.526-2.743-2.454l-9.819.938c-.144 0-.288.072-.433.145l-12.562 7.22c.145-.073.29-.145.434-.145l9.818-.867c.938-.072 2.238 1.011 2.743 2.455l7.725 19.854c.578 1.443.578 3.248 0 4.042l-6.858 9.747a3.135 3.135 0 01-.506.433l12.634-7.292c.217-.144.361-.216.434-.433l6.858-9.746c.578-.794.578-2.6 0-4.043z" fill="#fff"/><path d="M58.881 90.586c-.144 0-.36-.072-.433-.217a.47.47 0 01.145-.65.564.564 0 00.288-.288l6.859-9.747c.433-.577.505-2.165-.072-3.61l-7.653-19.853c-.505-1.3-1.516-2.166-2.238-2.166l-9.89.867c-.073 0-.145 0-.217.072a.47.47 0 11-.506-.794l12.707-7.292c.216-.144.433-.144.65-.217l9.818-.866h.144c1.155 0 2.455 1.155 3.105 2.744l7.725 19.853c.65 1.588.577 3.538-.073 4.476l-6.858 9.746a1.705 1.705 0 01-.65.578L59.17 90.514c-.144.072-.216.072-.289.072zm-3.032-37.47c1.155 0 2.527 1.156 3.105 2.744l7.724 19.854c.65 1.588.578 3.537-.072 4.476l-5.775 8.23 10.396-5.992a.564.564 0 00.288-.289l6.859-9.746c.433-.578.505-2.166-.072-3.61L70.649 48.93c-.505-1.3-1.516-2.166-2.238-2.166l-9.89.866c-.073 0-.145 0-.217.072l-10.54 6.065 7.869-.722c.072.072.216.072.216.072z" fill="#0000BD"/><path d="M66.462 33.552c-.939.072-2.238-1.01-2.744-2.454l-6.93-17.832c-.578-1.444-1.95-3.105-3.032-3.754L40.039 1.57C38.956.92 38.017.415 38.017.415L25.383 7.707s.939.505 2.022 1.155l13.716 7.941c1.084.65 2.455 2.31 3.033 3.754l6.93 17.832c.578 1.444 1.805 2.527 2.744 2.455.938-.072 1.516.578 1.083 1.516l-4.332 8.88 12.634-7.292 4.332-8.88c.433-.866-.145-1.588-1.083-1.516z" fill="#fff"/><path d="M50.579 51.673c-.144 0-.217-.072-.361-.144-.144-.145-.217-.361-.072-.578l4.331-8.88c.145-.216.145-.433.073-.577-.072-.145-.29-.217-.506-.217h-.288c-1.156 0-2.527-1.155-3.105-2.743l-6.93-17.832c-.506-1.3-1.805-2.96-2.816-3.538L25.166 8.14c-.144-.072-.216-.217-.216-.433 0-.145.072-.361.216-.433L37.728.054a.617.617 0 01.506 0l15.738 9.097c1.227.722 2.671 2.454 3.249 4.043l6.93 17.832c.506 1.3 1.517 2.165 2.239 2.165h.288c.578 0 1.083.217 1.372.65.289.433.289 1.01 0 1.516l-4.332 8.88-.216.217-12.706 7.22h-.217zm3.465-11.334c.578 0 1.083.216 1.372.65.289.433.289 1.01 0 1.516l-3.682 7.436 11.118-6.426 4.26-8.735c.144-.217.144-.433.072-.578-.072-.144-.289-.216-.506-.216h-.288c-1.156 0-2.527-1.155-3.105-2.744l-6.93-17.76c-.506-1.3-1.805-2.96-2.816-3.537L38.017.993 26.394 7.707 41.41 16.37c1.228.722 2.672 2.455 3.25 4.043l6.858 17.832c.505 1.3 1.516 2.166 2.238 2.166.144 0 .216-.072.288-.072z" fill="#DF0112"/><path d="M49.207 52.467c-.577 0-1.227-.216-1.804-.577l-10.685-7.51c-.722-.505-1.155-1.083-1.083-1.588 0-.289.144-.578.433-.722a1.44 1.44 0 01.65-.144h.216c.072 0 .145 0 .217-.072.36-.217.505-1.011.144-2.022l-2.454-6.353c-.361-.866-.794-1.227-.939-1.227-.144.072-.144.072-.217.144l-3.32 4.62c-.145.217-.29.361-.506.434a1.455 1.455 0 01-.794.216c-.722 0-1.588-.505-2.31-1.371l-9.746-12.273c-1.083-1.372-1.444-3.25-.722-4.188l8.735-12.417a.47.47 0 01.65-.145L41.41 16.37c1.228.722 2.672 2.454 3.25 4.043l6.858 17.832c.505 1.3 1.516 2.166 2.238 2.166h.216c.65-.072 1.155.144 1.444.577.289.433.217 1.01-.072 1.589l-4.332 8.88c-.144.288-.433.577-.722.794-.288.144-.65.216-1.083.216zm-12.634-9.53c.072 0 .217.29.722.65l10.685 7.508c.578.434 1.372.506 1.805.29a.87.87 0 00.36-.362l4.332-8.88c.145-.288.145-.505.073-.65-.072-.144-.29-.144-.433-.144h-.434c-1.155 0-2.526-1.155-3.104-2.743l-6.93-17.832c-.506-1.3-1.806-2.96-2.816-3.538l-15.305-8.88-8.447 12.057c-.361.505-.145 1.949.722 3.032l9.818 12.2c.794.94 1.516 1.084 1.805.94a.155.155 0 00.144-.145l3.25-4.62c.144-.217.288-.361.432-.434.794-.433 1.877.217 2.383 1.66l2.454 6.354c.578 1.444.361 2.743-.505 3.249l-.65.216h-.216c-.073 0-.145.072-.145.072z" fill="#DF0112"/></svg>