<svg width="122" height="92" fill="none" xmlns="http://www.w3.org/2000/svg"><path d="M53.634 71v1.93l.305 16.547v1.156L120.5 52.796V31.5" stroke="#0000BD" stroke-miterlimit="10" stroke-linecap="round" stroke-linejoin="round"/><path d="M38 81.5l15.878 9.196.061-1.217M2.162 43.5v17.448l13.082 7.543m1.222.669l7.336 4.198.795.486 13.57 7.848" stroke="#0000BD" stroke-miterlimit="10" stroke-linecap="round" stroke-linejoin="round"/><path d="M1.306 40.5v2.72s.305.122.856.304c3.912 1.278 20.05 6.814 25.43 9.794 6.969 3.894 24.758 19.102 26.103 20.258l.061.061 66.266-38.508.478-.129v-3" stroke="#DF0112" stroke-miterlimit="10" stroke-linecap="round" stroke-linejoin="round"/><path d="M1.306 40.238l67-38.933s19.989 6.57 26.102 9.976c7.275 4.076 26.347 20.44 26.347 20.44L53.756 70.656s-18.95-16.242-26.164-20.318c-6.174-3.469-26.286-10.1-26.286-10.1z" stroke="#DF0112" stroke-miterlimit="10" stroke-linecap="round" stroke-linejoin="round"/><path d="M38.168 81.693V66.059L16.466 53.527l-.55-.304V69" stroke="#0000BD" stroke-miterlimit="10" stroke-linecap="round" stroke-linejoin="round"/></svg>