<svg width="57" height="91" fill="none" xmlns="http://www.w3.org/2000/svg"><path d="M47.3 19.6L16.6 1.8C14.2.4 12 .3 10.3 1.2L3.1 5.5c1.6-.9 3.8-.8 6.3.6L40 23.9c4.8 2.8 8.8 9.8 8.8 15.4v44.9c0 2.8-1 4.8-2.6 5.7l7.3-4.3c1.6-.9 2.6-2.9 2.6-5.7V35c0-5.7-4-12.6-8.8-15.4z" fill="#fff"/><path d="M46.2 90.4c-.1 0-.4-.1-.4-.3-.1-.2-.1-.6.2-.7 1.5-.9 2.3-2.7 2.3-5.3V39.3c0-5.5-3.8-12.2-8.5-14.9L9 6.5c-2.1-1.2-4.2-1.4-5.7-.7-.2.2-.5.1-.7-.2-.1-.2 0-.5.2-.6L10.1.7c1.8-1.1 4.3-.9 6.8.6l30.7 17.9c5 2.9 9 10.1 9 15.9V80c0 2.9-1 5.1-2.8 6.2l-7.3 4.3c-.1-.1-.3-.1-.3-.1zM6 4.3c1.1.1 2.3.5 3.6 1.2l30.7 17.9c5 2.9 9 10.1 9 15.9v44.9c0 1.4-.3 2.7-.7 3.7l4.7-2.7c1.5-.9 2.3-2.7 2.3-5.3V35c0-5.5-3.8-12.2-8.5-14.9L16.4 2.2C14.3 1 12.1.8 10.7 1.6L6 4.3z" fill="#0000BD"/><path d="M48.8 84.1c0 2.8-1 4.8-2.6 5.7-1.6.9-3.8.8-6.3-.6L9.3 71.4C4.5 68.6.5 61.6.5 56V11.2c0-2.8 1-4.8 2.6-5.7 1.5-1 3.7-.9 6.2.5L40 23.9c4.8 2.8 8.8 9.8 8.8 15.4v44.8z" fill="#fff"/><path d="M43.9 91c-1.3 0-2.7-.4-4.2-1.3L9 71.8c-5-2.9-9-10-9-15.8V11.2c0-3 1-5.1 2.8-6.2 1.8-1.1 4.3-.9 6.8.6l30.7 17.9c5 2.9 9 10.1 9 15.9v44.9c0 2.9-1 5.1-2.8 6.2-.8.3-1.7.5-2.6.5zM5.4 5.3c-.8 0-1.4.2-2.1.5C1.8 6.7 1 8.6 1 11.2V56c0 5.6 3.8 12.2 8.5 15l30.7 17.9c2.1 1.2 4.3 1.5 5.7.6 1.5-.9 2.3-2.7 2.3-5.3V39.3c0-5.5-3.8-12.2-8.5-14.9L9 6.5c-1.2-.8-2.5-1.2-3.6-1.2z" fill="#0000BD"/><path d="M10.9 64.4C8.7 63.1 7 60.1 7 57.5V23.7c0-1.3.4-2.2 1.1-2.6.7-.4 1.7-.4 2.8.3l27.2 15.9c2.1 1.3 3.9 4.3 3.9 6.8v33.8c0 1.3-.4 2.2-1.1 2.6-.7.4-1.7.4-2.8-.3L10.9 64.4z" fill="#fff"/><path d="M39.8 81.3c-.6 0-1.3-.2-2-.6L10.6 64.8c-2.3-1.3-4.2-4.6-4.2-7.3V23.7c0-1.4.5-2.4 1.4-3 .9-.5 2.1-.4 3.3.3l27.2 15.9c2.3 1.4 4.2 4.6 4.2 7.3V78c0 1.4-.5 2.5-1.4 3-.3.2-.8.3-1.3.3zM9.1 21.4c-.3 0-.6.1-.8.2-.6.4-.9 1.1-.9 2.1v33.8c0 2.3 1.7 5.2 3.7 6.4l27.2 15.9c.9.5 1.7.6 2.3.3.6-.4.9-1.1.9-2.1V44.2c0-2.3-1.7-5.2-3.7-6.4L10.6 21.9c-.5-.3-1.1-.5-1.5-.5z" fill="#000"/><path d="M38.1 37.3L10.9 21.4c-1.1-.6-2.1-.7-2.8-.3l-2.6 1.5c.7-.4 1.7-.4 2.8.3l27.2 15.9c2.1 1.3 3.9 4.3 3.9 6.8v33.8c0 1.3-.4 2.2-1.1 2.6l2.6-1.5c.7-.4 1.1-1.3 1.1-2.6V44.2c0-2.5-1.7-5.6-3.9-6.9z" fill="#fff"/><path d="M38.3 82.6c-.1 0-.4-.1-.4-.3-.1-.2-.1-.6.2-.7.6-.4.9-1.1.9-2.1V45.7c0-2.3-1.7-5.2-3.7-6.4L8 23.4c-.9-.5-1.7-.6-2.3-.2-.2.1-.6.1-.7-.2-.1-.2-.1-.6.2-.7l2.6-1.5c.9-.5 2.1-.4 3.3.3L38.3 37c2.3 1.4 4.2 4.6 4.2 7.3V78c0 1.4-.5 2.5-1.4 3l-2.6 1.5c-.1 0-.2.1-.2.1zM7.5 22.1c.3.1.6.2 1 .4l27.2 15.9c2.3 1.4 4.2 4.6 4.2 7.3v33.8c0 .4-.1.7-.1 1.1l.8-.5c.6-.4.9-1.1.9-2.1V44.2c0-2.3-1.7-5.2-3.7-6.4L10.6 21.9c-.9-.5-1.7-.6-2.3-.3l-.8.5z" fill="#DF0112"/><path d="M8.3 65.9c-2.1-1.3-3.9-4.3-3.9-6.8V25.2c0-1.3.4-2.2 1.1-2.6.7-.4 1.7-.4 2.8.3l27.2 15.9c2.1 1.3 3.9 4.3 3.9 6.8v33.8c0 1.3-.4 2.2-1.1 2.6-.7.4-1.7.4-2.8-.3L8.3 65.9z" fill="#fff"/><path d="M37.3 82.8c-.6 0-1.3-.2-2-.6L8 66.4C5.7 65 3.8 61.7 3.8 59V25.2c0-1.4.5-2.4 1.4-3 .9-.5 2.1-.4 3.3.3l27.2 15.9c2.3 1.4 4.2 4.6 4.2 7.3v33.8c0 1.4-.5 2.5-1.4 3-.4.2-.8.3-1.2.3zM6.5 22.9c-.3 0-.6.1-.8.2-.6.4-.9 1.1-.9 2.1V59c0 2.3 1.7 5.2 3.7 6.4l27.2 15.9c.9.5 1.7.6 2.3.3.6-.4.9-1.1.9-2.1V45.7c0-2.3-1.7-5.2-3.7-6.4L8 23.4c-.5-.3-1-.5-1.5-.5z" fill="#DF0112"/><path d="M10.9 30.8l-3.4-1.9v-6.4l3.4 1.9v6.4z" fill="#fff"/><path d="M7.5 22.5l5.5-3.2 3.3 2-5.4 3.2-3.4-2z" fill="#fff"/><path d="M10.9 31.4c-.1 0-.1 0-.3-.1l-3.4-2c-.2 0-.3-.3-.3-.4v-6.4c0-.2.1-.4.3-.4.1-.1.4-.1.5 0l3.4 2c.1.1.3.3.3.4v6.4c0 .2-.1.4-.3.4-.1 0-.1.1-.2.1zM8 28.6l2.3 1.4v-5.2L8 23.4v5.2z" fill="#DF0112"/><path d="M13.7 29.2v-3l2.6-1.6v-3.3l-5.4 3.2v6.4l2.8-1.7z" fill="#fff"/><path d="M10.9 31.4c-.1 0-.1 0-.3-.1-.1-.1-.3-.3-.3-.4v-6.5c0-.2.1-.4.3-.4l5.5-3.2c.1-.1.4-.1.5 0 .1.1.3.3.3.4v3.4c0 .2-.1.4-.3.4l-2.3 1.4v2.7c0 .2-.1.4-.3.4l-2.8 1.7c-.2.1-.2.2-.3.2zm.5-6.7V30l1.8-1.1v-2.7c0-.2.1-.4.3-.4l2.3-1.4v-2.2l-4.4 2.5z" fill="#DF0112"/><path d="M10.9 24.9c-.1 0-.1 0-.3-.1l-3.4-2c-.1-.1-.3-.3-.3-.4 0-.2.1-.4.3-.4l5.5-3.2c.1-.1.4-.1.5 0l3.4 2c.1.1.3.3.3.4 0 .2-.1.4-.3.4l-5.5 3.2c-.1.1-.1.1-.2.1zm-2.4-2.4l2.3 1.4 4.5-2.6-2.3-1.4-4.5 2.6z" fill="#DF0112"/><path d="M31.1 42.7l-3.4-2v-6.4l3.4 1.9v6.5z" fill="#fff"/><path d="M31.1 43.2c-.1 0-.2 0-.3-.1l-3.4-2c-.1-.1-.3-.3-.3-.4v-6.4c0-.2.1-.4.3-.4.1-.1.4-.1.5 0l3.4 2c.1.1.3.3.3.4v6.4c0 .2-.1.4-.3.4 0 .1-.1.1-.2.1zm-2.9-2.8l2.3 1.4v-5.2l-2.3-1.4v5.2z" fill="#DF0112"/><path d="M33.9 41v-3l2.6-1.5v-3.4L31 36.3v6.5l2.9-1.8z" fill="#fff"/><path d="M31.1 43.2c-.1 0-.1 0-.3-.1-.1-.1-.3-.3-.3-.4v-6.4c0-.2.1-.4.3-.4l5.5-3.2c.1-.1.4-.1.5 0 .1.1.3.3.3.4v3.4c0 .2-.1.4-.3.4l-2.3 1.4V41c0 .2-.1.4-.3.4L31.3 43c0 .2-.1.2-.2.2zm.5-6.6v5.2l1.8-1.1V38c0-.2.1-.4.3-.4l2.3-1.4V34l-4.4 2.6z" fill="#DF0112"/><path d="M27.7 34.3l5.5-3.2 3.4 1.9-5.5 3.2-3.4-1.9z" fill="#fff"/><path d="M31.1 36.8c-.1 0-.2 0-.3-.1l-3.4-2c-.1-.1-.3-.3-.3-.4 0-.1.1-.4.3-.4l5.5-3.2c.1-.1.4-.1.5 0l3.4 2c.1.1.3.3.3.4 0 .1-.1.4-.3.4l-5.5 3.2s-.1.1-.2.1zm-2.4-2.5l2.3 1.4 4.5-2.6-2.3-1.4-4.5 2.6z" fill="#DF0112"/><path d="M21 36.8l-3.4-2v-6.4l3.4 1.9v6.5z" fill="#fff"/><path d="M21 37.3c-.1 0-.1 0-.3-.1l-3.3-2c-.1-.1-.3-.3-.3-.4v-6.4c0-.2.1-.4.3-.4.1-.1.4-.1.5 0l3.4 2c.1.1.3.3.3.4v6.4c0 .2-.1.4-.3.4-.2 0-.2.1-.3.1zm-2.9-2.8l2.3 1.4v-5.2l-2.3-1.4v5.2z" fill="#DF0112"/><path d="M23.8 35.1v-3l2.6-1.5v-3.4L21 30.3v6.5l2.8-1.7z" fill="#fff"/><path d="M21 37.3c-.1 0-.1 0-.3-.1-.2-.1-.3-.3-.3-.4v-6.4c0-.2.1-.4.3-.4l5.5-3.2c.1-.1.4-.1.5 0 .1.1.3.3.3.4v3.4c0 .2-.1.4-.3.4l-2.3 1.3V35c0 .2-.1.4-.3.4l-2.8 1.7c-.2.1-.2.2-.3.2zm.5-6.7v5.2l1.8-1.1V32c0-.2.1-.4.3-.4l2.3-1.4V28l-4.4 2.6z" fill="#DF0112"/><path d="M17.6 28.4l5.5-3.2 3.4 2-5.5 3.1-3.4-1.9z" fill="#fff"/><path d="M21 30.8c-.1 0-.1 0-.3-.1l-3.4-2c-.1 0-.2-.2-.2-.4s.1-.4.3-.4l5.5-3.2c.1-.1.4-.1.5 0l3.4 2c.1.1.3.3.3.4 0 .2-.1.4-.3.4l-5.5 3.2c-.2.1-.2.1-.3.1zm-2.4-2.4l2.3 1.4 4.5-2.6-2.4-1.4-4.4 2.6zm-4.1 12.2c3.1 1.8 5.1 5.1 5.1 8.3 0 2.6-1.3 3.6-2.9 4.1-.8.3-1 .3-2.9.7-1.7.3-3.6.6-4 2.8l10.1 5.8v1L8.7 56.9c.2-3 1.9-3.8 4.1-4.3l1.5-.3c2-.4 4.4-.9 4.4-4 0-2.6-1.6-5.3-4.2-6.8-3.2-1.9-4.4.1-4.4 3.3l-1-.6v-.6c.1-3.5 2-5 5.4-3zm17.9 13.1c.9 2.1 1.3 4.4 1.3 7.5 0 4.6-.9 10.1-6.1 7.1-2.8-1.6-4.9-4.8-5.2-8l1 .6c.4 2.7 2 5.2 4.2 6.4 3.3 1.9 5.1-.3 5.1-6.3v-1.1c-.8 2-2.4 2.9-5.1 1.4-3.2-1.9-5.6-6-5.6-9.8 0-3.8 2.5-5.2 5.7-3.3 2 1.2 3.7 3.1 4.7 5.5zm-4.7 6.7c2.7 1.6 4.8.4 4.8-2.8 0-3.1-2.1-6.8-4.8-8.3-2.6-1.6-4.7-.3-4.7 2.8 0 3.2 2 6.7 4.7 8.3z" fill="#DF0112"/></svg>