<svg width="53" height="53" fill="none" xmlns="http://www.w3.org/2000/svg"><circle cx="26.5" cy="26.5" r="26.5" fill="#fff"/><path d="M33.35 19.75h-3.74a965.51 965.51 0 000 4.325c.012.595-.253 1.207-.635 1.856-.13.22-.475.748-.772 1.198l-.403.607-.128.191-.035.053-.01.014c-1.294 2-1.877 3.514-1.877 5.271v9.984h11.5v-9.984c0-1.868-.6-3.422-1.899-5.38l-.147-.216c-.31-.453-1.013-1.477-1.199-1.782-.386-.633-.655-1.229-.655-1.823V19.75zm-7.716 23.497s0 0 0 0h0z" stroke="#DF0112" stroke-width="1.5"/><path d="M25.45 16.15h-4.948a379.591 379.591 0 000 3.105c.012.686-.289 1.411-.756 2.22-.156.27-.578.926-.945 1.491l-.496.76-.157.239-.043.066-.012.017v.002c-1.604 2.52-2.343 4.454-2.343 6.709v12.686c.014.003.03.005.05.005h14.4c.02 0 .036-.002.05-.005V30.759c0-2.392-.758-4.377-2.369-6.847l-.195-.29c-.389-.577-1.232-1.83-1.458-2.205-.473-.788-.778-1.494-.778-2.18V16.15z" fill="#F6F6F6" stroke="#DF0112" stroke-width="1.5"/><path d="M20.518 10.282h0l-.75-.003.75.003h0v.317l-.003.85-.006 1.921h4.941v-3.094c0-.138-.213-.526-.855-.526h-3.217c-.645 0-.859.386-.86.532z" stroke="#00F" stroke-width="1.5"/></svg>