<svg width="53" height="53" fill="none" xmlns="http://www.w3.org/2000/svg"><circle cx="26.5" cy="26.5" r="26.5" fill="#fff"/><path stroke="#DF0112" stroke-width=".625" d="M27.926 8.313h6.875v.625h-6.875z"/><path stroke="#00F" stroke-width=".625" d="M15.426 11.063h6.875v.625h-6.875z"/><mask id="a" fill="#fff"><path fill-rule="evenodd" clip-rule="evenodd" d="M21.363 10.75h-5v12.084c-4.034 1.097-7 4.786-7 9.167a9.5 9.5 0 009.5 9.5v-1.5a8 8 0 114.572-14.567l.858-1.23a9.46 9.46 0 00-2.93-1.37V10.75z"/></mask><path d="M16.363 10.75v-1.5h-1.5v1.5h1.5zm5 0h1.5v-1.5h-1.5v1.5zm-5 12.084l.393 1.447 1.107-.301v-1.146h-1.5zm2.5 18.667v1.5h1.5v-1.5h-1.5zm0-1.5h1.5v-1.5h-1.5v1.5zm4.572-14.567l-.859 1.23 1.23.859.859-1.23-1.23-.859zm.858-1.23l1.23.858.858-1.23-1.23-.858-.858 1.23zm-2.93-1.37h-1.5v1.146l1.106.3.394-1.447zm-5-10.584h5v-3h-5v3zm1.5 10.584V10.75h-3v12.084h3zm-7 9.167a8.004 8.004 0 015.893-7.72l-.787-2.895c-4.67 1.271-8.106 5.54-8.106 10.615h3zm8 8a8 8 0 01-8-8h-3c0 6.075 4.925 11 11 11v-3zm-1.5 0v1.5h3v-1.5h-3zm-8-8a9.5 9.5 0 009.5 9.5v-3a6.5 6.5 0 01-6.5-6.5h-3zm9.5-9.5a9.5 9.5 0 00-9.5 9.5h3a6.5 6.5 0 016.5-6.5v-3zm5.43 1.703a9.46 9.46 0 00-5.43-1.703v3a6.46 6.46 0 013.713 1.164l1.717-2.46zm-1.23-.858l-.859 1.23 2.46 1.716.859-1.23-2.46-1.716zm-2.094.935a7.963 7.963 0 012.466 1.153l1.716-2.46a10.964 10.964 0 00-3.395-1.588l-.787 2.895zM19.863 10.75v12.083h3V10.75h-3z" fill="#00F" mask="url(#a)"/><mask id="b" fill="#fff"><path fill-rule="evenodd" clip-rule="evenodd" d="M33.863 8h-5v11.25l-8.167 17.502H42.03L33.863 19.25V8zm8.75 30v.002h-22.5v3.749h22.5V38z"/></mask><path fill-rule="evenodd" clip-rule="evenodd" d="M33.863 8h-5v11.25l-8.167 17.502H42.03L33.863 19.25V8zm8.75 30v.002h-22.5v3.749h22.5V38z" fill="#fff"/><path d="M28.863 8V7h-1v1h1zm5 0h1V7h-1v1zm-5 11.25l.906.423.094-.2v-.223h-1zm-8.167 17.502l-.907-.423-.664 1.423h1.57v-1zm21.335 0v1h1.57l-.664-1.423-.906.423zM33.863 19.25h-1v.222l.094.201.906-.423zM42.613 38l.906-.423-1.906.423h1zm0 .002v1h1v-1h-1zm-22.5 0v-1h-1v1h1zm0 3.749h-1v1h1v-1zm22.5 0v1h1v-1h-1zm0-3.75h1v-.222l-.094-.202-.906.424zM28.863 9h5V7h-5v2zm1 10.25V8h-2v11.25h2zm-8.261 17.925l8.167-17.502-1.812-.846-8.168 17.502 1.813.846zm-.906.577H42.03v-2H20.696v2zm12.261-18.079l8.167 17.502 1.813-.846-8.168-17.502-1.812.846zM32.863 8v11.25h2V8h-2zm8.75 30v.002h2V38h-2zm1-.998h-22.5v2h22.5v-2zm-21.5 4.749v-3.749h-2v3.749h2zm21.5-1h-22.5v2h22.5v-2zm-1-2.75v3.75h2V38h-2zm.094.423l1.812-.847-1.812.847z" fill="#DF0112" mask="url(#b)"/><mask id="c" fill="#fff"><path fill-rule="evenodd" clip-rule="evenodd" d="M33.863 8h-5v11.25l-8.167 17.502H42.03L33.863 19.25V8zm8.75 30v.002h-22.5v3.749h22.5V38z"/></mask><path fill-rule="evenodd" clip-rule="evenodd" d="M33.863 8h-5v11.25l-8.167 17.502H42.03L33.863 19.25V8zm8.75 30v.002h-22.5v3.749h22.5V38z" fill="#fff"/><path d="M28.863 8V6.5h-1.5V8h1.5zm5 0h1.5V6.5h-1.5V8zm-5 11.25l1.36.635.14-.302v-.333h-1.5zm-8.167 17.502l-1.36-.634-.996 2.134h2.356v-1.5zm21.335 0v1.5h2.355l-.996-2.134-1.36.634zM33.863 19.25h-1.5v.333l.14.302 1.36-.635zM42.613 38l1.359-.635-2.859.635h1.5zm0 .002v1.5h1.5v-1.5h-1.5zm-22.5 0v-1.5h-1.5v1.5h1.5zm0 3.749h-1.5v1.5h1.5v-1.5zm22.5 0v1.5h1.5v-1.5h-1.5zm0-3.75h1.5v-.334l-.14-.301-1.36.635zM28.863 9.5h5v-3h-5v3zm1.5 9.75V8h-3v11.25h3zm-8.308 18.136l8.167-17.501-2.718-1.269-8.168 17.502 2.719 1.268zm-1.36.866h21.336v-3H20.696v3zm11.809-18.367l8.167 17.501 2.719-1.268-8.168-17.502-2.718 1.269zM32.364 8v11.25h3V8h-3zm8.75 30v.002h3V38h-3zm1.5-1.498H20.112v3h22.5v-3zm-21.001 5.249v-3.749h-3v3.749h3zm21-1.5h-22.5v3h22.5v-3zm-1.5-2.25v3.75h3V38h-3zm.141.635l2.718-1.27-2.718 1.27z" fill="#DF0112" mask="url(#c)"/></svg>