<svg width="53" height="53" fill="none" xmlns="http://www.w3.org/2000/svg"><circle cx="26.5" cy="26.5" r="26.5" fill="#fff"/><mask id="a" fill="#fff"><path fill-rule="evenodd" clip-rule="evenodd" d="M22.398 23.709a2.982 2.982 0 004.218 0l4.745 4.745L21.344 38.47h-5.272l-8.436-8.436v-5.272l10.017-10.017 4.745 4.745a2.982 2.982 0 000 4.218z"/></mask><path d="M26.616 23.709l1.06-1.061-1.06-1.06-1.06 1.06 1.06 1.06zm4.745 4.745l1.06 1.06 1.062-1.06-1.061-1.061-1.06 1.06zM21.344 38.47v1.5h.621l.44-.44-1.061-1.06zm-5.272 0l-1.061 1.06.44.44h.62v-1.5zm-8.436-8.436h-1.5v.622l.44.439 1.06-1.06zm0-5.272l-1.06-1.06-.44.439v.621h1.5zm10.017-10.017l1.061-1.06-1.06-1.062-1.061 1.061 1.06 1.06zm4.745 4.745l1.06 1.06 1.062-1.06-1.061-1.061-1.06 1.06zm3.157 3.157a1.483 1.483 0 01-2.096 0l-2.122 2.121a4.483 4.483 0 006.34 0l-2.122-2.121zm0 0l2.122 2.121-2.122-2.121zm0 2.121l4.746 4.745 2.12-2.121-4.744-4.745-2.122 2.121zm4.746 2.624L20.283 37.41l2.122 2.122 10.017-10.018-2.121-2.121zm-8.957 9.578h-5.272v3h5.272v-3zm-4.212.44l-8.435-8.436-2.122 2.121 8.436 8.436 2.121-2.122zm-7.996-7.376v-5.272h-3v5.272h3zm-.44-4.211l10.018-10.018-2.121-2.12L6.575 23.701l2.122 2.122zm7.897-10.018l4.745 4.745 2.12-2.121-4.744-4.745-2.121 2.121zm6.866 4.745l-2.121-2.121 2.12 2.121zm0 2.097a1.483 1.483 0 010-2.097l-2.122-2.121a4.483 4.483 0 000 6.34l2.122-2.122z" fill="#DF0112" mask="url(#a)"/><circle cx="24.509" cy="21.599" r="1.487" transform="rotate(45 24.509 21.599)" stroke="#00F" stroke-width="1.5"/><path fill-rule="evenodd" clip-rule="evenodd" d="M19.239 11.414l15.457 15.457-1.222 1.222-6.019-6.018a2.971 2.971 0 01-.374 1.04l5.686 5.685.707.707.707-.707 1.222-1.222.707-.707-.707-.707-15.457-15.457-.707-.707-.707.707-1.222 1.222-.707.707.707.707 5.686 5.686a2.971 2.971 0 011.039-.375l-6.018-6.018 1.222-1.222z" fill="#DF0112"/><path d="M34.696 26.871l.141.142.142-.142-.142-.141-.141.141zM19.239 11.414l.141-.141-.141-.142-.142.142.142.141zm14.235 16.68l-.141.14.14.142.142-.141-.141-.142zm-6.019-6.02l.142-.14-.277-.277-.062.386.197.032zm-.374 1.04l-.173-.102-.079.134.11.11.142-.142zm6.393 6.393l-.141.142.14.141.142-.141-.141-.142zm.707-.707l.142.142-.142-.142zm1.222-1.222l-.141-.141.141.141zm.707-.707l.142.142.14-.142-.14-.141-.142.141zM19.24 10l.141-.141-.141-.142-.142.142.142.141zm-.707.707l.141.141-.141-.14zM17.31 11.93l-.142-.141.142.141zm-.707.707l-.142-.141-.141.141.141.142.142-.142zm.707.707l-.142.142.142-.142zm5.686 5.686l-.142.142.11.11.133-.08-.101-.172zm1.039-.375l.032.198.386-.062-.276-.277-.142.141zm-6.018-6.018l-.142-.141-.141.141.141.142.142-.142zm16.82 14.094L19.38 11.273l-.283.283 15.457 15.457.283-.283zm-1.222 1.505l1.222-1.222-.283-.283-1.221 1.222.282.283zm-6.301-6.019l6.019 6.019.282-.283-6.018-6.019-.283.283zm-.056-.173a2.77 2.77 0 01-.35.97l.345.203c.204-.347.338-.724.4-1.11l-.395-.063zm-.319 1.213l5.686 5.686.283-.283-5.686-5.686-.283.283zm5.686 5.686l.708.707.282-.283-.707-.707-.283.283zm.99.707l.707-.707-.282-.283-.707.707.282.283zm.707-.707l1.222-1.222-.282-.283-1.222 1.222.282.283zm1.222-1.222l.708-.707-.283-.283-.707.707.282.283zm.708-.99l-.708-.707-.282.283.707.707.282-.283zm-.708-.707L20.087 10.566l-.282.282 15.457 15.458.282-.283zM20.087 10.566l-.707-.707-.283.282.707.707.283-.282zm-.99-.707l-.707.707.283.282.707-.707-.283-.282zm-.707.707l-1.222 1.222.283.282 1.222-1.222-.283-.282zm-1.222 1.222l-.707.707.283.283.707-.708-.283-.282zm-.707.99l.707.707.283-.283-.707-.707-.283.283zm.707.707l5.686 5.686.283-.283-5.686-5.686-.283.283zm5.93 5.716a2.77 2.77 0 01.969-.35l-.064-.394a3.169 3.169 0 00-1.11.4l.204.344zm-5.223-6.423l6.019 6.018.283-.283-6.019-6.018-.283.283zm1.222-1.505l-1.222 1.222.283.283 1.222-1.222-.283-.283z" fill="#DF0112"/><path d="M37.437 25.658l-4.846-4.847s4.1-.745 7.456 4.101c3.355 4.847 2.61 13.049 2.61 13.049h-5.22V25.658z" stroke="#00F" stroke-width="1.5"/></svg>