<svg width="53" height="53" fill="none" xmlns="http://www.w3.org/2000/svg"><circle cx="26.5" cy="26.5" r="26.5" fill="#fff"/><path d="M43.396 22.168h-7.29v2.604l4.686 3.124h4.686" stroke="#00F" stroke-width="1.5"/><path d="M33.21 19.272h8.642l3.398 8.251v7.954H33.21V19.272z" stroke="#DF0112" stroke-width="1.5"/><path fill="#fff" stroke="#DF0112" stroke-width="1.5" d="M12.381 31.77h23.495v3.707H12.381z"/><circle cx="36.627" cy="35.186" r="3.416" fill="#fff" stroke="#DF0112" stroke-width="1.5"/><circle cx="19.966" cy="35.186" r="3.416" fill="#fff" stroke="#DF0112" stroke-width="1.5"/><circle cx="11.633" cy="35.186" r="3.416" fill="#fff" stroke="#DF0112" stroke-width="1.5"/><path stroke="#DF0112" stroke-width="1.5" d="M12.381 25.812v6.248"/><path d="M11.957 25.268l-1.73-2.999 2.747-7.594 3.25-1.198 13.195 4.775 1.731 2.999-2.748 7.594-3.249 1.197-13.195-4.774zm.059-.114l4.179-11.551m8.554 16.155l4.179-11.551" stroke="#00F" stroke-width="1.5"/></svg>