<svg width="53" height="53" fill="none" xmlns="http://www.w3.org/2000/svg"><circle cx="26.5" cy="26.5" r="26.5" fill="#fff"/><path d="M22.057 19.162l-.216-.375h-3.325l4.08-7.037h8.842l4.216 7.335-1.648 2.876h-3.062l-3.297-5.671-.65-1.119-.647 1.12-2.977 5.148-1.316-2.277zm-.089 17.226l-.216.373.215.375 1.434 2.503h-8.132l-4.403-7.635 4.25-7.335h3.326l1.535 2.685-3.26 5.633-.651 1.126h7.216l-1.314 2.275z" stroke="#DF0112" stroke-width="1.5"/><path d="M37.284 32.989l-2.942-5.109h3.062l.217-.372 1.465-2.51 4.048 7.006-4.403 7.636h-8.504l-1.68-2.879 1.53-2.648h7.854l-.647-1.124z" stroke="#00F" stroke-width="1.5"/></svg>