<svg width="53" height="53" fill="none" xmlns="http://www.w3.org/2000/svg"><circle cx="26.5" cy="26.5" r="26.5" fill="#fff"/><path d="M13 43.428V30.857l9.714-4.572v4.572l9.143-4.572v4.572L41 26.285v17.143H13z" stroke="#DF0112" stroke-width="1.5"/><path d="M19.286 25.143l-4.572 2.285 1.143-12h2.857l.572 9.715zM29 24.544l-3.428 1.742.857-9.143h2.143L29 24.544zm-12.442-10.83s.97-.571.97-1.905c0-.885-.655-1.076-.97-1.904-.29-.764 0-1.905 0-1.905m10.285 6.857s.97-.57.97-1.904c0-.886-.655-1.077-.97-1.905-.29-.763 0-1.905 0-1.905" stroke="#00F" stroke-width="1.5"/><path stroke="#DF0112" stroke-width="1.5" d="M16.429 36.964H21m3.429 0H29m3.429 0H37"/></svg>