<svg width="53" height="53" fill="none" xmlns="http://www.w3.org/2000/svg"><circle cx="26.5" cy="26.5" r="26.5" fill="#fff"/><path d="M18.25 38.257l-.012-.015-.013-.013a16.772 16.772 0 01-4.472-11.727 7.12 7.12 0 012.149-4.918 7.035 7.035 0 014.944-1.997 19.04 19.04 0 013.718.515l.018.004.017.003.48.092h0l.011.002c1.83.319 3.709.165 5.462-.446.242-.074.425-.127.568-.157h0c3.282-.695 6.352.526 7.892 2.998h0c.983 1.573 1.353 3.473 1.062 5.874h0l-.002.013a17.882 17.882 0 01-3.847 9.362c-1.74 2.116-3.436 3.065-5.362 3.18-.71.041-2.667.079-4.622.051a55.464 55.464 0 01-2.74-.096c-.82-.054-1.38-.128-1.623-.203a8.454 8.454 0 01-3.628-2.523z" stroke="#DF0112" stroke-width="1.5"/><path d="M26.46 13.013c-1.584-2.303-8-2-8-2s1 4.487 3.5 5.987c1.667 1 5 1.013 5 1.013s.613-3.383-.5-5z" stroke="#00F" stroke-width="1.5"/></svg>