<svg width="722" height="566" fill="none" xmlns="http://www.w3.org/2000/svg"><path stroke="#fff" stroke-dasharray="4 4" d="M45.219 14.55l304 148m-80.001 257l268 130M26.22 351.551l196 96M25.747 351.568l323-189m-126.999 285l48-28m267.996 130.003l124-74m-.244.429V173"/><path d="M259.244 119.656c-7.224 4.171-18.938 4.171-26.163 0-7.224-4.171-7.224-10.933 0-15.104 7.225-4.171 18.939-4.171 26.163 0 7.225 4.171 7.225 10.933 0 15.104z" fill="#fff" fill-opacity=".1"/><path d="M255.709 117.615c-5.272 3.043-13.82 3.043-19.092 0-5.272-3.044-5.272-7.978 0-11.022 5.272-3.043 13.82-3.043 19.092 0 5.272 3.044 5.272 7.978 0 11.022z" fill="#fff" fill-opacity=".18"/><path d="M250.052 114.349c-2.148 1.24-5.63 1.24-7.778 0-2.148-1.24-2.148-3.25 0-4.49 2.148-1.24 5.63-1.24 7.778 0 2.148 1.24 2.148 3.25 0 4.49z" fill="#fff"/><path d="M58.244 22.656c-7.224 4.17-18.938 4.17-26.163 0-7.224-4.171-7.224-10.933 0-15.104 7.225-4.17 18.939-4.17 26.163 0 7.225 4.17 7.225 10.933 0 15.104z" fill="#fff" fill-opacity=".1"/><path d="M54.709 20.615c-5.272 3.043-13.82 3.043-19.092 0-5.272-3.044-5.272-7.978 0-11.022 5.272-3.043 13.82-3.043 19.092 0 5.272 3.044 5.272 7.978 0 11.022z" fill="#fff" fill-opacity=".18"/><path d="M49.052 17.349c-2.148 1.24-5.63 1.24-7.778 0-2.148-1.24-2.148-3.25 0-4.49 2.148-1.24 5.63-1.24 7.778 0 2.148 1.24 2.148 3.25 0 4.49z" fill="#fff"/><path d="M280.244 427.656c-7.224 4.171-18.938 4.171-26.163 0-7.224-4.171-7.224-10.933 0-15.104 7.225-4.171 18.939-4.171 26.163 0 7.225 4.171 7.225 10.933 0 15.104z" fill="#fff" fill-opacity=".1"/><path d="M276.709 425.615c-5.272 3.043-13.82 3.043-19.092 0-5.272-3.044-5.272-7.978 0-11.022 5.272-3.043 13.82-3.043 19.092 0 5.272 3.044 5.272 7.978 0 11.022z" fill="#fff" fill-opacity=".18"/><path d="M271.052 422.349c-2.148 1.24-5.63 1.24-7.778 0-2.148-1.24-2.148-3.25 0-4.49 2.148-1.24 5.63-1.24 7.778 0 2.148 1.24 2.148 3.25 0 4.49z" fill="#fff"/><path d="M39.244 358.656c-7.224 4.171-18.938 4.171-26.163 0-7.224-4.171-7.224-10.933 0-15.104 7.225-4.171 18.939-4.171 26.163 0 7.225 4.171 7.225 10.933 0 15.104z" fill="#fff" fill-opacity=".1"/><path d="M35.709 356.615c-5.272 3.043-13.82 3.043-19.092 0-5.272-3.044-5.272-7.978 0-11.022 5.272-3.043 13.82-3.043 19.092 0 5.272 3.044 5.272 7.978 0 11.022z" fill="#fff" fill-opacity=".18"/><path d="M30.052 353.349c-2.148 1.24-5.63 1.24-7.778 0-2.148-1.24-2.148-3.25 0-4.49 2.148-1.24 5.63-1.24 7.778 0 2.148 1.24 2.148 3.25 0 4.49z" fill="#fff"/><path d="M550.244 557.656c-7.224 4.171-18.938 4.171-26.163 0-7.224-4.171-7.224-10.933 0-15.104 7.225-4.171 18.939-4.171 26.163 0 7.225 4.171 7.225 10.933 0 15.104z" fill="#fff" fill-opacity=".1"/><path d="M546.709 555.615c-5.272 3.043-13.82 3.043-19.092 0-5.272-3.044-5.272-7.978 0-11.022 5.272-3.043 13.82-3.043 19.092 0 5.272 3.044 5.272 7.978 0 11.022z" fill="#fff" fill-opacity=".18"/><path d="M541.052 552.349c-2.148 1.24-5.63 1.24-7.778 0-2.148-1.24-2.148-3.25 0-4.49 2.148-1.24 5.63-1.24 7.778 0 2.148 1.24 2.148 3.25 0 4.49zm180.302-378.995a.502.502 0 000-.708l-3.182-3.182a.502.502 0 00-.708.708l2.829 2.828-2.829 2.828a.502.502 0 00.708.708l3.182-3.182zM661 173.5h1.875v-1H661v1zm5.625 0h3.75v-1h-3.75v1zm7.5 0h3.75v-1h-3.75v1zm7.5 0h3.75v-1h-3.75v1zm7.5 0h3.75v-1h-3.75v1zm7.5 0h3.75v-1h-3.75v1zm7.5 0h3.75v-1h-3.75v1zm7.5 0h3.75v-1h-3.75v1zm7.5 0H721v-1h-1.875v1z" fill="#fff"/></svg>