<svg width="188" height="80" fill="none" xmlns="http://www.w3.org/2000/svg"><path fill="#F6F6F6" d="M0 0h188v80H0z"/><path fill-rule="evenodd" clip-rule="evenodd" d="M66.562 32.01c-.95-.212-2.084-.292-3.455-.292h-2.162v3.453c.685 0 1.266 0 1.714.026a6.121 6.121 0 011.661.32c.422.158.791.398 1.134.77.317.371.475.823.475 1.327 0 .532-.08.983-.237 1.328a2.17 2.17 0 01-.765.93 3.421 3.421 0 01-1.53.584c-.606.106-1.371.16-2.32.16h-.158v3.479h2.03c1.556 0 2.874-.186 3.93-.558a8.995 8.995 0 002.847-1.647c.633-.53 1.108-1.195 1.45-1.992a6.017 6.017 0 00.501-2.417c0-1.062-.237-1.965-.685-2.735-.448-.744-1.108-1.381-1.978-1.86a8.592 8.592 0 00-2.452-.876zm-7.411 18.937V31.718h-5.538v19.229h5.538zm24.446.027V38.81l-5.802-5.1v17.264h5.802zm11.946-19.229l-3.35 3.851 3.72 3.267.632-.664.132-.133v12.935h6.17V31.639h-7.199l-.105.106z" fill="#000"/><path fill-rule="evenodd" clip-rule="evenodd" d="M91.06 36.924l-6.118-5.285h-7.147v.053L91.43 43.617l3.375-3.559-3.744-3.134zm53.162-5.259h-5.564v19.281h5.564V31.665zm1.399.053v4.17h9.836v-4.17h-9.836zm-27.057-.053l8.887 19.334h5.301l-8.571-19.334h-5.617zM108.227 51h6.065l1.635-3.958h7.805l-1.635-3.559h-4.746l2.268-5.311-2.875-6.507-8.517 19.334zM34.338 31.585l8.887 19.335h5.3l-8.57-19.335h-5.617zM24 50.92h6.065l1.635-3.93h7.806l-1.635-3.586h-4.747l2.268-5.285-2.874-6.534L24 50.92z" fill="#000"/><path d="M161.838 28c-.58 0-1.108.239-1.503.637-.422.452-.66.956-.66 1.567 0 .585.238 1.09.66 1.488.421.451.949.637 1.503.637.606 0 1.134-.186 1.529-.637.422-.425.633-.93.633-1.488 0-.637-.211-1.142-.633-1.567a2.121 2.121 0 00-1.529-.637zm-.897 3.293V29.09h.923c.237 0 .396.027.501.053.106.027.185.106.264.213a.754.754 0 01.105.345c0 .16-.052.292-.132.425a.713.713 0 01-.422.212.575.575 0 01.238.186c.053.08.158.186.264.372l.263.425h-.527l-.317-.478c-.105-.16-.184-.292-.237-.319-.053-.053-.079-.08-.132-.08-.053-.026-.132-.026-.237-.026h-.106v.93h-.448v-.054zm.448-1.274h.317c.211 0 .343 0 .395-.027.053-.027.106-.053.132-.106a.371.371 0 00.053-.16.38.38 0 00-.053-.186c-.026-.053-.105-.08-.158-.08h-.686v.558zm-.817-1.09c.343-.318.791-.53 1.266-.53.474 0 .923.212 1.265.53.343.372.528.77.528 1.302 0 .478-.185.93-.528 1.248a1.77 1.77 0 01-2.531 0 1.573 1.573 0 01-.501-1.248c0-.558.184-.93.501-1.301z" fill="#000"/></svg>