<svg width="686" height="340" fill="none" xmlns="http://www.w3.org/2000/svg"><path fill="#A59590" stroke="#000" d="M80.5 17.5h32v118h-32z"/><path d="M109 246.5l32-90.5h87.5v127.5h-64v-76l-19 52-36.5-13z" fill="#E7E3E2" stroke="#000"/><rect x="112.5" y=".5" width="149" height="156" rx="4.5" fill="#A59590" stroke="#000"/><path fill-rule="evenodd" clip-rule="evenodd" d="M171.981 20.105c-.117 2.794-.233 5.588-.35 8.324-1.804 1.397-3.667 2.736-5.471 4.133v8.964c1.862-.582 3.725-.582 5.588-.582.233 6.927.465 13.854.64 20.84.116.93.175 1.804.291 2.677-.64.64-.698 1.164-2.037 1.979-1.397.757-1.747.698-2.096 2.503.175 2.154.175 2.328 1.688 3.492 1.048.291 1.514.524 2.561.058.641 16.183 1.223 32.307 1.863 48.489.291-.059.524-.175.815-.233v-1.455c0-.466 0-.932-.058-1.339l-1.222-45.752c.989-.64 1.804-1.281 2.735-2.038.815 3.085 1.048 5.88 1.106 9.139-.233 1.048-.465 2.154-.698 3.201-.466 3.027-.873 5.938-.932 8.965-.058.698-.116 1.455-.116 2.153h.873c.349 2.27.64 4.54.815 6.869-.873 4.191-.349 7.625.175 11.7l.64 5.355c.116.873-1.804 1.863-1.746 2.503 0 .699 1.164 1.106 1.746 1.281.699.058.64.233 2.154-.117 1.746-.407 1.746-.698 1.571-1.979-.116-.756-.349-.873-.407-1.921-.058-1.455.116-3.667.175-5.006.232-2.619.814-5.064 1.164-7.683.058-1.281.174-2.154-.117-3.376.117-.582.291-1.106.408-1.688a32.84 32.84 0 00.524-3.318c.058-.524.058-.99.116-1.514.349 0 .699.059 1.048.059.058 1.513.174 2.735.524 4.19.174.757.349 1.572.524 2.329-.059.582-.059 1.164-.117 1.746-.058.641-.116 1.223-.116 1.863.058.757.233 1.455.349 2.154l.524 2.794c.407 2.037.698 7.159.582 8.149-.116.466-.407.815-.524 1.339a2.206 2.206 0 000 .873c.117.466.64.698 1.339.757 1.397.174.989.174 2.445.116.407 0 .989-.116 1.338-.466.233-.232.583-.815.408-1.106-.466-.756-1.281-1.164-1.921-1.688 0 0 0-.756.058-.873.117-.524.873-4.657.932-5.355.407-1.455.465-2.969.64-4.424.116-2.095 0-3.376-.582-5.239.116-2.62.174-5.122.465-7.625l1.281 4.831.873 1.747.873 1.629.175-1.571.116-1.746-1.862-9.896c.582.291 1.106.524 1.688.815 2.561-3.202 4.54-6.345 4.889-10.769a86.002 86.002 0 00-.465-13.97c-.059-.757-.117-1.455-.175-2.212l-3.667.64c-.524-1.63-1.106-2.794-3.26-3.958-1.397-.757-2.677-1.164-4.307-1.63-.059.757.582-3.434.582-5.239-.349-1.455-.873-2.794-1.572-4.19-1.863-.175-3.667-.292-5.588 0-.524 1.455-1.106 2.735-1.572 4.307.175 1.863.583 3.55.815 5.355-1.047.408-2.27.582-3.259 1.106-1.572.699-2.62 1.688-3.959 2.852-.291-7.16-.64-14.26-.931-21.42 2.561.465 5.006 1.047 7.567 1.746 2.445.815 4.89 1.688 7.276 2.677 3.9 1.106 7.16 1.805 11.118 1.63 5.123-.756 1.165-.756 2.853-4.307 1.397-.99 3.026-1.456 4.656-2.794-2.503-1.106-3.725-1.572-1.921-4.657.641-1.164 1.281-2.328 1.921-3.434-1.339.698-2.677 1.455-4.016 2.153-1.397.64-2.212.99-3.667 1.048-2.911.233-2.62-.058-2.329 3.26-2.968-.058-5.238-.757-8.091-1.63-2.852-1.106-5.762-2.154-8.615-3.26-2.386-.698-4.482-1.222-6.985-1.222-.174-3.376-.058-6.869-.524-10.187-.058-.64-.116-1.28-.232-1.92zM159.698 123.02h53.32c.058 0 .116.058.116.116v1.048a.125.125 0 01-.116.116h-53.32a.125.125 0 01-.116-.116v-1.048c0-.058.058-.116.116-.116zM211.737 19c-.989 0-1.863.407-2.561 1.048-.699.757-1.106 1.571-1.106 2.677 0 .99.407 1.805 1.106 2.503.698.757 1.572 1.048 2.561 1.048.99 0 1.921-.29 2.62-1.048a3.48 3.48 0 001.047-2.503c0-1.047-.349-1.92-1.047-2.677-.699-.64-1.63-1.048-2.62-1.048zm-2.095 1.572c.582-.524 1.338-.873 2.095-.873.815 0 1.572.349 2.096.873.582.64.873 1.28.873 2.153 0 .815-.291 1.572-.873 2.096a2.954 2.954 0 01-2.096.873c-.815 0-1.571-.291-2.095-.873-.582-.524-.873-1.28-.815-2.096-.117-.873.233-1.571.815-2.153z" fill="#313131"/><path fill-rule="evenodd" clip-rule="evenodd" d="M210.225 24.532v-3.434h1.455c.349 0 .64.058.815.116.174.058.291.175.407.35a.932.932 0 01.175.523c0 .233-.058.466-.233.64a.872.872 0 01-.698.292.597.597 0 01.349.29c.116.117.233.292.407.583l.408.64h-.815l-.524-.757c-.175-.29-.291-.407-.349-.524-.059-.058-.117-.116-.233-.116-.058 0-.175-.058-.349-.058h-.117v1.455h-.698zm.698-1.98h.524c.349 0 .524 0 .64-.057.059-.059.175-.059.175-.117.058-.058.058-.174.058-.233a.445.445 0 00-.116-.29.442.442 0 00-.233-.117h-1.048v.815zm-49.944 113.273L159 127.327h1.746l1.281 5.879 1.572-5.879h2.037l1.513 5.937 1.281-5.937h1.746l-2.037 8.498h-1.863l-1.688-6.344-1.688 6.344h-1.921zm10.478 0v-8.498h6.286v1.455h-4.598v1.863h4.249v1.455h-4.249v2.328h4.773v1.456h-6.461v-.059zm13.853-3.143l1.689.524c-.233.931-.699 1.63-1.281 2.096-.582.465-1.339.698-2.27.698-1.106 0-2.038-.407-2.794-1.164-.757-.757-1.106-1.805-1.106-3.143 0-1.397.349-2.503 1.106-3.318.756-.757 1.688-1.164 2.91-1.164 1.048 0 1.863.291 2.561.931.408.349.699.873.874 1.572l-1.689.407c-.116-.466-.291-.815-.64-1.048-.349-.233-.698-.407-1.164-.407-.64 0-1.164.233-1.513.698-.408.466-.583 1.164-.583 2.212 0 1.048.175 1.863.583 2.27.407.466.873.699 1.513.699.466 0 .873-.117 1.164-.466.233-.291.466-.757.64-1.397zm3.202-1.048c0-.873.116-1.571.407-2.212a3.87 3.87 0 01.815-1.164c.35-.349.699-.582 1.106-.756.524-.233 1.164-.35 1.863-.35 1.281 0 2.27.408 3.027 1.165.757.756 1.106 1.862 1.106 3.259 0 1.397-.349 2.445-1.106 3.26-.757.757-1.746 1.164-3.027 1.164-1.281 0-2.27-.407-3.027-1.164-.815-.815-1.164-1.863-1.164-3.202zm1.746-.058c0 .99.233 1.688.699 2.212.465.524.989.757 1.688.757.698 0 1.222-.233 1.688-.757.466-.524.64-1.222.64-2.212 0-.989-.233-1.688-.64-2.212-.408-.465-.99-.698-1.688-.698-.699 0-1.281.233-1.746.756-.408.408-.641 1.165-.641 2.154zm8.266 4.249v-8.498h1.688l3.492 5.704v-5.704h1.572v8.498h-1.746l-3.434-5.588v5.588h-1.572zm10.943 0v-7.101h-2.503v-1.455h6.752v1.455h-2.503v7.101h-1.746z" fill="#313131"/><path d="M294 246.5l32-90.5h87.5v127.5h-64v-76l-19 52-36.5-13z" fill="#E7E3E2" stroke="#000"/><path fill="#A59590" stroke="#000" d="M593.5.5h92v119h-92z"/><path fill="#ACDBF1" stroke="#000" d="M615.5 16.5h49v31h-49z"/><circle cx="639" cy="75" r="5.5" fill="#00A85A" stroke="#000"/><circle cx="654" cy="75" r="5.5" fill="#00A65A" stroke="#000"/><circle cx="654" cy="90" r="5.5" fill="#DA2C1C" stroke="#000"/><circle cx="639" cy="90" r="5.5" fill="#DB2C1C" stroke="#000"/><circle cx="625" cy="90" r="5.5" fill="#DB2C1C" stroke="#000"/><circle cx="625" cy="75" r="5.5" fill="#00A85B" stroke="#000"/><circle cx="25" cy="25" r="24.5" stroke="#000"/><path d="M24.201 17.227v-.977h3.003V35h-3.003V22.5h-3.503v-2.502h.708c.993 0 1.705-.216 2.136-.647.44-.432.66-1.14.66-2.124z" fill="#000"/><circle cx="538" cy="25" r="24.5" stroke="#000"/><path d="M542.694 21.352c0 .692-.11 1.368-.329 2.027a7.01 7.01 0 01-.855 1.77c-.35.52-.74 1.03-1.172 1.526-.423.496-.866.976-1.33 1.44a47.3 47.3 0 00-1.282 1.33c-.391.432-.74.892-1.05 1.38a5.023 5.023 0 00-.622 1.428h6.897V35h-10.157v-1.453c0-.618.078-1.216.232-1.794a7.438 7.438 0 01.635-1.575c.269-.472.574-.932.916-1.38.35-.447.716-.866 1.098-1.256.383-.4.765-.79 1.148-1.172.382-.391.744-.782 1.086-1.172.35-.39.655-.782.916-1.172.268-.39.48-.814.634-1.27.163-.463.245-.931.245-1.404 0-.878-.167-1.53-.501-1.953-.325-.43-.777-.647-1.355-.647-.618 0-1.09.212-1.416.635-.317.423-.476 1.127-.476 2.112v1.502h-3.003v-1.746c0-1.107.22-2.063.659-2.869.448-.805 1.034-1.404 1.758-1.794.733-.39 1.559-.586 2.478-.586 1.4 0 2.555.468 3.467 1.404.92.927 1.379 2.242 1.379 3.942z" fill="#000"/><circle cx="138" cy="315" r="24.5" stroke="#000"/><path d="M132.244 325l3.882-18.75h4.504L144.5 325h-3.027l-.818-4.248h-4.553l-.831 4.248h-3.027zm4.382-6.995h3.504l-1.758-9.033-1.746 9.033z" fill="#000"/><circle cx="319" cy="315" r="24.5" stroke="#000"/><path d="M313.746 325v-18.75h5.334c1.579 0 2.836.403 3.772 1.208.936.798 1.404 1.937 1.404 3.418v.245c0 1.725-.745 2.941-2.234 3.65.846.358 1.51.911 1.99 1.66.488.74.732 1.639.732 2.697v.501c0 1.709-.468 3.031-1.404 3.967-.936.936-2.189 1.404-3.759 1.404h-5.835zm5.078-16.003h-2.075v4.748h2.075c.797 0 1.399-.187 1.806-.561.415-.383.623-.985.623-1.807v-.256c0-.741-.208-1.278-.623-1.612-.407-.342-1.009-.512-1.806-.512zm.5 7.507h-2.575v5.749h2.575c.798 0 1.4-.227 1.807-.683.415-.464.622-1.196.622-2.197v-.245c0-.927-.203-1.595-.61-2.002-.407-.415-1.013-.622-1.819-.622z" fill="#000"/><path d="M332.656 40v-5.438h-3.875V40h-1.593V28h1.593v5.086h3.875V28h1.602v12h-1.602zm8.977 0v-1.344c-.255.505-.62.883-1.094 1.133-.474.245-1.013.367-1.617.367a3.79 3.79 0 01-1.344-.226 2.173 2.173 0 01-.984-.75c-.261-.355-.391-.784-.391-1.29 0-.468.099-.861.297-1.18.198-.322.456-.562.773-.718a4.87 4.87 0 011.047-.367 9.864 9.864 0 011.149-.21c.385-.053.737-.11 1.054-.173a1.98 1.98 0 00.774-.32.692.692 0 00.297-.586c0-.38-.162-.677-.485-.89-.323-.22-.737-.329-1.242-.329-.536 0-.963.136-1.281.406-.318.271-.477.66-.477 1.164h-1.664c0-.4.063-.762.188-1.085a2.28 2.28 0 01.508-.805c.213-.219.466-.399.757-.54.297-.145.607-.25.93-.312a5.136 5.136 0 011.039-.101c.448 0 .865.047 1.25.14.386.094.737.24 1.055.438.318.193.568.458.75.797.182.338.273.731.273 1.18V40h-1.562zm-3.797-2.21c0 .332.128.588.383.765.26.172.601.258 1.023.258.662 0 1.224-.185 1.688-.555.468-.375.703-.893.703-1.555v-.578a4.222 4.222 0 01-.906.297 24.3 24.3 0 01-1.024.195 7.525 7.525 0 00-.914.196 1.597 1.597 0 00-.695.359.794.794 0 00-.258.617zm7.586 2.21v-8h6.812v8h-1.601v-6.531h-3.617V40h-1.594zm13.422.156a3.165 3.165 0 01-1.477-.351 3.407 3.407 0 01-1.148-1.008V44h-1.594V32h1.594v1.203c.317-.432.7-.766 1.148-1a3.11 3.11 0 011.477-.36c1.104 0 2.021.391 2.75 1.173.729.776 1.094 1.77 1.094 2.984s-.365 2.21-1.094 2.992c-.729.776-1.646 1.164-2.75 1.164zm-1.938-2.21c.464.494 1.047.742 1.75.742.703 0 1.284-.248 1.742-.743.459-.5.688-1.148.688-1.945 0-.797-.229-1.443-.688-1.938-.458-.5-1.039-.75-1.742-.75-.703 0-1.286.25-1.75.75-.458.495-.687 1.141-.687 1.938 0 .797.229 1.445.687 1.945zM369.477 40v-1.344c-.256.505-.62.883-1.094 1.133-.474.245-1.013.367-1.617.367a3.79 3.79 0 01-1.344-.226 2.173 2.173 0 01-.984-.75c-.261-.355-.391-.784-.391-1.29 0-.468.099-.861.297-1.18a1.86 1.86 0 01.773-.718 4.87 4.87 0 011.047-.367 9.81 9.81 0 011.148-.21c.386-.053.737-.11 1.055-.173a1.98 1.98 0 00.774-.32.692.692 0 00.297-.586c0-.38-.162-.677-.485-.89-.323-.22-.737-.329-1.242-.329-.537 0-.964.136-1.281.406-.318.271-.477.66-.477 1.164h-1.664c0-.4.063-.762.188-1.085.125-.323.294-.592.507-.805.214-.219.467-.399.758-.54.297-.145.607-.25.93-.312a5.13 5.13 0 011.039-.101c.448 0 .865.047 1.25.14.385.094.737.24 1.055.438.317.193.567.458.75.797.182.338.273.731.273 1.18V40h-1.562zm-3.797-2.21c0 .332.127.588.382.765.261.172.602.258 1.024.258.661 0 1.224-.185 1.687-.555.469-.375.704-.893.704-1.555v-.578a4.214 4.214 0 01-.907.297c-.369.078-.711.143-1.023.195a7.485 7.485 0 00-.914.196c-.292.078-.524.197-.695.359a.794.794 0 00-.258.617zm7.586 2.21v-8h3.961c.76 0 1.364.177 1.812.531.448.354.672.87.672 1.547 0 .813-.367 1.372-1.102 1.68.453.15.805.39 1.055.719.255.323.383.729.383 1.218 0 .755-.237 1.328-.711 1.72-.469.39-1.128.585-1.977.585h-4.093zm3.5-6.781h-1.969v2.078h1.969c.937 0 1.406-.346 1.406-1.04 0-.359-.112-.622-.336-.788-.219-.167-.576-.25-1.07-.25zm.32 3.297h-2.289v2.265h2.289c.448 0 .786-.096 1.016-.289.229-.192.343-.474.343-.844s-.114-.65-.343-.843c-.23-.193-.568-.29-1.016-.29zm5.445 1.148c.198-.703.305-2.591.321-5.664h5.921v8h-1.601v-6.531h-2.86c-.031 1.75-.111 3.083-.242 4-.161.963-.422 1.627-.781 1.992-.354.36-.867.539-1.539.539h-.289v-1.469h.133c.479 0 .791-.289.937-.867zM398.414 36c0 .125-.01.307-.031.547h-6.274c.099.698.362 1.24.789 1.625.428.385.977.578 1.649.578.948 0 1.594-.383 1.937-1.148h1.727c-.245.817-.695 1.448-1.352 1.89-.651.443-1.442.664-2.375.664-1.14 0-2.083-.388-2.828-1.164-.739-.776-1.109-1.773-1.109-2.992s.37-2.216 1.109-2.992c.745-.776 1.688-1.164 2.828-1.164 1.141 0 2.081.388 2.821 1.164.739.776 1.109 1.773 1.109 2.992zm-3.93-2.75c-.645 0-1.174.19-1.586.57-.411.375-.666.899-.765 1.57h4.703c-.099-.671-.357-1.195-.774-1.57-.411-.38-.937-.57-1.578-.57zM405.641 40v-3.313h-3.844V40h-1.594v-8h1.594v3.234h3.844V32h1.601v8h-1.601zm5.5-8v6.383L414.805 32h2.031v8h-1.531v-6.383L411.641 40h-2.032v-8h1.532zm15.336 4c0 .125-.011.307-.032.547h-6.273c.099.698.362 1.24.789 1.625.427.385.977.578 1.648.578.948 0 1.594-.383 1.938-1.148h1.726c-.244.817-.695 1.448-1.351 1.89-.651.443-1.443.664-2.375.664-1.141 0-2.083-.388-2.828-1.164-.74-.776-1.11-1.773-1.11-2.992s.37-2.216 1.11-2.992c.745-.776 1.687-1.164 2.828-1.164 1.141 0 2.081.388 2.82 1.164.74.776 1.11 1.773 1.11 2.992zm-3.93-2.75c-.646 0-1.175.19-1.586.57-.412.375-.667.899-.766 1.57h4.703c-.099-.671-.356-1.195-.773-1.57-.411-.38-.937-.57-1.578-.57zm-88.914 32.906V64h-5.875v2.156h-1.469v-3.625h.781c.24-.448.42-1.114.539-2 .125-.885.196-2.396.211-4.531h6.164v6.531h1.118v3.625h-1.469zm-4.531-5.531c-.115.865-.253 1.5-.414 1.906h3.695V57.47h-3.102c-.015 1.291-.075 2.343-.179 3.156zM336.734 64v-8h3.961c.761 0 1.365.177 1.813.531.448.354.672.87.672 1.547 0 .813-.368 1.372-1.102 1.68.453.15.805.39 1.055.719.255.323.383.729.383 1.218 0 .755-.237 1.328-.711 1.72-.469.39-1.128.585-1.977.585h-4.094zm3.5-6.781h-1.968v2.078h1.968c.938 0 1.407-.346 1.407-1.04 0-.359-.112-.622-.336-.788-.219-.167-.576-.25-1.071-.25zm.321 3.297h-2.289v2.265h2.289c.448 0 .786-.096 1.015-.289.229-.192.344-.474.344-.844s-.115-.65-.344-.843c-.229-.193-.567-.29-1.015-.29zm6.57-4.516v6.383L350.789 56h2.031v8h-1.531v-6.383L347.625 64h-2.031v-8h1.531zm12.555 8v-4.18L356.211 64h-2.016l3.727-4.352L354.477 56h2.132l3.071 3.523V56h1.601v3.54l3.086-3.54h2.047l-3.359 3.648L366.719 64h-1.969l-3.469-4.21V64h-1.601zm15.203-4c0 .125-.011.307-.031.547h-6.274c.099.698.362 1.24.789 1.625.427.385.977.578 1.649.578.948 0 1.593-.383 1.937-1.148h1.727c-.245.817-.696 1.448-1.352 1.89-.651.443-1.443.664-2.375.664-1.141 0-2.083-.388-2.828-1.164-.74-.776-1.109-1.773-1.109-2.992s.369-2.216 1.109-2.992c.745-.776 1.687-1.164 2.828-1.164 1.141 0 2.081.388 2.82 1.164.74.776 1.11 1.773 1.11 2.992zm-3.93-2.75c-.646 0-1.174.19-1.586.57-.411.375-.666.899-.765 1.57h4.703c-.099-.671-.357-1.195-.774-1.57-.411-.38-.937-.57-1.578-.57zM382.109 64v-3.313h-3.843V64h-1.594v-8h1.594v3.234h3.843V56h1.602v8h-1.602zm5.5-8v6.383L391.273 56h2.032v8h-1.532v-6.383L388.109 64h-2.031v-8h1.531zm7.883 2.43c0-.422.076-.792.227-1.11.156-.317.372-.57.648-.758.276-.192.586-.333.93-.421a4.376 4.376 0 011.141-.141h3.445v8h-1.602v-3.508h-.015L396.805 64h-1.867l3.132-3.102c-.718-.041-1.328-.278-1.828-.71-.5-.433-.75-1.019-.75-1.758zm3.219 1.328h1.57v-2.54h-1.57c-.51 0-.909.105-1.195.313-.282.209-.422.513-.422.914 0 .875.539 1.313 1.617 1.313zM327.188 88v-8H334v8h-1.602v-6.531h-3.617V88h-1.593zm13.421.156a3.164 3.164 0 01-1.476-.351 3.42 3.42 0 01-1.149-1.008V92h-1.593V80h1.593v1.203a3.34 3.34 0 011.149-1c.453-.24.945-.36 1.476-.36 1.105 0 2.021.391 2.75 1.173.73.776 1.094 1.77 1.094 2.984 0 1.213-.364 2.21-1.094 2.992-.729.776-1.645 1.164-2.75 1.164zm-1.937-2.21c.463.494 1.047.742 1.75.742.703 0 1.284-.248 1.742-.743.458-.5.688-1.148.688-1.945 0-.797-.23-1.443-.688-1.938-.458-.5-1.039-.75-1.742-.75-.703 0-1.287.25-1.75.75-.458.495-.688 1.141-.688 1.938 0 .797.23 1.445.688 1.945zm13.914 1.046c-.766.776-1.732 1.164-2.898 1.164-1.167 0-2.133-.388-2.899-1.164-.766-.781-1.148-1.779-1.148-2.992s.382-2.208 1.148-2.984c.766-.782 1.732-1.172 2.899-1.172 1.166 0 2.132.39 2.898 1.172.766.776 1.148 1.77 1.148 2.984 0 1.213-.382 2.21-1.148 2.992zm-4.648-1.047c.463.495 1.046.743 1.75.743.703 0 1.286-.248 1.75-.743.463-.5.695-1.148.695-1.945 0-.797-.232-1.443-.695-1.938-.464-.5-1.047-.75-1.75-.75-.704 0-1.287.25-1.75.75-.464.495-.696 1.141-.696 1.938 0 .797.232 1.445.696 1.945zm14.023 4.211V88h-5.875v2.156h-1.469v-3.625h.781c.24-.448.42-1.114.54-2 .124-.885.195-2.396.21-4.531h6.164v6.531h1.118v3.625h-1.469zm-4.531-5.531c-.115.865-.253 1.5-.414 1.906h3.695V81.47h-3.102c-.015 1.291-.075 2.344-.179 3.156zm11.226 4.273c-.146.417-.289.774-.429 1.07a5.662 5.662 0 01-.5.884 2.811 2.811 0 01-.633.687 2.605 2.605 0 01-.813.422 3.15 3.15 0 01-1.047.164c-.427 0-.828-.057-1.203-.172v-1.406a3.64 3.64 0 001.063.172c.489 0 .888-.146 1.195-.438.313-.286.602-.752.867-1.398L363.984 80h1.602l2.32 6.703L370.211 80h1.601l-3.156 8.898zm9.86-.898l-3.828-4.21V88h-1.594v-8h1.594v3.555L378.133 80h2.125l-3.758 3.648L380.547 88h-2.031zm1.945-6.531V80h6.781v1.469h-2.594V88h-1.593v-6.531h-2.594zM393.648 88v-1.344a2.529 2.529 0 01-1.093 1.133c-.474.245-1.013.367-1.617.367a3.79 3.79 0 01-1.344-.226 2.181 2.181 0 01-.985-.75c-.26-.355-.39-.784-.39-1.29 0-.468.099-.861.297-1.18a1.86 1.86 0 01.773-.718 4.87 4.87 0 011.047-.367 9.81 9.81 0 011.148-.21c.386-.053.737-.11 1.055-.173.318-.068.576-.174.773-.32a.692.692 0 00.297-.586c0-.38-.161-.677-.484-.89-.323-.22-.737-.329-1.242-.329-.537 0-.964.136-1.281.406-.318.271-.477.66-.477 1.165h-1.664c0-.401.062-.764.187-1.086a2.29 2.29 0 01.508-.805c.214-.219.466-.399.758-.54.297-.145.607-.25.93-.312a5.13 5.13 0 011.039-.101c.448 0 .864.047 1.25.14.385.094.737.24 1.055.438.317.193.567.458.75.797.182.338.273.732.273 1.18V88h-1.563zm-3.796-2.21c0 .332.127.588.382.765.261.172.602.257 1.024.257.661 0 1.224-.184 1.687-.554.469-.375.703-.893.703-1.555v-.578a4.185 4.185 0 01-.906.297c-.37.078-.711.143-1.023.195a7.485 7.485 0 00-.914.195c-.292.079-.524.198-.696.36a.797.797 0 00-.257.617z" fill="#313131"/><path stroke="#00A85B" d="M303.5 0v102m7.004-.275l-7.195 12.462-7.196-12.462h14.391z"/></svg>