<svg width="572" height="277" fill="none" xmlns="http://www.w3.org/2000/svg"><circle cx="25" cy="25" r="24.5" stroke="#000"/><path d="M19.746 35V16.25h5.334c1.579 0 2.836.403 3.772 1.209.936.797 1.404 1.936 1.404 3.418v.244c0 1.725-.745 2.942-2.234 3.65.846.358 1.51.911 1.99 1.66.488.74.732 1.64.732 2.697v.5c0 1.71-.468 3.032-1.404 3.968-.936.936-2.189 1.404-3.76 1.404h-5.834zm5.078-16.003h-2.076v4.748h2.076c.797 0 1.4-.187 1.806-.561.415-.383.623-.985.623-1.807v-.256c0-.741-.208-1.278-.623-1.612-.406-.341-1.009-.512-1.806-.512zm.5 7.507h-2.576v5.75h2.576c.798 0 1.4-.228 1.807-.684.415-.464.622-1.197.622-2.197v-.245c0-.927-.203-1.595-.61-2.002-.407-.415-1.013-.622-1.819-.622z" fill="#000"/><path fill="#B2B3B3" stroke="#000" d="M220.5 156.5v-50h14v50zm-64 0v-50h14v50zm-79 120V.5h14v276zm470 0V.5h14v276zm-456-67h456v14h-456z"/><path fill="#EBECEC" stroke="#000" d="M67.5 48.5h504v29h-504z"/><rect x="113.5" y=".5" width="164" height="124" rx="4.5" fill="#B2B3B3" stroke="#000"/><rect x="384.5" y="17.5" width="144" height="91" rx="4.5" fill="#B2B3B3" stroke="#000"/><path d="M444.969 56.656c-.125.474-.25.88-.375 1.219-.12.339-.263.661-.43.969a2.856 2.856 0 01-.547.726 2.18 2.18 0 01-.703.43 2.469 2.469 0 01-.906.156c-.485 0-.893-.057-1.227-.172V58.29c.287.073.573.11.86.11.474 0 .836-.16 1.086-.477L439.766 48h1.984l1.891 7.234L445.352 48h1.937l-2.32 8.656zm6.765 0h-1.281V55.22h1.281c.683 0 1.024-.294 1.024-.883a.853.853 0 00-.344-.711c-.229-.177-.581-.266-1.055-.266-1.052 0-1.578.508-1.578 1.524h-1.922c0-.417.073-.805.219-1.164.146-.365.36-.688.641-.969s.648-.503 1.101-.664a4.567 4.567 0 011.539-.242c1.063 0 1.868.224 2.414.672.547.448.821 1.002.821 1.664 0 .364-.091.708-.274 1.03-.177.319-.437.56-.781.727.833.339 1.25.925 1.25 1.758 0 .771-.294 1.375-.883 1.813-.583.432-1.432.648-2.547.648-1.156 0-2.044-.27-2.664-.812-.619-.542-.929-1.31-.929-2.305h1.914c0 1.078.567 1.617 1.703 1.617.526 0 .903-.093 1.133-.281a.904.904 0 00.351-.742c0-.308-.094-.547-.281-.719-.188-.172-.471-.258-.852-.258zM463.836 56c0 .146-.01.36-.031.64h-6.016c.104.59.341 1.042.711 1.36.375.318.859.477 1.453.477.802 0 1.336-.292 1.602-.875h2.078c-.235.823-.682 1.455-1.344 1.898-.656.438-1.461.656-2.414.656-1.151 0-2.102-.388-2.852-1.164-.744-.776-1.117-1.773-1.117-2.992s.373-2.216 1.117-2.992c.75-.776 1.701-1.164 2.852-1.164 1.151 0 2.099.388 2.844 1.164.745.776 1.117 1.773 1.117 2.992zm-2.594-2.016c-.354-.307-.81-.46-1.367-.46-.557 0-1.016.153-1.375.46-.359.302-.591.735-.695 1.297h4.133c-.105-.562-.336-.995-.696-1.297zm4.649 3.586c.192-.567.289-2.424.289-5.57h6.093v8h-1.921v-6.242h-2.414c-.016 1.63-.084 2.82-.204 3.57-.109.698-.27 1.242-.484 1.633-.214.39-.477.661-.789.812-.313.151-.716.227-1.211.227h-.289v-1.758h.094c.411 0 .69-.224.836-.672zm-46.86 20.422c-.771.776-1.745 1.164-2.922 1.164s-2.151-.388-2.921-1.164c-.771-.781-1.157-1.779-1.157-2.992s.386-2.208 1.157-2.984c.77-.782 1.744-1.172 2.921-1.172 1.177 0 2.151.39 2.922 1.172.771.776 1.157 1.77 1.157 2.984 0 1.213-.386 2.21-1.157 2.992zm-4.476-1.258c.411.443.929.664 1.554.664s1.141-.22 1.547-.664c.406-.442.61-1.02.61-1.734 0-.713-.204-1.292-.61-1.734-.406-.443-.922-.664-1.547-.664-.625 0-1.143.224-1.554.671-.407.443-.61 1.019-.61 1.727 0 .708.203 1.287.61 1.734zm6.187-3.976V71h6.719v1.758h-2.399V79h-1.921v-6.242h-2.399zm16.086 2.32c0 .792-.18 1.5-.539 2.125a3.744 3.744 0 01-1.461 1.445c-.62.339-1.312.508-2.078.508a4.24 4.24 0 01-2.07-.508 3.814 3.814 0 01-1.469-1.437c-.359-.62-.539-1.32-.539-2.102v-2.976c0-.63.052-1.177.156-1.64.104-.47.25-.86.438-1.173a2.5 2.5 0 01.757-.789 3.947 3.947 0 011.024-.492c.37-.12.81-.216 1.32-.289l1.891-.273c.187-.026.315-.081.383-.165a.457.457 0 00.109-.312h1.922c0 .385-.042.703-.125.953a1.31 1.31 0 01-.438.625 2.21 2.21 0 01-.75.383 7.648 7.648 0 01-1.148.234l-1.664.235c-.547.078-.961.198-1.242.36-.282.155-.487.405-.617.75-.131.338-.196.822-.196 1.452v.258c.537-.833 1.417-1.25 2.641-1.25.484 0 .95.102 1.398.305.448.198.841.474 1.18.828.338.349.609.781.812 1.297a4.4 4.4 0 01.305 1.648zm-5.633 1.68c.401.427.92.64 1.555.64.635 0 1.154-.216 1.555-.648.406-.438.609-.995.609-1.672 0-.672-.2-1.226-.602-1.664-.401-.437-.921-.656-1.562-.656-.63 0-1.148.216-1.555.648-.401.432-.601.99-.601 1.672 0 .688.2 1.248.601 1.68zm11.633 2.398c-.953 0-1.752-.388-2.398-1.164V83h-1.922V71h1.922v1.008c.646-.776 1.445-1.164 2.398-1.164 1.104 0 2.021.39 2.75 1.172.729.776 1.094 1.77 1.094 2.984 0 1.213-.365 2.21-1.094 2.992-.729.776-1.646 1.164-2.75 1.164zm-1.789-2.422c.412.443.93.664 1.555.664.625 0 1.14-.22 1.547-.664.406-.442.609-1.02.609-1.734 0-.713-.203-1.292-.609-1.734-.407-.443-.922-.664-1.547-.664-.625 0-1.143.224-1.555.671-.406.443-.609 1.019-.609 1.727 0 .708.203 1.287.609 1.734zM453.188 79v-1.188c-.49.896-1.339 1.344-2.547 1.344-.48 0-.917-.075-1.313-.226a2.213 2.213 0 01-.984-.758c-.261-.36-.391-.797-.391-1.313 0-.411.073-.768.219-1.07.151-.302.349-.536.594-.703.244-.167.523-.307.836-.422.312-.12.63-.203.953-.25a31.325 31.325 0 001.789-.32 1.36 1.36 0 00.586-.274.584.584 0 00.226-.468c0-.303-.14-.542-.422-.72-.276-.181-.627-.273-1.054-.273-.453 0-.815.118-1.086.352-.266.234-.399.57-.399 1.008h-2c0-.5.097-.94.289-1.32.193-.38.456-.68.789-.899a3.577 3.577 0 011.102-.492 5 5 0 011.305-.164c.458 0 .882.05 1.273.148.396.094.755.24 1.078.438.323.198.578.468.766.812.187.339.281.735.281 1.188V79h-1.89zm-3.266-2.273c0 .27.101.479.305.625.208.14.479.21.812.21.594 0 1.099-.164 1.516-.492.422-.328.633-.783.633-1.367v-.367a4.72 4.72 0 01-.821.25c-.328.068-.625.127-.89.18a7.276 7.276 0 00-.774.18 1.446 1.446 0 00-.578.304.622.622 0 00-.203.477zM462.508 79l-3.438-4.21V79h-1.922v-8h1.922v3.484L462.172 71h2.531l-3.523 3.633L464.914 79h-2.406zm9.648-1.008c-.771.776-1.745 1.164-2.922 1.164s-2.151-.388-2.922-1.164c-.77-.781-1.156-1.779-1.156-2.992s.386-2.208 1.156-2.984c.771-.782 1.745-1.172 2.922-1.172s2.151.39 2.922 1.172c.771.776 1.156 1.77 1.156 2.984 0 1.213-.385 2.21-1.156 2.992zm-4.476-1.258c.411.443.929.664 1.554.664s1.141-.22 1.547-.664c.407-.442.61-1.02.61-1.734 0-.713-.203-1.292-.61-1.734-.406-.443-.922-.664-1.547-.664-.625 0-1.143.224-1.554.671-.407.443-.61 1.019-.61 1.727 0 .708.203 1.287.61 1.734zM474.992 79v-8h4.196c.75 0 1.343.18 1.781.54.442.353.664.871.664 1.554 0 .765-.341 1.315-1.024 1.648.412.151.732.388.961.711.235.318.352.711.352 1.18 0 .781-.234 1.372-.703 1.773-.469.396-1.136.594-2 .594h-4.227zm1.844-6.563v1.75h1.789c.422 0 .721-.072.898-.218.183-.151.274-.367.274-.649 0-.307-.089-.53-.266-.672-.177-.14-.479-.21-.906-.21h-1.789zm2.078 3.188h-2.078v1.938h2.078c.724 0 1.086-.331 1.086-.993 0-.63-.362-.945-1.086-.945zM489.273 79l-3.437-4.21V79h-1.922v-8h1.922v3.484L488.938 71h2.531l-3.524 3.633L491.68 79h-2.407zm5.532-8v5.984L497.938 71h2.468v8h-1.844v-5.969L495.43 79h-2.469v-8h1.844z" fill="#000"/><path fill-rule="evenodd" clip-rule="evenodd" d="M171 109.427v-7.129h5.241v1.18h-3.777v1.558h3.541v1.18h-3.541v1.936h3.965v1.18H171v.095zm6.61 0v-7.129h3.021c.756 0 1.322.047 1.653.188.33.142.614.378.85.661.188.331.33.709.33 1.133 0 .52-.142.992-.472 1.322-.33.331-.803.567-1.416.661.33.189.566.378.755.614.189.236.472.614.803 1.18l.849 1.37h-1.699l-1.039-1.558c-.378-.567-.614-.897-.755-1.039a1.115 1.115 0 00-.425-.283 2.275 2.275 0 00-.708-.095h-.284v2.975h-1.463zm1.463-4.108h1.039c.708 0 1.133-.047 1.275-.094.189-.047.283-.142.425-.284a.952.952 0 00.141-.519c0-.236-.047-.425-.189-.566a1.126 1.126 0 00-.519-.284c-.094 0-.472-.047-1.039-.047h-1.133v1.794zm9.018 1.511v-1.18h3.069v2.832c-.283.284-.756.567-1.322.756a4.424 4.424 0 01-1.747.33c-.755 0-1.369-.141-1.936-.472a3.01 3.01 0 01-1.227-1.322 4.246 4.246 0 01-.425-1.888c0-.756.141-1.417.472-1.983.33-.567.755-1.039 1.369-1.322a3.764 3.764 0 011.7-.378c.897 0 1.558.189 2.077.567.472.377.803.897.944 1.558l-1.416.283a1.69 1.69 0 00-.567-.85c-.283-.189-.613-.283-1.038-.283-.614 0-1.133.189-1.511.614-.378.377-.567.991-.567 1.794 0 .85.189 1.463.567 1.888.378.425.85.614 1.464.614.283 0 .613-.047.897-.189.283-.094.566-.283.755-.425v-.897h-1.558v-.047zm4.438-4.485h1.416v3.871c0 .614 0 .992.048 1.181.047.283.188.519.424.708.237.189.52.283.945.283.425 0 .708-.094.897-.236.189-.189.33-.378.377-.614.048-.236.048-.661.048-1.227v-3.919h1.463v3.73c0 .85-.047 1.463-.094 1.794-.095.33-.236.661-.425.897s-.472.425-.85.566c-.33.142-.803.237-1.369.237-.661 0-1.18-.095-1.558-.237-.331-.141-.614-.377-.85-.613a1.806 1.806 0 01-.378-.803c-.094-.425-.141-.991-.141-1.794v-3.824h.047zm13.55 7.082h-1.558l-.614-1.606h-2.833l-.566 1.606h-1.511l2.738-7.129h1.511l2.833 7.129zm-2.644-2.786l-.991-2.644-.945 2.644h1.936zm3.399 2.786v-7.129h3.022c.755 0 1.322.047 1.652.188.331.142.614.378.85.661.189.331.331.709.331 1.133 0 .52-.142.992-.472 1.322-.331.331-.803.567-1.417.661.331.189.567.378.756.614.188.236.472.614.802 1.18l.85 1.37h-1.7l-1.038-1.558c-.378-.567-.614-.897-.756-1.039a1.1 1.1 0 00-.425-.283 2.265 2.265 0 00-.708-.095h-.283v2.975h-1.464zm1.464-4.108h1.039c.708 0 1.133-.047 1.274-.094.189-.047.284-.142.425-.284a.944.944 0 00.142-.519c0-.236-.047-.425-.189-.566a1.13 1.13 0 00-.519-.284c-.095 0-.472-.047-1.039-.047h-1.133v1.794zm5.713-2.974h2.596c.567 0 1.039.047 1.37.141.424.142.755.331 1.085.661.284.331.52.709.661 1.133.142.473.236.992.236 1.7a4.82 4.82 0 01-.236 1.511c-.188.519-.424.944-.755 1.275-.236.236-.567.425-.991.566-.331.095-.756.142-1.275.142h-2.691v-7.129zm1.463 1.18v4.721h1.086c.378 0 .708 0 .85-.047.236-.047.425-.142.567-.283.141-.142.283-.378.377-.708.095-.331.142-.756.142-1.322 0-.567-.047-.992-.142-1.275a1.774 1.774 0 00-.425-.708c-.189-.142-.377-.283-.661-.331-.188-.047-.613-.047-1.18-.047h-.614zM183.842 15c-.095 2.266-.189 4.532-.284 6.751-1.463 1.133-2.974 2.22-4.438 3.352v7.271c1.511-.472 3.022-.472 4.533-.472.236 5.618.378 11.284.566 16.902.095.708.142 1.464.236 2.172-.519.52-.566.944-1.605 1.605-1.133.614-1.416.567-1.699 2.03.141 1.747.141 1.889 1.369 2.833.85.236 1.227.425 2.077.047.519 13.126.992 26.203 1.511 39.329.236-.048.425-.142.661-.19v-1.18c0-.377 0-.708-.047-1.086l-.992-37.109c.803-.519 1.464-1.038 2.219-1.652.661 2.502.85 4.768.897 7.412-.189.85-.377 1.747-.566 2.597-.378 2.455-.661 4.816-.756 7.27a21.773 21.773 0 00-.094 1.747h.708c.283 1.842.519 3.683.661 5.524-.708 3.4-.283 6.185.142 9.49l.519 4.344c.094.708-1.464 1.51-1.416 2.03 0 .566.944.897 1.416 1.038.567.048.519.19 1.747-.094 1.416-.33 1.416-.566 1.275-1.605-.095-.614-.284-.708-.331-1.558-.047-1.18.095-3.022.142-4.06.189-2.125.661-4.108.944-6.233.047-1.038.142-1.746-.094-2.738.094-.472.236-.897.33-1.369.189-.897.331-1.794.425-2.691.047-.425.047-.803.094-1.228.284 0 .567.048.85.048.047 1.227.142 2.219.425 3.399.142.614.283 1.275.425 1.888-.047.473-.047.945-.094 1.417-.048.52-.095.991-.095 1.51.047.614.189 1.18.283 1.747l.425 2.267c.331 1.652.567 5.807.473 6.61-.095.377-.331.66-.425 1.085a1.755 1.755 0 000 .709c.094.377.519.566 1.085.613 1.134.142.803.142 1.983.095.331 0 .803-.095 1.086-.378.189-.189.472-.661.331-.897-.378-.614-1.039-.944-1.558-1.37 0 0 0-.613.047-.707.094-.425.708-3.777.755-4.344.331-1.18.378-2.408.52-3.588.094-1.7 0-2.739-.472-4.25.094-2.124.141-4.154.377-6.184l1.039 3.918.708 1.417.708 1.322.142-1.275.094-1.416-1.51-8.026c.472.236.897.424 1.369.66 2.077-2.596 3.682-5.146 3.966-8.734a69.755 69.755 0 00-.378-11.33c-.047-.615-.094-1.181-.142-1.795l-3.021.52c-.425-1.322-.897-2.267-2.644-3.211-1.133-.614-2.172-.944-3.494-1.322-.047.614.472-2.785.472-4.25-.283-1.18-.708-2.265-1.275-3.398-1.51-.142-2.974-.236-4.532 0-.425 1.18-.897 2.219-1.275 3.493.142 1.511.472 2.88.661 4.344-.85.33-1.841.472-2.644.897-1.274.566-2.124 1.37-3.21 2.313-.283-5.807-.519-11.567-.755-17.374 2.077.378 4.06.85 6.137 1.416 1.983.662 3.966 1.37 5.902 2.172 3.163.897 5.807 1.464 9.017 1.322 4.155-.613.945-.613 2.314-3.493 1.133-.803 2.455-1.18 3.777-2.267-2.03-.897-3.022-1.274-1.558-3.777.519-.944 1.038-1.888 1.558-2.785-1.086.566-2.172 1.18-3.258 1.747-1.133.519-1.794.802-2.974.85-2.361.188-2.125-.048-1.889 2.643-2.408-.047-4.249-.613-6.562-1.322-2.314-.897-4.674-1.747-6.988-2.643-1.936-.52-3.635-.992-5.665-.992-.142-2.738-.048-5.571-.425-8.262a14.251 14.251 0 01-.236-1.511zm-9.962 83.52h43.246c.047 0 .095.047.095.094v.85c0 .047-.048.094-.095.094H173.88c-.048 0-.095-.047-.095-.094v-.85c0-.095.047-.095.095-.095z" fill="#313131"/><path fill="#B2B3B3" stroke="#000" d="M153.5 156.5h84v108.677h-84z"/><path fill="#ACDBF1" stroke="#000" d="M173.608 171.125h44.699v28.247h-44.699z"/><circle cx="195.043" cy="224.546" r="4.984" fill="#00A85A" stroke="#000"/><circle cx="208.753" cy="224.546" r="4.984" fill="#00A65A" stroke="#000"/><circle cx="208.753" cy="238.257" r="4.984" fill="#DA2C1C" stroke="#000"/><circle cx="195.043" cy="238.257" r="4.984" fill="#DB2C1C" stroke="#000"/><circle cx="182.247" cy="238.257" r="4.984" fill="#DB2C1C" stroke="#000"/><circle cx="182.247" cy="224.546" r="4.984" fill="#00A85B" stroke="#000"/></svg>