<svg width="714" height="335" fill="none" xmlns="http://www.w3.org/2000/svg"><path fill="#B2B3B3" stroke="#000" d="M629.5 71.5h84v108.677h-84z"/><path fill="#ACDBF1" stroke="#000" d="M649.608 86.125h44.699v28.247h-44.699z"/><circle cx="671.043" cy="139.546" r="4.984" fill="#00A85A" stroke="#000"/><circle cx="684.753" cy="139.546" r="4.984" fill="#00A65A" stroke="#000"/><circle cx="684.753" cy="153.257" r="4.984" fill="#DA2C1C" stroke="#000"/><circle cx="671.043" cy="153.257" r="4.984" fill="#DB2C1C" stroke="#000"/><circle cx="658.247" cy="153.257" r="4.984" fill="#DB2C1C" stroke="#000"/><circle cx="658.247" cy="139.546" r="4.984" fill="#00A85B" stroke="#000"/><circle cx="356" cy="239" r="24.5" stroke="#000"/><path d="M355.201 231.227v-.977h3.003V249h-3.003v-12.5h-3.503v-2.502h.708c.993 0 1.705-.216 2.136-.647.439-.432.659-1.14.659-2.124z" fill="#000"/><circle cx="456" cy="283" r="24.5" stroke="#000"/><path d="M460.694 279.353c0 .691-.11 1.367-.329 2.026a7.012 7.012 0 01-.855 1.77c-.35.521-.74 1.029-1.172 1.526-.423.496-.866.976-1.33 1.44-.456.456-.883.899-1.282 1.331-.391.431-.74.891-1.05 1.379a5.028 5.028 0 00-.622 1.428h6.897V293h-10.157v-1.453c0-.618.078-1.216.232-1.794a7.436 7.436 0 01.635-1.575c.269-.472.574-.932.916-1.379.35-.448.716-.867 1.098-1.257.383-.399.765-.79 1.148-1.172.382-.391.744-.782 1.086-1.172.35-.391.655-.781.916-1.172a5.15 5.15 0 00.634-1.27c.163-.464.245-.931.245-1.403 0-.879-.167-1.53-.501-1.954-.325-.431-.777-.647-1.355-.647-.618 0-1.09.212-1.416.635-.317.423-.476 1.127-.476 2.112V281h-3.003v-1.745c0-1.107.22-2.063.659-2.869.448-.805 1.034-1.404 1.758-1.794.733-.391 1.559-.586 2.478-.586 1.4 0 2.555.468 3.467 1.404.92.927 1.379 2.242 1.379 3.943z" fill="#000"/><circle cx="556" cy="239" r="24.5" stroke="#000"/><path d="M561.5 244.251c0 1.05-.244 1.958-.732 2.723a4.458 4.458 0 01-1.929 1.709c-.798.374-1.701.561-2.71.561s-1.917-.187-2.722-.561a4.543 4.543 0 01-1.929-1.709c-.488-.765-.732-1.673-.732-2.723v-1.257h3.003v1.001c0 1.668.793 2.503 2.38 2.503 1.579 0 2.368-.835 2.368-2.503v-.622c0-1.669-.789-2.503-2.368-2.503h-1.502v-2.991h1.502c1.245 0 1.868-.752 1.868-2.258v-.867c0-1.334-.623-2.002-1.868-2.002-1.253 0-1.88.668-1.88 2.002v.745h-3.003v-1.001c0-1.416.46-2.519 1.379-3.308.928-.789 2.096-1.184 3.504-1.184s2.572.395 3.491 1.184c.92.789 1.38 1.892 1.38 3.308v1.001c0 .814-.184 1.526-.55 2.136a3.934 3.934 0 01-1.501 1.441c.789.358 1.412.87 1.867 1.538.456.667.684 1.461.684 2.38v1.257z" fill="#000"/><circle cx="25" cy="25" r="24.5" stroke="#000"/><path d="M19.244 35l3.882-18.75h4.504L31.5 35h-3.027l-.818-4.248h-4.553L22.272 35h-3.028zm4.383-6.995h3.503l-1.758-9.033-1.745 9.033z" fill="#000"/><path d="M73.828 19v-5.438h-3.875V19H68.36V7h1.594v5.086h3.875V7h1.602v12h-1.602zm8.977 0v-1.344c-.256.506-.62.883-1.094 1.133-.474.245-1.013.367-1.617.367a3.79 3.79 0 01-1.344-.226 2.177 2.177 0 01-.984-.75c-.26-.354-.391-.784-.391-1.29 0-.468.099-.861.297-1.18.198-.322.456-.562.773-.718a4.859 4.859 0 011.047-.367 9.826 9.826 0 011.149-.21c.385-.053.737-.11 1.054-.173.318-.068.576-.174.774-.32a.692.692 0 00.297-.586c0-.38-.162-.677-.485-.89-.323-.22-.737-.329-1.242-.329-.536 0-.963.136-1.281.406-.318.271-.477.66-.477 1.165h-1.664c0-.402.063-.764.188-1.086.125-.323.294-.592.507-.805.214-.219.467-.399.758-.54.297-.145.607-.25.93-.312a5.134 5.134 0 011.04-.101c.447 0 .864.047 1.25.14a3.6 3.6 0 011.054.438c.318.193.568.458.75.797.182.338.273.732.273 1.18V19h-1.562zm-3.797-2.21c0 .332.127.588.383.765.26.172.601.258 1.023.258.662 0 1.224-.185 1.688-.555.468-.375.703-.893.703-1.555v-.578a4.2 4.2 0 01-.907.297c-.37.078-.71.143-1.023.195a7.502 7.502 0 00-.914.195c-.292.079-.523.198-.695.36a.795.795 0 00-.258.617zM86.594 19v-8h6.812v8h-1.601v-6.531h-3.618V19h-1.593zm13.422.156a3.166 3.166 0 01-1.477-.351 3.415 3.415 0 01-1.148-1.008V23h-1.594V11h1.594v1.203c.317-.432.7-.765 1.148-1a3.11 3.11 0 011.477-.36c1.104 0 2.02.391 2.75 1.173.729.776 1.093 1.77 1.093 2.984 0 1.213-.364 2.21-1.093 2.992-.73.776-1.646 1.164-2.75 1.164zm-1.938-2.21c.464.494 1.047.741 1.75.741.703 0 1.284-.247 1.742-.742.459-.5.688-1.148.688-1.945 0-.797-.229-1.443-.688-1.938-.458-.5-1.039-.75-1.742-.75-.703 0-1.286.25-1.75.75-.458.495-.687 1.141-.687 1.938 0 .797.229 1.445.687 1.945zM110.648 19v-1.344a2.529 2.529 0 01-1.093 1.133c-.474.245-1.013.367-1.617.367a3.79 3.79 0 01-1.344-.226 2.181 2.181 0 01-.985-.75c-.26-.354-.39-.784-.39-1.29 0-.468.099-.861.297-1.18a1.86 1.86 0 01.773-.718 4.87 4.87 0 011.047-.367 9.81 9.81 0 011.148-.21c.386-.053.737-.11 1.055-.173.318-.068.576-.174.773-.32a.692.692 0 00.297-.586c0-.38-.161-.677-.484-.89-.323-.22-.737-.329-1.242-.329-.537 0-.964.136-1.281.406-.318.271-.477.66-.477 1.165h-1.664c0-.402.062-.764.187-1.086a2.29 2.29 0 01.508-.805c.214-.219.466-.399.758-.54.297-.145.607-.25.93-.312a5.13 5.13 0 011.039-.101c.448 0 .864.047 1.25.14.385.094.737.24 1.055.438.317.193.567.458.75.797.182.338.273.732.273 1.18V19h-1.563zm-3.796-2.21c0 .332.127.588.382.765.261.172.602.258 1.024.258.661 0 1.224-.185 1.687-.555.469-.375.703-.893.703-1.555v-.578a4.185 4.185 0 01-.906.297c-.37.078-.711.143-1.023.195a7.485 7.485 0 00-.914.195c-.292.079-.524.198-.696.36a.797.797 0 00-.257.617zm7.586 2.21v-8h3.96c.761 0 1.365.177 1.813.531.448.354.672.87.672 1.547 0 .813-.367 1.373-1.102 1.68.453.15.805.39 1.055.719.255.322.383.729.383 1.218 0 .756-.237 1.328-.711 1.72-.469.39-1.128.585-1.977.585h-4.093zm3.5-6.781h-1.969v2.078h1.969c.937 0 1.406-.347 1.406-1.04 0-.359-.112-.622-.336-.788-.219-.167-.576-.25-1.07-.25zm.32 3.297h-2.289v2.265h2.289c.448 0 .786-.096 1.015-.289.23-.193.344-.474.344-.844s-.114-.65-.344-.843c-.229-.193-.567-.29-1.015-.29zm5.445 1.148c.198-.703.305-2.591.32-5.664h5.922v8h-1.601v-6.531h-2.86c-.031 1.75-.112 3.083-.242 4-.161.963-.422 1.627-.781 1.992-.354.36-.867.539-1.539.539h-.289v-1.469h.133c.479 0 .791-.289.937-.867zM139.586 15c0 .125-.01.307-.031.547h-6.274c.099.698.362 1.24.789 1.625.427.385.977.578 1.649.578.948 0 1.593-.383 1.937-1.148h1.727c-.245.817-.695 1.447-1.352 1.89-.651.443-1.442.664-2.375.664-1.14 0-2.083-.388-2.828-1.164-.739-.776-1.109-1.773-1.109-2.992s.37-2.216 1.109-2.992c.745-.776 1.688-1.164 2.828-1.164 1.141 0 2.081.388 2.821 1.164.739.776 1.109 1.773 1.109 2.992zm-3.93-2.75c-.646 0-1.174.19-1.586.57-.411.375-.666.899-.765 1.57h4.703c-.099-.671-.357-1.195-.774-1.57-.411-.38-.937-.57-1.578-.57zM146.812 19v-3.313h-3.843V19h-1.594v-8h1.594v3.234h3.843V11h1.602v8h-1.602zm5.5-8v6.383L155.977 11h2.031v8h-1.531v-6.383L152.812 19h-2.031v-8h1.531zm15.336 4c0 .125-.01.307-.031.547h-6.273c.099.698.362 1.24.789 1.625.427.385.976.578 1.648.578.948 0 1.594-.383 1.938-1.148h1.726c-.244.817-.695 1.447-1.351 1.89-.651.443-1.443.664-2.375.664-1.141 0-2.084-.388-2.828-1.164-.74-.776-1.11-1.773-1.11-2.992s.37-2.216 1.11-2.992c.744-.776 1.687-1.164 2.828-1.164 1.14 0 2.08.388 2.82 1.164.74.776 1.109 1.773 1.109 2.992zm-3.929-2.75c-.646 0-1.175.19-1.586.57-.412.375-.667.899-.766 1.57h4.703c-.099-.671-.356-1.195-.773-1.57-.412-.38-.938-.57-1.578-.57zm15.851 8.906V19h-5.875v2.156h-1.468v-3.625h.781c.239-.448.419-1.114.539-2 .125-.885.195-2.396.211-4.531h6.164v6.531h1.117v3.625h-1.469zm-4.531-5.531c-.115.865-.253 1.5-.414 1.906h3.695V12.47h-3.101c-.016 1.291-.076 2.344-.18 3.156zM182.672 19v-8h3.961c.76 0 1.364.177 1.812.531.448.354.672.87.672 1.547 0 .813-.367 1.373-1.101 1.68.453.15.804.39 1.054.719.256.322.383.729.383 1.218 0 .756-.237 1.328-.711 1.72-.469.39-1.127.585-1.976.585h-4.094zm3.5-6.781h-1.969v2.078h1.969c.937 0 1.406-.347 1.406-1.04 0-.359-.112-.622-.336-.788-.219-.167-.575-.25-1.07-.25zm.32 3.297h-2.289v2.265h2.289c.448 0 .787-.096 1.016-.289.229-.193.344-.474.344-.844s-.115-.65-.344-.843c-.229-.193-.568-.29-1.016-.29zm6.57-4.516v6.383L196.727 11h2.031v8h-1.531v-6.383L193.562 19h-2.031v-8h1.531zm12.555 8v-4.18L202.148 19h-2.015l3.726-4.352L200.414 11h2.133l3.07 3.523V11h1.602v3.54l3.086-3.54h2.047l-3.36 3.648L212.656 19h-1.968l-3.469-4.21V19h-1.602zm15.203-4c0 .125-.01.307-.031.547h-6.273c.099.698.362 1.24.789 1.625.427.385.976.578 1.648.578.948 0 1.594-.383 1.938-1.148h1.726c-.245.817-.695 1.447-1.351 1.89-.651.443-1.443.664-2.375.664-1.141 0-2.084-.388-2.829-1.164-.739-.776-1.109-1.773-1.109-2.992s.37-2.216 1.109-2.992c.745-.776 1.688-1.164 2.829-1.164 1.14 0 2.08.388 2.82 1.164.74.776 1.109 1.773 1.109 2.992zm-3.929-2.75c-.646 0-1.175.19-1.586.57-.412.375-.667.899-.766 1.57h4.703c-.099-.671-.357-1.195-.773-1.57-.412-.38-.938-.57-1.578-.57zM228.047 19v-3.313h-3.844V19h-1.594v-8h1.594v3.234h3.844V11h1.601v8h-1.601zm5.5-8v6.383L237.211 11h2.031v8h-1.531v-6.383L234.047 19h-2.031v-8h1.531zm7.883 2.43c0-.422.075-.792.226-1.11a1.92 1.92 0 01.649-.758c.276-.192.586-.333.929-.421.349-.094.73-.141 1.141-.141h3.445v8h-1.601v-3.508h-.016L242.742 19h-1.867l3.133-3.102c-.719-.041-1.328-.278-1.828-.71-.5-.433-.75-1.019-.75-1.758zm3.218 1.328h1.571v-2.54h-1.571c-.51 0-.908.105-1.195.313-.281.209-.422.513-.422.914 0 .875.539 1.313 1.617 1.313zM179.938 43v-8h6.812v8h-1.602v-6.531h-3.617V43h-1.593zm13.421.156a3.164 3.164 0 01-1.476-.351 3.42 3.42 0 01-1.149-1.008V47h-1.593V35h1.593v1.203a3.34 3.34 0 011.149-1c.453-.24.945-.36 1.476-.36 1.105 0 2.021.391 2.75 1.173.73.776 1.094 1.77 1.094 2.984s-.364 2.21-1.094 2.992c-.729.776-1.645 1.164-2.75 1.164zm-1.937-2.21c.463.494 1.047.742 1.75.742.703 0 1.284-.248 1.742-.743.458-.5.688-1.148.688-1.945 0-.797-.23-1.443-.688-1.938-.458-.5-1.039-.75-1.742-.75-.703 0-1.287.25-1.75.75-.458.495-.688 1.141-.688 1.938 0 .797.23 1.445.688 1.945zm13.914 1.046c-.766.776-1.732 1.164-2.898 1.164-1.167 0-2.133-.388-2.899-1.164-.766-.781-1.148-1.778-1.148-2.992s.382-2.208 1.148-2.984c.766-.782 1.732-1.172 2.899-1.172 1.166 0 2.132.39 2.898 1.172.766.776 1.148 1.77 1.148 2.984s-.382 2.21-1.148 2.992zm-4.648-1.047c.463.495 1.046.742 1.75.742.703 0 1.286-.247 1.75-.742.463-.5.695-1.148.695-1.945 0-.797-.232-1.443-.695-1.938-.464-.5-1.047-.75-1.75-.75-.704 0-1.287.25-1.75.75-.464.495-.696 1.141-.696 1.938 0 .797.232 1.445.696 1.945zm14.023 4.211V43h-5.875v2.156h-1.469v-3.625h.781c.24-.448.42-1.114.54-2 .124-.885.195-2.396.21-4.531h6.164v6.531h1.118v3.625h-1.469zm-4.531-5.531c-.115.865-.253 1.5-.414 1.906h3.695V36.47h-3.102c-.015 1.291-.075 2.343-.179 3.156zm11.226 4.273c-.146.417-.289.774-.429 1.07a5.662 5.662 0 01-.5.884 2.811 2.811 0 01-.633.687 2.605 2.605 0 01-.813.422 3.15 3.15 0 01-1.047.164c-.427 0-.828-.057-1.203-.172v-1.406a3.64 3.64 0 001.063.172c.489 0 .888-.146 1.195-.438.313-.286.602-.752.867-1.398L216.734 35h1.602l2.32 6.703L222.961 35h1.601l-3.156 8.898zm9.86-.898l-3.828-4.21V43h-1.594v-8h1.594v3.555L230.883 35h2.125l-3.758 3.648L233.297 43h-2.031zm1.945-6.531V35h6.781v1.469h-2.594V43h-1.593v-6.531h-2.594zM246.398 43v-1.344a2.529 2.529 0 01-1.093 1.133c-.474.245-1.013.367-1.617.367a3.79 3.79 0 01-1.344-.226 2.181 2.181 0 01-.985-.75c-.26-.355-.39-.784-.39-1.29 0-.468.099-.861.297-1.18a1.86 1.86 0 01.773-.718 4.87 4.87 0 011.047-.367 9.81 9.81 0 011.148-.21c.386-.053.737-.11 1.055-.173.318-.067.576-.174.773-.32a.692.692 0 00.297-.586c0-.38-.161-.677-.484-.89-.323-.22-.737-.329-1.242-.329-.537 0-.964.136-1.281.406-.318.271-.477.66-.477 1.164h-1.664c0-.4.062-.762.187-1.085a2.29 2.29 0 01.508-.805c.214-.219.466-.399.758-.54.297-.145.607-.25.93-.312a5.13 5.13 0 011.039-.101c.448 0 .864.047 1.25.14.385.094.737.24 1.055.438.317.193.567.458.75.797.182.338.273.731.273 1.18V43h-1.563zm-3.796-2.21c0 .332.127.588.382.765.261.172.602.258 1.024.258.661 0 1.224-.185 1.687-.555.469-.375.703-.893.703-1.555v-.578a4.185 4.185 0 01-.906.297c-.37.078-.711.143-1.023.195a7.485 7.485 0 00-.914.196c-.292.078-.524.197-.696.359a.797.797 0 00-.257.617zM365.656 329v-5.438h-3.875V329h-1.593v-12h1.593v5.086h3.875V317h1.602v12h-1.602zm8.977 0v-1.344c-.255.505-.62.883-1.094 1.133-.474.245-1.013.367-1.617.367a3.79 3.79 0 01-1.344-.226 2.172 2.172 0 01-.984-.75c-.261-.354-.391-.784-.391-1.289 0-.469.099-.862.297-1.18.198-.323.456-.563.773-.719a4.913 4.913 0 011.047-.367c.386-.094.769-.164 1.149-.211a17.4 17.4 0 001.054-.172c.318-.068.576-.174.774-.32a.691.691 0 00.297-.586c0-.38-.162-.677-.485-.891-.323-.218-.737-.328-1.242-.328-.536 0-.963.136-1.281.406-.318.271-.477.659-.477 1.165h-1.664c0-.402.063-.764.188-1.086.125-.323.294-.592.508-.805.213-.219.466-.399.757-.539.297-.146.607-.25.93-.313a5.188 5.188 0 011.039-.101c.448 0 .865.047 1.25.14.386.094.737.24 1.055.438.318.193.568.458.75.797.182.338.273.732.273 1.179V329h-1.562zm-3.797-2.211c0 .333.128.589.383.766.26.172.601.257 1.023.257.662 0 1.224-.184 1.688-.554.468-.375.703-.893.703-1.555v-.578a4.178 4.178 0 01-.906.297 24.3 24.3 0 01-1.024.195 7.601 7.601 0 00-.914.195c-.292.079-.523.198-.695.36a.794.794 0 00-.258.617zm7.586 2.211v-8h6.812v8h-1.601v-6.531h-3.617V329h-1.594zm13.422.156a3.17 3.17 0 01-1.477-.351 3.415 3.415 0 01-1.148-1.008V333h-1.594v-12h1.594v1.203c.317-.432.7-.765 1.148-1a3.116 3.116 0 011.477-.359c1.104 0 2.021.39 2.75 1.172.729.776 1.094 1.77 1.094 2.984s-.365 2.211-1.094 2.992c-.729.776-1.646 1.164-2.75 1.164zm-1.938-2.211c.464.495 1.047.743 1.75.743.703 0 1.284-.248 1.742-.743.459-.5.688-1.148.688-1.945 0-.797-.229-1.443-.688-1.938-.458-.5-1.039-.75-1.742-.75-.703 0-1.286.25-1.75.75-.458.495-.687 1.141-.687 1.938 0 .797.229 1.445.687 1.945zM402.477 329v-1.344c-.256.505-.62.883-1.094 1.133-.474.245-1.013.367-1.617.367a3.79 3.79 0 01-1.344-.226 2.172 2.172 0 01-.984-.75c-.261-.354-.391-.784-.391-1.289 0-.469.099-.862.297-1.18.198-.323.455-.563.773-.719a4.913 4.913 0 011.047-.367c.385-.094.768-.164 1.148-.211a17.44 17.44 0 001.055-.172c.318-.068.576-.174.774-.32a.691.691 0 00.297-.586c0-.38-.162-.677-.485-.891-.323-.218-.737-.328-1.242-.328-.537 0-.964.136-1.281.406-.318.271-.477.659-.477 1.165h-1.664c0-.402.063-.764.188-1.086.125-.323.294-.592.507-.805.214-.219.467-.399.758-.539.297-.146.607-.25.93-.313a5.18 5.18 0 011.039-.101c.448 0 .865.047 1.25.14.385.094.737.24 1.055.438.317.193.567.458.75.797.182.338.273.732.273 1.179V329h-1.562zm-3.797-2.211c0 .333.127.589.382.766.261.172.602.257 1.024.257.661 0 1.224-.184 1.687-.554.469-.375.704-.893.704-1.555v-.578a4.17 4.17 0 01-.907.297c-.369.078-.711.143-1.023.195a7.56 7.56 0 00-.914.195c-.292.079-.524.198-.695.36a.794.794 0 00-.258.617zm7.586 2.211v-8h3.961c.76 0 1.364.177 1.812.531.448.354.672.87.672 1.547 0 .813-.367 1.373-1.102 1.68.453.151.805.39 1.055.719.255.322.383.729.383 1.218 0 .756-.237 1.328-.711 1.719-.469.391-1.128.586-1.977.586h-4.093zm3.5-6.781h-1.969v2.078h1.969c.937 0 1.406-.346 1.406-1.039 0-.36-.112-.623-.336-.789-.219-.167-.576-.25-1.07-.25zm.32 3.297h-2.289v2.265h2.289c.448 0 .786-.096 1.016-.289.229-.193.343-.474.343-.844 0-.369-.114-.651-.343-.843-.23-.193-.568-.289-1.016-.289zm5.445 1.148c.198-.703.305-2.591.321-5.664h5.921v8h-1.601v-6.531h-2.86c-.031 1.75-.111 3.083-.242 4-.161.963-.422 1.627-.781 1.992-.354.359-.867.539-1.539.539h-.289v-1.469h.133c.479 0 .791-.289.937-.867zM431.414 325c0 .125-.01.307-.031.547h-6.274c.099.698.362 1.239.789 1.625.428.385.977.578 1.649.578.948 0 1.594-.383 1.937-1.148h1.727c-.245.817-.695 1.447-1.352 1.89-.651.443-1.442.664-2.375.664-1.14 0-2.083-.388-2.828-1.164-.739-.776-1.109-1.773-1.109-2.992s.37-2.216 1.109-2.992c.745-.776 1.688-1.164 2.828-1.164 1.141 0 2.081.388 2.821 1.164.739.776 1.109 1.773 1.109 2.992zm-3.93-2.75c-.645 0-1.174.19-1.586.57-.411.375-.666.899-.765 1.571h4.703c-.099-.672-.357-1.196-.774-1.571-.411-.38-.937-.57-1.578-.57zm11.157 6.75v-3.312h-3.844V329h-1.594v-8h1.594v3.234h3.844V321h1.601v8h-1.601zm5.5-8v6.383l3.664-6.383h2.031v8h-1.531v-6.383L444.641 329h-2.032v-8h1.532zm15.336 4c0 .125-.011.307-.032.547h-6.273c.099.698.362 1.239.789 1.625.427.385.977.578 1.648.578.948 0 1.594-.383 1.938-1.148h1.726c-.244.817-.695 1.447-1.351 1.89-.651.443-1.443.664-2.375.664-1.141 0-2.083-.388-2.828-1.164-.74-.776-1.11-1.773-1.11-2.992s.37-2.216 1.11-2.992c.745-.776 1.687-1.164 2.828-1.164 1.141 0 2.081.388 2.82 1.164.74.776 1.11 1.773 1.11 2.992zm-3.93-2.75c-.646 0-1.175.19-1.586.57-.412.375-.667.899-.766 1.571h4.703c-.099-.672-.356-1.196-.773-1.571-.411-.38-.937-.57-1.578-.57zm15.758 5.742c-.766.776-1.732 1.164-2.899 1.164-1.166 0-2.133-.388-2.898-1.164-.766-.781-1.149-1.778-1.149-2.992s.383-2.208 1.149-2.984c.765-.782 1.732-1.172 2.898-1.172 1.167 0 2.133.39 2.899 1.172.765.776 1.148 1.77 1.148 2.984s-.383 2.211-1.148 2.992zm-4.649-1.047c.464.495 1.047.743 1.75.743.703 0 1.287-.248 1.75-.743.464-.5.696-1.148.696-1.945 0-.797-.232-1.443-.696-1.938-.463-.5-1.047-.75-1.75-.75-.703 0-1.286.25-1.75.75-.463.495-.695 1.141-.695 1.938 0 .797.232 1.445.695 1.945zm6.367-4.476V321h6.782v1.469h-2.594V329h-1.594v-6.531h-2.594zm16.086 2.593c0 1.198-.385 2.18-1.156 2.946-.765.765-1.729 1.148-2.891 1.148a4.187 4.187 0 01-2.062-.515 3.76 3.76 0 01-1.453-1.446c-.354-.619-.531-1.32-.531-2.101v-2.828c0-.776.073-1.433.218-1.969.146-.537.375-.974.688-1.313a3.24 3.24 0 011.125-.789c.432-.182.971-.32 1.617-.414l1.938-.265c.255-.037.429-.097.523-.18a.484.484 0 00.164-.336h1.602c-.016.651-.19 1.109-.524 1.375-.333.26-.937.448-1.812.563l-1.75.257c-.87.12-1.466.386-1.789.797-.318.412-.477 1.13-.477 2.156v.305a2.65 2.65 0 011.094-1.086c.489-.265 1.068-.398 1.734-.398.5 0 .977.101 1.43.304a3.734 3.734 0 012.008 2.141c.203.51.304 1.06.304 1.648zm-4.047 2.626c.719 0 1.305-.245 1.758-.735.459-.489.688-1.12.688-1.891 0-.765-.229-1.393-.688-1.882-.453-.495-1.039-.742-1.758-.742-.713 0-1.299.244-1.757.734-.459.484-.688 1.114-.688 1.89 0 .782.229 1.415.688 1.899.458.484 1.044.727 1.757.727zm10.047 1.468a3.169 3.169 0 01-1.476-.351 3.427 3.427 0 01-1.149-1.008V333h-1.593v-12h1.593v1.203a3.349 3.349 0 011.149-1 3.115 3.115 0 011.476-.359c1.105 0 2.021.39 2.75 1.172.73.776 1.094 1.77 1.094 2.984s-.364 2.211-1.094 2.992c-.729.776-1.645 1.164-2.75 1.164zm-1.937-2.211c.463.495 1.047.743 1.75.743.703 0 1.284-.248 1.742-.743.458-.5.688-1.148.688-1.945 0-.797-.23-1.443-.688-1.938-.458-.5-1.039-.75-1.742-.75-.703 0-1.287.25-1.75.75-.458.495-.688 1.141-.688 1.938 0 .797.23 1.445.688 1.945zm12.57 2.055v-1.344c-.255.505-.62.883-1.094 1.133-.474.245-1.013.367-1.617.367-.495 0-.942-.075-1.343-.226a2.18 2.18 0 01-.985-.75c-.26-.354-.391-.784-.391-1.289 0-.469.099-.862.297-1.18.198-.323.456-.563.774-.719a4.893 4.893 0 011.047-.367c.385-.094.768-.164 1.148-.211a17.44 17.44 0 001.055-.172c.318-.068.575-.174.773-.32a.691.691 0 00.297-.586c0-.38-.161-.677-.484-.891-.323-.218-.737-.328-1.242-.328-.537 0-.964.136-1.282.406-.317.271-.476.659-.476 1.165h-1.664c0-.402.062-.764.187-1.086.125-.323.294-.592.508-.805.214-.219.466-.399.758-.539.297-.146.607-.25.93-.313a5.18 5.18 0 011.039-.101c.447 0 .864.047 1.25.14.385.094.737.24 1.054.438.318.193.568.458.75.797.183.338.274.732.274 1.179V329h-1.563zm-3.797-2.211c0 .333.128.589.383.766.261.172.602.257 1.024.257.661 0 1.224-.184 1.687-.554.469-.375.703-.893.703-1.555v-.578a4.141 4.141 0 01-.906.297 24.3 24.3 0 01-1.024.195 7.601 7.601 0 00-.914.195c-.291.079-.523.198-.695.36a.794.794 0 00-.258.617zM514.953 329l-3.828-4.211V329h-1.594v-8h1.594v3.555L514.57 321h2.125l-3.757 3.648 4.046 4.352h-2.031zm9.274-1.008c-.766.776-1.732 1.164-2.899 1.164s-2.133-.388-2.898-1.164c-.766-.781-1.149-1.778-1.149-2.992s.383-2.208 1.149-2.984c.765-.782 1.731-1.172 2.898-1.172s2.133.39 2.899 1.172c.765.776 1.148 1.77 1.148 2.984s-.383 2.211-1.148 2.992zm-4.649-1.047c.464.495 1.047.743 1.75.743.703 0 1.287-.248 1.75-.743.464-.5.695-1.148.695-1.945 0-.797-.231-1.443-.695-1.938-.463-.5-1.047-.75-1.75-.75-.703 0-1.286.25-1.75.75-.463.495-.695 1.141-.695 1.938 0 .797.232 1.445.695 1.945zm7.578 2.055v-8h3.961c.761 0 1.365.177 1.813.531.448.354.672.87.672 1.547 0 .813-.368 1.373-1.102 1.68.453.151.805.39 1.055.719.255.322.383.729.383 1.218 0 .756-.237 1.328-.711 1.719-.469.391-1.128.586-1.977.586h-4.094zm3.5-6.781h-1.968v2.078h1.968c.938 0 1.406-.346 1.406-1.039 0-.36-.111-.623-.335-.789-.219-.167-.576-.25-1.071-.25zm.321 3.297h-2.289v2.265h2.289c.447 0 .786-.096 1.015-.289.229-.193.344-.474.344-.844 0-.369-.115-.651-.344-.843-.229-.193-.568-.289-1.015-.289zM541.438 329l-3.829-4.211V329h-1.593v-8h1.593v3.555l3.446-3.555h2.125l-3.758 3.648 4.047 4.352h-2.031zm4.937-8v6.383l3.664-6.383h2.031v8h-1.531v-6.383L546.875 329h-2.031v-8h1.531z" fill="#313131"/><path stroke="#00A85B" d="M265 24.5h102m-.275-7.004l12.462 7.195-12.462 7.196V17.496zm122.135 161.52l35.242 29.571m4.535-5.837l4.922 13.523-14.172-2.499 9.25-11.024zm-108.435-23.766l-35.241 29.571m4.961 5.481l-14.173 2.499 4.922-13.523 9.251 11.024zM456.117 179v46.004m7.387-.275l-7.195 12.462-7.196-12.462h14.391z"/><path fill="#EBECEC" stroke="#000" d="M67.5 111.5h504v29h-504z"/><rect x="113.5" y="63.5" width="164" height="124" rx="4.5" fill="#B2B3B3" stroke="#000"/><rect x="384.5" y="80.5" width="144" height="91" rx="4.5" fill="#B2B3B3" stroke="#000"/><path d="M444.969 119.656c-.125.474-.25.88-.375 1.219-.12.339-.263.661-.43.969a2.847 2.847 0 01-.547.726 2.165 2.165 0 01-.703.43 2.473 2.473 0 01-.906.156c-.485 0-.893-.057-1.227-.172v-1.695c.287.073.573.109.86.109.474 0 .836-.158 1.086-.476L439.766 111h1.984l1.891 7.234 1.711-7.234h1.937l-2.32 8.656zm6.765 0h-1.281v-1.437h1.281c.683 0 1.024-.295 1.024-.883a.853.853 0 00-.344-.711c-.229-.177-.581-.266-1.055-.266-1.052 0-1.578.508-1.578 1.524h-1.922c0-.417.073-.805.219-1.164a2.86 2.86 0 01.641-.969c.281-.281.648-.503 1.101-.664a4.552 4.552 0 011.539-.242c1.063 0 1.868.224 2.414.672.547.448.821 1.002.821 1.664 0 .364-.091.708-.274 1.031-.177.318-.437.56-.781.727.833.338 1.25.924 1.25 1.757 0 .771-.294 1.375-.883 1.813-.583.432-1.432.648-2.547.648-1.156 0-2.044-.271-2.664-.812-.619-.542-.929-1.31-.929-2.305h1.914c0 1.078.567 1.617 1.703 1.617.526 0 .903-.094 1.133-.281a.904.904 0 00.351-.742c0-.307-.094-.547-.281-.719-.188-.172-.471-.258-.852-.258zm12.102-.656c0 .146-.01.359-.031.641h-6.016c.104.588.341 1.041.711 1.359.375.318.859.477 1.453.477.802 0 1.336-.292 1.602-.875h2.078c-.235.822-.682 1.455-1.344 1.898-.656.438-1.461.656-2.414.656-1.151 0-2.102-.388-2.852-1.164-.744-.776-1.117-1.773-1.117-2.992s.373-2.216 1.117-2.992c.75-.776 1.701-1.164 2.852-1.164 1.151 0 2.099.388 2.844 1.164.745.776 1.117 1.773 1.117 2.992zm-2.594-2.016c-.354-.307-.81-.461-1.367-.461-.557 0-1.016.154-1.375.461-.359.302-.591.735-.695 1.297h4.133c-.105-.562-.336-.995-.696-1.297zm4.649 3.586c.192-.567.289-2.424.289-5.57h6.093v8h-1.921v-6.242h-2.414c-.016 1.63-.084 2.82-.204 3.57-.109.698-.27 1.242-.484 1.633-.214.391-.477.661-.789.812-.313.151-.716.227-1.211.227h-.289v-1.758h.094c.411 0 .69-.224.836-.672zm-46.86 20.422c-.771.776-1.745 1.164-2.922 1.164s-2.151-.388-2.921-1.164c-.771-.781-1.157-1.778-1.157-2.992s.386-2.208 1.157-2.984c.77-.782 1.744-1.172 2.921-1.172 1.177 0 2.151.39 2.922 1.172.771.776 1.157 1.77 1.157 2.984s-.386 2.211-1.157 2.992zm-4.476-1.258c.411.443.929.664 1.554.664s1.141-.221 1.547-.664c.406-.442.61-1.02.61-1.734s-.204-1.292-.61-1.734c-.406-.443-.922-.664-1.547-.664-.625 0-1.143.224-1.554.671-.407.443-.61 1.019-.61 1.727 0 .708.203 1.286.61 1.734zm6.187-3.976V134h6.719v1.758h-2.399V142h-1.921v-6.242h-2.399zm16.086 2.32c0 .792-.18 1.5-.539 2.125a3.737 3.737 0 01-1.461 1.445c-.62.339-1.312.508-2.078.508a4.24 4.24 0 01-2.07-.508 3.805 3.805 0 01-1.469-1.437c-.359-.62-.539-1.32-.539-2.102v-2.976c0-.63.052-1.177.156-1.641.104-.469.25-.859.438-1.172a2.5 2.5 0 01.757-.789 3.979 3.979 0 011.024-.492c.37-.12.81-.216 1.32-.289l1.891-.273c.187-.026.315-.081.383-.165a.455.455 0 00.109-.312h1.922c0 .385-.042.703-.125.953-.083.25-.229.458-.438.625a2.213 2.213 0 01-.75.383 7.642 7.642 0 01-1.148.234l-1.664.235c-.547.078-.961.198-1.242.359-.282.156-.487.406-.617.75-.131.339-.196.823-.196 1.453v.258c.537-.833 1.417-1.25 2.641-1.25.484 0 .95.102 1.398.305.448.198.841.474 1.18.828.338.349.609.781.812 1.297.204.51.305 1.06.305 1.648zm-5.633 1.68c.401.427.92.64 1.555.64.635 0 1.154-.216 1.555-.648.406-.438.609-.995.609-1.672 0-.672-.2-1.226-.602-1.664-.401-.437-.921-.656-1.562-.656-.63 0-1.148.216-1.555.648-.401.433-.601.99-.601 1.672 0 .688.2 1.248.601 1.68zm11.633 2.398c-.953 0-1.752-.388-2.398-1.164V146h-1.922v-12h1.922v1.008c.646-.776 1.445-1.164 2.398-1.164 1.104 0 2.021.39 2.75 1.172.729.776 1.094 1.77 1.094 2.984s-.365 2.211-1.094 2.992c-.729.776-1.646 1.164-2.75 1.164zm-1.789-2.422c.412.443.93.664 1.555.664.625 0 1.14-.221 1.547-.664.406-.442.609-1.02.609-1.734s-.203-1.292-.609-1.734c-.407-.443-.922-.664-1.547-.664-.625 0-1.143.224-1.555.671-.406.443-.609 1.019-.609 1.727 0 .708.203 1.286.609 1.734zM453.188 142v-1.188c-.49.896-1.339 1.344-2.547 1.344-.48 0-.917-.075-1.313-.226a2.213 2.213 0 01-.984-.758c-.261-.36-.391-.797-.391-1.313 0-.411.073-.768.219-1.07.151-.302.349-.536.594-.703.244-.167.523-.307.836-.422.312-.12.63-.203.953-.25a27.069 27.069 0 001.789-.32c.245-.058.44-.149.586-.274a.583.583 0 00.226-.468c0-.303-.14-.542-.422-.719-.276-.182-.627-.274-1.054-.274-.453 0-.815.118-1.086.352-.266.234-.399.57-.399 1.008h-2c0-.5.097-.94.289-1.321.193-.38.456-.679.789-.898a3.572 3.572 0 011.102-.492c.406-.11.841-.164 1.305-.164.458 0 .882.049 1.273.148.396.094.755.24 1.078.438.323.198.578.468.766.812.187.339.281.735.281 1.188V142h-1.89zm-3.266-2.273c0 .27.101.479.305.625.208.14.479.21.812.21.594 0 1.099-.164 1.516-.492.422-.328.633-.784.633-1.367v-.367a4.71 4.71 0 01-.821.25c-.328.068-.625.128-.89.18a7.038 7.038 0 00-.774.179 1.45 1.45 0 00-.578.305.622.622 0 00-.203.477zM462.508 142l-3.438-4.211V142h-1.922v-8h1.922v3.484l3.102-3.484h2.531l-3.523 3.633 3.734 4.367h-2.406zm9.648-1.008c-.771.776-1.745 1.164-2.922 1.164s-2.151-.388-2.922-1.164c-.77-.781-1.156-1.778-1.156-2.992s.386-2.208 1.156-2.984c.771-.782 1.745-1.172 2.922-1.172s2.151.39 2.922 1.172c.771.776 1.156 1.77 1.156 2.984s-.385 2.211-1.156 2.992zm-4.476-1.258c.411.443.929.664 1.554.664s1.141-.221 1.547-.664c.407-.442.61-1.02.61-1.734s-.203-1.292-.61-1.734c-.406-.443-.922-.664-1.547-.664-.625 0-1.143.224-1.554.671-.407.443-.61 1.019-.61 1.727 0 .708.203 1.286.61 1.734zm7.312 2.266v-8h4.196c.75 0 1.343.18 1.781.539.442.354.664.872.664 1.555 0 .765-.341 1.315-1.024 1.648.412.151.732.388.961.711.235.318.352.711.352 1.18 0 .781-.234 1.372-.703 1.773-.469.396-1.136.594-2 .594h-4.227zm1.844-6.562v1.75h1.789c.422 0 .721-.073.898-.219.183-.151.274-.367.274-.649 0-.307-.089-.531-.266-.672-.177-.14-.479-.21-.906-.21h-1.789zm2.078 3.187h-2.078v1.937h2.078c.724 0 1.086-.33 1.086-.992 0-.63-.362-.945-1.086-.945zM489.273 142l-3.437-4.211V142h-1.922v-8h1.922v3.484l3.102-3.484h2.531l-3.524 3.633L491.68 142h-2.407zm5.532-8v5.984l3.133-5.984h2.468v8h-1.844v-5.969L495.43 142h-2.469v-8h1.844z" fill="#000"/><path fill-rule="evenodd" clip-rule="evenodd" d="M171 172.427v-7.129h5.241v1.18h-3.777v1.558h3.541v1.18h-3.541v1.936h3.965v1.18H171v.095zm6.61 0v-7.129h3.021c.756 0 1.322.047 1.653.188.33.142.614.378.85.661.188.331.33.709.33 1.133 0 .52-.142.992-.472 1.322-.33.331-.803.567-1.416.661.33.189.566.378.755.614.189.236.472.614.803 1.18l.849 1.37h-1.699l-1.039-1.558c-.378-.567-.614-.897-.755-1.039a1.115 1.115 0 00-.425-.283 2.275 2.275 0 00-.708-.095h-.284v2.975h-1.463zm1.463-4.108h1.039c.708 0 1.133-.047 1.275-.094.189-.047.283-.142.425-.284a.952.952 0 00.141-.519c0-.236-.047-.425-.189-.566a1.126 1.126 0 00-.519-.284c-.094 0-.472-.047-1.039-.047h-1.133v1.794zm9.018 1.511v-1.18h3.069v2.832c-.283.284-.756.567-1.322.756a4.424 4.424 0 01-1.747.33c-.755 0-1.369-.141-1.936-.472a3.01 3.01 0 01-1.227-1.322 4.246 4.246 0 01-.425-1.888c0-.756.141-1.417.472-1.983.33-.567.755-1.039 1.369-1.322a3.764 3.764 0 011.7-.378c.897 0 1.558.189 2.077.567.472.377.803.897.944 1.558l-1.416.283a1.69 1.69 0 00-.567-.85c-.283-.189-.613-.283-1.038-.283-.614 0-1.133.189-1.511.614-.378.377-.567.991-.567 1.794 0 .85.189 1.463.567 1.888.378.425.85.614 1.464.614.283 0 .613-.047.897-.189.283-.094.566-.283.755-.425v-.897h-1.558v-.047zm4.438-4.485h1.416v3.871c0 .614 0 .992.048 1.181.047.283.188.519.424.708.237.189.52.283.945.283.425 0 .708-.094.897-.236.189-.189.33-.378.377-.614.048-.236.048-.661.048-1.227v-3.919h1.463v3.73c0 .85-.047 1.463-.094 1.794-.095.33-.236.661-.425.897s-.472.425-.85.566c-.33.142-.803.237-1.369.237-.661 0-1.18-.095-1.558-.237-.331-.141-.614-.377-.85-.613a1.806 1.806 0 01-.378-.803c-.094-.425-.141-.991-.141-1.794v-3.824h.047zm13.55 7.082h-1.558l-.614-1.606h-2.833l-.566 1.606h-1.511l2.738-7.129h1.511l2.833 7.129zm-2.644-2.786l-.991-2.644-.945 2.644h1.936zm3.399 2.786v-7.129h3.022c.755 0 1.322.047 1.652.188.331.142.614.378.85.661.189.331.331.709.331 1.133 0 .52-.142.992-.472 1.322-.331.331-.803.567-1.417.661.331.189.567.378.756.614.188.236.472.614.802 1.18l.85 1.37h-1.7l-1.038-1.558c-.378-.567-.614-.897-.756-1.039a1.1 1.1 0 00-.425-.283 2.265 2.265 0 00-.708-.095h-.283v2.975h-1.464zm1.464-4.108h1.039c.708 0 1.133-.047 1.274-.094.189-.047.284-.142.425-.284a.944.944 0 00.142-.519c0-.236-.047-.425-.189-.566a1.13 1.13 0 00-.519-.284c-.095 0-.472-.047-1.039-.047h-1.133v1.794zm5.713-2.974h2.596c.567 0 1.039.047 1.37.141.424.142.755.331 1.085.661.284.331.52.709.661 1.133.142.473.236.992.236 1.7a4.82 4.82 0 01-.236 1.511c-.188.519-.424.944-.755 1.275-.236.236-.567.425-.991.566-.331.095-.756.142-1.275.142h-2.691v-7.129zm1.463 1.18v4.721h1.086c.378 0 .708 0 .85-.047.236-.047.425-.142.567-.283.141-.142.283-.378.377-.708.095-.331.142-.756.142-1.322 0-.567-.047-.992-.142-1.275a1.774 1.774 0 00-.425-.708c-.189-.142-.377-.283-.661-.331-.188-.047-.613-.047-1.18-.047h-.614zM183.842 78c-.095 2.266-.189 4.532-.284 6.751-1.463 1.133-2.974 2.22-4.438 3.352v7.271c1.511-.472 3.022-.472 4.533-.472.236 5.618.378 11.284.566 16.902.095.708.142 1.464.236 2.172-.519.519-.566.944-1.605 1.605-1.133.614-1.416.567-1.699 2.03.141 1.747.141 1.889 1.369 2.833.85.236 1.227.425 2.077.047.519 13.125.992 26.203 1.511 39.328.236-.047.425-.141.661-.188v-1.181c0-.377 0-.708-.047-1.086l-.992-37.109c.803-.519 1.464-1.038 2.219-1.652.661 2.502.85 4.768.897 7.412-.189.85-.377 1.747-.566 2.597-.378 2.455-.661 4.816-.756 7.271-.047.566-.094 1.18-.094 1.747h.708c.283 1.841.519 3.682.661 5.523-.708 3.4-.283 6.185.142 9.49l.519 4.344c.094.708-1.464 1.511-1.416 2.03 0 .566.944.897 1.416 1.039.567.047.519.188 1.747-.095 1.416-.33 1.416-.566 1.275-1.605-.095-.614-.284-.708-.331-1.558-.047-1.18.095-3.022.142-4.06.189-2.125.661-4.108.944-6.232.047-1.039.142-1.747-.094-2.739.094-.472.236-.897.33-1.369.189-.897.331-1.794.425-2.691.047-.425.047-.803.094-1.228.284 0 .567.048.85.048.047 1.227.142 2.219.425 3.399.142.614.283 1.275.425 1.888-.047.473-.047.945-.094 1.417-.048.519-.095.991-.095 1.511.047.613.189 1.18.283 1.746l.425 2.267c.331 1.652.567 5.807.473 6.609-.095.378-.331.661-.425 1.086a1.76 1.76 0 000 .709c.094.377.519.566 1.085.613 1.134.142.803.142 1.983.095.331 0 .803-.095 1.086-.378.189-.189.472-.661.331-.897-.378-.614-1.039-.944-1.558-1.369 0 0 0-.614.047-.708.094-.425.708-3.777.755-4.344.331-1.18.378-2.408.52-3.588.094-1.7 0-2.738-.472-4.249.094-2.125.141-4.155.377-6.185l1.039 3.919.708 1.416.708 1.322.142-1.275.094-1.416-1.51-8.026c.472.236.897.425 1.369.661 2.077-2.597 3.682-5.147 3.966-8.735a69.756 69.756 0 00-.378-11.331c-.047-.614-.094-1.18-.142-1.794l-3.021.519c-.425-1.321-.897-2.266-2.644-3.21-1.133-.614-2.172-.944-3.494-1.322-.047.614.472-2.785.472-4.249-.283-1.18-.708-2.266-1.275-3.399-1.51-.142-2.974-.236-4.532 0-.425 1.18-.897 2.219-1.275 3.493.142 1.511.472 2.88.661 4.344-.85.33-1.841.472-2.644.897-1.274.566-2.124 1.369-3.21 2.313-.283-5.807-.519-11.567-.755-17.374 2.077.378 4.06.85 6.137 1.416 1.983.662 3.966 1.37 5.902 2.172 3.163.897 5.807 1.464 9.017 1.322 4.155-.614.945-.614 2.314-3.493 1.133-.803 2.455-1.18 3.777-2.267-2.03-.897-3.022-1.274-1.558-3.777.519-.944 1.038-1.888 1.558-2.785-1.086.566-2.172 1.18-3.258 1.747-1.133.519-1.794.802-2.974.85-2.361.188-2.125-.048-1.889 2.643-2.408-.047-4.249-.613-6.562-1.322-2.314-.897-4.674-1.746-6.988-2.644-1.936-.519-3.635-.991-5.665-.991-.142-2.738-.048-5.571-.425-8.262a14.251 14.251 0 01-.236-1.511zm-9.962 83.52h43.246c.047 0 .095.047.095.094v.85c0 .047-.048.094-.095.094H173.88c-.048 0-.095-.047-.095-.094v-.85c0-.094.047-.094.095-.094z" fill="#313131"/></svg>