<svg width="188" height="80" fill="none" xmlns="http://www.w3.org/2000/svg"><path fill="#F6F6F6" d="M0 0h188v80H0z"/><path d="M125.695 42.64c0 1.27.253 2.123.761 2.584.507.439 1.476.67 2.883.67h.946l-1.43 3.875h-.623c-2.607 0-4.452-.508-5.536-1.523-1.084-1.015-1.638-2.722-1.638-5.12v-6.113c0-2.63.531-4.453 1.569-5.444 1.038-.992 2.929-1.477 5.605-1.477h3.022l-1.453 3.852h-.393c-1.453 0-2.445.231-2.952.716-.508.484-.761 1.407-.761 2.79v5.19zm-101.035.324H20c0 2.63.461 4.429 1.384 5.352.923.922 2.814 1.383 5.651 1.383h8.65c2.7 0 4.545-.484 5.56-1.476 1.015-.992 1.523-2.791 1.523-5.398V37.29c0-2.814-.531-4.752-1.615-5.767C40.092 30.508 38.108 30 35.248 30h-7.751c-2.538 0-4.36.438-5.467 1.315-1.361 1.06-2.03 2.883-2.03 5.467h4.66c0-1.038.276-1.776.853-2.238.577-.461 1.522-.692 2.883-.692h5.975c1.545 0 2.56.23 3.045.67.484.438.715 1.406.715 2.929v.507h-6.736v3.968h6.736v.369c0 1.43-.3 2.399-.877 2.883-.507.439-1.476.646-2.883.646h-5.975c-1.43 0-2.399-.184-2.883-.53-.577-.416-.853-1.2-.853-2.33zm19.491 6.805h5.375L57.6 34.152h.553l8.212 15.617h5.329L61.267 30.277h-6.735l-10.38 19.492zM77.9 30.277v7.29h2.745l8.512-7.29h6.99l-11.488 9.157L96.583 49.77h-6.85l-8.997-8.328H77.9v8.328h-4.66V30.277h4.66zm25.328 13.748v5.744h-4.66V30.277h13.264c2.468 0 4.221.53 5.282 1.568 1.039 1.038 1.569 2.791 1.569 5.26 0 2.468-.53 4.244-1.569 5.305-1.038 1.061-2.791 1.615-5.213 1.615h-8.673zm0-3.875h7.774c1.13 0 1.937-.231 2.376-.692.438-.462.669-1.246.669-2.353 0-1.038-.208-1.776-.6-2.192-.439-.507-1.269-.76-2.445-.76h-7.774v5.997zm48.072-9.873v7.497h12.041v-7.497H168v19.492h-4.66v-8.12h-12.041v8.143h-4.659V30.277h4.659zm-18.661 15.616h2.883c1.5 0 2.468-.207 2.953-.645.461-.439.692-1.315.692-2.63v-5.19c0-1.384-.254-2.307-.784-2.768-.462-.416-1.315-.646-2.538-.692l-2.745 4.844h4.129l-4.59 7.081zm3.529-15.824h.6c2.514 0 4.313.462 5.328 1.407 1.131 1.038 1.707 2.86 1.707 5.537v6.112c0 2.468-.507 4.199-1.499 5.167-.992.992-2.837 1.477-5.536 1.477h-6.62l3.344-9.066h-4.521l3.922-10.634h3.275z" fill="#313131"/></svg>