<svg width="152" height="104" fill="none" xmlns="http://www.w3.org/2000/svg"><path fill="#F6F6F6" d="M0 0h152v104H0z"/><path fill-rule="evenodd" clip-rule="evenodd" d="M37.273 21.125h50.292c17.647 0 32.278 13.318 34.479 30.436h-18.666c-1.875-6.333-7.784-10.99-14.713-10.99H33.157L29 21.125h8.273z" fill="#0000BD"/><path d="M116.623 20.961c.734-.694 1.671-1.144 2.69-1.144s1.956.45 2.69 1.144c.733.776 1.141 1.634 1.141 2.778a3.62 3.62 0 01-1.141 2.655c-.734.736-1.671 1.144-2.69 1.144s-1.956-.408-2.69-1.143c-.733-.695-1.141-1.635-1.059-2.656-.041-1.144.366-1.961 1.059-2.778zM119.354 19c-1.223 0-2.364.49-3.261 1.348-.896.94-1.426 2.043-1.426 3.391 0 1.226.489 2.329 1.426 3.227.897.94 2.038 1.349 3.261 1.349 1.304 0 2.404-.409 3.301-1.349.897-.898 1.345-1.96 1.345-3.227 0-1.348-.448-2.41-1.345-3.39-.897-.859-2.038-1.349-3.301-1.349z" fill="#0000BD"/><path d="M118.457 23.33h.652c.408 0 .693 0 .775-.04.122-.041.203-.082.244-.205a.768.768 0 00.082-.326c0-.164-.041-.286-.123-.368-.081-.082-.203-.163-.326-.163h-1.345v1.102h.041zm-.896 2.493V21.45h1.874c.449 0 .815.041 1.019.123a.95.95 0 01.489.408c.122.205.204.45.204.695 0 .327-.082.613-.285.817a1.414 1.414 0 01-.856.409c.204.122.367.245.489.367.122.123.285.368.489.695l.53.858h-1.06l-.652-.94c-.244-.327-.367-.572-.448-.654-.082-.081-.163-.163-.286-.163-.081-.041-.244-.041-.448-.041h-.163v1.838h-.896v-.04z" fill="#0000BD"/><path d="M85.935 54.297h4.605l-2.2-4.29h-.123l-2.282 4.29zm-2.608 5.107h-3.22l6.113-11.562h4.076l6.072 11.562h-3.22l-1.467-2.9h-6.806l-1.548 2.9zM68.166 47.842h9.862v2.288h-7.132v9.274h-2.771V47.842h.04zM54.798 50.13v3.554h4.605c.693 0 1.142-.122 1.386-.408s.408-.736.408-1.39c0-.612-.123-1.062-.367-1.307-.285-.286-.734-.449-1.427-.449h-4.605zm0 5.842v3.39h-2.771v-11.52h7.865c1.468 0 2.486.327 3.139.94.61.613.937 1.675.937 3.105 0 1.47-.326 2.533-.938 3.145-.61.654-1.63.94-3.097.94h-5.135zM37.966 52.54h6.847v-.49c0-.899-.122-1.43-.407-1.675-.286-.245-.897-.327-1.834-.327h-3.546c-.815 0-1.345.123-1.712.368-.326.245-.489.695-.489 1.266h-2.771c0-1.511.407-2.573 1.222-3.186.693-.49 1.794-.776 3.26-.776h4.565c1.712 0 2.853.286 3.505.858.612.572.938 1.674.938 3.35v3.39c0 1.553-.286 2.615-.897 3.228-.611.572-1.712.899-3.301.899h-5.094c-1.672 0-2.772-.286-3.342-.818-.571-.571-.816-1.634-.816-3.186h2.772c0 .694.163 1.144.489 1.389.326.245.897.327 1.752.327h3.546c.815 0 1.386-.123 1.712-.368.366-.286.53-.858.53-1.716v-.53h-6.929V52.54z" fill="#2B2A29"/><path fill-rule="evenodd" clip-rule="evenodd" d="M37.273 86h50.292c17.647 0 32.278-13.36 34.479-30.436h-18.666c-1.875 6.332-7.784 10.99-14.713 10.99H33.157L29 86h8.273z" fill="#E31E24"/></svg>