<svg width="85" height="140" fill="none" xmlns="http://www.w3.org/2000/svg"><path fill="#F6F6F6" d="M0 0h85v140H0z"/><path fill-rule="evenodd" clip-rule="evenodd" d="M18 117.512v-7.129h5.24v1.18h-3.776v1.558h3.54v1.18h-3.54v1.936h3.966v1.18H18v.095zm6.61 0v-7.129h3.021c.756 0 1.322.047 1.653.189.33.141.614.377.85.661.189.33.33.708.33 1.133 0 .519-.141.991-.472 1.322-.33.33-.803.566-1.416.661.33.188.566.377.755.613.189.236.472.614.803 1.181l.85 1.369h-1.7l-1.039-1.558c-.378-.567-.614-.897-.755-1.039a1.118 1.118 0 00-.425-.283 2.303 2.303 0 00-.708-.095h-.284v2.975H24.61zm1.463-4.108h1.039c.708 0 1.133-.047 1.275-.094.189-.047.283-.142.425-.283a.955.955 0 00.141-.52c0-.236-.047-.425-.188-.566a1.13 1.13 0 00-.52-.284c-.094 0-.472-.047-1.039-.047h-1.133v1.794zm9.018 1.511v-1.18h3.069v2.833c-.283.283-.756.566-1.322.755a4.423 4.423 0 01-1.747.331c-.755 0-1.37-.142-1.936-.473a3.01 3.01 0 01-1.227-1.322 4.255 4.255 0 01-.425-1.888c0-.755.141-1.416.472-1.983.33-.567.755-1.039 1.37-1.322a3.763 3.763 0 011.699-.378c.897 0 1.558.189 2.077.567.472.378.803.897.944 1.558l-1.416.283a1.7 1.7 0 00-.567-.85c-.283-.189-.613-.283-1.038-.283-.614 0-1.133.189-1.511.614-.378.378-.567.991-.567 1.794 0 .85.19 1.464.567 1.888.378.425.85.614 1.463.614.284 0 .614-.047.898-.189.283-.094.566-.283.755-.425v-.897h-1.558v-.047zm4.438-4.485h1.416v3.871c0 .614 0 .992.047 1.181.048.283.19.519.425.708.236.189.52.283.945.283.425 0 .708-.094.897-.236.189-.189.33-.378.377-.614.048-.236.048-.661.048-1.227v-3.919h1.463v3.73c0 .85-.047 1.464-.094 1.794-.095.331-.236.661-.425.897s-.472.425-.85.567c-.33.141-.803.236-1.37.236-.66 0-1.18-.095-1.557-.236-.33-.142-.614-.378-.85-.614a1.793 1.793 0 01-.378-.803c-.094-.425-.141-.991-.141-1.794v-3.824h.047zm13.55 7.082h-1.558l-.614-1.605h-2.833l-.566 1.605h-1.51l2.737-7.129h1.511l2.833 7.129zm-2.644-2.786l-.991-2.644-.945 2.644h1.936zm3.4 2.786v-7.129h3.021c.755 0 1.322.047 1.652.189.33.141.614.377.85.661.19.33.33.708.33 1.133 0 .519-.14.991-.471 1.322-.33.33-.803.566-1.417.661.33.188.567.377.756.613.189.236.472.614.802 1.181l.85 1.369h-1.7l-1.038-1.558c-.378-.567-.614-.897-.756-1.039a1.12 1.12 0 00-.425-.283 2.303 2.303 0 00-.708-.095h-.283v2.975h-1.464zm1.463-4.108h1.039c.708 0 1.133-.047 1.274-.094.19-.047.284-.142.425-.283a.955.955 0 00.142-.52c0-.236-.047-.425-.189-.566a1.13 1.13 0 00-.52-.284c-.094 0-.471-.047-1.038-.047h-1.133v1.794zm5.713-2.974h2.596c.567 0 1.04.047 1.37.142.424.141.755.33 1.085.661.284.33.52.708.661 1.133.142.472.237.991.237 1.699a4.83 4.83 0 01-.237 1.511c-.188.519-.424.944-.755 1.275-.236.236-.567.425-.991.566-.33.095-.756.142-1.275.142H61.01v-7.129zm1.463 1.18v4.722h1.086c.378 0 .708 0 .85-.048.236-.047.425-.141.567-.283.141-.142.283-.378.377-.708.095-.331.142-.756.142-1.322 0-.567-.047-.992-.142-1.275a1.78 1.78 0 00-.425-.708c-.189-.142-.377-.283-.66-.331-.19-.047-.614-.047-1.18-.047h-.615zM30.842 23.087l-.283 6.751c-1.464 1.133-2.975 2.22-4.438 3.352v7.271c1.51-.472 3.021-.472 4.532-.472.236 5.619.378 11.284.567 16.902.094.709.141 1.464.236 2.172-.52.52-.567.944-1.606 1.605-1.133.614-1.416.567-1.7 2.03.142 1.747.142 1.889 1.37 2.833.85.236 1.227.425 2.077.047.52 13.126.992 26.203 1.511 39.329.236-.048.425-.142.661-.189v-1.181c0-.377 0-.708-.047-1.086l-.992-37.109c.803-.519 1.464-1.038 2.22-1.652.66 2.502.85 4.768.896 7.412-.188.85-.377 1.747-.566 2.597-.378 2.455-.661 4.816-.755 7.27a21.322 21.322 0 00-.095 1.748h.708c.284 1.84.52 3.682.661 5.523-.708 3.4-.283 6.185.142 9.49l.52 4.344c.094.708-1.464 1.511-1.417 2.03 0 .566.944.897 1.416 1.039.567.047.52.188 1.747-.095 1.416-.33 1.416-.566 1.275-1.605-.095-.614-.283-.708-.33-1.558-.048-1.18.094-3.022.14-4.06.19-2.125.662-4.108.945-6.232.047-1.04.142-1.747-.094-2.739.094-.472.236-.897.33-1.369.19-.897.33-1.794.425-2.691.047-.425.047-.803.095-1.228.283 0 .566.048.85.048.047 1.227.141 2.219.424 3.399.142.614.284 1.275.425 1.888-.047.473-.047.945-.094 1.417-.047.52-.095.991-.095 1.51.048.614.19 1.18.284 1.748l.425 2.266c.33 1.652.566 5.807.472 6.609-.095.378-.33.661-.425 1.086a1.788 1.788 0 000 .709c.094.377.52.566 1.086.613 1.133.142.802.142 1.983.095.33 0 .802-.095 1.085-.378.19-.189.473-.661.331-.897-.378-.614-1.039-.944-1.558-1.369 0 0 0-.614.047-.708.095-.425.708-3.777.756-4.344.33-1.18.377-2.408.519-3.588.094-1.7 0-2.738-.472-4.25.094-2.124.141-4.154.377-6.184l1.04 3.919.707 1.416.709 1.322.141-1.275.095-1.416-1.511-8.026c.472.236.897.424 1.369.66 2.077-2.596 3.683-5.146 3.966-8.734a69.768 69.768 0 00-.378-11.33c-.047-.614-.094-1.181-.142-1.795l-3.021.52c-.425-1.322-.897-2.267-2.644-3.211-1.133-.614-2.172-.944-3.494-1.322-.047.614.472-2.785.472-4.249-.283-1.18-.708-2.266-1.274-3.4-1.511-.141-2.975-.235-4.533 0-.425 1.181-.897 2.22-1.274 3.494.141 1.511.472 2.88.66 4.344-.85.33-1.84.472-2.643.897-1.275.567-2.125 1.37-3.21 2.313-.284-5.807-.52-11.567-.756-17.374 2.077.378 4.06.85 6.137 1.417 1.983.66 3.966 1.369 5.902 2.171 3.163.897 5.807 1.464 9.017 1.322 4.155-.614.945-.614 2.314-3.493 1.133-.803 2.455-1.18 3.777-2.267-2.03-.897-3.022-1.274-1.558-3.777.52-.944 1.039-1.888 1.558-2.785-1.086.566-2.172 1.18-3.258 1.747-1.133.519-1.794.802-2.974.85-2.36.188-2.125-.048-1.889 2.643-2.408-.047-4.249-.613-6.562-1.322-2.314-.897-4.674-1.746-6.988-2.643-1.935-.52-3.635-.992-5.665-.992-.142-2.738-.047-5.571-.425-8.262a14.456 14.456 0 01-.236-1.511zm-9.962 83.518h43.246c.048 0 .095.047.095.094v.85c0 .047-.047.095-.095.095H20.88c-.048 0-.095-.048-.095-.095v-.85c0-.094.047-.094.095-.094zM62.568 22c-.802 0-1.51.33-2.077.85-.567.614-.897 1.275-.897 2.172 0 .802.33 1.463.897 2.03.566.614 1.275.85 2.077.85.803 0 1.558-.236 2.125-.85.566-.567.85-1.275.85-2.03a3.07 3.07 0 00-.85-2.172c-.567-.52-1.275-.85-2.125-.85zm-1.7 1.275c.473-.425 1.086-.708 1.7-.708a2.43 2.43 0 011.7.708c.472.52.708 1.038.708 1.747 0 .66-.236 1.274-.708 1.7a2.396 2.396 0 01-1.7.707c-.66 0-1.275-.236-1.7-.708-.472-.425-.708-1.038-.66-1.7-.048-.708.188-1.274.66-1.746z" fill="#313131"/><path fill-rule="evenodd" clip-rule="evenodd" d="M61.389 26.485V23.7h1.18c.283 0 .52.047.661.094.142.047.236.142.33.283a.762.762 0 01.142.425c0 .19-.047.378-.189.52a.707.707 0 01-.566.236.483.483 0 01.283.236c.094.094.189.236.33.472l.33.52h-.66l-.425-.615c-.142-.236-.236-.33-.283-.424-.047-.048-.095-.095-.19-.095-.046 0-.14-.047-.282-.047h-.095v1.18h-.566zm.566-1.605h.425c.283 0 .425 0 .52-.047.047-.047.141-.047.141-.095.047-.047.047-.141.047-.189a.361.361 0 00-.094-.236.358.358 0 00-.189-.094h-.85v.66z" fill="#313131"/></svg>