<svg width="125" height="87" fill="none" xmlns="http://www.w3.org/2000/svg"><path d="M123.813 1H1v84.586h122.813V1z" stroke="#DE1F26" stroke-miterlimit="10"/><path fill-rule="evenodd" clip-rule="evenodd" d="M73.636 54.766c-.718-.064-1.303.195-1.759.652-.455.455-.65 1.041-.65 1.758 0 .65.195 1.172.65 1.627.456.455 1.041.717 1.76.781.715-.064 1.234-.326 1.691-.781.456-.455.716-.977.716-1.627 0-.717-.26-1.303-.716-1.758-.456-.456-.976-.716-1.692-.652zm.862 8.907c0 2.215.781 4.102 2.409 5.73.391.324.78.65 1.237.977 1.301.91 2.8 1.365 4.493 1.432 1.692-.066 3.188-.52 4.557-1.432l1.171-.977c1.627-1.629 2.408-3.516 2.408-5.73 0-2.277-.781-4.168-2.408-5.729-1.627-1.627-3.516-2.408-5.728-2.408-2.215 0-4.103.781-5.729 2.408-1.629 1.561-2.41 3.452-2.41 5.73zm6.38-1.69c.456-.458 1.041-.718 1.758-.653.716-.064 1.236.195 1.692.652.454.455.716 1.041.716 1.758 0 .65-.262 1.172-.716 1.627-.457.455-.977.717-1.692.781-.717-.064-1.302-.326-1.758-.78-.457-.456-.651-.978-.651-1.628.001-.717.194-1.303.651-1.758z" fill="#fff"/><path fill-rule="evenodd" clip-rule="evenodd" d="M82.636 61.329c-.718-.064-1.303.195-1.759.652-.455.455-.65 1.041-.65 1.758 0 .65.195 1.172.65 1.627.456.455 1.041.717 1.76.781.715-.064 1.234-.326 1.691-.781.456-.455.716-.977.716-1.627 0-.717-.26-1.303-.716-1.758-.456-.456-.976-.716-1.692-.652z" fill="#fff"/><path d="M32 53.462l50.034-.021M32 74.208h49.915H32z" stroke="#0000BD"/><path d="M82.325 61.165a2.668 2.668 0 11-.002 5.336 2.668 2.668 0 01.002-5.336zm0-7.728c5.742 0 10.396 4.654 10.396 10.396 0 5.742-4.655 10.396-10.396 10.396-5.741 0-10.396-4.654-10.396-10.396 0-5.742 4.654-10.396 10.396-10.396z" stroke="#0000BD" stroke-miterlimit="22.926"/><path d="M68.879 40l.843 1.074h-1.67L68.879 40zm.022 10.515l.918-1.244H68l.901 1.244z" stroke="#DF0112" stroke-width=".48" stroke-miterlimit="10"/><path d="M68.896 41.073l-.019 8.272" stroke="#DF0112" stroke-width=".48"/><path d="M76.068 49.571l1.396-6.75h1.622l1.394 6.75h-1.091l-.294-1.529h-1.64l-.298 1.529h-1.09zm1.577-2.517h1.26l-.632-3.252-.628 3.252z" fill="#0000BD"/><path fill="#DF0112" stroke="#0000BD" d="M32.5 13.5h52.238v20.048H32.5z"/><path d="M34.991 36.524V38.5H32.5v-5.19h52.238v5.19h-2.491v-2.476h-21.51V38.5H58.5v-2.476H34.99v.5z" fill="#fff" stroke="#0000BD"/></svg>