<svg width="131" height="87" fill="none" xmlns="http://www.w3.org/2000/svg"><path d="M129.888 1H1v84.586h128.888V1z" stroke="#DE1F26" stroke-miterlimit="10"/><path fill-rule="evenodd" clip-rule="evenodd" d="M83.428 54.908l-1.631-1.668-2.068-2.11-.562-.609-1.791 1.691.568.573-2.277 2.195-.53-.564-.482.464-.746.735-.7.662.53.568-2.214 2.278-.593-.651-2.065 2.035.594.651 3.667 3.732 5.787-5.625 4.513-4.357zm-30.176-24.63l-.046-.069-.577.561-2.272-2.19.604-.643-1.99-2.035-.881.865-2.676 2.635-.818.782 4.494 4.576 5.53 5.631 3.527-3.46.85-.823-.469-.436-1.255-1.29-.544.52-2.246-2.269.58-.524-.908-.954-.903-.877z" fill="#DF0112" stroke="#0000BD" stroke-miterlimit="22.926"/><path d="M67.479 34.632l-.284-2.015-1.711 1.677 1.995.338z" stroke="#DF0112" stroke-width=".48" stroke-miterlimit="10"/><path d="M58.767 25.758l7.611 7.796" stroke="#DF0112" stroke-width=".48"/><path d="M58.672 62.488l.283-2.016 1.71 1.678-1.993.338z" stroke="#DF0112" stroke-width=".48" stroke-miterlimit="10"/><path d="M67.384 53.613l-7.612 7.797" stroke="#DF0112" stroke-width=".48"/><path d="M41 13v7l7 7m10 10l7 7-24 24v5m39.5-21l8.5-8-24-23.5V13m5.5 49.5l-6 5.5v5" stroke="#0000BD"/></svg>