<svg width="121" height="87" fill="none" xmlns="http://www.w3.org/2000/svg"><path d="M49 10h20.607c4.138 0 8.253.954 11.785 2.997C83.834 14.41 86.13 16.375 87 19m1.733 3L85 20.506 89 18l-.267 4zm12.002 28L97 47.616 102 46l-1.265 4zM84.788 72L83 79.822l1.871-2.337L87 80l-2.212-8z" stroke="#DE1F26" stroke-miterlimit="10"/><path d="M85.195 65v-5.798l-.043-1.441s1.778-.742 1.496-2.305c-.249-1.383-1.453-3.122-1.453-3.122V46c4.87.124 8.805 4.36 8.805 9.5 0 5.264-4.013 9.5-9 9.5" fill="#DD1F26"/><path d="M84.5 67C90.837 67 96 61.837 96 55.5S90.837 44 84.5 44 73 49.163 73 55.5C72.999 61.838 78.163 67 84.5 67z" stroke="#0000BD" stroke-miterlimit="10"/><path d="M85 57c1.107 0 2-.894 2-2 0-1.107-.893-2-2-2s-2 .893-2 2c.042 1.107.893 2 2 2z" stroke="#0000BD" stroke-miterlimit="10"/><path d="M84.706 46h-.207A9.478 9.478 0 0075 55.5c0 5.264 4.236 9.5 9.5 9.5s9.5-4.236 9.5-9.5c0-5.14-4.153-9.377-9.294-9.5zm0 0v7.526M85 65v-8m11-2h2m-25 0h-3m15-11v-2m0 25v2" stroke="#0000BD" stroke-miterlimit="10"/><path d="M86 36s12.4 3 14 11m20-46H1v85h119V1z" stroke="#DE1F26" stroke-miterlimit="10"/><path d="M72 35a9 9 0 100-18 9 9 0 000 18z" stroke="#0000BD" stroke-miterlimit="10"/><path d="M17 37h54.26C74.564 37 82 34.766 82 26c0-6.075-4.81-11-10.74-11H17.659" stroke="#0000BD" stroke-miterlimit="10"/><path d="M72 28a2 2 0 100-4 2 2 0 000 4z" stroke="#0000BD" stroke-miterlimit="10"/></svg>