<svg width="125" height="87" fill="none" xmlns="http://www.w3.org/2000/svg"><path d="M123.813 1H1v84.586h122.813V1z" stroke="#DE1F26" stroke-miterlimit="10"/><path d="M46.08 54.482V32.275" stroke="#0000BD"/><path d="M44 32.214h33.609v-1.802H44v1.802zm.045 24.127h33.607v-1.803H44.045v1.803z" stroke="#0000BD" stroke-miterlimit="22.926"/><path fill-rule="evenodd" clip-rule="evenodd" d="M79.613 40.456v-2.309H50.514c-.268.265-.617.488-.593 1.215.024.727.4.9.593 1.094h29.1z" fill="#DF0112" stroke="#0000BD" stroke-miterlimit="22.926"/><path fill-rule="evenodd" clip-rule="evenodd" d="M52.414 40.456a1.318 1.318 0 01-.242-.334l-.06-.091c.09.151.181.303.302.425z" fill="#DF0112"/><path fill-rule="evenodd" clip-rule="evenodd" d="M50.514 45.894c-.445.355-.56.779-.55 1.244.01.465.207.684.55 1.094h29.099v-2.338H50.514z" fill="#DF0112" stroke="#0000BD" stroke-miterlimit="22.926"/><path d="M46.08 14.144v16.26m29.395 25.705v17m-29-17v17-17zm29-42v16.26" stroke="#0000BD"/><path d="M60.806 26.437l-1.198-1.645 2.395.014-1.197 1.631z" stroke="#DF0112" stroke-width=".48" stroke-miterlimit="10"/><path d="M60.89 14l-.044 10.896" stroke="#DF0112" stroke-width=".48"/><path d="M60.806 70.532l-1.198-1.644 2.395.013-1.197 1.631z" stroke="#DF0112" stroke-width=".48" stroke-miterlimit="10"/><path d="M60.89 58.097l-.044 10.896" stroke="#DF0112" stroke-width=".48"/><path d="M77.975 35.609h3v15h-3v-15z" fill="#fff" stroke="#0000BD"/><path d="M75.475 32.609v3h2.5m-2.5 19v-4h2.5" stroke="#0000BD"/></svg>