<svg width="125" height="87" fill="none" xmlns="http://www.w3.org/2000/svg"><path d="M62.399 22.916h21.226c4.263 0 8.5 1.037 12.139 3.258 2.515 1.537 4.88 3.673 5.776 6.527" stroke="#DE1F26" stroke-miterlimit="10"/><path d="M103.306 35.809l-4.46-1.758 4.778-2.946-.318 4.704zM92.32 59.084l-1.004 14.049 3.01-4.731 5.16 3.441-7.166-12.759z" stroke="#DE1F26" stroke-miterlimit="10"/><path d="M123.813 1H1v84.586h122.813V1z" stroke="#DE1F26" stroke-miterlimit="10"/><path d="M85.041 54.156c6.375 0 11.543-5.168 11.543-11.543 0-6.375-5.168-11.543-11.543-11.543-6.375 0-11.543 5.168-11.543 11.543 0 6.375 5.168 11.543 11.543 11.543z" stroke="#0000BD" stroke-miterlimit="10"/><path d="M15.364 56.404h69.677c4.244 0 13.792-2.802 13.792-13.792 0-7.617-6.175-13.792-13.792-13.792H16.209" stroke="#0000BD" stroke-miterlimit="10"/><path d="M85.041 45.158a2.546 2.546 0 100-5.092 2.546 2.546 0 000 5.092z" stroke="#0000BD" stroke-miterlimit="10"/></svg>