<svg width="125" height="87" fill="none" xmlns="http://www.w3.org/2000/svg"><path d="M123.813 1H1v84.586h122.813V1z" stroke="#DE1F26" stroke-miterlimit="10"/><path fill-rule="evenodd" clip-rule="evenodd" d="M62.618 41.631c0 3.441 1.214 6.375 3.744 8.906.607.506 1.212 1.012 1.922 1.518 2.022 1.414 4.353 2.125 6.983 2.227 2.63-.102 4.957-.813 7.083-2.227l1.82-1.518c2.53-2.531 3.745-5.465 3.745-8.906 0-3.541-1.214-6.478-3.744-8.905-2.53-2.53-5.465-3.745-8.904-3.745-3.442 0-6.376 1.215-8.905 3.745-2.53 2.427-3.744 5.364-3.744 8.905zM72.535 39c.708-.71 1.618-1.113 2.732-1.013 1.113-.1 1.92.303 2.63 1.013.707.708 1.114 1.619 1.114 2.732 0 1.012-.407 1.822-1.113 2.529-.71.709-1.518 1.113-2.631 1.215-1.115-.102-2.024-.506-2.732-1.215-.71-.707-1.011-1.518-1.011-2.529 0-1.113.3-2.023 1.01-2.732z" fill="#fff"/><path fill-rule="evenodd" clip-rule="evenodd" d="M75.268 37.987c-1.115-.1-2.025.303-2.733 1.013-.708.708-1.01 1.619-1.01 2.732 0 1.012.302 1.822 1.01 2.529.708.709 1.618 1.113 2.733 1.215 1.113-.102 1.92-.506 2.631-1.215.708-.707 1.113-1.518 1.113-2.529 0-1.113-.405-2.023-1.113-2.732-.71-.71-1.518-1.113-2.63-1.013z" fill="#fff"/><path fill-rule="evenodd" clip-rule="evenodd" d="M66.377 31.148c-2.483 2.524-3.745 5.555-3.745 9.131 0 3.535 1.262 6.566 3.745 9.05 2.484 2.524 5.513 3.786 9.09 3.786s6.607-1.262 9.09-3.787c2.524-2.482 3.787-5.514 3.787-9.049 0-3.577-1.262-6.607-3.788-9.13-2.482-2.484-5.513-3.747-9.09-3.705-3.576-.042-6.606 1.22-9.089 3.704zm5.597 5.596c.968-.968 2.104-1.474 3.492-1.474 1.39 0 2.61.506 3.578 1.474.97.968 1.473 2.146 1.473 3.535 0 1.39-.504 2.568-1.473 3.535-.967.97-2.188 1.473-3.578 1.473-1.388 0-2.524-.504-3.492-1.473-.968-.967-1.473-2.146-1.473-3.535 0-1.389.505-2.566 1.473-3.535z" fill="#E5171B"/><path d="M73.415 38.178c-.568.568-.853 1.25-.853 2.101 0 .795.285 1.477.853 2.045.57.566 1.25.852 2.043.852.796 0 1.478-.285 2.103-.852.567-.568.852-1.25.852-2.045 0-.852-.285-1.532-.852-2.101-.625-.568-1.307-.851-2.103-.851a2.783 2.783 0 00-2.043.851zm-1.476-1.42c-.965.966-1.477 2.102-1.477 3.521 0 1.42.512 2.611 1.477 3.578.966.965 2.158 1.42 3.52 1.42 1.42 0 2.613-.455 3.58-1.42.963-.967 1.475-2.158 1.475-3.578 0-1.419-.512-2.555-1.476-3.521-.966-.966-2.159-1.476-3.579-1.476-1.362.001-2.555.511-3.52 1.476z" stroke="#0000BD" stroke-linecap="round" stroke-linejoin="round"/><path d="M32 55.156l43.087.021m-1.242-29.796l-41.705.035 41.705-.035z" stroke="#0000BD"/><path d="M64.871 29.73c-2.883 2.887-4.413 6.278-4.413 10.52 0 4.244 1.53 7.807 4.412 10.691 2.887 2.883 6.45 4.244 10.519 4.244 4.243 0 7.808-1.361 10.693-4.244 2.883-2.885 4.412-6.445 4.412-10.69 0-4.243-1.53-7.634-4.412-10.52-2.886-2.887-6.45-4.41-10.693-4.41-4.069 0-7.633 1.524-10.518 4.409z" stroke="#0000BD" stroke-linecap="round" stroke-linejoin="round"/><path d="M66.422 31.268c-2.46 2.465-3.768 5.36-3.768 8.981 0 3.625 1.307 6.666 3.768 9.129 2.464 2.461 5.506 3.623 8.98 3.623 3.623 0 6.666-1.162 9.13-3.623 2.461-2.463 3.767-5.504 3.767-9.129 0-3.621-1.306-6.517-3.767-8.981-2.464-2.464-5.507-3.766-9.13-3.766-3.475.001-6.517 1.303-8.98 3.766z" stroke="#0000BD" stroke-linecap="round" stroke-linejoin="round"/><path d="M72.793 68.56l1.396-6.75h1.622l1.394 6.75h-1.09l-.294-1.529h-1.64l-.299 1.53h-1.089zm1.576-2.517h1.261l-.633-3.252-.628 3.252z" fill="#0000BD"/><path d="M64.5 18.068L77.663 18c5.78.149 11.097 2.067 13.837 7" stroke="#DF0112"/><path d="M93.322 23.914l-.499 4.002-3.628-1.716 4.127-2.286z" stroke="#DF0112"/></svg>