<svg width="125" height="87" fill="none" xmlns="http://www.w3.org/2000/svg"><path d="M55.22 60.775l-1.647 6.2 1.75-1.86 2.016 1.978-2.12-6.318z" stroke="#DE1F26" stroke-miterlimit="10"/><path d="M46.49 71.027h-8.249V7.666h28.39V22.34l11.931 10.423v38.264H46.49zm-8.249 0l-2.354 3.658h11.781l2.32-3.39m28.574-.268v9.28H58.378v-9.103" stroke="#0000BD" stroke-miterlimit="10"/><path d="M38.497 22.34H66.63c.27-.271-3.598 4.268-3.598 4.268m-7.327 3.588l-17.121-7.401" stroke="#0000BD" stroke-miterlimit="10"/><path d="M70.547 39.492L67.2 37.218l4.482-1.54-1.134 3.814z" stroke="#DE1F26" stroke-miterlimit="10"/><path d="M55.453 53.863V48.25l-.044-1.396s1.817-.718 1.529-2.23c-.255-1.338-1.485-3.022-1.485-3.022V35.47c4.977.12 8.997 4.22 8.997 9.197a9.175 9.175 0 01-9.196 9.196" fill="#DD1F26"/><path d="M55.254 55.535c6.012 0 10.908-4.896 10.908-10.908 0-6.011-4.896-10.908-10.908-10.908-6.01 0-10.908 4.897-10.908 10.908 0 6.012 4.897 10.908 10.908 10.908z" stroke="#0000BD" stroke-miterlimit="10"/><path d="M55.254 46.498a1.869 1.869 0 001.871-1.871 1.869 1.869 0 00-1.87-1.871 1.869 1.869 0 00-1.872 1.87c.04 1.036.836 1.872 1.871 1.872z" stroke="#0000BD" stroke-miterlimit="10"/><path d="M55.453 35.47h-.199a9.175 9.175 0 00-9.197 9.196 9.175 9.175 0 009.197 9.197 9.176 9.176 0 009.196-9.197c.001-4.976-4.02-9.076-8.997-9.195zm0 0v7.286m0 11.107v-7.365m10.709-1.871h2.234m-24.049 0h-2.44M55.254 33.72v-1.822m0 23.637v1.735" stroke="#0000BD" stroke-miterlimit="10"/><path d="M56.45 26.277s11.674 2.825 13.18 10.356M123.813 1H1v84.587h122.813V1z" stroke="#DE1F26" stroke-miterlimit="10"/></svg>