<svg width="125" height="87" fill="none" xmlns="http://www.w3.org/2000/svg"><path d="M61.578 26.282l-2.293-3.098 4.513.028-2.22 3.07z" stroke="#DE1F26" stroke-miterlimit="10"/><path d="M32.233 29.957V12.393h59.626v17.72m0 27.059v17.854H32.233V57.172" stroke="#0000BD" stroke-miterlimit="10"/><path d="M94.874 30.477H29.286V57.18h65.588V30.477z" stroke="#0000BD" stroke-miterlimit="10"/><path d="M41.685 40.513a2.424 2.424 0 11-4.848 0 2.424 2.424 0 014.848 0zm8.855 0a2.424 2.424 0 11-4.847 0 2.424 2.424 0 014.847 0zm8.854 0a2.424 2.424 0 11-4.847 0 2.424 2.424 0 014.847 0zm8.855 0a2.424 2.424 0 11-4.847 0 2.424 2.424 0 014.847 0zm8.855 0a2.425 2.425 0 11-4.85-.001 2.425 2.425 0 014.85 0zm-30.57 7.978a2.424 2.424 0 11-4.847.001 2.424 2.424 0 014.847 0zm8.856 0a2.425 2.425 0 11-4.85 0 2.425 2.425 0 014.85 0zm8.854 0a2.425 2.425 0 11-4.849 0 2.425 2.425 0 014.849 0zm8.854 0a2.425 2.425 0 11-4.849 0 2.425 2.425 0 014.849 0zm8.855 0a2.425 2.425 0 11-4.849 0 2.425 2.425 0 014.849 0zm4.006-7.978a2.425 2.425 0 11-4.85-.001 2.425 2.425 0 014.85 0z" fill="#0000BD"/><path d="M61.551 14.627v8.602m.027 48.388l-2.293-3.1 4.513.029-2.22 3.07zm-.027-11.657v8.604" stroke="#DE1F26" stroke-miterlimit="10"/><path d="M123.813 1H1v84.586h122.813V1z" stroke="#DE1F26" stroke-miterlimit="10"/></svg>