<svg width="125" height="87" fill="none" xmlns="http://www.w3.org/2000/svg"><path d="M123.813 1H1v84.587h122.813V1z" stroke="#DF0112" stroke-miterlimit="10"/><path d="M61.394 14.051l-3.778 4.303 14.551.024 15.94 19.133v34.478m-27.66.062l3.783-6.605 4.094 6.619M36 14v58.039" stroke="#0000BD"/><path fill-rule="evenodd" clip-rule="evenodd" d="M68.951 38.804c-1.688-1.688-3.592-2.77-5.71-3.333l-2.468 9.216c1.79.412 2.882 2.344 2.272 4.119-.546 1.594-1.95 2.494-3.973 2.033l-2.496 9.38c1.082.26 2.206.39 3.374.39 3.504 0 6.49-1.254 9-3.721 2.51-2.51 3.764-5.537 3.764-9.043 0-3.506-1.254-6.532-3.763-9.041z" fill="#DF0112"/><path d="M56.505 60.16l2.61-9.337c1.714.36 3.337-.38 3.868-2.078.531-1.701-.353-3.523-2.222-4.146l2.48-9.126" stroke="#0000BD" stroke-width=".423"/><path d="M59.893 45.477a2.27 2.27 0 11.001 4.539 2.27 2.27 0 010-4.539zm0-10.491c7.048 0 12.76 5.713 12.76 12.76 0 7.048-5.712 12.761-12.76 12.761-7.047 0-12.76-5.713-12.76-12.76.001-7.048 5.714-12.761 12.76-12.761zm0-2.046c8.178 0 14.805 6.629 14.805 14.806 0 8.176-6.627 14.805-14.805 14.805-8.176 0-14.805-6.63-14.805-14.805.001-8.177 6.63-14.806 14.805-14.806z" stroke="#0000BD" stroke-miterlimit="22.926"/><path d="M56.025 32.123l-19.995-7.71" stroke="#0000BD"/><path d="M53.35 73.041l1.396-6.75h1.621l1.394 6.75h-1.09l-.294-1.529h-1.64l-.299 1.529H53.35zm1.577-2.517h1.262l-.633-3.252-.629 3.252z" fill="#0000BD"/><path d="M65.128 28.241c6.182.133 8.795 2.285 10.871 6.267m2.197-.645l-.808 3.952-3.484-1.993 4.292-1.959z" stroke="#DF0112"/></svg>