<svg width="131" height="87" fill="none" xmlns="http://www.w3.org/2000/svg"><path d="M101.161 48.408l-2.292-3.1 4.513.03-2.221 3.07zm-.026-11.656v8.603m11.641 25.411l-3.427-1.762 4.057-1.973-.63 3.735zm-5.187-10.436l3.811 7.713m-22.155 2.723l3.428-1.762-4.059-1.973.631 3.735zm5.188-10.436l-3.812 7.713m-66.559-9.681l3.852-.113-2.811-3.532-1.041 3.645zm9.179-7.184l-6.764 5.317m9.391-25.115l-.947-3.735-2.836 3.51 3.783.224zm-9.006-7.398l6.66 5.445" stroke="#DE1F26" stroke-miterlimit="10"/><path d="M79.627 55.938h-4.14v17.76h4.14v-17.76zm46.815 0H122.3v17.76h4.142v-17.76z" fill="#0000BD"/><path d="M120.237 48.617H81.99v3.978h38.247v-3.978zm-74.871 33.2l49.487-78.91" stroke="#DE1F26" stroke-miterlimit="10"/><path d="M100.685 52.565l-4.301 4.302 1.516 1.516 4.301-4.303-1.516-1.515z" fill="#DE1F26"/><path d="M100.193 54.09l4.302 4.303 1.515-1.516-4.301-4.302-1.516 1.515z" fill="#DE1F26"/><path d="M101.161 47.406v5.034" stroke="#DE1F26" stroke-miterlimit="10"/><path d="M19.168 13.743c6.443 0 11.666-.776 11.666-1.735 0-.958-5.223-1.735-11.666-1.735-6.443 0-11.666.777-11.666 1.735 0 .959 5.223 1.735 11.666 1.735zm11.511 3.325c0 .958-5.188 1.736-11.588 1.736-6.4 0-11.588-.778-11.588-1.736" stroke="#0000BD" stroke-miterlimit="10"/><path d="M7.503 12.008v7.262l.35.253 23.212 16.826v9.458L7.361 63.123v7.492" stroke="#0000BD" stroke-miterlimit="10"/><path d="M30.834 12.008l-.064 7.91 21.161 15.346v12.275L30.124 62.562l-.01 7.862c0 1.687-5.07 3.054-11.324 3.054S7.36 72.08 7.36 70.394" stroke="#0000BD" stroke-miterlimit="10"/><path d="M30.114 65.367c0 1.687-5.094 3.054-11.378 3.054-6.283 0-11.377-1.367-11.377-3.054" stroke="#0000BD" stroke-miterlimit="10"/><path d="M28.476 34.612L9.839 20.93l-2.073 2.823 18.637 13.683 2.073-2.824zm21.308 15.12l-17.17 11.819 1.987 2.886 17.17-11.819-1.987-2.886z" fill="#0000BD"/><path d="M129.888 1H1v84.586h128.888V1z" stroke="#DE1F26" stroke-miterlimit="10"/><path d="M122.245 52.607H79.787v24.697h42.458V52.607z" stroke="#DE1F26" stroke-miterlimit="10"/></svg>