<svg width="152" height="104" fill="none" xmlns="http://www.w3.org/2000/svg"><path fill="#F6F6F6" d="M0 0h152v104H0z"/><path fill-rule="evenodd" clip-rule="evenodd" d="M96.83 32.99h1.75c.911 0 1.698.313 2.36.95.65.612.987 1.349.987 2.148.063 6.882-.012 13.777-.012 20.659v1.81c.375 3.223 1.786 6.071 4.247 8.544 1.887 1.886 4.048 3.185 6.497 3.922 1.611.575 4.634.85 6.421.85h12.168V59.556h-12.593c-.837-.037-1.561-.35-2.186-.937-.65-.612-.887-1.324-.9-2.123V44.494l-.087-10.504c-.375-3.223-1.786-6.07-4.248-8.544a16.204 16.204 0 00-2.835-2.273L96.83 32.99zM20 75.757h1.924a9.8 9.8 0 011.312.075c.362.05.687.15.999.325a2.5 2.5 0 01.937.937c.212.387.325.824.325 1.31 0 .438-.1.838-.325 1.2-.212.375-.5.662-.875.887a2.356 2.356 0 01-1.199.35l2.274 3.022h-1l-2.748-3.672h.237c.4 0 .725-.012 1-.037.275-.025.524-.088.762-.175a1.751 1.751 0 001.05-1.636 1.7 1.7 0 00-.2-.812 1.837 1.837 0 00-1.324-.962 8.078 8.078 0 00-1.063-.063h-1.274v7.37H20v-8.119zm15.753 0h4.423v.737h-3.623v2.91h3.498v.737h-3.498v2.985h3.623v.737h-4.423v-8.106zm48.147 0h.812v7.37h3.36v.736H83.9v-8.106zm14.167 0h.812v8.094h-.812v-8.094zm11.568 0h1.1l4.535 6.72v-6.72h.812v8.094h-.812l-4.823-7.12v7.12h-.812v-8.094zm17.215 0h4.435v.737h-3.623v2.91h3.498v.737h-3.498v2.985h3.623v.737h-4.435v-8.106zM42.524 52.325c.125 0 .238 0 .35-.012l.075.062h.437c.862.013 1.637.337 2.287.987.674.662.999 1.449.999 2.36l.162 2.836c.375 3.222 1.787 6.07 4.248 8.543a15.4 15.4 0 001.761 1.524l10.694-9.08c-.824-.038-1.549-.35-2.174-.937-.65-.612-.886-1.324-.899-2.123v-.488c0-1.786-.3-3.497-.912-5.108a14.485 14.485 0 00-2.411-4.572c2.249-2.897 3.323-6.082 3.323-9.692 0-1.786-.3-3.497-.912-5.108-.774-2.449-2.174-4.61-4.16-6.495-2.624-2.461-5.66-3.885-9.082-4.247-.563-.063-1.125-.1-1.687-.1H33.63C26.62 20.687 20 25.945 20 33.003v38.894h13.63V33.003h9.756c.862.012 1.637.337 2.287.987.674.662.999 1.448.999 2.36 0 2.311-1.162 3.547-4.16 3.697a6.136 6.136 0 00-6.134 6.133c.013 3.397 2.76 6.145 6.146 6.145z" fill="#093A54"/><path fill-rule="evenodd" clip-rule="evenodd" d="M50.995 81.59c.013.3.088.562.225.812s.337.45.575.6c.25.15.512.224.812.224.312 0 .587-.062.837-.2.25-.137.462-.324.612-.574.15-.25.225-.525.225-.825a1.4 1.4 0 00-.15-.636c-.1-.2-.238-.375-.413-.513a2.147 2.147 0 00-.537-.312 6.123 6.123 0 00-.712-.225 6.171 6.171 0 01-.837-.262 2.15 2.15 0 01-.587-.35c-.45-.387-.675-.886-.675-1.511 0-.425.1-.8.313-1.137a2.27 2.27 0 01.837-.774c.35-.187.737-.275 1.162-.275.4 0 .774.1 1.111.287.338.2.613.463.813.787.2.338.3.7.3 1.112h-.85a1.5 1.5 0 00-.225-.737 1.344 1.344 0 00-.525-.5 1.567 1.567 0 00-.737-.174c-.25 0-.487.062-.7.187-.212.125-.387.3-.512.512-.124.212-.187.45-.187.7 0 .3.075.549.225.724.15.187.325.325.55.412.224.088.5.187.837.275.424.112.737.212.937.3.2.075.412.212.612.4.237.212.424.462.562.761.137.3.2.612.2.937 0 .437-.113.837-.338 1.2a2.48 2.48 0 01-.9.86 2.447 2.447 0 01-1.223.313c-.45 0-.875-.1-1.262-.312a2.329 2.329 0 01-.912-.862 2.358 2.358 0 01-.337-1.236h.874v.012zm3.873-11.666c.862.45 1.774.825 2.723 1.112 1.612.574 4.635.85 6.422.85h18.526c.575 0 1.137-.038 1.687-.1 3.423-.376 6.459-1.787 9.082-4.248 1.999-1.886 3.385-4.046 4.16-6.494.6-1.612.912-3.323.912-5.109 0-4.16-1.487-7.856-4.472-11.054-2.986-3.222-6.746-4.821-11.294-4.821-3.423 0-5.134-1.237-5.134-3.697 0-.912.337-1.699 1-2.36.649-.65 1.423-.988 2.285-.988 3.673-.037 8.283-.025 12.53-.012l12.88-10.93a14.637 14.637 0 00-1.461-.524c-1.612-.574-4.635-.849-6.421-.849h-18.74c-.574 0-1.136.038-1.686.1-3.423.375-6.459 1.786-9.082 4.247-2 1.886-3.386 4.046-4.16 6.495a14.567 14.567 0 00-.912 5.108c0 4.16 1.486 7.856 4.472 11.066 2.986 3.223 6.746 4.822 11.293 4.822 3.424 0 5.135 1.236 5.135 3.697 0 .912-.337 1.699-1 2.36-.649.65-1.424.987-2.286.987H67.085L54.869 69.924zm18.627 9.867c0 .762-.2 1.474-.575 2.111a4.222 4.222 0 01-1.574 1.537A4.267 4.267 0 0169.21 84a4.21 4.21 0 01-2.112-.562 4.253 4.253 0 01-1.574-1.512 3.958 3.958 0 01-.587-2.086c0-.761.187-1.473.575-2.123.387-.65.9-1.15 1.561-1.524a4.267 4.267 0 012.137-.562c.75 0 1.461.188 2.11.55a4.253 4.253 0 011.575 1.511c.4.65.6 1.337.6 2.098zm-4.273-3.384c-.625 0-1.2.162-1.736.462a3.43 3.43 0 00-1.275 1.261 3.29 3.29 0 00-.462 1.711c0 .612.162 1.175.475 1.687.325.512.75.924 1.286 1.224a3.494 3.494 0 003.049.187c.425-.175.8-.425 1.112-.737.324-.312.562-.687.75-1.1.174-.424.261-.86.261-1.323 0-.612-.162-1.174-.474-1.686a3.46 3.46 0 00-1.275-1.237 3.758 3.758 0 00-1.711-.45z" fill="#F5770A"/><path fill-rule="evenodd" clip-rule="evenodd" d="M127.1 20c-.749 0-1.436.312-1.974.812-.549.574-.849 1.224-.849 2.048 0 .75.312 1.4.849 1.936.55.575 1.225.812 1.974.812.787 0 1.462-.237 2.012-.812.549-.55.824-1.186.824-1.936 0-.812-.275-1.461-.824-2.048-.538-.5-1.225-.812-2.012-.812zm-1.636 1.2c.449-.413 1.024-.688 1.636-.688.612 0 1.187.275 1.637.687.437.475.674.987.674 1.674a2.18 2.18 0 01-.674 1.598 2.342 2.342 0 01-1.637.688 2.286 2.286 0 01-1.636-.688 2.064 2.064 0 01-.65-1.598c-.025-.687.212-1.2.65-1.674z" fill="#093A54"/><path fill-rule="evenodd" clip-rule="evenodd" d="M125.952 24.27v-2.647h1.124c.288 0 .488.025.613.075a.68.68 0 01.312.25.785.785 0 01.112.412c0 .2-.062.362-.174.487-.113.125-.288.212-.525.25.112.062.212.137.287.225.075.075.175.224.3.424l.325.512h-.637l-.388-.574a3.727 3.727 0 00-.287-.387.48.48 0 00-.162-.113c-.063-.025-.15-.025-.275-.025h-.113v1.112h-.512zm.537-1.535h.4c.262 0 .412-.013.475-.038a.348.348 0 00.15-.112.344.344 0 00.05-.2.294.294 0 00-.075-.213.341.341 0 00-.2-.1c-.038-.012-.175-.012-.387-.012h-.413v.675z" fill="#093A54"/></svg>