<svg width="475" height="384" fill="none" xmlns="http://www.w3.org/2000/svg"><path d="M135.97 15V3.75h6.679V15h-1.801V5.398h-3.077V15h-1.801zm14.487-.835c-.586.654-1.414.982-2.483.982-1.069 0-1.899-.33-2.49-.99-.591-.659-.886-1.628-.886-2.907V7.5c0-1.28.295-2.249.886-2.908.591-.659 1.421-.988 2.49-.988 1.069 0 1.897.33 2.483.988.591.655.886 1.624.886 2.908v3.75c0 1.284-.295 2.256-.886 2.915zm-2.483-.666c.518 0 .908-.171 1.172-.513.268-.347.403-.926.403-1.736V7.5c0-.81-.132-1.387-.396-1.729-.263-.346-.657-.52-1.179-.52-.518 0-.911.174-1.179.52-.264.342-.396.918-.396 1.729v3.75c0 .81.132 1.39.396 1.736.263.342.657.512 1.179.512zm11.243 3.522V15h-5.325v2.021h-1.648v-3.669h.806c.302-.664.498-1.623.586-2.878.092-1.255.129-3.496.109-6.724h6.072v9.602h1.048v3.67h-1.648zm-4.109-5.141c-.098.625-.222 1.116-.374 1.472h3.282V5.398h-2.623c-.009 3.223-.105 5.383-.285 6.482zm6.518 3.12l2.329-11.25h2.703L168.98 15h-1.817l-.49-2.549h-2.732L163.443 15h-1.817zm2.63-4.197h2.102l-1.055-5.42-1.047 5.42zm8.723-1.758c.444 0 .832-.034 1.164-.102V3.75h1.802V15h-1.802v-4.438a6.681 6.681 0 01-1.406.131c-1.172 0-2.031-.263-2.578-.79-.542-.533-.813-1.4-.813-2.6V3.75h1.802v3.552c0 .65.151 1.104.454 1.363.308.253.767.38 1.377.38zm4.16 5.955l2.329-11.25h2.703L184.493 15h-1.817l-.491-2.549h-2.732L178.955 15h-1.816zm2.629-4.197h2.102l-1.054-5.42-1.048 5.42zM143.77 34v-9.763L141.792 34h-2.175l-1.992-9.836V34h-1.655V22.75h3.061l1.743 8.643 1.678-8.643h3.12V34h-1.802zm3.003 0l2.329-11.25h2.703L154.126 34h-1.816l-.491-2.549h-2.732L148.589 34h-1.816zm2.629-4.197h2.102l-1.054-5.42-1.048 5.42zm4.563-5.405V22.75h6.211v1.648h-2.204V34h-1.795v-9.602h-2.212zM161.37 34V22.75h5.164v1.648h-3.362V27.4h3.061v1.648h-3.061v3.303h3.362V34h-5.164zm6.812 0V22.75h3.288c.952 0 1.716.269 2.293.806.581.537.871 1.294.871 2.27v.747c0 1.02-.29 1.814-.871 2.38-.581.567-1.346.85-2.293.85h-1.487V34h-1.801zm3.134-9.602h-1.333v3.75h1.333c1.011 0 1.516-.574 1.516-1.721v-.454c0-1.05-.505-1.575-1.516-1.575zm6.475-1.648v9.39l2.424-9.39h2.674V34h-1.648v-9.39L178.809 34h-2.673V22.75h1.655zM184.082 34l2.329-11.25h2.703L191.436 34h-1.816l-.491-2.549h-2.732L185.899 34h-1.817zm2.63-4.197h2.102l-1.055-5.42-1.047 5.42zm6.408 1.648c.088-.361.145-1.216.169-2.563.029-1.353.044-3.399.044-6.138h6.042V34h-1.794v-9.602h-2.6c0 3.53-.069 5.91-.205 7.141-.108.913-.337 1.553-.689 1.919-.351.361-.918.542-1.699.542h-.212v-1.648h.066c.268 0 .463-.076.586-.227.126-.156.224-.38.292-.674zM200.577 34l2.329-11.25h2.702L207.93 34h-1.816l-.491-2.549h-2.732L202.393 34h-1.816zm2.629-4.197h2.102l-1.055-5.42-1.047 5.42z" fill="#0000BD"/><path d="M215.397 350.871v-4.951h-3.149v4.951h-1.802v-11.25h1.802v4.651h3.149v-4.651h1.802v11.25h-1.802zm3.896 0v-11.25h5.164v1.648h-3.362v3.003h3.062v1.648h-3.062v3.303h3.362v1.648h-5.164zm14.612 0v-9.763l-1.977 9.763h-2.176l-1.992-9.836v9.836h-1.655v-11.25h3.062l1.743 8.643 1.677-8.643h3.12v11.25h-1.802zm3.003 0l2.329-11.25h2.703l2.322 11.25h-1.817l-.49-2.549h-2.732l-.498 2.549h-1.817zm2.63-4.197h2.102l-1.055-5.42-1.047 5.42zm5.918 4.197v-11.25h5.09v1.648h-3.289v9.602h-1.801zm11.455 0v-4.951h-3.15v4.951h-1.802v-11.25h1.802v4.651h3.15v-4.651h1.801v11.25h-1.801zm5.551-11.25v9.39l2.425-9.39h2.673v11.25h-1.648v-9.39l-2.432 9.39h-2.673v-11.25h1.655zm6.292 1.648v-1.648h6.211v1.648h-2.205v9.602h-1.794v-9.602h-2.212zm12.356 9.602v-4.951h-3.15v4.951h-1.801v-11.25h1.801v4.651h3.15v-4.651h1.802v11.25h-1.802zm10.349-3.523c0 1.026-.31 1.87-.93 2.534-.615.66-1.475.989-2.578.989h-2.945v-11.25h1.802v3.897h1.143c1.118 0 1.982.307 2.592.922.611.611.916 1.429.916 2.454v.454zm2.922 3.523h-1.794v-11.25h1.794v11.25zm-6.672-5.698h-.901v4.05h.901c.708 0 1.208-.171 1.501-.513.298-.346.447-.852.447-1.516v-.146c0-.61-.149-1.074-.447-1.392-.293-.322-.793-.483-1.501-.483zm13.118-8.855h1.428c0 .698-.215 1.25-.645 1.655-.429.401-1.001.601-1.714.601-.703 0-1.269-.2-1.699-.601-.425-.405-.637-.957-.637-1.655h1.421c0 .327.085.574.256.74a.94.94 0 00.659.241c.279 0 .503-.08.674-.241.171-.166.257-.413.257-.74zm-2.696 3.303v9.39l2.425-9.39h2.673v11.25h-1.648v-9.39l-2.432 9.39h-2.673v-11.25h1.655zm-79.885 30.25v-9.763l-1.977 9.763h-2.176l-1.992-9.836v9.836h-1.655v-11.25h3.061l1.743 8.643 1.678-8.643h3.12v11.25h-1.802zm3.003 0l2.329-11.25h2.703l2.322 11.25h-1.817l-.491-2.549h-2.732l-.498 2.549h-1.816zm2.629-4.197h2.102l-1.054-5.42-1.048 5.42zm4.563-5.405v-1.648h6.211v1.648h-2.204v9.602h-1.795v-9.602h-2.212zm7.405 9.602v-11.25h5.164v1.648h-3.362v3.003h3.061v1.648h-3.061v3.303h3.362v1.648h-5.164zm6.812 0v-11.25h3.288c.952 0 1.717.269 2.293.806.581.537.871 1.294.871 2.27v.747c0 1.021-.29 1.814-.871 2.381-.581.566-1.345.849-2.293.849h-1.487v4.197h-1.801zm3.134-9.602h-1.333v3.75h1.333c1.011 0 1.517-.574 1.517-1.721v-.454c0-1.05-.506-1.575-1.517-1.575zm6.475-1.648v9.39l2.424-9.39h2.674v11.25h-1.648v-9.39l-2.432 9.39h-2.673v-11.25h1.655zm6.292 11.25l2.329-11.25h2.702l2.322 11.25h-1.816l-.491-2.549h-2.732l-.498 2.549h-1.816zm2.629-4.197h2.102l-1.055-5.42-1.047 5.42zm6.409 1.648c.088-.361.144-1.216.168-2.563.029-1.353.044-3.399.044-6.138h6.043v11.25h-1.795v-9.602h-2.6c0 3.53-.068 5.911-.205 7.141-.107.913-.337 1.553-.689 1.919-.351.361-.917.542-1.699.542h-.212v-1.648h.066c.268 0 .464-.076.586-.227.127-.156.224-.381.293-.674zM384.543 263v-9.763L382.565 263h-2.175l-1.992-9.836V263h-1.655v-11.25h3.061l1.743 8.643 1.678-8.643h3.12V263h-1.802zm3.003 0l2.329-11.25h2.703l2.321 11.25h-1.816l-.491-2.549h-2.732l-.498 2.549h-1.816zm2.629-4.197h2.102l-1.054-5.42-1.048 5.42zm5.918 4.197v-11.25h5.091v1.648h-3.289V263h-1.802zm11.455 0v-4.951h-3.149V263h-1.802v-11.25h1.802v4.651h3.149v-4.651h1.802V263h-1.802zm5.552-11.25v9.39l2.424-9.39h2.674V263h-1.648v-9.39l-2.432 9.39h-2.673v-11.25h1.655zm6.292 1.648v-1.648h6.211v1.648h-2.205V263h-1.794v-9.602h-2.212zM431.748 263v-4.951h-3.15V263h-1.802v-11.25h1.802v4.651h3.15v-4.651h1.801V263h-1.801zm10.349-3.523c0 1.025-.31 1.87-.93 2.534-.616.659-1.475.989-2.579.989h-2.944v-11.25h1.802v3.896h1.142c1.119 0 1.983.308 2.593.923.611.611.916 1.429.916 2.454v.454zm2.922 3.523h-1.794v-11.25h1.794V263zm-6.672-5.698h-.901v4.05h.901c.708 0 1.208-.171 1.501-.513.298-.346.447-.852.447-1.516v-.146c0-.611-.149-1.074-.447-1.392-.293-.322-.793-.483-1.501-.483zm13.117-8.855h1.429c0 .698-.215 1.25-.645 1.655-.43.4-1.001.601-1.714.601-.703 0-1.269-.201-1.699-.601-.425-.405-.637-.957-.637-1.655h1.421c0 .327.085.574.256.74a.94.94 0 00.659.241c.279 0 .503-.08.674-.241.171-.166.256-.413.256-.74zm-2.695 3.303v9.39l2.424-9.39h2.674V263h-1.648v-9.39l-2.432 9.39h-2.673v-11.25h1.655zM384.543 282v-9.763L382.565 282h-2.175l-1.992-9.836V282h-1.655v-11.25h3.061l1.743 8.643 1.678-8.643h3.12V282h-1.802zm3.003 0l2.329-11.25h2.703l2.321 11.25h-1.816l-.491-2.549h-2.732l-.498 2.549h-1.816zm2.629-4.197h2.102l-1.054-5.42-1.048 5.42zm4.563-5.405v-1.648h6.211v1.648h-2.204V282h-1.795v-9.602h-2.212zm7.405 9.602v-11.25h5.164v1.648h-3.362v3.003h3.061v1.648h-3.061v3.303h3.362V282h-5.164zm6.812 0v-11.25h3.288c.952 0 1.717.269 2.293.806.581.537.871 1.294.871 2.27v.747c0 1.021-.29 1.814-.871 2.381-.581.566-1.346.849-2.293.849h-1.487V282h-1.801zm3.134-9.602h-1.333v3.75h1.333c1.011 0 1.516-.574 1.516-1.721v-.454c0-1.05-.505-1.575-1.516-1.575zm6.475-1.648v9.39l2.424-9.39h2.674V282h-1.648v-9.39l-2.432 9.39h-2.673v-11.25h1.655zm6.291 11.25l2.33-11.25h2.702l2.322 11.25h-1.816l-.491-2.549h-2.732l-.498 2.549h-1.817zm2.63-4.197h2.102l-1.055-5.42-1.047 5.42zm6.409 1.648c.087-.361.144-1.216.168-2.563.029-1.353.044-3.399.044-6.138h6.042V282h-1.794v-9.602h-2.6c0 3.53-.068 5.911-.205 7.141-.108.913-.337 1.553-.689 1.919-.351.361-.918.542-1.699.542h-.212v-1.648h.066c.268 0 .464-.076.586-.227.127-.156.224-.381.293-.674z" fill="#DF0112"/><path d="M337.252 253.222l-11.896-16.757c-15.715 26.957-42.97 46.455-74.994 51.535v31.011m39.721-55.333a105.744 105.744 0 01-26.067 13.106M67.893 90.5v30.972L143 180" stroke="#0000BD"/><circle cx="233.604" cy="183.09" r="91.235" fill="#DF0112"/><circle cx="233.605" cy="183.09" r="83.287" fill="#DF0112" stroke="#0000BD"/><circle cx="233.604" cy="183.091" r="54.737" fill="#F6F6F6" stroke="#0000BD"/><path d="M150.318 183.09c0-45.998 37.289-83.287 83.287-83.287 45.998 0 83.287 37.289 83.287 83.287 0 4.15-.304 8.23-.89 12.217-.361-.216-.869-.519-1.513-.895a256.848 256.848 0 00-5.966-3.382 302.895 302.895 0 00-20.438-10.258c-16.409-7.451-37.187-14.94-54.48-14.94s-38.071 7.489-54.48 14.94a302.837 302.837 0 00-20.437 10.258 257.312 257.312 0 00-5.967 3.382c-.643.376-1.152.679-1.513.895a83.985 83.985 0 01-.89-12.217z" fill="#F6F6F6" stroke="#0000BD"/><circle cx="233.605" cy="183.089" r="11.292" fill="#v" stroke="#0000BD"/><path d="M17 3.724v86.89h95.579V3.724m-48.009 0v38.927" stroke="#0000BD"/><path d="M71.887 42.727L64.69 55.19l-7.195-12.462h14.39z" stroke="#0000BD"/><path transform="matrix(.54908 .42772 -.45686 .55178 76.956 146.858)" stroke="#0000BD" d="M0-.5h55.928"/><path d="M111.93 164.596l6.636 14.173-15.001-3.545 8.365-10.628z" stroke="#0000BD"/><path stroke="#DF0112" d="M232.498 288v17.368m7.072-.133l-7.205 12.749-7.204-12.749h14.409zm116.754-34.755l-6.659 11.533-6.659-11.533h13.318z"/><path d="M295.006 259.172l-3.093 7.316-4.789-6.337 7.882-.979z" stroke="#0000BD"/><path d="M331.046 226.535l18.619 25.446v17.999" stroke="#DF0112"/><path d="M213 319v-31s-63.897-10.084-81.677-80.24L38 133V91" stroke="#0000BD"/></svg>