<svg width="23" height="23" fill="none" xmlns="http://www.w3.org/2000/svg"><path d="M18.508 14.776c-1.323 0-2.503.63-3.257 1.605l-6.319-3.53a4.098 4.098 0 00-.004-2.716L15.24 6.61a4.106 4.106 0 003.262 1.614 4.118 4.118 0 004.112-4.112A4.115 4.115 0 0018.503 0a4.115 4.115 0 00-4.112 4.112c0 .477.081.936.234 1.361L8.316 8.998a4.092 4.092 0 00-3.261-1.615 4.118 4.118 0 00-4.112 4.112 4.112 4.112 0 007.383 2.493l6.313 3.53c-.152.43-.238.892-.238 1.37A4.118 4.118 0 0018.513 23a4.115 4.115 0 004.111-4.112 4.12 4.12 0 00-4.116-4.112zm0-13.482a2.825 2.825 0 012.822 2.823 2.825 2.825 0 01-2.822 2.822 2.825 2.825 0 01-2.823-2.822 2.828 2.828 0 012.823-2.823zM5.059 14.318a2.825 2.825 0 01-2.822-2.823 2.825 2.825 0 012.822-2.822 2.825 2.825 0 012.823 2.822 2.828 2.828 0 01-2.823 2.823zm13.449 7.388a2.825 2.825 0 01-2.823-2.823 2.825 2.825 0 012.823-2.822 2.825 2.825 0 012.822 2.822 2.825 2.825 0 01-2.822 2.823z" fill="#313131"/></svg>