<svg width="84" height="59" fill="none" xmlns="http://www.w3.org/2000/svg"><path fill-rule="evenodd" clip-rule="evenodd" d="M7.47 0h45.403C68.803 0 82.013 12.103 84 27.66H67.148c-1.692-5.755-7.027-9.988-13.282-9.988H3.753L0 0h7.47z" fill="#0000BD"/><path d="M51.4 30.146h4.159l-1.987-3.899h-.11L51.4 30.146zm-2.354 4.64H46.14l5.52-10.506h3.679l5.482 10.507h-2.907L56.59 32.15h-6.145l-1.398 2.636zM35.36 24.28h8.904v2.079h-6.439v8.428h-2.502V24.28h.037zm-12.07 2.079v3.23h4.158c.626 0 1.03-.111 1.251-.371.22-.26.368-.669.368-1.263 0-.557-.11-.965-.331-1.188-.258-.26-.662-.408-1.288-.408h-4.157zm0 5.309v3.081h-2.502V24.28h7.102c1.324 0 2.244.298 2.833.855.552.557.846 1.522.846 2.821 0 1.337-.294 2.302-.846 2.86-.552.593-1.472.853-2.796.853H23.29zM8.096 28.549h6.181v-.445c0-.817-.11-1.3-.368-1.522-.258-.223-.81-.297-1.656-.297h-3.2c-.737 0-1.215.111-1.546.334-.294.223-.442.63-.442 1.15H4.562c0-1.373.368-2.338 1.104-2.895.626-.446 1.62-.706 2.944-.706h4.12c1.546 0 2.576.26 3.165.78.552.52.846 1.522.846 3.044v3.082c0 1.41-.257 2.376-.81 2.933-.551.52-1.545.817-2.98.817H8.352c-1.508 0-2.502-.26-3.017-.743-.515-.52-.736-1.485-.736-2.896h2.502c0 .632.147 1.04.442 1.263.294.222.81.297 1.582.297h3.2c.737 0 1.252-.112 1.546-.334.331-.26.479-.78.479-1.56v-.482H8.095v-1.82z" fill="#2B2A29"/><path fill-rule="evenodd" clip-rule="evenodd" d="M7.47 58.956h45.403c15.931 0 29.14-12.14 31.127-27.659H67.148c-1.692 5.755-7.027 9.987-13.282 9.987H3.753L0 58.956h7.47z" fill="#E31E24"/></svg>